<?xml version="1.0" encoding="UTF-8" standalone="no"?>
<!-- Created with Inkscape (http://www.inkscape.org/) -->

<svg
   xmlns:dc="http://purl.org/dc/elements/1.1/"
   xmlns:cc="http://creativecommons.org/ns#"
   xmlns:rdf="http://www.w3.org/1999/02/22-rdf-syntax-ns#"
   xmlns:svg="http://www.w3.org/2000/svg"
   xmlns="http://www.w3.org/2000/svg"
   xmlns:sodipodi="http://sodipodi.sourceforge.net/DTD/sodipodi-0.dtd"
   xmlns:inkscape="http://www.inkscape.org/namespaces/inkscape"
   width="500"
   height="500"
   viewBox="0 0 132.29166 132.29167"
   version="1.1"
   id="svg4584"
   inkscape:version="0.92.4 (f8dce91, 2019-08-02)"
   sodipodi:docname="list-expand.svg">
  <defs
     id="defs4578" />
  <sodipodi:namedview
     id="base"
     pagecolor="#ffffff"
     bordercolor="#666666"
     borderopacity="1.0"
     inkscape:pageopacity="0.0"
     inkscape:pageshadow="2"
     inkscape:zoom="1.63"
     inkscape:cx="142.66105"
     inkscape:cy="267.48384"
     inkscape:document-units="px"
     inkscape:current-layer="layer1"
     showgrid="true"
     units="px"
     inkscape:window-width="1800"
     inkscape:window-height="1087"
     inkscape:window-x="67"
     inkscape:window-y="44"
     inkscape:window-maximized="0">
    <inkscape:grid
       type="xygrid"
       id="grid4586" />
  </sodipodi:namedview>
  <metadata
     id="metadata4581">
    <rdf:RDF>
      <cc:Work
         rdf:about="">
        <dc:format>image/svg+xml</dc:format>
        <dc:type
           rdf:resource="http://purl.org/dc/dcmitype/StillImage" />
        <dc:title></dc:title>
      </cc:Work>
    </rdf:RDF>
  </metadata>
  <g
     inkscape:label="Layer 1"
     inkscape:groupmode="layer"
     id="layer1"
     transform="translate(0,-164.70831)">
    <g
       id="g823"
       transform="matrix(0.99593493,0,0,0.99593493,-1.312161,1.2019513)"
       style="stroke-width:1.00408161">
      <path
         inkscape:connector-curvature="0"
         d="M 31.927431,277.4618 3.6677308,249.32706 c -1.36253,-1.35643 -1.36253,-3.55684 0,-4.91327 l 3.29652,-3.28178 c 1.36108,-1.35499 3.5655502,-1.35644 4.9295302,-0.006 l 22.50132,22.29784 22.50278,-22.29644 c 1.36398,-1.35209 3.56846,-1.34919 4.92953,0.006 l 3.29653,3.28179 c 1.36252,1.35643 1.36252,3.55684 0,4.91327 l -28.26117,28.13329 c -1.36252,1.35643 -3.57281,1.35643 -4.93534,0 z"
         id="path2"
         style="fill:currentColor;stroke-width:0.26566327" />
      <path
         inkscape:connector-curvature="0"
         d="m 36.864231,181.99729 28.259702,28.13474 c 1.36253,1.35643 1.36253,3.55684 0,4.91327 l -3.296521,3.28178 c -1.36108,1.35499 -3.56555,1.35644 -4.92953,0.006 l -22.501319,-22.29784 -22.50278,22.29644 c -1.36398,1.35209 -3.5684594,1.34919 -4.9295324,-0.006 l -3.296528,-3.28179 c -1.362519,-1.35643 -1.362519,-3.55684 0,-4.91327 L 31.928892,181.99733 c 1.36252,-1.35643 3.572809,-1.35643 4.935339,0 z"
         id="path2-5"
         style="fill:currentColor;stroke-width:0.26566327" />
      <rect
         ry="2.6566327"
         rx="3.2201607"
         y="172.11664"
         x="79.904167"
         height="21.166666"
         width="52.916668"
         id="rect5304"
         style="fill:#000000;fill-opacity:1;stroke:none;stroke-width:18.59643364;stroke-linecap:butt;stroke-linejoin:round;stroke-miterlimit:0;stroke-dasharray:none" />
      <rect
         ry="2.6566327"
         rx="3.2201607"
         y="219.34476"
         x="79.904167"
         height="21.166666"
         width="52.916664"
         id="rect5304-9"
         style="fill:#000000;fill-opacity:1;stroke:none;stroke-width:18.59643364;stroke-linecap:butt;stroke-linejoin:round;stroke-miterlimit:0;stroke-dasharray:none" />
      <rect
         transform="scale(1,-1)"
         ry="2.6566327"
         rx="3.2201607"
         y="-289.06247"
         x="79.904167"
         height="21.166666"
         width="52.916664"
         id="rect5304-1"
         style="fill:#000000;fill-opacity:1;stroke:none;stroke-width:18.59643173;stroke-linecap:butt;stroke-linejoin:round;stroke-miterlimit:0;stroke-dasharray:none" />
    </g>
  </g>
</svg>
