<?xml version="1.0" encoding="UTF-8" standalone="no"?>
<!-- Created with Inkscape (http://www.inkscape.org/) -->

<svg
   xmlns:dc="http://purl.org/dc/elements/1.1/"
   xmlns:cc="http://creativecommons.org/ns#"
   xmlns:rdf="http://www.w3.org/1999/02/22-rdf-syntax-ns#"
   xmlns:svg="http://www.w3.org/2000/svg"
   xmlns="http://www.w3.org/2000/svg"
   xmlns:sodipodi="http://sodipodi.sourceforge.net/DTD/sodipodi-0.dtd"
   xmlns:inkscape="http://www.inkscape.org/namespaces/inkscape"
   width="512"
   height="512"
   viewBox="0 0 135.46666 135.46667"
   version="1.1"
   id="svg4584"
   inkscape:version="0.92.4 (33fec40, 2019-01-16)"
   sodipodi:docname="list-collapse.svg">
  <defs
     id="defs4578" />
  <sodipodi:namedview
     id="base"
     pagecolor="#ffffff"
     bordercolor="#666666"
     borderopacity="1.0"
     inkscape:pageopacity="0.0"
     inkscape:pageshadow="2"
     inkscape:zoom="1.63"
     inkscape:cx="239.59357"
     inkscape:cy="267.48384"
     inkscape:document-units="px"
     inkscape:current-layer="layer1"
     showgrid="true"
     units="px"
     inkscape:window-width="1800"
     inkscape:window-height="1087"
     inkscape:window-x="91"
     inkscape:window-y="41"
     inkscape:window-maximized="0">
    <inkscape:grid
       type="xygrid"
       id="grid4586" />
  </sodipodi:namedview>
  <metadata
     id="metadata4581">
    <rdf:RDF>
      <cc:Work
         rdf:about="">
        <dc:format>image/svg+xml</dc:format>
        <dc:type
           rdf:resource="http://purl.org/dc/dcmitype/StillImage" />
        <dc:title></dc:title>
      </cc:Work>
    </rdf:RDF>
  </metadata>
  <g
     inkscape:label="Layer 1"
     inkscape:groupmode="layer"
     id="layer1"
     transform="translate(0,-161.53331)">
    <path
       style="fill:currentColor;stroke-width:0.26458332"
       id="path2"
       d="M 31.927431,251.71515 3.6677308,279.84989 c -1.36253,1.35643 -1.36253,3.55684 0,4.91327 l 3.29652,3.28178 c 1.36108,1.35499 3.5655502,1.35644 4.9295302,0.006 l 22.50132,-22.29784 22.50278,22.29644 c 1.36398,1.35209 3.56846,1.34919 4.92953,-0.006 l 3.29653,-3.28179 c 1.36252,-1.35643 1.36252,-3.55684 0,-4.91327 l -28.26117,-28.13329 c -1.36252,-1.35643 -3.57281,-1.35643 -4.93534,0 z"
       inkscape:connector-curvature="0" />
    <path
       style="fill:currentColor;stroke-width:0.26458332"
       id="path2-5"
       d="m 36.864231,209.46397 28.259702,-28.13474 c 1.36253,-1.35643 1.36253,-3.55684 0,-4.91327 l -3.296521,-3.28178 c -1.36108,-1.35499 -3.56555,-1.35644 -4.92953,-0.006 l -22.501319,22.29784 -22.50278,-22.29644 c -1.36398,-1.35209 -3.5684594,-1.34919 -4.9295324,0.006 l -3.296528,3.28179 c -1.362519,1.35643 -1.362519,3.55684 0,4.91327 l 28.2611694,28.13329 c 1.36252,1.35643 3.572809,1.35643 4.935339,0 z"
       inkscape:connector-curvature="0" />
    <rect
       style="fill:#000000;fill-opacity:1;stroke:none;stroke-width:18.52083778;stroke-linecap:butt;stroke-linejoin:round;stroke-miterlimit:0;stroke-dasharray:none"
       id="rect5304"
       width="52.916668"
       height="21.166666"
       x="79.904167"
       y="172.11664"
       rx="3.2070706"
       ry="2.6458333" />
    <rect
       style="fill:#000000;fill-opacity:1;stroke:none;stroke-width:18.52083778;stroke-linecap:butt;stroke-linejoin:round;stroke-miterlimit:0;stroke-dasharray:none"
       id="rect5304-9"
       width="52.916664"
       height="21.166666"
       x="79.904167"
       y="219.34476"
       rx="3.2070706"
       ry="2.6458333" />
    <rect
       style="fill:#000000;fill-opacity:1;stroke:none;stroke-width:18.52083588;stroke-linecap:butt;stroke-linejoin:round;stroke-miterlimit:0;stroke-dasharray:none"
       id="rect5304-1"
       width="52.916664"
       height="21.166666"
       x="79.904167"
       y="-289.06247"
       rx="3.2070706"
       ry="2.6458333"
       transform="scale(1,-1)" />
  </g>
</svg>
