<?xml version="1.0" encoding="utf-8"?>
<!-- Generator: Adobe Illustrator 22.1.0, SVG Export Plug-In . SVG Version: 6.00 Build 0)  -->
<svg version="1.1" id="Layer_1" xmlns="http://www.w3.org/2000/svg" xmlns:xlink="http://www.w3.org/1999/xlink" x="0px" y="0px"
	 viewBox="0 0 300 300" style="enable-background:new 0 0 300 300;" xml:space="preserve">
<style type="text/css">
	.st0{fill:#219647;}
	.st1{fill:#2EA847;}
	.st2{fill:#3DBC47;}
	.st3{fill:#4BD048;}
	.st4{fill:#54DD48;}
	.st5{fill:#FFFFFF;}
</style>
<g>
	<path class="st0" d="M183,291.2c46.8-11,83-43.5,100.5-84.7l-29.6,6.9l-0.1,0.7l-1.9,10.8h-10.8h-26.3h-10l-149.4,35
		C89.3,289,136.2,302.1,183,291.2z"/>
	<path class="st1" d="M254,213.4l29.6-6.9c8.4-19.8,12.4-41.5,11.3-63.8l-29.6,6.9L254,213.4z"/>
	<path class="st1" d="M204.1,224.9l-5.2-6.3c-4.6,3-9.5,5.1-14.8,6.2c-4.9,1.1-10,1.6-15,1.6c-8.7,0-15.7-1.1-21.3-3.4
		c-6.5-2.6-11.2-7.1-14-13.3c-0.4-1-0.8-2-1.2-3.1c-2.8,4-6.3,7.4-10.3,10.2c-9.2,6.4-20.9,9.6-35,9.6c-6.2,0-11.7-0.5-16.5-1.6
		c-5.5-1.2-10.2-3.5-13.7-6.7c-0.4-0.4-0.8-0.7-1.1-1.1l0,0l0,0c-1-1-1.9-2-2.6-3.2l-10.2-12.3L17,207.7
		c8.9,20.5,22.2,38.2,38.4,52.1l149.4-35H204.1z"/>
	<path class="st2" d="M273.5,102.4l-1.9,10.8l-6.4,36.4l29.6-6.9c-0.4-8.5-1.6-17.1-3.7-25.8c-2.6-11.3-6.5-21.9-11.5-31.8l-17.1,4
		L273.5,102.4z"/>
	<path class="st2" d="M32.6,188.8L32.6,188.8c-2.4-2.9-4.2-6.5-5.2-10.5c-1.2-4.9-1.2-10.8,0-17.5l0.6-3.5l1.9-10.8h10.8h3.8
		c-1.6-1.6-3-3.3-4.2-5.3L5,149.4c0,11.1,1.2,22.4,3.8,33.6c2,8.6,4.8,16.9,8.2,24.7l26.2-6.1L32.6,188.8z"/>
	<path class="st3" d="M37.5,135.4c-2-5.3-2.3-11.9-0.9-19.6c2.3-13.2,8-23.7,16.9-31.1c8.8-7.4,20.4-11.1,34.4-11.1
		c14.3,0,24.6,3.5,30.6,10.4c2.9,3.4,4.9,7.7,5.8,12.7c1.5-2.4,3.1-4.7,4.9-6.7c5.1-5.9,11.3-10.3,18.4-12.9
		c6.3-2.3,13.6-3.5,21.7-3.5c7.2,0,13.3,1,18.3,2.9c5.4,2.1,9.6,5.2,12.7,9.2c0.4,0.6,0.8,1.2,1.2,1.9l0.2-1.2l1.9-10.8h10.8h26.3
		h10.8l11.2,13.6l17.1-4c-10.2-20.5-25-37.9-42.7-51.1L20.6,84.6c-10,19.8-15.5,41.9-15.6,64.8l35.3-8.3
		C39.2,139.4,38.2,137.5,37.5,135.4z"/>
	<path class="st4" d="M117,8.8C73.5,19,39.3,47.7,20.6,84.6L236.9,34C203.8,9.2,160.4-1.3,117,8.8z"/>
	<path class="st5" d="M66.9,188.8C67,188.8,67,188.7,66.9,188.8c0.1,0,0.1,0,0.2,0c11.6,0,20.9-2.4,27.9-7.3
		c7-4.9,11.4-12.6,13.3-23.4c0.2-1.4,0.4-2.8,0.5-4.1c0-0.1,0-0.3,0-0.4c0.3-4.1-0.1-7.6-1.1-10.4c-1.4-3.8-3.6-6.9-6.4-9.3
		c-2.8-2.4-5.9-4.3-9.3-5.7c-3.4-1.5-6.6-2.9-9.6-4.3c-3-1.4-5.3-3.1-7.1-5c-1.8-1.9-2.4-4.5-1.8-7.8c0.4-2.3,1.4-4.3,3.1-6.1
		c1.6-1.8,3.8-2.7,6.6-2.8c2.5,0,4.1,1.1,5,3.2c0.8,2.1,1,4.7,0.5,7.7l-0.4,2.4h0.2l0,0h24.6c1.9-10.8,0.7-18.7-3.5-23.7
		c-3.7-4.3-10.3-6.8-19.6-7.3c-1.3-0.1-2.7-0.1-4.2-0.1c-11.1,0-19.9,2.7-26.3,8.1c-6.4,5.4-10.5,13.2-12.3,23.5
		c-1,5.9-0.9,10.7,0.5,14.4c1.4,3.7,3.4,6.6,6.1,8.9c2.7,2.3,5.7,4.1,9,5.5c3.3,1.4,6.4,2.8,9.2,4.2c2.8,1.4,5.1,3,6.8,4.9
		c1.7,1.9,2.2,4.5,1.7,7.8c-0.5,2.7-1.6,5-3.4,6.9c-1.8,1.9-4,2.8-6.7,2.8c-2.5,0-4.4-0.9-5.7-2.6c-1.3-1.7-1.6-4.8-0.8-9.1l0.4-2.4
		H64l0,0H38.6l-0.6,3.5c-0.9,5.3-1,9.7-0.1,13.3c0.9,3.6,2.6,6.5,5,8.7c2.5,2.2,5.7,3.8,9.8,4.7C56.7,188.3,61.5,188.8,66.9,188.8z"
		/>
	<path d="M271.6,113.2l1.9-10.8l-11-13.3l-11.2-13.6h-10.8h-26.3h-10.8l-1.9,10.8l-0.2,1.2c-0.4-0.6-0.8-1.3-1.2-1.9
		c-3-4-7.3-7.1-12.7-9.2c-5-1.9-11.1-2.9-18.3-2.9c-8.1,0-15.4,1.2-21.7,3.5c-7.1,2.6-13.3,7-18.4,12.9c-1.7,2-3.4,4.3-4.9,6.7
		c-0.9-5-2.9-9.3-5.8-12.7c-6-6.9-16.3-10.4-30.6-10.4c-14,0-25.6,3.8-34.4,11.1c-8.9,7.4-14.6,17.9-16.9,31.1
		c-1.4,7.8-1.1,14.4,0.9,19.6c0.8,2.1,1.7,4,2.8,5.7c1.2,2,2.6,3.7,4.2,5.3h-3.8H29.9L28,157.2l-0.6,3.5c-1.2,6.7-1.2,12.6,0,17.5
		c1,4.1,2.7,7.6,5.2,10.5h0l10.7,12.9l10.2,12.3c0.8,1.1,1.7,2.2,2.6,3.2l0,0l0,0c0.4,0.4,0.7,0.7,1.1,1.1c3.6,3.2,8.2,5.4,13.7,6.7
		c4.7,1,10.3,1.6,16.5,1.6c14,0,25.8-3.2,35-9.6c4-2.8,7.5-6.2,10.3-10.2c0.4,1.1,0.8,2.1,1.2,3.1c2.8,6.2,7.5,10.7,14,13.3
		c5.6,2.3,12.6,3.4,21.3,3.4c5,0,10.1-0.5,15-1.6c5.2-1.1,10.2-3.2,14.8-6.2l5.2,6.3h0.7h10h26.3h10.8l1.9-10.8l0.1-0.7l11.2-63.8
		L271.6,113.2z M37.9,174.1c-0.9-3.6-0.9-8,0.1-13.3l0.6-3.5H64l0,0h0.2l-0.4,2.4c-0.8,4.3-0.5,7.4,0.8,9.1c1.3,1.7,3.2,2.6,5.7,2.6
		c2.7,0,4.9-1,6.7-2.8c1.8-1.9,2.9-4.2,3.4-6.9c0.6-3.3,0-5.9-1.7-7.8c-1.7-1.9-3.9-3.6-6.8-4.9c-2.8-1.4-5.9-2.8-9.2-4.2
		c-3.3-1.4-6.3-3.3-9-5.5c-2.7-2.3-4.7-5.2-6.1-8.9c-1.4-3.7-1.5-8.5-0.5-14.4c1.8-10.3,5.9-18.1,12.3-23.5
		c6.4-5.4,15.2-8.1,26.3-8.1c1.5,0,2.9,0,4.2,0.1c9.3,0.5,15.9,3,19.6,7.3c4.3,4.9,5.4,12.8,3.5,23.7H88.5l0,0h-0.2l0.4-2.4
		c0.5-3,0.4-5.6-0.5-7.7c-0.8-2.1-2.5-3.1-5-3.2c-2.8,0-5,0.9-6.6,2.8c-1.6,1.8-2.7,3.9-3.1,6.1c-0.6,3.3,0,5.9,1.8,7.8
		c1.8,1.9,4.1,3.6,7.1,5c3,1.4,6.1,2.9,9.6,4.3c3.4,1.5,6.5,3.4,9.3,5.7c2.8,2.4,4.9,5.4,6.4,9.3c1.1,2.8,1.5,6.3,1.1,10.4
		c0,0.1,0,0.3,0,0.4c-0.1,1.3-0.3,2.6-0.5,4.1c-1.9,10.7-6.3,18.5-13.3,23.4c-7,4.9-16.3,7.3-27.9,7.3c0,0-0.1,0-0.1,0
		c0,0,0,0-0.1,0c-5.5,0-10.2-0.4-14.3-1.3c-4-0.9-7.3-2.4-9.8-4.7C40.4,180.5,38.7,177.6,37.9,174.1z M173.1,182.2
		c-3.6,2.6-7.4,4.3-11.6,5.2c-4.2,0.9-8.4,1.3-12.6,1.3c-0.1,0-0.1,0-0.2,0c0,0-0.1,0-0.1,0c-7.4,0-13.2-0.9-17.6-2.7
		c-4.4-1.8-7.5-4.8-9.4-9c-1.9-4.2-2.8-9.6-2.6-16.3c0.2-6.6,1.1-14.7,2.8-24.1c1.7-9.6,3.7-17.8,6.1-24.5
		c2.4-6.7,5.3-12.1,8.9-16.3c3.6-4.1,7.8-7.1,12.7-9c4.9-1.8,10.8-2.8,17.6-2.8c1.5,0,2.9,0,4.3,0.1c4.2,0.3,7.7,1,10.7,2.1
		c3.9,1.5,6.9,3.7,9,6.4c2.1,2.8,3.4,6.1,3.9,10c0.5,3.9,0.3,8.3-0.6,13.2l-1.1,6.4h-25.4l0,0h-0.2l1-5.7c1-5.7,1.1-9.7,0.4-11.7
		c-0.8-2-2.4-3.1-4.8-3.1c-1.9,0-3.6,0.5-4.9,1.5c-1.4,1-2.6,2.9-3.7,5.5c-1.1,2.6-2.1,6.2-3.1,10.7c-1,4.5-2.1,10.1-3.3,16.9
		c-1.2,6.8-2.1,12.4-2.7,16.9c-0.6,4.5-0.8,8-0.7,10.7c0.1,2.6,0.7,4.5,1.7,5.5c1,1,2.4,1.5,4.3,1.5c1.6,0,2.9-0.4,4.1-1.2
		c1.2-0.8,2.2-2.1,3.1-4c0.9-1.9,1.7-4.4,2.5-7.6c0.8-3.2,1.6-7.1,2.5-11.9h25.4l0,0h0.2l-1.3,7.5c-1.2,7.1-3.2,12.9-5.9,17.4
		C179.8,176,176.6,179.6,173.1,182.2z M194.6,187.2L194.6,187.2l-0.3,0l17.8-100.9h26.3l0,0h0.3l-17.8,100.9H194.6z"/>
	<path class="st5" d="M188.3,154.1l1.3-7.5h-0.2l0,0H164c-0.8,4.8-1.7,8.8-2.5,11.9c-0.8,3.2-1.6,5.7-2.5,7.6
		c-0.9,1.9-1.9,3.2-3.1,4c-1.2,0.8-2.5,1.2-4.1,1.2c-1.9,0-3.4-0.5-4.3-1.5c-1-1-1.6-2.9-1.7-5.5c-0.1-2.6,0.1-6.2,0.7-10.7
		c0.6-4.5,1.5-10.1,2.7-16.9c1.2-6.8,2.3-12.4,3.3-16.9c1-4.5,2-8,3.1-10.7c1.1-2.6,2.3-4.5,3.7-5.5c1.3-1,3-1.5,4.9-1.5
		c2.5,0,4.1,1.1,4.8,3.1c0.8,2.1,0.6,6-0.4,11.7l-1,5.7h0.2l0,0h25.4l1.1-6.4c0.9-4.9,1.1-9.3,0.6-13.2c-0.5-3.9-1.8-7.3-3.9-10
		c-2.1-2.8-5.1-4.9-9-6.4c-3-1.1-6.5-1.9-10.7-2.1c-1.4-0.1-2.8-0.1-4.3-0.1c-6.8,0-12.7,0.9-17.6,2.8c-4.9,1.8-9.2,4.8-12.7,9
		c-3.6,4.1-6.5,9.6-8.9,16.3c-2.4,6.7-4.4,14.8-6.1,24.5c-1.7,9.4-2.6,17.5-2.8,24.1c-0.2,6.6,0.7,12.1,2.6,16.3
		c1.9,4.2,5,7.2,9.4,9c4.4,1.8,10.3,2.7,17.6,2.7c0,0,0.1,0,0.1,0c0.1,0,0.1,0,0.2,0c4.2,0,8.4-0.4,12.6-1.3c4.2-0.9,8-2.6,11.6-5.2
		c3.6-2.6,6.7-6.1,9.4-10.7C185.1,167,187.1,161.2,188.3,154.1z"/>
	<polygon class="st5" points="238.7,86.3 238.4,86.3 238.4,86.3 212.1,86.3 194.3,187.2 194.6,187.2 194.6,187.2 220.9,187.2 	"/>
</g>
</svg>
