<?xml version="1.0" encoding="UTF-8" standalone="no"?>
<!-- Created with Inkscape (http://www.inkscape.org/) -->

<svg
   xmlns:dc="http://purl.org/dc/elements/1.1/"
   xmlns:cc="http://creativecommons.org/ns#"
   xmlns:rdf="http://www.w3.org/1999/02/22-rdf-syntax-ns#"
   xmlns:svg="http://www.w3.org/2000/svg"
   xmlns="http://www.w3.org/2000/svg"
   xmlns:sodipodi="http://sodipodi.sourceforge.net/DTD/sodipodi-0.dtd"
   xmlns:inkscape="http://www.inkscape.org/namespaces/inkscape"
   width="512"
   height="512"
   viewBox="0 0 135.46666 135.46667"
   version="1.1"
   id="svg823"
   sodipodi:docname="times-circle.svg"
   inkscape:version="0.92.4 (5da689c313, 2019-01-14)">
  <defs
     id="defs817" />
  <sodipodi:namedview
     id="base"
     pagecolor="#ffffff"
     bordercolor="#666666"
     borderopacity="1.0"
     inkscape:pageopacity="0.0"
     inkscape:pageshadow="2"
     inkscape:zoom="2.49"
     inkscape:cx="44.275888"
     inkscape:cy="252.22159"
     inkscape:document-units="px"
     inkscape:current-layer="layer1"
     showgrid="true"
     units="px"
     inkscape:window-width="3092"
     inkscape:window-height="1793"
     inkscape:window-x="505"
     inkscape:window-y="265"
     inkscape:window-maximized="0">
    <inkscape:grid
       type="xygrid"
       id="grid1370" />
  </sodipodi:namedview>
  <metadata
     id="metadata820">
    <rdf:RDF>
      <cc:Work
         rdf:about="">
        <dc:format>image/svg+xml</dc:format>
        <dc:type
           rdf:resource="http://purl.org/dc/dcmitype/StillImage" />
        <dc:title />
      </cc:Work>
    </rdf:RDF>
  </metadata>
  <g
     inkscape:label="Layer 1"
     inkscape:groupmode="layer"
     id="layer1"
     transform="translate(0,-161.53332)">
    <path
       style="fill:#000000;fill-opacity:1;stroke:none;stroke-width:5.92238808;stroke-linecap:round;stroke-linejoin:round;stroke-miterlimit:4;stroke-dasharray:none;stroke-opacity:1;paint-order:normal"
       d="M 256 8 A 248.00001 248.00001 0 0 0 8 256 A 248.00001 248.00001 0 0 0 256 504 A 248.00001 248.00001 0 0 0 504 256 A 248.00001 248.00001 0 0 0 256 8 z M 155.23633 111 C 161.8674 111 168.49812 113.52937 173.55664 118.58789 L 256 201.03125 L 338.44336 118.58789 C 348.56865 108.47085 364.97279 108.47085 375.08984 118.58789 L 393.41211 136.91016 C 403.52911 147.0354 403.52911 163.43964 393.41211 173.55664 L 310.96875 256 L 393.41211 338.44336 C 403.52911 348.56864 403.52911 364.97277 393.41211 375.08984 L 375.08984 393.41211 C 364.97279 403.52915 348.56041 403.52915 338.44336 393.41211 L 256 310.96875 L 173.55664 393.41211 C 163.43959 403.52915 147.0272 403.52915 136.91016 393.41211 L 118.58789 375.08984 C 108.47084 364.96453 108.47084 348.5604 118.58789 338.44336 L 201.03125 256 L 118.58789 173.55664 C 108.47084 163.43136 108.47084 147.0272 118.58789 136.91016 L 136.91016 118.58789 C 141.9728 113.52937 148.60526 111 155.23633 111 z "
       transform="matrix(0.26458333,0,0,0.26458333,0,161.53332)"
       id="path1372" />
    <path
       style="fill:#ffffff;fill-opacity:0;stroke:none;stroke-width:1.60642576;stroke-linecap:round;stroke-linejoin:round;stroke-miterlimit:4;stroke-dasharray:none;stroke-opacity:1;paint-order:normal"
       d="M 238.53292,503.22701 C 203.52328,500.2597 174.00364,492.07351 144.35621,477.11054 121.13209,465.38941 101.38777,451.23399 82.762656,432.9519 61.915287,412.48849 46.686346,391.51021 33.928888,365.68203 20.104009,337.69279 12.390898,310.38277 9.1455566,277.93102 8.1587538,268.0635 8.1624093,244.13469 9.1522766,233.95512 11.641629,208.35513 17.582321,184.16495 26.95457,161.46516 c 3.32177,-8.0454 10.802965,-23.15781 15.010147,-30.32129 19.312604,-32.88315 45.553102,-60.65868 77.090293,-81.599961 32.08017,-21.301831 68.9156,-34.909324 106.8273,-39.46342 11.29498,-1.3567952 17.8486,-1.7398784 29.91968,-1.7489158 12.14656,-0.00909 19.69615,0.4246636 30.52209,1.7536298 98.67716,12.113369 180.93149,82.606272 208.03406,178.287587 4.27108,15.07846 6.76554,28.52152 8.4953,45.78313 0.98948,9.87432 0.99169,33.86237 0.004,43.7751 -3.24025,32.52036 -11.11996,60.24844 -25.16519,88.55422 -17.41192,35.09078 -42.49329,64.9547 -74.70152,88.94574 -21.57637,16.07165 -48.46937,29.60659 -74.54153,37.5159 -15.81127,4.79655 -30.24472,7.69796 -48.35004,9.7192 -6.69145,0.74703 -34.88222,1.12747 -41.56626,0.56093 z M 160.337,400.6089 c 1.70253,-0.33842 4.63166,-1.35298 6.50917,-2.25459 l 3.41365,-1.6393 42.87149,-42.82134 42.87149,-42.82134 42.87148,42.82134 42.87149,42.82134 3.41365,1.65949 c 3.56337,1.73225 8.15079,2.84969 11.69885,2.84969 3.30178,0 7.98282,-1.16376 11.59433,-2.88248 3.327,-1.58333 3.73052,-1.94202 15.89619,-14.13008 11.59879,-11.62014 12.58495,-12.71876 13.92906,-15.51756 2.24916,-4.68333 2.81097,-7.45488 2.60508,-12.8514 -0.12331,-3.23166 -0.43307,-5.40233 -1.0316,-7.22892 -1.98082,-6.04505 -0.85426,-4.81942 -46.23736,-50.30303 l -42.37785,-42.47171 42.79543,-42.86966 c 46.74809,-46.82916 44.32309,-44.15684 46.16606,-50.87452 1.1302,-4.11962 0.97072,-11.0683 -0.34628,-15.0875 -1.73542,-5.29616 -3.18253,-7.12322 -15.13367,-19.10726 -6.62865,-6.64689 -12.22692,-11.91282 -13.63688,-12.82734 -8.63312,-5.59952 -20.4611,-5.50378 -29.02239,0.23493 -1.05547,0.70749 -20.84977,20.19059 -43.98732,43.29576 l -42.06827,42.00942 -42.06828,-42.00942 c -23.13755,-23.10517 -42.93184,-42.58827 -43.98732,-43.29576 -8.42033,-5.64423 -19.79782,-5.84835 -28.59918,-0.51311 -1.50625,0.91306 -5.7942,4.78933 -11.40697,10.31179 -14.12312,13.89588 -16.29618,16.67085 -18.09627,23.10867 -1.15055,4.11479 -1.15055,9.9357 0,14.0505 1.83277,6.55472 -0.46821,4.02556 46.13104,50.70563 l 42.79723,42.87144 -42.00945,42.06832 c -23.1052,23.13757 -42.58872,42.93247 -43.2967,43.98865 -3.07543,4.588 -4.45924,9.16992 -4.47368,14.81278 -0.0117,4.5905 0.7175,7.78345 2.73655,11.98174 1.34477,2.79625 2.34274,3.90834 13.92907,15.522 12.17244,12.20117 12.56476,12.55001 15.89416,14.13247 5.73878,2.72763 10.92162,3.42562 16.784,2.26036 z"
       id="path1383"
       inkscape:connector-curvature="0"
       transform="matrix(0.26458333,0,0,0.26458333,0,161.53332)" />
  </g>
</svg>
