<?xml version="1.0" encoding="UTF-8"?>
<svg width="90px" height="90px" viewBox="0 0 90 90" version="1.1" xmlns="http://www.w3.org/2000/svg" xmlns:xlink="http://www.w3.org/1999/xlink">
    <!-- Generator: Sketch 57.1 (83088) - https://sketch.com -->
    <title>alarm</title>
    <desc>Created with Sketch.</desc>
    <g id="Page-1" stroke="none" stroke-width="1" fill="none" fill-rule="evenodd">
        <g id="alarm" fill="#000000" fill-rule="nonzero">
            <path d="M47.5,2.5 L47.5,9.35108 C47.5,10.7317919 46.3807119,11.85108 45,11.85108 L45,11.85108 C43.6192881,11.85108 42.5,10.7317919 42.5,9.35108 L42.5,2.5 C42.5,1.11928813 43.6192881,0 45,0 L45,0 C46.3807119,0 47.5,1.11928813 47.5,2.5 Z M76.81934,13.18018 L76.81934,13.18018 C75.8431327,12.2039816 74.2603973,12.2039816 73.28419,13.18018 L68.43945,18.0249 C67.4632505,19.0011108 67.4632505,20.5838492 68.43945,21.56006 L68.43945,21.56006 C68.9082406,22.0288527 69.5440584,22.2922179 70.20703,22.2922179 C70.8700016,22.2922179 71.5058194,22.0288527 71.97461,21.56006 L76.81934,16.71533 C77.7955384,15.7391227 77.7955384,14.1563873 76.81934,13.18018 L76.81934,13.18018 Z M21.55957,18.0249 L16.71484,13.18017 C15.7386327,12.2039716 14.1558973,12.2039716 13.17969,13.18017 L13.17969,13.18017 C12.7108979,13.6489589 12.4475329,14.2847751 12.4475329,14.947745 C12.4475329,15.6107149 12.7108979,16.2465311 13.17969,16.71532 L18.02442,21.56005 C18.4932089,22.0288421 19.1290251,22.2922071 19.791995,22.2922071 C20.4549649,22.2922071 21.0907811,22.0288421 21.55957,21.56005 L21.55957,21.56005 C22.5357739,20.5838449 22.5357739,19.0011051 21.55957,18.0249 L21.55957,18.0249 Z M9.35059,42.5 L2.5,42.5 C1.11928813,42.5 0,43.6192881 0,45 L0,45 C0,46.3807119 1.11928813,47.5 2.5,47.5 L9.35059,47.5 C10.7313019,47.5 11.85059,46.3807119 11.85059,45 L11.85059,45 C11.85059,43.6192881 10.7313019,42.5 9.35059,42.5 Z M78.14844,45 L78.14844,45 C78.14844,46.3807119 79.2677281,47.5 80.64844,47.5 L87.5,47.5 C88.8807119,47.5 90,46.3807119 90,45 L90,45 C90,43.6192881 88.8807119,42.5 87.5,42.5 L80.64844,42.5 C79.267722,42.5 78.14844,43.619292 78.14844,45 Z M20.297605,73.5957 L69.701905,73.5957 L69.701905,45 C69.7075175,36.1710301 65.0005442,28.010321 57.3553668,23.5942136 C49.7101894,19.1781062 40.2893206,19.1781062 32.6441432,23.5942136 C24.9989658,28.010321 20.2919925,36.1710301 20.297605,45 L20.297605,73.5957 Z M8.99976,87.01062 L8.99976,90 L80.99976,90 L80.99976,87.01062 C80.99976,84.513647 80.0078799,82.1189357 78.2422589,80.3533035 C76.476638,78.5876713 74.081933,77.59576 71.58496,77.59576 L18.41479,77.59576 C13.215072,77.59576 8.99976,81.810902 8.99976,87.01062 Z" id="Shape"></path>
        </g>
    </g>
</svg>