<?xml version="1.0" encoding="UTF-8"?>
<svg width="23px" height="19px" viewBox="0 0 23 19" version="1.1" xmlns="http://www.w3.org/2000/svg" xmlns:xlink="http://www.w3.org/1999/xlink">
    <!-- Generator: Sketch 57.1 (83088) - https://sketch.com -->
    <title>charging</title>
    <desc>Created with Sketch.</desc>
    <g id="Page-1" stroke="none" stroke-width="1" fill="none" fill-rule="evenodd">
        <g id="charging" fill="#000000" fill-rule="nonzero">
            <g id="Group" transform="translate(0.000000, 0.400020)">
                <path d="M2.17499996,2.42081326 C1.30467797,2.42081326 0.58749998,3.13799336 0.58749998,4.00831324 L0.58749998,14.5916464 C0.58749998,15.4619663 1.30467797,16.1791464 2.17499996,16.1791464 L6.81347646,16.1791464 C7.06287218,16.1791464 7.27837821,16.0049141 7.33075751,15.7610841 L8.02528875,12.5251059 C8.08561508,12.2438761 7.91027941,11.9659543 7.63048095,11.8993044 C6.65480002,11.6669844 6.14102285,10.6300945 6.54630921,9.71287456 L9.45620911,3.16495388 C9.61174813,2.81496384 9.35551796,2.42081326 8.97251771,2.42081326 L2.17499996,2.42081326 Z M14.0647134,2.42081325 C13.8013542,2.42081325 13.5780274,2.61434909 13.5407143,2.87504913 L13.0875121,6.05004909 C13.0419321,6.3689191 13.2893979,6.6542066 13.6115109,6.65414654 L13.8161497,6.65414654 C15.0508376,6.65454341 15.803038,7.93320877 15.203662,9.01265875 L11.6596922,15.3931479 C11.4640103,15.7457878 11.7189022,16.1789564 12.1221963,16.1791464 L19.1083331,16.1791464 C19.9786551,16.1791464 20.6958331,15.4619663 20.6958331,14.5916464 L20.6958331,12.4744631 L21.1970944,12.4744631 C22.0997805,12.522863 22.8124997,11.7577931 22.8124997,10.8869631 L22.8124997,7.71299659 C22.8124997,6.84267671 22.0948068,6.12497988 21.224483,6.12497988 L20.6958331,6.12497988 L20.6958331,4.00831324 C20.6958331,3.13799336 19.9786551,2.42081325 19.1083331,2.42081325 L14.0647134,2.42081325 Z M2.17499996,3.47914658 L8.15809715,3.47914658 L5.57892641,9.28396011 C4.9842476,10.6223702 5.61922325,12.161112 6.89460856,12.750932 L6.38559548,15.1208131 L2.17499996,15.1208131 C1.87269049,15.1208131 1.6458333,14.8939564 1.6458333,14.5916464 L1.6458333,4.00831324 C1.6458333,3.70600324 1.87269049,3.47914658 2.17499996,3.47914658 Z M14.5241168,3.47914658 L19.1083331,3.47914658 C19.410642,3.47914658 19.6374997,3.70600324 19.6374997,4.00831324 L19.6374997,14.5916464 C19.6374997,14.8939564 19.410642,15.1208131 19.1083331,15.1208131 L13.0213663,15.1208131 L16.12867,9.52632268 C17.028239,7.90625275 15.9683211,5.92383014 14.2140582,5.65059017 L14.5241168,3.47914658 Z M20.6958331,7.18382993 L21.224483,7.18382993 C21.5267919,7.18382993 21.7536496,7.41069664 21.7536496,7.71299659 L21.7536496,10.8869631 C21.7536496,11.188773 21.5222064,11.4325667 21.2539385,11.4181967 C21.244141,11.4172442 21.2343197,11.4165563 21.224483,11.4161329 L20.6958331,11.4161329 L20.6958331,7.18382993 Z" id="Shape"></path>
                <path d="M12.236328,0.30464939 C12.0247482,0.302077129 11.8319484,0.425744415 11.746094,0.61914 L7.5117188,10.14258 C7.43891283,10.3064075 7.4539974,10.4959557 7.55179823,10.646206 C7.64959905,10.7964564 7.81681721,10.8869779 7.9960938,10.88672 L9.458984,10.88672 L8.0078125,17.65625 C7.95288446,17.912706 8.09407641,18.1707063 8.33968965,18.2626895 C8.58530288,18.3546728 8.86123602,18.2528878 8.9882812,18.02344 L14.279297,8.49805 C14.3698482,8.33416571 14.367063,8.13463234 14.2719727,7.97333937 C14.1768824,7.8120464 14.0036427,7.7130045 13.816406,7.71289 L11.78125,7.71289 L12.753906,0.9082 C12.7752839,0.757499115 12.7307404,0.604889856 12.6316523,0.489350532 C12.5325643,0.373811208 12.3885265,0.306529502 12.236328,0.30464939 L12.236328,0.30464939 Z M11.166016,4.52734 L10.646484,8.16602 C10.6243536,8.31803465 10.6693679,8.47216409 10.7698345,8.58837367 C10.8703011,8.70458326 11.0163049,8.77140422 11.169922,8.77148 L12.916016,8.77148 L9.787109,14.4043 L10.630859,10.46875 C10.6638517,10.3126711 10.6246784,10.1500371 10.5242381,10.026098 C10.4237979,9.90215885 10.2728089,9.83014025 10.113281,9.83008 L8.8085938,9.83008 L11.166016,4.52734 Z" id="Shape"></path>
            </g>
        </g>
    </g>
</svg>