<?xml version="1.0" encoding="UTF-8"?>
<svg width="87px" height="147px" viewBox="0 0 87 147" version="1.1" xmlns="http://www.w3.org/2000/svg" xmlns:xlink="http://www.w3.org/1999/xlink">
    <!-- Generator: Sketch 57.1 (83088) - https://sketch.com -->
    <title>doorbellIcon</title>
    <desc>Created with Sketch.</desc>
    <g id="Page-1" stroke="none" stroke-width="1" fill="none" fill-rule="evenodd">
        <g id="doorbellIcon" fill="#000000" fill-rule="nonzero">
            <path d="M77.9428226,0 C60.4296079,0 43.9733978,7.71922371 32.7671446,21.1791517 C31.4195889,22.7979403 30.6831923,24.8364149 30.6831923,26.9448372 L30.6831923,36.3627897 L9.06218691,36.3627897 C4.05769563,36.3627897 0,40.4097614 0,45.3960302 L0,101.60397 C0,106.590239 4.05769563,110.63721 9.06218691,110.63721 L30.6831923,110.63721 L30.6831923,120.050167 C30.6831923,122.158589 31.4195889,124.197063 32.7671446,125.815852 C43.9683883,139.280776 60.4245984,147 77.9428226,147 C82.9423044,147 87,142.948032 87,137.961763 L87,9.02824417 C87,4.04197539 82.9423044,0 77.9428226,0 Z M30.6882018,92.5707294 L18.1193643,92.5707294 L18.1193643,54.4242744 L30.6882018,54.4242744 L30.6882018,92.5707294 Z M68.8856452,127.914282 C61.2762135,126.185575 54.3079979,122.283495 48.8025566,116.607743 L48.8025566,30.3922575 C54.3079979,24.7165047 61.2762135,20.8144246 68.8856452,19.0807219 L68.8856452,127.914282 Z" id="Shape"></path>
        </g>
    </g>
</svg>