<?xml version="1.0" encoding="UTF-8" standalone="no"?>
<!-- Generator: Adobe Illustrator 22.1.0, SVG Export Plug-In . SVG Version: 6.00 Build 0)  -->

<svg
   version="1.1"
   id="Layer_1"
   x="0px"
   y="0px"
   viewBox="0 0 500 500"
   style="enable-background:new 0 0 500 500;"
   xml:space="preserve"
   xmlns="http://www.w3.org/2000/svg"
   xmlns:svg="http://www.w3.org/2000/svg"><defs
   id="defs37" />
<path
   d="M436.9,350H63.1C39.3,350,20,330.7,20,306.9V48.1C20,24.3,39.3,5,63.1,5h373.8C460.7,5,480,24.3,480,48.1v258.8  C480,330.7,460.7,350,436.9,350z M120.6,55.3c-27.8,0-50.3,22.5-50.3,50.3s22.5,50.3,50.3,50.3s50.3-22.5,50.3-50.3  S148.4,55.3,120.6,55.3z M77.5,292.5h345V191.9l-78.6-78.6c-4.2-4.2-11-4.2-15.2,0L206.9,235L157,185.1c-4.2-4.2-11-4.2-15.2,0  l-64.3,64.3V292.5z"
   id="path2" />
<g
   id="g32">
	<path
   d="M63.4,423.9v-42.7H72v42.7H63.4z"
   id="path4" />
	<path
   d="M80.1,423.9v-42.7H93l7.8,29.1l7.7-29.1h12.9v42.7h-8v-33.6l-8.5,33.6h-8.3l-8.5-33.6v33.6H80.1z"
   id="path6" />
	<path
   d="M168.5,423.9h-9.4l-3.7-9.7h-17.1l-3.5,9.7h-9.2l16.6-42.7h9.1L168.5,423.9z M152.6,407l-5.9-15.9L141,407H152.6z"
   id="path8" />
	<path
   d="M193,408.2V401h18.6v17c-1.8,1.7-4.4,3.3-7.9,4.6c-3.4,1.3-6.9,2-10.4,2c-4.5,0-8.4-0.9-11.7-2.8s-5.8-4.6-7.5-8   c-1.7-3.5-2.5-7.3-2.5-11.4c0-4.4,0.9-8.4,2.8-11.9c1.9-3.5,4.6-6.1,8.2-8c2.7-1.4,6.1-2.1,10.2-2.1c5.3,0,9.4,1.1,12.4,3.3   c3,2.2,4.9,5.3,5.8,9.2l-8.6,1.6c-0.6-2.1-1.7-3.8-3.4-5c-1.7-1.2-3.7-1.8-6.2-1.8c-3.8,0-6.8,1.2-9,3.6s-3.3,5.9-3.3,10.6   c0,5.1,1.1,8.9,3.4,11.4c2.3,2.5,5.2,3.8,8.9,3.8c1.8,0,3.6-0.4,5.4-1.1c1.8-0.7,3.4-1.6,4.7-2.6v-5.4H193z"
   id="path10" />
	<path
   d="M219.5,423.9v-42.7h31.7v7.2h-23.1v9.5h21.5v7.2h-21.5v11.6H252v7.2H219.5z"
   id="path12" />
	<path
   d="M276.1,423.9v-42.4h8.6v35.2h21.5v7.2H276.1z"
   id="path14" />
	<path
   d="M310.6,402.8c0-4.4,0.7-8,2-11c1-2.2,2.3-4.1,4-5.9s3.5-3,5.5-3.8c2.7-1.1,5.7-1.7,9.2-1.7c6.3,0,11.3,2,15.1,5.9   c3.8,3.9,5.7,9.3,5.7,16.3c0,6.9-1.9,12.3-5.6,16.2c-3.8,3.9-8.8,5.8-15,5.8c-6.4,0-11.4-1.9-15.2-5.8   C312.5,414.9,310.6,409.6,310.6,402.8z M319.5,402.5c0,4.8,1.1,8.5,3.4,11s5.1,3.7,8.5,3.7s6.3-1.2,8.5-3.7   c2.2-2.5,3.3-6.2,3.3-11.1c0-4.9-1.1-8.5-3.2-11c-2.1-2.4-5-3.6-8.6-3.6c-3.6,0-6.4,1.2-8.6,3.7   C320.6,393.9,319.5,397.6,319.5,402.5z"
   id="path16" />
	<path
   d="M397.3,423.9h-9.4l-3.7-9.7h-17.1l-3.5,9.7h-9.2l16.6-42.7h9.1L397.3,423.9z M381.4,407l-5.9-15.9l-5.8,15.9H381.4z"
   id="path18" />
	<path
   d="M401.9,381.2h15.8c3.6,0,6.3,0.3,8.1,0.8c2.5,0.7,4.7,2,6.4,3.9c1.8,1.9,3.1,4.2,4.1,6.9c0.9,2.7,1.4,6.1,1.4,10.1   c0,3.5-0.4,6.5-1.3,9.1c-1.1,3.1-2.6,5.6-4.6,7.5c-1.5,1.5-3.5,2.6-6.1,3.4c-1.9,0.6-4.4,0.9-7.6,0.9h-16.2V381.2z M410.5,388.4   v28.3h6.4c2.4,0,4.1-0.1,5.2-0.4c1.4-0.3,2.6-0.9,3.5-1.8c0.9-0.8,1.7-2.2,2.3-4.1c0.6-1.9,0.9-4.5,0.9-7.8s-0.3-5.8-0.9-7.6   c-0.6-1.8-1.4-3.1-2.4-4.1c-1-1-2.4-1.7-4-2c-1.2-0.3-3.6-0.4-7.1-0.4H410.5z"
   id="path20" />
	<path
   d="M146.6,495.5v-42.7h31.7v7.2h-23.1v9.5h21.5v7.2h-21.5v11.6h23.9v7.2H146.6z"
   id="path22" />
	<path
   d="M186.4,495.5v-42.7h18.2c4.6,0,7.9,0.4,10,1.2s3.7,2.1,5,4.1c1.2,2,1.9,4.2,1.9,6.7c0,3.2-0.9,5.9-2.8,7.9   c-1.9,2.1-4.7,3.4-8.5,3.9c1.9,1.1,3.4,2.3,4.6,3.6s2.9,3.6,4.9,6.9l5.2,8.3h-10.3l-6.2-9.3c-2.2-3.3-3.7-5.4-4.5-6.3   c-0.8-0.9-1.7-1.5-2.6-1.8c-0.9-0.3-2.4-0.5-4.3-0.5H195v17.8H186.4z M195,470.9h6.4c4.1,0,6.7-0.2,7.8-0.5c1-0.3,1.8-1,2.4-1.8   c0.6-0.9,0.9-1.9,0.9-3.2c0-1.4-0.4-2.6-1.2-3.5c-0.8-0.9-1.9-1.4-3.2-1.7c-0.7-0.1-2.8-0.1-6.3-0.1H195V470.9z"
   id="path24" />
	<path
   d="M229.5,495.5v-42.7h18.2c4.6,0,7.9,0.4,10,1.2c2.1,0.8,3.7,2.1,5,4.1c1.2,2,1.9,4.2,1.9,6.7c0,3.2-0.9,5.9-2.8,7.9   s-4.7,3.4-8.5,3.9c1.9,1.1,3.4,2.3,4.6,3.6c1.2,1.3,2.9,3.6,4.9,6.9l5.2,8.3h-10.3l-6.2-9.3c-2.2-3.3-3.7-5.4-4.5-6.3   c-0.8-0.9-1.7-1.5-2.6-1.8c-0.9-0.3-2.4-0.5-4.3-0.5h-1.7v17.8H229.5z M238.1,470.9h6.4c4.1,0,6.7-0.2,7.8-0.5c1-0.3,1.8-1,2.4-1.8   s0.9-1.9,0.9-3.2c0-1.4-0.4-2.6-1.2-3.5c-0.8-0.9-1.9-1.4-3.3-1.7c-0.7-0.1-2.8-0.1-6.3-0.1h-6.7V470.9z"
   id="path26" />
	<path
   d="M270.8,474.4c0-4.4,0.7-8,2-11c1-2.2,2.3-4.1,4-5.9c1.7-1.7,3.5-3,5.5-3.8c2.7-1.1,5.7-1.7,9.2-1.7c6.3,0,11.3,2,15.1,5.9   c3.8,3.9,5.7,9.3,5.7,16.3c0,6.9-1.9,12.3-5.6,16.2c-3.8,3.9-8.8,5.8-15,5.8c-6.4,0-11.4-1.9-15.2-5.8   C272.7,486.6,270.8,481.2,270.8,474.4z M279.7,474.1c0,4.8,1.1,8.5,3.4,11c2.2,2.5,5.1,3.7,8.5,3.7s6.3-1.2,8.5-3.7   s3.3-6.2,3.3-11.1c0-4.9-1.1-8.5-3.2-11c-2.1-2.4-5-3.6-8.6-3.6s-6.4,1.2-8.6,3.7C280.8,465.5,279.7,469.2,279.7,474.1z"
   id="path28" />
	<path
   d="M319,495.5v-42.7h18.2c4.6,0,7.9,0.4,10,1.2c2.1,0.8,3.7,2.1,5,4.1c1.2,2,1.9,4.2,1.9,6.7c0,3.2-0.9,5.9-2.8,7.9   s-4.7,3.4-8.5,3.9c1.9,1.1,3.4,2.3,4.6,3.6c1.2,1.3,2.9,3.6,4.9,6.9l5.2,8.3h-10.3l-6.2-9.3c-2.2-3.3-3.7-5.4-4.5-6.3   c-0.8-0.9-1.7-1.5-2.6-1.8c-0.9-0.3-2.4-0.5-4.3-0.5h-1.8v17.8H319z M327.7,470.9h6.4c4.1,0,6.7-0.2,7.8-0.5c1-0.3,1.8-1,2.4-1.8   s0.9-1.9,0.9-3.2c0-1.4-0.4-2.6-1.2-3.5c-0.8-0.9-1.9-1.4-3.3-1.7c-0.7-0.1-2.8-0.1-6.3-0.1h-6.7V470.9z"
   id="path30" />
</g>
</svg>
