<?xml version="1.0" encoding="utf-8"?>
<!-- Generator: Adobe Illustrator 22.1.0, SVG Export Plug-In . SVG Version: 6.00 Build 0)  -->
<svg version="1.1" id="Layer_1" xmlns="http://www.w3.org/2000/svg" xmlns:xlink="http://www.w3.org/1999/xlink" x="0px" y="0px"
	 viewBox="0 0 600 300" style="enable-background:new 0 0 600 300;" xml:space="preserve">
<style type="text/css">
	.st0{fill:none;}
	.st1{fill:url(#SVGID_1_);}
	.st2{fill:#545960;}
</style>
<path class="st0" d="M170.6,260.1c-18.2,0-36.7-11.1-36.7-32.4v-4.4h14.4v4.4c0,14.2,14,18,22.2,18c5.9,0,11.7-1.8,15.9-4.8
	c4.2-3.2,6.4-7.7,6.4-13.2c0-16.7-8.7-19.6-25.4-23.6l-0.3-0.1c-14-3.5-33.2-8.4-33.2-32.9c0-21.6,18.8-32.9,37.4-32.9
	c9.3,0,17.8,2.7,24.1,7.5c7.6,5.8,11.7,14.1,11.7,24v4.4h-14.4v-4.4c0-5.1-2.1-9.5-6.1-12.5c-3.9-3-9.3-4.6-15.3-4.6
	c-11.4,0-23,6.4-23,18.5c0,12.7,6.9,15,22.4,18.8l0.4,0.1c15.2,3.9,36.1,9.1,36.1,37.7c0,10.1-4.2,18.7-12.1,24.7
	C188.6,257.4,180.1,260.1,170.6,260.1z M236.3,195.9h12.3v-13.7h-12.3V164h-13.9v18.2h-11.7v13.7h11.7v64.3h13.9V195.9z
	 M268.6,209.6c0-6.7,5.7-11.2,14.1-11.2c4.6,0,8.5,1.3,11.3,3.9l3.1,2.7l9.9-9.4l-3.4-3.2c-5.1-4.9-12.6-7.6-20.9-7.6
	c-5.1,0-9.9,1.1-14.1,3.2v-0.9h-13.7v72.6h13.7V209.6z M367.6,251.1v6.7h13.9v-72.4h-13.9v6.6c-6.8-5.8-15.6-9.1-24.7-9.1
	c-21.4,0-38.8,17.3-38.8,38.6s17.4,38.6,38.8,38.6C352,260.1,360.8,256.8,367.6,251.1z M367.6,221.5c0,13.7-11.1,24.9-24.7,24.9
	c-13.7,0-24.9-11.2-24.9-24.9s11.2-24.9,24.9-24.9C356.5,196.5,367.6,207.7,367.6,221.5z M414.2,196.9h12.3v-13.7h-12.3V165h-13.9
	v18.2h-11.7v13.7h11.7v62.8h13.9V196.9z M487.6,251.1v6.7h13.9v-72.4h-13.9v6.6c-6.8-5.8-15.6-9.1-24.7-9.1
	c-21.4,0-38.8,17.3-38.8,38.6s17.4,38.6,38.8,38.6C472,260.1,480.7,256.8,487.6,251.1z M487.6,221.5c0,13.7-11.1,24.9-24.7,24.9
	c-13.7,0-24.9-11.2-24.9-24.9s11.2-24.9,24.9-24.9C476.5,196.5,487.6,207.7,487.6,221.5z"/>
<linearGradient id="SVGID_1_" gradientUnits="userSpaceOnUse" x1="47" y1="1146.8436" x2="550.8226" y2="1146.8436" gradientTransform="matrix(1 0 0 1 0 -997.3)">
	<stop  offset="0" style="stop-color:#54B948"/>
	<stop  offset="0.2927" style="stop-color:#4FB248"/>
	<stop  offset="0.6787" style="stop-color:#3BA447"/>
	<stop  offset="1" style="stop-color:#219647"/>
</linearGradient>
<path class="st1" d="M47,191.9c0.3-59.5,43.5-106.3,105.3-99.5C160.8,16.5,297-23.7,344.2,80.3c67.4-32.9,125.9,3.9,132.4,69.6
	c64.9-16,88.4,41.2,65.9,72.4c11.5-29.9-13.8-75.3-73-59.7c-5.6-56.6-78.5-94.5-132.3-49c-40.6-89.4-149.5-63.1-156.8,2.2
	c-53.2-5.9-85,35.2-85.3,86.5c0.9,41.8,26.3,70.2,65.5,76.3C96.7,293,48.3,253.9,47,191.9L47,191.9z"/>
<g>
	<polygon class="st2" points="388.6,187.8 388.6,196.9 400.3,196.9 400.3,200.6 414.2,200.6 414.2,196.9 426.5,196.9 426.5,187.8 	
		"/>
	<rect x="222.4" y="164" class="st2" width="13.9" height="8"/>
	<path class="st2" d="M429.5,201.6c-2.3,3.9-4,8.2-4.9,12.8h14.2c1.5-5.2,4.7-9.6,8.8-12.8H429.5z"/>
	<polygon class="st2" points="248.6,182.2 236.3,182.2 236.3,173 222.4,173 222.4,182.2 210.7,182.2 210.7,186.8 248.6,186.8 	"/>
	<rect x="367.5" y="185.3" class="st2" width="13.9" height="1.5"/>
	<path class="st2" d="M487.5,221.4c0,2.4-0.3,4.6-0.9,6.8h14.8v-12.8h-14.6C487.3,217.3,487.5,219.3,487.5,221.4z"/>
	<path class="st2" d="M367.5,191.9c-1.8-1.6-3.8-2.9-5.9-4.1h-37.8c-5.5,3.1-10.2,7.5-13.6,12.8h19c3.9-2.6,8.6-4.1,13.6-4.1
		c5,0,9.7,1.5,13.6,4.1h25.1v-12.8h-13.9V191.9z"/>
	<path class="st2" d="M294.7,186.8c-3.7-1.4-7.8-2.2-12.1-2.2c-4.1,0-8.1,0.8-11.7,2.2H294.7z"/>
	<path class="st2" d="M424.4,215.4c-0.3,2-0.5,4-0.5,6c0,2.3,0.2,4.6,0.6,6.8h14.2c-0.6-2.2-0.9-4.4-0.9-6.8c0-2.1,0.3-4.1,0.7-6
		H424.4z"/>
	<rect x="400.3" y="201.6" class="st2" width="13.9" height="12.8"/>
	<polygon class="st2" points="236.3,200.6 236.3,195.9 248.6,195.9 248.6,187.8 210.7,187.8 210.7,195.9 222.4,195.9 222.4,200.6 	
		"/>
	<path class="st2" d="M501.4,253.8V243h-26.3c-3.6,2.1-7.8,3.3-12.3,3.3c-4.5,0-8.7-1.2-12.4-3.3h-19.8c2.9,4.3,6.7,8,11.1,10.8h42
		c1.3-0.8,2.6-1.8,3.8-2.8v2.8H501.4z"/>
	<rect x="400.3" y="165" class="st2" width="13.9" height="7"/>
	<rect x="192.6" y="173" class="st2" width="14.4" height="1.1"/>
	<path class="st2" d="M196.2,146.3c-0.3-0.2-0.6-0.5-0.9-0.7c-6.3-4.8-14.8-7.5-24.1-7.5c-9.2,0-18.5,2.8-25.5,8.2H196.2z"/>
	<path class="st2" d="M136.1,159.2h17.2c4.4-4.4,11.3-6.6,18-6.6c6,0,11.4,1.6,15.3,4.6c0.8,0.6,1.5,1.3,2.1,2h16.6
		c-1.6-4.5-4.3-8.5-7.9-11.8h-52.8C140.9,150.5,137.9,154.4,136.1,159.2z"/>
	<rect x="400.3" y="229.2" class="st2" width="13.9" height="12.8"/>
	<path class="st2" d="M148.3,171c0-4.4,1.5-8,4-10.9h-16.6c-1.2,3.3-1.8,6.9-1.8,10.9c0,0.3,0,0.6,0,0.9h14.4
		C148.3,171.7,148.3,171.4,148.3,171z"/>
	<path class="st2" d="M268.6,209.5c0-3.3,1.3-6,3.7-8h-17.4v12.8h13.7V209.5z"/>
	<path class="st2" d="M148.4,173h-14.4c0.2,5.6,1.5,10.1,3.6,13.8h22.2C152.5,184.2,148.9,180.8,148.4,173z"/>
	<path class="st2" d="M282.6,198.3c3.5,0,6.6,0.8,9.1,2.3h9.8l5.4-5.1l-3.4-3.2c-1.9-1.8-4.1-3.3-6.5-4.5h-28.4c0,0,0,0-0.1,0v0
		h-13.7v12.8h18.8C276,199.1,279.1,198.3,282.6,198.3z"/>
	<path class="st2" d="M325.7,186.8h34c-5.2-2.6-11-4-16.9-4C336.7,182.8,330.8,184.2,325.7,186.8z"/>
	<path class="st2" d="M318.8,228.2c-0.6-2.2-0.9-4.4-0.9-6.8c0-2.1,0.3-4.1,0.7-6h-14.2c-0.3,2-0.5,4-0.5,6c0,2.3,0.2,4.6,0.6,6.8
		H318.8z"/>
	<rect x="254.9" y="215.4" class="st2" width="13.7" height="44.2"/>
	<rect x="222.4" y="201.6" class="st2" width="13.9" height="58.6"/>
	<path class="st2" d="M171.1,190l-0.4-0.1c-2.9-0.7-5.6-1.4-7.9-2.1h-24.7c6.4,10.5,19,13.7,29,16.2l0.3,0.1
		c16.7,4,25.4,6.9,25.4,23.6c0,5.5-2.2,9.9-6.4,13.2c-4.1,3.1-9.9,4.8-15.9,4.8c-8.3,0-22.2-3.8-22.2-18v-4.4h-14.4v4.4
		c0,21.3,18.4,32.4,36.7,32.4c9.5,0,18-2.7,24.6-7.7c7.9-6,12.1-14.6,12.1-24.7C207.2,199.1,186.3,193.8,171.1,190z"/>
	<path class="st2" d="M192.6,169.6v2.3h14.4v-2.3c0-3.4-0.5-6.5-1.4-9.5h-16.1C191.5,162.8,192.6,166,192.6,169.6z"/>
	<polygon class="st2" points="400.3,173 400.3,183.2 388.6,183.2 388.6,186.8 426.5,186.8 426.5,183.2 414.2,183.2 414.2,173 	"/>
	<rect x="487.5" y="254.8" class="st2" width="13.9" height="2.9"/>
	<path class="st2" d="M443.3,254.8c5.7,3.3,12.4,5.2,19.4,5.2c6.9,0,13.6-1.9,19.3-5.2H443.3z"/>
	<path class="st2" d="M297,204.9l3.5-3.3h-7.3c0.2,0.2,0.5,0.4,0.7,0.6L297,204.9z"/>
	<rect x="400.3" y="243" class="st2" width="13.9" height="16.7"/>
	<path class="st2" d="M366.3,229.2c-3.3,9.9-12.6,17.1-23.5,17.1c-11,0-20.4-7.2-23.7-17.1h-14.3c3.6,17.6,19.3,30.8,38,30.8
		c9.2,0,17.9-3.3,24.7-9v6.7h13.9v-28.5H366.3z"/>
	<path class="st2" d="M445.6,186.8h34c-5.2-2.6-11-4-16.9-4C456.6,182.8,450.8,184.2,445.6,186.8z"/>
	<path class="st2" d="M366.6,228.2h14.8v-12.8h-14.6c0.5,1.9,0.7,3.9,0.7,6C367.5,223.8,367.2,226,366.6,228.2z"/>
	<rect x="400.3" y="215.4" class="st2" width="13.9" height="12.8"/>
	<path class="st2" d="M381.4,201.6h-23.7c4.1,3.2,7.3,7.7,8.8,12.8h14.9V201.6z"/>
	<path class="st2" d="M327.7,201.6h-18.2c-2.3,3.9-4,8.2-4.9,12.8h14.2C320.4,209.2,323.6,204.8,327.7,201.6z"/>
	<path class="st2" d="M439.1,229.2h-14.3c1,4.6,2.8,8.9,5.2,12.8h18.8C444.3,239,440.9,234.5,439.1,229.2z"/>
	<path class="st2" d="M486.3,229.2c-1.7,5.3-5.1,9.7-9.6,12.8h24.7v-12.8H486.3z"/>
	<rect x="487.5" y="185.3" class="st2" width="13.9" height="1.5"/>
	<path class="st2" d="M487.5,187.8v4.1c-1.9-1.6-3.8-2.9-5.9-4.1h-37.8c-5.5,3.1-10.2,7.5-13.6,12.8h19c3.9-2.6,8.6-4.1,13.6-4.1
		c5,0,9.7,1.5,13.6,4.1h25.1v-12.8H487.5z"/>
	<path class="st2" d="M486.5,214.4h14.9v-12.8h-23.7C481.9,204.8,485,209.2,486.5,214.4z"/>
</g>
</svg>
