<?xml version="1.0" encoding="UTF-8" standalone="no"?>
<!-- Generator: Adobe Illustrator 23.0.6, SVG Export Plug-In . SVG Version: 6.00 Build 0)  -->

<svg
   version="1.1"
   id="Layer_1"
   x="0px"
   y="0px"
   viewBox="0 0 500 500"
   style="enable-background:new 0 0 500 500;"
   xml:space="preserve"
   xmlns="http://www.w3.org/2000/svg"
   xmlns:svg="http://www.w3.org/2000/svg"><defs
   id="defs23" />
<style
   type="text/css"
   id="style2">
	.st0{fill:none;}
	.st1{fill:#FFFFFF;}
</style>
<g
   id="g18">
	<ellipse
   transform="matrix(0.9871 -0.1602 0.1602 0.9871 -47.8502 44.4134)"
   class="st0"
   cx="251.6"
   cy="319"
   rx="25"
   ry="25"
   id="ellipse4" />
	<path
   class="st0"
   d="M251.2,249.9c-2,0-4.1,0.1-6.3,0.3c-26.4,1.8-46.1,17.5-57.9,30.3c-3,3.4-2.9,8.5,0.5,11.6   c3.4,3,8.5,2.9,11.6-0.5c9.9-10.6,26-23.7,47.2-25.1c30.2-2.6,51.7,20.2,57.6,27.3c2.9,3.5,8.1,4,11.6,1c3.5-2.9,4-8.1,1-11.6   C309.5,275.1,285.7,249.9,251.2,249.9z"
   id="path6" />
	<path
   class="st0"
   d="M251.1,204.8c-2.1,0-4.3,0.1-6.6,0.2c-29.9,1.8-59.7,16.3-83.7,40.8c-3.2,3.2-3.4,8.8-0.6,12.4   c2.8,3.6,7.7,3.9,10.9,0.7c12.5-12.7,38.7-34.3,74.3-36.4c41.6-2.7,72.1,23.1,86.6,38.6c3.1,3.3,8,3.1,10.9-0.4   c2.9-3.5,2.8-9.1-0.3-12.4C326.9,231.8,294.9,204.8,251.1,204.8z"
   id="path8" />
	<path
   class="st0"
   d="M365.8,110.4h-229c-14.7,0-25.9,11.2-25.9,25.9v229c0,14.7,11.2,25.9,25.9,25.9h229   c14.7,0,25.9-11.2,25.9-25.9v-229C391.7,121.7,380.5,110.4,365.8,110.4z M375.4,363c0,7.1-5.8,12.9-12.9,12.9h-222   c-7.1,0-12.9-5.8-12.9-12.9V141c0-7.1,5.8-12.9,12.9-12.9h222c7.1,0,12.9,5.8,12.9,12.9V363z"
   id="path10" />
	<path
   class="st0"
   d="M250.8,159.9c-1.5,0-3.1,0-4.7,0.1c-49.4,1.8-85.4,27.6-102.5,42.9c-3.5,3.2-4.3,9.3-1.7,13.6   c2.6,4.4,7.6,5.3,11.1,2.1c15.5-13.9,48.4-37.5,93.5-39.1c52-1.6,89.6,27.6,103.4,40.3c3.5,3.2,8.5,2.3,11.2-2   c2.6-4.3,1.9-10.4-1.6-13.7C344.8,190.6,305.3,159.9,250.8,159.9z"
   id="path12" />
	<path
   class="st1"
   d="M426.3,164c5.2,0,9.5-4.3,9.5-9.5v-2.6c0-5.2-4.3-9.5-9.5-9.5H409v-6c0-24.2-19-43.2-43.2-43.2h-5.2V75.9   c0-5.2-4.3-9.5-9.5-9.5h-2.6c-5.2,0-8.6,4.3-9.5,8.6v18.1h-26.8V75.9c0-5.2-4.3-9.5-9.5-9.5h-2.6c-5.2,0-9.5,4.3-9.5,8.6v18.1   h-29.4V75.9c0-5.2-4.3-9.5-9.5-9.5h-2.6c-5.2,0-9.5,4.3-9.5,8.6v18.1H212V75.9c0-5.2-4.3-9.5-9.5-9.5h-1.7c-5.2,0-9.5,4.3-10.4,8.6   v18.1h-26.8V75.9c0-5.2-4.3-9.5-9.5-9.5h-2.6c-5.2,0-9.5,4.3-9.5,8.6v18.1h-5.2c-24.2,0-43.2,19-43.2,43.2v6H73.7   c-5.2,0-9.5,4.3-9.5,9.5v2.6c0,5.2,4.3,9.5,9.5,9.5h19.9v27.7H73.7c-5.2,0-9.5,4.3-9.5,9.5v2.6c0,5.2,4.3,8.6,9.5,9.5h19.9v28.5   H73.7c-5.2,0-9.5,4.3-9.5,9.5v2.6c0,5.2,4.3,9.5,9.5,9.5h19.9v27.7H73.7c-5.2,0-9.5,4.3-9.5,9.5v2.6c0,5.2,4.3,9.5,9.5,9.5h19.9   v27.7H73.7c-5.2,0-9.5,4.3-9.5,8.6v2.6c0,5.2,4.3,9.5,9.5,10.4h19.9v3.5c0,24.2,19,43.2,43.2,43.2h5.2v15.6c0,5.2,4.3,9.5,9.5,9.5   h2.6c5.2,0,9.5-4.3,9.5-9.5v-15.6h26.8v15.6c0,5.2,4.3,9.5,9.5,9.5h2.6c5.2,0,9.5-4.3,9.5-9.5v-15.6h27.7v15.6   c0,5.2,4.3,9.5,9.5,9.5h2.6c5.2,0,9.5-4.3,9.5-9.5v-15.6h29.4v15.6c0,5.2,4.3,9.5,9.5,9.5h2.6c5.2,0,9.5-4.3,9.5-9.5v-15.6H339   v15.6c0,5.2,4.3,9.5,9.5,9.5h2.6c5.2,0,9.5-4.3,9.5-9.5v-15.6h5.2c24.2,0,43.2-19.9,43.2-43.2v-4.3h17.3c5.2,0,9.5-4.3,9.5-9.5V349   c0-5.2-4.3-9.5-9.5-9.5H409v-26.8h17.3c5.2,0,9.5-4.3,9.5-9.5v-2.6c0-5.2-4.3-9.5-9.5-9.5H409v-27.7h17.3c5.2,0,9.5-4.3,9.5-9.5   v-2.6c0-5.2-4.3-9.5-9.5-9.5H409v-28.5h17.3c5.2,0,9.5-4.3,9.5-9.5v-2.6c0-5.2-4.3-9.5-9.5-9.5H409V164H426.3z M391.7,365.4   c0,14.7-11.2,25.9-25.9,25.9h-229c-14.7,0-25.9-11.2-25.9-25.9v-229c0-14.7,11.2-25.9,25.9-25.9h229c14.7,0,25.9,11.2,25.9,25.9   V365.4z"
   id="path14" />
	<path
   class="st1"
   d="M362.5,128.1h-222c-7.1,0-12.9,5.8-12.9,12.9v222c0,7.1,5.8,12.9,12.9,12.9h222c7.1,0,12.9-5.8,12.9-12.9V141   C375.4,133.9,369.6,128.1,362.5,128.1z M251.6,344c-13.8,0-25-11.2-25-25c0-13.8,11.3-25,25-25c13.8,0,25,11.2,25,25   C276.6,332.8,265.3,344,251.6,344z M315.3,294.8c-3.5,3-8.7,2.5-11.6-1c-5.9-7.1-27.4-29.9-57.6-27.3   c-21.2,1.4-37.3,14.5-47.2,25.1c-3,3.4-8.2,3.5-11.6,0.5c-3.4-3-3.5-8.2-0.5-11.6c11.9-12.8,31.6-28.5,57.9-30.3   c2.1-0.2,4.2-0.3,6.3-0.3c34.5,0,58.3,25.3,65.1,33.4C319.3,286.8,318.8,291.9,315.3,294.8z M342.8,260.8   c-2.9,3.5-7.8,3.7-10.9,0.4c-14.5-15.6-45.1-41.3-86.6-38.6c-35.6,2.1-61.9,23.7-74.3,36.4c-3.2,3.2-8.1,2.9-10.9-0.7   c-2.8-3.6-2.5-9.1,0.6-12.4c24.1-24.6,53.9-39,83.7-40.8c2.3-0.2,4.5-0.2,6.6-0.2c43.8,0,75.8,27,91.4,43.6   C345.6,251.8,345.7,257.3,342.8,260.8z M361.1,217.8c-2.7,4.3-7.7,5.2-11.2,2c-13.8-12.7-51.4-41.9-103.4-40.3   c-45.2,1.6-78,25.2-93.5,39.1c-3.5,3.2-8.5,2.3-11.1-2.1c-2.6-4.3-1.8-10.4,1.7-13.6c17.1-15.2,53-41.1,102.5-42.9   c1.6-0.1,3.1-0.1,4.7-0.1c54.6,0,94,30.7,108.7,44.2C363,207.4,363.7,213.5,361.1,217.8z"
   id="path16" />
</g>
</svg>
