<?xml version="1.0" encoding="UTF-8" standalone="no"?>
<!-- Generator: Adobe Illustrator 23.0.6, SVG Export Plug-In . SVG Version: 6.00 Build 0)  -->

<svg
   version="1.1"
   id="Layer_1"
   x="0px"
   y="0px"
   viewBox="0 0 500 500"
   style="enable-background:new 0 0 500 500;"
   xml:space="preserve"
   xmlns="http://www.w3.org/2000/svg"
   xmlns:svg="http://www.w3.org/2000/svg"><defs
   id="defs29" />
<style
   type="text/css"
   id="style2">
	.st0{fill:#FFFFFF;}
</style>
<g
   id="g24">
	<path
   class="st0"
   d="M241,147.5h63.8c6.4,0,11.6-5.2,11.6-11.6V116c0-6.4-5.2-11.6-11.6-11.6H241c-6.4,0-11.6,5.2-11.6,11.6v19.8   C229.4,142.2,234.6,147.5,241,147.5z"
   id="path4" />
	<path
   class="st0"
   d="M307.8,153.4H129.8c-5.8,0-10.6,4.8-10.6,10.6v0c0,5.8,4.8,10.6,10.6,10.6h178.1c5.8,0,10.6-4.8,10.6-10.6v0   C318.4,158.2,313.7,153.4,307.8,153.4z"
   id="path6" />
	<path
   class="st0"
   d="M307.8,191.5H129.8c-5.8,0-10.6,4.8-10.6,10.6s4.8,10.6,10.6,10.6h178.1c5.8,0,10.6-4.8,10.6-10.6   S313.7,191.5,307.8,191.5z"
   id="path8" />
	<path
   class="st0"
   d="M307.8,229.6H129.8c-5.8,0-10.6,4.8-10.6,10.6v0c0,5.8,4.8,10.6,10.6,10.6h178.1c5.8,0,10.6-4.8,10.6-10.6v0   C318.4,234.3,313.7,229.6,307.8,229.6z"
   id="path10" />
	<path
   class="st0"
   d="M307.8,267.6H129.8c-5.8,0-10.6,4.8-10.6,10.6c0,5.8,4.8,10.6,10.6,10.6h178.1c5.8,0,10.6-4.8,10.6-10.6   C318.4,272.4,313.7,267.6,307.8,267.6z"
   id="path12" />
	<path
   class="st0"
   d="M307.8,305.7H129.8c-5.8,0-10.6,4.8-10.6,10.6s4.8,10.6,10.6,10.6h178.1c5.8,0,10.6-4.8,10.6-10.6   S313.7,305.7,307.8,305.7z"
   id="path14" />
	<path
   class="st0"
   d="M307.8,343.8H129.8c-5.8,0-10.6,4.8-10.6,10.6v0c0,5.8,4.8,10.6,10.6,10.6h178.1c5.8,0,10.6-4.8,10.6-10.6v0   C318.4,348.6,313.7,343.8,307.8,343.8z"
   id="path16" />
	<path
   class="st0"
   d="M436.9,153.4H336c-6.4,0-11.6,5.2-11.6,11.6v188.4c0,6.4,5.2,11.6,11.6,11.6h100.9c6.4,0,11.6-5.2,11.6-11.6   V165C448.5,158.6,443.3,153.4,436.9,153.4z M367.2,346.9l11.4-75.2h-27.8l53.6-100.6l-11.7,74.8h28.2L367.2,346.9z"
   id="path18" />
	<path
   class="st0"
   d="M101.6,153.4L101.6,153.4c-6.4,0-11.6,5.2-11.6,11.6v188.4c0,6.4,5.2,11.6,11.6,11.6h0   c6.4,0,11.6-5.2,11.6-11.6V165C113.2,158.6,108,153.4,101.6,153.4z"
   id="path20" />
	<path
   class="st0"
   d="M74,232.5H40.5c-5.2,0-9.5,5.2-9.5,11.6v30.2c0,6.4,4.3,11.6,9.5,11.6H74c5.2,0,9.5-5.2,9.5-11.6v-30.2   C83.5,237.8,79.2,232.5,74,232.5z"
   id="path22" />
</g>
</svg>
