<?xml version="1.0" encoding="UTF-8" standalone="no"?>
<!-- Generator: Adobe Illustrator 23.0.6, SVG Export Plug-In . SVG Version: 6.00 Build 0)  -->

<svg
   version="1.1"
   id="Layer_1"
   x="0px"
   y="0px"
   viewBox="0 0 500 500"
   style="enable-background:new 0 0 500 500;"
   xml:space="preserve"
   xmlns="http://www.w3.org/2000/svg"
   xmlns:svg="http://www.w3.org/2000/svg"><defs
   id="defs11" />
<style
   type="text/css"
   id="style2">
	.st0{fill:#FFFFFF;}
</style>
<g
   id="g6">
	<path
   class="st0"
   d="M415.1,188.5l-28.4-63.6c0,0,0-3.4-4.3-5.2c-4.3-1.7-99.8-8.6-130.7-8.6c-30.1,0-130.7,6-135.9,7.7   c-5.2,1.7-31.8,70.5-31.8,70.5l-44.7-0.9v22.4l29.2,19.8v75.7l3.4,37h23.2V376c0,0,2.6,9.5,9.5,9.5H152c0,0,10.3-2.6,10.3-10.3   v-32.7h176.3v37c0,0,2.6,9.5,9.5,9.5h46.4c0,0,12-6.9,12-12v-33.5H428l4.3-37.8v-77.4l28.4-18.1v-23.2h-45.6V188.5z M164,296.9   v-27.5h170.3v27.5H164z M112.4,199.7l24.9-54.2h225.3l24.1,54.2H112.4z M136.5,297.7H95.2v-37h41.3V297.7z M405.7,297.7h-41.3v-37   h41.3V297.7z"
   id="path4" />
</g>
</svg>
