<?xml version="1.0" encoding="utf-8"?>
<!-- Generator: Adobe Illustrator 22.1.0, SVG Export Plug-In . SVG Version: 6.00 Build 0)  -->
<svg version="1.1" id="Layer_1" xmlns="http://www.w3.org/2000/svg" xmlns:xlink="http://www.w3.org/1999/xlink" x="0px" y="0px"
	 viewBox="0 0 39.2 39.2" style="enable-background:new 0 0 39.2 39.2;" xml:space="preserve">
<style type="text/css">
	.st0{fill:#FFFFFF;}
</style>
<title>ac</title>
<g>
	<path class="st0" d="M39.3,17.2h-2.9c0.6-1.1,1.3-3.2,2-6.8l0.1-0.4l-1.8-0.3L36.6,10c-0.8,4.1-1.4,5.6-1.7,6.2
		c-0.3-0.7-0.9-2.3-1.3-3.5s-1-2.8-1.7-4.7c-0.6-1.7-1.2-3.3-2-4.9c-0.4-0.8-0.9-1.6-1.9-1.6s-1.5,0.7-2,1.8c-0.5,1-1.2,2.8-2.1,5.3
		c-0.5,1.3-0.9,2.4-1.2,3.4V12c-0.7,1.8-1.1,3-1.4,3.8c-0.1,0.2-0.2,0.4-0.3,0.5c-0.6-1.1-1.8-4.5-2.7-7l-0.5-1.5
		c-0.8-2.2-1.3-3.7-1.7-4.6c-0.3-0.6-0.8-1.7-1.9-1.7c-1.2,0-1.6,1.3-2.4,3.8c-0.4,1.2-0.9,2.9-1.7,5c-0.8,2.1-1.4,3.8-2,4.9
		C7.6,15.6,7.4,16,7,16.4c-0.1,0-0.5-0.3-1.3-2.1C4.3,10.5,3.2,6.5,2.5,2.5L2.4,2.2L0.9,2.5H0V19h39.2L39.3,17.2z M1.9,8.2
		C2.5,10.5,3.2,12.8,4,15c0.4,0.9,0.8,1.7,1.2,2.2H1.9V8.2z M8.8,17.2c0.8-1.1,1.6-3.1,2.8-6.3c0.8-2.1,1.4-3.8,1.8-5.1
		c0.2-0.7,0.5-1.6,0.7-2.1c0.4,0.8,1.1,2.8,1.8,4.8l0.5,1.5c1.1,3.2,1.9,5.3,2.5,6.5c0.1,0.2,0.3,0.5,0.4,0.7H8.8z M22.5,17.2
		c0.1-0.1,0.1-0.3,0.2-0.4c0.4-0.8,0.9-2.1,1.6-4.1c0.4-1,0.8-2.1,1.3-3.5c0.8-2.3,1.5-4.1,2-5.1c0.1-0.2,0.2-0.4,0.4-0.6
		C28,3.6,28.1,3.8,28.2,4c0.7,1.5,1.4,3.1,1.9,4.7c0.7,1.9,1.2,3.4,1.7,4.7c0.6,1.6,1,2.7,1.3,3.4c0,0.1,0.1,0.2,0.2,0.4H22.5z"/>
	<polygon class="st0" points="1.9,28.7 39.2,28.7 39.2,26.9 1.9,26.9 1.9,21.2 0,21.2 0,37.8 39.2,37.8 39.3,35.9 1.9,35.9 	"/>
</g>
</svg>
