<?xml version="1.0" encoding="utf-8"?>
<!-- Generator: Adobe Illustrator 22.1.0, SVG Export Plug-In . SVG Version: 6.00 Build 0)  -->
<svg version="1.1" id="Layer_1" xmlns="http://www.w3.org/2000/svg" xmlns:xlink="http://www.w3.org/1999/xlink" x="0px" y="0px"
	 viewBox="0 0 56.8 56.8" style="enable-background:new 0 0 56.8 56.8;" xml:space="preserve">
<style type="text/css">
	.st0{fill:#FFFFFF;}
</style>
<title>analog</title>
<g>
	<path class="st0" d="M56.8,27.7H41.7c-0.4-2.1-1.3-4.2-2.7-5.9c-0.8-1.1-2-1.8-3.4-2c-1.4-0.1-2.9,0.3-4,1.3
		c-1.9,1.7-3.2,4.1-3.5,6.6H16.2c-0.4-2.1-1.3-4.2-2.7-5.9c-0.8-1.1-2-1.8-3.3-2c-1.5-0.1-2.9,0.3-4,1.3c-1.9,1.7-3.2,4.1-3.5,6.6H0
		v1.4h15.4c0.4,2.5,1.6,4.8,3.5,6.5c1,0.8,2.2,1.3,3.4,1.3c0.2,0,0.4,0,0.6-0.1c1.3-0.2,2.5-0.9,3.3-2c1.3-1.7,2.3-3.6,2.7-5.7h11.9
		c0.4,2.5,1.6,4.8,3.5,6.5c1,0.8,2.2,1.3,3.4,1.3c0.2,0,0.4,0,0.6-0.1c1.3-0.2,2.5-0.9,3.3-2c1.3-1.7,2.3-3.6,2.7-5.7h2.3V27.7z
		 M32.3,21.8c0.9-0.8,2.1-1.1,3.2-1c1.1,0.2,2.1,0.8,2.7,1.7c1.2,1.5,2,3.3,2.4,5.2H29.1C29.5,25.4,30.6,23.4,32.3,21.8z M6.8,21.8
		c0.9-0.8,2.1-1.1,3.2-1c1.1,0.2,2.1,0.8,2.7,1.7c1.2,1.5,2,3.3,2.4,5.2H3.6C4,25.4,5.1,23.4,6.8,21.8z M25.5,34.2
		c-0.7,0.9-1.6,1.5-2.7,1.7c-1.2,0.1-2.4-0.2-3.2-1c-1.7-1.5-2.8-3.6-3.1-5.8h11.5C27.5,30.9,26.7,32.7,25.5,34.2z M51,34.2
		c-0.7,0.9-1.6,1.5-2.7,1.7c-1.2,0.1-2.4-0.2-3.2-1c-1.7-1.5-2.8-3.6-3.1-5.8h11.5C53,30.9,52.2,32.7,51,34.2z"/>
</g>
</svg>
