<?xml version="1.0" encoding="utf-8"?>
<!-- Generator: Adobe Illustrator 22.1.0, SVG Export Plug-In . SVG Version: 6.00 Build 0)  -->
<svg version="1.1" id="Layer_1" xmlns="http://www.w3.org/2000/svg" xmlns:xlink="http://www.w3.org/1999/xlink" x="0px" y="0px"
	 viewBox="0 0 39.7 39.7" style="enable-background:new 0 0 39.7 39.7;" xml:space="preserve">
<style type="text/css">
	.st0{fill:#FFFFFF;}
</style>
<title>audio</title>
<path class="st0" d="M4,13.8c-0.7,0.6-1.4,1.3-2,2c-1.1,1.4-2,2.5-2,4s0.9,2.6,2,4c0.6,0.7,1.3,1.4,2,2V13.8z"/>
<polygon class="st0" points="6,12.8 17,3.8 17,35.8 6,26.8 "/>
<path class="st0" d="M19,16.8c1.7,0,3,1.3,3,3s-1.3,3-3,3V16.8z"/>
<path class="st0" d="M33.8,34.5c-0.8,0-1.4-0.6-1.4-1.4c0-0.3,0.1-0.6,0.3-0.8c5.3-7,5.6-16.5,0.7-23.8C33,7.9,33.1,7,33.8,6.6
	c0.6-0.4,1.5-0.3,1.9,0.4c5.5,8.2,5.2,19.1-0.8,27C34.7,34.3,34.3,34.5,33.8,34.5z"/>
<path class="st0" d="M30.1,30.6c-0.8,0-1.4-0.6-1.4-1.4c0-0.3,0.1-0.6,0.3-0.8c1.9-2.6,2.9-5.8,2.9-9c0-2.7-0.8-5.3-2.2-7.6
	c-0.5-0.6-0.4-1.5,0.2-2c0.6-0.5,1.5-0.4,2,0.2c0.1,0.1,0.1,0.2,0.2,0.3c1.7,2.7,2.6,5.9,2.6,9.1c0,3.8-1.2,7.6-3.4,10.7
	C30.9,30.4,30.5,30.6,30.1,30.6z"/>
<path class="st0" d="M26.4,27.1c-0.8,0-1.4-0.6-1.4-1.4c0-0.2,0.1-0.5,0.2-0.7c1.8-3.1,2-6.8,0.5-10c-0.3-0.7,0-1.5,0.7-1.8
	s1.5,0,1.8,0.7c1.9,4,1.6,8.8-0.6,12.6C27.3,26.9,26.9,27.1,26.4,27.1z"/>
</svg>
