<?xml version="1.0" encoding="utf-8"?>
<!-- Generator: Adobe Illustrator 22.1.0, SVG Export Plug-In . SVG Version: 6.00 Build 0)  -->
<svg version="1.1" id="Layer_1" xmlns="http://www.w3.org/2000/svg" xmlns:xlink="http://www.w3.org/1999/xlink" x="0px" y="0px"
	 viewBox="0 0 49 49" style="enable-background:new 0 0 49 49;" xml:space="preserve">
<style type="text/css">
	.st0{fill:#FFFFFF;}
</style>
<title>automotive</title>
<g>
	<path class="st0" d="M43.7,17.3l-3.3-7.4c0,0,0-0.4-0.5-0.6c-0.5-0.2-11.6-1-15.2-1c-3.5,0-15.2,0.7-15.8,0.9
		c-0.6,0.2-3.7,8.2-3.7,8.2L0,17.3v2.6l3.4,2.3V31l0.4,4.3h2.7v3.8c0,0,0.3,1.1,1.1,1.1l5.5,0c0,0,1.2-0.3,1.2-1.2v-3.8h20.5v4.3
		c0,0,0.3,1.1,1.1,1.1h5.4c0,0,1.4-0.8,1.4-1.4v-3.9h2.5l0.5-4.4v-9l3.3-2.1v-2.7H43.7z M14.5,29.9v-3.2l19.8,0v3.2H14.5z M8.5,18.6
		l2.9-6.3h26.2l2.8,6.3H8.5z M11.3,30H6.5v-4.3h4.8V30z M42.6,30h-4.8v-4.3h4.8V30z"/>
</g>
</svg>
