<?xml version="1.0" encoding="utf-8"?>
<!-- Generator: Adobe Illustrator 22.1.0, SVG Export Plug-In . SVG Version: 6.00 Build 0)  -->
<svg version="1.1" id="Layer_1" xmlns="http://www.w3.org/2000/svg" xmlns:xlink="http://www.w3.org/1999/xlink" x="0px" y="0px"
	 viewBox="0 0 41 41" style="enable-background:new 0 0 41 41;" xml:space="preserve">
<style type="text/css">
	.st0{fill:#FFFFFF;}
</style>
<title>connectivity</title>
<g>
	<path class="st0" d="M6.3,6.7c0.4-0.6,0.3-1.5-0.4-1.9S4.4,4.5,4,5.2c-5.5,8.2-5.2,19.1,0.8,27c0.3,0.3,0.7,0.6,1.1,0.5v0
		c0.3,0,0.6-0.1,0.8-0.3C7.3,32,7.4,31.1,7,30.5C1.7,23.5,1.4,14,6.3,6.7z"/>
	<path class="st0" d="M7.8,17.6c0-2.7,0.8-5.3,2.2-7.6c0.4-0.7,0.2-1.5-0.5-1.9S8,7.9,7.6,8.5C6,11.2,5.1,14.4,5,17.6
		c0,3.8,1.2,7.6,3.4,10.7c0.3,0.4,0.7,0.6,1.1,0.6c0.3,0,0.6-0.1,0.8-0.3c0.6-0.5,0.8-1.3,0.3-1.9C8.8,24,7.8,20.8,7.8,17.6z"/>
	<path class="st0" d="M14,13.2c0.3-0.7,0-1.5-0.7-1.8c-0.7-0.3-1.5,0-1.8,0.7c-1.9,4-1.6,8.8,0.6,12.6c0.2,0.4,0.7,0.7,1.2,0.7v0
		c0.2,0,0.5-0.1,0.7-0.2c0.7-0.4,0.9-1.2,0.5-1.9C12.7,20.1,12.5,16.4,14,13.2z"/>
	<path class="st0" d="M37.1,5.1c-0.4-0.6-1.3-0.8-1.9-0.4c-0.6,0.4-0.8,1.3-0.4,1.9c4.9,7.3,4.6,16.8-0.7,23.8
		c-0.2,0.2-0.3,0.5-0.3,0.8c0,0.8,0.6,1.4,1.4,1.4c0.4,0,0.9-0.2,1.1-0.6C42.3,24.2,42.6,13.4,37.1,5.1z"/>
	<path class="st0" d="M33.4,8.5C33,7.9,32.1,7.6,31.5,8S30.6,9.3,31,10c1.4,2.3,2.2,4.9,2.2,7.6c0,3.2-1,6.4-2.9,9
		c-0.2,0.2-0.3,0.5-0.3,0.8c0,0.8,0.6,1.4,1.4,1.4c0.4,0,0.9-0.2,1.1-0.6c2.2-3.1,3.4-6.8,3.4-10.7C36,14.4,35.1,11.2,33.4,8.5z"/>
	<path class="st0" d="M29.6,12c-0.3-0.7-1.1-1-1.8-0.7c-0.7,0.3-1,1.1-0.7,1.8c1.5,3.2,1.3,6.9-0.5,10c-0.1,0.2-0.2,0.5-0.2,0.7
		c0,0.8,0.6,1.4,1.4,1.4c0.5,0,0.9-0.2,1.2-0.7C31.2,20.8,31.4,16.1,29.6,12z"/>
	<path class="st0" d="M20.2,14.9c-2,0-3.7,1.7-3.7,3.7c0,1.5,0.9,2.8,2.1,3.3v12.9c0,0.9,0.7,1.7,1.7,1.7s1.7-0.7,1.7-1.7v-13
		c1.2-0.6,2-1.8,2-3.2C23.9,16.6,22.3,14.9,20.2,14.9z"/>
</g>
</svg>
