<?xml version="1.0" encoding="utf-8"?>
<!-- Generator: Adobe Illustrator 22.1.0, SVG Export Plug-In . SVG Version: 6.00 Build 0)  -->
<svg version="1.1" id="Layer_1" xmlns="http://www.w3.org/2000/svg" xmlns:xlink="http://www.w3.org/1999/xlink" x="0px" y="0px"
	 viewBox="0 0 42.8 42.8" style="enable-background:new 0 0 42.8 42.8;" xml:space="preserve">
<style type="text/css">
	.st0{fill:none;}
	.st1{fill:#FFFFFF;}
</style>
<title>consumer</title>
<g>
	<path class="st0" d="M24.6,38.5h-6.4c-0.3,0-0.5,0.2-0.5,0.5V40c0,0.3,0.2,0.5,0.5,0.5h6.4c0.3,0,0.5-0.2,0.5-0.5v-1.1
		C25.1,38.7,24.9,38.5,24.6,38.5z"/>
	<path class="st0" d="M18.8,3.2h5.3c0.3,0,0.5-0.2,0.5-0.5c0-0.3-0.2-0.5-0.5-0.5h-5.3c-0.3,0-0.5,0.2-0.5,0.5
		C18.3,2.9,18.5,3.2,18.8,3.2z"/>
	<path class="st1" d="M31.7,0H11.1C9.6,0,8.4,1.2,8.4,2.8v37.3c0,1.5,1.2,2.8,2.8,2.8h20.5c1.5,0,2.8-1.2,2.8-2.8V2.8
		C34.5,1.2,33.2,0,31.7,0z M18.8,2.2h5.3c0.3,0,0.5,0.2,0.5,0.5c0,0.3-0.2,0.5-0.5,0.5h-5.3c-0.3,0-0.5-0.2-0.5-0.5
		C18.3,2.4,18.5,2.2,18.8,2.2z M25.1,40c0,0.3-0.2,0.5-0.5,0.5h-6.4c-0.3,0-0.5-0.2-0.5-0.5v-1.1c0-0.3,0.2-0.5,0.5-0.5h6.4
		c0.3,0,0.5,0.2,0.5,0.5V40z M32.7,36.9H10.1V4.4h22.7V36.9z"/>
</g>
</svg>
