<?xml version="1.0" encoding="utf-8"?>
<!-- Generator: Adobe Illustrator 22.1.0, SVG Export Plug-In . SVG Version: 6.00 Build 0)  -->
<svg version="1.1" id="Layer_1" xmlns="http://www.w3.org/2000/svg" xmlns:xlink="http://www.w3.org/1999/xlink" x="0px" y="0px"
	 viewBox="0 0 57.8 57.8" style="enable-background:new 0 0 57.8 57.8;" xml:space="preserve">
<style type="text/css">
	.st0{fill:#FFFFFF;}
</style>
<title>digital</title>
<g>
	<path class="st0" d="M57.8,28.4H42.4v-2.3h-2.6v-2.2h-2.6v-2.4h-3.4v2.4h-2.5v2.2h-2.6v2.3H16.5v-2.3h-2.6v-2.2h-2.6v-2.4H8v2.4
		H5.4v2.2H2.9v2.3H0v1.1h15.8v2.2h2.5v2.2H21v2.3h3.4v-2.3h2.5v-2.2h2.6v-2.2h12.3v2.2h2.6v2.2h2.5v2.3h3.4v-2.3h2.6v-2.2h2.5v-2.2
		h2.4V28.4z M49.4,35.4h-1.7v-1.5l0-4.4h1.7v4.4V35.4z M45.2,31.7v-2.2h1.7V33h-1.7V31.7z M19.2,31.7v-2.2h1.7V33h-1.7V31.7z
		 M3.7,27h1.7v1.4H3.7L3.7,27z M10.5,23.9v4.5H8.8v-6h1.7V23.9z M13.1,26.1v2.3h-1.7v-3.7h1.7V26.1z M36.5,22.4v1.6v4.5h-1.7l0-4.5
		h0v-1.6H36.5z M39,26.1v2.3h-1.7v-3.7H39V26.1z M41.6,28.4h-1.7V27h1.7V28.4z M33.9,28.4h-1.7v-2.3v-1.4h1.7V28.4z M31.4,28.4h-1.7
		l0-1.4h1.7V28.4z M15.7,28.4h-1.7V27h1.7V28.4z M8,28.4H6.2v-2.3v-1.4H8V28.4z M18.4,29.5v1.4h-1.7l0-1.4H18.4z M21.8,35.4v-5.9
		h1.7v4.4h0v1.5H21.8z M24.4,29.5h1.7v2.2V33h-1.7V29.5z M26.9,29.5h1.7v1.4h-1.7V29.5z M42.6,29.5h1.7v1.4h-1.8L42.6,29.5z
		 M50.3,29.5H52v2.2h0V33h-1.7V29.5z M52.8,29.5h1.7v1.4h-1.7V29.5z"/>
</g>
</svg>
