<?xml version="1.0" encoding="utf-8"?>
<!-- Generator: Adobe Illustrator 22.1.0, SVG Export Plug-In . SVG Version: 6.00 Build 0)  -->
<svg version="1.1" id="Layer_1" xmlns="http://www.w3.org/2000/svg" xmlns:xlink="http://www.w3.org/1999/xlink" x="0px" y="0px"
	 viewBox="0 0 42.7 42.7" style="enable-background:new 0 0 42.7 42.7;" xml:space="preserve">
<style type="text/css">
	.st0{fill:#FFFFFF;}
</style>
<title>imagesensors</title>
<g>
	<path class="st0" d="M41.7,11.1c0.6,0,1.1-0.5,1.1-1.1V9.7c0-0.6-0.5-1.1-1.1-1.1h-1.9V5.7c0-1.4-1.1-2.5-2.5-2.5h-2.5V1.4
		c0-0.6-0.5-1.1-1.1-1.1h-0.4c-0.6,0-1.1,0.5-1.1,1.1v1.8h-3.4V1.4c0-0.6-0.5-1.1-1.1-1.1h-0.4c-0.6,0-1.1,0.5-1.1,1.1v1.8h-3.6V1.4
		c0-0.6-0.5-1.1-1.1-1.1h-0.4c-0.6,0-1.1,0.5-1.1,1.1v1.8h-3.4V1.4c0-0.6-0.5-1.1-1.1-1.1h-0.4c-0.6,0-1.1,0.5-1.1,1.1v1.8h-3.4V1.4
		c0-0.6-0.5-1.1-1.1-1.1H9.3c-0.6,0-1.1,0.5-1.1,1.1v1.8H5.5C4.1,3.3,3,4.4,3,5.7v2.9h-2C0.5,8.6,0,9.1,0,9.7v0.4
		c0,0.6,0.5,1.1,1.1,1.1h2v3.4h-2C0.5,14.5,0,15,0,15.6V16c0,0.6,0.5,1.1,1.1,1.1h2v3.7h-2c-0.6,0-1.1,0.5-1.1,1.1v0.4
		c0,0.6,0.5,1.1,1.1,1.1h2v3.4h-2c-0.6,0-1.1,0.5-1.1,1.1v0.4c0,0.6,0.5,1.1,1.1,1.1h2v3.4h-2c-0.6,0-1.1,0.5-1.1,1.1v0.4
		c0,0.6,0.5,1.1,1.1,1.1h2v1.8c0,1.4,1.1,2.5,2.5,2.5h2.8v1.9c0,0.6,0.5,1.1,1.1,1.1h0.4c0.6,0,1.1-0.5,1.1-1.1v-1.9h3.4v1.9
		c0,0.6,0.5,1.1,1.1,1.1h0.4c0.6,0,1.1-0.5,1.1-1.1v-1.9h3.4v1.9c0,0.6,0.5,1.1,1.1,1.1h0.4c0.6,0,1.1-0.5,1.1-1.1v-1.9h3.6v1.9
		c0,0.6,0.5,1.1,1.1,1.1h0.4c0.6,0,1.1-0.5,1.1-1.1v-1.9h3.4v1.9c0,0.6,0.5,1.1,1.1,1.1h0.4c0.6,0,1.1-0.5,1.1-1.1v-1.9h2.5
		c1.3,0,2.4-1.1,2.5-2.4v-1.8h1.9c0.6,0,1.1-0.5,1.1-1.1v-0.4c0-0.6-0.5-1.1-1.1-1.1h-1.9v-3.4h1.9c0.6,0,1.1-0.5,1.1-1.1v-0.4
		c0-0.6-0.5-1.1-1.1-1.1h-1.9v-3.4h1.9c0.6,0,1.1-0.5,1.1-1.1v-0.4c0-0.6-0.5-1.1-1.1-1.1h-1.9v-3.7h1.9c0.6,0,1.1-0.5,1.1-1.1v-0.4
		c0-0.6-0.5-1.1-1.1-1.1h-1.9v-3.4H41.7z M34.9,34.5h-27v-4.9h1.2c0.6,0,1-0.5,1-1V16.1c0-0.6-0.5-1-1-1H7.9v-7h27V34.5z"/>
</g>
</svg>
