<?xml version="1.0" encoding="utf-8"?>
<!-- Generator: Adobe Illustrator 22.1.0, SVG Export Plug-In . SVG Version: 6.00 Build 0)  -->
<svg version="1.1" id="Layer_1" xmlns="http://www.w3.org/2000/svg" xmlns:xlink="http://www.w3.org/1999/xlink" x="0px" y="0px"
	 viewBox="0 0 44.5 44.5" style="enable-background:new 0 0 44.5 44.5;" xml:space="preserve">
<style type="text/css">
	.st0{fill:#FFFFFF;}
</style>
<title>industrial</title>
<g>
	<path class="st0" d="M37,36.1c-0.7,1.4-2.1,2.3-3.6,2.3c-0.6,0-1.2-0.1-1.7-0.4c-1.5-0.7-2.4-2.3-2.2-3.9h-3.3v2.5h-4.5v6.8h21.6
		v-6.8h-3.7V34h-2.3C37.4,34.7,37.3,35.4,37,36.1z"/>
	<path class="st0" d="M20.5,3.8l-8.7,7.4L10,9.6l-1.6,1.8l-8.1-0.3L0,21.8c0,0.6,0.4,1,1,1c0,0,0,0,0,0c0.5,0,1-0.4,1-1l0.3-8.7
		l7.5,0.3l4.2,3.7l0.7,7.4l-8.4,0.8c-0.5,0.1-1,0.5-0.9,1.1c0,0.5,0.5,0.9,1,0.9c0,0,0.1,0,0.1,0l10.4-1l-0.7-7.8l1.7-2l-2.1-1.8
		l6.9-5.9c-0.4-0.2-0.8-0.4-1.2-0.7C20.3,7,20,5.3,20.5,3.8z"/>
	<path class="st0" d="M36.9,17.8c0.5-1,1.3-1.7,2.3-2c0.3-0.1,0.5-0.2,0.8-0.2L28.2,5.1c0,1-0.3,1.9-1,2.7c-0.7,0.7-1.5,1.2-2.5,1.3
		l11.9,10.6C36.6,19.1,36.7,18.4,36.9,17.8z"/>
	<path class="st0" d="M26.2,3L26.2,3c-0.6-0.5-1.3-0.8-2-0.8c-0.8,0-1.6,0.3-2.2,1c-1.1,1.2-1,3.1,0.2,4.2c0.6,0.5,1.4,0.8,2.1,0.7
		c0.8,0,1.5-0.4,2-1C27.5,5.9,27.4,4.1,26.2,3z"/>
	<path class="st0" d="M35,30.7L35,30.7c0.1,0,0.1,0,0.1,0l0.1,0c0.9,0.5,1.5,1.2,1.9,2.1l4.6-9.5c-0.4,0.1-0.7,0.2-1.1,0.2
		c-0.6,0-1.2-0.1-1.7-0.4c-0.9-0.4-1.6-1.2-2-2.1l-4.6,9.5C33.2,30.3,34.1,30.3,35,30.7z"/>
	<path class="st0" d="M39.2,22.2c0.7,0.3,1.5,0.4,2.3,0.1c0.7-0.3,1.3-0.8,1.7-1.5l0,0c0.7-1.5,0.1-3.3-1.4-4
		c-0.4-0.2-0.9-0.3-1.3-0.3c-1.1,0-2.2,0.6-2.7,1.7C37.1,19.7,37.8,21.5,39.2,22.2z"/>
	<path class="st0" d="M34.8,31.7L34.8,31.7l-0.2-0.1c-0.4-0.2-0.8-0.3-1.2-0.3c-1.1,0-2.2,0.6-2.7,1.7c-0.7,1.5-0.1,3.3,1.4,4
		c1.5,0.7,3.3,0.1,4-1.4v0C36.8,34.2,36.2,32.5,34.8,31.7z"/>
</g>
</svg>
