<?xml version="1.0" encoding="utf-8"?>
<!-- Generator: Adobe Illustrator 22.1.0, SVG Export Plug-In . SVG Version: 6.00 Build 0)  -->
<svg version="1.1" id="Layer_1" xmlns="http://www.w3.org/2000/svg" xmlns:xlink="http://www.w3.org/1999/xlink" x="0px" y="0px"
	 viewBox="0 0 52 52" style="enable-background:new 0 0 52 52;" xml:space="preserve">
<style type="text/css">
	.st0{fill:#FFFFFF;}
</style>
<title>infrared</title>
<g>
	<path class="st0" d="M29.7,13.9L29.7,13.9C29.3,10.8,26,8.4,22,8.4s-7.3,2.4-7.6,5.5l0,0v13.8h-3.6v4.2h6.3V52h3.5V31.9h3.9v13.9
		h3.2V31.9h5.1v-4.2h-3.1V13.9z"/>
	<path class="st0" d="M11.8,12.9L11.8,12.9c0.4,0,0.8-0.3,1-0.7c0.2-0.6,0-1.2-0.6-1.5l-4.7-2C6.9,8.5,6.3,8.7,6,9.3s0,1.2,0.6,1.5
		l4.7,2C11.5,12.9,11.6,12.9,11.8,12.9z"/>
	<path class="st0" d="M13.9,8.6c0.2,0.2,0.5,0.3,0.8,0.3V9c0.3,0,0.6-0.1,0.8-0.3c0.4-0.4,0.5-1.1,0-1.6L12,3.4
		c-0.4-0.5-1.1-0.5-1.6,0c-0.5,0.4-0.5,1.1,0,1.6L13.9,8.6z"/>
	<path class="st0" d="M18.2,5.8c0.1,0.5,0.6,0.9,1.1,0.9h0.2c0.6-0.1,1-0.7,0.9-1.3l-0.9-4.5c0-0.1,0-0.1,0-0.2
		c-0.2-0.6-0.8-0.9-1.4-0.8c-0.6,0.2-0.9,0.8-0.8,1.4L18.2,5.8z"/>
	<path class="st0" d="M37.9,9.3c-0.2-0.6-0.9-0.8-1.5-0.6l-4.7,2c-0.4,0.2-0.7,0.6-0.7,1c0,0.6,0.5,1.1,1.1,1.1c0.1,0,0.3,0,0.4-0.1
		l4.7-2C37.9,10.6,38.2,9.9,37.9,9.3z"/>
	<path class="st0" d="M29.3,8.9c0.3,0,0.6-0.1,0.8-0.3l3.6-3.8c0.4-0.5,0.4-1.2,0-1.6c-0.5-0.4-1.2-0.4-1.6,0L28.6,7
		c-0.2,0.2-0.3,0.5-0.3,0.8C28.1,8.4,28.6,8.9,29.3,8.9z"/>
	<path class="st0" d="M24.4,6.7h0.2c0.5,0,1-0.4,1.1-0.9l0.9-4.4c0.1-0.6-0.3-1.1-0.8-1.2C25.2,0,24.6,0.4,24.4,1l-0.9,4.4
		C23.4,6,23.8,6.6,24.4,6.7z"/>
</g>
<path class="st0" d="M35,49h-3.2V35.3H35V49z"/>
<path class="st0" d="M49.7,49h-3.6L44,43.4h-2.3V49h-3.2V35.3l6.5,0c1.5,0,2.6,0.4,3.4,1.2c0.8,0.7,1.1,1.7,1.1,2.9
	c0,0.8-0.2,1.6-0.6,2.2c-0.4,0.6-1,1.1-1.8,1.5L49.7,49z M46.2,39.4c0-0.6-0.2-1-0.6-1.3c-0.4-0.3-0.9-0.5-1.6-0.5h-2.3v3.6h2.5
	c0.6,0,1.1-0.2,1.5-0.5C46,40.4,46.2,39.9,46.2,39.4z"/>
</svg>
