<?xml version="1.0" encoding="utf-8"?>
<!-- Generator: Adobe Illustrator 22.1.0, SVG Export Plug-In . SVG Version: 6.00 Build 0)  -->
<svg version="1.1" id="Layer_1" xmlns="http://www.w3.org/2000/svg" xmlns:xlink="http://www.w3.org/1999/xlink" x="0px" y="0px"
	 viewBox="0 0 53.4 53.4" style="enable-background:new 0 0 53.4 53.4;" xml:space="preserve">
<style type="text/css">
	.st0{fill:#FFFFFF;}
</style>
<title>ledlighting</title>
<g>
	<path class="st0" d="M34.6,14.2L34.6,14.2c-0.4-3.2-3.8-5.6-7.9-5.6s-7.5,2.5-7.9,5.6h0v14.3h-3.7v4.3h6.5v20.7h3.6V32.8h4.1v14.3
		h3.3V32.8h5.2v-4.3h-3.2V14.2z"/>
	<path class="st0" d="M16.2,13.1c0.4,0,0.9-0.3,1-0.7c0.2-0.6,0-1.2-0.6-1.5l-4.8-2c-0.6-0.2-1.2,0-1.5,0.6c-0.2,0.6,0,1.2,0.6,1.5
		l4.8,2C15.9,13.1,16.1,13.1,16.2,13.1z"/>
	<path class="st0" d="M18.4,8.8c0.2,0.2,0.5,0.3,0.8,0.3c0.3,0,0.6-0.1,0.8-0.3c0.4-0.4,0.5-1.1,0-1.6l-3.7-3.9
		c-0.4-0.4-1.1-0.5-1.6,0c-0.4,0.4-0.5,1.1,0,1.6L18.4,8.8z"/>
	<path class="st0" d="M22.9,5.9C23,6.5,23.4,6.8,24,6.8c0.1,0,0.1,0,0.2,0c0.6-0.1,1-0.7,0.9-1.3l-0.9-4.6c-0.1-0.6-0.7-1-1.3-0.9
		c-0.6,0.1-1,0.7-0.9,1.3L22.9,5.9z"/>
	<path class="st0" d="M43.1,9.6C42.9,9,42.2,8.7,41.7,9l-4.8,2c-0.6,0.2-0.8,0.9-0.6,1.5c0.2,0.4,0.6,0.7,1,0.7c0.1,0,0.3,0,0.4-0.1
		l4.8-2C43.1,10.8,43.4,10.2,43.1,9.6z"/>
	<path class="st0" d="M34.2,9.1c0.3,0,0.6-0.1,0.8-0.4l3.6-3.9c0.4-0.4,0.4-1.2,0-1.6c-0.4-0.4-1.2-0.4-1.6,0l-3.6,3.9
		c-0.4,0.4-0.4,1.2,0,1.6C33.7,9,33.9,9.1,34.2,9.1z"/>
	<path class="st0" d="M29.3,6.8c0.1,0,0.2,0,0.2,0c0.5,0,1-0.4,1.1-0.9l0.9-4.6c0.1-0.6-0.3-1.2-0.9-1.3c-0.6-0.1-1.2,0.3-1.3,0.9
		l-0.9,4.6C28.3,6.1,28.6,6.7,29.3,6.8z"/>
</g>
</svg>
