<?xml version="1.0" encoding="utf-8"?>
<!-- Generator: Adobe Illustrator 22.1.0, SVG Export Plug-In . SVG Version: 6.00 Build 0)  -->
<svg version="1.1" id="Layer_1" xmlns="http://www.w3.org/2000/svg" xmlns:xlink="http://www.w3.org/1999/xlink" x="0px" y="0px"
	 viewBox="0 0 43 43" style="enable-background:new 0 0 43 43;" xml:space="preserve">
<style type="text/css">
	.st0{fill:#FFFFFF;}
</style>
<title>mcu</title>
<path class="st0" d="M10.1,0.3h0.3c0.6,0,1.1,0.5,1.1,1.1v2.2c0,0.6-0.5,1.1-1.1,1.1h-0.3C9.5,4.6,9,4.1,9,3.6V1.3
	C9,0.8,9.5,0.3,10.1,0.3z"/>
<path class="st0" d="M15.8,0.3H16c0.6,0,1.1,0.5,1.1,1.1v2.2c0,0.6-0.5,1.1-1.1,1.1h-0.3c-0.6,0-1.1-0.5-1.1-1.1V1.3
	C14.7,0.8,15.2,0.3,15.8,0.3z"/>
<path class="st0" d="M21.4,0.3h0.3c0.6,0,1.1,0.5,1.1,1.1v2.2c0,0.6-0.5,1.1-1.1,1.1h-0.3c-0.6,0-1.1-0.5-1.1-1.1V1.3
	C20.3,0.8,20.8,0.3,21.4,0.3z"/>
<path class="st0" d="M27.3,0.3h0.3c0.6,0,1.1,0.5,1.1,1.1v2.2c0,0.6-0.5,1.1-1.1,1.1h-0.3c-0.6,0-1.1-0.5-1.1-1.1V1.3
	C26.2,0.8,26.7,0.3,27.3,0.3z"/>
<path class="st0" d="M32.9,0.3h0.3c0.6,0,1.1,0.5,1.1,1.1v2.2c0,0.6-0.5,1.1-1.1,1.1h-0.3c-0.6,0-1.1-0.5-1.1-1.1V1.3
	C31.9,0.8,32.3,0.3,32.9,0.3z"/>
<path class="st0" d="M0,33.3v-0.3C0,32.5,0.5,32,1.1,32h2.3c0.6,0,1.1,0.5,1.1,1.1v0.3c0,0.6-0.5,1.1-1.1,1.1H1.1
	C0.5,34.4,0,33.9,0,33.3z"/>
<path class="st0" d="M0,27.7v-0.3c0-0.6,0.5-1.1,1.1-1.1h2.3c0.6,0,1.1,0.5,1.1,1.1v0.3c0,0.6-0.5,1.1-1.1,1.1H1.1
	C0.5,28.8,0,28.3,0,27.7z"/>
<path class="st0" d="M0,22v-0.3c0-0.6,0.5-1.1,1.1-1.1h2.3c0.6,0,1.1,0.5,1.1,1.1V22c0,0.6-0.5,1.1-1.1,1.1H1.1
	C0.5,23.1,0,22.6,0,22z"/>
<path class="st0" d="M0,16.2v-0.3c0-0.6,0.5-1.1,1.1-1.1h2.3c0.6,0,1.1,0.5,1.1,1.1v0.3c0,0.6-0.5,1.1-1.1,1.1H1.1
	C0.5,17.2,0,16.8,0,16.2z"/>
<path class="st0" d="M0,10.5v-0.3c0-0.6,0.5-1.1,1.1-1.1h2.3c0.6,0,1.1,0.5,1.1,1.1v0.3c0,0.6-0.5,1.1-1.1,1.1H1.1
	C0.5,11.6,0,11.1,0,10.5z"/>
<path class="st0" d="M10.1,38.3h0.3c0.6,0,1.1,0.5,1.1,1.1v2.3c0,0.6-0.5,1.1-1.1,1.1h-0.3c-0.6,0-1.1-0.5-1.1-1.1v-2.3
	C9,38.7,9.5,38.3,10.1,38.3z"/>
<path class="st0" d="M15.8,38.3H16c0.6,0,1.1,0.5,1.1,1.1v2.3c0,0.6-0.5,1.1-1.1,1.1h-0.3c-0.6,0-1.1-0.5-1.1-1.1v-2.3
	C14.7,38.7,15.2,38.3,15.8,38.3z"/>
<path class="st0" d="M21.4,38.3h0.3c0.6,0,1.1,0.5,1.1,1.1v2.3c0,0.6-0.5,1.1-1.1,1.1h-0.3c-0.6,0-1.1-0.5-1.1-1.1v-2.3
	C20.3,38.7,20.8,38.3,21.4,38.3z"/>
<path class="st0" d="M27.3,38.3h0.3c0.6,0,1.1,0.5,1.1,1.1v2.3c0,0.6-0.5,1.1-1.1,1.1h-0.3c-0.6,0-1.1-0.5-1.1-1.1v-2.3
	C26.2,38.7,26.7,38.3,27.3,38.3z"/>
<path class="st0" d="M32.9,38.3h0.3c0.6,0,1.1,0.5,1.1,1.1v2.3c0,0.6-0.5,1.1-1.1,1.1h-0.3c-0.6,0-1.1-0.5-1.1-1.1v-2.3
	C31.9,38.7,32.3,38.3,32.9,38.3z"/>
<path class="st0" d="M38.5,33.3v-0.3c0-0.6,0.5-1.1,1.1-1.1h2.3c0.6,0,1.1,0.5,1.1,1.1v0.3c0,0.6-0.5,1.1-1.1,1.1h-2.3
	C39,34.4,38.5,33.9,38.5,33.3z"/>
<path class="st0" d="M38.5,27.7v-0.3c0-0.6,0.5-1.1,1.1-1.1h2.3c0.6,0,1.1,0.5,1.1,1.1v0.3c0,0.6-0.5,1.1-1.1,1.1h-2.3
	C39,28.8,38.5,28.3,38.5,27.7z"/>
<path class="st0" d="M38.5,22v-0.3c0-0.6,0.5-1.1,1.1-1.1h2.3c0.6,0,1.1,0.5,1.1,1.1V22c0,0.6-0.5,1.1-1.1,1.1h-2.3
	C39,23.1,38.5,22.6,38.5,22z"/>
<path class="st0" d="M38.5,16.2v-0.3c0-0.6,0.5-1.1,1.1-1.1h2.3c0.6,0,1.1,0.5,1.1,1.1v0.3c0,0.6-0.5,1.1-1.1,1.1h-2.3
	C39,17.2,38.5,16.8,38.5,16.2z"/>
<path class="st0" d="M38.5,10.5v-0.3c0-0.6,0.5-1.1,1.1-1.1h2.3c0.6,0,1.1,0.5,1.1,1.1v0.3c0,0.6-0.5,1.1-1.1,1.1h-2.3
	C39,11.6,38.5,11.1,38.5,10.5z"/>
<path class="st0" d="M34.9,39.9H8.4c-2.8,0-5-2.2-5-5V8.4c0-2.8,2.2-5,5-5h26.5c2.8,0,5,2.2,5,5v26.5C39.9,37.6,37.7,39.9,34.9,39.9
	C34.9,39.9,34.9,39.9,34.9,39.9z M8.4,5.4c-1.7,0-3,1.3-3,3l0,0v26.5c0,1.7,1.3,3,3,3h26.5c1.7,0,3-1.3,3-3V8.4c0-1.7-1.3-3-3-3
	L8.4,5.4z"/>
<path class="st0" d="M12.4,26.1l-2.2-6.9v6.9H8.5v-8.4h3.2l1.5,5l1.6-5h3.2v8.4H16v-6.9l-2.2,6.9H12.4z"/>
<path class="st0" d="M26.9,20.8l-2.1,0.1c0-1.2-0.5-1.8-1.4-1.8c-1.1,0-1.6,0.9-1.6,2.8c-0.1,0.7,0.1,1.5,0.4,2.1
	c0.3,0.4,0.7,0.6,1.2,0.6c0.8,0,1.4-0.5,1.6-1.6l2,0.1c-0.1,0.9-0.5,1.7-1.2,2.3c-1.6,1.2-3.8,1-5.2-0.4c-0.8-0.9-1.2-2-1.1-3.2
	c0-1.1,0.3-2.2,1.1-3.1c0.7-0.8,1.8-1.3,2.9-1.2C25.5,17.5,26.7,18.6,26.9,20.8z"/>
<path class="st0" d="M35,17.6v5.2c0,0.6-0.1,1.3-0.3,1.9c-0.2,0.4-0.6,0.8-1.1,1c-1.3,0.5-2.8,0.5-4.1,0c-0.5-0.2-0.9-0.6-1.1-1
	c-0.3-0.6-0.4-1.3-0.4-1.9v-5.2h2.2v5.2c0,0.3,0,0.7,0.1,1c0.1,0.2,0.3,0.4,0.5,0.5c0.3,0.1,0.6,0.2,0.9,0.2c0.3,0,0.6-0.1,0.9-0.2
	c0.2-0.1,0.4-0.3,0.5-0.5c0.1-0.3,0.1-0.7,0.1-1v-5.2L35,17.6z"/>
</svg>
