<?xml version="1.0" encoding="utf-8"?>
<!-- Generator: Adobe Illustrator 22.1.0, SVG Export Plug-In . SVG Version: 6.00 Build 0)  -->
<svg version="1.1" id="Layer_1" xmlns="http://www.w3.org/2000/svg" xmlns:xlink="http://www.w3.org/1999/xlink" x="0px" y="0px"
	 viewBox="0 0 36.3 36.3" style="enable-background:new 0 0 36.3 36.3;" xml:space="preserve">
<style type="text/css">
	.st0{fill:#FFFFFF;}
</style>
<title>memory</title>
<path class="st0" d="M33.8,36.3H2.5c-0.7,0-1.3-0.6-1.3-1.3V12.3c0-0.3,0.1-0.6,0.3-0.8l8.9-11c0.2-0.3,0.6-0.5,1-0.5h22.4
	c0.7,0,1.3,0.6,1.3,1.3v33.7C35.2,35.7,34.6,36.3,33.8,36.3C33.9,36.3,33.9,36.3,33.8,36.3z M3.8,33.7h28.8V2.6H12L3.8,12.7V33.7z"
	/>
<path class="st0" d="M28.3,30.8H8.2c-0.7,0-1.3-0.6-1.3-1.3V19.4c0-0.7,0.6-1.3,1.3-1.3h20.1c0.7,0,1.3,0.6,1.3,1.3v10.1
	C29.6,30.2,29,30.8,28.3,30.8z M9.5,28.2H27v-7.5H9.5L9.5,28.2z"/>
<path class="st0" d="M15,8.6c-0.7,0-1.3-0.6-1.3-1.3V1.4c0-0.7,0.6-1.3,1.3-1.3c0.7,0,1.3,0.6,1.3,1.3c0,0,0,0,0,0v5.9
	C16.3,8,15.8,8.6,15,8.6z"/>
<path class="st0" d="M21.4,8.6c-0.7,0-1.3-0.6-1.3-1.3V1.4c0-0.7,0.6-1.3,1.3-1.3c0.7,0,1.3,0.6,1.3,1.3v5.9
	C22.7,8,22.1,8.6,21.4,8.6z"/>
<path class="st0" d="M28,8.6c-0.7,0-1.3-0.6-1.3-1.3V1.4c0-0.7,0.6-1.3,1.3-1.3c0.7,0,1.3,0.6,1.3,1.3v5.9C29.3,8,28.7,8.6,28,8.6z"
	/>
</svg>
