<?xml version="1.0" encoding="utf-8"?>
<!-- Generator: Adobe Illustrator 22.1.0, SVG Export Plug-In . SVG Version: 6.00 Build 0)  -->
<svg version="1.1" id="Layer_1" xmlns="http://www.w3.org/2000/svg" xmlns:xlink="http://www.w3.org/1999/xlink" x="0px" y="0px"
	 viewBox="0 0 48.4 48.4" style="enable-background:new 0 0 48.4 48.4;" xml:space="preserve">
<style type="text/css">
	.st0{fill:#FFFFFF;}
</style>
<title>motorcontrol</title>
<g>
	<path class="st0" d="M28.7,17.7c0.4-1.3,0.2-2.7,0.2-2.7c0.8-5.8,4.9-6.6,5.6-8.9C35,4.1,34.3,2.1,32.8,1c-2.7-1.9-5.6-0.6-7.1,0.7
		c-3,2.5-4.7,6.3-4.5,10.2c0.1,1.3,0.1,2.7,0.4,4c0.6-0.1,1.2-0.2,1.9-0.2C25.4,15.7,27.3,16.4,28.7,17.7z"/>
	<path class="st0" d="M43.6,13.3c-3.8-1.2-7.9-0.6-11.1,1.7c-1.2,0.8-2.6,1.8-3.6,3c1.5,1.5,2.5,3.5,2.5,5.8c0,0.3,0,0.5,0,0.7
		c1.4-0.3,2.7-1.3,2.7-1.3c5.3-2.4,8.2,0.6,10.5,0c1.9-0.6,3.2-2.3,3.3-4.2C48.2,15.7,45.6,13.9,43.6,13.3z"/>
	<path class="st0" d="M27.5,30.7c1.1,0.9,2.7,1.3,2.7,1.3c5.2,2.7,4.6,6.7,6.6,8.2c1.7,1.1,3.8,1,5.4-0.1c2.7-1.9,2.4-5.1,1.7-7
		c-1.4-3.7-4.4-6.5-8.2-7.6c-1.3-0.4-2.8-0.8-4.3-0.9C31.1,27.2,29.6,29.4,27.5,30.7z"/>
	<path class="st0" d="M19.6,30.9c-0.1,1.3,0.3,2.6,0.3,2.6c0.3,5.9-3.5,7.4-3.8,9.9c-0.1,2,1,3.8,2.8,4.6c3,1.3,5.6-0.5,6.8-2.1
		c2.5-3.1,3.4-7.2,2.4-11c-0.3-1.2-0.6-2.7-1.2-3.9c-1.1,0.5-2.3,0.8-3.6,0.8C22,31.8,20.7,31.5,19.6,30.9z"/>
	<path class="st0" d="M15.3,23.7c0,0,0-0.1,0-0.1c-1,0.5-1.7,1.2-1.7,1.2c-5,3-8.2,0.4-10.5,1.2c-1.8,0.8-2.9,2.6-2.8,4.6
		c0.2,3.2,3,4.7,5,5.1c3.9,0.8,7.9-0.3,10.8-2.9c0.9-0.8,1.8-1.6,2.6-2.5C16.7,28.9,15.3,26.5,15.3,23.7z"/>
	<path class="st0" d="M20.4,16.2c-1.1-0.8-2.6-1.2-2.6-1.2c-5.2-2.7-4.6-6.8-6.5-8.3c-1.6-1.1-3.8-1.1-5.4,0c-2.7,1.9-2.5,5-1.7,6.9
		c1.4,3.7,4.4,6.5,8.1,7.7c1,0.3,2.1,0.6,3.1,0.8C16,19.5,17.9,17.2,20.4,16.2z"/>
	<path class="st0" d="M29.5,23.7c0-3.4-2.7-6.1-6.1-6.1c-3.4,0-6.1,2.7-6.1,6.1s2.7,6.1,6.1,6.1C26.7,29.8,29.5,27.1,29.5,23.7z"/>
</g>
</svg>
