<?xml version="1.0" encoding="utf-8"?>
<!-- Generator: Adobe Illustrator 22.1.0, SVG Export Plug-In . SVG Version: 6.00 Build 0)  -->
<svg version="1.1" id="Layer_1" xmlns="http://www.w3.org/2000/svg" xmlns:xlink="http://www.w3.org/1999/xlink" x="0px" y="0px"
	 viewBox="0 0 41.7 41.7" style="enable-background:new 0 0 41.7 41.7;" xml:space="preserve">
<style type="text/css">
	.st0{fill:#FFFFFF;}
</style>
<title>networkingtelecom</title>
<g>
	<path class="st0" d="M39,26.6H2.7c-2.6,0-2.7,2.1-2.7,4.7C0,33.9,0.1,36,2.7,36H39c2.6,0,2.7-2.1,2.7-4.7h0
		C41.7,28.7,41.6,26.6,39,26.6z M38.5,30c0,1-0.8,1.8-1.8,1.8s-1.8-0.8-1.8-1.8s0.8-1.8,1.8-1.8S38.5,29,38.5,30z M32.4,30
		c0,1-0.8,1.8-1.8,1.8s-1.8-0.8-1.8-1.8s0.8-1.8,1.8-1.8S32.4,29,32.4,30z M4.8,33.9h-2v-5.2h2V33.9z M8.1,33.9h-2v-5.2h2V33.9z
		 M11.4,33.9h-2v-5.2h2V33.9z M14.7,33.9h-2v-5.2h2V33.9z M18,33.9h-2v-5.2h2V33.9z M21.3,33.9h-2v-5.2h2V33.9z"/>
	<path class="st0" d="M39,16.1H2.7c-2.6,0-2.7,2.1-2.7,4.7s0.1,4.7,2.7,4.7H39c2.6,0,2.7-2.1,2.7-4.7h0C41.7,18.2,41.6,16.1,39,16.1
		z M38.5,19.7c0,1-0.8,1.8-1.8,1.8s-1.8-0.8-1.8-1.8c0-1,0.8-1.8,1.8-1.8S38.5,18.7,38.5,19.7z M32.4,19.7c0,1-0.8,1.8-1.8,1.8
		s-1.8-0.8-1.8-1.8c0-1,0.8-1.8,1.8-1.8S32.4,18.7,32.4,19.7z M4.8,23.4h-2v-5.2h2V23.4z M8.1,23.4h-2v-5.2h2V23.4z M11.4,23.4h-2
		v-5.2h2V23.4z M14.7,23.4h-2v-5.2h2V23.4z M18,23.4h-2v-5.2h2V23.4z M21.3,23.4h-2v-5.2h2V23.4z"/>
	<path class="st0" d="M2.7,15.1H39c2.6,0,2.7-2.1,2.7-4.7h0c0-2.6-0.1-4.7-2.7-4.7H2.7C0.1,5.7,0,7.8,0,10.4S0.1,15.1,2.7,15.1z
		 M28.8,9.3c0-1,0.8-1.8,1.8-1.8s1.8,0.8,1.8,1.8s-0.8,1.8-1.8,1.8S28.8,10.3,28.8,9.3z M34.8,9.3c0-1,0.8-1.8,1.8-1.8
		s1.8,0.8,1.8,1.8s-0.8,1.8-1.8,1.8S34.8,10.3,34.8,9.3z M19.3,7.8h2V13h-2V7.8z M16,7.8h2V13h-2V7.8z M12.7,7.8h2V13h-2V7.8z
		 M9.4,7.8h2V13h-2V7.8z M6.1,7.8h2V13h-2V7.8z M2.8,7.8h2V13h-2V7.8z"/>
</g>
</svg>
