<?xml version="1.0" encoding="utf-8"?>
<!-- Generator: Adobe Illustrator 22.1.0, SVG Export Plug-In . SVG Version: 6.00 Build 0)  -->
<svg version="1.1" id="Layer_1" xmlns="http://www.w3.org/2000/svg" xmlns:xlink="http://www.w3.org/1999/xlink" x="0px" y="0px"
	 viewBox="0 0 48 48" style="enable-background:new 0 0 48 48;" xml:space="preserve">
<style type="text/css">
	.st0{fill:#FFFFFF;}
</style>
<title>pm</title>
<g>
	<path class="st0" d="M33.5,5.2h-2.4v-3c0,0,0,0,0,0C31.1,1,30,0,28.8,0h-9.5c0,0,0,0,0,0c-1.3,0-2.4,1-2.4,2.3v3h-2.4
		c-1.4,0-2.5,1.1-2.5,2.5v37.8c0,1.4,1.1,2.5,2.5,2.5h19c1.4,0,2.5-1.1,2.5-2.5V7.8C36,6.4,34.9,5.2,33.5,5.2z M19.9,2.9h8.2v2.2
		h-8.2V2.9z M33,45H15V8.2h18V45z"/>
	<polygon class="st0" points="21,40.9 29.6,24.8 25.1,24.8 27,12.8 18.4,28.9 22.9,28.9 	"/>
</g>
</svg>
