<?xml version="1.0" encoding="utf-8"?>
<!-- Generator: Adobe Illustrator 22.1.0, SVG Export Plug-In . SVG Version: 6.00 Build 0)  -->
<svg version="1.1" id="Layer_1" xmlns="http://www.w3.org/2000/svg" xmlns:xlink="http://www.w3.org/1999/xlink" x="0px" y="0px"
	 viewBox="0 0 39.5 39.5" style="enable-background:new 0 0 39.5 39.5;" xml:space="preserve">
<style type="text/css">
	.st0{fill:#FFFFFF;}
</style>
<title>powersupply</title>
<path class="st0" d="M10.5,38.3C9.7,38.4,9,37.8,9,37.1v-8.3c0.1-0.8,0.9-1.4,1.7-1.3c0.6,0.1,1.1,0.6,1.3,1.3v8.3
	C11.9,37.8,11.2,38.4,10.5,38.3z"/>
<path class="st0" d="M29.8,38.3c-0.8,0.1-1.4-0.5-1.5-1.3v-8.3c0.1-0.8,0.9-1.4,1.7-1.3c0.6,0.1,1.1,0.6,1.3,1.3v8.3
	C31.3,37.8,30.6,38.4,29.8,38.3z"/>
<path class="st0" d="M7,1.2h25.5c3.9,0,7,3.1,7,7v11.1c0,3.9-3.1,7-7,7H7c-3.9,0-7-3.1-7-7V8.2C0,4.3,3.1,1.2,7,1.2z"/>
</svg>
