<?xml version="1.0" encoding="utf-8"?>
<!-- Generator: Adobe Illustrator 22.1.0, SVG Export Plug-In . SVG Version: 6.00 Build 0)  -->
<svg version="1.1" id="Layer_1" xmlns="http://www.w3.org/2000/svg" xmlns:xlink="http://www.w3.org/1999/xlink" x="0px" y="0px"
	 viewBox="0 0 43 43" style="enable-background:new 0 0 43 43;" xml:space="preserve">
<style type="text/css">
	.st0{fill:#FFFFFF;}
</style>
<title>sensor</title>
<circle class="st0" cx="21.5" cy="10.7" r="5.2"/>
<path class="st0" d="M21.6,42.8c-11.4,0-19-6.8-21.1-9c-0.6-0.6-0.6-1.4,0-2s1.4-0.6,2,0c1.5,1.5,9.5,8.9,21.1,8
	c6.5-0.6,12.5-3.4,17.1-8c0.6-0.6,1.4-0.6,2,0c0.6,0.6,0.6,1.4,0,2c-5,5.1-11.7,8.3-18.9,8.9C23,42.8,22.3,42.8,21.6,42.8z"/>
<path class="st0" d="M21.5,36.4C15.3,36.3,9.3,33.8,5,29.3c-0.6-0.5-0.6-1.4-0.1-2s1.4-0.6,2-0.1L7,27.3c7.5,8,20.1,8.4,28.1,0.9
	c0.3-0.3,0.6-0.6,0.9-0.9c0.5-0.6,1.4-0.7,2-0.2s0.7,1.4,0.2,2l-0.1,0.1C33.8,33.8,27.8,36.4,21.5,36.4z"/>
<path class="st0" d="M21.9,30.1c-4.7,0-9.1-2-12.3-5.4c-0.6-0.5-0.6-1.4,0-2s1.4-0.6,2,0l0.1,0.1c5.2,5.7,14.1,6,19.7,0.8
	c0.3-0.2,0.5-0.5,0.8-0.8c0.5-0.6,1.4-0.7,2-0.2s0.7,1.4,0.2,2l-0.1,0.1C31,28.1,26.5,30,21.9,30.1z"/>
<path class="st0" d="M21.7,24.1c-3.2-0.1-6.3-1.5-8.3-4.1c-0.5-0.6-0.4-1.5,0.2-2c0.6-0.5,1.5-0.4,2,0.2c1.5,1.9,3.8,3,6.3,3
	c2.3-0.1,4.5-1.2,6-3c0.6-0.5,1.5-0.4,2,0.1c0.4,0.4,0.5,1.1,0.2,1.6c-2,2.5-5,3.9-8.1,4.1L21.7,24.1z"/>
<path class="st0" d="M21.6,42.8c-11.4,0-19-6.8-21.1-9c-0.6-0.6-0.6-1.4,0-2s1.4-0.6,2,0c1.5,1.5,9.5,8.9,21.1,8
	c6.5-0.6,12.5-3.4,17.1-8c0.6-0.6,1.4-0.6,2,0c0.6,0.6,0.6,1.4,0,2c-5,5.1-11.7,8.3-18.9,8.9C23,42.8,22.3,42.8,21.6,42.8z"/>
<path class="st0" d="M21.5,36.4C15.3,36.3,9.3,33.8,5,29.3c-0.6-0.5-0.6-1.4-0.1-2s1.4-0.6,2-0.1L7,27.3c7.5,8,20.1,8.4,28.1,0.9
	c0.3-0.3,0.6-0.6,0.9-0.9c0.5-0.6,1.4-0.7,2-0.2s0.7,1.4,0.2,2l-0.1,0.1C33.8,33.8,27.8,36.4,21.5,36.4z"/>
<path class="st0" d="M21.9,30.1c-4.7,0-9.1-2-12.3-5.4c-0.6-0.5-0.6-1.4,0-2s1.4-0.6,2,0l0.1,0.1c5.2,5.7,14.1,6,19.7,0.8
	c0.3-0.2,0.5-0.5,0.8-0.8c0.5-0.6,1.4-0.7,2-0.2s0.7,1.4,0.2,2l-0.1,0.1C31,28.1,26.5,30,21.9,30.1z"/>
<path class="st0" d="M21.7,24.1c-3.2-0.1-6.3-1.5-8.3-4.1c-0.5-0.6-0.4-1.5,0.2-2c0.6-0.5,1.5-0.4,2,0.2c1.5,1.9,3.8,3,6.3,3
	c2.3-0.1,4.5-1.2,6-3c0.6-0.5,1.5-0.4,2,0.1c0.4,0.4,0.5,1.1,0.2,1.6c-2,2.5-5,3.9-8.1,4.1L21.7,24.1z"/>
<path class="st0" d="M9,11.4h5.1c-0.5-4.1,2.5-7.8,6.5-8.3c4.1-0.5,7.8,2.5,8.3,6.5c0.1,0.6,0.1,1.2,0,1.7H34V4.1
	c-0.2-1.9-1.5-3.5-3.4-3.9H12.3c-0.9,0.2-1.7,0.7-2.3,1.4c-0.5,0.6-0.8,1.3-1,2V11.4z"/>
</svg>
