<?xml version="1.0" encoding="utf-8"?>
<!-- Generator: Adobe Illustrator 22.1.0, SVG Export Plug-In . SVG Version: 6.00 Build 0)  -->
<svg version="1.1" id="Layer_1" xmlns="http://www.w3.org/2000/svg" xmlns:xlink="http://www.w3.org/1999/xlink" x="0px" y="0px"
	 viewBox="0 0 52 52" style="enable-background:new 0 0 52 52;" xml:space="preserve">
<style type="text/css">
	.st0{fill:#FFFFFF;}
</style>
<title>video</title>
<g>
	<path class="st0" d="M0,27.1l5.1,0.3l4.8,11.4l-3.3,3.8L0,27.1z"/>
	<rect x="9.3" y="25.5" transform="matrix(0.9191 -0.3941 0.3941 0.9191 -11.7232 6.5942)" class="st0" width="1.8" height="12.6"/>
	<path class="st0" d="M12.1,21.2l22.4-9.6c1.5-0.6,3.2,0.1,3.9,1.5L43.1,24c0.6,1.5-0.1,3.2-1.5,3.9l-22.4,9.6
		c-1.5,0.6-3.2-0.1-3.9-1.5l-4.7-11C10,23.6,10.7,21.8,12.1,21.2z"/>
	<path class="st0" d="M28.4,35.1l4.5-1.9l1.1,1.7c0.9-0.2,1.8,0.2,2.5,0.8l10.8-2.4l1,4.8l-10.5,2.4c-0.9,2.1-3.3,3.1-5.4,2.2
		c-1.9-0.8-2.9-2.9-2.4-5L28.4,35.1z"/>
	<path class="st0" d="M51.4,22.9c-0.4,0.2-0.8,0-1-0.3c-0.1-0.1-0.1-0.3-0.1-0.5c0.9-4.7-1.3-9.4-5.4-11.7c-0.4-0.2-0.5-0.7-0.3-1
		s0.7-0.5,1-0.3l0,0c4.7,2.7,7.2,8,6.2,13.3C51.7,22.6,51.6,22.8,51.4,22.9z"/>
	<path class="st0" d="M48.6,21.9c-0.4,0.2-0.8,0-1-0.3c-0.1-0.1-0.1-0.3-0.1-0.5c0.3-1.7,0-3.5-0.8-5.1c-0.7-1.3-1.7-2.4-2.9-3.2
		c-0.4-0.2-0.5-0.7-0.2-1c0.2-0.4,0.7-0.5,1-0.2c1.5,0.9,2.7,2.2,3.5,3.8c0.9,1.9,1.3,4,0.9,6C49,21.6,48.9,21.8,48.6,21.9z"/>
	<path class="st0" d="M46,21.1c-0.4,0.2-0.8,0-1-0.3c-0.1-0.1-0.1-0.3-0.1-0.4c0.1-1.9-0.7-3.8-2.2-5c-0.3-0.3-0.4-0.7-0.1-1.1
		c0.3-0.3,0.7-0.3,1.1-0.1c1.9,1.5,2.9,3.8,2.8,6.2C46.4,20.8,46.2,21,46,21.1z"/>
</g>
</svg>
