<?xml version="1.0" encoding="utf-8"?>
<!-- Generator: Adobe Illustrator 22.1.0, SVG Export Plug-In . SVG Version: 6.00 Build 0)  -->
<svg version="1.1" id="Layer_1" xmlns="http://www.w3.org/2000/svg" xmlns:xlink="http://www.w3.org/1999/xlink" x="0px" y="0px"
	 viewBox="0 0 43.1 43.1" style="enable-background:new 0 0 43.1 43.1;" xml:space="preserve">
<style type="text/css">
	.st0{fill:#FFFFFF;}
</style>
<title>whitegoods</title>
<g>
	<path class="st0" d="M11.5,7.3h20.2c4.9-0.1,4.9-0.1,4.9-1.2v-5c0-1.1,0-1.1-4.9-1.2H11.5C6.6,0.1,6.6,0.1,6.6,1.2v5
		C6.6,7.2,6.6,7.2,11.5,7.3z M32.2,1.4c1.2,0,2.2,1,2.2,2.2c0,1.2-1,2.2-2.2,2.2s-2.2-1-2.2-2.2C29.9,2.4,30.9,1.4,32.2,1.4z
		 M26.5,1.4c1.2,0,2.2,1,2.2,2.2c0,1.2-1,2.2-2.2,2.2c-1.2,0-2.2-1-2.2-2.2C24.3,2.4,25.3,1.4,26.5,1.4z M14.6,1.9H23v3.5h-8.5V1.9z
		 M8.8,1.8h4.8v3.8H8.8V1.8z"/>
	<path class="st0" d="M36.6,39.4V12.2c0.1-3.9,0.1-3.9-4.9-3.7H11.5c-5-0.2-5-0.2-4.9,3.7v27.2c-0.1,4,0.7,3.9,4.9,3.7h20.1
		C36.7,43.2,36.7,43.2,36.6,39.4z M21.6,36.1c-5.7,0-10.3-4.6-10.3-10.3c0-5.7,4.6-10.3,10.3-10.3c5.7,0,10.3,4.6,10.3,10.3
		C31.9,31.5,27.3,36.1,21.6,36.1z"/>
	<path class="st0" d="M30.8,3.7c0,0.7,0.6,1.3,1.3,1.3s1.3-0.6,1.3-1.3s-0.6-1.3-1.3-1.3S30.8,2.9,30.8,3.7z"/>
	<path class="st0" d="M25.2,3.7c0,0.7,0.6,1.3,1.3,1.3c0.7,0,1.3-0.6,1.3-1.3s-0.6-1.3-1.3-1.3C25.8,2.3,25.2,2.9,25.2,3.7z"/>
	<rect x="9.6" y="2.5" class="st0" width="3.3" height="2.3"/>
	<path class="st0" d="M21.6,17.3c-4.7,0-8.6,3.8-8.6,8.6c0,4.7,3.8,8.6,8.6,8.6s8.6-3.8,8.6-8.6C30.1,21.1,26.3,17.3,21.6,17.3z
		 M13.9,25.8c0-4.2,3.4-7.6,7.6-7.6s7.6,3.4,7.6,7.6c0,4.2-3.4,7.6-7.6,7.6S13.9,30,13.9,25.8z"/>
</g>
</svg>
