<?xml version="1.0" encoding="utf-8"?>
<!-- Generator: Adobe Illustrator 22.1.0, SVG Export Plug-In . SVG Version: 6.00 Build 0)  -->
<svg version="1.1" id="Layer_1" xmlns="http://www.w3.org/2000/svg" xmlns:xlink="http://www.w3.org/1999/xlink" x="0px" y="0px"
	 viewBox="0 0 44.2 44.2" style="enable-background:new 0 0 44.2 44.2;" xml:space="preserve">
<style type="text/css">
	.st0{fill:#FFFFFF;}
</style>
<title>wirelessiot</title>
<g>
	<path class="st0" d="M34.8,44.2h3.6L24.9,13.1c1.5-0.9,2.4-2.6,2.4-4.4c0-2.9-2.4-5.3-5.3-5.3s-5.3,2.4-5.3,5.3
		c0,1.9,1,3.6,2.5,4.5L5.8,44.2l3.7,0l2.8-7l21.5,4.5L34.8,44.2z M27.3,25.2l-8.6-3.9l6-2.6L27.3,25.2z M22,14c0.3,0,0.5,0,0.8-0.1
		l1.3,3.2l-4.8,2.4l2.2-5.6C21.7,14,21.8,14,22,14z M17.8,23.2l8.8,3.9l-12.3,4.7L17.8,23.2z M13.6,34.9l15-6.6l4,10.2L13.6,34.9z"
		/>
	<path class="st0" d="M10.2,13.3c-0.7-1.6-1.1-3.3-1.1-5c0-2.6,0.8-5.1,2.4-7.1L10.2,0C8.4,2.4,7.4,5.3,7.4,8.4
		c0,1.9,0.4,3.9,1.2,5.6C9.1,13.8,9.6,13.6,10.2,13.3z"/>
	<path class="st0" d="M11.8,12.5l0.9-0.5c-0.6-1.1-1-2.4-1-3.7c0-1.8,0.7-3.5,1.9-4.9l-0.8-0.8c-1.4,1.6-2.1,3.6-2.1,5.6
		C10.8,9.8,11.2,11.2,11.8,12.5z"/>
	<path class="st0" d="M15.1,10.7c-0.4-0.7-0.7-1.5-0.7-2.3c0-1.1,0.4-2.2,1.2-3l-0.5-0.5c-0.9,0.9-1.4,2.2-1.4,3.5
		c0,0.9,0.3,1.8,0.8,2.6L15.1,10.7z"/>
	<path class="st0" d="M34,13.3c0.5,0.2,1,0.5,1.5,0.7c0.8-1.8,1.2-3.7,1.2-5.6c0-3-1-6-2.8-8.4l-1.2,1.2c1.6,2,2.4,4.5,2.4,7.1
		C35.1,10.1,34.8,11.8,34,13.3z"/>
	<path class="st0" d="M31.5,12l0.9,0.5c0.7-1.3,1-2.7,1-4.2c0-2.1-0.7-4.1-2.1-5.6l-0.8,0.8c1.2,1.3,1.9,3.1,1.9,4.9
		C32.5,9.6,32.1,10.9,31.5,12z"/>
	<path class="st0" d="M29.1,10.7l0.5,0.3c0.5-0.8,0.7-1.7,0.8-2.6c0-1.3-0.5-2.5-1.4-3.5l-0.5,0.5c0.8,0.8,1.2,1.9,1.2,3
		C29.8,9.2,29.6,10,29.1,10.7z"/>
</g>
</svg>
