<?xml version="1.0" encoding="utf-8"?>
<!-- Generator: Adobe Illustrator 26.3.1, SVG Export Plug-In . SVG Version: 6.00 Build 0)  -->
<svg version="1.1" id="Layer_1" xmlns="http://www.w3.org/2000/svg" xmlns:xlink="http://www.w3.org/1999/xlink" x="0px" y="0px"
	 viewBox="0 0 128 128" style="enable-background:new 0 0 128 128;" xml:space="preserve">
<style type="text/css">
	.st0{fill:none;stroke:#000000;stroke-width:4;stroke-linecap:round;stroke-linejoin:round;}
</style>
<g>
	<path d="M52.6,87.1c-0.5,0-0.9-0.2-1.3-0.5c-0.7-0.7-0.7-1.8,0-2.5l24-24c0.7-0.7,1.8-0.7,2.5,0c0.7,0.7,0.7,1.8,0,2.5l-24,24
		C53.5,86.9,53.1,87.1,52.6,87.1z"/>
	<path d="M80.8,57.4c-1.5,0-2.9-0.6-3.9-1.6l-4.6-4.6c-1-1-1.6-2.4-1.6-3.9s0.6-2.9,1.6-3.9l2.7-2.7c1-1,2.4-1.6,3.9-1.6
		c1.5,0,2.9,0.6,3.9,1.6l4.6,4.6c1,1,1.6,2.4,1.6,3.9s-0.6,2.9-1.6,3.9l-2.7,2.7C83.6,56.8,82.3,57.4,80.8,57.4L80.8,57.4z
		 M74.8,45.8c-0.4,0.4-0.6,0.9-0.6,1.4s0.2,1,0.6,1.4l4.6,4.6c0.8,0.8,2.1,0.8,2.9,0l2.7-2.7c0.4-0.4,0.6-0.9,0.6-1.4
		s-0.2-1-0.6-1.4l-4.6-4.6c-0.8-0.8-2.1-0.8-2.9,0L74.8,45.8L74.8,45.8z"/>
	<path d="M40.8,89c-0.1,0-0.3,0-0.4-0.1c-0.9-0.2-1.5-1.1-1.3-2l1.9-11.8c0.1-0.4,0.2-0.7,0.5-1c0.1-0.1,24-24,24-24
		c0.7-0.7,1.8-0.7,2.5,0l9.5,9.5c0.7,0.7,0.7,1.8,0,2.5c-0.7,0.7-1.8,0.7-2.5,0l-8.3-8.3L45,75.6c-0.2,0.2-0.4,0.4-0.6,0.6l-1.4,8.8
		l9.4-1.5l0.6,3.5c0,0-11.1,1.8-11.8,1.9C41,89,40.9,89,40.8,89C40.8,89,40.8,89,40.8,89z"/>
</g>
<g>
	<path class="st0" d="M25.8,17h76.3c4.9,0,8.9,4,8.9,8.9v76.3c0,4.9-4,8.9-8.9,8.9H25.8c-4.9,0-8.9-4-8.9-8.9V25.8
		C17,20.9,20.9,17,25.8,17z"/>
	<path class="st0" d="M34.9,28.1h58.3c3.7,0,6.8,3,6.8,6.8v58.3c0,3.7-3,6.8-6.8,6.8H34.9c-3.7,0-6.8-3-6.8-6.8V34.9
		C28.1,31.1,31.1,28.1,34.9,28.1z"/>
	<line class="st0" x1="32.7" y1="5.1" x2="32.7" y2="17"/>
	<line class="st0" x1="48.3" y1="5.1" x2="48.3" y2="17"/>
	<line class="st0" x1="64" y1="5.1" x2="64" y2="17"/>
	<line class="st0" x1="79.7" y1="5.1" x2="79.7" y2="17"/>
	<line class="st0" x1="95.3" y1="5.1" x2="95.3" y2="17"/>
	<line class="st0" x1="32.7" y1="111" x2="32.7" y2="122.9"/>
	<line class="st0" x1="48.3" y1="111" x2="48.3" y2="122.9"/>
	<line class="st0" x1="64" y1="111" x2="64" y2="122.9"/>
	<line class="st0" x1="79.7" y1="111" x2="79.7" y2="122.9"/>
	<line class="st0" x1="95.3" y1="111" x2="95.3" y2="122.9"/>
	<line class="st0" x1="122.9" y1="32.7" x2="111" y2="32.7"/>
	<line class="st0" x1="122.9" y1="48.3" x2="111" y2="48.3"/>
	<line class="st0" x1="122.9" y1="64" x2="111" y2="64"/>
	<line class="st0" x1="122.9" y1="79.7" x2="111" y2="79.7"/>
	<line class="st0" x1="122.9" y1="95.3" x2="111" y2="95.3"/>
	<line class="st0" x1="17" y1="32.7" x2="5.1" y2="32.7"/>
	<line class="st0" x1="17" y1="48.3" x2="5.1" y2="48.3"/>
	<line class="st0" x1="17" y1="64" x2="5.1" y2="64"/>
	<line class="st0" x1="17" y1="79.7" x2="5.1" y2="79.7"/>
	<line class="st0" x1="17" y1="95.3" x2="5.1" y2="95.3"/>
</g>
</svg>
