<?xml version="1.0" encoding="utf-8"?>
<!-- Generator: Adobe Illustrator 26.3.1, SVG Export Plug-In . SVG Version: 6.00 Build 0)  -->
<svg version="1.1" id="Layer_1" xmlns="http://www.w3.org/2000/svg" xmlns:xlink="http://www.w3.org/1999/xlink" x="0px" y="0px"
	 viewBox="0 0 128 128" style="enable-background:new 0 0 128 128;" xml:space="preserve">
<style type="text/css">
	.st0{fill:none;stroke:#000000;stroke-width:4;stroke-linecap:round;stroke-linejoin:round;}
	.st1{fill:#FFFFFF;stroke:#000000;stroke-width:4;stroke-linecap:round;stroke-linejoin:round;}
</style>
<line class="st0" x1="77.6" y1="23.2" x2="53" y2="23.2"/>
<line class="st0" x1="77.6" y1="33.7" x2="53" y2="33.7"/>
<line class="st0" x1="77.6" y1="44.3" x2="53" y2="44.3"/>
<line class="st0" x1="77.6" y1="54.9" x2="53" y2="54.9"/>
<line class="st0" x1="77.6" y1="65.4" x2="53" y2="65.4"/>
<line class="st0" x1="77.6" y1="76" x2="53" y2="76"/>
<line class="st0" x1="77.6" y1="86.6" x2="53" y2="86.6"/>
<line class="st0" x1="77.6" y1="97.2" x2="53" y2="97.2"/>
<line class="st0" x1="77.6" y1="107.8" x2="53" y2="107.8"/>
<circle class="st1" cx="64" cy="64" r="62"/>
<line class="st0" x1="64" y1="21.9" x2="64" y2="15.1"/>
<line class="st0" x1="64" y1="112.9" x2="64" y2="106.1"/>
<line class="st0" x1="42.9" y1="27.5" x2="39.5" y2="21.6"/>
<line class="st0" x1="88.5" y1="106.4" x2="85.1" y2="100.5"/>
<line class="st0" x1="27.5" y1="42.9" x2="21.6" y2="39.5"/>
<line class="st0" x1="106.4" y1="88.5" x2="100.5" y2="85.1"/>
<line class="st0" x1="21.9" y1="64" x2="15.1" y2="64"/>
<line class="st0" x1="112.9" y1="64" x2="106.1" y2="64"/>
<line class="st0" x1="27.5" y1="85.1" x2="21.6" y2="88.5"/>
<line class="st0" x1="106.4" y1="39.5" x2="100.5" y2="42.9"/>
<line class="st0" x1="42.9" y1="100.5" x2="39.5" y2="106.4"/>
<line class="st0" x1="88.5" y1="21.6" x2="85.1" y2="27.5"/>
<polyline class="st0" points="64,35.6 64,64 44.3,64 "/>
</svg>
