<?xml version="1.0" encoding="utf-8"?>
<!-- Generator: Adobe Illustrator 26.3.1, SVG Export Plug-In . SVG Version: 6.00 Build 0)  -->
<svg version="1.1" id="Layer_1" xmlns="http://www.w3.org/2000/svg" xmlns:xlink="http://www.w3.org/1999/xlink" x="0px" y="0px"
	 viewBox="0 0 128 128" style="enable-background:new 0 0 128 128;" xml:space="preserve">
<style type="text/css">
	.st0{fill:none;stroke:#000000;stroke-width:4;stroke-linecap:round;stroke-linejoin:round;}
</style>
<path class="st0" d="M10.6,38.4c-3.9,0-7-3.2-6.9-7.1c0-2.3,1.1-4.4,3-5.7c34.7-23.3,80-23.3,114.7,0c3.4,1.9,4.5,6.2,2.6,9.6
	s-6.2,4.5-9.6,2.6c-0.3-0.2-0.6-0.4-0.9-0.6c-30-20-69-20-99,0C13.4,38,12,38.4,10.6,38.4z"/>
<path class="st0" d="M99.8,64.5c-1.4,0-2.8-0.4-3.9-1.2c-19.3-12.9-44.5-12.9-63.9,0c-3.3,1.9-7.6,0.8-9.6-2.6c-1.7-3-1-6.9,1.7-9
	C36,43.8,49.8,39.5,64,39.6l0,0c14.2,0,28,4.2,39.8,12.1c3.2,2.2,4,6.5,1.8,9.7C104.3,63.3,102.1,64.5,99.8,64.5z"/>
<path class="st0" d="M45.8,90.5c-3.9,0-7-3.2-7-7c0-2.3,1.1-4.4,3-5.7c13.4-9,30.9-9,44.3,0c3.1,2.4,3.6,6.8,1.2,9.8
	c-2.2,2.8-6,3.5-9.1,1.7c-8.7-5.8-20-5.8-28.7,0C48.5,90.1,47.2,90.5,45.8,90.5z"/>
<circle class="st0" cx="64" cy="110.5" r="9.3"/>
</svg>
