<?xml version="1.0" encoding="utf-8"?>
<!-- Generator: Adobe Illustrator 26.3.1, SVG Export Plug-In . SVG Version: 6.00 Build 0)  -->
<svg version="1.1" id="Layer_1" xmlns="http://www.w3.org/2000/svg" xmlns:xlink="http://www.w3.org/1999/xlink" x="0px" y="0px"
	 viewBox="0 0 128 128" style="enable-background:new 0 0 128 128;" xml:space="preserve">
<style type="text/css">
	.st0{fill:none;stroke:#000000;stroke-width:4;stroke-linecap:round;stroke-linejoin:round;}
	.st1{fill:none;stroke:#000000;stroke-width:3;stroke-linecap:round;stroke-linejoin:round;}
</style>
<g>
	<line class="st0" x1="42.8" y1="7.5" x2="42.8" y2="18.4"/>
	<line class="st0" x1="56.9" y1="7.5" x2="56.9" y2="18.4"/>
	<line class="st0" x1="71.1" y1="7.5" x2="71.1" y2="18.4"/>
	<line class="st0" x1="85.2" y1="7.5" x2="85.2" y2="18.4"/>
</g>
<g>
	<line class="st0" x1="42.8" y1="109.6" x2="42.8" y2="120.5"/>
	<line class="st0" x1="56.9" y1="109.6" x2="56.9" y2="120.5"/>
	<line class="st0" x1="71.1" y1="109.6" x2="71.1" y2="120.5"/>
	<line class="st0" x1="85.2" y1="109.6" x2="85.2" y2="120.5"/>
</g>
<g>
	<line class="st0" x1="104.3" y1="71.1" x2="93.4" y2="71.1"/>
	<line class="st0" x1="104.3" y1="56.9" x2="93.4" y2="56.9"/>
	<line class="st0" x1="104.3" y1="42.8" x2="93.4" y2="42.8"/>
	<line class="st0" x1="104.3" y1="28.6" x2="93.4" y2="28.6"/>
	<line class="st0" x1="104.3" y1="85.2" x2="93.4" y2="85.2"/>
	<line class="st0" x1="104.3" y1="99.4" x2="93.4" y2="99.4"/>
</g>
<g>
	<line class="st0" x1="34.6" y1="71.1" x2="23.7" y2="71.1"/>
	<line class="st0" x1="34.6" y1="56.9" x2="23.7" y2="56.9"/>
	<line class="st0" x1="34.6" y1="42.8" x2="23.7" y2="42.8"/>
	<line class="st0" x1="34.6" y1="28.6" x2="23.7" y2="28.6"/>
	<line class="st0" x1="34.6" y1="85.2" x2="23.7" y2="85.2"/>
	<line class="st0" x1="34.6" y1="99.4" x2="23.7" y2="99.4"/>
</g>
<path class="st0" d="M42.4,18.6h43.2c3.8,0,6.8,3.1,6.8,6.8v77.1c0,3.8-3.1,6.8-6.8,6.8H42.4c-3.8,0-6.8-3.1-6.8-6.8V25.5
	C35.6,21.7,38.6,18.6,42.4,18.6z"/>
<path class="st1" d="M82,35.2v57.5c0,2.3-1.9,4.1-4.1,4.1H50.1c-2.3,0-4.1-1.9-4.1-4.1V35.2c0-2.3,1.9-4.1,4.1-4.1h27.7
	C80.1,31.1,82,33,82,35.2z"/>
</svg>
