<?xml version="1.0" encoding="utf-8"?>
<!-- Generator: Adobe Illustrator 26.3.1, SVG Export Plug-In . SVG Version: 6.00 Build 0)  -->
<svg version="1.1" id="Layer_1" xmlns="http://www.w3.org/2000/svg" xmlns:xlink="http://www.w3.org/1999/xlink" x="0px" y="0px"
	 viewBox="0 0 128 128" style="enable-background:new 0 0 128 128;" xml:space="preserve">
<style type="text/css">
	.st0{fill:none;stroke:#000000;stroke-width:4;stroke-linecap:round;stroke-linejoin:round;}
</style>
<path class="st0" d="M64,126.5c36.7-5.5,58.2-53.3,58.2-103.1C98,23.3,79.4,15,64,1.5C48.6,15,30,23.2,5.8,23.4
	C5.8,73.2,27.3,121,64,126.5z"/>
<path class="st0" d="M18.6,34.6C35,33,50.8,27,64,17c13.2,10,28.8,16,45.4,17.6c-1.2,19-5.6,36.8-13.2,51
	C90.3,96.8,80,110.3,64,113.6c-16-3.2-26.3-16.9-32.2-27.9c-6.3-11.9-10.5-26.4-12.4-42L18.6,34.6L18.6,34.6z"/>
<path class="st0" d="M61.1,65.6l-12.9-7.2c0,0,17.5-17.4,21.6-21.3c3.2-3.1,5.9-0.5,4.8,1.9c-1.3,2.8-7.6,16.3-7.6,16.3l12.9,7.2
	c0,0-17.5,17.4-21.6,21.3c-3.2,3.1-5.9,0.5-4.8-1.9C54.8,79.1,61.1,65.6,61.1,65.6L61.1,65.6L61.1,65.6z"/>
</svg>
