<?xml version="1.0" encoding="utf-8"?>
<!-- Generator: Adobe Illustrator 26.3.1, SVG Export Plug-In . SVG Version: 6.00 Build 0)  -->
<svg version="1.1" id="Layer_1" xmlns="http://www.w3.org/2000/svg" xmlns:xlink="http://www.w3.org/1999/xlink" x="0px" y="0px"
	 viewBox="0 0 128 128" style="enable-background:new 0 0 128 128;" xml:space="preserve">
<style type="text/css">
	.st0{fill:none;stroke:#000000;stroke-width:4;stroke-linecap:round;stroke-linejoin:round;}
</style>
<path class="st0" d="M89,52.2c4,7.4,4,16.3,0,23.6"/>
<path class="st0" d="M39,52.2c-4,7.4-4,16.3,0,23.6"/>
<path class="st0" d="M116.6,92.7L116.6,92.7c9.8-17.9,9.8-39.5,0.1-57.4h-0.1"/>
<path class="st0" d="M11.4,92.7L11.4,92.7c-9.8-17.9-9.8-39.5-0.1-57.4h0.1"/>
<path class="st0" d="M102.8,43.8c6.9,12.6,6.9,27.9,0,40.5"/>
<path class="st0" d="M25.2,43.8c-6.9,12.6-6.9,27.9,0,40.5"/>
<circle class="st0" cx="64" cy="64" r="16.2"/>
<path class="st0" d="M63,53.2c6.5,0,11.8,5.3,11.8,11.8"/>
</svg>
