<?xml version="1.0" encoding="utf-8"?>
<!-- Generator: Adobe Illustrator 26.3.1, SVG Export Plug-In . SVG Version: 6.00 Build 0)  -->
<svg version="1.1" id="Layer_1" xmlns="http://www.w3.org/2000/svg" xmlns:xlink="http://www.w3.org/1999/xlink" x="0px" y="0px"
	 viewBox="0 0 128 128" style="enable-background:new 0 0 128 128;" xml:space="preserve">
<style type="text/css">
	.st0{fill:none;stroke:#000000;stroke-width:4;stroke-linecap:round;stroke-linejoin:round;}
</style>
<path class="st0" d="M122.9,73V55l-11-1.6c-1.2-5.6-3.5-11-6.6-15.9l6.7-8.9L99.3,16l-8.9,6.7c-4.9-3.1-10.2-5.4-15.9-6.6L73,5.1H55
	l-1.6,11c-5.6,1.2-11,3.5-15.9,6.6L28.7,16L16,28.7l6.7,8.9c-3.1,4.9-5.4,10.2-6.6,15.9L5.1,55v18l11,1.6c1.2,5.6,3.5,11,6.6,15.9
	L16,99.3L28.7,112l8.9-6.7c4.9,3.1,10.2,5.4,15.9,6.7l1.6,11h18l1.6-11c5.6-1.2,11-3.5,15.9-6.6l8.9,6.6L112,99.3l-6.7-8.9
	c3.1-4.9,5.4-10.2,6.7-15.9L122.9,73z"/>
<circle class="st0" cx="64" cy="64" r="34.4"/>
<path class="st0" d="M61.3,68.8l-12.1-6.8c0,0,16.4-16.3,20.2-19.9c3-2.9,5.5-0.5,4.4,1.7c-1.3,2.7-7.2,15.3-7.2,15.3l12.1,6.8
	c0,0-16.4,16.3-20.2,19.9c-3,2.9-5.5,0.5-4.5-1.7C55.4,81.5,61.3,68.8,61.3,68.8z"/>
</svg>
