<?xml version="1.0" encoding="utf-8"?>
<!-- Generator: Adobe Illustrator 26.3.1, SVG Export Plug-In . SVG Version: 6.00 Build 0)  -->
<svg version="1.1" id="Layer_1" xmlns="http://www.w3.org/2000/svg" xmlns:xlink="http://www.w3.org/1999/xlink" x="0px" y="0px"
	 viewBox="0 0 128 128" style="enable-background:new 0 0 128 128;" xml:space="preserve">
<style type="text/css">
	.st0{fill:none;stroke:#000000;stroke-width:4;stroke-linecap:round;stroke-linejoin:round;}
	.st1{fill:none;stroke:#000000;stroke-width:3;stroke-linecap:round;stroke-linejoin:round;}
</style>
<path class="st0" d="M48.8,47.6h30.4c0.7,0,1.2,0.5,1.2,1.2v30.4c0,0.7-0.5,1.2-1.2,1.2H48.8c-0.7,0-1.2-0.5-1.2-1.2V48.8
	C47.6,48.1,48.1,47.6,48.8,47.6z"/>
<path class="st0" d="M48.8,88.1h30.4c0.7,0,1.2,0.5,1.2,1.2v30.4c0,0.7-0.5,1.2-1.2,1.2H48.8c-0.7,0-1.2-0.5-1.2-1.2V89.3
	C47.6,88.6,48.1,88.1,48.8,88.1z"/>
<path class="st0" d="M48.8,7.1h30.4c0.7,0,1.2,0.5,1.2,1.2v30.4c0,0.7-0.5,1.2-1.2,1.2H48.8c-0.7,0-1.2-0.5-1.2-1.2V8.3
	C47.6,7.6,48.1,7.1,48.8,7.1z"/>
<circle class="st0" cx="58.3" cy="23.5" r="2.4"/>
<circle class="st0" cx="69.7" cy="23.5" r="2.4"/>
<polygon class="st0" points="70.7,14.4 57.3,14.4 50,21.7 50,25.3 57.3,32.6 70.7,32.6 78,25.3 78,21.7 "/>
<polygon class="st0" points="76.2,69 71.2,69 71.2,71.9 66.9,71.9 66.9,74.7 61.1,74.7 61.1,71.9 56.8,71.9 56.8,69 51.8,69 
	51.8,53.3 76.2,53.3 "/>
<line class="st0" x1="56.8" y1="58.8" x2="56.8" y2="63.8"/>
<line class="st0" x1="64" y1="58.8" x2="64" y2="63.8"/>
<line class="st0" x1="71.2" y1="58.8" x2="71.2" y2="63.8"/>
<path class="st0" d="M56.2,100.1h15.5c2.4,0,4.4,2,4.4,4.4v0c0,2.4-2,4.4-4.4,4.4H56.2c-2.4,0-4.4-2-4.4-4.4v0
	C51.8,102.1,53.8,100.1,56.2,100.1z"/>
<line class="st1" x1="57.3" y1="104.5" x2="70.7" y2="104.5"/>
</svg>
