<?xml version="1.0" encoding="utf-8"?>
<!-- Generator: Adobe Illustrator 26.3.1, SVG Export Plug-In . SVG Version: 6.00 Build 0)  -->
<svg version="1.1" id="Layer_1" xmlns="http://www.w3.org/2000/svg" xmlns:xlink="http://www.w3.org/1999/xlink" x="0px" y="0px"
	 viewBox="0 0 128 128" style="enable-background:new 0 0 128 128;" xml:space="preserve">
<style type="text/css">
	.st0{fill:none;stroke:#000000;stroke-width:4;stroke-linecap:round;stroke-linejoin:round;}
</style>
<path class="st0" d="M25.8,17h76.3c4.9,0,8.9,4,8.9,8.9v76.3c0,4.9-4,8.9-8.9,8.9H25.8c-4.9,0-8.9-4-8.9-8.9V25.8
	C17,20.9,20.9,17,25.8,17z"/>
<path class="st0" d="M34.9,28.1h58.3c3.7,0,6.8,3,6.8,6.8v58.3c0,3.7-3,6.8-6.8,6.8H34.9c-3.7,0-6.8-3-6.8-6.8V34.9
	C28.1,31.1,31.1,28.1,34.9,28.1z"/>
<line class="st0" x1="32.7" y1="5.1" x2="32.7" y2="17"/>
<line class="st0" x1="48.3" y1="5.1" x2="48.3" y2="17"/>
<line class="st0" x1="64" y1="5.1" x2="64" y2="17"/>
<line class="st0" x1="79.7" y1="5.1" x2="79.7" y2="17"/>
<line class="st0" x1="95.3" y1="5.1" x2="95.3" y2="17"/>
<line class="st0" x1="32.7" y1="111" x2="32.7" y2="122.9"/>
<line class="st0" x1="48.3" y1="111" x2="48.3" y2="122.9"/>
<line class="st0" x1="64" y1="111" x2="64" y2="122.9"/>
<line class="st0" x1="79.7" y1="111" x2="79.7" y2="122.9"/>
<line class="st0" x1="95.3" y1="111" x2="95.3" y2="122.9"/>
<line class="st0" x1="122.9" y1="32.7" x2="111" y2="32.7"/>
<line class="st0" x1="122.9" y1="48.3" x2="111" y2="48.3"/>
<line class="st0" x1="122.9" y1="64" x2="111" y2="64"/>
<line class="st0" x1="122.9" y1="79.7" x2="111" y2="79.7"/>
<line class="st0" x1="122.9" y1="95.3" x2="111" y2="95.3"/>
<line class="st0" x1="17" y1="32.7" x2="5.1" y2="32.7"/>
<line class="st0" x1="17" y1="48.3" x2="5.1" y2="48.3"/>
<line class="st0" x1="17" y1="64" x2="5.1" y2="64"/>
<line class="st0" x1="17" y1="79.7" x2="5.1" y2="79.7"/>
<line class="st0" x1="17" y1="95.3" x2="5.1" y2="95.3"/>
</svg>
