<?xml version="1.0" encoding="UTF-8" standalone="no"?>
<!-- Generator: Adobe Illustrator 23.0.2, SVG Export Plug-In . SVG Version: 6.00 Build 0)  -->

<svg
   version="1.1"
   id="Layer_1"
   x="0px"
   y="0px"
   viewBox="0 0 800 800"
   style="enable-background:new 0 0 800 800;"
   xml:space="preserve"
   xmlns="http://www.w3.org/2000/svg"
   xmlns:svg="http://www.w3.org/2000/svg"><defs
   id="defs661" />
<style
   type="text/css"
   id="style2">
	.st0{fill:#FFFFFF;}
	.st1{fill:#F0F0F0;}
</style>
<rect
   class="st0"
   width="800"
   height="800"
   id="rect4" />
<path
   class="st1"
   d="M72.6,606.5c2,0,3.7-1.6,3.7-3.7c0-2-1.6-3.7-3.7-3.7c-1.6,0-3,1-3.5,2.4H45.3l-4.6-4.6H8.5  c-0.4-0.8-1.2-1.3-2.1-1.3c-1.3,0-2.4,1.1-2.4,2.4c0,1.3,1.1,2.4,2.4,2.4c0.8,0,1.6-0.4,2-1.1h31.3l4.6,4.6h24.8  C69.6,605.5,71,606.5,72.6,606.5z"
   id="path6" />
<path
   class="st1"
   d="M454.4,632.4c0-3.7-3-6.7-6.7-6.7s-6.7,3-6.7,6.7s3,6.7,6.7,6.7C451.5,639.2,454.4,636.2,454.4,632.4z   M442.6,632.4c0-2.8,2.2-5.1,5.1-5.1s5.1,2.3,5.1,5.1s-2.3,5.1-5.1,5.1S442.6,635.2,442.6,632.4z"
   id="path8" />
<path
   class="st1"
   d="M450.7,665.1c3.7,0,6.7-3,6.7-6.7s-3-6.7-6.7-6.7s-6.7,3-6.7,6.7C443.9,662,446.9,665.1,450.7,665.1z   M450.7,653.1c2.8,0,5.2,2.3,5.1,5.1c0,2.8-2.2,5.1-5.1,5.1c-2.8,0-5.1-2.2-5.1-5.1C445.6,655.4,447.8,653.1,450.7,653.1z"
   id="path10" />
<path
   class="st1"
   d="M498.2,661.8c3.7,0,6.7-3,6.7-6.7s-3-6.7-6.7-6.7s-6.7,3-6.7,6.7S494.5,661.8,498.2,661.8z M498.2,649.9  c2.9,0,5.1,2.4,5.1,5.1c0,2.8-2.3,5.1-5.1,5.1c-2.8,0-5.1-2.3-5.1-5.1S495.3,649.9,498.2,649.9z"
   id="path12" />
<path
   class="st1"
   d="M527.8,638.8c3.7,0,6.7-3,6.7-6.7s-3-6.7-6.7-6.7s-6.7,3-6.7,6.7S524.1,638.8,527.8,638.8z M527.8,627  c2.9,0,5.1,2.3,5.1,5.1s-2.3,5.1-5.1,5.1s-5.1-2.3-5.1-5.1S525,627,527.8,627z"
   id="path14" />
<path
   class="st1"
   d="M521.1,604c0,3.7,3,6.7,6.7,6.7s6.7-3,6.7-6.7s-3-6.7-6.7-6.7S521.1,600.3,521.1,604z M527.8,598.9  c2.9,0,5.2,2.3,5.1,5.1c0,2.8-2.3,5.1-5.1,5.1s-5.1-2.2-5.1-5.1C522.7,601.2,525,598.9,527.8,598.9z"
   id="path16" />
<path
   class="st1"
   d="M585.1,581.6c-3.7,0-6.7,3-6.7,6.7s3,6.7,6.7,6.7s6.8-3,6.7-6.7C591.9,584.6,588.8,581.6,585.1,581.6z   M585.1,593.4c-2.8,0-5.1-2.2-5.1-5.1c0-2.8,2.2-5.1,5.1-5.1c2.9,0,5.1,2.4,5.1,5.1C590.2,591.1,587.9,593.4,585.1,593.4z"
   id="path18" />
<path
   class="st1"
   d="M585.1,616.8c-3.7,0-6.7,3-6.7,6.7s3,6.7,6.7,6.7s6.7-3,6.7-6.7S588.8,616.8,585.1,616.8z M585.1,628.6  c-2.8,0-5.1-2.2-5.1-5.1c0-2.8,2.2-5.1,5.1-5.1c2.9,0,5.1,2.3,5.1,5.1S587.9,628.6,585.1,628.6z"
   id="path20" />
<path
   class="st1"
   d="M585.1,638.4c-3.7,0-6.7,3-6.7,6.7s3,6.7,6.7,6.7s6.7-3,6.7-6.7C591.9,641.4,588.8,638.4,585.1,638.4z   M585.1,650.2c-2.8,0-5.1-2.2-5.1-5.1c0-2.8,2.2-5.1,5.1-5.1c2.9,0,5.1,2.3,5.1,5.1S587.9,650.2,585.1,650.2z"
   id="path22" />
<path
   class="st1"
   d="M625.6,651.9c3.7,0,6.7-3.1,6.7-6.7c0-3.7-3-6.7-6.7-6.7s-6.7,3-6.7,6.7C618.9,648.8,621.9,651.9,625.6,651.9z   M625.6,639.9c2.8,0,5.2,2.3,5.1,5.1c0,2.8-2.3,5.1-5.1,5.1s-5.1-2.2-5.1-5.1C620.5,642.2,622.8,639.9,625.6,639.9z"
   id="path24" />
<path
   class="st1"
   d="M625.6,627c3.7,0,6.7-3.1,6.7-6.7c0-3.7-3-6.7-6.7-6.7s-6.7,3-6.7,6.7C618.9,624,621.9,627,625.6,627z   M625.6,615.1c2.8,0,5.2,2.4,5.1,5.1c0,2.8-2.3,5.1-5.1,5.1s-5.1-2.2-5.1-5.1C620.5,617.4,622.8,615.1,625.6,615.1z"
   id="path26" />
<path
   class="st1"
   d="M625.6,597.3c3.7,0,6.7-3,6.7-6.7s-3-6.7-6.7-6.7s-6.7,3-6.7,6.7C618.9,594.3,621.9,597.3,625.6,597.3z   M625.6,585.4c2.8,0,5.2,2.2,5.1,5.1c0,2.8-2.3,5.1-5.1,5.1s-5.1-2.2-5.1-5.1C620.5,587.7,622.8,585.4,625.6,585.4z"
   id="path28" />
<path
   class="st1"
   d="M625.6,573c3.7,0,6.7-3,6.7-6.7s-3-6.7-6.7-6.7s-6.7,3-6.7,6.7C618.9,570,621.9,573,625.6,573z M625.6,561.1  c2.8,0,5.1,2.4,5.1,5.1c0,2.8-2.3,5.1-5.1,5.1s-5.1-2.3-5.1-5.1S622.8,561.1,625.6,561.1z"
   id="path30" />
<path
   class="st1"
   d="M647.5,550c0-3.7-3-6.7-6.7-6.7s-6.7,3-6.7,6.7s3,6.7,6.7,6.7S647.5,553.7,647.5,550z M640.8,555.1  c-2.8,0-5.1-2.2-5.1-5.1c0-2.8,2.2-5.1,5.1-5.1c2.8,0,5.2,2.3,5.1,5.1C645.9,552.8,643.6,555.1,640.8,555.1z"
   id="path32" />
<path
   class="st1"
   d="M656.7,627.8c0-3.7-3-6.7-6.7-6.7s-6.7,3-6.7,6.7s3,6.7,6.7,6.7C653.7,634.6,656.7,631.5,656.7,627.8z   M649.9,632.8c-2.8,0-5.1-2.3-5.1-5.1s2.2-5.1,5.1-5.1c2.9,0,5.1,2.4,5.1,5.1C655,630.5,652.7,632.8,649.9,632.8z"
   id="path34" />
<path
   class="st1"
   d="M513.5,604c0-3.7-3-6.7-6.7-6.7s-6.7,3-6.7,6.7s3,6.7,6.7,6.7C510.6,610.8,513.5,607.7,513.5,604z M506.8,609.1  c-2.8,0-5.1-2.2-5.1-5.1c0-2.8,2.2-5.1,5.1-5.1s5.2,2.3,5.1,5.1C511.9,606.8,509.6,609.1,506.8,609.1z"
   id="path36" />
<path
   class="st1"
   d="M420.4,593c3.7,0,6.7-3,6.7-6.7s-3-6.7-6.7-6.7s-6.7,3-6.7,6.7C413.7,589.9,416.7,593,420.4,593z M420.4,581.1  c2.8,0,5.1,2.3,5.1,5.1s-2.3,5.1-5.1,5.1s-5.1-2.2-5.1-5.1C415.3,583.4,417.6,581.1,420.4,581.1z"
   id="path38" />
<path
   class="st1"
   d="M415.1,568.7c3.7,0,6.7-3,6.7-6.7s-3-6.7-6.7-6.7s-6.7,3-6.7,6.7S411.3,568.7,415.1,568.7z M415.1,556.8  c2.7,0,5.1,2.3,5.1,5.1s-2.3,5.1-5.1,5.1s-5.1-2.2-5.1-5.1S412.2,556.8,415.1,556.8z"
   id="path40" />
<path
   class="st1"
   d="M394.2,546.3c0-3.7-3-6.7-6.7-6.7s-6.7,3-6.7,6.7s3,6.7,6.7,6.7S394.2,550,394.2,546.3z M382.3,546.2  c0-2.8,2.2-5.1,5.1-5.1s5.1,2.3,5.1,5.1s-2.2,5.1-5.1,5.1C384.6,551.3,382.3,549,382.3,546.2z"
   id="path42" />
<path
   class="st1"
   d="M378.4,535.1c0-3.7-3-6.7-6.7-6.7s-6.7,3-6.7,6.7s3,6.7,6.7,6.7S378.4,538.8,378.4,535.1z M366.6,535  c0-2.8,2.2-5.1,5.1-5.1c2.8,0,5.2,2.3,5.1,5.1c0,2.8-2.2,5.1-5.1,5.1C368.9,540.1,366.6,537.9,366.6,535z"
   id="path44" />
<path
   class="st1"
   d="M372.9,564.1c3.7,0,6.7-3,6.7-6.7s-3-6.7-6.7-6.7s-6.7,3-6.7,6.7C366.2,561.1,369.2,564.1,372.9,564.1z   M372.9,552.2c2.8,0,5.1,2.4,5.1,5.1c0,2.8-2.2,5.1-5.1,5.1c-2.8,0-5.1-2.2-5.1-5.1C367.8,554.5,370,552.2,372.9,552.2z"
   id="path46" />
<path
   class="st1"
   d="M389.5,570.5c3.7,0,6.7-3,6.7-6.7s-3-6.7-6.7-6.7s-6.7,3-6.7,6.7S385.8,570.5,389.5,570.5z M389.5,558.7  c2.7,0,5.1,2.3,5.1,5.1s-2.2,5.1-5.1,5.1c-2.8,0-5.1-2.2-5.1-5.1S386.7,558.7,389.5,558.7z"
   id="path48" />
<path
   class="st1"
   d="M531.3,661.3c3.7,0,6.7-3.1,6.7-6.7c0-3.7-3-6.7-6.7-6.7s-6.7,3-6.7,6.7S527.5,661.3,531.3,661.3z M531.3,649.4  c2.9,0,5.2,2.4,5.1,5.1c0,2.8-2.2,5.1-5.1,5.1c-2.8,0-5.1-2.2-5.1-5.1C526.1,651.6,528.4,649.4,531.3,649.4z"
   id="path50" />
<path
   class="st1"
   d="M319.2,594.9c0-3.7-3-6.7-6.7-6.7s-6.7,3-6.7,6.7s3,6.7,6.7,6.7C316.1,601.6,319.2,598.6,319.2,594.9z   M307.3,594.8c0-2.8,2.2-5.1,5.1-5.1c2.8,0,5.1,2.4,5.1,5.1c0,2.8-2.2,5.1-5.1,5.1C309.6,599.9,307.3,597.7,307.3,594.8z"
   id="path52" />
<path
   class="st1"
   d="M317.5,645.1c0,3.7,3,6.7,6.7,6.7s6.7-3.1,6.7-6.7c0-3.7-3-6.7-6.7-6.7S317.5,641.4,317.5,645.1z M329.3,645.1  c0,2.8-2.2,5.1-5.1,5.1c-2.8,0-5.1-2.2-5.1-5.1c0-2.8,2.2-5.1,5.1-5.1C327,639.9,329.3,642.2,329.3,645.1z"
   id="path54" />
<path
   class="st1"
   d="M335.4,645.1c0,3.7,3,6.7,6.7,6.7c3.8,0,6.7-3,6.7-6.7s-3-6.7-6.7-6.7C338.4,638.4,335.4,641.4,335.4,645.1z   M347.2,645.1c0,2.8-2.2,5.1-5.1,5.1c-2.8,0-5.1-2.2-5.1-5.1c0-2.8,2.2-5.1,5.1-5.1S347.3,642.2,347.2,645.1z"
   id="path56" />
<path
   class="st1"
   d="M394,693.2c3.7,0,6.7-3,6.7-6.7s-3-6.7-6.7-6.7s-6.7,3-6.7,6.7S390.3,693.2,394,693.2z M394,681.4  c2.7,0,5.1,2.3,5.1,5.1s-2.3,5.1-5.1,5.1s-5.1-2.2-5.1-5.1C388.9,683.6,391.1,681.4,394,681.4z"
   id="path58" />
<path
   class="st1"
   d="M366.2,699.7c0,3.7,3,6.7,6.7,6.7s6.7-3,6.7-6.7s-3-6.7-6.7-6.7C369.2,692.9,366.2,696,366.2,699.7z M378,699.7  c0,2.8-2.2,5.1-5.1,5.1c-2.8,0-5.1-2.3-5.1-5.1s2.2-5.1,5.1-5.1C375.7,694.6,378,696.9,378,699.7z"
   id="path60" />
<path
   class="st1"
   d="M381.6,716c0,3.7,3,6.7,6.7,6.7s6.7-3,6.7-6.7s-3-6.7-6.7-6.7S381.6,712.3,381.6,716z M393.4,716  c0,2.8-2.3,5.1-5.1,5.1s-5.1-2.3-5.1-5.1s2.2-5.1,5.1-5.1C391.1,710.9,393.4,713.2,393.4,716z"
   id="path62" />
<path
   class="st1"
   d="M416.4,744.9c0,3.7,3,6.7,6.7,6.7s6.7-3,6.7-6.7s-3-6.7-6.7-6.7C419.4,738.1,416.4,741.2,416.4,744.9z   M428.2,744.8c0,2.8-2.3,5.1-5.1,5.1s-5.1-2.3-5.1-5.1s2.2-5.1,5.1-5.1S428.2,742.1,428.2,744.8z"
   id="path64" />
<path
   class="st1"
   d="M449.2,744c0,3.7,3,6.7,6.7,6.7c3.8,0,6.7-3,6.7-6.7s-3-6.7-6.7-6.7S449.2,740.3,449.2,744z M461,744  c0,2.8-2.2,5.1-5.1,5.1c-2.8,0-5.1-2.3-5.1-5.1s2.2-5.1,5.1-5.1C458.7,738.9,461,741.2,461,744z"
   id="path66" />
<path
   class="st1"
   d="M496.2,694.7c0,3.7,3,6.7,6.7,6.7s6.7-3,6.7-6.7s-3-6.7-6.7-6.7C499.2,687.9,496.2,691,496.2,694.7z M508,694.6  c0,2.8-2.3,5.1-5.1,5.1s-5.1-2.2-5.1-5.1c0-2.8,2.2-5.1,5.1-5.1C505.7,689.5,508.1,691.8,508,694.6z"
   id="path68" />
<path
   class="st1"
   d="M525.4,694.7c0,3.7,3,6.7,6.7,6.7s6.7-3,6.7-6.7s-3-6.7-6.7-6.7C528.4,687.9,525.4,691,525.4,694.7z   M537.2,694.6c0,2.8-2.3,5.1-5.1,5.1s-5.1-2.2-5.1-5.1c0-2.8,2.2-5.1,5.1-5.1C534.9,689.5,537.2,691.8,537.2,694.6z"
   id="path70" />
<path
   class="st1"
   d="M584.9,670.5c-3.7,0-6.7,3-6.7,6.7s3,6.7,6.7,6.7s6.7-3,6.7-6.7S588.6,670.5,584.9,670.5z M584.9,682.3  c-2.8,0-5.1-2.3-5.1-5.1s2.2-5.1,5.1-5.1c2.8,0,5.1,2.3,5.1,5.1S587.7,682.3,584.9,682.3z"
   id="path72" />
<path
   class="st1"
   d="M660.6,682.4c3.7,0,6.7-3.1,6.7-6.7c0-3.7-3-6.7-6.7-6.7s-6.7,3-6.7,6.7S656.9,682.4,660.6,682.4z M660.6,670.4  c2.7,0,5.1,2.4,5.1,5.1c0,2.8-2.3,5.1-5.1,5.1s-5.1-2.2-5.1-5.1C655.5,672.7,657.8,670.4,660.6,670.4z"
   id="path74" />
<path
   class="st1"
   d="M548.9,710.9c0,3.7,3,6.7,6.7,6.7s6.7-3,6.7-6.7s-3-6.7-6.7-6.7C551.9,704.1,548.9,707.1,548.9,710.9z   M560.7,710.8c0,2.8-2.3,5.1-5.1,5.1s-5.1-2.3-5.1-5.1s2.2-5.1,5.1-5.1C558.3,705.7,560.7,708,560.7,710.8z"
   id="path76" />
<path
   class="st1"
   d="M285.5,588.1c-3.7,0-6.7,3-6.7,6.7s3,6.7,6.7,6.7s6.7-3,6.7-6.7S289.2,588.1,285.5,588.1z M285.5,599.9  c-2.8,0-5.1-2.2-5.1-5.1c0-2.8,2.2-5.1,5.1-5.1c2.7,0,5.1,2.4,5.1,5.1C290.6,597.6,288.4,599.9,285.5,599.9z"
   id="path78" />
<path
   class="st1"
   d="M167.2,601.1c-3.7,0-6.7,3-6.7,6.7s3,6.7,6.7,6.7s6.7-3,6.7-6.7S170.9,601.1,167.2,601.1z M167.2,612.9  c-2.8,0-5.1-2.2-5.1-5.1c0-2.8,2.2-5.1,5.1-5.1c2.8,0,5.1,2.3,5.1,5.1C172.3,610.6,170.1,612.9,167.2,612.9z"
   id="path80" />
<path
   class="st1"
   d="M132.1,614.6c3.7,0,6.7-3,6.7-6.7s-3-6.7-6.7-6.7s-6.7,3-6.7,6.7C125.3,611.5,128.3,614.6,132.1,614.6z   M132.1,602.7c2.8,0,5.2,2.3,5.1,5.1c0,2.8-2.2,5.1-5.1,5.1c-2.8,0-5.1-2.2-5.1-5.1C127,605,129.2,602.7,132.1,602.7z"
   id="path82" />
<path
   class="st1"
   d="M125.3,589c0,3.7,3,6.7,6.7,6.7s6.7-3.1,6.7-6.7c0-3.7-3-6.7-6.7-6.7C128.3,582.2,125.3,585.2,125.3,589z   M132.1,583.8c2.8,0,5.1,2.3,5.1,5.1s-2.2,5.1-5.1,5.1c-2.8,0-5.1-2.3-5.1-5.1C127,586.1,129.2,583.8,132.1,583.8z"
   id="path84" />
<path
   class="st1"
   d="M118.8,589c0-3.7-3-6.7-6.7-6.7s-6.7,3-6.7,6.7s3,6.7,6.7,6.7S118.8,592.6,118.8,589z M107,588.9  c0-2.8,2.2-5.1,5.1-5.1c2.8,0,5.1,2.3,5.1,5.1s-2.2,5.1-5.1,5.1C109.3,594,107,591.7,107,588.9z"
   id="path86" />
<path
   class="st1"
   d="M93.7,581.6c0-3.7-3-6.7-6.7-6.7s-6.7,3-6.7,6.7s3,6.7,6.7,6.7S93.7,585.4,93.7,581.6z M81.9,581.6  c0-2.8,2.2-5.1,5.1-5.1c2.8,0,5.1,2.3,5.1,5.1s-2.2,5.1-5.1,5.1C84.1,586.7,81.9,584.4,81.9,581.6z"
   id="path88" />
<path
   class="st1"
   d="M112.1,451.4c-3.7,0-6.7,3-6.7,6.7s3,6.7,6.7,6.7s6.7-3,6.7-6.7C118.8,454.5,115.8,451.4,112.1,451.4z   M112.1,463.3c-2.8,0-5.1-2.2-5.1-5.1c0-2.8,2.2-5.1,5.1-5.1c2.8,0,5.1,2.3,5.1,5.1S115,463.3,112.1,463.3z"
   id="path90" />
<path
   class="st1"
   d="M137.9,569.8c3.8,0,6.8-3.1,6.7-6.7c0-3.7-3-6.7-6.7-6.7s-6.7,3-6.7,6.7S134.2,569.8,137.9,569.8z M137.9,557.9  c2.9,0,5.2,2.3,5.1,5.1c0,2.8-2.2,5.1-5.1,5.1c-2.8,0-5.1-2.2-5.1-5.1C132.8,560.2,135.1,557.9,137.9,557.9z"
   id="path92" />
<path
   class="st1"
   d="M65.4,680.7c0-3.7-3-6.7-6.7-6.7s-6.7,3-6.7,6.7s3,6.7,6.7,6.7C62.4,687.5,65.4,684.5,65.4,680.7z M53.5,680.7  c0-2.8,2.2-5.1,5.1-5.1c2.8,0,5.1,2.4,5.1,5.1c0,2.8-2.2,5.1-5.1,5.1C55.8,685.8,53.5,683.5,53.5,680.7z"
   id="path94" />
<path
   class="st1"
   d="M62.9,713.4c3.7,0,6.7-3,6.7-6.7s-3-6.7-6.7-6.7s-6.7,3-6.7,6.7C56.2,710.4,59.2,713.4,62.9,713.4z M62.9,701.5  c2.8,0,5.1,2.4,5.1,5.1c0,2.8-2.2,5.1-5.1,5.1c-2.8,0-5.1-2.2-5.1-5.1C57.8,703.8,60.1,701.5,62.9,701.5z"
   id="path96" />
<path
   class="st1"
   d="M50.3,458.2c0,3.7,3,6.7,6.7,6.7s6.7-3,6.7-6.7s-3-6.7-6.7-6.7C53.3,451.4,50.3,454.5,50.3,458.2z M62.2,458.2  c0,2.8-2.2,5.1-5.1,5.1c-2.8,0-5.1-2.2-5.1-5.1c0-2.8,2.2-5.1,5.1-5.1C59.8,453.1,62.2,455.4,62.2,458.2z"
   id="path98" />
<path
   class="st1"
   d="M68.1,458.2c0,3.7,3,6.7,6.7,6.7s6.7-3,6.7-6.7s-3-6.7-6.7-6.7S68.1,454.5,68.1,458.2z M80,458.2  c0,2.8-2.2,5.1-5.1,5.1c-2.8,0-5.1-2.2-5.1-5.1c0-2.8,2.2-5.1,5.1-5.1C77.6,453.1,80,455.4,80,458.2z"
   id="path100" />
<path
   class="st1"
   d="M87,458.2c0,3.7,3,6.7,6.7,6.7s6.7-3,6.7-6.7s-3-6.7-6.7-6.7C90,451.4,87,454.5,87,458.2z M98.8,458.2  c0,2.8-2.3,5.1-5.1,5.1c-2.8,0-5.1-2.2-5.1-5.1c0-2.8,2.2-5.1,5.1-5.1S98.9,455.4,98.8,458.2z"
   id="path102" />
<path
   class="st1"
   d="M112.6,419.8c-3.7,0-6.7,3-6.7,6.7s3,6.7,6.7,6.7s6.7-3,6.7-6.7C119.3,422.8,116.3,419.8,112.6,419.8z   M112.6,431.6c-2.8,0-5.1-2.3-5.1-5.1c0-2.8,2.2-5.1,5.1-5.1c2.8,0,5.1,2.3,5.1,5.1C117.7,429.3,115.5,431.6,112.6,431.6z"
   id="path104" />
<path
   class="st1"
   d="M112.6,401.9c-3.7,0-6.7,3-6.7,6.7s3,6.7,6.7,6.7s6.7-3,6.7-6.7C119.3,404.9,116.3,401.9,112.6,401.9z   M112.6,413.8c-2.8,0-5.1-2.2-5.1-5.1c0-2.8,2.2-5.1,5.1-5.1c2.8,0,5.1,2.3,5.1,5.1S115.5,413.8,112.6,413.8z"
   id="path106" />
<path
   class="st1"
   d="M87.4,408.7c0,3.7,3,6.7,6.7,6.7s6.7-3,6.7-6.7s-3-6.7-6.7-6.7S87.4,404.9,87.4,408.7z M99.3,408.7  c0,2.8-2.2,5.1-5.1,5.1c-2.8,0-5.1-2.2-5.1-5.1c0-2.8,2.2-5.1,5.1-5.1C97,403.6,99.4,405.9,99.3,408.7z"
   id="path108" />
<path
   class="st1"
   d="M3.7,401.5c0,3.7,3,6.7,6.7,6.7s6.7-3,6.7-6.7s-3-6.7-6.7-6.7S3.7,397.8,3.7,401.5z M15.6,401.5  c0,2.8-2.2,5.1-5.1,5.1c-2.8,0-5.1-2.2-5.1-5.1c0-2.8,2.2-5.1,5.1-5.1C13.3,396.4,15.6,398.6,15.6,401.5z"
   id="path110" />
<path
   class="st1"
   d="M26.4,410.1c0,3.7,3,6.7,6.7,6.7s6.7-3,6.7-6.7s-3-6.7-6.7-6.7S26.4,406.4,26.4,410.1z M38.3,410.1  c0,2.8-2.2,5.1-5.1,5.1c-2.8,0-5.1-2.2-5.1-5.1c0-2.8,2.2-5.1,5.1-5.1C36,405,38.3,407.3,38.3,410.1z"
   id="path112" />
<path
   class="st1"
   d="M56.3,435.2c3.7,0,6.7-3,6.7-6.7s-3-6.7-6.7-6.7s-6.7,3-6.7,6.7S52.6,435.2,56.3,435.2z M56.3,423.4  c2.9,0,5.1,2.3,5.1,5.1c0,2.8-2.2,5.1-5.1,5.1c-2.8,0-5.1-2.3-5.1-5.1C51.2,425.7,53.5,423.4,56.3,423.4z"
   id="path114" />
<path
   class="st1"
   d="M68.6,428.5c0,3.7,3,6.7,6.7,6.7s6.7-3,6.7-6.7s-3-6.7-6.7-6.7C71.6,421.7,68.6,424.8,68.6,428.5z M80.4,428.5  c0,2.8-2.2,5.1-5.1,5.1c-2.8,0-5.1-2.3-5.1-5.1c0-2.8,2.2-5.1,5.1-5.1C78.1,423.4,80.4,425.7,80.4,428.5z"
   id="path116" />
<path
   class="st1"
   d="M75.3,402.8c-3.7,0-6.7,3-6.7,6.7s3,6.7,6.7,6.7s6.7-3,6.7-6.7C82.1,405.8,79.1,402.8,75.3,402.8z M75.3,414.7  c-2.8,0-5.1-2.2-5.1-5.1c0-2.8,2.2-5.1,5.1-5.1c2.7,0,5.1,2.3,5.1,5.1S78.2,414.7,75.3,414.7z"
   id="path118" />
<path
   class="st1"
   d="M55.3,416.3c3.7,0,6.7-3,6.7-6.7s-3-6.7-6.7-6.7s-6.7,3-6.7,6.7S51.6,416.3,55.3,416.3z M55.3,404.5  c2.9,0,5.1,2.3,5.1,5.1s-2.2,5.1-5.1,5.1c-2.8,0-5.1-2.2-5.1-5.1C50.2,406.8,52.4,404.5,55.3,404.5z"
   id="path120" />
<path
   class="st1"
   d="M55.3,397.5c3.7,0,6.7-3,6.7-6.7s-3-6.7-6.7-6.7s-6.7,3-6.7,6.7S51.6,397.5,55.3,397.5z M55.3,385.6  c2.9,0,5.1,2.3,5.1,5.1c0,2.8-2.2,5.1-5.1,5.1c-2.8,0-5.1-2.3-5.1-5.1S52.4,385.6,55.3,385.6z"
   id="path122" />
<path
   class="st1"
   d="M42,390.7c0-3.7-3-6.7-6.7-6.7s-6.7,3-6.7,6.7s3,6.7,6.7,6.7C39.1,397.5,42,394.5,42,390.7z M35.3,395.8  c-2.8,0-5.1-2.3-5.1-5.1c0-2.8,2.2-5.1,5.1-5.1s5.1,2.3,5.1,5.1C40.4,393.5,38.2,395.8,35.3,395.8z"
   id="path124" />
<path
   class="st1"
   d="M186.1,614.6c3.7,0,6.7-3,6.7-6.7s-3-6.7-6.7-6.7s-6.7,3-6.7,6.7C179.3,611.5,182.3,614.6,186.1,614.6z   M186.1,602.7c2.8,0,5.2,2.3,5.1,5.1c0,2.8-2.3,5.1-5.1,5.1s-5.1-2.2-5.1-5.1C181,605,183.2,602.7,186.1,602.7z"
   id="path126" />
<path
   class="st1"
   d="M167.2,619.4c-3.7,0-6.7,3-6.7,6.7s3,6.7,6.7,6.7s6.7-3,6.7-6.7S170.9,619.4,167.2,619.4z M167.2,631.2  c-2.8,0-5.1-2.2-5.1-5.1c0-2.8,2.2-5.1,5.1-5.1c2.8,0,5.1,2.3,5.1,5.1C172.3,629,170.1,631.2,167.2,631.2z"
   id="path128" />
<path
   class="st1"
   d="M479.3,639.2c3.7,0,6.7-3,6.7-6.7s-3-6.7-6.7-6.7s-6.7,3-6.7,6.7C472.5,636.2,475.6,639.2,479.3,639.2z   M479.3,627.3c2.8,0,5.2,2.4,5.1,5.1c0,2.8-2.3,5.1-5.1,5.1s-5.1-2.2-5.1-5.1C474.2,629.5,476.4,627.3,479.3,627.3z"
   id="path130" />
<path
   class="st1"
   d="M510.4,632.4c0-3.7-3-6.7-6.7-6.7s-6.7,3-6.7,6.7s3,6.7,6.7,6.7S510.4,636.2,510.4,632.4z M503.6,637.5  c-2.8,0-5.1-2.2-5.1-5.1c0-2.8,2.2-5.1,5.1-5.1c2.8,0,5.1,2.4,5.1,5.1C508.7,635.2,506.4,637.5,503.6,637.5z"
   id="path132" />
<path
   class="st1"
   d="M26.6,681.3c0,3.7,3,6.7,6.7,6.7s6.7-3,6.7-6.7s-3-6.7-6.7-6.7S26.6,677.6,26.6,681.3z M38.5,681.2  c0,2.8-2.2,5.1-5.1,5.1c-2.8,0-5.1-2.3-5.1-5.1s2.2-5.1,5.1-5.1C36.2,676.1,38.5,678.4,38.5,681.2z"
   id="path134" />
<path
   class="st1"
   d="M15.6,580.3l3.3-3.3h28.5L61,563.4h48.2l17.7-17.6V540c1.2-0.6,2-1.8,2-3.3c0-2-1.6-3.7-3.7-3.7  c-2,0-3.7,1.6-3.7,3.7c0,1.4,0.8,2.7,2,3.3v4.4L107.8,560H59.7l-13.5,13.6H17.6l-3.3,3.3H8.6L0,585.6v4.6l9.9-9.9L15.6,580.3  L15.6,580.3z"
   id="path136" />
<path
   class="st1"
   d="M12.1,572.2l3.7-3.8h28.7l21.2-21.2h7.1c0.6,1.2,1.8,2.1,3.3,2.1c2,0,3.7-1.6,3.7-3.7c0-2-1.6-3.7-3.7-3.7  c-1.4,0-2.6,0.8-3.2,2h-8.5l-21.2,21.2H14.5l-3.8,3.8H0.2c-0.1-0.1-0.1-0.3-0.2-0.4v4c0.1-0.1,0.2-0.3,0.2-0.4h11.9  C12.1,572.1,12.1,572.2,12.1,572.2z"
   id="path138" />
<path
   class="st1"
   d="M95.3,540.7c1,1,2.5,1,3.5,0s1-2.5,0-3.5c-0.8-0.8-1.9-0.9-2.8-0.5l-2.7-2.7H66.4l-27.2,27.3H21.7l-3.2-3.3h-4  c-0.3-0.9-1.2-1.6-2.3-1.6c-1.3,0-2.4,1.1-2.4,2.4s1.1,2.4,2.4,2.4c1.1,0,2-0.7,2.3-1.7h3.3L21,563h18.8l27.3-27.3h25.5l2.2,2.2  C94.4,538.9,94.5,540,95.3,540.7z"
   id="path140" />
<path
   class="st1"
   d="M22.3,547.4c-1-1-2.8-1-3.9,0c-1,1-1,2.8,0,3.9c0.7,0.7,1.8,0.9,2.8,0.6l5,4.9H39l28.7-28.7h9.6  c0.4,0.9,1.4,1.6,2.5,1.6c1.5,0,2.7-1.2,2.7-2.7c0-1.6-1.2-2.7-2.7-2.7c-1.1,0-2,0.6-2.4,1.5H66.5l-28.6,28.7H27.1l-4.2-4.2  C23.2,549.2,23,548.1,22.3,547.4z"
   id="path142" />
<path
   class="st1"
   d="M38.1,543.4c-0.5-0.9-1.4-1.5-2.4-1.5c-1.5,0-2.7,1.2-2.7,2.7s1.2,2.7,2.7,2.7c1.1,0,2-0.6,2.5-1.6h2.9  l30.8-30.8h17.6l3.9,4c-0.3,0.9-0.1,2,0.6,2.8c1,1,2.8,1,3.9,0c1-1,1-2.8,0-3.9c-0.7-0.7-1.8-0.9-2.7-0.7l-4.6-4.6H70.8L40,543.4  H38.1z"
   id="path144" />
<path
   class="st1"
   d="M503.8,490.2c0.9,0.4,2,0.3,2.8-0.5c1-1,1-2.5,0-3.5s-2.5-1-3.5,0c-0.8,0.8-0.9,1.9-0.4,2.8l-8.9,8.8h-15.9  l-6.8,6.8v14.1l-2.4,2.4H425l-9.7,9.6c-0.3-0.2-0.7-0.3-1.2-0.3c-1.3,0-2.4,1.1-2.4,2.4c0,1.3,1.1,2.4,2.4,2.4s2.4-1.1,2.4-2.4  c0-0.3-0.1-0.6-0.2-0.9l9.2-9.2h43.7l3.3-3.3v-14.1l5.8-5.8h16L503.8,490.2z"
   id="path146" />
<path
   class="st1"
   d="M495.1,561.3l5-4.9v-10l1.3-1.3c0.9,0.4,2,0.3,2.8-0.5c1-1,1-2.5,0-3.5s-2.5-1-3.5,0c-0.8,0.8-0.9,1.9-0.5,2.8  l-1.8,1.8v9.9l-5,5v13.6l-20.3,20.3c-0.3-0.1-0.7-0.2-1-0.2c-1.3,0-2.4,1.1-2.4,2.4c0,1.3,1.1,2.4,2.4,2.4s2.4-1.1,2.4-2.4  c0-0.4-0.1-0.7-0.2-1.1l20.8-20.8L495.1,561.3L495.1,561.3z"
   id="path148" />
<path
   class="st1"
   d="M660.6,281.3c0.7-0.7,0.9-1.8,0.5-2.7l3.4-3.4h11.9l7.5,7.5h9.2l9.5-9.5c0.9,0.4,2,0.3,2.8-0.5  c0.9-0.9,0.9-2.5,0-3.4s-2.5-0.9-3.4,0c-0.7,0.7-0.9,1.8-0.5,2.7l-9.1,9.1h-7.9l-7.5-7.5h-13.2l-3.8,3.8c-0.9-0.4-2-0.3-2.7,0.5  c-0.9,0.9-0.9,2.5,0,3.4S659.6,282.2,660.6,281.3z"
   id="path150" />
<path
   class="st1"
   d="M665.1,290.4c0.3-0.3,0.5-0.6,0.6-0.9H695l9.6-9.6h7l7.1-7.1h1.8c0.4,0.9,1.3,1.6,2.3,1.6  c1.4,0,2.5-1.1,2.5-2.5s-1.1-2.5-2.5-2.5c-1.1,0-2,0.7-2.3,1.7H718l-7,7h-7l-9.6,9.6h-28.7c-0.1-0.3-0.3-0.6-0.6-0.9  c-0.9-0.9-2.5-0.9-3.4,0s-0.9,2.5,0,3.4C662.6,291.4,664.2,291.4,665.1,290.4z"
   id="path152" />
<path
   class="st1"
   d="M669.3,296.8c0.3-0.3,0.5-0.7,0.6-1h31.2l6.6-6.6l4.1,0.1c0.3,0.9,1.2,1.6,2.3,1.7c1.4,0,2.5-1.1,2.5-2.5  s-1.1-2.5-2.5-2.5c-1.1,0-2,0.6-2.3,1.6H707l-6.6,6.6h-30.5c-0.1-0.3-0.3-0.6-0.5-0.8c-0.9-0.9-2.5-0.9-3.4,0s-0.9,2.5,0,3.4  C666.8,297.7,668.3,297.7,669.3,296.8z"
   id="path154" />
<path
   class="st1"
   d="M711.2,62.5c-1.3,0-2.4,1.1-2.4,2.4c0,1,0.6,1.9,1.6,2.3v4.7l-8.4,8.4h-10.5l-6.5,6.5v13.5  c-0.9,0.3-1.6,1.2-1.6,2.3c0,1.3,1.1,2.4,2.4,2.4c1.3,0,2.4-1.1,2.4-2.4c0-1-0.7-1.9-1.6-2.3V87.5l5.6-5.6h10.6l9.4-9.4v-5.4  c0.9-0.3,1.6-1.2,1.6-2.3C713.7,63.6,712.6,62.5,711.2,62.5z"
   id="path156" />
<path
   class="st1"
   d="M678.6,97.1l-5,4.9v10l-1.3,1.3c-0.9-0.4-2-0.3-2.8,0.5c-1,1-1,2.5,0,3.5s2.5,1,3.5,0c0.8-0.8,0.9-1.9,0.5-2.8  l1.8-1.8v-9.9l5-5V84.1l20.3-20.3c0.3,0.1,0.7,0.2,1,0.2c1.3,0,2.4-1.1,2.4-2.4c0-1.3-1.1-2.4-2.4-2.4c-1.3,0-2.4,1.1-2.4,2.4  c0,0.4,0.1,0.7,0.2,1.1l-20.8,20.8V97.1z"
   id="path158" />
<path
   class="st1"
   d="M669.9,92.6l-2.9,2.8c-0.9-0.4-2-0.3-2.8,0.4c-1,1-1,2.5,0,3.5s2.5,1,3.5,0c0.8-0.8,0.9-1.8,0.5-2.7l3.4-3.4  v-9.3l21.6-21.6c0.3,0.1,0.6,0.2,1,0.2c1.3,0,2.4-1.1,2.4-2.4c0-1.3-1.1-2.4-2.4-2.4c-1.3,0-2.4,1.1-2.4,2.4c0,0.4,0.1,0.8,0.3,1.2  l-22.1,22L669.9,92.6L669.9,92.6z"
   id="path160" />
<path
   class="st1"
   d="M783.9,152.6h-10.5l-6.5,6.5v13.5c-0.9,0.3-1.6,1.2-1.6,2.3c0,1.3,1.1,2.4,2.4,2.4c1.3,0,2.4-1.1,2.4-2.4  c0-1-0.7-1.9-1.6-2.3v-12.9l5.6-5.6h10.6l9.4-9.4v-5.4c0.9-0.3,1.6-1.2,1.6-2.3c0-1.3-1.1-2.4-2.4-2.4s-2.4,1.1-2.4,2.4  c0,1,0.6,1.9,1.6,2.3v4.7L783.9,152.6z"
   id="path162" />
<path
   class="st1"
   d="M760.5,169.3l-5,4.9v10l-1.3,1.3c-0.9-0.4-2-0.3-2.8,0.5c-1,1-1,2.5,0,3.5s2.5,1,3.5,0c0.8-0.8,0.9-1.9,0.5-2.8  l1.8-1.8V175l5-5v-13.6l20.3-20.3c0.3,0.1,0.7,0.2,1,0.2c1.3,0,2.4-1.1,2.4-2.4s-1.1-2.4-2.4-2.4c-1.3,0-2.4,1.1-2.4,2.4  c0,0.4,0.1,0.7,0.2,1.1l-20.8,20.8V169.3z"
   id="path164" />
<path
   class="st1"
   d="M751.8,164.9l-2.9,2.8c-0.9-0.4-2-0.3-2.8,0.4c-1,1-1,2.5,0,3.5s2.5,1,3.5,0c0.8-0.8,0.9-1.8,0.5-2.7l3.4-3.4  v-9.3l21.6-21.6c0.3,0.1,0.6,0.2,1,0.2c1.3,0,2.4-1.1,2.4-2.4s-1.1-2.4-2.4-2.4c-1.3,0-2.4,1.1-2.4,2.4c0,0.4,0.1,0.8,0.3,1.2  l-22.1,22L751.8,164.9L751.8,164.9z"
   id="path166" />
<path
   class="st1"
   d="M674.8,314c0.3-0.3,0.5-0.6,0.6-1h63.8l17.9-17.9h11.1l11.7-11.7h1.6c0.4,1,1.3,1.6,2.3,1.6  c1.4,0,2.5-1.1,2.5-2.5s-1.1-2.5-2.5-2.5c-1.1,0-2,0.7-2.3,1.6h-2.2l-11.7,11.7h-11.1l-17.9,17.9h-63.1c-0.1-0.3-0.3-0.6-0.5-0.9  c-0.9-0.9-2.5-0.9-3.4,0s-0.9,2.5,0,3.4S673.8,314.9,674.8,314z"
   id="path168" />
<path
   class="st1"
   d="M179.7,575.3c2.2-2.2,2.2-5.6,0-7.8c-0.6-0.6-1.2-1-1.9-1.3v-36.3l5.2-5.2v-73.4l17.3-17.3v-37l11.9-12v-16  l-7.5-7.4c0.7-1.9,0.3-4.2-1.3-5.7c-2.2-2.2-5.6-2.2-7.8,0s-2.2,5.6,0,7.8c1.5,1.5,3.7,2,5.6,1.3l6.1,6.1v11.8l-12,12v37L178,449.2  v73.4l-5.1,5.2v38.8c-0.4,0.2-0.7,0.5-1.1,0.8c-2.2,2.2-2.2,5.6,0,7.8C174,577.4,177.5,577.4,179.7,575.3z"
   id="path170" />
<path
   class="st1"
   d="M253.7,723.1V652l2.5-2.5c0.9,0.4,2.1,0.3,2.8-0.5c1-1,1-2.5,0-3.5s-2.5-1-3.5,0c-0.8,0.8-0.9,1.9-0.5,2.8l-3,3  v71.1l-5.1,5v6.6c-0.9,0.3-1.6,1.2-1.6,2.3c0,1.3,1.1,2.4,2.4,2.4s2.4-1.1,2.4-2.4c0-1-0.7-1.9-1.6-2.3v-5.9L253.7,723.1z"
   id="path172" />
<path
   class="st1"
   d="M517.5,519v-71.1l2.5-2.5c0.9,0.4,2.1,0.3,2.8-0.5c1-1,1-2.5,0-3.5s-2.5-1-3.5,0c-0.8,0.8-0.9,1.9-0.5,2.8l-3,3  v71.1l-5.1,5v6.6c-0.9,0.3-1.6,1.2-1.6,2.3c0,1.3,1.1,2.4,2.4,2.4c1.3,0,2.4-1.1,2.4-2.4c0-1-0.7-1.9-1.6-2.3V524L517.5,519z"
   id="path174" />
<path
   class="st1"
   d="M15.4,190.7v-71.1l2.5-2.5c0.9,0.4,2.1,0.3,2.8-0.5c1-1,1-2.5,0-3.5s-2.5-1-3.5,0c-0.8,0.8-0.9,1.9-0.5,2.8  l-3,3V190l-5.1,5v6.6c-0.9,0.3-1.6,1.2-1.6,2.3c0,1.3,1.1,2.4,2.4,2.4s2.4-1.1,2.4-2.4c0-1-0.7-1.9-1.6-2.3v-5.9L15.4,190.7z"
   id="path176" />
<path
   class="st1"
   d="M3.9,194.8c-0.9,0.3-1.6,1.2-1.6,2.3c0,1.3,1.1,2.4,2.4,2.4s2.4-1.1,2.4-2.4c0-1-0.7-1.9-1.6-2.3v-5.9l5-5.1  v-71.1l2.5-2.5c0.9,0.4,2.1,0.3,2.8-0.5c1-1,1-2.5,0-3.5s-2.5-1-3.5,0c-0.8,0.8-0.9,1.9-0.5,2.8l-3,3v71.1l-5.1,5v6.7H3.9z"
   id="path178" />
<path
   class="st1"
   d="M250.8,554.5l13.4-13.4h62.4l19.4-19.4h38.9l13.5-13.6h1.6c0.3,0.9,1.2,1.6,2.3,1.6c1.3,0,2.4-1.1,2.4-2.4  s-1.1-2.4-2.4-2.4c-1.1,0-2,0.7-2.3,1.6h-2.3L384.1,520h-38.9l-19.4,19.4h-62.4L250,552.8h-42.7L190,535.6v-58.9  c0.9-0.3,1.6-1.2,1.6-2.3c0-1.3-1.1-2.4-2.4-2.4c-1.3,0-2.4,1.1-2.4,2.4c0,1.1,0.7,2,1.6,2.3v59.6l18.3,18.3L250.8,554.5  L250.8,554.5z"
   id="path180" />
<path
   class="st1"
   d="M207.4,543.5l5.8,5.8h33.9l13.2-13.2h61.4l24.3-24.4h28.3l2.2-2.2c0.9,0.4,2,0.3,2.8-0.5c1-1,1-2.5,0-3.5  s-2.5-1-3.5,0c-0.8,0.8-0.9,1.9-0.5,2.8l-1.7,1.7h-28.3L321,534.5h-61.4l-13.2,13.1h-32.5l-5.3-5.3c0.4-0.9,0.3-2-0.5-2.8  c-1-1-2.5-1-3.5,0s-1,2.5,0,3.5C205.4,543.7,206.5,543.9,207.4,543.5z"
   id="path182" />
<path
   class="st1"
   d="M393,698.9h51.2l24.2-24.2h63.2l20.5-20.5v-69.5c0.9-0.3,1.7-1.3,1.7-2.3c0-1.4-1-2.4-2.4-2.4s-2.4,1-2.4,2.4  c0,1.1,0.6,1.9,1.6,2.3v68.8L531,673h-63.3l-24.3,24.3h-51.1l-14.5,14.5h-5.9l-44.7,44.8H319l-5.2-5.2V727l-10.2-10.2  c0.5-0.9,0.3-2-0.5-2.8c-1-1-2.5-1-3.5,0s-1,2.5,0,3.5c0.8,0.8,1.9,0.9,2.8,0.5l9.8,9.7V752l6.2,6.2h9.6l44.7-44.8h5.9L393,698.9z"
   id="path184" />
<path
   class="st1"
   d="M376.5,779.3V771l11.2-11.1v-9.1l22.5-22.5h25.1l10.5-10.5H462l11.1-11.2H541l7.8-7.8h72.5l6.1,6  c-0.4,0.9-0.3,2,0.4,2.8c1,1,2.5,1,3.5,0s1-2.5,0-3.5c-0.8-0.8-1.9-0.9-2.8-0.5l-6.5-6.5h-73.8l-7.8,7.8h-67.8L461.4,716h-16.2  l-10.6,10.7h-25l-23.4,23.4v9.1L375,770.4v8.9c-0.3,0.1-0.7,0.3-0.9,0.6c-1,1-1,2.5,0,3.5s2.5,1,3.5,0s1-2.5,0-3.5  C377.2,779.7,376.9,779.5,376.5,779.3z"
   id="path186" />
<path
   class="st1"
   d="M472.5,619.4c1.3,0,2.4-1.1,2.4-2.4s-1.1-2.4-2.4-2.4c-1.1,0-2,0.7-2.3,1.6h-56l-35.3-35.4H268.3l-8.6,8.7  c-0.9-0.5-2-0.3-2.8,0.5c-1,1-1,2.5,0,3.5s2.5,1,3.5,0c0.8-0.8,0.9-1.9,0.5-2.8l8.1-8.1h109.3l35.3,35.3h56.6  C470.6,618.7,471.5,619.4,472.5,619.4z"
   id="path188" />
<path
   class="st1"
   d="M385.3,641.1c1,1,2.5,1,3.5,0s1-2.5,0-3.5c-0.8-0.8-1.9-0.9-2.9-0.4l-12.7-12.7h-56l-15.8,15.9V667l6.3,6.4  h39.4c0.3,0.9,1.2,1.6,2.3,1.6c1.3,0,2.4-1.1,2.4-2.4c0-1.3-1.1-2.4-2.4-2.4c-1.1,0-2,0.7-2.3,1.6h-38.8l-5.4-5.5V641l15-14.9h54.7  l12.2,12.2C384.4,639.3,384.5,640.4,385.3,641.1z"
   id="path190" />
<path
   class="st1"
   d="M393.7,764v-9.9l20.9-20.9h23l10-10h16.7l10.5-10.4h61.8l13.4,13.4h42.3l8.2-8.2h4.9c0.3,0.9,1.2,1.6,2.3,1.6  c1.3,0,2.4-1.1,2.4-2.4s-1.1-2.4-2.4-2.4c-1.1,0-2,0.7-2.3,1.6H600l-8.3,8.2h-41l-13.4-13.4h-63.1l-10.5,10.5h-16.8l-10,10h-23  l-21.8,21.9v9.9l-8.5,8.5c-0.9-0.4-1.9-0.2-2.7,0.5c-1,1-1,2.5,0,3.5s2.5,1,3.5,0c0.8-0.8,0.9-2,0.4-2.9L393.7,764z"
   id="path192" />
<path
   class="st1"
   d="M632.2,740.1l-9-9h-74.5l-14.5-14.5h-58.6l-9.4,9.4h-17.3l-12.6,12.5v12.8l-5,5h-27.6l-13.2,14.4  c-0.8-0.2-1.7,0-2.3,0.6c-1,1-1,2.5,0,3.5s2.5,1,3.5,0c0.9-0.9,1-2.3,0.2-3.2l12.6-13.6H432l6-6v-12.8l11.6-11.6h17.3l9.4-9.4h57.2  l14.5,14.6h74.5l8.5,8.6c-0.4,0.9-0.3,2,0.5,2.8c1,1,2.5,1,3.5,0s1-2.5,0-3.5C634.2,739.8,633.1,739.6,632.2,740.1z"
   id="path194" />
<path
   class="st1"
   d="M470.4,733.4l8.9-8.8H531l14.3,14.4h63.8l4,4c-0.5,0.9-0.3,2,0.5,2.8c1,1,2.5,1,3.5,0s1-2.5,0-3.5  c-0.8-0.8-1.9-0.9-2.8-0.5l-4.5-4.5H546L531.6,723h-53l-8.8,8.8h-20l-7.9,7.9v14.4l-8.6,8.6h-25.1L399,772c-0.9-0.4-1.9-0.2-2.7,0.5  c-1,1-1,2.5,0,3.5s2.5,1,3.5,0c0.8-0.8,0.9-2,0.4-2.9l8.7-8.7H434l9.6-9.6v-14.4l6.9-6.9L470.4,733.4L470.4,733.4z"
   id="path196" />
<path
   class="st1"
   d="M630.7,760.2l-3.6-3.5h-15L600,744.6h-53.9l-15.3-15.3h-29.2l-20.1,20h-11.7l-22.2,22.2  c-0.9-0.4-1.9-0.2-2.7,0.5c-1,1-1,2.5,0,3.5s2.5,1,3.5,0c0.8-0.8,0.9-2,0.4-2.9l21.6-21.6h11.7l20.1-20h27.9l15.3,15.3h53.9  l12.1,12.1h15l3.1,3.1c-0.4,0.9-0.3,2,0.5,2.8c1,1,2.5,1,3.5,0s1-2.5,0-3.5C632.8,759.9,631.7,759.7,630.7,760.2z"
   id="path198" />
<path
   class="st1"
   d="M619.5,761.5c-1.1,0-1.9,0.6-2.3,1.6H609l-9.4-9.4h-55.8l-16.3-16.4h-20.4l-21.6,21.6h-12.4l-13.3,13.4  c-0.8-0.2-1.7,0-2.4,0.6c-1,1-1,2.5,0,3.5s2.5,1,3.5,0c0.9-0.9,1-2.2,0.2-3.2l12.7-12.7h12.4l21.5-21.6h19l16.4,16.4H599l9.4,9.4  h8.9c0.3,0.9,1.2,1.7,2.3,1.7c1.4,0,2.4-1,2.4-2.4C622,762.5,620.9,761.5,619.5,761.5z"
   id="path200" />
<path
   class="st1"
   d="M592,766.4c1.3,0,2.4-1.1,2.4-2.4c0-1.3-1.1-2.4-2.4-2.4c-1,0-1.9,0.7-2.3,1.6h-48.5l-14.5-14.5h-19.5  L490,765.9h-8.9l-6.6,6.6c-0.9-0.5-2.1-0.4-2.9,0.4c-1,1-1,2.5,0,3.5s2.5,1,3.5,0c0.7-0.7,0.9-1.8,0.5-2.7l6.1-6.1h9l17.2-17.2H526  l14.5,14.5h49.2C590,765.7,590.9,766.4,592,766.4z"
   id="path202" />
<path
   class="st1"
   d="M415,380.1c1,1,2.5,1,3.5,0s1-2.5,0-3.5c-0.8-0.8-1.9-0.9-2.8-0.5l-3.6-3.5h-15l-12.1-12h-53.9l-15.3-15.3  h-29.2l-20.1,20h-11.7l-22.2,22.2c-0.9-0.4-1.9-0.2-2.7,0.5c-1,1-1,2.5,0,3.5s2.5,1,3.5,0c0.8-0.8,0.9-2,0.4-2.9l21.6-21.6h11.7  l20.1-20h27.9l15.3,15.3h53.9l12.1,12.1h15l3.1,3.1C414.1,378.3,414.3,379.4,415,380.1z"
   id="path204" />
<path
   class="st1"
   d="M404.5,382.3c1.4,0,2.4-1,2.4-2.4s-1-2.4-2.4-2.4c-1.1,0-1.9,0.6-2.3,1.6H394l-9.4-9.4h-55.8l-16.3-16.4h-20.4  l-21.6,21.6h-12.4l-13.3,13.4c-0.8-0.2-1.7,0-2.4,0.6c-1,1-1,2.5,0,3.5s2.5,1,3.5,0c0.9-0.9,1-2.2,0.2-3.2l12.7-12.7h12.4l21.5-21.6  h19l16.4,16.4H384l9.4,9.4h8.9C402.5,381.5,403.4,382.3,404.5,382.3z"
   id="path206" />
<path
   class="st1"
   d="M275.7,383.5l17.2-17.2H311l14.5,14.5h49.2c0.3,0.9,1.2,1.6,2.3,1.6c1.3,0,2.4-1.1,2.4-2.4s-1.1-2.4-2.4-2.4  c-1,0-1.9,0.7-2.3,1.6h-48.5l-14.5-14.5h-19.5L275,381.9h-8.9l-6.6,6.6c-0.9-0.5-2.1-0.4-2.9,0.4c-1,1-1,2.5,0,3.5s2.5,1,3.5,0  c0.7-0.7,0.9-1.8,0.5-2.7l6.1-6.1L275.7,383.5L275.7,383.5z"
   id="path208" />
<path
   class="st1"
   d="M97,628.9h49.2c0.3,0.9,1.2,1.6,2.3,1.6c1.3,0,2.4-1.1,2.4-2.4c0-1.3-1.1-2.4-2.4-2.4c-1,0-1.9,0.7-2.3,1.6  H97.6l-14.5-14.5H63.7L46.4,630h-8.9l-6.6,6.6c-0.9-0.5-2.1-0.4-2.9,0.4c-1,1-1,2.5,0,3.5s2.5,1,3.5,0c0.7-0.7,0.9-1.8,0.5-2.7  l6.1-6.1h9l17.2-17.2h18.1L97,628.9z"
   id="path210" />
<path
   class="st1"
   d="M48.7,609c0.3,0.9,1.2,1.6,2.3,1.6c1.3,0,2.4-1.1,2.4-2.4s-1.1-2.4-2.4-2.4c-1.1,0-2,0.7-2.3,1.6H43l-13.8,13.8  c-0.9-0.4-2-0.3-2.8,0.5c-1,1-1,2.5,0,3.5s2.5,1,3.5,0c0.8-0.8,0.9-1.9,0.4-2.9L43.6,609H48.7z"
   id="path212" />
<path
   class="st1"
   d="M364.8,453.4h-63.1l-10.5,10.5h-16.8l-10,10h-23l-21.8,21.9v9.9l-8.5,8.5c-0.9-0.4-1.9-0.2-2.7,0.5  c-1,1-1,2.5,0,3.5s2.5,1,3.5,0c0.8-0.8,0.9-2,0.4-2.9l8.9-9v-9.9l20.9-20.9h23l10-10h16.7l10.5-10.4h61.8l13.4,13.4H420l8.2-8.2h4.9  c0.3,0.9,1.2,1.6,2.3,1.6c1.3,0,2.4-1.1,2.4-2.4s-1.1-2.4-2.4-2.4c-1.1,0-2,0.7-2.3,1.6h-5.6l-8.3,8.2h-41L364.8,453.4z"
   id="path214" />
<path
   class="st1"
   d="M462.5,482.9c-0.8-0.8-1.9-0.9-2.8-0.5l-9-9h-74.5l-14.5-14.5h-58.6l-9.4,9.4h-17.3l-12.6,12.5v12.8l-5,5h-27.6  L218,513c-0.8-0.2-1.7,0-2.3,0.6c-1,1-1,2.5,0,3.5s2.5,1,3.5,0c0.9-0.9,1-2.3,0.2-3.2l12.6-13.6h27.6l6-6v-12.8l11.6-11.6h17.3  l9.4-9.4H361l14.5,14.6H450l8.5,8.6c-0.4,0.9-0.3,2,0.5,2.8c1,1,2.5,1,3.5,0C463.5,485.4,463.5,483.9,462.5,482.9z"
   id="path216" />
<path
   class="st1"
   d="M261.6,506.6l9.6-9.6v-14.4l6.9-6.9h20l8.9-8.8h51.6l14.3,14.4h63.8l4,4c-0.5,0.9-0.3,2,0.5,2.8  c1,1,2.5,1,3.5,0s1-2.5,0-3.5c-0.8-0.8-1.9-0.9-2.8-0.5l-4.5-4.5h-63.8l-14.5-14.3h-53l-8.8,8.8h-20l-7.9,7.9v14.4l-8.6,8.6h-25.1  l-9.2,9.3c-0.9-0.4-1.9-0.2-2.7,0.5c-1,1-1,2.5,0,3.5s2.5,1,3.5,0c0.8-0.8,0.9-2,0.4-2.9l8.7-8.7L261.6,506.6L261.6,506.6z"
   id="path218" />
<path
   class="st1"
   d="M457.7,506.4c1,1,2.5,1,3.5,0s1-2.5,0-3.5c-0.8-0.8-1.9-0.9-2.8-0.5l-3.6-3.5h-15l-12.1-12.1h-53.9l-15.3-15.3  h-29.2l-20.1,20h-11.7l-22.2,22.2c-0.9-0.4-1.9-0.2-2.7,0.5c-1,1-1,2.5,0,3.5s2.5,1,3.5,0c0.8-0.8,0.9-2,0.4-2.9l21.6-21.6h11.7  l20.1-20h27.9l15.3,15.3H427l12.1,12.1h15l3.1,3.1C456.7,504.6,456.9,505.7,457.7,506.4z"
   id="path220" />
<path
   class="st1"
   d="M435.9,506.9h8.9c0.3,0.9,1.2,1.7,2.3,1.7c1.4,0,2.4-1,2.4-2.4s-1-2.4-2.4-2.4c-1.1,0-1.9,0.6-2.3,1.6h-8.2  l-9.4-9.4h-55.8l-16.3-16.4h-20.4l-21.6,21.6h-12.4l-13.3,13.4c-0.8-0.2-1.7,0-2.4,0.6c-1,1-1,2.5,0,3.5s2.5,1,3.5,0  c0.9-0.9,1-2.2,0.2-3.2l12.7-12.7h12.4l21.5-21.6h19l16.4,16.4h55.8L435.9,506.9z"
   id="path222" />
<path
   class="st1"
   d="M57.9,747.6l36.2-36.2v-14l32.1-32.2c0.9,0.5,2,0.3,2.8-0.5c1-1,1-2.5,0-3.5s-2.5-1-3.5,0  c-0.8,0.8-0.9,1.9-0.5,2.8l-32.6,32.6v14.1L56.3,747v17.5l-19.8,19.7v10.3L31,800h2.2l4.8-4.8v-10.3l19.8-19.8v-17.5L57.9,747.6  L57.9,747.6z"
   id="path224" />
<path
   class="st1"
   d="M85.3,734.7l13.8-13.8v-16.2l26.2-26.2h10.1l9.1-9.1c0.7,0.3,1.6,0.1,2.2-0.4c0.8-0.8,0.8-2.1,0-2.9  c-0.8-0.8-2.1-0.8-2.9,0c-0.6,0.6-0.7,1.5-0.4,2.2l-8.6,8.5h-10.1L97.4,704v16.1l-13.8,13.8v20.6L47,791.1v8.9h1.7v-8.2l36.5-36.6  v-20.5H85.3z"
   id="path226" />
<path
   class="st1"
   d="M144,684.3l15.9-16v-14.9l-5.4-5.4c0.4-0.9,0.3-2-0.5-2.8c-1-1-2.5-1-3.5,0s-1,2.5,0,3.5  c0.8,0.8,1.9,0.9,2.8,0.5l4.9,4.9v13.6l-15,14.9h-14.4L103.5,708v13.7L90,735.2v20.4l-36.3,36.3v8.1h1.6v-7.5l36.3-36.3v-20.4  l13.5-13.5v-13.6l24.5-24.5L144,684.3L144,684.3z"
   id="path228" />
<path
   class="st1"
   d="M79.3,787c-1.3,0-2.4,1.1-2.4,2.4c0,1,0.7,1.9,1.6,2.3v8.4h1.6v-8.3c0.9-0.3,1.6-1.2,1.6-2.3  C81.7,788,80.6,787,79.3,787z"
   id="path230" />
<path
   class="st1"
   d="M196.9,658.2l-6.4-6.4h-8.8l-3.2-3.2v-14.8l3.7-3.7c0.9,0.4,2,0.3,2.8-0.4c1-1,1-2.5,0-3.5s-2.5-1-3.5,0  c-0.8,0.8-0.9,1.8-0.5,2.7l-4.2,4.3v16.1l4.2,4.2h8.8l5.5,5.4V675l-26.5,26.5V800h1.6v-97.7l26.6-26.6v-17.5H196.9z"
   id="path232" />
<path
   class="st1"
   d="M192.6,693.7l10.7-10.7v-26.8l-12.8-12.8v-0.1c0-1.3-1.1-2.4-2.4-2.4c-1.3,0-2.4,1.1-2.4,2.4s1.1,2.4,2.4,2.4  c0.6,0,1.2-0.3,1.6-0.7l11.9,11.8v25.5L191,693.1v82.6l-5.7,5.7V800h1.6v-18l5.7-5.7V693.7z"
   id="path234" />
<path
   class="st1"
   d="M204,705.6l12.6-12.6v-42.3l3.9-3.9c0.9,0.5,2,0.3,2.8-0.5c1-1,1-2.5,0-3.5s-2.5-1-3.5,0  c-0.8,0.7-0.9,1.8-0.5,2.8L215,650v42.3L202.4,705v76.8l-5.5,5.6V800h1.6v-12.1l5.6-5.5v-76.8L204,705.6L204,705.6z"
   id="path236" />
<path
   class="st1"
   d="M241.5,671.4c0.9-0.3,1.6-1.2,1.6-2.3c0-1.3-1.1-2.4-2.4-2.4c-1.3,0-2.4,1.1-2.4,2.4c0,1,0.7,1.9,1.6,2.3v34.1  l-18.8,18.9V800h1.6v-75l18.9-18.9v-34.7L241.5,671.4L241.5,671.4z"
   id="path238" />
<path
   class="st1"
   d="M264.8,707.5l2.6-2.6v-39.2c0.9-0.3,1.6-1.2,1.6-2.3c0-1.3-1.1-2.4-2.4-2.4s-2.4,1.1-2.4,2.4  c0,1.1,0.7,2,1.6,2.3v38.5l-2.6,2.6v43.3l-22.7,22.6V800h1.6v-26.5l22.7-22.7L264.8,707.5L264.8,707.5z"
   id="path240" />
<path
   class="st1"
   d="M272.3,636l-7.3-7.3c0.4-0.9,0.3-2-0.5-2.8c-1-1-2.5-1-3.5,0s-1,2.5,0,3.5c0.8,0.8,1.9,0.9,2.8,0.5l6.9,6.8  v127.6l-22.5,22.5V800h1.6v-12.7l22.5-22.5V636z"
   id="path242" />
<path
   class="st1"
   d="M197.3,700.4l11.6-11.6v-48.3c0.9-0.3,1.6-1.2,1.6-2.3c0-1.3-1.1-2.4-2.4-2.4c-1.3,0-2.4,1.1-2.4,2.4  c0,1.1,0.7,2,1.6,2.3v47.6l-11.5,11.5v80l-4.4,4.5V800h1.6v-15.2l4.3-4.4L197.3,700.4L197.3,700.4z"
   id="path244" />
<path
   class="st1"
   d="M18.5,787.5c1-1,1-2.5,0-3.5s-2.5-1-3.5,0c-0.8,0.8-0.9,1.9-0.4,2.8l-8.9,8.8H0v1.7h6.3l9.3-9.4  C16.6,788.4,17.7,788.3,18.5,787.5z"
   id="path246" />
<path
   class="st1"
   d="M26.8,779.6l18.8-18.8v-18.9L79,708.5v-33.4l30.8-30.8h15.7c0.3,1,1.2,1.6,2.3,1.6c1.4,0,2.4-1,2.4-2.4  s-1-2.4-2.4-2.4c-1.1,0-1.9,0.6-2.3,1.6h-16.4l-31.8,31.8v33.4l-33.5,33.4v18.9L25.2,779v10.3l-9.9,9.9v0.8h1.6v-0.2l9.9-9.9  C26.8,789.9,26.8,779.6,26.8,779.6z"
   id="path248" />
<path
   class="st1"
   d="M31.6,780.8l19.6-19.6v-15.6l34.1-34.1v-19.8l22.2-22.2c0.9,0.4,2,0.3,2.7-0.5c1-1,1-2.5,0-3.5s-2.5-1-3.5,0  c-0.8,0.8-0.9,1.9-0.4,2.9l-22.6,22.7v19.8l-34.2,34v15.7L30,780.1v11.5l-8,8v0.4h1.8l7.8-7.7C31.6,792.3,31.6,780.8,31.6,780.8z"
   id="path250" />
<path
   class="st1"
   d="M95.4,774.8c-1-1-2.5-1-3.5,0c-0.8,0.8-0.9,1.9-0.5,2.8l-1.8,1.8v9.9l-5,5v5.7h1.6v-5.1l5-4.9v-10l1.3-1.3  c0.9,0.4,2,0.3,2.8-0.5C96.4,777.3,96.4,775.8,95.4,774.8z"
   id="path252" />
<path
   class="st1"
   d="M97.3,792.6c-0.8,0.8-0.9,1.8-0.5,2.7l-3.4,3.4v1.2H95v-0.6l2.9-2.8c0.9,0.4,2,0.3,2.8-0.4c1-1,1-2.5,0-3.5  C99.8,791.7,98.3,791.7,97.3,792.6z"
   id="path254" />
<path
   class="st1"
   d="M108.2,733l60.7-60.7v-4.2c0.9-0.3,1.6-1.2,1.6-2.3c0-1.3-1.1-2.4-2.4-2.4c-1.3,0-2.4,1.1-2.4,2.4  c0,1.1,0.7,2,1.6,2.3v3.5l-60.6,60.7v33.3l6.2,6.2v24.4l-3.7,3.7h2.3l3-3v-25.7l-6.3-6.3L108.2,733L108.2,733z"
   id="path256" />
<path
   class="st1"
   d="M150.1,697.4l28.2-28.2V657l-8-7.9c0.5-0.4,0.7-1.1,0.7-1.7c0-1.3-1.1-2.4-2.4-2.4c-1.3,0-2.4,1.1-2.4,2.4  c0,1.3,1.1,2.4,2.4,2.4c0,0,0,0,0.1,0l8,8v10.9l-28.1,28.1v12.6L119,738.8v59.1l-2.1,2.1h2.4l1.3-1.3v-59.2l29.5-29.6V697.4z"
   id="path258" />
<path
   class="st1"
   d="M141.9,744.3l1.1-1.1c0.9,0.4,2.1,0.3,2.8-0.4c1-1,1-2.5,0-3.5s-2.5-1-3.5,0c-0.8,0.8-0.9,1.9-0.5,2.8l-1.6,1.6  v16.5l-7.9,7.8v25.3l-6.7,6.7h2.3l6-6v-25.3l7.8-7.9v-16.5L141.9,744.3L141.9,744.3z"
   id="path260" />
<path
   class="st1"
   d="M187.6,668.9c0.9-0.3,1.6-1.2,1.6-2.3c0-1.3-1.1-2.4-2.4-2.4s-2.4,1.1-2.4,2.4c0,1,0.7,1.9,1.6,2.3v4.9l-31,31  v40.8l-6.9,7v35.9L136.4,800h2.2l10.9-10.9v-35.9l7-6.9v-40.8l31-31v-5.6L187.6,668.9L187.6,668.9z"
   id="path262" />
<path
   class="st1"
   d="M230.2,660.6l11.9-12v-15.8l-7.5-7.4c0.7-1.9,0.3-4.2-1.3-5.7c-2.2-2.2-5.6-2.2-7.8,0s-2.2,5.6,0,7.8  c1.5,1.5,3.7,2,5.6,1.3l6.1,6.1v11.8l-12,12v37L207.9,713v73.4l-5.1,5.2v8.4h4.8v-6.4l5.2-5.2V715l17.3-17.3v-37.1L230.2,660.6  L230.2,660.6z"
   id="path264" />
<path
   class="st1"
   d="M287,711.8c-0.8,0.8-0.9,1.9-0.5,2.8l-9.3,9.2v44.5l-23,23.1v8.5h1.6v-7.8l23.1-23.1v-44.6l8.8-8.8  c0.9,0.4,2,0.3,2.8-0.4c1-1,1-2.5,0-3.5C289.5,710.8,288,710.8,287,711.8z"
   id="path266" />
<path
   class="st1"
   d="M662.9,716.2c0.1,0,0.3-0.1,0.4-0.2c3.7-1.5,5.5-5.8,4-9.6c-1.5-3.7-5.8-5.5-9.6-4s-5.5,5.8-4,9.6  c0.8,2,2.4,3.4,4.3,4.1V747l12,11.9v41h4.8v-43l-12-11.9L662.9,716.2L662.9,716.2z"
   id="path268" />
<path
   class="st1"
   d="M207.5,446.7c-1.5-3.7-5.8-5.5-9.6-4c-3.7,1.5-5.5,5.8-4,9.6s5.8,5.5,9.6,4c2-0.8,3.4-2.4,4.1-4.3h30.9l11.9-12  h68.9c0,0.1,0.1,0.2,0.1,0.3c1.5,3.7,5.8,5.5,9.6,4s5.5-5.8,4-9.6c-1.5-3.7-5.8-5.5-9.6-4c-2,0.8-3.5,2.5-4.1,4.4h-70.9l-11.9,12  h-28.9C207.6,447,207.5,446.9,207.5,446.7z"
   id="path270" />
<path
   class="st1"
   d="M43.6,85.7v144.4l-25.1,25.1v6.3c-0.7,0.2-1.3,0.8-1.5,1.5c-0.4,1.3,0.3,2.6,1.5,3.1c1.3,0.4,2.6-0.3,3.1-1.5  c0.4-1.3-0.3-2.6-1.5-3.1v-5.6l25.1-25.1V85L16.9,55.8H0v1.7h16.2L43.6,85.7z"
   id="path272" />
<path
   class="st1"
   d="M27.1,52.8c0.3,0,0.5-0.1,0.8-0.1l27,27.8v166.4c-0.8,0.4-1.4,1.2-1.4,2.2c0,1.3,1.1,2.4,2.4,2.4  c1.3,0,2.4-1.1,2.4-2.4c0-1.1-0.7-2-1.8-2.3v-167L29.2,51.6c0.2-0.4,0.4-0.8,0.4-1.2c0-1.3-1.1-2.4-2.4-2.4s-2.4,1.1-2.4,2.4  C24.7,51.7,25.8,52.8,27.1,52.8z"
   id="path274" />
<path
   class="st1"
   d="M50.9,82.2L16.3,47.7c0.9-1.2,1.5-2.6,1.5-4.2c0-3.7-3-6.7-6.7-6.8c-3.7,0-6.8,3-6.8,6.7s3,6.8,6.7,6.8  c1.6,0,3-0.5,4.2-1.4l34.1,34.1v154.7l-11.4,10c-0.9-0.5-2-0.4-2.7,0.3c-1,0.9-1.2,2.5-0.3,3.5s2.5,1.2,3.5,0.3  c0.8-0.7,1-1.9,0.6-2.8l11.9-10.4C50.9,238.5,50.9,82.2,50.9,82.2z M11.1,48.6c-2.8,0-5.1-2.2-5.1-5.1c0-2.8,2.2-5.1,5.1-5.1  c2.8,0,5.1,2.2,5.1,5.1C16.2,46.3,13.9,48.6,11.1,48.6z"
   id="path276" />
<path
   class="st1"
   d="M685.4,675.6c-3.7,0-6.7,3-6.7,6.7s3,6.7,6.7,6.7s6.7-3,6.7-6.7S689.2,675.6,685.4,675.6z M685.4,687.4  c-2.8,0-5.1-2.2-5.1-5.1c0-2.7,2.3-5.1,5.1-5.1s5.1,2.2,5.1,5.1C690.5,685.1,688.3,687.4,685.4,687.4z"
   id="path278" />
<path
   class="st1"
   d="M723.3,659.1c-3-1.3-6.4-0.3-8.4,2l-33.9,1.1l-8.2-7.6l-1.8-55.4l-8.1-7.5l-0.2-4.1c0.7-0.7,1.1-1.6,1-2.7  c-0.1-2-1.8-3.6-3.8-3.5c-0.7,0-1.3,0.2-1.8,0.6c-0.2-3.5-3.1-6.3-6.7-6.3c-3.7,0-6.7,3-6.7,6.7s3,6.7,6.7,6.7c2.2,0,4.1-1,5.3-2.6  c0.3,0.6,0.6,1,1.1,1.4l0.2,5.9l8.1,7.6l1.8,55.3l11.1,10.4l34.1-1.1c0.1,2.8,1.8,5.4,4.5,6.5c0.1,0.1,0.3,0.1,0.4,0.1v28.9l-12,12  v70.9c-0.1,0-0.2,0.1-0.3,0.1c-3.7,1.5-5.5,5.8-4,9.6c1.5,3.7,5.8,5.5,9.6,4c3.7-1.5,5.5-5.8,4-9.6c-0.8-2-2.5-3.5-4.4-4.1v-68.8  l11.9-12v-30.9c1.9-0.7,3.6-2.1,4.4-4.1C728.8,664.9,727.1,660.6,723.3,659.1z M651.6,587.5c-2.8,0-5.1-2.2-5.1-5.1  c0-2.8,2.2-5.1,5.1-5.1c2.8,0,5.2,2.3,5.1,5.1C656.7,585.2,654.4,587.5,651.6,587.5z"
   id="path280" />
<path
   class="st1"
   d="M720.3,444.6h-11.8c-0.9-1.7-2.7-2.9-4.8-2.9c-3,0-5.4,2.4-5.4,5.4s2.4,5.4,5.4,5.4c2.1,0,4-1.2,4.9-3h13.8  l70.4-70.5h7.2v-4.9h-9.2L720.3,444.6z"
   id="path282" />
<path
   class="st1"
   d="M718,434.8h-65.6l-26.5-26.6c0.4-0.9,0.3-2-0.5-2.8c-1-1-2.5-1-3.5,0s-1,2.5,0,3.5c0.8,0.8,1.9,0.9,2.8,0.5  l27,27h67l71-70.9H800v-1.6h-10.9L718,434.8z"
   id="path284" />
<path
   class="st1"
   d="M743.1,221.1c0,3.7,3,6.7,6.7,6.7s6.7-3,6.7-6.7s-3-6.7-6.7-6.7C746.1,214.3,743.1,217.3,743.1,221.1z   M754.9,221.1c0,2.8-2.2,5.1-5.1,5.1c-2.8,0-5.1-2.3-5.1-5.1s2.3-5.1,5.1-5.1S754.9,218.2,754.9,221.1z"
   id="path286" />
<path
   class="st1"
   d="M221.5,137.8c0,3.7,3,6.7,6.7,6.7s6.7-3,6.7-6.7s-3-6.7-6.7-6.7C224.4,131.1,221.4,134.1,221.5,137.8z   M233.3,137.9c0,2.8-2.2,5.1-5.1,5.1c-2.9,0-5.1-2.3-5.1-5.1s2.2-5.1,5.1-5.1C231,132.8,233.3,135.1,233.3,137.9z"
   id="path288" />
<path
   class="st1"
   d="M225.2,88.8c3.7,0,6.7-3.1,6.7-6.8s-3-6.7-6.7-6.7s-6.7,3.1-6.7,6.8C218.5,85.8,221.5,88.8,225.2,88.8z   M225.2,76.9c2.8,0,5.1,2.3,5.1,5.1c0,2.8-2.2,5.1-5.1,5.1c-2.8,0-5.1-2.3-5.1-5.1C220.1,79.2,222.3,76.9,225.2,76.9z"
   id="path290" />
<path
   class="st1"
   d="M177.7,91.9c3.7,0,6.7-3,6.7-6.7s-3-6.7-6.7-6.7s-6.7,3-6.7,6.7C170.9,88.9,173.9,91.9,177.7,91.9z M177.7,80.1  c2.8,0,5.1,2.3,5.1,5.1s-2.2,5.1-5.1,5.1c-2.9,0-5.1-2.3-5.1-5.1S174.8,80.1,177.7,80.1z"
   id="path292" />
<path
   class="st1"
   d="M148,131.4c-3.7,0-6.8,3-6.8,6.7s3.1,6.7,6.8,6.7s6.7-3,6.7-6.7S151.8,131.4,148,131.4z M148,143.2  c-2.9,0-5.1-2.3-5.1-5.1s2.3-5.1,5.1-5.1s5.1,2.3,5.1,5.1S150.9,143.2,148,143.2z"
   id="path294" />
<path
   class="st1"
   d="M148,159.5c-3.7,0-6.8,3-6.8,6.7s3.1,6.7,6.8,6.7s6.7-3,6.7-6.7S151.8,159.5,148,159.5z M148,171.3  c-2.9,0-5.1-2.3-5.1-5.1s2.3-5.1,5.1-5.1s5.1,2.3,5.1,5.1S150.9,171.3,148,171.3z"
   id="path296" />
<path
   class="st1"
   d="M90.8,175.1c-3.7,0-6.8,3-6.7,6.7c0,3.7,3,6.7,6.7,6.7s6.7-3,6.7-6.7S94.5,175.1,90.8,175.1z M90.8,187  c-2.9,0-5.1-2.3-5.1-5.1s2.3-5.1,5.1-5.1c2.8,0,5.1,2.3,5.1,5.1S93.6,187,90.8,187z"
   id="path298" />
<path
   class="st1"
   d="M90.8,140c-3.7,0-6.8,3.1-6.7,6.7c0,3.7,3,6.7,6.7,6.7s6.7-3,6.7-6.7S94.5,140,90.8,140z M90.8,151.9  c-2.9,0-5.1-2.4-5.1-5.1c0-2.8,2.3-5.1,5.1-5.1c2.8,0,5.1,2.3,5.1,5.1S93.6,151.9,90.8,151.9z"
   id="path300" />
<path
   class="st1"
   d="M90.8,118.4c-3.7,0-6.7,3-6.7,6.7c0,3.7,3,6.7,6.7,6.7s6.7-3,6.7-6.7S94.5,118.4,90.8,118.4z M90.8,130.3  c-2.9,0-5.1-2.3-5.1-5.1c0-2.8,2.3-5.1,5.1-5.1c2.8,0,5.1,2.3,5.1,5.1S93.6,130.3,90.8,130.3z"
   id="path302" />
<path
   class="st1"
   d="M169,172.9c3.7,0,6.7-3,6.7-6.7s-3-6.7-6.7-6.7s-6.8,3-6.7,6.7C162.3,169.9,165.3,172.9,169,172.9z M169,161.1  c2.8,0,5.1,2.3,5.1,5.1s-2.2,5.1-5.1,5.1c-2.8,0-5.1-2.3-5.1-5.1C163.9,163.4,166.2,161.1,169,161.1z"
   id="path304" />
<path
   class="st1"
   d="M144.6,92.4c3.7,0,6.7-3,6.7-6.7s-3-6.7-6.7-6.7s-6.7,3-6.7,6.7S140.9,92.4,144.6,92.4z M144.6,80.7  c2.8,0,5.1,2.3,5.1,5.1c0,2.8-2.2,5.1-5.1,5.1c-2.9,0-5.1-2.3-5.1-5.1S141.8,80.7,144.6,80.7z"
   id="path306" />
<path
   class="st1"
   d="M145.4,105.7c-3.7,0-6.7,3-6.7,6.7s3,6.7,6.7,6.7s6.7-3,6.7-6.7C152.2,108.7,149.1,105.7,145.4,105.7z   M145.4,117.6c-2.8,0-5.1-2.2-5.1-5.1s2.3-5.1,5.1-5.1s5.1,2.3,5.1,5.1C150.5,115.4,148.3,117.6,145.4,117.6z"
   id="path308" />
<path
   class="st1"
   d="M370.2,195.4c0-3.7-3-6.7-6.7-6.7s-6.7,3-6.7,6.7s3,6.7,6.7,6.7C367.2,202.1,370.2,199.1,370.2,195.4z   M358.3,195.4c0-2.8,2.2-5.1,5.1-5.1c2.8,0,5.1,2.3,5.1,5.1s-2.2,5.1-5.1,5.1C360.6,200.5,358.3,198.3,358.3,195.4z"
   id="path310" />
<path
   class="st1"
   d="M312.6,125.2c0-3.7-3-6.7-6.7-6.7s-6.7,3-6.7,6.7s3,6.7,6.7,6.7S312.6,128.9,312.6,125.2z M300.7,125.2  c0-2.8,2.2-5.1,5.1-5.1c2.8,0,5.1,2.3,5.1,5.1c0,2.8-2.2,5.1-5.1,5.1C303.1,130.3,300.7,128,300.7,125.2z"
   id="path312" />
<path
   class="st1"
   d="M294.7,125.2c0-3.7-3-6.7-6.7-6.7c-3.8,0-6.7,3-6.7,6.7s3,6.7,6.7,6.7S294.7,128.9,294.7,125.2z M282.9,125.2  c0-2.8,2.2-5.1,5.1-5.1c2.8,0,5.1,2.3,5.1,5.1c0,2.8-2.2,5.1-5.1,5.1S282.9,128,282.9,125.2z"
   id="path314" />
<path
   class="st1"
   d="M281.9,60.5c3.7,0,6.7-3,6.7-6.7s-3-6.7-6.7-6.7s-6.7,3-6.7,6.7S278.1,60.5,281.9,60.5z M281.9,48.7  c2.8,0,5.1,2.3,5.1,5.1s-2.2,5.1-5.1,5.1c-2.7,0-5.1-2.3-5.1-5.1S279,48.7,281.9,48.7z"
   id="path316" />
<path
   class="st1"
   d="M303,47.2c3.7,0,6.7-3,6.7-6.7s-3-6.7-6.7-6.7s-6.7,3.1-6.7,6.7C296.2,44.2,299.2,47.2,303,47.2z M303,35.4  c2.8,0,5.1,2.2,5.1,5.1c0,2.8-2.2,5.1-5.1,5.1c-2.8,0-5.1-2.3-5.1-5.1C297.8,37.7,300.1,35.4,303,35.4z"
   id="path318" />
<path
   class="st1"
   d="M287.6,30.9c3.7,0,6.7-3,6.7-6.7s-3-6.7-6.7-6.7s-6.7,3-6.7,6.7C280.8,27.9,283.8,30.9,287.6,30.9z M287.6,19.1  c2.8,0,5.1,2.3,5.1,5.1s-2.2,5.1-5.1,5.1c-2.8,0-5.1-2.3-5.1-5.1S284.8,19.1,287.6,19.1z"
   id="path320" />
<path
   class="st1"
   d="M149.6,37.1c3.7,0,6.8-3,6.8-6.7s-3-6.8-6.7-6.8s-6.7,3-6.8,6.7C142.9,34,145.9,37.1,149.6,37.1z M149.7,25.3  c2.8,0,5.1,2.2,5.1,5.1c0,2.8-2.2,5.1-5.1,5.1c-2.8,0-5.1-2.4-5.1-5.1C144.6,27.6,146.8,25.3,149.7,25.3z"
   id="path322" />
<path
   class="st1"
   d="M126.9,37.1c3.7,0,6.8-3,6.8-6.7s-3-6.8-6.7-6.8s-6.7,3-6.8,6.7C120.2,34,123.2,37.1,126.9,37.1z M127,25.3  c2.8,0,5.1,2.2,5.1,5.1c0,2.8-2.2,5.1-5.1,5.1c-2.8,0-5.1-2.4-5.1-5.1C121.9,27.6,124.1,25.3,127,25.3z"
   id="path324" />
<path
   class="st1"
   d="M390.4,202.1c3.7,0,6.7-3,6.7-6.7s-3-6.7-6.7-6.7s-6.7,3-6.7,6.7S386.7,202.1,390.4,202.1z M390.4,190.3  c2.8,0,5.1,2.3,5.1,5.1s-2.2,5.1-5.1,5.1c-2.7,0-5.1-2.3-5.1-5.1S387.5,190.3,390.4,190.3z"
   id="path326" />
<path
   class="st1"
   d="M537.1,221.3c0,3.7,3,6.7,6.7,6.7s6.7-3,6.7-6.7s-3-6.7-6.7-6.7S537.1,217.6,537.1,221.3z M548.9,221.3  c0,2.8-2.2,5.1-5.1,5.1c-2.8,0-5.2-2.3-5.1-5.1c0-2.8,2.3-5.1,5.1-5.1S548.9,218.4,548.9,221.3z"
   id="path328" />
<path
   class="st1"
   d="M557,221.3c0,3.7,3,6.7,6.7,6.7s6.7-3,6.7-6.7s-3-6.7-6.7-6.7C560.1,214.6,557,217.6,557,221.3z M568.9,221.3  c0,2.8-2.2,5.1-5.1,5.1c-2.8,0-5.1-2.3-5.1-5.1s2.3-5.1,5.1-5.1S568.9,218.4,568.9,221.3z"
   id="path330" />
<path
   class="st1"
   d="M570.5,292c0-3.7-3-6.7-6.7-6.7s-6.7,3-6.7,6.7s3,6.7,6.7,6.7S570.5,295.7,570.5,292z M558.7,292.1  c0-2.8,2.3-5.1,5.1-5.1s5.1,2.2,5.1,5.1c0,2.8-2.2,5.1-5.1,5.1C561,297.2,558.7,294.9,558.7,292.1z"
   id="path332" />
<path
   class="st1"
   d="M563.8,318.8c3.7,0,6.7-3,6.7-6.7s-3-6.7-6.7-6.7s-6.7,3-6.7,6.7C557,315.8,560,318.8,563.8,318.8z   M563.8,306.9c2.8,0,5.1,2.2,5.1,5.1c0,2.8-2.2,5.1-5.1,5.1c-2.8,0-5.1-2.3-5.1-5.1C558.7,309.2,561,306.9,563.8,306.9z"
   id="path334" />
<path
   class="st1"
   d="M612.1,312c0,3.7,3,6.7,6.7,6.7s6.7-3,6.7-6.7s-3-6.7-6.7-6.7C615.2,305.3,612.1,308.3,612.1,312z M623.9,312  c0,2.8-2.2,5.1-5.1,5.1c-2.7,0-5.1-2.3-5.1-5.1c0-2.8,2.3-5.1,5.1-5.1S623.9,309.2,623.9,312z"
   id="path336" />
<path
   class="st1"
   d="M607.8,312c0-3.7-3-6.7-6.7-6.7s-6.7,3-6.7,6.7s3,6.7,6.7,6.7C604.8,318.8,607.8,315.8,607.8,312z M595.9,312  c0-2.8,2.2-5.1,5.1-5.1c2.8,0,5.1,2.2,5.1,5.1c0,2.8-2.2,5.1-5.1,5.1C598.2,317.1,595.9,314.8,595.9,312z"
   id="path338" />
<path
   class="st1"
   d="M601,336c3.7,0,6.7-3,6.7-6.7s-3-6.7-6.7-6.7s-6.7,3.1-6.7,6.7C594.3,333,597.3,336,601,336z M601,324.2  c2.8,0,5.1,2.2,5.1,5.1c0,2.8-2.2,5.1-5.1,5.1c-2.8,0-5.1-2.3-5.1-5.1S598.1,324.2,601,324.2z"
   id="path340" />
<path
   class="st1"
   d="M582.2,318.8c3.7,0,6.7-3,6.7-6.7s-3-6.7-6.7-6.7s-6.7,3-6.7,6.7C575.4,315.8,578.4,318.8,582.2,318.8z   M582.2,306.9c2.8,0,5.1,2.2,5.1,5.1c0,2.8-2.2,5.1-5.1,5.1s-5.2-2.3-5.1-5.1C577.1,309.2,579.3,306.9,582.2,306.9z"
   id="path342" />
<path
   class="st1"
   d="M564.3,342c-3.7,0-6.7,3-6.7,6.7s3,6.7,6.7,6.7s6.7-3,6.7-6.7S568,342,564.3,342z M564.3,353.9  c-2.8,0-5.1-2.3-5.1-5.1c0-2.8,2.3-5.1,5.1-5.1s5.1,2.2,5.1,5.1C569.4,351.6,567.2,353.9,564.3,353.9z"
   id="path344" />
<path
   class="st1"
   d="M564.3,359.8c-3.7,0-6.7,3-6.7,6.7s3,6.7,6.7,6.7s6.7-3,6.7-6.7S568,359.8,564.3,359.8z M564.3,371.7  c-2.8,0-5.1-2.2-5.1-5.1c0-2.8,2.3-5.1,5.1-5.1s5.1,2.2,5.1,5.1C569.4,369.4,567.2,371.7,564.3,371.7z"
   id="path346" />
<path
   class="st1"
   d="M582.7,359.8c-3.7,0-6.7,3-6.7,6.7s3,6.7,6.7,6.7s6.7-3,6.7-6.7S586.4,359.8,582.7,359.8z M582.7,371.7  c-2.8,0-5.2-2.2-5.1-5.1c0-2.8,2.2-5.1,5.1-5.1c2.8,0,5.1,2.2,5.1,5.1C587.8,369.4,585.6,371.7,582.7,371.7z"
   id="path348" />
<path
   class="st1"
   d="M582.7,378.2c-3.7,0-6.7,3-6.7,6.7s3,6.7,6.7,6.7s6.7-3,6.7-6.7S586.4,378.2,582.7,378.2z M582.7,390.1  c-2.8,0-5.2-2.3-5.1-5.1c0-2.8,2.2-5.1,5.1-5.1c2.8,0,5.1,2.2,5.1,5.1C587.8,387.8,585.6,390.1,582.7,390.1z"
   id="path350" />
<path
   class="st1"
   d="M582.7,396.5c-3.7,0-6.7,3-6.7,6.7s3,6.7,6.7,6.7s6.7-3,6.7-6.7S586.4,396.5,582.7,396.5z M582.7,408.4  c-2.8,0-5.1-2.3-5.1-5.1c0-2.8,2.2-5.1,5.1-5.1c2.8,0,5.1,2.3,5.1,5.1S585.6,408.4,582.7,408.4z"
   id="path352" />
<path
   class="st1"
   d="M582.7,428.9c3.7,0,6.7-3,6.7-6.7s-3-6.7-6.7-6.7s-6.7,3.1-6.7,6.7C576,425.9,579,428.9,582.7,428.9z   M582.7,417.1c2.8,0,5.1,2.2,5.1,5.1c0,2.8-2.2,5.1-5.1,5.1c-2.8,0-5.2-2.4-5.1-5.1C577.6,419.4,579.8,417.1,582.7,417.1z"
   id="path354" />
<path
   class="st1"
   d="M601.5,428.9c3.7,0,6.7-3,6.7-6.7s-3-6.7-6.7-6.7s-6.7,3.1-6.7,6.7C594.8,425.9,597.8,428.9,601.5,428.9z   M601.5,417.1c2.8,0,5.1,2.2,5.1,5.1c0,2.8-2.2,5.1-5.1,5.1c-2.7,0-5.1-2.4-5.1-5.1C596.4,419.4,598.7,417.1,601.5,417.1z"
   id="path356" />
<path
   class="st1"
   d="M515.5,204.1c0-3.7-3-6.7-6.7-6.7c-3.8,0-6.8,3-6.7,6.7c0,3.7,3,6.7,6.7,6.7S515.5,207.8,515.5,204.1z   M508.7,209.2c-2.9,0-5.1-2.3-5.1-5.1s2.3-5.1,5.1-5.1s5.1,2.3,5.1,5.1S511.6,209.2,508.7,209.2z"
   id="path358" />
<path
   class="st1"
   d="M196.6,144.5c3.7,0,6.7-3,6.7-6.7s-3-6.7-6.7-6.7s-6.7,3.1-6.7,6.7C189.9,141.5,192.9,144.5,196.6,144.5z   M196.6,132.8c2.8,0,5.1,2.3,5.1,5.1s-2.2,5.1-5.1,5.1c-2.8,0-5.1-2.3-5.1-5.1S193.7,132.8,196.6,132.8z"
   id="path360" />
<path
   class="st1"
   d="M172.3,144.5c3.7,0,6.7-3,6.7-6.7s-3-6.7-6.7-6.7c-3.8,0-6.8,3.1-6.7,6.7C165.6,141.5,168.6,144.5,172.3,144.5z   M172.3,132.8c2.8,0,5.1,2.3,5.1,5.1s-2.2,5.1-5.1,5.1c-2.9,0-5.1-2.3-5.1-5.1S169.4,132.8,172.3,132.8z"
   id="path362" />
<path
   class="st1"
   d="M732.3,227.8c3.7,0,6.7-3,6.7-6.7s-3-6.7-6.7-6.7s-6.7,3-6.7,6.7C725.5,224.8,728.5,227.8,732.3,227.8z   M732.3,216c2.8,0,5.1,2.2,5.1,5.1c0,2.8-2.2,5.1-5.1,5.1c-2.8,0-5.1-2.3-5.1-5.1C727.1,218.2,729.4,216,732.3,216z"
   id="path364" />
<path
   class="st1"
   d="M626.2,240.1l13.5-13.5h28.5l3.3-3.3h5.6l14-14c1.3,0.4,2.7,0.2,3.8-0.9c1.4-1.4,1.4-3.7,0-5.2  c-1.4-1.4-3.7-1.4-5.2,0c-1,1-1.3,2.5-0.9,3.8l-13,13h-5.7l-3.3,3.3h-28.5l-13.5,13.6h-48.3L559,254.4v5.8c-1.2,0.6-2,1.8-2,3.3  c0,2,1.6,3.7,3.7,3.7c2,0,3.7-1.6,3.7-3.7c0-1.4-0.8-2.7-2-3.3v-4.4l15.7-15.7L626.2,240.1L626.2,240.1z"
   id="path366" />
<path
   class="st1"
   d="M688.9,233.3c2,0,3.7-1.6,3.7-3.7c0-2-1.6-3.7-3.7-3.7c-1.5,0-2.7,0.9-3.3,2.1h-11.8l-3.7,3.8h-28.7L620.2,253  h-7.1c-0.6-1.2-1.8-2.1-3.3-2.1c-2,0-3.7,1.6-3.7,3.7s1.6,3.7,3.7,3.7c1.4,0,2.7-0.8,3.3-2h8.5l21.2-21.2h28.6l3.8-3.8h10.5  C686.2,232.5,687.5,233.3,688.9,233.3z"
   id="path368" />
<path
   class="st1"
   d="M590.6,259.5c-1-1-2.5-1-3.5,0s-1,2.5,0,3.5c0.8,0.8,1.9,0.9,2.8,0.5l2.7,2.7h26.8l27.2-27.2h17.5l3.2,3.2h4  c0.3,0.9,1.2,1.6,2.3,1.6c1.3,0,2.4-1.1,2.4-2.4c0-1.3-1.1-2.4-2.4-2.4c-1,0-1.9,0.7-2.3,1.6H668l-3.3-3.2h-18.8l-27.3,27.3h-25.5  l-2.2-2.2C591.5,261.4,591.3,260.3,590.6,259.5z"
   id="path370" />
<path
   class="st1"
   d="M663,250.1c-0.3,1-0.1,2.1,0.6,2.8c1,1,2.8,1,3.9,0c1-1,1-2.8,0-3.9c-0.7-0.7-1.8-0.9-2.8-0.6l-4.9-4.9H647  l-28.7,28.7h-9.6c-0.4-0.9-1.3-1.6-2.5-1.6c-1.5,0-2.7,1.2-2.7,2.7c0,1.6,1.2,2.7,2.7,2.7c1.1,0,2-0.6,2.4-1.5h10.7l28.6-28.7h10.8  L663,250.1z"
   id="path372" />
<path
   class="st1"
   d="M647.6,256.8c0.4,0.9,1.4,1.6,2.5,1.6c1.5,0,2.7-1.2,2.7-2.7c0-1.5-1.2-2.7-2.7-2.7c-1.1,0-2,0.6-2.4,1.5h-2.9  L614,285.1h-17.6l-3.9-3.9c0.3-1,0.1-2.1-0.6-2.8c-1-1-2.8-1-3.9,0c-1,1-1,2.8,0,3.9c0.7,0.7,1.8,0.9,2.7,0.7l4.6,4.6H615l30.8-30.8  L647.6,256.8L647.6,256.8z"
   id="path374" />
<path
   class="st1"
   d="M74.4,629.9c0-1.5-1.2-2.7-2.7-2.7c-1.1,0-2,0.6-2.4,1.5h-2.9l-30.8,30.8H18l-3.9-3.9c0.3-1,0.1-2.1-0.6-2.8  c-1-1-2.8-1-3.9,0c-1,1-1,2.8,0,3.9c0.7,0.7,1.8,0.9,2.7,0.7l4.6,4.6h19.6l30.9-31h1.8c0.4,0.9,1.4,1.6,2.5,1.6  C73.1,632.6,74.4,631.4,74.4,629.9z"
   id="path376" />
<path
   class="st1"
   d="M483.3,389c-1,0-1.9,0.7-2.3,1.6h-3.3l-3.3-3.2h-18.8l-27.3,27.3H403l-2.2-2.2c0.4-0.9,0.3-2-0.5-2.8  c-1-1-2.5-1-3.5,0s-1,2.5,0,3.5c0.8,0.8,1.9,0.9,2.8,0.5l2.7,2.7h26.8l27.2-27.2h17.5l3.2,3.2h4c0.3,0.9,1.2,1.6,2.3,1.6  c1.3,0,2.4-1.1,2.4-2.4S484.7,389,483.3,389z"
   id="path378" />
<path
   class="st1"
   d="M474.3,398.5l-4.9-4.9h-12.8L428,422.3h-9.6c-0.4-0.9-1.3-1.6-2.5-1.6c-1.5,0-2.7,1.2-2.7,2.7  c0,1.6,1.2,2.7,2.7,2.7c1.1,0,2-0.6,2.4-1.5H429l28.6-28.7h10.8l4.2,4.2c-0.3,1-0.1,2.1,0.6,2.8c1,1,2.8,1,3.9,0c1-1,1-2.8,0-3.9  C476.4,398.4,475.3,398.2,474.3,398.5z"
   id="path380" />
<path
   class="st1"
   d="M401.5,428.5c-1-1-2.8-1-3.9,0c-1,1-1,2.8,0,3.9c0.7,0.7,1.8,0.9,2.7,0.7l4.6,4.6h19.6l30.8-30.8h1.8  c0.4,0.9,1.4,1.6,2.5,1.6c1.5,0,2.7-1.2,2.7-2.7s-1.2-2.7-2.7-2.7c-1.1,0-2,0.6-2.4,1.5h-2.9l-30.8,30.8h-17.6l-3.9-3.9  C402.5,430.4,402.3,429.3,401.5,428.5z"
   id="path382" />
<path
   class="st1"
   d="M588.3,208.1c-1-1-2.5-1-3.5,0s-1,2.5,0,3.5c0.8,0.8,1.9,0.9,2.8,0.4l4.7,4.7h71.1l44.5-44.5v-51.3l5.4-5.4  h40.3c0.3,0.9,1.2,1.6,2.3,1.6c1.3,0,2.4-1.1,2.4-2.4s-1.1-2.4-2.4-2.4c-1.1,0-2,0.7-2.3,1.6h-41l-6.3,6.3v51.2l-43.5,43.5H593  l-4.2-4.2C589.2,209.9,589,208.8,588.3,208.1z"
   id="path384" />
<path
   class="st1"
   d="M746.2,104.6l-4.8,4.9h-34.8l-6.2,6.1v34.5l-55.2,55.2h-36.8c-0.3-0.6-0.9-1-1.6-1c-1,0-1.8,0.9-1.8,1.8  c0,1,0.9,1.8,1.8,1.8c0.7,0,1.3-0.4,1.6-1H646l56.2-56.1v-34.4l5.2-5.2H742l4.8-4.8h10.6l4.2-4.3c0.7,0.2,1.4,0.1,1.9-0.4  c0.7-0.7,0.7-1.9,0-2.6s-1.9-0.7-2.6,0c-0.5,0.5-0.7,1.2-0.4,1.9l-3.8,3.8h-10.5V104.6z"
   id="path386" />
<path
   class="st1"
   d="M712.9,424h-29.2l-11.4-11.4h-14.5l-9.8-9.8c0.4-0.9,0.3-2-0.5-2.8c-1-1-2.5-1-3.5,0s-1,2.5,0,3.5  c0.8,0.8,1.9,0.9,2.8,0.5l10.3,10.3h14.5l11.4,11.4h30.6l70-70H800v-1.6h-17L712.9,424z"
   id="path388" />
<path
   class="st1"
   d="M706.3,413.6h-14.7L683,405c0.4-0.9,0.3-2-0.5-2.8c-1-1-2.5-1-3.5,0s-1,2.5,0,3.5c0.8,0.8,1.9,0.9,2.8,0.5  l9.1,9.1H707l70.8-70.8H800v-1.6h-23L706.3,413.6z"
   id="path390" />
<path
   class="st1"
   d="M712.4,390h-34.6l-5.8-5.8h-7.7c-0.3-0.9-1.2-1.6-2.3-1.6c-1.3,0-2.4,1.1-2.4,2.4s1.1,2.4,2.4,2.4  c1,0,1.9-0.7,2.3-1.6h7l5.8,5.8h36l59.4-59.4H800v-1.6h-28.1L712.4,390z"
   id="path392" />
<path
   class="st1"
   d="M707.1,379.2h-6.8c-0.3-0.9-1.2-1.6-2.3-1.6c-1.3,0-2.4,1.1-2.4,2.4s1.1,2.4,2.4,2.4c1,0,1.9-0.7,2.3-1.6h7.4  l59.8-59.8H800v-1.6h-33.2L707.1,379.2z"
   id="path394" />
<path
   class="st1"
   d="M761.6,307.1l-60.5,60.5h-34.9l-8.6-8.6c0.5-0.9,0.3-2-0.5-2.8c-1-1-2.5-1-3.5,0s-1,2.5,0,3.5  c0.8,0.8,1.9,0.9,2.8,0.5l9,9h36.3l60.5-60.5H788l11.9-11.9v-2.3l-12.6,12.6L761.6,307.1L761.6,307.1z"
   id="path396" />
<path
   class="st1"
   d="M709.2,15.4l-3.3,3.3v14.1l-5.8,5.8h-16l-9.3,9.3c-0.9-0.4-2.1-0.3-2.8,0.5c-1,1-1,2.5,0,3.5s2.5,1,3.5,0  c0.8-0.8,0.9-1.9,0.5-2.8l8.9-8.8h15.9l6.8-6.7V19.3l2.4-2.4h43.7l10.6-10.6c0.3,0.1,0.7,0.2,1,0.2c1.3,0,2.4-1.1,2.4-2.4  s-1.1-2.4-2.4-2.4c-1.3,0-2.4,1.1-2.4,2.4c0,0.4,0.1,0.7,0.3,1.1L753,15.4H709.2z"
   id="path398" />
<path
   class="st1"
   d="M727.1,234.1l-3.3,3.3v14.1l-5.8,5.8h-16l-9.3,9.3c-0.9-0.4-2.1-0.3-2.8,0.5c-1,1-1,2.5,0,3.5s2.5,1,3.5,0  c0.8-0.8,0.9-1.9,0.5-2.8l8.9-8.8h15.9l6.8-6.7V238l2.4-2.4h43.7l10.6-10.6c0.3,0.1,0.7,0.2,1,0.2c1.3,0,2.4-1.1,2.4-2.4  c0-1.3-1.1-2.4-2.4-2.4s-2.4,1.1-2.4,2.4c0,0.4,0.1,0.7,0.3,1.1L771,234L727.1,234.1L727.1,234.1z"
   id="path400" />
<path
   class="st1"
   d="M694.2,20.3v2.4c-0.9,0.3-1.6,1.2-1.6,2.3c0,1.3,1.1,2.4,2.4,2.4s2.4-1.1,2.4-2.4c0-1.1-0.7-2-1.6-2.3V21  l11.1-11.1c0.2,0,0.4,0.1,0.6,0.1c1.3,0,2.4-1.1,2.4-2.4s-1.1-2.4-2.4-2.4c-1.3,0-2.4,1.1-2.4,2.4c0,0.5,0.2,1,0.5,1.4L694.2,20.3z"
   id="path402" />
<path
   class="st1"
   d="M682.2,25.5c0.8-0.8,0.9-1.9,0.5-2.8l17-17c0.3,0.1,0.6,0.2,0.9,0.2c1.3,0,2.4-1.1,2.4-2.4s-1.1-2.4-2.4-2.4  s-2.4,1.1-2.4,2.4c0,0.5,0.1,0.9,0.4,1.2l-16.9,16.9c-0.9-0.4-2-0.3-2.8,0.4c-1,1-1,2.5,0,3.5C679.8,26.4,681.3,26.4,682.2,25.5z"
   id="path404" />
<path
   class="st1"
   d="M538.6,213.6l6.8-6.7v-14.2l2.4-2.4h43.7l10.6-10.6c0.3,0.1,0.7,0.2,1,0.2c1.3,0,2.4-1.1,2.4-2.4  c0-1.3-1.1-2.4-2.4-2.4c-1.3,0-2.4,1.1-2.4,2.4c0,0.4,0.1,0.7,0.3,1.1l-10.1,10.1H547l-3.3,3.3v14.1l-5.8,5.8h-16l-9.3,9.3  c-0.9-0.4-2.1-0.3-2.8,0.5c-1,1-1,2.5,0,3.5s2.5,1,3.5,0c0.8-0.8,0.9-1.9,0.5-2.8l8.9-8.8L538.6,213.6L538.6,213.6z"
   id="path406" />
<path
   class="st1"
   d="M535,198c-0.9,0.3-1.6,1.2-1.6,2.3c0,1.3,1.1,2.4,2.4,2.4c1.3,0,2.4-1.1,2.4-2.4c0-1.1-0.7-2-1.6-2.3v-1.8  l11.1-11.1c0.2,0,0.4,0.1,0.6,0.1c1.3,0,2.4-1.1,2.4-2.4c0-1.3-1.1-2.4-2.4-2.4c-1.3,0-2.4,1.1-2.4,2.4c0,0.5,0.2,1,0.5,1.4  L535,195.6V198z"
   id="path408" />
<path
   class="st1"
   d="M752.9,199.6c-0.9,0.3-1.6,1.2-1.6,2.3c0,1.3,1.1,2.4,2.4,2.4s2.4-1.1,2.4-2.4c0-1.1-0.7-2-1.6-2.3v-1.8  l11.1-11.1c0.2,0,0.4,0.1,0.6,0.1c1.3,0,2.4-1.1,2.4-2.4c0-1.3-1.1-2.4-2.4-2.4c-1.3,0-2.4,1.1-2.4,2.4c0,0.5,0.2,1,0.5,1.4  L753,197.2L752.9,199.6L752.9,199.6L752.9,199.6z"
   id="path410" />
<path
   class="st1"
   d="M570.7,158.8c-1,1-1,2.5,0,3.5s2.5,1,3.5,0c0.8-0.8,0.9-1.9,0.5-2.8l17-17c0.3,0.1,0.6,0.2,0.9,0.2  c1.3,0,2.4-1.1,2.4-2.4s-1.1-2.4-2.4-2.4s-2.4,1.1-2.4,2.4c0,0.5,0.1,0.9,0.4,1.2l-16.9,16.9C572.6,157.9,571.5,158.1,570.7,158.8z"
   id="path412" />
<path
   class="st1"
   d="M709.6,98.9c-1,1-1,2.5,0,3.5s2.5,1,3.5,0c0.8-0.8,0.9-1.9,0.5-2.8l17-17c0.3,0.1,0.6,0.2,0.9,0.2  c1.3,0,2.4-1.1,2.4-2.4s-1.1-2.4-2.4-2.4c-1.3,0-2.4,1.1-2.4,2.4c0,0.5,0.1,0.9,0.4,1.2l-16.9,16.9  C711.5,98.1,710.4,98.2,709.6,98.9z"
   id="path414" />
<path
   class="st1"
   d="M759.6,134.1c1.3,0,2.4-1.1,2.4-2.4s-1.1-2.4-2.4-2.4c-1.3,0-2.4,1.1-2.4,2.4c0,0.5,0.1,0.9,0.4,1.2l-16.9,16.9  c-0.9-0.4-2-0.3-2.8,0.4c-1,1-1,2.5,0,3.5s2.5,1,3.5,0c0.8-0.8,0.9-1.9,0.5-2.8l17-17C759,134,759.3,134.1,759.6,134.1z"
   id="path416" />
<path
   class="st1"
   d="M516,422.8c0.9-0.3,1.6-1.2,1.6-2.3c0-1.3-1.1-2.4-2.4-2.4c-1.3,0-2.4,1.1-2.4,2.4c0,1,0.6,1.9,1.6,2.3v4.7  l-8.4,8.4h-10.5l-6.5,6.5V456c-0.9,0.3-1.6,1.2-1.6,2.3c0,1.3,1.1,2.4,2.4,2.4s2.4-1.1,2.4-2.4c0-1-0.7-1.9-1.6-2.3v-12.9l5.6-5.6  h10.6l9.4-9.4v-5.3L516,422.8L516,422.8z"
   id="path418" />
<path
   class="st1"
   d="M327.8,555.6l7.5,7.5h13.2l3.8-3.8c0.9,0.4,2,0.3,2.7-0.5c0.9-0.9,0.9-2.5,0-3.4s-2.5-0.9-3.4,0  c-0.7,0.7-0.9,1.8-0.5,2.7l-3.4,3.4h-11.9l-7.5-7.5h-9.2l-9.5,9.5c-0.9-0.4-2-0.3-2.8,0.5c-0.9,0.9-0.9,2.5,0,3.4s2.5,0.9,3.4,0  c0.7-0.7,0.9-1.8,0.5-2.7l9.1-9.1L327.8,555.6L327.8,555.6z"
   id="path420" />
<path
   class="st1"
   d="M473.9,448.3l-2.9,2.8c-0.9-0.4-2-0.3-2.8,0.4c-1,1-1,2.5,0,3.5s2.5,1,3.5,0c0.8-0.8,0.9-1.8,0.5-2.7l3.4-3.4  v-9.3l21.6-21.6c0.3,0.1,0.6,0.2,1,0.2c1.3,0,2.4-1.1,2.4-2.4s-1.1-2.4-2.4-2.4s-2.4,1.1-2.4,2.4c0,0.4,0.1,0.8,0.3,1.2L474,439v9.3  H473.9z"
   id="path422" />
<path
   class="st1"
   d="M475,483c-0.9,0.3-1.6,1.2-1.6,2.3c0,1.3,1.1,2.4,2.4,2.4s2.4-1.1,2.4-2.4c0-1.1-0.7-2-1.6-2.3v-1.8l11.1-11.1  c0.2,0,0.4,0.1,0.6,0.1c1.3,0,2.4-1.1,2.4-2.4s-1.1-2.4-2.4-2.4s-2.4,1.1-2.4,2.4c0,0.5,0.2,1,0.5,1.4L475,480.6V483z"
   id="path424" />
<path
   class="st1"
   d="M480.6,534.3c0.2,0,0.4,0.1,0.6,0.1c1.3,0,2.4-1.1,2.4-2.4s-1.1-2.4-2.4-2.4s-2.4,1.1-2.4,2.4  c0,0.5,0.2,1,0.5,1.4L468,544.8v2.4c-0.9,0.3-1.6,1.2-1.6,2.3c0,1.3,1.1,2.4,2.4,2.4s2.4-1.1,2.4-2.4c0-1.1-0.7-2-1.6-2.3v-1.8  L480.6,534.3z"
   id="path426" />
<path
   class="st1"
   d="M459.8,433.6c-1,1-1,2.5,0,3.5s2.5,1,3.5,0c0.8-0.8,0.9-1.9,0.5-2.8l17-17c0.3,0.1,0.6,0.2,0.9,0.2  c1.3,0,2.4-1.1,2.4-2.4s-1.1-2.4-2.4-2.4s-2.4,1.1-2.4,2.4c0,0.5,0.1,0.9,0.4,1.2l-16.9,16.9C461.7,432.8,460.6,432.9,459.8,433.6z"
   id="path428" />
<path
   class="st1"
   d="M589.5,21.7v13.5l-5,5v10l-1.3,1.3c-0.9-0.4-2-0.3-2.8,0.5c-1,1-1,2.5,0,3.5s2.5,1,3.5,0  c0.8-0.8,0.9-1.9,0.5-2.8l1.8-1.7V41l5-5V22.4L612,1.6c0.3,0.2,0.7,0.3,1.1,0.3c1.1,0,2.1-0.8,2.3-1.8h-4.7c0,0.1,0.1,0.3,0.1,0.4  L589.5,21.7z"
   id="path430" />
<path
   class="st1"
   d="M606.4,0h-1.5c0.2,0.1,0.5,0.1,0.8,0.1C605.9,0.1,606.2,0.1,606.4,0z"
   id="path432" />
<path
   class="st1"
   d="M580.8,30.8l-2.9,2.9c-0.9-0.4-2-0.3-2.8,0.5c-1,1-1,2.5,0,3.5s2.5,1,3.5,0c0.8-0.8,0.9-1.9,0.5-2.8l3.4-3.4  v-9.3L604.6,0h-2.4l-21.5,21.5v9.3H580.8z"
   id="path434" />
<path
   class="st1"
   d="M561.4,33.3V59l6.3,6.3v31.9L507,157.9v4.2c-0.9,0.3-1.6,1.2-1.6,2.3c0,1.3,1.1,2.4,2.4,2.4s2.4-1.1,2.4-2.4  c0-1.1-0.7-2-1.6-2.3v-3.5l60.6-60.7V64.6l-6.2-6.3V33.9l30.2-30.2c0.3,0.1,0.6,0.2,0.9,0.2c1.3,0,2.4-1.1,2.4-2.4  c0-0.5-0.2-1-0.5-1.4h-3.9c-0.3,0.4-0.5,0.9-0.5,1.4c0,0.4,0.1,0.8,0.3,1.2L561.4,33.3z"
   id="path436" />
<path
   class="st1"
   d="M555.3,90.7l-29.5,29.6v12.6L497.5,161v12.2l8,8c-0.5,0.4-0.8,1.1-0.8,1.8c0,1.3,1.1,2.4,2.4,2.4  s2.4-1.1,2.4-2.4c0-1.3-1-2.4-2.4-2.4l-8.1-8v-10.9l28.1-28.2V121l29.6-29.6V32.3L589.2,0H587l-31.7,31.6V90.7z"
   id="path438" />
<path
   class="st1"
   d="M541.7,61.6l-7.8,7.8v16.5l-1.1,1.1c-0.9-0.4-2-0.3-2.8,0.5c-1,1-1,2.5,0,3.5s2.5,1,3.5,0  c0.8-0.8,0.9-1.9,0.5-2.8l1.5-1.5V70l7.9-7.8V37l36.9-37H578l-36.3,36.3V61.6z"
   id="path440" />
<path
   class="st1"
   d="M488.3,161.3c-0.9,0.3-1.6,1.2-1.6,2.3c0,1.3,1.1,2.4,2.4,2.4s2.4-1.1,2.4-2.4c0-1-0.7-1.9-1.6-2.3v-4.8l31-31  V84.6l6.9-7V41.8L569.7,0h-2.2l-41.1,41.1V77l-7,7v40.8l-31,31v5.5H488.3z"
   id="path442" />
<path
   class="st1"
   d="M445.8,169.7l-12,11.9v15.8l7.5,7.5c-0.7,1.9-0.2,4.2,1.3,5.7c2.2,2.2,5.6,2.2,7.8,0c2.2-2.2,2.2-5.6,0-7.8  c-1.5-1.5-3.7-2-5.6-1.3l-6.1-6.1v-11.8l12-11.9v-37.1l17.3-17.3V43.9l5.2-5.2V0h-4.8v36.7l-5.2,5.2v73.4l-17.3,17.2L445.8,169.7  L445.8,169.7z"
   id="path444" />
<path
   class="st1"
   d="M423.8,107.8l5.1-5v-6.6c0.9-0.3,1.6-1.2,1.6-2.3c0-1.3-1.1-2.4-2.4-2.4s-2.4,1.1-2.4,2.4c0,1.1,0.7,2,1.6,2.3  v5.8l-5.1,5.1v71.1l-2.5,2.6c-0.9-0.4-2-0.3-2.8,0.5c-1,1-1,2.5,0,3.5s2.5,1,3.5,0c0.8-0.8,0.9-1.9,0.4-2.8l3-3L423.8,107.8  L423.8,107.8z"
   id="path446" />
<path
   class="st1"
   d="M403.6,194.3l7.3,7.3c-0.4,0.9-0.3,2.1,0.5,2.8c1,1,2.5,1,3.5,0s1-2.5,0-3.5c-0.8-0.8-1.9-0.9-2.8-0.5l-6.9-6.8  V66.1l22.5-22.5V0h-1.6v42.9l-22.5,22.5V194.3z"
   id="path448" />
<path
   class="st1"
   d="M411.1,122.7l-2.6,2.7v39.2c-0.9,0.3-1.6,1.2-1.6,2.3c0,1.3,1.1,2.4,2.4,2.4s2.4-1.1,2.4-2.4  c0-1.1-0.7-2-1.6-2.3v-38.5l2.6-2.6V80.1l22.7-22.6V0h-1.6v56.8l-22.7,22.6L411.1,122.7L411.1,122.7z"
   id="path450" />
<path
   class="st1"
   d="M434.4,158.9c-0.9,0.3-1.6,1.2-1.6,2.3c0,1.3,1.1,2.4,2.4,2.4s2.4-1.1,2.4-2.4c0-1-0.7-1.9-1.6-2.3v-34.1  l18.8-18.9V0h-1.6v105.3l-18.9,18.9v34.7L434.4,158.9L434.4,158.9z"
   id="path452" />
<path
   class="st1"
   d="M472.5,124.7l-12.6,12.6v42.3l-3.9,3.9c-0.9-0.5-2.1-0.3-2.8,0.4c-1,1-1,2.5,0,3.5s2.5,1,3.5,0  c0.8-0.7,0.9-1.8,0.5-2.8l4.4-4.4V138l12.6-12.6V48.5l5.5-5.6V0h-1.6v42.3l-5.6,5.6V124.7z"
   id="path454" />
<path
   class="st1"
   d="M478.6,129.9L467,141.4v48.3c-0.9,0.3-1.6,1.2-1.6,2.3c0,1.3,1.1,2.4,2.4,2.4s2.4-1.1,2.4-2.4  c0-1.1-0.7-2-1.6-2.3V142l11.5-11.5v-80l4.4-4.3V0h-1.6v45.4l-4.3,4.4L478.6,129.9L478.6,129.9z"
   id="path456" />
<path
   class="st1"
   d="M482,136.5l-10.7,10.7V174l12.8,12.8c0,0.1,0,0.1,0,0.2c0,1.3,1.1,2.4,2.4,2.4s2.4-1.1,2.4-2.4  c0-1.3-1.1-2.4-2.4-2.4c-0.6,0-1.2,0.2-1.6,0.7L473,173.4v-25.5l10.7-10.7V54.5l5.6-5.6V0h-1.6v48.2l-5.7,5.6V136.5L482,136.5z"
   id="path458" />
<path
   class="st1"
   d="M478.9,172l6.5,6.4h8.8l3.2,3.3v14.7l-3.7,3.7c-0.9-0.4-2-0.3-2.8,0.4c-1,1-1,2.5,0,3.5s2.5,1,3.5,0  c0.8-0.8,0.9-1.9,0.5-2.8l4.2-4.2v-16l-4.2-4.1H486l-5.4-5.6v-16.1l26.5-26.5V0h-1.6v128l-26.6,26.5V172z"
   id="path460" />
<path
   class="st1"
   d="M621.2,4.8v5.3l-8.4,8.4h-10.5l-6.5,6.5v13.4c-0.9,0.3-1.6,1.2-1.6,2.3c0,1.3,1.1,2.4,2.4,2.4  c1.3,0,2.4-1.1,2.4-2.4c0-1-0.7-1.9-1.6-2.3V25.8l5.6-5.6h10.5l9.4-9.4v-6c0.9-0.4,1.5-1.2,1.5-2.2c0-1.3-1.1-2.4-2.4-2.4  c-1.3,0-2.4,1.1-2.4,2.4C619.6,3.6,620.3,4.5,621.2,4.8z"
   id="path462" />
<path
   class="st1"
   d="M629.8,6v11.8l-9.2,9v10.8L584.4,74v20.4l-13.5,13.5v13.7L546.3,146h-14.5l-15.9,15.9v14.9l5.4,5.4  c-0.5,0.9-0.3,2,0.5,2.8c1,1,2.5,1,3.5,0s1-2.5,0-3.5c-0.8-0.8-1.9-0.9-2.8-0.5l-4.9-4.9v-13.5l15-15H547l25.5-25.5v-13.6L586,95  V74.7l36.3-36.3V27.6l9.2-9.1V6.2c1.1-0.3,1.9-1.2,1.9-2.4c0-1.3-1.1-2.4-2.4-2.4c-1.3,0-2.4,1.1-2.4,2.4C628.5,4.8,629,5.6,629.8,6  z"
   id="path464" />
<path
   class="st1"
   d="M637.5,5.7v13L627.2,29v9.6l-36.5,36.6v20.6l-13.9,13.8v16.1L550.6,152h-10.1l-9.1,9c-0.7-0.3-1.6-0.1-2.2,0.5  c-0.8,0.8-0.8,2.1,0,2.9c0.8,0.8,2.1,0.8,2.9,0c0.6-0.6,0.7-1.5,0.4-2.2l8.6-8.5h10.1l27.2-27.3v-16.1l13.8-13.8V75.7l36.6-36.6  v-9.5l10.3-10.3V5.7c0.9-0.3,1.6-1.2,1.6-2.3c0-1.3-1.1-2.4-2.4-2.4c-1.3,0-2.4,1.1-2.4,2.4C635.9,4.5,636.5,5.3,637.5,5.7z"
   id="path466" />
<path
   class="st1"
   d="M646.4,8.9v17.4l-8.6,8.8v10.3L618,65.1v17.6l-36.2,36.2v14L549.7,165c-0.9-0.4-2.1-0.3-2.8,0.5  c-1,1-1,2.5,0,3.5s2.5,1,3.5,0c0.8-0.8,0.9-1.9,0.4-2.9l32.5-32.5v-14l36.2-36.2V65.8L639.3,46V35.7L648,27V8.9  c0.9-0.3,1.6-1.2,1.6-2.3c0-1.3-1.1-2.4-2.4-2.4c-1.3,0-2.4,1.1-2.4,2.4C644.7,7.7,645.4,8.6,646.4,8.9z"
   id="path468" />
<path
   class="st1"
   d="M647.4,63.7L636.1,75v8.2l-18.6,18.6v19l6.9,6.7h37.4v8.3l-16.4,16.4v5.5l-3.3,3.2h-3.9l-5.2-5.2v-6.9l-5.5-5.6  h-12.6l-6,6.1v23.6l3.8,3.8v10.5l-9,9h-16.5c-0.3-0.9-1.2-1.6-2.3-1.6c-1.4,0-2.4,1-2.4,2.4s1,2.4,2.4,2.4c1.1,0,2-0.7,2.3-1.6h17.2  l9.9-9.9v-11.8l-3.8-3.8V150l5.1-5.1h11.3l4.6,4.6v6.9l6.2,6.2h5.2l4.2-4.2v-5.5l16.4-16.4v-10.6h-38.3l-5.8-5.9v-17.6l18.5-18.5  v-8.2L649,64.4V52l16.2-16.2c0.1,0.6,0.2,1.2,0.5,1.8c1.5,3.7,5.8,5.5,9.6,4c3.7-1.5,5.5-5.8,4-9.6c-0.8-2-2.5-3.5-4.4-4.1V0H670  v26.7c-0.2,0.3-0.3,0.7-0.3,1.1c0,0.1,0,0.1,0,0.2c0,0,0,0-0.1,0c-2.4,1-4,3.1-4.4,5.4l-17.9,17.9v12.4  C647.3,63.7,647.4,63.7,647.4,63.7z"
   id="path470" />
<path
   class="st1"
   d="M388.8,118.4c0.8-0.8,0.9-1.9,0.5-2.8l9.3-9.2V61.9l23-23.1V0H420v38.1l-23.1,23.1v44.6l-8.7,8.7  c-0.9-0.4-2-0.3-2.8,0.4c-1,1-1,2.5,0,3.5C386.3,119.4,387.8,119.4,388.8,118.4z"
   id="path472" />
<path
   class="st1"
   d="M328.9,74.6L342.2,88v5.1c-0.9,0.3-1.6,1.2-1.6,2.3c0,1.3,1.1,2.4,2.4,2.4s2.4-1.1,2.4-2.4c0-1-0.7-1.9-1.6-2.3  v-5.7L330,73.5c0.5-0.9,0.4-2.1-0.4-2.9c-1-0.9-2.5-0.9-3.5,0c-1,1-1,2.5,0,3.5C327,74.8,328,74.9,328.9,74.6z"
   id="path474" />
<path
   class="st1"
   d="M329.4,37.2L343,50.9l-0.1,12.4l21.5,21.6v19L348,120.3l-0.1,55.7l-9.5,9.4v8.9c-0.9,0.3-1.6,1.2-1.6,2.3  c0,1.4,1,2.4,2.4,2.4s2.4-1,2.4-2.4c0-1.1-0.6-1.9-1.6-2.3l0.1-8.2l9.4-9.4l0.2-55.8l16.4-16.3l0.1-20.4l-21.5-21.7V50.3L330.5,36  c0.3-0.8,0.1-1.8-0.6-2.5c-1-0.9-2.5-0.9-3.5,0c-1,1-1,2.5,0,3.5C327.2,37.8,328.4,37.9,329.4,37.2z"
   id="path476" />
<path
   class="st1"
   d="M330.4,25.2l22.1,22.3l-0.1,11.7l20,20.1l-0.1,27.9L357,122.5l-0.1,53.9l-12.2,12v15.1l-3.1,3.1  c-0.9-0.4-2-0.3-2.8,0.5c-1,0.9-1,2.5,0,3.5c0.9,1,2.5,1,3.5,0c0.8-0.8,0.9-1.9,0.5-2.8l3.5-3.5l0.1-15.1l12.1-12.1l0.2-53.9  l15.3-15.3l0.1-29.2l-20-20.2l0.1-11.7L331.6,24c0.5-0.9,0.3-2-0.5-2.8c-1-0.9-2.5-0.9-3.5,0c-1,1-1,2.5,0,3.5  C328.4,25.5,329.4,25.7,330.4,25.2z"
   id="path478" />
<path
   class="st1"
   d="M359.2,321.5c1,1,2.5,1,3.5,0s1-2.5,0-3.5c-0.8-0.7-1.9-0.9-2.8-0.4l-2.2-2.2h-28.2L305,291h-61.3l-13.2-13.2  h-33.8l-5.8,5.8c-0.9-0.4-2-0.3-2.7,0.5c-1,1-1,2.5,0,3.5s2.5,1,3.5,0c0.8-0.8,0.9-1.9,0.5-2.8l5.3-5.4H230l13.2,13.2h61.3  l24.4,24.4H357l1.7,1.7C358.3,319.7,358.4,320.8,359.2,321.5z"
   id="path480" />
<path
   class="st1"
   d="M182.2,216.3l43.4-43.4H260l20-19.9h2.5c0.3,1,1.2,1.6,2.3,1.6c1.4,0,2.5-1.1,2.5-2.5s-1.1-2.5-2.5-2.5  c-1.1,0-2,0.7-2.3,1.7h-3.1l-19.9,19.9H225l-43.4,43.4h-18.7L139,238.5v8.2c-1,0.3-1.6,1.2-1.6,2.3c0,1.4,1.1,2.5,2.5,2.5  s2.5-1.1,2.5-2.5c0-1.1-0.7-2-1.7-2.3v-7.5l23-23L182.2,216.3z"
   id="path482" />
<path
   class="st1"
   d="M441.8,374.7c0,1.4,1,2.4,2.4,2.4s2.4-1,2.4-2.4c0-1.1-0.7-2-1.7-2.3v-69.5l-20.4-20.5h-63.3L337,258.2h-51.1  l-14.5-14.5h-5.8L220.8,199h-9.6l-6.2,6.2v24.3l-9.8,9.8c-0.9-0.5-2-0.3-2.8,0.5c-1,1-1,2.5,0,3.5s2.5,1,3.5,0  c0.8-0.8,0.9-1.9,0.5-2.8l10.2-10.3v-24.3l5.2-5.2h8.2l44.8,44.8h5.8l14.5,14.5h51.1l24.2,24.3h63.3l19.5,19.5v68.9  C442.5,372.8,441.8,373.7,441.8,374.7z"
   id="path484" />
<path
   class="st1"
   d="M53.7,445.6h56c0.3,0.9,1.2,1.6,2.3,1.6c1.3,0,2.4-1.1,2.4-2.4s-1.1-2.4-2.4-2.4c-1,0-1.9,0.7-2.3,1.6H53  l-35.4,35.4H0v1.6h18.3L53.7,445.6z"
   id="path486" />
<path
   class="st1"
   d="M241.3,129.1c-1,1-1,2.5,0,3.5c0.8,0.8,1.9,0.9,2.8,0.5l12.7,12.6h56l15.8-15.8v-26.6l-6.3-6.4h-39.4  c-0.3-0.9-1.2-1.6-2.3-1.6c-1.3,0-2.4,1.1-2.4,2.4s1.1,2.4,2.4,2.4c1,0,1.9-0.7,2.3-1.6h38.7l5.5,5.4v25.3l-14.9,14.9h-54.7  l-12.2-12.2c0.4-0.9,0.3-2.1-0.5-2.8C243.8,128.1,242.3,128.1,241.3,129.1z"
   id="path488" />
<path
   class="st1"
   d="M288.9,200.4c-1-0.9-2.5-0.9-3.5,0c-1,1-1,2.6,0,3.5c0.5,0.5,1.1,0.7,1.7,0.7v8.3l11.2,11.1l0.1,9.2l23.5,23.4  l25-0.1l10.6,10.5l16.2-0.1l11.2,11.1l67.8-0.2l7.8,7.8l73.9-0.2l6.6-6.6c0.9,0.4,2,0.3,2.8-0.5c0.9-1,0.9-2.5,0-3.5s-2.5-0.9-3.5,0  c-0.8,0.8-0.9,1.9-0.5,2.8l-6.1,6.1l-72.5,0.2l-7.9-7.8l-67.8,0.2l-11.2-11.1h-16.2l-10.6-10.5l-25,0.1L300,232.5v-9.1l-11.2-11.1  l-0.1-8.2c0.1,0,0.1-0.1,0.2-0.1C289.9,202.9,289.9,201.4,288.9,200.4z"
   id="path490" />
<path
   class="st1"
   d="M184,323.6c0.8-0.8,0.9-1.9,0.5-2.8l6.1-6.1l72.5-0.2l7.9,7.8l67.8-0.2l11.2,11.1h16.2l10.6,10.5l25-0.1  l22.6,22.5v9.1l11.2,11.1l0.1,8.2c-0.1,0-0.1,0.1-0.2,0.1c-0.9,1-0.9,2.5,0,3.5c1,0.9,2.5,0.9,3.5,0c1-1,1-2.6,0-3.5  c-0.5-0.5-1.1-0.7-1.7-0.7v-8.3l-11.2-11.1l-0.1-9.2L402.4,342l-25,0.1l-10.6-10.5l-16.2,0.1l-11.2-11.1l-67.8,0.2l-7.8-7.8  l-73.9,0.2l-6.6,6.6c-0.9-0.4-2-0.3-2.8,0.5c-0.9,1-0.9,2.5,0,3.5C181.5,324.5,183,324.5,184,323.6z"
   id="path492" />
<path
   class="st1"
   d="M297.3,208.8c-0.2-1.3-1.5-2.2-2.8-2s-2.2,1.5-2,2.8s1.5,2.2,2.8,2c0.2,0,0.4-0.1,0.5-0.2l8.6,8.6v9.9  l21.9,21.8l23-0.1l9.9,9.9H376l10.5,10.4l63.2-0.2l13.3-13.5l41-0.1l8.3,8.2h5.6c0.4,1,1.5,1.7,2.6,1.5c1.3-0.2,2.2-1.5,2-2.8  s-1.5-2.2-2.8-2c-0.9,0.2-1.6,0.8-1.9,1.7h-4.9l-8.3-8.3l-42.3,0.1L449,270.2l-61.8,0.1l-10.5-10.4L360,260l-10-9.9l-23,0.1  l-20.9-20.8l-0.1-10l-9-8.9C297.3,209.9,297.4,209.4,297.3,208.8z"
   id="path494" />
<path
   class="st1"
   d="M303.7,209.1c-1-0.9-2.5-0.9-3.5,0c-1,1-1,2.5,0,3.5c0.8,0.7,1.9,0.9,2.8,0.5l13.1,14.1l27.6-0.1l5,5v12.7  l12.6,12.6l17.3-0.1l9.4,9.3l58.5-0.1l14.5-14.6l74.5-0.2l9-9.1c0.9,0.4,2,0.2,2.7-0.5c0.9-1,0.9-2.5,0-3.5c-1-0.9-2.5-0.9-3.5,0  c-0.8,0.7-0.9,1.9-0.4,2.8l-8.5,8.6l-74.5,0.2l-14.5,14.6l-57.3,0.2l-9.4-9.4l-17.3,0.1l-11.6-11.6l-0.1-12.8l-6-5.9l-27.5,0.1  L304,211.9C304.5,211,304.4,209.9,303.7,209.1z"
   id="path496" />
<path
   class="st1"
   d="M356,242.9l-0.1-14.4l-9.6-9.6l-25.1,0.1l-8.8-8.8l0,0c0.9-1,0.9-2.5,0-3.5c-1-0.9-2.5-0.9-3.5,0s-1,2.5,0,3.5  c0.5,0.5,1.1,0.7,1.7,0.7l9.8,9.8l25.1-0.1l8.6,8.6v14.3l7.9,7.9l20-0.1l8.8,8.8l53-0.1l14.4-14.5l63.8-0.2l4.5-4.5  c0.9,0.4,2,0.3,2.8-0.5c0.9-1,0.9-2.5,0-3.5c-1-0.9-2.5-0.9-3.5,0c-0.7,0.8-0.9,1.8-0.5,2.7l-4,4.1l-63.8,0.2l-14.3,14.5l-51.6,0.2  l-8.9-8.9l-20,0.1L356,242.9z"
   id="path498" />
<path
   class="st1"
   d="M574.1,502.2l-7.8-7.8l0.2-67.8l-11.1-11.2l0.1-16.2L545,388.5l0.1-24.9L521.6,340h-9.2l-11.1-11.2H493  c0-0.6-0.2-1.3-0.7-1.8c-1-0.9-2.5-0.9-3.5,0s-1,2.5,0,3.5c0.9,1,2.5,1,3.5,0l0.1-0.1h8.3l11.1,11.2l9.1,0.1l22.5,22.5l-0.1,25.1  l10.5,10.6V416l11.1,11.1l-0.2,67.9l7.8,7.9l-0.2,72.5l-6.2,6c-0.9-0.4-2-0.3-2.8,0.4c-1,0.9-1,2.5,0,3.5c0.9,1,2.5,1,3.5,0  c0.8-0.7,0.9-1.8,0.5-2.7l6.6-6.6L574.1,502.2z"
   id="path500" />
<path
   class="st1"
   d="M560.1,491.4l0.2-63.1l-10.4-10.5V401l-9.9-10l0.1-23l-21.7-21.9l-9.9-0.1l-8.6-8.6c0-0.1,0.1-0.1,0.1-0.2  c0.4-1.3-0.3-2.6-1.5-3.1c-1.3-0.4-2.6,0.3-3.1,1.5c-0.4,1.3,0.3,2.6,1.5,3.1c0.7,0.2,1.3,0.1,1.9-0.2l8.9,9.1h10l20.8,20.9l-0.1,23  l9.9,10l-0.1,16.7l10.4,10.5l-0.2,61.8L545,503.9l-0.1,42.3l8.3,8.2v4.9c-0.7,0.2-1.3,0.8-1.5,1.5c-0.4,1.3,0.3,2.6,1.5,3.1  c1.3,0.4,2.6-0.3,3.1-1.5c0.4-1.2-0.2-2.6-1.5-3v-5.5l-8.2-8.4l0.1-41L560.1,491.4z"
   id="path502" />
<path
   class="st1"
   d="M540.2,502.6l14.5-14.5l0.2-58.5l-9.3-9.4l0.1-17.3l-12.6-12.6l-12.7-0.1l-5-5l0.1-27.6l-14-13  c0.4-0.9,0.3-2-0.5-2.8c-1-0.9-2.5-0.9-3.5,0s-1,2.5,0,3.5c0.7,0.8,1.8,0.9,2.7,0.5l13.6,12.6l-0.1,27.6l5.9,6h12.8l11.5,11.7V421  l9.4,9.4l-0.2,57.2L538.5,502l-0.2,74.5l-8.6,8.6c-0.9-0.5-2-0.3-2.8,0.5c-1,0.9-1,2.5,0,3.5c0.9,1,2.5,1,3.5,0  c0.8-0.7,0.9-1.9,0.5-2.8l9-9L540.2,502.6z"
   id="path504" />
<path
   class="st1"
   d="M499.3,352.4c0-0.7-0.2-1.3-0.7-1.8c-1-0.9-2.6-0.9-3.5,0c-1,0.9-1,2.5,0,3.5c0.9,1,2.5,1,3.5,0l0,0l8.8,8.9  l-0.1,25.1l9.5,9.7h14.5l6.9,6.9l-0.1,19.9l8.8,9l-0.1,51.6l-14.5,14.3l-0.2,63.8l-4.1,4c-0.9-0.4-2-0.3-2.7,0.5c-1,0.9-1,2.5,0,3.5  c0.9,1,2.5,1,3.5,0c0.8-0.7,0.9-1.9,0.5-2.8l4.5-4.5l0.2-63.8l14.5-14.3l0.1-53l-8.8-8.8l0.1-20l-7.9-7.9l-14.4-0.1l-8.6-8.6  l0.1-25.1L499.3,352.4z"
   id="path506" />
<path
   class="st1"
   d="M338.4,117.6l-0.2,49.2c-0.9,0.3-1.6,1.2-1.6,2.2c0,1.3,1.1,2.4,2.4,2.4s2.4-1.1,2.4-2.4c0-1-0.7-1.9-1.6-2.3  l0.1-48.5l14.5-14.5l0.1-19.5l-17-17.2v-8.9l-7-7c0.7-1,0.5-2.2-0.3-3.1c-1-0.9-2.5-0.9-3.5,0c-1,1-1,2.5,0,3.5  c0.7,0.7,1.6,0.9,2.5,0.6l6.7,6.7l-0.1,8.9L353,85v18.1L338.4,117.6z"
   id="path508" />
<path
   class="st1"
   d="M133.1,234.4l0.1-24.3l12.8-12.8h20.5l34.9-34.6c0.9,0.4,2,0.2,2.7-0.5c0.9-0.9,1-2.5,0-3.4  c-0.9-0.9-2.5-1-3.4,0c-0.7,0.7-0.9,1.8-0.5,2.7l-34.4,34.2h-20.5l-13.8,13.7l-0.1,24.3L125,240v9.9c-1.1,0.2-2,1.2-2,2.4  c0,1.3,1.1,2.4,2.5,2.5c1.4,0,2.5-1.1,2.5-2.5c0-1-0.5-1.8-1.3-2.2v-9.5L133.1,234.4z"
   id="path510" />
<path
   class="st1"
   d="M12.7,78.7c-1-0.9-2.5-0.9-3.5,0c-1,1-1,2.5,0,3.5c0.7,0.7,1.6,0.9,2.5,0.6l6.7,6.7l-0.1,8.9l17.1,17.3v18.1  L21,148.2l-0.2,49.2c-0.9,0.3-1.6,1.2-1.6,2.2c0,1.3,1.1,2.4,2.4,2.4s2.4-1.1,2.4-2.4c0-1-0.7-1.9-1.6-2.3l0.1-48.5L37,134.3  l0.1-19.5L20,97.6v-8.9l-7-7C13.7,80.8,13.6,79.5,12.7,78.7z"
   id="path512" />
<path
   class="st1"
   d="M115.9,186.5c-3.7,1.5-5.5,5.8-4,9.6s5.8,5.5,9.6,4c3.7-1.5,5.5-5.8,4-9.6c-0.8-2-2.4-3.4-4.3-4.1l0.1-30.9  l-12-12l0.2-68.7c0.1,0,0.3-0.1,0.4-0.1c3.7-1.5,5.5-5.8,4-9.6c-1.5-3.7-5.8-5.5-9.6-4c-3.7,1.5-5.5,5.8-4,9.6  c0.8,2,2.4,3.4,4.3,4.1l-0.2,70.7l12,12l-0.1,29C116.1,186.5,116,186.5,115.9,186.5z"
   id="path514" />
<path
   class="st1"
   d="M780,543.6l-8-8h-18c-0.3-0.9-1.2-1.6-2.3-1.6c-1.3,0-2.4,1.1-2.4,2.4c0,1.3,1.1,2.4,2.4,2.4  c1,0,1.9-0.7,2.3-1.6h17.4l8,8h18.3l2.4-2.4v-2.3l-3.1,3.1L780,543.6L780,543.6z"
   id="path516" />
<path
   class="st1"
   d="M788.5,534.9l-3.4-3.3v-21.7l-8.9-8.9h-26.7c-0.3-0.9-1.2-1.6-2.3-1.6c-1.3,0-2.4,1.1-2.4,2.4s1.1,2.4,2.4,2.4  c1.1,0,2-0.7,2.3-1.6h26.1l7.9,8v21.7l4.3,4.3h8.3l3.9-3.9v-2.2l-4.5,4.5L788.5,534.9L788.5,534.9z"
   id="path518" />
<path
   class="st1"
   d="M178.2,301.6c1.3,0,2.4-1.1,2.4-2.4c0-1.1-0.8-2.1-1.8-2.3v-11.3l11.3-11.3h133.8l25.7,25.8  c-0.2,0.3-0.3,0.7-0.3,1.1c0,1.3,1.1,2.4,2.4,2.4s2.4-1.1,2.4-2.4s-1.1-2.4-2.4-2.4c-0.3,0-0.6,0.1-0.9,0.2l-26.3-26.2H189.3  L177.1,285v12c-0.8,0.4-1.4,1.2-1.4,2.2C175.7,300.5,176.8,301.6,178.2,301.6z"
   id="path520" />
<path
   class="st1"
   d="M187.3,269.3h138l30.1,29.9c-0.1,0.3-0.2,0.6-0.2,0.9c0,1.3,1.1,2.4,2.4,2.4s2.4-1.1,2.4-2.4s-1.1-2.4-2.4-2.4  c-0.4,0-0.8,0.1-1.2,0.3L326,267.6H186.7l-15.3,15.3v9.2c-0.9,0.3-1.6,1.2-1.6,2.3c0,1.3,1.1,2.4,2.4,2.4s2.4-1.1,2.4-2.4  c0-1.1-0.7-2-1.7-2.3v-8.4L187.3,269.3z"
   id="path522" />
<path
   class="st1"
   d="M36.4,52.9c0.3,0,0.7-0.1,1-0.2L66.3,82v107.8c-0.8,0.4-1.4,1.2-1.4,2.2c0,1.3,1.1,2.4,2.4,2.4s2.4-1.1,2.4-2.4  c0-1.1-0.8-2.1-1.8-2.3V81.4L38.6,51.7c0.2-0.3,0.3-0.7,0.3-1.2c0-1.3-1.1-2.4-2.4-2.4S34,49.2,34,50.5S35.1,52.9,36.4,52.9z"
   id="path524" />
<path
   class="st1"
   d="M736.6,647.4l-29.8-29.8v-14.7l-12-11.8v-5.3c0.9-0.3,1.6-1.2,1.6-2.3c0-1.3-1.1-2.4-2.4-2.4  c-1.3,0-2.4,1.1-2.4,2.4c0,1.1,0.7,2,1.6,2.3v6l11.8,11.8v14.7l29.9,29.8v37.4l65,65.1v-2.2l-63.4-63.5v-37.5H736.6z"
   id="path526" />
<path
   class="st1"
   d="M742,641.4l-27.9-27.9v-14.2l-6.9-6.9v-18.7l-16.8-16.8v-6.3l-10.1-10.1h-15.7L605.1,481v-8  c0.9-0.3,1.6-1.2,1.6-2.3c0-1.3-1.1-2.4-2.4-2.4c-1.3,0-2.4,1.1-2.4,2.4c0,1,0.7,1.9,1.6,2.3v8.7l60.5,60.5h15.6l9.2,9.1v6.3  l16.8,16.8V593l6.9,6.9v14.2l27.9,27.9v40.1l59.5,59.6v-2.3l-58-57.9v-40.1H742z"
   id="path528" />
<path
   class="st1"
   d="M747.9,639.3l-28.1-28V596l-6.7-6.7v-17.6l-3.4-3.3V553h-9.1l-17.2-17.2h-15.2l-19.9-19.9v-15.5l-9.7-9.8h-13  L619,484v-13.7l4.3-4.3h9.7v-17.8l-11.6-11.7h-7.8l-5.8,5.8c-1.3-0.7-2.9-0.6-3.9,0.5c-1.2,1.2-1.2,3.3,0,4.6c1.2,1.2,3.3,1.2,4.6,0  c1.1-1.1,1.2-2.7,0.5-3.9l5.3-5.3h6.4l10.7,10.7v15.5h-8.8l-5.2,5.3v15.1l7.6,7.6h13l8.8,8.8v15.5l20.7,20.8h15.2l17.2,17.2h8.2V569  l3.3,3.3v17.6l6.7,6.7v15.3l28,28.1v38.6l53.7,53.7V730l-51.9-52V639.3z"
   id="path530" />
<path
   class="st1"
   d="M766.6,682.2l-3.7-3.6h-8.8l-3-3v-13.4l3.3-3.3h10.7l2.9-2.9v-5.8L724.6,607v-15.7c0.9-0.3,1.6-1.2,1.6-2.3  c0-1.4-1-2.4-2.4-2.4s-2.4,1-2.4,2.4c0,1.1,0.7,2,1.6,2.3v16.3l43.3,43.3v4.5l-1.8,1.9h-10.7l-4.3,4.3v14.7l3.9,4h8.8l2.7,2.6v3.5  l35,35.1v-2.3l-33.4-33.5v-3.5L766.6,682.2L766.6,682.2z"
   id="path532" />
<path
   class="st1"
   d="M778.1,643l-35.9-35.8v-44.8L729,549.1v-29.9c0.9-0.3,1.6-1.2,1.6-2.3c0-1.3-1.1-2.4-2.4-2.4  c-1.3,0-2.4,1.1-2.4,2.4c0,1.1,0.7,2,1.6,2.3v30.6l13.2,13.2v44.8l35.9,35.8v43l23.5,22.8v-2.3l-21.9-21.2L778.1,643L778.1,643z"
   id="path534" />
<path
   class="st1"
   d="M783.9,638.5L748,602.6v-33.1l8.4-8.4c0.9,0.4,2,0.2,2.7-0.5c1-1,1-2.5,0-3.5s-2.5-1-3.5,0  c-0.8,0.8-0.9,1.9-0.5,2.8l-8.9,8.9v34.4l36,35.9v43.1l17.6,17.6v-2.3l-16.1-16v-43H783.9z"
   id="path536" />
<path
   class="st1"
   d="M789.6,636.5l-35.1-35.1v-28.6l4.8-4.9h4.3l2.1,2.1c-0.4,0.9-0.3,2,0.5,2.8c1,1,2.5,1,3.5,0s1-2.5,0-3.5  c-0.8-0.8-1.9-0.9-2.8-0.5l-2.6-2.5h-5.6l-5.8,5.8V602l35.1,35.1V679l11.9,12v-2.3l-10.4-10.4L789.6,636.5L789.6,636.5z"
   id="path538" />
<path
   class="st1"
   d="M796.1,631.6l-17.7-17.7v-24.2l2.1-2.1c0.9,0.4,2,0.3,2.7-0.5c1-1,1-2.5,0-3.5s-2.5-1-3.5,0  c-0.8,0.8-0.9,1.9-0.4,2.9l-2.6,2.6v25.5l17.7,17.7V675l5.5,5.5v-2.3l-3.9-3.9v-42.7H796.1z"
   id="path540" />
<path
   class="st1"
   d="M171.2,405c-0.2,0.5-0.3,1.1-0.3,1.7c0,3,2.4,5.4,5.4,5.4s5.4-2.4,5.4-5.4s-2.4-5.4-5.4-5.4  c-0.6,0-1.2,0.1-1.7,0.3L147,375.1H0v4.9h145.1L171.2,405z"
   id="path542" />
<path
   class="st1"
   d="M55.3,356.8v-35.3l5.3-5.3H67l3.5,3.4v38.8l4.5,4.5h8.6l4-4v-40.8l5.1-5.1h6.8l6.2,6.2v43.1h42.6l22.7,23.1  c-0.1,0.3-0.2,0.6-0.2,1c0,1.3,1.1,2.4,2.4,2.4s2.4-1.1,2.4-2.4s-1.1-2.4-2.4-2.4c-0.4,0-0.7,0.1-1,0.2l-23.3-23.6h-41.6v-42.1  l-7.2-7.1h-8.2l-6,6v40.8l-3,3h-7.3l-3.5-3.5v-38.8l-4.3-4.4h-7.9l-6.2,6.3v35.3l-8.6,8.6H0v1.6h45.7L55.3,356.8z"
   id="path544" />
<path
   class="st1"
   d="M64.8,503.9c0-3.7-3-6.7-6.7-6.7s-6.7,3.1-6.7,6.7c0,3.7,3,6.7,6.7,6.7C61.8,510.6,64.8,507.6,64.8,503.9z   M52.9,503.9c0-2.8,2.2-5.1,5.1-5.1c2.8,0,5.1,2.2,5.1,5.1c0,2.8-2.2,5.1-5.1,5.1C55.3,509,52.9,506.7,52.9,503.9z"
   id="path546" />
<path
   class="st1"
   d="M42.8,345v-28.8l9.9-9.9H105l11.3,11.2V345l5.8,5.8h2.2c0.4,3.3,3.2,5.9,6.7,5.9s6.3-2.6,6.7-5.9h12.4  l20.2,20.4c-0.1,0.2-0.1,0.4-0.1,0.7c0,1.3,1.1,2.4,2.4,2.4c1.3,0,2.4-1.1,2.4-2.4s-1.1-2.4-2.4-2.4c-0.5,0-1,0.2-1.4,0.4L151,349.5  l-0.3-0.3h-13.1c-0.4-3.4-3.2-6-6.7-6s-6.3,2.6-6.7,6h-1.5l-4.8-4.8v-27.8l-12.2-12.1H52.1l-10.9,10.9v28.9l-10.7,10.6H0v1.6h31.2  L42.8,345z M131,345c2.5,0,4.6,1.8,5,4.3h-10.1C126.3,346.8,128.4,345,131,345z M136,350.8c-0.3,2.5-2.4,4.4-5,4.4s-4.7-2-5-4.4H136  z"
   id="path548" />
<path
   class="st1"
   d="M31.3,333.6v-21l16.8-16.8h63.1l59,59.1c-0.1,0.2-0.1,0.5-0.1,0.8c0,1.3,1.1,2.4,2.4,2.4c1.3,0,2.4-1.1,2.4-2.4  s-1.1-2.4-2.4-2.4c-0.5,0-0.9,0.1-1.2,0.4l-59.4-59.4H47.5l-17.7,17.8v21L18.9,344H0v1.6h19.6L31.3,333.6z"
   id="path550" />
<path
   class="st1"
   d="M20.7,324.4v-18l22.9-22.8h32.1c0.4,3.4,3.2,6,6.7,6s6.3-2.6,6.7-6h27.3l55.2,54.2c-0.1,0.2-0.1,0.5-0.1,0.8  c0,1.3,1.1,2.4,2.4,2.4c1.3,0,2.4-1.1,2.4-2.4s-1.1-2.4-2.4-2.4c-0.5,0-0.9,0.1-1.3,0.4l-55.4-54.3L117,282H89.1  c-0.4-3.4-3.2-6-6.7-6s-6.3,2.6-6.7,6H42.9L19,305.7v18l-7.8,7.9H0v1.6h11.9L20.7,324.4z M82.4,277.7c2.6,0,4.7,1.8,5,4.3h-10  C77.7,279.5,79.9,277.7,82.4,277.7z M87.4,283.6c-0.4,2.4-2.4,4.3-5,4.3s-4.7-1.9-5-4.3H87.4z"
   id="path552" />
<path
   class="st1"
   d="M9.7,317.7v-14.6l30.6-30.6h80.9l48.1,47.1c-0.2,0.3-0.3,0.7-0.3,1.1c0,1.3,1.1,2.4,2.4,2.4  c1.3,0,2.4-1.1,2.4-2.4s-1.1-2.4-2.4-2.4c-0.3,0-0.6,0.1-0.8,0.2l-48.5-47.4l-0.2-0.3H39.7L8.2,302.4V317l-3.5,3.4H0v1.6h5.4  L9.7,317.7z"
   id="path554" />
<path
   class="st1"
   d="M127.7,260.4l45.3,45.3c-0.2,0.4-0.4,0.8-0.4,1.3c0,1.3,1.1,2.4,2.4,2.4c1.3,0,2.4-1.1,2.4-2.4  s-1.1-2.4-2.4-2.4c-0.2,0-0.4,0-0.6,0.1l-46-46H36.7L0,295.4v2.3l37.4-37.3H127.7z"
   id="path556" />
<path
   class="st1"
   d="M163.7,485.6c0.3,1,1.2,1.7,2.3,1.7c1.3,0,2.4-1.1,2.4-2.4s-1.1-2.4-2.4-2.4c-1,0-1.9,0.7-2.3,1.6H57.5L0,541.5  v2.3l58.2-58.2L163.7,485.6L163.7,485.6z"
   id="path558" />
<path
   class="st1"
   d="M164.7,477.9l6.2-6.2c0.9,0.5,2,0.3,2.8-0.5c1-1,1-2.5,0-3.5s-2.5-1-3.5,0c-0.8,0.8-0.9,1.9-0.5,2.8l-5.8,5.7  H55L0,531.4v2.2l55.8-55.7L164.7,477.9L164.7,477.9z"
   id="path560" />
<path
   class="st1"
   d="M6.5,777.9c-0.3,0.1-0.6,0.3-0.8,0.6c-1,1-1,2.5,0,3.5s2.5,1,3.5,0s1-2.5,0-3.5c-0.3-0.3-0.7-0.5-1-0.6v-20.5  l-8-8v2.2l6.5,6.5v19.8H6.5z"
   id="path562" />
<path
   class="st1"
   d="M11.2,756.4c1,1,2.5,1,3.5,0s1-2.5,0-3.5c-0.7-0.7-1.8-0.9-2.7-0.6l-12-12v2.3l10.8,10.8  C10.3,754.4,10.4,755.5,11.2,756.4z"
   id="path564" />
<path
   class="st1"
   d="M16.7,752.7c1,1,2.5,1,3.5,0s1-2.5,0-3.5c-0.7-0.7-1.7-0.9-2.5-0.6L0,731v2.3l16.3,16.3  C15.7,750.6,15.8,751.8,16.7,752.7z"
   id="path566" />
<path
   class="st1"
   d="M17.6,742.2c1,1,2.5,1,3.5,0s1-2.5,0-3.5c-0.8-0.8-2-0.9-2.9-0.4L0,720.1v2.3l17,17.1  C16.7,740.4,16.8,741.4,17.6,742.2z"
   id="path568" />
<path
   class="st1"
   d="M18.3,730.3c1,1,2.5,1,3.5,0s1-2.5,0-3.5c-0.8-0.8-2-0.9-2.9-0.4L0,708.1v2.3l17.7,17.2  C17.3,728.5,17.5,729.5,18.3,730.3z"
   id="path570" />
<path
   class="st1"
   d="M18.7,721.9c1,1,2.5,1,3.5,0s1-2.5,0-3.5c-0.8-0.8-1.9-0.9-2.8-0.5L0,698.7v2.3l18.2,18.2  C17.7,720,17.9,721.1,18.7,721.9z"
   id="path572" />
<path
   class="st1"
   d="M17.6,712c1,1,2.5,1,3.5,0s1-2.5,0-3.5c-0.7-0.7-1.8-0.9-2.7-0.5L0,689.7v2.3l17.1,17.2  C16.6,710.1,16.8,711.3,17.6,712z"
   id="path574" />
<path
   class="st1"
   d="M18.1,701.6c1,1,2.5,1,3.5,0s1-2.5,0-3.5c-0.8-0.8-2.1-0.9-3-0.4L0,679.2v2.3L17.5,699  C17.2,699.9,17.4,700.9,18.1,701.6z"
   id="path576" />
<path
   class="st1"
   d="M790.9,591.9c-1.4,1.4-1.4,3.7,0,5.2c1.4,1.4,3.7,1.4,5.2,0c1-1,1.3-2.5,0.9-3.8l3.1-3.1v-4.6l-5.4,5.4  C793.3,590.6,791.9,590.8,790.9,591.9z"
   id="path578" />
<path
   class="st1"
   d="M797,566.9c-2,0-3.7,1.6-3.7,3.7s1.6,3.7,3.7,3.7c1.3,0,2.4-0.7,3-1.6v-4C799.3,567.6,798.2,566.9,797,566.9z"
   id="path580" />
<polygon
   class="st1"
   points="785.7,799.7 788,799.7 790.4,797.4 800,797.4 800,795.7 789.7,795.7 "
   id="polygon582" />
<path
   class="st1"
   d="M730,49.4c0.2-0.4,0.4-0.8,0.4-1.2c0-1.3-1.1-2.4-2.4-2.4s-2.4,1.1-2.4,2.4s1.1,2.4,2.4,2.4  c0.3,0,0.5-0.1,0.8-0.1l6,7H800v-1.7h-64.5L730,49.4z"
   id="path584" />
<path
   class="st1"
   d="M700.3,471.2c0.5-0.9,0.3-2-0.5-2.8c-1-1-2.5-1-3.5,0s-1,2.5,0,3.5c0.8,0.8,1.9,0.9,2.8,0.5l8.6,8.6H800v-1.6  h-91.6L700.3,471.2z"
   id="path586" />
<path
   class="st1"
   d="M28.7,25.1c1.3,0,2.4-1.1,2.4-2.4c0-1.1-0.7-2-1.6-2.3V3.8L33.3,0h-2.2l-3.2,3.3v17.1c-0.9,0.3-1.6,1.2-1.6,2.3  C26.2,24,27.3,25.1,28.7,25.1z"
   id="path588" />
<path
   class="st1"
   d="M37.8,28.6c1.3,0,2.4-1.1,2.4-2.4c0-1.1-0.8-2.1-1.8-2.3V11.6L48.7,1.3V0H47v0.6L36.8,10.9V24  c-0.8,0.4-1.4,1.2-1.4,2.2C35.4,27.6,36.4,28.6,37.8,28.6z"
   id="path590" />
<path
   class="st1"
   d="M44.5,24c-0.9,0.3-1.6,1.2-1.6,2.3c0,1.3,1.1,2.4,2.4,2.4s2.4-1.1,2.4-2.4c0-1.1-0.7-2-1.7-2.3V12.4l9.2-9.2V0  h-1.6v2.6l-9.1,9.2C44.5,11.8,44.5,24,44.5,24z"
   id="path592" />
<path
   class="st1"
   d="M52.9,24.8c-0.9,0.3-1.6,1.2-1.6,2.3c0,1.3,1.1,2.4,2.4,2.4s2.4-1.1,2.4-2.4c0-1-0.6-1.9-1.6-2.3v-4.7l8.4-8.4  h10.5l6.5-6.5V0h-1.6v4.5l-5.6,5.6H62.3l-9.4,9.4V24.8z"
   id="path594" />
<path
   class="st1"
   d="M169.8,41.3c1.3,0,2.4-1.1,2.4-2.4c0-1.2-0.8-2.1-1.9-2.4V0h-1.6v36.7c-0.8,0.4-1.4,1.2-1.4,2.2  C167.4,40.3,168.5,41.3,169.8,41.3z"
   id="path596" />
<path
   class="st1"
   d="M186.1,40c1.3,0,2.4-1.1,2.4-2.4c0-1-0.7-1.9-1.6-2.3V0h-1.6v35.3c-0.9,0.3-1.6,1.2-1.6,2.3  C183.6,38.9,184.7,40,186.1,40z"
   id="path598" />
<path
   class="st1"
   d="M197.7,42c1.3,0,2.4-1.1,2.4-2.4c0-1.1-0.7-2-1.7-2.3V0h-1.6v37.3c-0.9,0.3-1.6,1.2-1.6,2.3  C195.3,40.9,196.4,42,197.7,42z"
   id="path600" />
<path
   class="st1"
   d="M222.1,41.9c1.3,0,2.4-1.1,2.4-2.4c0-1.1-0.8-2.1-1.9-2.3V0H221v37.2c-0.8,0.4-1.4,1.2-1.4,2.2  C219.7,40.8,220.7,41.9,222.1,41.9z"
   id="path602" />
<path
   class="st1"
   d="M241.5,42.8c1.3,0,2.4-1.1,2.4-2.4c0-1.1-0.8-2.1-1.8-2.3V0h-1.6v38.3c-0.8,0.4-1.4,1.2-1.4,2.2  C239.1,41.8,240.2,42.8,241.5,42.8z"
   id="path604" />
<path
   class="st1"
   d="M249.1,40c1.3,0,2.4-1.1,2.4-2.4c0-1.1-0.7-2-1.7-2.3V0h-1.6v35.3c-0.9,0.4-1.5,1.2-1.5,2.2  C246.7,38.9,247.7,40,249.1,40z"
   id="path606" />
<path
   class="st1"
   d="M192.4,41.3c1.3,0,2.4-1.1,2.4-2.4c0-1.1-0.8-2.1-1.8-2.3V0h-1.6v36.7c-0.8,0.4-1.4,1.2-1.4,2.2  C190,40.2,191.1,41.3,192.4,41.3z"
   id="path608" />
<polygon
   class="st1"
   points="16.9,0 15.3,0 15.3,11.8 0,27 0,29.3 16.9,12.4 "
   id="polygon610" />
<path
   class="st1"
   d="M0.3,39.2l23.2-23.3V0.2L23.8,0H22v15.2L0,37.1v4.5c0.3-0.4,0.5-0.9,0.5-1.5C0.5,39.8,0.4,39.5,0.3,39.2z"
   id="path612" />
<path
   class="st1"
   d="M63.4,27.9c-1.3,0-2.4,1.1-2.4,2.4s1.1,2.4,2.4,2.4s2.4-1.1,2.4-2.4c0-0.4-0.1-0.7-0.2-1.1L86.4,8.6V0h-1.6v7.9  L64.5,28.2C64.2,28,63.8,27.9,63.4,27.9z"
   id="path614" />
<path
   class="st1"
   d="M70.9,29.5c-1.3,0-2.4,1.1-2.4,2.4c0,1.3,1.1,2.4,2.4,2.4s2.4-1.1,2.4-2.4c0-0.4-0.1-0.8-0.3-1.2l22.1-22V0  h-1.6v8.1L71.8,29.7C71.5,29.6,71.2,29.5,70.9,29.5z"
   id="path616" />
<path
   class="st1"
   d="M82.1,26c-1.3,0-2.4,1.1-2.4,2.4s1.1,2.4,2.4,2.4s2.4-1.1,2.4-2.4c0-0.4-0.1-0.8-0.3-1.2L111.5,0h-2.3L83,26.2  C82.7,26.1,82.4,26,82.1,26z"
   id="path618" />
<path
   class="st1"
   d="M79.7,35.8c-1.3,0-2.4,1.1-2.4,2.4s1.1,2.4,2.4,2.4s2.4-1.1,2.4-2.4c0-0.3-0.1-0.7-0.2-0.9L119.3,0h-2.4  L80.8,36.1C80.5,35.9,80.1,35.8,79.7,35.8z"
   id="path620" />
<path
   class="st1"
   d="M86.9,37.7c-1.3,0-2.4,1.1-2.4,2.4s1.1,2.4,2.4,2.4s2.4-1.1,2.4-2.4c0-0.4-0.1-0.8-0.3-1.1l39-39.1h-2.3  L87.9,38C87.6,37.8,87.3,37.7,86.9,37.7z"
   id="path622" />
<path
   class="st1"
   d="M97,38.2c-1.3,0-2.4,1.1-2.4,2.4S95.7,43,97,43s2.4-1.1,2.4-2.4c0-0.4-0.1-0.8-0.3-1.1L138.7,0h-2.2L98,38.4  C97.7,38.3,97.4,38.2,97,38.2z"
   id="path624" />
<path
   class="st1"
   d="M209.5,39c2.2-2.2,2.2-5.6,0-7.8c-0.6-0.6-1.2-1-1.9-1.3V0h-4.8v30.4c-0.4,0.2-0.7,0.5-1.1,0.8  c-2.2,2.2-2.2,5.6,0,7.8C203.8,41.2,207.3,41.2,209.5,39z"
   id="path626" />
<path
   class="st1"
   d="M255.1,41.3c1.3,0,2.4-1.1,2.4-2.4c0-1.1-0.7-2-1.7-2.3V0h-1.6v36.6c-0.9,0.3-1.6,1.2-1.6,2.3  C252.7,40.2,253.8,41.3,255.1,41.3z"
   id="path628" />
<path
   class="st1"
   d="M613,796c-1.3,0-2.4,1.1-2.4,2.4c0,0.4,0.1,0.7,0.2,1l-0.6,0.6h4.6c0.4-0.4,0.6-1,0.6-1.6  C615.4,797.1,614.3,796,613,796z"
   id="path630" />
<path
   class="st1"
   d="M605.7,794.3c-1.3,0-2.4,1.1-2.4,2.4c0,0.4,0.1,0.7,0.3,1.1l-2.2,2.2h2.4l1.1-1.1c0.3,0.1,0.6,0.2,1,0.2  c1.3,0,2.4-1.1,2.4-2.4C608.1,795.4,607,794.3,605.7,794.3z"
   id="path632" />
<path
   class="st1"
   d="M596.6,788.4c-1.3,0-2.4,1.1-2.4,2.4c0,0.3,0.1,0.6,0.2,0.8L586,800h2.2l7.1-7.1c0.4,0.2,0.8,0.4,1.3,0.4  c1.3,0,2.4-1.1,2.4-2.4C599,789.5,597.9,788.4,596.6,788.4z"
   id="path634" />
<path
   class="st1"
   d="M588.9,791.6c1.3,0,2.4-1.1,2.4-2.4s-1.1-2.4-2.4-2.4c-1.3,0-2.4,1.1-2.4,2.4c0,0.4,0.1,0.8,0.3,1.1L577,800  h2.3l8.6-8.7C588.2,791.5,588.5,791.6,588.9,791.6z"
   id="path636" />
<path
   class="st1"
   d="M578.6,790.8c1.3,0,2.4-1.1,2.4-2.4c0-1.3-1.1-2.4-2.4-2.4c-1.3,0-2.4,1.1-2.4,2.4c0,0.5,0.2,1,0.5,1.4  L566.5,800h2.2l9.2-9.2C578.1,790.8,578.4,790.8,578.6,790.8z"
   id="path638" />
<path
   class="st1"
   d="M470.7,785c-2.7,0-4.9,2.2-4.9,4.9c0,1.8,1,3.4,2.5,4.3v5.9h4.8v-5.8c1.5-0.8,2.5-2.4,2.5-4.3  C475.6,787.2,473.4,785,470.7,785z"
   id="path640" />
<path
   class="st1"
   d="M426.9,787.6c-1.3,0-2.4,1.1-2.4,2.4c0,1,0.7,1.9,1.6,2.3v7.7h1.6v-7.7c0.9-0.3,1.6-1.2,1.6-2.3  C429.3,788.7,428.2,787.6,426.9,787.6z"
   id="path642" />
<path
   class="st1"
   d="M434.4,784.8c-1.3,0-2.4,1.1-2.4,2.4c0,1.1,0.8,2.1,1.8,2.3V800h1.6v-10.6c0.8-0.4,1.4-1.2,1.4-2.2  C436.8,785.9,435.7,784.8,434.4,784.8z"
   id="path644" />
<path
   class="st1"
   d="M454.1,785.9c-1.3,0-2.4,1.1-2.4,2.4c0,1,0.6,1.9,1.6,2.3v9.5h1.6v-9.4c1-0.3,1.7-1.2,1.7-2.3  C456.5,787,455.4,785.9,454.1,785.9z"
   id="path646" />
<path
   class="st1"
   d="M478.9,786.5c-1.3,0-2.4,1.1-2.4,2.4c0,1.1,0.7,2,1.6,2.3v8.8h1.6v-8.8c0.9-0.3,1.6-1.2,1.6-2.3  C481.3,787.5,480.2,786.5,478.9,786.5z"
   id="path648" />
<path
   class="st1"
   d="M483.7,789.2c-1.3,0-2.4,1.1-2.4,2.4c0,1,0.7,1.9,1.6,2.3v6.1h1.6v-6.1c0.9-0.3,1.6-1.2,1.6-2.3  C486.2,790.3,485.1,789.2,483.7,789.2z"
   id="path650" />
<path
   class="st1"
   d="M488.6,789.2c-1.3,0-2.4,1.1-2.4,2.4c0,1,0.6,1.8,1.5,2.2v6.2h1.6v-6c1-0.3,1.8-1.2,1.8-2.3  C491,790.3,490,789.2,488.6,789.2z"
   id="path652" />
<path
   class="st1"
   d="M506.4,787.9c-1.3,0-2.4,1.1-2.4,2.4c0,1,0.6,1.9,1.5,2.2v7.4h1.6v-7.4c1-0.3,1.7-1.2,1.7-2.3  C508.8,789,507.7,787.9,506.4,787.9z"
   id="path654" />
<path
   class="st1"
   d="M420.9,787.9c-1.3,0-2.4,1.1-2.4,2.4c0,1,0.6,1.9,1.5,2.3v7.4h1.6v-7.4c1-0.3,1.7-1.2,1.7-2.3  C423.3,789,422.2,787.9,420.9,787.9z"
   id="path656" />
</svg>
