<?xml version="1.0" encoding="UTF-8" standalone="no"?>
<svg
   width="1041.9631"
   height="337.00125"
   viewBox="0 0 275.68606 89.164911"
   version="1.1"
   id="svg8"
   xmlns="http://www.w3.org/2000/svg"
   xmlns:svg="http://www.w3.org/2000/svg"
   xmlns:rdf="http://www.w3.org/1999/02/22-rdf-syntax-ns#"
   xmlns:cc="http://creativecommons.org/ns#"
   xmlns:dc="http://purl.org/dc/elements/1.1/">
  <defs
     id="defs2" />
  <metadata
     id="metadata5">
    <rdf:RDF>
      <cc:Work
         rdf:about="">
        <dc:format>image/svg+xml</dc:format>
        <dc:type
           rdf:resource="http://purl.org/dc/dcmitype/StillImage" />
        <dc:title />
      </cc:Work>
    </rdf:RDF>
  </metadata>
  <g
     id="layer1"
     transform="translate(48.950238,-107.15857)">
    <path
       style="fill:#000000;stroke-width:0.0693058"
       id="path2"
       d="M 93.406347,184.15264 100.176,177.383 c 0.83074,-0.83073 0.83074,-2.17763 0,-3.00904 l -1.504517,-1.50452 c -0.830731,-0.83072 -2.177628,-0.83072 -3.009036,0 l -6.769655,6.76966 -6.769655,-6.76966 c -0.830732,-0.83072 -2.177627,-0.83072 -3.009037,0 l -1.504519,1.50452 c -0.83073,0.83073 -0.83073,2.17763 0,3.00904 l 6.769658,6.76964 -6.769658,6.76966 c -0.83073,0.83073 -0.83073,2.17762 0,3.00903 l 1.504519,1.50452 c 0.830734,0.83073 2.178305,0.83073 3.009037,0 l 6.769655,-6.76965 6.769655,6.76965 c 0.830732,0.83073 2.178305,0.83073 3.009036,0 l 1.504517,-1.50452 c 0.83074,-0.83073 0.83074,-2.17763 0,-3.00903 z" />
    <g
       transform="translate(4.7624974,2.6458393)"
       id="g1109">
      <rect
         style="fill:none;stroke:#000000;stroke-width:1.03879;stroke-miterlimit:4;stroke-dasharray:none"
         id="rect967"
         width="67.752876"
         height="46.586205"
         x="-52.928757"
         y="105.29671"
         rx="1.3029399"
         ry="1.2940613" />
      <g
         aria-label="Strata  Developer Studio"
         id="text971"
         style="font-style:normal;font-weight:normal;font-size:10.5833px;line-height:1.25;font-family:sans-serif;text-align:center;text-anchor:middle;fill:#000000;fill-opacity:1;stroke:none;stroke-width:0.264583"
         transform="translate(-2.7625336,0.66199442)">
        <path
           d="m -28.480216,116.33941 q 0,0.44958 -0.211873,0.88883 -0.206705,0.43925 -0.583942,0.74414 -0.41341,0.33073 -0.966346,0.51676 -0.547768,0.18604 -1.322912,0.18604 -0.831988,0 -1.498612,-0.15503 -0.661456,-0.15503 -1.348751,-0.45992 v -1.28157 h 0.07235 q 0.583942,0.48576 1.348751,0.7493 0.764808,0.26355 1.4366,0.26355 0.950843,0 1.477941,-0.35656 0.532266,-0.35657 0.532266,-0.95085 0,-0.51159 -0.253214,-0.75447 -0.248046,-0.24288 -0.759641,-0.37724 -0.387572,-0.10335 -0.842323,-0.17053 -0.449584,-0.0672 -0.956011,-0.17053 -1.02319,-0.21704 -1.519282,-0.73897 -0.490925,-0.5271 -0.490925,-1.36942 0,-0.96635 0.816485,-1.58129 0.816485,-0.62012 2.072218,-0.62012 0.811318,0 1.488277,0.15503 0.676959,0.15503 1.198889,0.3824 v 1.20923 h -0.07235 q -0.439249,-0.37207 -1.157549,-0.61495 -0.713132,-0.24805 -1.462438,-0.24805 -0.821653,0 -1.322913,0.34107 -0.496092,0.34106 -0.496092,0.87849 0,0.48059 0.248046,0.75448 0.248046,0.27388 0.873329,0.41858 0.330728,0.0723 0.940508,0.17569 0.60978,0.10336 1.033526,0.21188 0.857826,0.22737 1.291906,0.68729 0.434081,0.45992 0.434082,1.28674 z"
           style="text-align:center;text-anchor:middle;stroke-width:0.264583"
           id="path1043" />
        <path
           d="m -23.917202,118.48398 q -0.273884,0.0723 -0.599445,0.11885 -0.320392,0.0465 -0.573606,0.0465 -0.883664,0 -1.343583,-0.47542 -0.459919,-0.47542 -0.459919,-1.52445 v -3.06957 h -0.656288 v -0.81649 h 0.656288 v -1.65881 h 0.971514 v 1.65881 h 2.005039 v 0.81649 h -2.005039 v 2.63032 q 0,0.45475 0.02067,0.71313 0.02067,0.25322 0.144694,0.47542 0.113688,0.20671 0.310058,0.30489 0.201537,0.093 0.60978,0.093 0.23771,0 0.496092,-0.0672 0.258381,-0.0723 0.372069,-0.11885 h 0.05168 z"
           style="text-align:center;text-anchor:middle;stroke-width:0.264583"
           id="path1045" />
        <path
           d="m -19.137147,113.82278 h -0.05168 q -0.21704,-0.0517 -0.423745,-0.0724 -0.201538,-0.0258 -0.48059,-0.0258 -0.449583,0 -0.868161,0.20154 -0.418578,0.19637 -0.80615,0.51159 v 4.09793 h -0.971514 v -5.77224 h 0.971514 v 0.85266 q 0.578774,-0.46508 1.018023,-0.65629 0.444416,-0.19637 0.904334,-0.19637 0.253214,0 0.366902,0.0155 0.113688,0.0103 0.341063,0.0465 z"
           style="text-align:center;text-anchor:middle;stroke-width:0.264583"
           id="path1047" />
        <path
           d="m -13.726642,118.53565 h -0.966347 v -0.61495 q -0.12919,0.0879 -0.351398,0.24805 -0.217041,0.15503 -0.423746,0.24805 -0.242878,0.11885 -0.558103,0.19637 -0.315226,0.0827 -0.738971,0.0827 -0.780312,0 -1.322912,-0.51676 -0.542601,-0.51677 -0.542601,-1.31775 0,-0.65629 0.279052,-1.05936 0.284219,-0.40824 0.806149,-0.64079 0.527098,-0.23254 1.266069,-0.31522 0.738971,-0.0827 1.586461,-0.12403 v -0.14986 q 0,-0.33073 -0.118855,-0.54777 -0.113688,-0.21704 -0.330728,-0.34106 -0.206705,-0.11885 -0.496092,-0.1602 -0.289387,-0.0413 -0.604613,-0.0413 -0.382404,0 -0.852658,0.10336 -0.470254,0.0982 -0.971514,0.28938 h -0.05168 v -0.98701 q 0.284219,-0.0775 0.821652,-0.17054 0.537434,-0.093 1.059364,-0.093 0.60978,0 1.059363,0.10335 0.454752,0.0982 0.78548,0.34106 0.32556,0.23771 0.496092,0.61495 0.170532,0.37724 0.170532,0.93534 z m -0.966347,-1.4211 v -1.60713 q -0.444416,0.0258 -1.049028,0.0775 -0.599445,0.0517 -0.950843,0.14986 -0.418578,0.11885 -0.676959,0.37207 -0.258382,0.24804 -0.258382,0.68729 0,0.49609 0.299723,0.74931 0.299722,0.24804 0.91467,0.24804 0.511595,0 0.93534,-0.19637 0.423746,-0.20153 0.785479,-0.48059 z"
           style="text-align:center;text-anchor:middle;stroke-width:0.264583"
           id="path1049" />
        <path
           d="m -8.8484028,118.48398 q -0.2738842,0.0723 -0.5994447,0.11885 -0.3203929,0.0465 -0.5736065,0.0465 -0.883664,0 -1.343583,-0.47542 -0.459919,-0.47542 -0.459919,-1.52445 v -3.06957 h -0.656288 v -0.81649 h 0.656288 v -1.65881 h 0.971514 v 1.65881 h 2.0050392 v 0.81649 h -2.0050392 v 2.63032 q 0,0.45475 0.02067,0.71313 0.02067,0.25322 0.144693,0.47542 0.113688,0.20671 0.310058,0.30489 0.201537,0.093 0.6097796,0.093 0.2377109,0 0.4960922,-0.0672 0.2583813,-0.0723 0.3720691,-0.11885 h 0.051676 z"
           style="text-align:center;text-anchor:middle;stroke-width:0.264583"
           id="path1051" />
        <path
           d="m -3.1846826,118.53565 h -0.9663463 v -0.61495 q -0.1291906,0.0879 -0.3513986,0.24805 -0.2170403,0.15503 -0.4237454,0.24805 -0.2428784,0.11885 -0.5581037,0.19637 -0.3152252,0.0827 -0.7389706,0.0827 -0.7803116,0 -1.3229124,-0.51676 -0.5426009,-0.51677 -0.5426009,-1.31775 0,-0.65629 0.2790519,-1.05936 0.2842195,-0.40824 0.8061498,-0.64079 0.5270979,-0.23254 1.2660685,-0.31522 0.7389707,-0.0827 1.5864614,-0.12403 v -0.14986 q 0,-0.33073 -0.1188554,-0.54777 -0.1136878,-0.21704 -0.3307281,-0.34106 -0.2067051,-0.11885 -0.4960922,-0.1602 -0.2893871,-0.0413 -0.6046123,-0.0413 -0.3824044,0 -0.8526584,0.10336 -0.470254,0.0982 -0.9715138,0.28938 h -0.051676 v -0.98701 q 0.2842195,-0.0775 0.8216526,-0.17054 0.5374332,-0.093 1.0593635,-0.093 0.60978,0 1.0593635,0.10335 0.4547512,0.0982 0.7854793,0.34106 0.3255605,0.23771 0.4960922,0.61495 0.1705317,0.37724 0.1705317,0.93534 z m -0.9663463,-1.4211 v -1.60713 q -0.4444159,0.0258 -1.0490282,0.0775 -0.5994447,0.0517 -0.9508433,0.14986 -0.4185778,0.11885 -0.6769591,0.37207 -0.2583814,0.24804 -0.2583814,0.68729 0,0.49609 0.2997224,0.74931 0.2997223,0.24804 0.9146699,0.24804 0.5115951,0 0.9353405,-0.19637 0.4237454,-0.20153 0.7854792,-0.48059 z"
           style="text-align:center;text-anchor:middle;stroke-width:0.264583"
           id="path1053" />
        <path
           d="m -36.190315,127.92523 q 0,1.04903 -0.459919,1.90169 -0.454751,0.85266 -1.214392,1.32291 -0.527098,0.32556 -1.178219,0.47025 -0.645954,0.1447 -1.705317,0.1447 h -1.943028 v -7.6946 h 1.922357 q 1.126543,0 1.787999,0.16536 0.666624,0.1602 1.126543,0.44442 0.785479,0.49092 1.224727,1.30741 0.439249,0.81649 0.439249,1.93786 z m -1.069699,-0.0155 q 0,-0.90434 -0.315225,-1.52445 -0.315225,-0.62012 -0.940508,-0.97668 -0.454751,-0.25839 -0.966347,-0.35657 -0.511595,-0.10335 -1.224727,-0.10335 H -41.668 v 5.9376 h 0.961179 q 0.738971,0 1.286739,-0.10852 0.552936,-0.10852 1.012855,-0.40307 0.573606,-0.36691 0.857826,-0.96635 0.289387,-0.59945 0.289387,-1.49861 z"
           style="text-align:center;text-anchor:middle;stroke-width:0.264583"
           id="path1055" />
        <path
           d="m -29.772123,128.97943 h -4.252957 q 0,0.53226 0.160197,0.93017 0.160196,0.39274 0.439248,0.64595 0.268717,0.24805 0.635618,0.37207 0.372069,0.12402 0.816485,0.12402 0.58911,0 1.183387,-0.23254 0.599444,-0.23771 0.852658,-0.46509 h 0.05168 v 1.05937 q -0.490924,0.2067 -1.002519,0.34623 -0.511595,0.13953 -1.074867,0.13953 -1.4366,0 -2.24275,-0.77515 -0.806149,-0.78031 -0.806149,-2.21174 0,-1.41593 0.769976,-2.24792 0.775144,-0.83199 2.036045,-0.83199 1.167884,0 1.798334,0.68213 0.635618,0.68212 0.635618,1.93786 z m -0.945676,-0.74414 q -0.0052,-0.76481 -0.387572,-1.18339 -0.377236,-0.41858 -1.15238,-0.41858 -0.780312,0 -1.245398,0.45992 -0.459919,0.45992 -0.521931,1.14205 z"
           style="text-align:center;text-anchor:middle;stroke-width:0.264583"
           id="path1057" />
        <path
           d="m -23.307422,125.99254 -2.335767,5.77224 h -0.976682 l -2.320264,-5.77224 h 1.054196 l 1.787999,4.59402 1.772495,-4.59402 z"
           style="text-align:center;text-anchor:middle;stroke-width:0.264583"
           id="path1059" />
        <path
           d="m -17.204454,128.97943 h -4.252957 q 0,0.53226 0.160197,0.93017 0.160196,0.39274 0.439248,0.64595 0.268717,0.24805 0.635618,0.37207 0.372069,0.12402 0.816485,0.12402 0.589109,0 1.183387,-0.23254 0.599444,-0.23771 0.852658,-0.46509 h 0.05168 v 1.05937 q -0.490924,0.2067 -1.002519,0.34623 -0.511595,0.13953 -1.074867,0.13953 -1.4366,0 -2.24275,-0.77515 -0.80615,-0.78031 -0.80615,-2.21174 0,-1.41593 0.769977,-2.24792 0.775144,-0.83199 2.036045,-0.83199 1.167883,0 1.798334,0.68213 0.635618,0.68212 0.635618,1.93786 z m -0.945676,-0.74414 q -0.0052,-0.76481 -0.387572,-1.18339 -0.377236,-0.41858 -1.15238,-0.41858 -0.780312,0 -1.245398,0.45992 -0.459919,0.45992 -0.521931,1.14205 z"
           style="text-align:center;text-anchor:middle;stroke-width:0.264583"
           id="path1061" />
        <path
           d="m -14.749832,131.76478 h -0.971513 v -8.04083 h 0.971513 z"
           style="text-align:center;text-anchor:middle;stroke-width:0.264583"
           id="path1063" />
        <path
           d="m -7.8975587,128.88124 q 0,1.41076 -0.7234677,2.22725 -0.7234678,0.81648 -1.9378596,0.81648 -1.224728,0 -1.948196,-0.81648 -0.7183,-0.81649 -0.7183,-2.22725 0,-1.41076 0.7183,-2.22725 0.723468,-0.82165 1.948196,-0.82165 1.2143918,0 1.9378596,0.82165 0.7234677,0.81649 0.7234677,2.22725 z m -1.0025196,0 q 0,-1.12137 -0.4392482,-1.66397 -0.4392483,-0.54777 -1.2195595,-0.54777 -0.790647,0 -1.229896,0.54777 -0.43408,0.5426 -0.43408,1.66397 0,1.0852 0.439248,1.64847 0.439248,0.55811 1.224728,0.55811 0.7751436,0 1.2143918,-0.55294 0.4444159,-0.5581 0.4444159,-1.65364 z"
           style="text-align:center;text-anchor:middle;stroke-width:0.264583"
           id="path1065" />
        <path
           d="m -1.3088344,128.80889 q 0,0.7028 -0.2015374,1.28674 -0.2015375,0.57878 -0.568439,0.98185 -0.3410634,0.38241 -0.8061498,0.59428 -0.4599187,0.2067 -0.9766814,0.2067 -0.4495836,0 -0.8164851,-0.0982 -0.3617338,-0.0982 -0.7389706,-0.30489 v 2.41845 h -0.9715138 v -7.9013 h 0.9715138 v 0.60461 q 0.387572,-0.32556 0.8681613,-0.5426 0.4857569,-0.22221 1.0335254,-0.22221 1.0438606,0 1.6226348,0.79065 0.5839418,0.78548 0.5839418,2.1859 z m -1.0025196,0.0258 q 0,-1.04386 -0.3565662,-1.56062 -0.3565663,-0.51676 -1.0955369,-0.51676 -0.4185778,0 -0.8423232,0.18086 -0.4237454,0.18087 -0.8113174,0.47542 v 3.27111 q 0.4134102,0.18604 0.7079649,0.25322 0.2997223,0.0672 0.6769591,0.0672 0.8113174,0 1.2660686,-0.54777 0.4547511,-0.54777 0.4547511,-1.62264 z"
           style="text-align:center;text-anchor:middle;stroke-width:0.264583"
           id="path1067" />
        <path
           d="M 5.0370107,128.97943 H 0.78405383 q 0,0.53226 0.16019643,0.93017 0.16019644,0.39274 0.43924824,0.64595 0.2687166,0.24805 0.6356181,0.37207 0.3720692,0.12402 0.8164851,0.12402 0.5891094,0 1.1833865,-0.23254 0.5994447,-0.23771 0.8526584,-0.46509 h 0.051676 v 1.05937 q -0.4909246,0.2067 -1.0025196,0.34623 -0.5115951,0.13953 -1.0748664,0.13953 -1.4366002,0 -2.24275001,-0.77515 -0.80614978,-0.78031 -0.80614978,-2.21174 0,-1.41593 0.76997639,-2.24792 0.775144,-0.83199 2.036045,-0.83199 1.1678836,0 1.7983341,0.68213 0.6356181,0.68212 0.6356181,1.93786 z M 4.091335,128.23529 q -0.00517,-0.76481 -0.387572,-1.18339 -0.3772368,-0.41858 -1.1523808,-0.41858 -0.7803117,0 -1.2453981,0.45992 -0.45991875,0.45992 -0.52193027,1.14205 z"
           style="text-align:center;text-anchor:middle;stroke-width:0.264583"
           id="path1069" />
        <path
           d="m 10.11162,127.0519 h -0.05168 q -0.2170407,-0.0517 -0.4237458,-0.0724 -0.2015374,-0.0258 -0.4805893,-0.0258 -0.4495835,0 -0.8681613,0.20153 -0.4185777,0.19637 -0.8061497,0.5116 v 4.09793 H 6.509784 v -5.77224 h 0.9715139 v 0.85266 q 0.5787742,-0.46509 1.0180224,-0.65629 0.4444159,-0.19637 0.9043347,-0.19637 0.2532137,0 0.3669015,0.0155 0.1136878,0.0103 0.3410635,0.0465 z"
           style="text-align:center;text-anchor:middle;stroke-width:0.264583"
           id="path1071" />
        <path
           d="m -27.219315,142.79766 q 0,0.44958 -0.211873,0.88883 -0.206705,0.43925 -0.583942,0.74414 -0.41341,0.33073 -0.966346,0.51676 -0.547768,0.18604 -1.322912,0.18604 -0.831988,0 -1.498612,-0.15503 -0.661456,-0.15503 -1.348751,-0.45992 v -1.28157 h 0.07235 q 0.583942,0.48576 1.348751,0.7493 0.764808,0.26355 1.4366,0.26355 0.950843,0 1.477941,-0.35656 0.532266,-0.35657 0.532266,-0.95085 0,-0.51159 -0.253214,-0.75447 -0.248046,-0.24288 -0.759641,-0.37724 -0.387572,-0.10335 -0.842323,-0.17053 -0.449584,-0.0672 -0.956011,-0.17053 -1.02319,-0.21704 -1.519283,-0.73897 -0.490924,-0.5271 -0.490924,-1.36942 0,-0.96635 0.816485,-1.5813 0.816485,-0.62011 2.072218,-0.62011 0.811318,0 1.488277,0.15503 0.676959,0.15503 1.198889,0.3824 v 1.20923 h -0.07235 q -0.439248,-0.37207 -1.157548,-0.61495 -0.713132,-0.24805 -1.462438,-0.24805 -0.821653,0 -1.322913,0.34107 -0.496092,0.34106 -0.496092,0.87849 0,0.48059 0.248046,0.75448 0.248046,0.27388 0.873329,0.41857 0.330728,0.0724 0.940508,0.1757 0.60978,0.10336 1.033525,0.21188 0.857827,0.22737 1.291907,0.68729 0.434081,0.45992 0.434081,1.28674 z"
           style="text-align:center;text-anchor:middle;stroke-width:0.264583"
           id="path1073" />
        <path
           d="m -22.656301,144.94222 q -0.273884,0.0724 -0.599445,0.11886 -0.320392,0.0465 -0.573606,0.0465 -0.883664,0 -1.343583,-0.47542 -0.459919,-0.47542 -0.459919,-1.52445 v -3.06957 h -0.656289 v -0.81649 h 0.656289 v -1.65881 h 0.971514 v 1.65881 h 2.005039 v 0.81649 h -2.005039 v 2.63032 q 0,0.45475 0.02067,0.71313 0.02067,0.25322 0.144694,0.47542 0.113688,0.20671 0.310058,0.30489 0.201537,0.093 0.60978,0.093 0.23771,0 0.496092,-0.0672 0.258381,-0.0724 0.372069,-0.11885 h 0.05168 z"
           style="text-align:center;text-anchor:middle;stroke-width:0.264583"
           id="path1075" />
        <path
           d="m -16.692859,144.9939 h -0.971514 v -0.64078 q -0.490925,0.38757 -0.940508,0.59427 -0.449584,0.20671 -0.992185,0.20671 -0.909502,0 -1.415929,-0.55294 -0.506428,-0.5581 -0.506428,-1.63297 v -3.74653 h 0.971514 v 3.28661 q 0,0.43925 0.04134,0.75448 0.04134,0.31005 0.175699,0.53226 0.139526,0.22738 0.361734,0.33073 0.222208,0.10335 0.645954,0.10335 0.377236,0 0.821652,-0.19637 0.449584,-0.19637 0.837156,-0.50126 v -4.3098 h 0.971514 z"
           style="text-align:center;text-anchor:middle;stroke-width:0.264583"
           id="path1077" />
        <path
           d="m -10.098967,144.9939 h -0.971514 v -0.60461 q -0.418578,0.36173 -0.873329,0.56327 -0.454751,0.20154 -0.987017,0.20154 -1.033525,0 -1.643305,-0.79582 -0.604612,-0.79581 -0.604612,-2.20657 0,-0.73381 0.206705,-1.30741 0.211872,-0.57361 0.568439,-0.97668 0.351398,-0.39274 0.816485,-0.59945 0.470254,-0.2067 0.971514,-0.2067 0.454751,0 0.806149,0.0982 0.351399,0.093 0.738971,0.29456 v -2.50114 h 0.971514 z m -0.971514,-1.4211 v -3.31244 q -0.39274,-0.1757 -0.702797,-0.24288 -0.310058,-0.0672 -0.676959,-0.0672 -0.816485,0 -1.271237,0.56844 -0.454751,0.56844 -0.454751,1.6123 0,1.02835 0.351399,1.56579 0.351398,0.53226 1.126543,0.53226 0.41341,0 0.837155,-0.18086 0.423745,-0.18604 0.790647,-0.47543 z"
           style="text-align:center;text-anchor:middle;stroke-width:0.264583"
           id="path1079" />
        <path
           d="m -7.1430853,138.25532 h -1.0955369 v -1.00769 h 1.0955369 z m -0.062012,6.73858 h -0.9715138 v -5.77224 h 0.9715138 z"
           style="text-align:center;text-anchor:middle;stroke-width:0.264583"
           id="path1081" />
        <path
           d="m -0.35282401,142.11037 q 0,1.41076 -0.72346779,2.22724 -0.7234677,0.81649 -1.93786,0.81649 -1.2247275,0 -1.9481953,-0.81649 -0.7183001,-0.81648 -0.7183001,-2.22724 0,-1.41077 0.7183001,-2.22725 0.7234678,-0.82165 1.9481953,-0.82165 1.2143923,0 1.93786,0.82165 0.72346779,0.81648 0.72346779,2.22725 z m -1.00251959,0 q 0,-1.12138 -0.4392483,-1.66398 -0.4392483,-0.54777 -1.2195599,-0.54777 -0.7906469,0 -1.2298952,0.54777 -0.4340806,0.5426 -0.4340806,1.66398 0,1.0852 0.4392483,1.64847 0.4392482,0.5581 1.2247275,0.5581 0.775144,0 1.2143923,-0.55293 0.4444159,-0.55811 0.4444159,-1.65364 z"
           style="text-align:center;text-anchor:middle;stroke-width:0.264583"
           id="path1083" />
      </g>
    </g>
    <g
       transform="translate(1.0583333,-5.3014416)"
       id="g1134">
      <g
         aria-label="Host Controller Service"
         id="text979"
         style="font-style:normal;font-weight:normal;font-size:10.5833px;line-height:1.25;font-family:sans-serif;text-align:center;text-anchor:middle;fill:#000000;fill-opacity:1;stroke:none;stroke-width:0.264583"
         transform="translate(-4.1423069,2.5903253)">
        <path
           d="m 189.72561,124.49518 h -1.02319 v -3.7672 h -3.83955 v 3.7672 h -1.02319 v -7.6946 h 1.02319 v 3.0179 h 3.83955 v -3.0179 h 1.02319 z"
           style="text-align:center;text-anchor:middle;stroke-width:0.264583"
           id="path1000" />
        <path
           d="m 196.63989,121.61164 q 0,1.41076 -0.72347,2.22725 -0.72346,0.81648 -1.93786,0.81648 -1.22472,0 -1.94819,-0.81648 -0.7183,-0.81649 -0.7183,-2.22725 0,-1.41076 0.7183,-2.22724 0.72347,-0.82166 1.94819,-0.82166 1.2144,0 1.93786,0.82166 0.72347,0.81648 0.72347,2.22724 z m -1.00252,0 q 0,-1.12137 -0.43925,-1.66397 -0.43924,-0.54777 -1.21956,-0.54777 -0.79064,0 -1.22989,0.54777 -0.43408,0.5426 -0.43408,1.66397 0,1.0852 0.43925,1.64848 0.43924,0.5581 1.22472,0.5581 0.77515,0 1.2144,-0.55294 0.44441,-0.5581 0.44441,-1.65364 z"
           style="text-align:center;text-anchor:middle;stroke-width:0.264583"
           id="path1002" />
        <path
           d="m 202.27261,122.8312 q 0,0.79065 -0.65629,1.29708 -0.65112,0.50642 -1.78283,0.50642 -0.64079,0 -1.17822,-0.14986 -0.53227,-0.15503 -0.894,-0.33589 v -1.09037 h 0.0517 q 0.45992,0.34623 1.02319,0.55293 0.56327,0.20154 1.08004,0.20154 0.64078,0 1.00252,-0.2067 0.36173,-0.20671 0.36173,-0.65112 0,-0.34107 -0.19637,-0.51677 -0.19637,-0.1757 -0.75447,-0.29972 -0.20671,-0.0465 -0.5426,-0.10852 -0.33073,-0.062 -0.60462,-0.13436 -0.75964,-0.20154 -1.08003,-0.58911 -0.31522,-0.39274 -0.31522,-0.96118 0,-0.35656 0.14469,-0.67179 0.14986,-0.31522 0.44958,-0.56327 0.28939,-0.24288 0.73381,-0.3824 0.44958,-0.1447 1.00251,-0.1447 0.51677,0 1.04387,0.12919 0.53226,0.12403 0.88366,0.30489 v 1.0387 h -0.0517 q -0.37207,-0.27389 -0.90433,-0.45992 -0.53227,-0.1912 -1.04386,-0.1912 -0.53227,0 -0.89917,0.2067 -0.3669,0.20154 -0.3669,0.60461 0,0.35657 0.22221,0.53744 0.21704,0.18086 0.70279,0.29455 0.26872,0.062 0.59945,0.12402 0.3359,0.062 0.5581,0.11369 0.67696,0.15503 1.04386,0.53227 0.36691,0.3824 0.36691,1.01285 z"
           style="text-align:center;text-anchor:middle;stroke-width:0.264583"
           id="path1004" />
        <path
           d="m 206.66509,124.4435 q -0.27389,0.0724 -0.59945,0.11886 -0.32039,0.0465 -0.5736,0.0465 -0.88367,0 -1.34359,-0.47543 -0.45991,-0.47542 -0.45991,-1.52445 v -3.06957 h -0.65629 v -0.81648 h 0.65629 v -1.65881 h 0.97151 v 1.65881 h 2.00504 v 0.81648 h -2.00504 v 2.63033 q 0,0.45475 0.0207,0.71313 0.0207,0.25321 0.14469,0.47542 0.11369,0.20671 0.31006,0.30489 0.20154,0.093 0.60978,0.093 0.23771,0 0.49609,-0.0672 0.25838,-0.0724 0.37207,-0.11886 h 0.0517 z"
           style="text-align:center;text-anchor:middle;stroke-width:0.264583"
           id="path1006" />
        <path
           d="m 175.66449,137.1662 q -0.28421,0.12402 -0.51676,0.23254 -0.22737,0.10852 -0.59944,0.22738 -0.31523,0.0982 -0.6873,0.16536 -0.3669,0.0724 -0.81131,0.0724 -0.83716,0 -1.52445,-0.23254 -0.68213,-0.23772 -1.18856,-0.73898 -0.49609,-0.49092 -0.77514,-1.24539 -0.27905,-0.75964 -0.27905,-1.76216 0,-0.95085 0.26871,-1.70015 0.26872,-0.74931 0.77515,-1.26607 0.49092,-0.50126 1.18338,-0.76481 0.69763,-0.26355 1.54512,-0.26355 0.62012,0 1.23507,0.14986 0.62011,0.14986 1.37458,0.5271 v 1.21439 h -0.0775 q -0.63562,-0.53226 -1.2609,-0.77514 -0.62528,-0.24288 -1.33842,-0.24288 -0.58394,0 -1.05419,0.1912 -0.46509,0.18604 -0.83199,0.58394 -0.35657,0.38758 -0.5581,0.98185 -0.19637,0.58911 -0.19637,1.36426 0,0.81131 0.21704,1.39526 0.22221,0.58394 0.56844,0.95084 0.36173,0.3824 0.84232,0.56844 0.48576,0.18086 1.02319,0.18086 0.73897,0 1.38492,-0.25321 0.64596,-0.25321 1.20923,-0.75964 h 0.0723 z"
           style="text-align:center;text-anchor:middle;stroke-width:0.264583"
           id="path1008" />
        <path
           d="m 181.96383,134.84077 q 0,1.41076 -0.72347,2.22724 -0.72346,0.81649 -1.93786,0.81649 -1.22472,0 -1.94819,-0.81649 -0.7183,-0.81648 -0.7183,-2.22724 0,-1.41077 0.7183,-2.22725 0.72347,-0.82165 1.94819,-0.82165 1.2144,0 1.93786,0.82165 0.72347,0.81648 0.72347,2.22725 z m -1.00252,0 q 0,-1.12138 -0.43925,-1.66398 -0.43924,-0.54777 -1.21956,-0.54777 -0.79064,0 -1.22989,0.54777 -0.43408,0.5426 -0.43408,1.66398 0,1.0852 0.43925,1.64847 0.43924,0.5581 1.22472,0.5581 0.77515,0 1.2144,-0.55293 0.44441,-0.55811 0.44441,-1.65364 z"
           style="text-align:center;text-anchor:middle;stroke-width:0.264583"
           id="path1010" />
        <path
           d="m 188.29934,137.7243 h -0.97151 v -3.28661 q 0,-0.39791 -0.0465,-0.74414 -0.0465,-0.35139 -0.17053,-0.54776 -0.12919,-0.21704 -0.37207,-0.3204 -0.24288,-0.10852 -0.63045,-0.10852 -0.39791,0 -0.83199,0.19637 -0.43408,0.19637 -0.83199,0.50126 v 4.3098 h -0.97151 v -5.77224 h 0.97151 v 0.64079 q 0.45475,-0.37724 0.94051,-0.58911 0.48576,-0.21187 0.99735,-0.21187 0.93534,0 1.42627,0.56327 0.49092,0.56327 0.49092,1.62263 z"
           style="text-align:center;text-anchor:middle;stroke-width:0.264583"
           id="path1012" />
        <path
           d="m 193.16725,137.67263 q -0.27389,0.0723 -0.59945,0.11885 -0.32039,0.0465 -0.5736,0.0465 -0.88367,0 -1.34359,-0.47542 -0.45992,-0.47542 -0.45992,-1.52445 v -3.06957 h -0.65628 v -0.81649 h 0.65628 v -1.6588 h 0.97152 v 1.6588 h 2.00504 v 0.81649 h -2.00504 v 2.63032 q 0,0.45475 0.0207,0.71313 0.0207,0.25322 0.14469,0.47542 0.11369,0.20671 0.31006,0.30489 0.20154,0.093 0.60978,0.093 0.23771,0 0.49609,-0.0672 0.25838,-0.0723 0.37207,-0.11885 h 0.0517 z"
           style="text-align:center;text-anchor:middle;stroke-width:0.264583"
           id="path1014" />
        <path
           d="m 197.9473,133.01143 h -0.0517 q -0.21705,-0.0517 -0.42375,-0.0724 -0.20154,-0.0258 -0.48059,-0.0258 -0.44958,0 -0.86816,0.20154 -0.41858,0.19637 -0.80615,0.51159 v 4.09793 h -0.97151 v -5.77224 h 0.97151 v 0.85266 q 0.57877,-0.46508 1.01802,-0.65629 0.44442,-0.19637 0.90434,-0.19637 0.25321,0 0.3669,0.0155 0.11369,0.0103 0.34106,0.0465 z"
           style="text-align:center;text-anchor:middle;stroke-width:0.264583"
           id="path1016" />
        <path
           d="m 203.79189,134.84077 q 0,1.41076 -0.72347,2.22724 -0.72347,0.81649 -1.93786,0.81649 -1.22473,0 -1.9482,-0.81649 -0.7183,-0.81648 -0.7183,-2.22724 0,-1.41077 0.7183,-2.22725 0.72347,-0.82165 1.9482,-0.82165 1.21439,0 1.93786,0.82165 0.72347,0.81648 0.72347,2.22725 z m -1.00252,0 q 0,-1.12138 -0.43925,-1.66398 -0.43925,-0.54777 -1.21956,-0.54777 -0.79065,0 -1.2299,0.54777 -0.43408,0.5426 -0.43408,1.66398 0,1.0852 0.43925,1.64847 0.43925,0.5581 1.22473,0.5581 0.77514,0 1.21439,-0.55293 0.44442,-0.55811 0.44442,-1.65364 z"
           style="text-align:center;text-anchor:middle;stroke-width:0.264583"
           id="path1018" />
        <path
           d="m 206.28268,137.7243 h -0.97151 v -8.04082 h 0.97151 z"
           style="text-align:center;text-anchor:middle;stroke-width:0.264583"
           id="path1020" />
        <path
           d="m 209.19723,137.7243 h -0.97152 v -8.04082 h 0.97152 z"
           style="text-align:center;text-anchor:middle;stroke-width:0.264583"
           id="path1022" />
        <path
           d="m 215.96165,134.93895 h -4.25296 q 0,0.53227 0.1602,0.93017 0.16019,0.39274 0.43924,0.64596 0.26872,0.24804 0.63562,0.37207 0.37207,0.12402 0.81649,0.12402 0.58911,0 1.18338,-0.23254 0.59945,-0.23771 0.85266,-0.46509 h 0.0517 v 1.05936 q -0.49093,0.20671 -1.00252,0.34624 -0.5116,0.13952 -1.07487,0.13952 -1.4366,0 -2.24275,-0.77514 -0.80615,-0.78031 -0.80615,-2.21175 0,-1.41593 0.76998,-2.24791 0.77514,-0.83199 2.03604,-0.83199 1.16789,0 1.79834,0.68212 0.63562,0.68213 0.63562,1.93786 z m -0.94568,-0.74414 q -0.005,-0.76481 -0.38757,-1.18338 -0.37724,-0.41858 -1.15238,-0.41858 -0.78031,0 -1.2454,0.45992 -0.45992,0.45992 -0.52193,1.14204 z"
           style="text-align:center;text-anchor:middle;stroke-width:0.264583"
           id="path1024" />
        <path
           d="m 221.03626,133.01143 h -0.0517 q -0.21704,-0.0517 -0.42374,-0.0724 -0.20154,-0.0258 -0.48059,-0.0258 -0.44958,0 -0.86816,0.20154 -0.41858,0.19637 -0.80615,0.51159 v 4.09793 h -0.97152 v -5.77224 h 0.97152 v 0.85266 q 0.57877,-0.46508 1.01802,-0.65629 0.44442,-0.19637 0.90434,-0.19637 0.25321,0 0.3669,0.0155 0.11368,0.0103 0.34106,0.0465 z"
           style="text-align:center;text-anchor:middle;stroke-width:0.264583"
           id="path1026" />
        <path
           d="m 181.93799,148.75719 q 0,0.44958 -0.21187,0.88883 -0.2067,0.43925 -0.58394,0.74414 -0.41341,0.33072 -0.96635,0.51676 -0.54777,0.18603 -1.32291,0.18603 -0.83199,0 -1.49861,-0.15503 -0.66146,-0.15502 -1.34875,-0.45991 v -1.28158 h 0.0724 q 0.58394,0.48576 1.34875,0.74931 0.7648,0.26355 1.4366,0.26355 0.95084,0 1.47794,-0.35657 0.53226,-0.35656 0.53226,-0.95084 0,-0.5116 -0.25321,-0.75447 -0.24805,-0.24288 -0.75964,-0.37724 -0.38757,-0.10335 -0.84233,-0.17053 -0.44958,-0.0672 -0.95601,-0.17053 -1.02319,-0.21704 -1.51928,-0.73897 -0.49092,-0.5271 -0.49092,-1.36943 0,-0.96634 0.81648,-1.58129 0.81649,-0.62011 2.07222,-0.62011 0.81132,0 1.48828,0.15502 0.67696,0.15503 1.19889,0.38241 v 1.20922 h -0.0724 q -0.43925,-0.37207 -1.15755,-0.61494 -0.71313,-0.24805 -1.46244,-0.24805 -0.82165,0 -1.32291,0.34106 -0.49609,0.34107 -0.49609,0.8785 0,0.48059 0.24804,0.75447 0.24805,0.27389 0.87333,0.41858 0.33073,0.0724 0.94051,0.1757 0.60978,0.10335 1.03353,0.21187 0.85782,0.22738 1.2919,0.6873 0.43408,0.45992 0.43408,1.28674 z"
           style="text-align:center;text-anchor:middle;stroke-width:0.264583"
           id="path1028" />
        <path
           d="m 188.33552,148.16808 h -4.25296 q 0,0.53226 0.1602,0.93017 0.16019,0.39274 0.43924,0.64595 0.26872,0.24805 0.63562,0.37207 0.37207,0.12402 0.81649,0.12402 0.58911,0 1.18338,-0.23254 0.59945,-0.23771 0.85266,-0.46508 h 0.0517 v 1.05936 q -0.49093,0.2067 -1.00252,0.34623 -0.5116,0.13953 -1.07487,0.13953 -1.4366,0 -2.24275,-0.77515 -0.80615,-0.78031 -0.80615,-2.21174 0,-1.41593 0.76998,-2.24792 0.77514,-0.83199 2.03604,-0.83199 1.16789,0 1.79834,0.68213 0.63562,0.68213 0.63562,1.93786 z m -0.94568,-0.74414 q -0.005,-0.76481 -0.38757,-1.18339 -0.37724,-0.41858 -1.15238,-0.41858 -0.78031,0 -1.2454,0.45992 -0.45992,0.45992 -0.52193,1.14205 z"
           style="text-align:center;text-anchor:middle;stroke-width:0.264583"
           id="path1030" />
        <path
           d="m 193.41013,146.24055 h -0.0517 q -0.21704,-0.0517 -0.42375,-0.0724 -0.20153,-0.0258 -0.48059,-0.0258 -0.44958,0 -0.86816,0.20153 -0.41857,0.19637 -0.80615,0.5116 v 4.09793 h -0.97151 v -5.77224 h 0.97151 v 0.85266 q 0.57878,-0.46509 1.01803,-0.65629 0.44441,-0.19637 0.90433,-0.19637 0.25321,0 0.3669,0.0155 0.11369,0.0103 0.34107,0.0465 z"
           style="text-align:center;text-anchor:middle;stroke-width:0.264583"
           id="path1032" />
        <path
           d="m 199.32706,145.18119 -2.33577,5.77224 h -0.97668 l -2.32027,-5.77224 h 1.0542 l 1.788,4.59402 1.7725,-4.59402 z"
           style="text-align:center;text-anchor:middle;stroke-width:0.264583"
           id="path1034" />
        <path
           d="m 201.64216,144.21484 h -1.09554 v -1.00769 h 1.09554 z m -0.062,6.73859 h -0.97151 v -5.77224 h 0.97151 z"
           style="text-align:center;text-anchor:middle;stroke-width:0.264583"
           id="path1036" />
        <path
           d="m 207.7813,150.59169 q -0.48576,0.23255 -0.92501,0.36174 -0.43408,0.12919 -0.925,0.12919 -0.62529,0 -1.14722,-0.18087 -0.52193,-0.18603 -0.894,-0.5581 -0.37723,-0.37207 -0.58394,-0.94051 -0.2067,-0.56844 -0.2067,-1.32808 0,-1.41593 0.77514,-2.22208 0.78031,-0.80615 2.05672,-0.80615 0.49609,0 0.97151,0.13953 0.48059,0.13952 0.8785,0.34106 v 1.08003 h -0.0517 q -0.44442,-0.34623 -0.91984,-0.53226 -0.47025,-0.18604 -0.91984,-0.18604 -0.82682,0 -1.30741,0.55811 -0.47542,0.55293 -0.47542,1.6278 0,1.04386 0.46509,1.60713 0.47025,0.5581 1.31774,0.5581 0.29456,0 0.59945,-0.0775 0.30489,-0.0775 0.54777,-0.20154 0.21187,-0.10852 0.3979,-0.22737 0.18604,-0.12403 0.29456,-0.21188 h 0.0517 z"
           style="text-align:center;text-anchor:middle;stroke-width:0.264583"
           id="path1038" />
        <path
           d="m 213.86359,148.16808 h -4.25296 q 0,0.53226 0.1602,0.93017 0.1602,0.39274 0.43925,0.64595 0.26872,0.24805 0.63562,0.37207 0.37207,0.12402 0.81648,0.12402 0.58911,0 1.18339,-0.23254 0.59944,-0.23771 0.85266,-0.46508 h 0.0517 v 1.05936 q -0.49092,0.2067 -1.00252,0.34623 -0.51159,0.13953 -1.07486,0.13953 -1.4366,0 -2.24275,-0.77515 -0.80615,-0.78031 -0.80615,-2.21174 0,-1.41593 0.76997,-2.24792 0.77515,-0.83199 2.03605,-0.83199 1.16788,0 1.79833,0.68213 0.63562,0.68213 0.63562,1.93786 z m -0.94567,-0.74414 q -0.005,-0.76481 -0.38758,-1.18339 -0.37723,-0.41858 -1.15238,-0.41858 -0.78031,0 -1.2454,0.45992 -0.45991,0.45992 -0.52193,1.14205 z"
           style="text-align:center;text-anchor:middle;stroke-width:0.264583"
           id="path1040" />
      </g>
      <rect
         ry="1.2940613"
         rx="1.3029399"
         y="113.24399"
         x="157.14062"
         height="46.586205"
         width="67.752876"
         id="rect967-0"
         style="fill:none;stroke:#000000;stroke-width:1.03879;stroke-miterlimit:4;stroke-dasharray:none" />
    </g>
    <path
       id="path1162"
       d="m 8.464341,186.26902 c -12.15789,-0.48979 -18.3953814,-1.85247 -22.173887,-4.84425 -2.502062,-1.98109 -4.118563,-5.18791 -4.72272,-9.36893 -0.31986,-2.21356 -0.530053,-8.96874 -0.411882,-13.23707 l 0.11666,-4.21373 1.976236,2.6e-4 1.976237,2.7e-4 0.01117,6.93747 c 0.01172,7.28194 0.162155,9.61029 0.778203,12.04503 1.315418,5.19876 5.1359148,7.20275 15.5547882,8.15902 6.3531238,0.58311 11.0265348,0.63917 42.9459938,0.5152 l 31.727792,-0.12116 -3.22026,2.01122 h 4.233333 l -1.54224,1.91307 -1.489704,0.0997 c -2.432477,0.1628 -61.963803,0.25681 -65.759721,0.10389 z"
       style="fill:none;stroke:#000000;stroke-width:0.635;stroke-miterlimit:4;stroke-dasharray:none" />
    <path
       style="fill:none;stroke:#000000;stroke-width:0.635;stroke-miterlimit:4;stroke-dasharray:none"
       d="m 169.17814,186.26903 c 12.15789,-0.48979 18.39538,-1.85247 22.17389,-4.84425 2.50206,-1.98109 4.11856,-5.18791 4.72272,-9.36893 0.31986,-2.21356 0.53005,-8.96874 0.41188,-13.23707 l -0.11666,-4.21373 -1.97624,2.6e-4 -1.97623,2.7e-4 -0.0112,6.93747 c -0.0117,7.28194 -0.16216,9.61029 -0.77821,12.04503 -1.31541,5.19876 -5.13591,7.20275 -15.55479,8.15902 -6.35312,0.58311 -11.02653,0.63917 -42.94602,0.5152 l -30.66965,-0.12116 -3.174968,2.0112 h 4.233318 l -1.58751,1.91309 1.48971,0.0997 c 2.43249,0.16277 61.96401,0.25681 65.75993,0.10389 z"
       id="path1162-0" />
  </g>
</svg>
