<?xml version="1.0" encoding="utf-8"?>
<!-- Generator: Adobe Illustrator 26.3.1, SVG Export Plug-In . SVG Version: 6.00 Build 0)  -->
<svg version="1.1" id="Layer_1" xmlns="http://www.w3.org/2000/svg" xmlns:xlink="http://www.w3.org/1999/xlink" x="0px" y="0px"
	 viewBox="0 0 107.8 97.5" style="enable-background:new 0 0 107.8 97.5;" xml:space="preserve">
<style type="text/css">
	.st0{fill:none;stroke:#000000;stroke-width:4;stroke-linecap:round;stroke-linejoin:round;stroke-miterlimit:10;}
</style>
<g id="Cloud" transform="translate(-5.634 -10.49)">
	<path id="Path_5542" class="st0" d="M20.9,80.7c-9.2-3.6-13.7-14-10.1-23.2c2-5.1,6.2-9,11.4-10.6c0.5-0.2,0.9-0.5,1.1-1
		c0.2-0.5,0.2-1,0-1.5C22.4,42.8,22,41,22,39.1c0-6.9,5.6-12.5,12.5-12.5c3.2,0,6.3,1.3,8.7,3.5c0.7,0.7,1.8,0.7,2.5,0
		c0.2-0.2,0.3-0.5,0.4-0.7C49.6,18,61.6,11.6,72.9,15.1c10.8,3.3,17.3,14.4,14.6,25.5c-0.1,0.6,0,1.1,0.4,1.6
		c0.4,0.4,0.9,0.7,1.5,0.6c0.2,0,0.3,0,0.5,0c10.8,0,19.7,8.8,19.7,19.6C109.5,70,105,77,98,80.2"/>
	<path id="Path_5543" class="st0" d="M86.6,68.3H33.3c-1.9,0-3.5-1.5-3.5-3.5v-7c0-1.9,1.5-3.5,3.5-3.5c0,0,0,0,0,0h53.2
		c1.9,0,3.5,1.5,3.5,3.5c0,0,0,0,0,0v7C90,66.7,88.5,68.3,86.6,68.3C86.6,68.3,86.6,68.3,86.6,68.3z"/>
	<path id="Path_5544" class="st0" d="M38.1,58.8c1,0,1.8,0.8,1.8,1.8c0,1-0.8,1.8-1.8,1.8c-1,0-1.8-0.8-1.8-1.8l0,0
		C36.3,59.6,37.1,58.8,38.1,58.8C38.1,58.8,38.1,58.8,38.1,58.8z"/>
	<path id="Path_5545" class="st0" d="M86.3,86.2H33.1c-1.9,0-3.5-1.5-3.5-3.5c0,0,0,0,0,0v-7c0-1.9,1.5-3.5,3.5-3.5c0,0,0,0,0,0
		h53.2c1.9,0,3.5,1.5,3.5,3.5c0,0,0,0,0,0v7C89.8,84.6,88.3,86.2,86.3,86.2C86.4,86.2,86.3,86.2,86.3,86.2z"/>
	<path id="Path_5546" class="st0" d="M37.9,76.7c1,0,1.8,0.8,1.8,1.8c0,1-0.8,1.8-1.8,1.8c-1,0-1.8-0.8-1.8-1.8
		C36.1,77.5,36.9,76.7,37.9,76.7C37.9,76.7,37.9,76.7,37.9,76.7z"/>
	<path id="Path_5547" class="st0" d="M86.3,104.4H33.1c-1.9,0-3.5-1.5-3.5-3.5c0,0,0,0,0,0v-7c0-1.9,1.5-3.5,3.5-3.5c0,0,0,0,0,0
		h53.2c1.9,0,3.5,1.5,3.5,3.5c0,0,0,0,0,0v7C89.8,102.8,88.3,104.3,86.3,104.4C86.4,104.4,86.3,104.4,86.3,104.4z"/>
	<path id="Path_5548" class="st0" d="M37.9,94.8c1,0,1.8,0.8,1.8,1.8c0,1-0.8,1.8-1.8,1.8c-1,0-1.8-0.8-1.8-1.8
		C36.1,95.6,36.9,94.8,37.9,94.8C37.9,94.8,37.9,94.8,37.9,94.8z"/>
</g>
</svg>
