<?xml version="1.0" encoding="utf-8"?>
<!-- Generator: Adobe Illustrator 26.3.1, SVG Export Plug-In . SVG Version: 6.00 Build 0)  -->
<svg version="1.1" id="Layer_1" xmlns="http://www.w3.org/2000/svg" xmlns:xlink="http://www.w3.org/1999/xlink" x="0px" y="0px"
	 viewBox="0 0 128 128" style="enable-background:new 0 0 128 128;" xml:space="preserve">
<style type="text/css">
	.st0{fill:none;stroke:#000000;stroke-width:4;stroke-linecap:round;stroke-linejoin:round;}
</style>
<path class="st0" d="M25.8,17h76.3c4.9,0,8.9,4,8.9,8.9v76.3c0,4.9-4,8.9-8.9,8.9H25.8c-4.9,0-8.9-4-8.9-8.9V25.8
	C17,20.9,20.9,17,25.8,17z"/>
<line class="st0" x1="32.7" y1="5.1" x2="32.7" y2="17"/>
<line class="st0" x1="48.3" y1="5.1" x2="48.3" y2="17"/>
<line class="st0" x1="64" y1="5.1" x2="64" y2="17"/>
<line class="st0" x1="79.7" y1="5.1" x2="79.7" y2="17"/>
<line class="st0" x1="95.3" y1="5.1" x2="95.3" y2="17"/>
<line class="st0" x1="32.7" y1="111" x2="32.7" y2="122.9"/>
<line class="st0" x1="48.3" y1="111" x2="48.3" y2="122.9"/>
<line class="st0" x1="64" y1="111" x2="64" y2="122.9"/>
<line class="st0" x1="79.7" y1="111" x2="79.7" y2="122.9"/>
<line class="st0" x1="95.3" y1="111" x2="95.3" y2="122.9"/>
<line class="st0" x1="122.9" y1="32.7" x2="111" y2="32.7"/>
<line class="st0" x1="122.9" y1="48.3" x2="111" y2="48.3"/>
<line class="st0" x1="122.9" y1="64" x2="111" y2="64"/>
<line class="st0" x1="122.9" y1="79.7" x2="111" y2="79.7"/>
<line class="st0" x1="122.9" y1="95.3" x2="111" y2="95.3"/>
<line class="st0" x1="17" y1="32.7" x2="5.1" y2="32.7"/>
<line class="st0" x1="17" y1="48.3" x2="5.1" y2="48.3"/>
<line class="st0" x1="17" y1="64" x2="5.1" y2="64"/>
<line class="st0" x1="17" y1="79.7" x2="5.1" y2="79.7"/>
<line class="st0" x1="17" y1="95.3" x2="5.1" y2="95.3"/>
<g id="g18">
	<ellipse id="ellipse4" cx="64" cy="85.1" rx="7.9" ry="7.9"/>
	<path id="path6" d="M63.9,63.4c-0.6,0-1.3,0-2,0.1C53.6,64,47.4,69,43.7,73c-0.9,1.1-0.9,2.7,0.2,3.7c1.1,0.9,2.7,0.9,3.7-0.2
		c3.1-3.3,8.2-7.5,14.9-7.9c9.5-0.8,16.3,6.4,18.1,8.6c0.9,1.1,2.6,1.3,3.7,0.3c1.1-0.9,1.3-2.6,0.3-3.7
		C82.3,71.3,74.8,63.4,63.9,63.4z"/>
	<path id="path8" d="M63.9,49.2c-0.7,0-1.4,0-2.1,0.1c-9.4,0.6-18.8,5.1-26.4,12.8c-1,1-1.1,2.8-0.2,3.9c0.9,1.1,2.4,1.2,3.4,0.2
		c3.9-4,12.2-10.8,23.4-11.5c13.1-0.9,22.7,7.3,27.3,12.2c1,1,2.5,1,3.4-0.1c0.9-1.1,0.9-2.9-0.1-3.9C87.7,57.7,77.7,49.2,63.9,49.2
		z"/>
	<path id="path12" d="M63.8,35c-0.5,0-1,0-1.5,0C46.7,35.6,35.4,43.7,30,48.6c-1.1,1-1.4,2.9-0.5,4.3c0.8,1.4,2.4,1.7,3.5,0.7
		c4.9-4.4,15.2-11.8,29.4-12.3c16.4-0.5,28.2,8.7,32.6,12.7c1.1,1,2.7,0.7,3.5-0.6c0.8-1.4,0.6-3.3-0.5-4.3
		C93.4,44.7,80.9,35,63.8,35z"/>
	<path id="path16" d="M64,93c-4.3,0-7.9-3.5-7.9-7.9s3.6-7.9,7.9-7.9c4.3,0,7.9,3.5,7.9,7.9S68.3,93,64,93z M84.1,77.5
		c-1.1,0.9-2.7,0.8-3.7-0.3c-1.9-2.2-8.6-9.4-18.1-8.6c-6.7,0.4-11.7,4.6-14.9,7.9c-0.9,1.1-2.6,1.1-3.7,0.2
		c-1.1-0.9-1.1-2.6-0.2-3.7c3.7-4,10-9,18.2-9.5c0.7-0.1,1.3-0.1,2-0.1c10.9,0,18.4,8,20.5,10.5C85.3,75,85.2,76.6,84.1,77.5z
		 M92.7,66.8c-0.9,1.1-2.5,1.2-3.4,0.1C84.7,62,75.1,53.9,62,54.8c-11.2,0.7-19.5,7.5-23.4,11.5c-1,1-2.6,0.9-3.4-0.2
		c-0.9-1.1-0.8-2.9,0.2-3.9c7.6-7.7,17-12.3,26.4-12.8c0.7-0.1,1.4-0.1,2.1-0.1c13.8,0,23.9,8.5,28.8,13.7
		C93.6,64,93.7,65.7,92.7,66.8z M98.5,53.2c-0.9,1.4-2.4,1.6-3.5,0.6c-4.3-4-16.2-13.2-32.6-12.7C48.2,41.7,37.9,49.1,33,53.5
		c-1.1,1-2.7,0.7-3.5-0.7c-0.8-1.4-0.6-3.3,0.5-4.3c5.4-4.8,16.7-12.9,32.3-13.5c0.5,0,1,0,1.5,0C81,35,93.4,44.7,98,48.9
		C99.1,50,99.3,51.9,98.5,53.2z"/>
</g>
</svg>
