<?xml version="1.0" encoding="utf-8"?>
<!-- Generator: Adobe Illustrator 26.3.1, SVG Export Plug-In . SVG Version: 6.00 Build 0)  -->
<svg version="1.1" id="Layer_1" xmlns="http://www.w3.org/2000/svg" xmlns:xlink="http://www.w3.org/1999/xlink" x="0px" y="0px"
	 viewBox="0 0 64 64" style="enable-background:new 0 0 64 64;" xml:space="preserve">
<style type="text/css">
	.st0{fill:none;}
	.st1{fill:none;stroke:#000000;stroke-width:2;stroke-linecap:round;stroke-linejoin:round;stroke-miterlimit:10;}
</style>
<rect class="st0" width="64" height="64"/>
<g>
	<path class="st1" d="M1.4,29.3v-1.2c0,0,0-0.9,1.8-0.9h1.1c1.3-0.6,2.6-0.9,3.8-1.4l14.5-4.9c2.1,0,1.1,0,1.1,0s0,0,4.1,0h4.5
		c2.6,0,5.1,0.9,7.1,2.7c1.6,1.4,3.2,3.3,4.9,3.9c2.7,0.9,3.8,0.9,5.9,0.9c3.8,0,5.5,0.5,10.5,3.2h-0.8c0,0-1.3,0.1-1.3,0.8
		s0.6,1.3,1.3,1.3h2.8 M7.2,37.9L2.5,37c-0.7-0.1-1.2-2.9-1.2-3.6v-1.9 M42.9,38.8H23.7 M62.8,35.7v1.6c0,0.9-0.7,1.6-1.6,1.6h-1.8
		 M51.4,43.2c-3.2,0-5.6-2.6-5.6-5.6c0-3.2,2.6-5.6,5.6-5.6c3.2,0,5.6,2.6,5.6,5.6C57,40.6,54.4,43.2,51.4,43.2z"/>
	<path class="st1" d="M51.4,34.8c-1.5,0-2.7,1.2-2.7,2.7s1.2,2.7,2.7,2.7s2.7-1.2,2.7-2.7S52.8,34.8,51.4,34.8z"/>
	<path class="st1" d="M62.8,33.5v2.1"/>
	<path class="st1" d="M62.8,33.5h-1.1"/>
	<path class="st1" d="M15,43c-3.2,0-5.6-2.6-5.6-5.6c0-3.1,2.6-5.6,5.6-5.6c3.2,0,5.6,2.6,5.6,5.6C20.7,40.4,18.2,43,15,43z"/>
	<path class="st1" d="M15,34.6c-1.5,0-2.7,1.2-2.7,2.7S13.5,40,15,40s2.7-1.2,2.7-2.7S16.4,34.6,15,34.6z"/>
	<path class="st1" d="M1.4,29.3v2.1"/>
</g>
</svg>
