<?xml version="1.0" encoding="UTF-8"?>
<svg width="32px" height="32px" viewBox="0 0 32 32" version="1.1" xmlns="http://www.w3.org/2000/svg" xmlns:xlink="http://www.w3.org/1999/xlink">
    <!-- Generator: Sketch 48.2 (47327) - http://www.bohemiancoding.com/sketch -->
    <title>gpioIcon</title>
    <desc>Created with Sketch.</desc>
    <defs></defs>
    <g id="Page-1" stroke="none" stroke-width="1" fill="none" fill-rule="evenodd">
        <g id="noun_310072_cc" fill="#000000" fill-rule="nonzero">
            <g id="gpioIcon">
                <path d="M14.3,14.4 L0.7,14.4 L0.7,0.8 L14.3,0.8 L14.3,14.4 Z M2.2,12.9 L12.8,12.9 L12.8,2.3 L2.2,2.3 L2.2,12.9 Z" id="Shape"></path>
                <path d="M14.3,31.3 L0.7,31.3 L0.7,17.6 L14.3,17.6 L14.3,31.3 Z M2.2,29.8 L12.8,29.8 L12.8,19.1 L2.2,19.1 L2.2,29.8 Z" id="Shape"></path>
                <path d="M31.3,14.4 L17.7,14.4 L17.7,0.8 L31.3,0.8 L31.3,14.4 Z M19.2,12.9 L29.8,12.9 L29.8,2.3 L19.2,2.3 L19.2,12.9 Z" id="Shape"></path>
                <path d="M31.3,31.3 L17.7,31.3 L17.7,17.6 L31.3,17.6 L31.3,31.3 Z M19.2,29.8 L29.8,29.8 L29.8,19.1 L19.2,19.1 L19.2,29.8 Z" id="Shape"></path>
            </g>
        </g>
    </g>
</svg>