<?xml version="1.0" encoding="UTF-8"?>
<svg width="18px" height="15px" viewBox="0 0 18 15" version="1.1" xmlns="http://www.w3.org/2000/svg" xmlns:xlink="http://www.w3.org/1999/xlink">
    <!-- Generator: Sketch 48.2 (47327) - http://www.bohemiancoding.com/sketch -->
    <title>menuIcon</title>
    <desc>Created with Sketch.</desc>
    <defs></defs>
    <g id="Page-1" stroke="none" stroke-width="1" fill="none" fill-rule="evenodd">
        <g id="menuIcon" fill="#757561" fill-rule="nonzero">
            <g id="Group">
                <path d="M1.5,3 L16.5,3 C17.3284271,3 18,2.32842712 18,1.5 C18,0.671572875 17.3284271,5.07265313e-17 16.5,0 L1.5,0 C0.671572875,-5.07265313e-17 1.01453063e-16,0.671572875 0,1.5 C-1.01453063e-16,2.32842712 0.671572875,3 1.5,3 Z" id="Shape"></path>
                <path d="M16.5,6 L1.5,6 C0.671572875,6 1.01453063e-16,6.67157288 0,7.5 C-1.01453063e-16,8.32842712 0.671572875,9 1.5,9 L16.5,9 C17.3284271,9 18,8.32842712 18,7.5 C18,6.67157288 17.3284271,6 16.5,6 Z" id="Shape"></path>
                <path d="M16.5,12 L1.5,12 C0.671572875,12 1.01453063e-16,12.6715729 0,13.5 C-1.01453063e-16,14.3284271 0.671572875,15 1.5,15 L16.5,15 C17.3284271,15 18,14.3284271 18,13.5 C18,12.6715729 17.3284271,12 16.5,12 Z" id="Shape"></path>
            </g>
        </g>
    </g>
</svg>