<?xml version="1.0" encoding="UTF-8" standalone="no"?>
<svg
   version="1.0"
   width="500"
   height="500"
   viewBox="0 0 500 500"
   preserveAspectRatio="xMidYMid meet"
   id="svg15"
   xmlns="http://www.w3.org/2000/svg"
   xmlns:svg="http://www.w3.org/2000/svg">
  <defs
     id="defs19" />
  <g
     transform="matrix(0.02297628,0,0,-0.02289725,-5.5424826,504.64692)"
     fill="#000000"
     stroke="none"
     id="g13"
     style="fill:#ffffff">
    <path
       d="m 11025,19633 c -27,-1 -153,-10 -279,-19 l -230,-17 -169,-109 C 9253,18780 8274,17921 7485,16975 6668,15995 6010,14872 5580,13725 c -356,-951 -546,-1857 -601,-2870 -13,-238 -7,-875 11,-1080 63,-742 201,-1406 440,-2110 347,-1023 905,-2042 1624,-2968 259,-334 610,-753 886,-1057 233,-257 654,-692 678,-701 96,-37 588,-147 882,-198 974,-170 2119,-181 3145,-31 940,137 1828,416 2610,819 1521,785 2652,1926 3443,3474 470,919 762,1964 867,3097 55,604 59,1369 9,1960 -113,1348 -497,2580 -1137,3645 -106,178 -321,495 -459,680 -402,539 -859,1013 -1378,1430 -1046,840 -2198,1373 -3544,1640 -511,102 -996,155 -1586,175 -285,9 -337,10 -445,3 z m 775,-2802 c 1117,-121 2050,-508 2865,-1189 134,-113 488,-470 605,-612 886,-1070 1330,-2383 1330,-3935 0,-861 -146,-1678 -425,-2380 -276,-694 -708,-1343 -1238,-1861 -663,-649 -1437,-1082 -2327,-1303 -307,-76 -545,-116 -915,-153 -202,-20 -944,-17 -1155,5 -872,91 -1559,312 -2236,718 -697,418 -1238,936 -1678,1606 -450,686 -734,1415 -865,2223 -59,364 -80,606 -88,1025 -27,1490 348,2730 1150,3800 206,275 512,604 761,820 869,753 1885,1162 3116,1255 63,4 293,7 510,5 315,-3 434,-8 590,-24 z"
       id="path9"
       style="fill:#ffffff" />
    <path
       d="m 9121,19405 c -956,-196 -1788,-512 -2548,-967 -916,-548 -1656,-1212 -2285,-2048 -908,-1209 -1448,-2630 -1607,-4225 -41,-405 -46,-522 -46,-1055 0,-535 6,-674 46,-1070 165,-1636 732,-3078 1684,-4285 122,-154 353,-429 365,-433 5,-2 -24,70 -64,160 -347,777 -611,1586 -780,2391 -284,1344 -259,2816 70,4245 251,1093 705,2192 1338,3247 230,382 622,951 852,1236 455,565 1033,1159 1604,1649 434,372 858,691 1370,1029 134,89 246,164 249,166 10,11 -44,2 -248,-40 z"
       id="path11"
       style="fill:#ffffff" />
  </g>
</svg>
