<?xml version="1.0" encoding="UTF-8" standalone="no"?>
<!-- Generator: Adobe Illustrator 23.0.6, SVG Export Plug-In . SVG Version: 6.00 Build 0)  -->

<svg
   version="1.1"
   id="Layer_1"
   x="0px"
   y="0px"
   viewBox="0 0 500 500"
   style="enable-background:new 0 0 500 500;"
   xml:space="preserve"
   xmlns="http://www.w3.org/2000/svg"
   xmlns:svg="http://www.w3.org/2000/svg"><defs
   id="defs15" />
<style
   type="text/css"
   id="style2">
	.st0{fill:#FFFFFF;}
</style>
<g
   id="Layer_1_1_">
</g>
<g
   id="Layer_1_2_">
</g>
<g
   id="g10">
	<path
   class="st0"
   d="M173.3,367.5c29.3,0,53-19.1,53-42.6V173.1c0-23.5-23.7-42.6-53-42.6c-29.3,0-53,19.1-53,42.6v151.8   C120.3,348.4,144,367.5,173.3,367.5z M156.3,181.2c0-9.2,7.4-16.6,16.6-16.6s16.6,7.4,16.6,16.6v135.6c0,9.2-7.4,16.6-16.6,16.6   s-16.6-7.4-16.6-16.6V181.2z"
   id="path6" />
	<polygon
   class="st0"
   points="266.8,133.3 266.8,364 300.4,364 300.4,235.1 307.3,239.7 342.8,364 378.7,364 378.7,133.3 346,133.3    346,253.6 341.4,248.7 308.3,133.3  "
   id="polygon8" />
</g>
</svg>
