<?xml version="1.0" encoding="UTF-8" standalone="no"?>
<svg
   xmlns:dc="http://purl.org/dc/elements/1.1/"
   xmlns:cc="http://creativecommons.org/ns#"
   xmlns:rdf="http://www.w3.org/1999/02/22-rdf-syntax-ns#"
   xmlns:svg="http://www.w3.org/2000/svg"
   xmlns="http://www.w3.org/2000/svg"
   xmlns:sodipodi="http://sodipodi.sourceforge.net/DTD/sodipodi-0.dtd"
   xmlns:inkscape="http://www.inkscape.org/namespaces/inkscape"
   aria-hidden="true"
   focusable="false"
   data-prefix="fas"
   data-icon="file-import"
   class="svg-inline--fa fa-file-import fa-w-16"
   role="img"
   viewBox="0 0 500 500"
   version="1.1"
   id="svg4"
   sodipodi:docname="bookmark-blank.svg"
   inkscape:version="0.92.4 (5da689c313, 2019-01-14)"
   width="500"
   height="500">
  <metadata
     id="metadata10">
    <rdf:RDF>
      <cc:Work
         rdf:about="">
        <dc:format>image/svg+xml</dc:format>
        <dc:type
           rdf:resource="http://purl.org/dc/dcmitype/StillImage" />
        <dc:title />
      </cc:Work>
    </rdf:RDF>
  </metadata>
  <defs
     id="defs8" />
  <sodipodi:namedview
     pagecolor="#ffffff"
     bordercolor="#666666"
     borderopacity="1"
     objecttolerance="10"
     gridtolerance="10"
     guidetolerance="10"
     inkscape:pageopacity="0"
     inkscape:pageshadow="2"
     inkscape:window-width="3360"
     inkscape:window-height="1975"
     id="namedview6"
     showgrid="true"
     inkscape:zoom="2.8284271"
     inkscape:cx="278.51302"
     inkscape:cy="313.37435"
     inkscape:window-x="-13"
     inkscape:window-y="-13"
     inkscape:window-maximized="1"
     inkscape:current-layer="svg4">
    <inkscape:grid
       type="xygrid"
       id="grid15" />
  </sodipodi:namedview>
  <path
     style="opacity:1;fill:#000000;fill-opacity:1;stroke:none;stroke-width:30;stroke-miterlimit:4;stroke-dasharray:none;stroke-opacity:0.19130435"
     d="M 95.162199,251.62645 C 95.163583,81.185599 95.276228,8.4201029 95.540169,7.4695848 95.829926,6.4260936 96.191787,6.0003555 97.117832,5.6134295 98.14985,5.1822246 119.72138,5.1141592 249.91687,5.1312973 c 116.4834,0.015333 151.88399,0.1176986 152.83481,0.4419417 0.93456,0.3187021 1.34072,0.7248585 1.65942,1.6594233 0.32526,0.9537956 0.42656,56.9324377 0.44195,244.2170077 0.011,133.63876 -0.0539,242.97957 -0.14425,242.97957 -0.0903,0 -34.09773,-25.25839 -75.57204,-56.12971 -41.47431,-30.87137 -76.14501,-56.65906 -77.04599,-57.30599 l -1.63816,-1.17627 -77.48379,57.30598 c -42.61609,31.5183 -77.556877,57.30599 -77.646196,57.30599 -0.08932,0 -0.16151,-109.26126 -0.160425,-242.80279 z M 186.68744,378.3526 c 65.43456,-49.46652 63.57299,-48.07955 64.10801,-47.76389 0.59913,0.35348 27.42218,20.72046 74.17448,56.32134 20.70939,15.76975 37.77276,28.67332 37.9186,28.67455 0.32174,0.004 0.35986,-360.893377 0.0384,-363.238864 -0.15872,-1.158032 -0.45054,-1.783012 -0.97227,-2.082278 -0.57764,-0.331339 -25.81009,-0.451639 -112.07249,-0.534332 l -111.32702,-0.106716 -0.8378,0.787066 -0.83779,0.787066 V 233.15599 c 0,100.07769 0.10174,182.06117 0.22609,182.18551 0.12435,0.12438 0.38337,0.12891 0.5756,0.0102 0.19222,-0.11882 22.24502,-16.76836 49.00622,-36.999 z"
     id="path820"
     inkscape:connector-curvature="0" />
</svg>
