<?xml version="1.0" encoding="UTF-8" standalone="no"?>
<svg
   xmlns:dc="http://purl.org/dc/elements/1.1/"
   xmlns:cc="http://creativecommons.org/ns#"
   xmlns:rdf="http://www.w3.org/1999/02/22-rdf-syntax-ns#"
   xmlns:svg="http://www.w3.org/2000/svg"
   xmlns="http://www.w3.org/2000/svg"
   xmlns:sodipodi="http://sodipodi.sourceforge.net/DTD/sodipodi-0.dtd"
   xmlns:inkscape="http://www.inkscape.org/namespaces/inkscape"
   aria-hidden="true"
   focusable="false"
   data-prefix="fas"
   data-icon="exclamation-triangle"
   class="svg-inline--fa fa-exclamation-triangle fa-w-18"
   role="img"
   viewBox="0 0 500 500"
   version="1.1"
   id="svg4"
   sodipodi:docname="exclamation-triangle.svg"
   width="500"
   height="500"
   inkscape:version="0.92.4 (f8dce91, 2019-08-02)">
  <metadata
     id="metadata10">
    <rdf:RDF>
      <cc:Work
         rdf:about="">
        <dc:format>image/svg+xml</dc:format>
        <dc:type
           rdf:resource="http://purl.org/dc/dcmitype/StillImage" />
        <dc:title></dc:title>
      </cc:Work>
    </rdf:RDF>
  </metadata>
  <defs
     id="defs8" />
  <sodipodi:namedview
     pagecolor="#ffffff"
     bordercolor="#666666"
     borderopacity="1"
     objecttolerance="10"
     gridtolerance="10"
     guidetolerance="10"
     inkscape:pageopacity="0"
     inkscape:pageshadow="2"
     inkscape:window-width="1268"
     inkscape:window-height="921"
     id="namedview6"
     showgrid="false"
     inkscape:zoom="0.4609375"
     inkscape:cx="288"
     inkscape:cy="256"
     inkscape:window-x="49"
     inkscape:window-y="27"
     inkscape:window-maximized="0"
     inkscape:current-layer="svg4" />
  <path
     d="m 489.48506,406.5388 c 15.70211,27.21711 -4.00762,61.23892 -35.36931,61.23892 H 45.879503 c -31.422092,0 -51.0408019,-34.07456 -35.369313,-61.23892 L 214.63087,52.626186 c 15.70976,-27.22987 55.05693,-27.18053 70.73862,0 z M 250.00017,333.36803 c -21.61187,0 -39.13192,17.52005 -39.13192,39.13194 0,21.61189 17.52005,39.13194 39.13192,39.13194 21.61189,0 39.13194,-17.52005 39.13194,-39.13194 0,-21.61189 -17.52005,-39.13194 -39.13194,-39.13194 z m -37.15236,-140.65887 6.31045,115.69441 c 0.29519,5.41381 4.77155,9.65197 10.19302,9.65197 h 41.2978 c 5.42147,0 9.89782,-4.23816 10.19302,-9.65197 l 6.31045,-115.69441 c 0.31901,-5.84768 -4.33685,-10.76469 -10.19302,-10.76469 h -53.91955 c -5.85618,0 -10.51118,4.91701 -10.19217,10.76469 z"
     id="path2"
     inkscape:connector-curvature="0"
     style="fill:currentColor;stroke-width:0.99999994" />
</svg>
