<?xml version="1.0" encoding="UTF-8" standalone="no"?>
<svg
   xmlns:dc="http://purl.org/dc/elements/1.1/"
   xmlns:cc="http://creativecommons.org/ns#"
   xmlns:rdf="http://www.w3.org/1999/02/22-rdf-syntax-ns#"
   xmlns:svg="http://www.w3.org/2000/svg"
   xmlns="http://www.w3.org/2000/svg"
   xmlns:sodipodi="http://sodipodi.sourceforge.net/DTD/sodipodi-0.dtd"
   xmlns:inkscape="http://www.inkscape.org/namespaces/inkscape"
   aria-hidden="true"
   focusable="false"
   data-prefix="fas"
   data-icon="info-circle"
   class="svg-inline--fa fa-info-circle fa-w-16"
   role="img"
   viewBox="0 0 500 500"
   version="1.1"
   id="svg4"
   sodipodi:docname="info-circle.svg"
   width="500"
   height="500"
   inkscape:version="0.92.4 (f8dce91, 2019-08-02)">
  <metadata
     id="metadata10">
    <rdf:RDF>
      <cc:Work
         rdf:about="">
        <dc:format>image/svg+xml</dc:format>
        <dc:type
           rdf:resource="http://purl.org/dc/dcmitype/StillImage" />
        <dc:title></dc:title>
      </cc:Work>
    </rdf:RDF>
  </metadata>
  <defs
     id="defs8" />
  <sodipodi:namedview
     pagecolor="#ffffff"
     bordercolor="#666666"
     borderopacity="1"
     objecttolerance="10"
     gridtolerance="10"
     guidetolerance="10"
     inkscape:pageopacity="0"
     inkscape:pageshadow="2"
     inkscape:window-width="1216"
     inkscape:window-height="731"
     id="namedview6"
     showgrid="false"
     inkscape:zoom="0.4609375"
     inkscape:cx="256"
     inkscape:cy="256"
     inkscape:window-x="49"
     inkscape:window-y="27"
     inkscape:window-maximized="0"
     inkscape:current-layer="svg4" />
  <path
     d="M 250,5 C 114.69974,5 5,114.73925 5,250 5,385.33978 114.69974,495 250,495 385.30026,495 495,385.33978 495,250 495,114.73925 385.30026,5 250,5 Z m 0,108.66936 c 22.9154,0 41.49194,18.57653 41.49194,41.49193 0,22.9154 -18.57654,41.49194 -41.49194,41.49194 -22.9154,0 -41.49193,-18.57654 -41.49193,-41.49194 0,-22.9154 18.57653,-41.49193 41.49193,-41.49193 z m 55.32258,250.92742 c 0,6.54683 -5.308,11.85483 -11.85484,11.85483 h -86.93548 c -6.54684,0 -11.85484,-5.308 -11.85484,-11.85483 V 340.8871 c 0,-6.54684 5.308,-11.85484 11.85484,-11.85484 h 11.85484 v -63.22581 h -11.85484 c -6.54684,0 -11.85484,-5.308 -11.85484,-11.85484 v -23.70967 c 0,-6.54684 5.308,-11.85484 11.85484,-11.85484 h 63.22581 c 6.54683,0 11.85483,5.308 11.85483,11.85484 v 98.79032 h 11.85484 c 6.54684,0 11.85484,5.308 11.85484,11.85484 z"
     id="path2"
     inkscape:connector-curvature="0"
     style="fill:currentColor;stroke-width:1" />
</svg>
