<?xml version="1.0" encoding="utf-8"?>
<!-- Generator: Adobe Illustrator 24.1.2, SVG Export Plug-In . SVG Version: 6.00 Build 0)  -->
<svg version="1.1" id="Layer_1" focusable="false" xmlns="http://www.w3.org/2000/svg" xmlns:xlink="http://www.w3.org/1999/xlink"
	 x="0px" y="0px" viewBox="0 0 500 500" style="enable-background:new 0 0 500 500;" xml:space="preserve">
<path d="M250,5C114.7,5,5,114.7,5,250s109.7,245,245,245s245-109.7,245-245S385.3,5,250,5z M370.1,314.3c4.6,4.6,4.6,12.2,0,16.8
	l-39.1,39c-4.6,4.6-12.2,4.6-16.8,0L250,305.3l-64.3,64.8c-4.6,4.6-12.2,4.6-16.8,0l-39-39.1c-4.6-4.6-4.6-12.2,0-16.8l64.8-64.2
	l-64.8-64.3c-4.6-4.6-4.6-12.2,0-16.8l39.1-39.1c4.6-4.6,12.2-4.6,16.8,0l64.2,64.9l64.3-64.8c4.6-4.6,12.2-4.6,16.8,0l39.1,39.1
	c4.6,4.6,4.6,12.2,0,16.8L305.3,250L370.1,314.3z"/>
</svg>
