<?xml version="1.0" encoding="UTF-8" standalone="no"?>
<svg
   xmlns:dc="http://purl.org/dc/elements/1.1/"
   xmlns:cc="http://creativecommons.org/ns#"
   xmlns:rdf="http://www.w3.org/1999/02/22-rdf-syntax-ns#"
   xmlns:svg="http://www.w3.org/2000/svg"
   xmlns="http://www.w3.org/2000/svg"
   xmlns:sodipodi="http://sodipodi.sourceforge.net/DTD/sodipodi-0.dtd"
   xmlns:inkscape="http://www.inkscape.org/namespaces/inkscape"
   aria-hidden="true"
   focusable="false"
   data-prefix="fas"
   data-icon="times"
   class="svg-inline--fa fa-times fa-w-11"
   role="img"
   viewBox="0 0 500 500"
   version="1.1"
   id="svg4"
   sodipodi:docname="times.svg"
   width="500"
   height="500"
   inkscape:version="0.92.4 (f8dce91, 2019-08-02)">
  <metadata
     id="metadata10">
    <rdf:RDF>
      <cc:Work
         rdf:about="">
        <dc:format>image/svg+xml</dc:format>
        <dc:type
           rdf:resource="http://purl.org/dc/dcmitype/StillImage" />
        <dc:title></dc:title>
      </cc:Work>
    </rdf:RDF>
  </metadata>
  <defs
     id="defs8" />
  <sodipodi:namedview
     pagecolor="#ffffff"
     bordercolor="#666666"
     borderopacity="1"
     objecttolerance="10"
     gridtolerance="10"
     guidetolerance="10"
     inkscape:pageopacity="0"
     inkscape:pageshadow="2"
     inkscape:window-width="1571"
     inkscape:window-height="998"
     id="namedview6"
     showgrid="true"
     fit-margin-top="10"
     fit-margin-left="10"
     fit-margin-bottom="10"
     fit-margin-right="10"
     inkscape:zoom="0.73952369"
     inkscape:cx="-296.29824"
     inkscape:cy="186"
     inkscape:window-x="67"
     inkscape:window-y="27"
     inkscape:window-maximized="0"
     inkscape:current-layer="svg4">
    <inkscape:grid
       type="xygrid"
       id="grid3715"
       originx="10"
       originy="-70" />
  </sodipodi:namedview>
  <path
     d="M 342.87728,250 482.17926,110.69801 c 17.09432,-17.09432 17.09432,-44.809941 0,-61.91818 L 451.22017,17.820739 c -17.09431,-17.09431825 -44.80994,-17.09431825 -61.91818,0 L 250,157.12273 110.69801,17.820739 c -17.094316,-17.09431825 -44.809941,-17.09431825 -61.91818,0 L 17.820739,48.77983 c -17.09431874,17.094318 -17.09431874,44.80994 0,61.91818 L 157.12273,250 17.820739,389.30199 c -17.09431874,17.09432 -17.09431874,44.80995 0,61.91818 l 30.959091,30.95909 c 17.094318,17.09432 44.823864,17.09432 61.91818,0 L 250,342.87728 389.30199,482.17926 c 17.09432,17.09432 44.82387,17.09432 61.91818,0 l 30.95909,-30.95909 c 17.09432,-17.09431 17.09432,-44.80994 0,-61.91818 z"
     id="path2"
     inkscape:connector-curvature="0"
     style="fill:currentColor;stroke-width:1.42613637" />
</svg>
