<?xml version="1.0" encoding="UTF-8" standalone="no"?>
<svg
   xmlns:dc="http://purl.org/dc/elements/1.1/"
   xmlns:cc="http://creativecommons.org/ns#"
   xmlns:rdf="http://www.w3.org/1999/02/22-rdf-syntax-ns#"
   xmlns:svg="http://www.w3.org/2000/svg"
   xmlns="http://www.w3.org/2000/svg"
   xmlns:sodipodi="http://sodipodi.sourceforge.net/DTD/sodipodi-0.dtd"
   xmlns:inkscape="http://www.inkscape.org/namespaces/inkscape"
   aria-hidden="true"
   focusable="false"
   data-prefix="fas"
   data-icon="times"
   class="svg-inline--fa fa-times fa-w-11"
   role="img"
   viewBox="0 0 512 512"
   version="1.1"
   id="svg4"
   sodipodi:docname="times.svg"
   width="512"
   height="512"
   inkscape:version="0.92.4 (33fec40, 2019-01-16)">
  <metadata
     id="metadata10">
    <rdf:RDF>
      <cc:Work
         rdf:about="">
        <dc:format>image/svg+xml</dc:format>
        <dc:type
           rdf:resource="http://purl.org/dc/dcmitype/StillImage" />
        <dc:title></dc:title>
      </cc:Work>
    </rdf:RDF>
  </metadata>
  <defs
     id="defs8" />
  <sodipodi:namedview
     pagecolor="#ffffff"
     bordercolor="#666666"
     borderopacity="1"
     objecttolerance="10"
     gridtolerance="10"
     guidetolerance="10"
     inkscape:pageopacity="0"
     inkscape:pageshadow="2"
     inkscape:window-width="1571"
     inkscape:window-height="998"
     id="namedview6"
     showgrid="true"
     fit-margin-top="10"
     fit-margin-left="10"
     fit-margin-bottom="10"
     fit-margin-right="10"
     inkscape:zoom="0.73952369"
     inkscape:cx="93.141616"
     inkscape:cy="186"
     inkscape:window-x="67"
     inkscape:window-y="27"
     inkscape:window-maximized="0"
     inkscape:current-layer="svg4">
    <inkscape:grid
       type="xygrid"
       id="grid3715"
       originx="10"
       originy="-70" />
  </sodipodi:namedview>
  <path
     d="M 347.4064,256 484.5023,118.9041 c 16.8236,-16.8236 16.8236,-44.1003 0,-60.9376 L 454.0335,27.4977 c -16.8236,-16.8236 -44.1003,-16.8236 -60.9376,0 L 256,164.5936 118.9041,27.4977 c -16.8236,-16.8236 -44.1003,-16.8236 -60.9376,0 L 27.4977,57.9665 c -16.8236,16.8236 -16.8236,44.1003 0,60.9376 L 164.5936,256 27.4977,393.0959 c -16.8236,16.8236 -16.8236,44.1003 0,60.9376 l 30.4688,30.4688 c 16.8236,16.8236 44.114,16.8236 60.9376,0 L 256,347.4064 393.0959,484.5023 c 16.8236,16.8236 44.114,16.8236 60.9376,0 l 30.4688,-30.4688 c 16.8236,-16.8236 16.8236,-44.1003 0,-60.9376 z"
     id="path2"
     inkscape:connector-curvature="0"
     style="fill:currentColor;stroke-width:1.37" />
</svg>
