<?xml version="1.0" encoding="utf-8"?>
<!-- Generator: Adobe Illustrator 24.1.2, SVG Export Plug-In . SVG Version: 6.00 Build 0)  -->
<svg version="1.1" id="Layer_1" focusable="false" xmlns="http://www.w3.org/2000/svg" xmlns:xlink="http://www.w3.org/1999/xlink"
	 x="0px" y="0px" viewBox="0 0 500 500" style="enable-background:new 0 0 500 500;" xml:space="preserve">
<g>
	<path d="M190.7,203.9v69.3c0,9.8,8,17.8,17.8,17.8h83.1c9.8,0,17.8-8,17.8-17.8v-69.3h68.3c31.7,0,47.6-38.4,25.2-60.8L275.2,15.4
		c-13.9-13.9-36.5-13.9-50.4,0L97.1,143.1c-22.4,22.4-6.5,60.8,25.2,60.8H190.7z"/>
	<path d="M297.3,378.4h-94.5c-6.7,0-12.1-5.4-12.1-12.1v-44.6c0-6.7,5.4-12.1,12.1-12.1h94.5c6.7,0,12.1,5.4,12.1,12.1v44.6
		C309.3,373,303.9,378.4,297.3,378.4z"/>
	<path d="M297.3,447.5h-94.5c-6.7,0-12.1-5.4-12.1-12.1v-26.3c0-6.7,5.4-12.1,12.1-12.1h94.5c6.7,0,12.1,5.4,12.1,12.1v26.3
		C309.3,442.1,303.9,447.5,297.3,447.5z"/>
	<path d="M297.3,495h-94.5c-6.7,0-12.1-5.4-12.1-12.1v-5.2c0-6.7,5.4-12.1,12.1-12.1h94.5c6.7,0,12.1,5.4,12.1,12.1v5.2
		C309.3,489.6,303.9,495,297.3,495z"/>
</g>
</svg>
