<?xml version="1.0" encoding="UTF-8" standalone="no"?>
<svg
   id="svg8"
   version="1.1"
   viewBox="0 0 256 256"
   height="256"
   width="256"
   sodipodi:docname="lcu-logo.svg"
   inkscape:version="1.1.1 (c3084ef, 2021-09-22)"
   xmlns:inkscape="http://www.inkscape.org/namespaces/inkscape"
   xmlns:sodipodi="http://sodipodi.sourceforge.net/DTD/sodipodi-0.dtd"
   xmlns:xlink="http://www.w3.org/1999/xlink"
   xmlns="http://www.w3.org/2000/svg"
   xmlns:svg="http://www.w3.org/2000/svg"
   xmlns:rdf="http://www.w3.org/1999/02/22-rdf-syntax-ns#"
   xmlns:cc="http://creativecommons.org/ns#"
   xmlns:dc="http://purl.org/dc/elements/1.1/">
  <sodipodi:namedview
     id="namedview349"
     pagecolor="#ffffff"
     bordercolor="#666666"
     borderopacity="1.0"
     inkscape:pageshadow="2"
     inkscape:pageopacity="0.0"
     inkscape:pagecheckerboard="0"
     showgrid="false"
     inkscape:zoom="2.4652628"
     inkscape:cx="224.92531"
     inkscape:cy="112.15843"
     inkscape:window-width="1920"
     inkscape:window-height="1027"
     inkscape:window-x="0"
     inkscape:window-y="25"
     inkscape:window-maximized="0"
     inkscape:current-layer="svg8"
     inkscape:snap-text-baseline="true" />
  <defs
     id="defs2">
    <inkscape:path-effect
       effect="powerstroke"
       id="path-effect7673"
       is_visible="true"
       lpeversion="1"
       offset_points="3,18.8679"
       not_jump="false"
       sort_points="true"
       interpolator_type="CubicBezierJohan"
       interpolator_beta="0.2"
       start_linecap_type="zerowidth"
       linejoin_type="extrp_arc"
       miter_limit="4"
       scale_width="1"
       end_linecap_type="zerowidth" />
    <rect
       x="74.76716"
       y="93.372813"
       width="110.60027"
       height="48.581427"
       id="rect21110" />
    <linearGradient
       id="linearGradient13115">
      <stop
         style="stop-color:#ffffff;stop-opacity:1;"
         offset="0"
         id="stop13111" />
      <stop
         style="stop-color:#ffffff;stop-opacity:0;"
         offset="1"
         id="stop13113" />
    </linearGradient>
    <linearGradient
       id="linearGradient12769">
      <stop
         style="stop-color:#ffffff;stop-opacity:1;"
         offset="0"
         id="stop12767" />
    </linearGradient>
    <linearGradient
       id="linearGradient11557">
      <stop
         style="stop-color:#ffffff;stop-opacity:1;"
         offset="0"
         id="stop11555" />
    </linearGradient>
    <linearGradient
       xlink:href="#linearGradient13115"
       id="linearGradient13117"
       x1="8.9575598"
       y1="32.000023"
       x2="55.042394"
       y2="32.000023"
       gradientUnits="userSpaceOnUse" />
  </defs>
  <metadata
     id="metadata5">
    <rdf:RDF>
      <cc:Work
         rdf:about="">
        <dc:format>image/svg+xml</dc:format>
        <dc:type
           rdf:resource="http://purl.org/dc/dcmitype/StillImage" />
      </cc:Work>
    </rdf:RDF>
  </metadata>
  <g
     transform="translate(0,-229.26667)"
     id="layer1">
    <circle
       style="fill:#ffffff;fill-opacity:1;stroke:#646464;stroke-width:1;stroke-miterlimit:4;stroke-dasharray:none;stroke-dashoffset:0;stroke-opacity:1"
       id="path915"
       cx="128"
       cy="357.26666"
       r="126.5" />
    <circle
       r="120"
       cy="357.26666"
       cx="128"
       id="path815"
       style="fill:#4ab043;fill-opacity:1;stroke:none;stroke-width:4;stroke-miterlimit:4;stroke-dasharray:none;stroke-dashoffset:0;stroke-opacity:1" />
    <rect
       style="fill:#ffffff;fill-opacity:1;stroke:none;stroke-width:30;stroke-miterlimit:4;stroke-dasharray:none;stroke-dashoffset:0;stroke-opacity:1"
       id="rect817"
       width="40"
       height="40"
       x="58"
       y="287.26666"
       rx="1"
       ry="1" />
    <rect
       style="fill:#ffffff;fill-opacity:1;stroke:none;stroke-width:30;stroke-miterlimit:4;stroke-dasharray:none;stroke-dashoffset:0;stroke-opacity:1"
       id="rect817-9"
       width="40"
       height="40"
       x="108"
       y="287.26666"
       rx="1"
       ry="1" />
    <rect
       style="fill:#ffffff;fill-opacity:1;stroke:none;stroke-width:30;stroke-miterlimit:4;stroke-dasharray:none;stroke-dashoffset:0;stroke-opacity:1"
       id="rect817-1"
       width="40"
       height="40"
       x="158"
       y="287.26666"
       rx="1"
       ry="1" />
    <rect
       style="fill:#ffffff;fill-opacity:1;stroke:none;stroke-width:30;stroke-miterlimit:4;stroke-dasharray:none;stroke-dashoffset:0;stroke-opacity:1"
       id="rect817-2"
       width="40"
       height="40"
       x="58"
       y="337.26666"
       rx="1"
       ry="1" />
    <rect
       style="fill:#ffffff;fill-opacity:1;stroke:none;stroke-width:30;stroke-miterlimit:4;stroke-dasharray:none;stroke-dashoffset:0;stroke-opacity:1"
       id="rect817-9-7"
       width="40"
       height="40"
       x="108"
       y="337.26666"
       rx="1"
       ry="1" />
    <rect
       style="fill:#ffffff;fill-opacity:1;stroke:none;stroke-width:30;stroke-miterlimit:4;stroke-dasharray:none;stroke-dashoffset:0;stroke-opacity:1"
       id="rect817-1-0"
       width="40"
       height="40"
       x="158"
       y="337.26666"
       rx="1"
       ry="1" />
    <rect
       style="fill:#ffffff;fill-opacity:1;stroke:none;stroke-width:30;stroke-miterlimit:4;stroke-dasharray:none;stroke-dashoffset:0;stroke-opacity:1"
       id="rect817-93"
       width="40"
       height="40"
       x="58"
       y="387.26666"
       rx="1"
       ry="1" />
    <rect
       style="fill:#ffffff;fill-opacity:1;stroke:none;stroke-width:30;stroke-miterlimit:4;stroke-dasharray:none;stroke-dashoffset:0;stroke-opacity:1"
       id="rect817-9-6"
       width="40"
       height="40"
       x="108"
       y="387.26666"
       rx="1"
       ry="1" />
    <rect
       style="fill:#ffffff;fill-opacity:1;stroke:none;stroke-width:30;stroke-miterlimit:4;stroke-dasharray:none;stroke-dashoffset:0;stroke-opacity:1"
       id="rect817-1-06"
       width="40"
       height="40"
       x="158"
       y="387.26666"
       rx="1"
       ry="1" />
  </g>
  <rect
     style="fill:#777777;fill-rule:evenodd;stroke:#000000;stroke-opacity:1;fill-opacity:1;stroke-width:5;stroke-miterlimit:4;stroke-dasharray:none;stroke-linejoin:round;stroke-linecap:round"
     id="rect128"
     width="145.74428"
     height="172.61911"
     x="55.127861"
     y="41.345894" />
  <path
     style="fill:#4ab043;fill-rule:nonzero;stroke:#4ab043;stroke-width:5.3;stroke-linecap:round;stroke-linejoin:round;stroke-opacity:1;fill-opacity:1;stroke-miterlimit:4;stroke-dasharray:none"
     d="m 200.37213,41.345894 c 0,5.701298 1e-5,19.103829 1e-5,32.405556 -4.84278,-5.69739 -9.59857,-11.292431 -13.76237,-16.191021 -4.20923,-4.952033 -9.02343,-10.615797 -13.9209,-16.377531 11.5584,0.271962 23.21726,0.546288 28.1715,0.662858 z m 0.51176,-0.499862 c -5.11364,-0.120321 -17.3703,-0.408712 -29.28667,-0.689097 a 0.5,0.5 70.491683 0 0 -0.39273,0.823686 c 5.14537,6.053376 10.2273,12.032111 14.64334,17.227456 4.41604,5.195346 9.49797,11.174081 14.64334,17.227456 a 0.50000001,0.49999993 24.817725 0 0 0.88097,-0.323824 c 0,-13.738873 -1e-5,-27.870081 -1e-5,-33.765815 z"
     id="path1748" />
  <path
     style="fill:#000000;fill-rule:nonzero;stroke:#000000;stroke-width:5.2;stroke-linecap:butt;stroke-linejoin:round;stroke-opacity:1;stroke-miterlimit:4;stroke-dasharray:none"
     d="M 171.58546,40.656797 200.87214,75.111709 171.58546,74.76716 Z"
     id="path2730" />
  <path
     style="fill:#4ab043;fill-opacity:1;stroke:#4ab043;stroke-width:5.2;stroke-linecap:round;stroke-linejoin:round;stroke-miterlimit:4;stroke-dasharray:none;stroke-opacity:1"
     id="path6116"
     d="m 207.19154,71.136566 c -0.66015,-0.608636 -1.30049,-1.236395 -1.92482,-1.88248 -0.23783,-0.248944 -0.14885,-0.132804 -0.28604,-0.332914 -0.8042,-1.067175 -2.31342,0.07013 -1.50922,1.137308 v 0 c 0.28725,0.367468 0.14036,0.199066 0.4364,0.508889 0.63185,0.653689 1.28003,1.289115 1.94741,1.905459 0.94488,0.94488 2.28115,-0.391382 1.33627,-1.336262 z" />
  <path
     style="fill:#4ab043;fill-opacity:1;stroke:#4ab043;stroke-width:5.2;stroke-linecap:round;stroke-linejoin:round;stroke-miterlimit:4;stroke-dasharray:none;stroke-opacity:1"
     id="path6118"
     d="m 204.57341,65.134622 c 0.0746,-1.456751 0.2335,-2.902234 0.42956,-4.346838 0.11126,-0.766085 0.21661,-1.532652 0.24884,-2.306431 0.0573,-0.853979 -0.10841,-1.698306 -0.19893,-2.544436 -0.0771,-0.820734 -0.10861,-1.63881 -0.24034,-2.453333 -0.16175,-0.977221 -0.30775,-1.957314 -0.43397,-2.940045 -0.11198,-0.841165 -0.13341,-1.690156 -0.14791,-2.537476 -0.008,-0.591946 -0.006,-1.183949 -0.004,-1.775923 10e-4,-0.588881 0.002,-1.177763 0.002,-1.766645 2e-4,-0.575203 2e-4,-1.150405 2e-4,-1.725608 -1e-5,-0.440635 -2e-5,-0.881269 -2e-5,-1.321904 0.0483,-0.514909 -0.0946,-0.970475 -0.32956,-1.421907 -0.17738,-0.330104 -0.48142,-0.567003 -0.67937,-0.877394 -0.22196,-0.372466 -0.61192,-0.608449 -0.97975,-0.815374 -0.33548,-0.155665 -0.64002,-0.356611 -0.98581,-0.492748 -0.24709,-0.132268 -0.45927,-0.311077 -0.69355,-0.463692 -0.34838,-0.220521 -0.72769,-0.333158 -1.1343,-0.377185 -0.34695,-0.02381 -0.69508,-0.0167 -1.04259,-0.01552 -0.36757,0.0014 -0.73514,0.0022 -1.10271,0.0028 -1.33626,0.0022 -1.33315,1.891957 0.003,1.889758 v 0 c 0.36868,-6.07e-4 0.73736,-0.0014 1.10603,-0.0028 0.28792,-9.81e-4 0.57621,-0.0065 0.86389,0.0077 0.11496,0.0027 0.15467,0.01137 0.31491,0.103958 0.35073,0.161202 0.61725,0.520732 1.00993,0.620014 0.27918,0.09932 0.50704,0.301786 0.78763,0.403549 0.66021,0.400879 -0.0726,-0.165588 0.28831,0.198965 0.19225,0.277509 0.43307,0.503702 0.61913,0.782425 0.0204,0.0402 0.0188,0.105049 0.0611,0.120601 0.0379,0.01395 -0.0127,-0.158075 0.004,-0.121188 0.0568,0.126914 -0.0469,0.326884 10e-6,0.458111 0,0.440627 1e-5,0.881254 2e-5,1.32188 0,0.57494 0,1.14988 -2e-4,1.72482 -2.5e-4,0.587634 -8e-4,1.175267 -0.002,1.7629 -0.001,0.604346 -0.004,1.208723 0.004,1.813039 0.0159,0.916955 0.0417,1.835517 0.16304,2.745749 0.12903,1.003581 0.27885,2.00431 0.44306,3.002466 0.12761,0.780091 0.14511,1.565507 0.22661,2.351538 0.0811,0.754637 0.23561,1.506484 0.18967,2.267404 -0.0271,0.714093 -0.13441,1.420691 -0.23319,2.127868 -0.20741,1.528605 -0.37412,3.059123 -0.44672,4.600948 0,1.336262 1.88976,1.336262 1.88976,0 z" />
  <path
     style="fill:#4ab043;fill-opacity:1;stroke:#4ab043;stroke-width:5.2;stroke-linecap:round;stroke-linejoin:round;stroke-miterlimit:4;stroke-dasharray:none;stroke-opacity:1"
     id="path6122"
     d="m 167.52845,35.693631 c 0.78622,-0.05538 1.53312,-0.277471 2.28231,-0.502925 0.40066,-0.120374 0.81213,-0.124288 1.22623,-0.133425 0.75761,-0.05249 1.50356,0.08548 2.25009,0.193216 0.71212,0.103963 1.43262,0.125573 2.151,0.14421 1.33582,0.03452 1.38463,-1.854611 0.0488,-1.889129 v 0 c -0.64439,-0.01658 -1.29101,-0.03314 -1.92992,-0.125468 -0.84966,-0.12259 -1.70101,-0.267333 -2.56299,-0.2121 -0.58424,0.01366 -1.16591,0.04117 -1.7293,0.213552 -0.65845,0.199261 -1.30984,0.401739 -2.00349,0.441302 -1.32283,0.188976 -1.05558,2.059743 0.26725,1.870767 z" />
  <path
     style="fill:#4ab043;fill-opacity:1;stroke:#4ab043;stroke-width:5.2;stroke-linecap:round;stroke-linejoin:round;stroke-miterlimit:4;stroke-dasharray:none;stroke-opacity:1"
     id="path6124"
     d="m 167.873,35.004533 c 0.93894,-0.113991 1.87737,-0.202434 2.80899,-0.367765 0.7208,-0.128261 1.44965,-0.21526 2.18088,-0.251881 0.86273,-0.02866 1.7262,-0.02219 2.58928,-0.02193 0.77218,5.74e-4 1.54435,0.0013 2.31652,0.002 1.33626,0.0012 1.33792,-1.888585 0.002,-1.889759 v 0 c -0.77254,-6.79e-4 -1.54509,-0.0014 -2.31763,-0.002 -0.89575,-2.59e-4 -1.79195,-0.0071 -2.6873,0.02445 -0.80934,0.04286 -1.61628,0.135183 -2.41416,0.278535 -0.91031,0.162117 -1.82828,0.242096 -2.74549,0.357588 -1.32284,0.188976 -1.05558,2.059743 0.26725,1.870767 z" />
  <path
     style="fill:#4ab043;fill-opacity:1;stroke:#4ab043;stroke-width:5.2;stroke-linecap:round;stroke-linejoin:round;stroke-miterlimit:4;stroke-dasharray:none;stroke-opacity:1"
     id="path6126"
     d="m 167.73937,35.744342 c 0.88568,0 1.77135,0 2.65702,0 0.56694,0 1.13387,0 1.70081,0 0.83153,0 1.66307,0 2.49461,0 0.57285,0 1.14571,0 1.71857,0 1.33626,0 1.33626,-1.88976 0,-1.88976 v 0 c -0.57286,0 -1.14572,0 -1.71857,0 -0.83154,0 -1.66308,0 -2.49461,0 -0.56694,0 -1.13387,0 -1.70081,0 -0.88567,0 -1.77134,0 -2.65702,0 -1.33626,0 -1.33626,1.88976 0,1.88976 z" />
  <path
     style="fill:#4ab043;fill-opacity:1;stroke:#4ab043;stroke-width:5.2;stroke-linecap:round;stroke-linejoin:round;stroke-miterlimit:4;stroke-dasharray:none;stroke-opacity:1"
     id="path6128"
     d="m 168.46969,36.088891 c 1.27938,0 2.55876,0 3.83814,0 1.21568,-0.0243 2.43524,0.05271 3.648,-0.04475 0.15629,-0.02057 0.31258,-0.04113 0.46887,-0.0617 1.32447,-0.177203 1.07386,-2.050273 -0.2506,-1.87307 v 0 c -0.12719,0.01736 -0.25437,0.03472 -0.38156,0.05208 -1.15585,0.110673 -2.32533,-0.0042 -3.48471,0.03768 -1.27938,0 -2.55876,0 -3.83814,0 -1.33627,0 -1.33627,1.88976 0,1.88976 z" />
  <path
     style="fill:#4ab043;fill-opacity:1;stroke:#4ab043;stroke-width:5.2;stroke-linecap:round;stroke-linejoin:round;stroke-miterlimit:4;stroke-dasharray:none;stroke-opacity:1"
     id="path6130"
     d="m 169.46212,35.744342 c 0.73326,0 1.46653,0 2.19979,0 0.35433,0 0.70866,0 1.06299,0 0.22695,0 0.4539,0 0.68085,0 0.20708,0 0.41417,0 0.62125,0 -0.23781,-0.03875 0.72193,0.03734 0.46026,0 -0.33573,-0.04792 -0.24402,-0.02766 -0.0799,0.03537 0.0916,0.01009 0.2945,0.237565 0.5105,0.420485 0.43783,0.331921 0.83973,0.705611 1.23787,1.083202 0.4854,0.383652 0.94121,0.800749 1.43879,1.168995 0.0429,0.03044 0.0858,0.06088 0.12865,0.09132 1.09055,0.772197 2.1826,-0.77008 1.09205,-1.542276 v 0 c -0.0328,-0.02314 -0.0656,-0.04628 -0.0984,-0.06942 -0.43637,-0.321096 -0.83094,-0.691047 -1.26109,-1.020145 -0.43117,-0.408499 -0.86684,-0.812569 -1.33975,-1.173054 -0.3376,-0.251091 -0.60698,-0.601718 -1.03158,-0.723411 -0.34612,-0.132738 -0.69057,-0.185083 -1.05745,-0.160835 -0.20708,0 -0.41417,0 -0.62125,0 -0.22695,0 -0.4539,0 -0.68085,0 -0.35433,0 -0.70866,0 -1.06299,0 -0.73326,0 -1.46653,0 -2.19979,0 -1.33626,0 -1.33626,1.88976 0,1.88976 z" />
  <path
     style="fill:#4ab043;fill-opacity:1;stroke:#4ab043;stroke-width:5.2;stroke-linecap:round;stroke-linejoin:round;stroke-miterlimit:4;stroke-dasharray:none;stroke-opacity:1"
     id="path6134"
     d="m 168.24233,36.04038 c 0.94259,-0.117888 1.88796,-0.206671 2.8364,-0.258708 0.72194,-0.03217 1.44463,-0.03756 2.16716,-0.03962 0.51479,-0.02037 0.98749,0.262203 1.43378,0.494098 0.60922,0.3931 1.27869,0.673723 1.858,1.112626 0.39663,0.236401 0.74052,0.537915 1.11724,0.802816 0.0699,0.01326 0.29234,0.39499 0.21327,0.298882 0.45121,1.257777 2.22998,0.619662 1.77876,-0.638114 v 0 c -0.1987,-0.472151 -0.4789,-0.907387 -0.90645,-1.207609 -0.36199,-0.253417 -0.69396,-0.545572 -1.07461,-0.772005 -0.66998,-0.492717 -1.41511,-0.847553 -2.12435,-1.278374 -0.71838,-0.364363 -1.47435,-0.737813 -2.30105,-0.702072 -0.75543,0.0022 -1.51102,0.0081 -2.2658,0.04248 -0.99197,0.05496 -1.98088,0.146834 -2.96674,0.270434 -1.32595,0.165743 -1.09155,2.04091 0.23439,1.875166 z" />
  <path
     style="fill:#4ab043;fill-opacity:1;stroke:#4ab043;stroke-width:5.2;stroke-linecap:round;stroke-linejoin:round;stroke-miterlimit:4;stroke-dasharray:none;stroke-opacity:1"
     id="path6136"
     d="m 172.42943,35.776059 c 0.33245,0.129987 1.74785,0.108729 1.95378,0.272363 0.31599,0.151155 0.63696,0.267053 0.98107,0.334651 0.40348,-0.01672 0.6426,0.158287 0.99844,0.326419 0.21038,0.161426 0.43155,0.311165 0.64455,0.470792 1.06983,0.800659 2.20213,-0.712313 1.1323,-1.512972 v 0 c -0.31435,-0.234969 -0.63242,-0.464627 -0.96955,-0.666464 -0.47285,-0.223404 -0.94421,-0.487344 -1.48289,-0.479753 -0.26577,-0.01137 -0.48085,-0.232535 -0.74085,-0.276596 -0.73459,-0.196075 -1.50133,-0.208391 -2.24959,-0.339207 -1.32284,-0.188976 -1.59009,1.681791 -0.26726,1.870767 z" />
  <path
     style="fill:#4ab043;fill-opacity:1;stroke:#4ab043;stroke-width:5.2;stroke-linecap:round;stroke-linejoin:round;stroke-miterlimit:4;stroke-dasharray:none;stroke-opacity:1"
     id="path6144"
     d="m 170.96703,35.145944 c 1.93939,-0.101281 3.77491,0.421349 5.5281,1.199277 0.62142,0.379835 0.99653,0.541319 1.47966,1.095611 0.31531,0.361761 0.75706,1.187569 0.98674,1.589167 0.58276,1.018973 0.28401,0.536491 0.95208,1.526093 0.70363,0.848986 1.34722,1.736866 1.89794,2.691456 1.2e-4,2.66e-4 0.004,-0.0015 0.004,-0.0018 v 0 c -0.55067,-0.954714 -1.19425,-1.842693 -1.89797,-2.691721 -0.66833,-0.989872 -0.36894,-0.506444 -0.95193,-1.525865 -0.22993,-0.402037 -0.67184,-1.228036 -0.9874,-1.590107 -0.48346,-0.554733 -0.85861,-0.716239 -1.48045,-1.096397 -1.75426,-0.778549 -3.59088,-1.301443 -5.53152,-1.199613 -2.8e-4,7e-5 7.2e-4,0.0039 9.9e-4,0.0039 z" />
  <path
     style="fill:#000000;fill-opacity:1;stroke:#4ab043;stroke-width:5.2;stroke-linecap:round;stroke-linejoin:round;stroke-miterlimit:4;stroke-dasharray:none;stroke-opacity:1"
     id="path6146"
     d="m 171.71418,35.89424 c 1.92447,0.348421 3.94127,0.863264 5.61935,1.915557 0.26438,0.165788 0.49457,0.380693 0.74186,0.57104 0.91959,0.95817 1.07335,2.275171 1.49982,3.472309 0.0918,0.193664 0.0175,0.162834 0.17058,0.1706 2.6e-4,7.6e-5 0.001,-0.0036 0.001,-0.0037 v 0 c -0.15048,-0.004 -0.0767,0.02454 -0.16785,-0.168054 -0.42645,-1.197877 -0.58049,-2.515427 -1.50057,-3.474142 -0.24742,-0.190512 -0.47773,-0.405597 -0.74226,-0.571537 -1.67829,-1.05278 -3.69566,-1.567818 -5.62061,-1.915872 -2.7e-4,-9.9e-5 -0.002,0.0037 -0.001,0.0038 z" />
  <path
     style="fill:#000000;fill-opacity:1;stroke:#000000;stroke-width:4.3;stroke-linecap:round;stroke-linejoin:round;stroke-miterlimit:4;stroke-dasharray:none;stroke-opacity:1"
     id="path7824"
     d="m 164.76514,41.003279 c 1.28992,1.56e-4 2.57984,1.41e-4 3.86975,-2.2e-5 0.0504,-1.4e-5 0.20159,0.0032 0.15127,-4.3e-5 -0.65641,-0.04281 -0.15708,2.1e-5 0.16623,2.5e-5 0.36079,-5e-6 0.72157,1.9e-5 1.08236,-4.5e-5 0.19641,4e-6 0.39282,2e-5 0.58924,2e-6 0.0154,-3e-6 0.0307,-5e-6 0.0461,-8e-6 0.004,-3e-6 0.009,-6e-6 0.0129,-9e-6 2.6e-4,-6.6e-5 -6.8e-4,-0.0037 -9.4e-4,-0.0037 v 0 c -0.004,-2e-6 -0.009,-5e-6 -0.0129,-8e-6 -0.0154,-3e-6 -0.0307,-6e-6 -0.0461,-9e-6 -0.19641,-1.7e-5 -0.39283,-1e-6 -0.58924,3e-6 -0.36079,-6.4e-5 -0.72159,-4e-5 -1.08238,-4.6e-5 -0.32329,5e-6 -0.8226,0.04285 -0.16622,2.6e-5 0.0503,-0.0033 -0.10086,-2.9e-5 -0.15129,-4.4e-5 -1.28992,-1.63e-4 -2.57984,-1.77e-4 -3.86976,-2.1e-5 -2.7e-4,7e-5 7.2e-4,0.0039 9.9e-4,0.0039 z" />
  <path
     style="fill:#000000;fill-opacity:1;stroke:#000000;stroke-width:4.3;stroke-linecap:round;stroke-linejoin:round;stroke-miterlimit:4;stroke-dasharray:none;stroke-opacity:1"
     id="path7925"
     d="m 200.58482,74.837569 c 0.20496,1.487292 0.3546,2.983907 0.38866,4.485461 -0.0232,0.0822 -0.0465,0.164405 -0.0697,0.246608 -7e-5,2.72e-4 0.004,0.0012 0.004,9.07e-4 v 0 c 0.0233,-0.08253 0.0466,-0.165061 0.0699,-0.247592 -0.0335,-1.501715 -0.18336,-2.998492 -0.38871,-4.485868 -4e-5,-2.85e-4 -0.004,1.98e-4 -0.004,4.84e-4 z" />
  <rect
     style="fill:#000000;fill-opacity:1;stroke:#000000;stroke-width:4.3;stroke-linecap:round;stroke-linejoin:round;stroke-miterlimit:4;stroke-dasharray:none;stroke-opacity:1"
     id="rect8001"
     width="125.41588"
     height="59.95155"
     x="65.413879"
     y="87.539421" />
  <style
     type="text/css"
     id="style8256">
        .st0{fill:none;stroke:#000000;stroke-width:3;stroke-linecap:round;stroke-linejoin:round;stroke-miterlimit:10.6667;}
                .st1{display:none;fill:none;stroke:#000000;stroke-width:3;stroke-linecap:round;stroke-linejoin:round;stroke-miterlimit:10.6667;}
        .st2{fill:none;stroke:#000000;stroke-width:3;stroke-linecap:round;stroke-linejoin:round;stroke-miterlimit:10;}
</style>
  <g
     id="g8271"
     transform="matrix(1.9693929,0,0,1.760973,136.74507,115.05443)"
     style="opacity:1;mix-blend-mode:normal;fill:url(#linearGradient13117);fill-opacity:1;fill-rule:nonzero;stroke:#000000;stroke-width:2.6849;stroke-miterlimit:4;stroke-dasharray:none;stroke-opacity:1">
    <polygon
       class="st0"
       points="53.7,20.3 22.2,51.8 11.1,53.7 10.3,52.9 12.2,41.8 43.7,10.3 "
       id="polygon8258"
       style="fill:url(#linearGradient13117);fill-opacity:1;fill-rule:nonzero;stroke:#000000;stroke-width:2.6849;stroke-miterlimit:4;stroke-dasharray:none;stroke-opacity:1" />
    <line
       class="st0"
       x1="36.200001"
       x2="46"
       y1="17.799999"
       y2="27.700001"
       id="line8260"
       style="fill:url(#linearGradient13117);fill-opacity:1;fill-rule:nonzero;stroke:#000000;stroke-width:2.6849;stroke-miterlimit:4;stroke-dasharray:none;stroke-opacity:1" />
  </g>
  <text
     xml:space="preserve"
     id="text21108"
     style="font-style:normal;font-variant:normal;font-weight:normal;font-stretch:normal;font-size:25.4107px;line-height:1.25;font-family:'Arial Black';-inkscape-font-specification:'Arial Black, Normal';font-variant-ligatures:none;font-variant-caps:normal;font-variant-numeric:normal;font-variant-east-asian:normal;white-space:pre;shape-inside:url(#rect21110);fill:#ffffff;fill-opacity:1;stroke:#000000;stroke-width:1;stroke-linecap:round;stroke-linejoin:round;stroke-miterlimit:4;stroke-dasharray:none;stroke-opacity:1;paint-order:fill markers stroke"
     transform="matrix(3.0709711,0,0,3.2909735,-164.17621,-234.97775)"><tspan
     x="74.767578"
     y="116.15575"
     id="tspan26402">INI</tspan></text>
  <circle
     id="path5842"
     style="fill:#4ab043;stroke:#000000"
     cx="163.56773"
     cy="31.717463"
     r="1.099699e-05" />
  <circle
     id="path5844"
     style="fill:#4ab043;stroke:#000000;fill-opacity:1"
     cx="163.56773"
     cy="31.717463"
     r="1.099699e-05" />
  <path
     style="fill:#4ab043;fill-opacity:1;fill-rule:nonzero;stroke:none;stroke-width:1px;stroke-linecap:butt;stroke-linejoin:miter;stroke-opacity:1"
     d="m 178.50902,43.862717 19.57221,23.329373 0.0874,-24.028381 z"
     id="path7671"
     inkscape:path-effect="#path-effect7673"
     inkscape:original-d="m 178.33427,43.862717 19.57221,23.329373 0.0874,-24.028381 z" />
  <path
     style="fill:#000000;fill-opacity:1;stroke:#000000;stroke-linecap:round;stroke-linejoin:round;paint-order:fill markers stroke"
     id="path9180"
     d="m 202.81062,77.869823 c -0.003,-0.306844 -0.01,-0.618376 0.0734,-0.916508 0.0251,-0.06805 0.0285,-0.02847 -0.006,-0.08532 -0.021,-0.0348 -0.0223,-0.06377 -0.0293,-0.102756 -0.006,-0.08095 0.0185,-0.159258 0.0421,-0.235713 0.0103,-0.04059 0.003,-0.08114 -0.004,-0.121588 -0.006,-0.05801 -0.006,-0.116554 -0.003,-0.174776 0.002,-0.02519 0.003,-0.05052 0.003,-0.07581 -0.005,-0.04958 -0.0606,-0.08172 -0.0889,-0.123738 -0.0171,-0.02766 -0.009,-0.06065 0.004,-0.08823 1e-4,-2.51e-4 -0.003,-0.0017 -0.004,-0.0014 v 0 c -0.0138,0.02868 -0.0215,0.06274 -0.004,0.09147 0.028,0.0416 0.0824,0.07351 0.0884,0.121924 1.6e-4,0.02524 -1.1e-4,0.05052 -0.003,0.07566 -0.002,0.05844 -0.003,0.117204 0.003,0.175425 0.006,0.03995 0.0142,0.08001 0.004,0.120113 -0.0238,0.07694 -0.0481,0.155771 -0.0423,0.237252 0.007,0.0376 0.009,0.07115 0.0301,0.104508 0.0338,0.05315 0.0306,0.01324 0.005,0.08208 -0.0838,0.298362 -0.0767,0.610239 -0.0737,0.917407 0,2.88e-4 0.004,2.88e-4 0.004,0 z" />
</svg>
