<?xml version="1.0" encoding="UTF-8" standalone="no"?>
<!-- Generator: Adobe Illustrator 24.1.2, SVG Export Plug-In . SVG Version: 6.00 Build 0)  -->

<svg
   version="1.1"
   id="Layer_1"
   x="0px"
   y="0px"
   viewBox="0 0 500 500"
   style="enable-background:new 0 0 500 500;"
   xml:space="preserve"
   xmlns="http://www.w3.org/2000/svg"
   xmlns:svg="http://www.w3.org/2000/svg"><defs
   id="defs29" />
<g
   id="g24">
	<path
   d="M100.6,233.6v170.6h214.3V361V260.6v-70.6h-57h-31l-28.7,31.5c-5.4,5.8-13,9.1-20.8,9.1c-3.1,0-6.3-0.6-9.9-1.9l-0.3-0.1   c-10.9-4.2-17.9-14.5-17.9-26.2v-12.4h-5L100.6,233.6z"
   id="path2" />
	<path
   d="M336.3,240.5v9.5v154.2c0,11.9-9.6,21.4-21.4,21.4H100.6c-11.9,0-21.4-9.6-21.4-21.4V233.7c0-5.6,2.3-11.1,6.3-15.1   l43.6-43.6c0.7-0.7,1.5-1.4,2.4-2c-9.1-8.5-15-20.3-15.8-33.4h-4.3v-25.8c0-5.9-4.8-10.7-10.7-10.7s-10.7,4.8-10.7,10.7v25.8h-8.2   c-17.4,0-31.6,14.2-31.6,31.6v8.2H21.4c-5.9,0-10.7,4.8-10.7,10.7s4.8,10.7,10.7,10.7h28.7v50H21.4c-5.9,0-10.7,4.8-10.7,10.7   s4.8,10.7,10.7,10.7h28.7v50H21.4c-5.9,0-10.7,4.8-10.7,10.7s4.8,10.7,10.7,10.7h28.7v50H21.4c-5.9,0-10.7,4.8-10.7,10.7   s4.8,10.7,10.7,10.7h28.7v8.2c0,17.4,14.2,31.6,31.6,31.6h8.2v24.4c0,5.9,4.8,10.7,10.7,10.7s10.7-4.8,10.7-10.7v-24.4h50v24.4   c0,5.9,4.8,10.7,10.7,10.7s10.7-4.8,10.7-10.7v-24.4h50v24.4c0,5.9,4.8,10.7,10.7,10.7s10.7-4.8,10.7-10.7v-24.4h50v24.4   c0,5.9,4.8,10.7,10.7,10.7c5.9,0,10.7-4.8,10.7-10.7v-24.4h8.2c17.4,0,31.6-14.2,31.6-31.6v-8l30,0.4c0.1,0,0.1,0,0.2,0   c5.8,0,10.6-4.7,10.7-10.5c0.1-5.9-4.7-10.8-10.5-10.8l-30.2-0.4v-50.1l30.9,0.4c0.1,0,0.1,0,0.2,0c5.8,0,10.6-4.7,10.7-10.5   c0.1-5.9-4.7-10.8-10.5-10.8l-31.2-0.4v-50.1l31.9,0.4c0,0,0.1,0,0.2,0c5.8,0,10.6-4.7,10.7-10.5c0.1-5.9-4.7-10.7-10.5-10.8   l-32.2-0.4v-37.9l-0.1,0.1v-26.8h-29.3V240.5z"
   id="path4" />
	<g
   id="g22">
		<g
   id="g20">
			<g
   id="g8">
				<path
   d="M451.2,25.8c12.2,0,22,9.9,22,22v88.2c0,12.2-9.9,22-22,22H217.7l-40.2,44.2v-44.1h-11.7c-12.2,0-22-9.9-22-22V47.9      c0-12.2,9.9-22,22-22H451.2 M451.2,7.6H165.8c-22.2,0-40.2,18.1-40.2,40.2v88.2c0,20,14.6,36.7,33.7,39.7v26.5      c0,7.6,4.6,14.2,11.5,16.9c2.2,0.8,4.4,1.3,6.5,1.3c5,0,9.9-2.1,13.5-5.9l34.9-38.2h225.5c22.2,0,40.2-18.1,40.2-40.2V47.9      C491.4,25.7,473.4,7.6,451.2,7.6L451.2,7.6z"
   id="path6" />
			</g>
			<g
   id="g18">
				<path
   d="M181.7,103.9v1.8c0.1,5.9,0.8,10,1.8,12.3c1,2.4,3.3,3.6,6.9,3.6c3.5,0,5.8-1.3,6.9-3.8c0.6-1.5,1-4.1,1-7.8V57.1h15.8      v52.5c0,6.4-1,11.5-3.2,15.2c-3.7,6.4-10.3,9.5-19.9,9.5s-16-2.6-19.2-7.7c-3.3-5.1-4.9-12.2-4.9-21v-1.8H181.7z"
   id="path10" />
				<path
   d="M242,109.3c0.5,3.5,1.4,6,2.8,7.7c2.6,3.1,7,4.6,13.5,4.6c3.8,0,6.9-0.4,9.2-1.3c4.5-1.5,6.8-4.5,6.8-8.7      c0-2.4-1.2-4.4-3.3-5.8c-2.2-1.3-5.6-2.6-10.5-3.6l-8.2-1.8c-8.1-1.8-13.6-3.7-16.5-5.8c-5.1-3.5-7.7-9-7.7-16.3      c0-6.8,2.4-12.4,7.4-16.8c5-4.5,12.3-6.7,21.9-6.7c8.1,0,14.9,2.1,20.6,6.3c5.6,4.2,8.7,10.4,9,18.3h-15.1      c-0.3-4.5-2.3-7.8-6.2-9.6c-2.6-1.3-5.6-1.9-9.4-1.9c-4.1,0-7.4,0.8-10,2.4c-2.4,1.7-3.7,4-3.7,6.9c0,2.7,1.3,4.7,3.7,6      c1.5,0.9,4.9,1.9,10,3.1l13.2,3.1c5.8,1.4,10.1,3.2,13.1,5.5c4.5,3.6,6.8,8.7,6.8,15.4c0,6.9-2.7,12.6-7.9,17.2      c-5.4,4.6-12.8,6.8-22.6,6.8c-10,0-17.7-2.3-23.5-6.8c-5.6-4.5-8.6-10.6-8.6-18.5H242V109.3z"
   id="path12" />
				<path
   d="M358.8,125.8c-5.6,5.9-14,8.8-24.7,8.8c-10.8,0-19-2.9-24.7-8.8c-7.7-7.2-11.4-17.6-11.4-31.1      c0-13.8,3.8-24.2,11.4-31.1c5.6-5.9,14-8.8,24.7-8.8c10.8,0,19,2.9,24.7,8.8c7.6,6.9,11.4,17.3,11.4,31.1      C370.2,108.2,366.4,118.6,358.8,125.8z M348.9,114.4c3.7-4.6,5.5-11.1,5.5-19.6s-1.8-15-5.5-19.6c-3.7-4.6-8.6-6.9-14.9-6.9      s-11.3,2.3-15,6.9c-3.7,4.6-5.6,11.1-5.6,19.6s1.9,15,5.6,19.6c3.7,4.6,8.7,6.9,15,6.9S345.2,118.9,348.9,114.4z"
   id="path14" />
				<polygon
   points="382,57.1 398.5,57.1 428.5,109.7 428.5,57.1 443.2,57.1 443.2,132.6 427.4,132.6 396.6,79 396.6,132.6       381.9,132.6 381.9,57.1     "
   id="polygon16" />
			</g>
		</g>
	</g>
</g>
</svg>
