<?xml version="1.0" encoding="UTF-8" standalone="no"?>
<svg
   aria-hidden="true"
   focusable="false"
   data-prefix="fas"
   data-icon="download"
   class="svg-inline--fa fa-download fa-w-16"
   role="img"
   viewBox="0 0 500 500"
   version="1.1"
   id="svg876"
   width="500"
   height="500"
   xmlns="http://www.w3.org/2000/svg"
   xmlns:svg="http://www.w3.org/2000/svg"
   xmlns:rdf="http://www.w3.org/1999/02/22-rdf-syntax-ns#"
   xmlns:cc="http://creativecommons.org/ns#"
   xmlns:dc="http://purl.org/dc/elements/1.1/">
  <metadata
     id="metadata882">
    <rdf:RDF>
      <cc:Work
         rdf:about="">
        <dc:format>image/svg+xml</dc:format>
        <dc:type
           rdf:resource="http://purl.org/dc/dcmitype/StillImage" />
        <dc:title />
      </cc:Work>
    </rdf:RDF>
  </metadata>
  <defs
     id="defs880" />
  <path
     fill="currentColor"
     d="m 211.71875,5 h 76.5625 C 301.00977,5 311.25,15.240234 311.25,27.96875 V 188.75 h 83.93164 c 17.03516,0 25.55273,20.57617 13.49414,32.63477 L 263.11133,367.04492 c -7.17774,7.17774 -18.94922,7.17774 -26.12696,0 L 91.228516,221.38477 C 79.169922,209.32617 87.6875,188.75 104.72266,188.75 H 188.75 V 27.96875 C 188.75,15.240234 198.99023,5 211.71875,5 Z m 249.76562,359.84375 v 107.1875 C 461.48437,484.75977 451.24414,495 438.51562,495 H 61.484375 c -12.728516,0 -22.96875,-10.24023 -22.96875,-22.96875 v -107.1875 c 0,-12.72852 10.240234,-22.96875 22.96875,-22.96875 H 168.36523 l 46.89454,46.89453 c 19.23632,19.23633 50.24414,19.23633 69.48046,0 L 331.63477,341.875 h 106.88085 c 12.72852,0 22.96875,10.24023 22.96875,22.96875 z m -95.15675,84.21875 c 0,-10.52734 -8.61327,-19.14063 -19.14062,-19.14063 -10.52733,0 -19.14063,8.61329 -19.14063,19.14063 0,10.52734 8.6133,19.14062 19.14063,19.14062 10.52734,0 19.14062,-8.61328 19.14062,-19.14062 z m 61.25,0 c 0,-10.52734 -8.61327,-19.14063 -19.14062,-19.14063 -10.52733,0 -19.14063,8.61329 -19.14063,19.14063 0,10.52734 8.6133,19.14062 19.14063,19.14062 10.52734,0 19.14062,-8.61328 19.14062,-19.14062 z"
     id="path874"
     style="stroke-width:0.957031" />
</svg>
