<?xml version="1.0" encoding="UTF-8" standalone="no"?>
<svg
   aria-hidden="true"
   focusable="false"
   data-prefix="far"
   data-icon="registered"
   class="svg-inline--fa fa-registered fa-w-16"
   role="img"
   viewBox="0 0 500 500"
   version="1.1"
   id="svg915"
   width="500"
   height="500"
   xmlns="http://www.w3.org/2000/svg"
   xmlns:svg="http://www.w3.org/2000/svg"
   xmlns:rdf="http://www.w3.org/1999/02/22-rdf-syntax-ns#"
   xmlns:cc="http://creativecommons.org/ns#"
   xmlns:dc="http://purl.org/dc/elements/1.1/">
  <metadata
     id="metadata921">
    <rdf:RDF>
      <cc:Work
         rdf:about="">
        <dc:format>image/svg+xml</dc:format>
        <dc:type
           rdf:resource="http://purl.org/dc/dcmitype/StillImage" />
        <dc:title />
      </cc:Work>
    </rdf:RDF>
  </metadata>
  <defs
     id="defs919" />
  <path
     id="path838"
     d="m 76.296868,493.52372 c -6.30226,-3.47025 -10.75842,-9.20385 -12.13276,-15.61089 -0.98385,-4.58651 -1.27683,-72.50631 -1.00106,-232.05227 0.36633,-211.942224 0.52452,-225.814034 2.61873,-229.643734 1.22588,-2.24174 4.33588,-5.68261 6.91111,-7.6463697 l 4.68225,-3.57045 h 89.305682 c 91.37955,0 96.86957,0.23594 122.43993,5.2621797 61.80348,12.1484 101.03178,46.52261 114.73351,100.536424 11.65936,45.96252 5.12629,93.57166 -18.14444,132.22616 -7.79858,12.95406 -24.86719,31.13791 -37.60895,40.0663 -5.46117,3.82674 -9.7135,7.33793 -9.44965,7.80269 25.56644,45.03151 95.63207,173.04575 97.26466,177.70853 3.06003,8.73963 -0.91685,18.2595 -9.92096,23.74877 -4.16654,2.5401 -6.05884,2.64427 -48.11114,2.64885 -48.39189,0.005 -49.62964,-0.17618 -55.51523,-8.13955 -1.61074,-2.17934 -22.04225,-39.94814 -45.4034,-83.93068 l -42.47481,-79.96826 h -29.68586 -29.68586 l -0.34668,79.43102 -0.34668,79.43101 -3.67259,4.81425 c -6.23225,8.16962 -7.49393,8.37152 -52.04124,8.32822 -26.558232,-0.0258 -40.716572,-0.50724 -42.414562,-1.4422 z M 257.46938,219.36326 c 20.42122,-5.85838 33.51511,-19.99647 37.37641,-40.35698 1.70808,-9.00669 1.63123,-27.60125 -0.14874,-35.99036 -3.73486,-17.60256 -12.65109,-27.2735 -31.06415,-33.69353 -10.15291,-3.54001 -10.35752,-3.55669 -49.38279,-4.02917 l -39.18762,-0.47443 v 58.89147 58.89144 l 37.91324,-0.67532 c 27.97111,-0.49823 39.63885,-1.17037 44.49369,-2.56312 z"
     style="fill:#000000;stroke-width:15.2927" />
</svg>
