<?xml version="1.0" encoding="UTF-8"?>
<svg width="100px" height="100px" viewBox="0 0 100 100" version="1.1" xmlns="http://www.w3.org/2000/svg" xmlns:xlink="http://www.w3.org/1999/xlink">
    <!-- Generator: Sketch 47.1 (45422) - http://www.bohemiancoding.com/sketch -->
    <title>noun_762319_cc</title>
    <desc>Created with Sketch.</desc>
    <defs></defs>
    <g id="Page-1" stroke="none" stroke-width="1" fill="none" fill-rule="evenodd">
        <g id="noun_762319_cc">
            <g id="Group" transform="translate(25.000000, 19.000000)">
                <g id="Right-Arrow" transform="translate(0.000000, 31.000000)" stroke="#000000" stroke-width="7">
                    <path d="M0,14 L49,14" id="Shape"></path>
                    <path d="M35,0 L51.6393939,16.4333333" id="Shape"></path>
                    <path d="M49,14 L35,28" id="Shape"></path>
                </g>
                <path d="M3,14 L51,14" id="Shape" stroke="#000000" stroke-width="7"></path>
                <path d="M17,28 L3,14" id="Shape" stroke="#000000" stroke-width="7"></path>
                <path d="M0.5625,16.4333333 L17.0795455,0" id="Shape" stroke="#000000" stroke-width="7"></path>
                <g id="Left-Arrow"></g>
            </g>
            <path d="M50,0 C22.437,0 0,22.42 0,49.983 C0,77.562 22.437,100 50,100 C77.563,100 100,77.562 100,49.983 C100,22.42 77.563,0 50,0 Z M50,90.904 C27.442,90.904 9.096,72.557 9.096,49.983 C9.096,27.425 27.442,9.096 50,9.096 C72.558,9.096 90.904,27.425 90.904,49.983 C90.904,72.558 72.558,90.904 50,90.904 Z" id="Shape" fill="#000000" fill-rule="nonzero"></path>
        </g>
    </g>
</svg>