<?xml version="1.0" encoding="UTF-8"?>
<svg width="375px" height="336px" viewBox="0 0 375 336" version="1.1" xmlns="http://www.w3.org/2000/svg" xmlns:xlink="http://www.w3.org/1999/xlink">
    <!-- Generator: Sketch 46.2 (44496) - http://www.bohemiancoding.com/sketch -->
    <title>Clock icon</title>
    <desc>Created with Sketch.</desc>
    <defs></defs>
    <g id="Page-1" stroke="none" stroke-width="1" fill="none" fill-rule="evenodd">
        <g id="Clock-icon" transform="translate(-4.000000, -1.000000)" fill-rule="nonzero" fill="#2EB457">
            <path d="M210.604739,1.44130162 C121.997432,1.5563402 48.7670397,70.5780896 43.4137518,159.023612 L4.10552582,159.023612 L58.3945534,213.487343 L112.858284,159.023612 L74.2488712,159.023612 C78.9572165,95.0654232 127.440114,42.950673 190.892266,33.6424623 C254.344418,24.3342516 315.75258,60.3283646 338.632126,120.239505 C361.511672,180.150646 339.727975,247.91501 286.223452,283.271542 C232.718928,318.628074 161.839594,312.096727 115.697212,267.557991 L94.4707697,289.395895 C148.810485,341.689463 231.391782,351.232149 296.225746,312.7097 C361.059711,274.187252 392.165182,197.095209 372.219753,124.36556 C352.274324,51.6359118 286.194417,1.19605378 210.779443,1.13557097 L210.604739,1.44130162 Z" id="Shape"></path>
            <polygon id="Shape" points="191.998846 64.7712212 191.998846 175.314688 245.458033 228.468144 267.033882 206.804944 222.571911 162.605028 222.571911 64.7712212"></polygon>
        </g>
    </g>
</svg>