<?xml version="1.0" encoding="UTF-8" standalone="no"?>
<!-- Generator: Adobe Illustrator 24.1.2, SVG Export Plug-In . SVG Version: 6.00 Build 0)  -->

<svg
   version="1.1"
   id="Layer_1"
   x="0px"
   y="0px"
   viewBox="0 0 320 320"
   style="enable-background:new 0 0 320 320;"
   xml:space="preserve"
   xmlns="http://www.w3.org/2000/svg"
   xmlns:svg="http://www.w3.org/2000/svg"><defs
   id="defs19" />
<style
   type="text/css"
   id="style2">
	.st0{fill:#54B948;}
	.st1{fill:#FFFFFF;}
</style>
<g
   id="g14">
	<path
   class="st0"
   d="M207.4,109.3c-9.2,0-9.1,9.7-9.1,9.7l0,82.2c0,0-0.1,9.5,9,9.5c9,0,9-9.5,9-9.5l0-82.2   C216.3,119,216.2,109.3,207.4,109.3z"
   id="path4" />
	<path
   class="st0"
   d="M160,6.3C75.5,6.3,6.3,75.5,6.3,160c0,84.5,69.2,153.7,153.7,153.7c84.5,0,153.7-69.2,153.7-153.7   C313.7,75.5,244.5,6.3,160,6.3z M147.3,204.8c0,0,0,30.2-35.3,30.2c-35.4,0-35.3-30.2-35.3-30.2v-90.3c0,0,0-29.3,35.9-29.3   c34.6,0,34.7,29.3,34.7,29.3V204.8z M242.4,204.8c0,0,0,30.2-35.3,30.2c-35.4,0-35.3-30.2-35.3-30.2v-90.3c0,0,0-29.3,35.9-29.3   c34.6,0,34.7,29.3,34.7,29.3V204.8z"
   id="path6" />
	<path
   class="st1"
   d="M112.5,85.1c-35.9,0-35.9,29.3-35.9,29.3v90.3c0,0-0.1,30.2,35.3,30.2c35.3,0,35.3-30.2,35.3-30.2v-90.3   C147.3,114.4,147.2,85.1,112.5,85.1z M121.1,201.2c0,0,0,9.5-9,9.5c-9.1,0-9-9.5-9-9.5l0-82.2c0,0-0.1-9.7,9.1-9.7   c8.9,0,8.9,9.7,8.9,9.7L121.1,201.2z"
   id="path8" />
	<path
   class="st0"
   d="M112.3,109.3c-9.2,0-9.1,9.7-9.1,9.7l0,82.2c0,0-0.1,9.5,9,9.5c9,0,9-9.5,9-9.5l0-82.2   C121.1,119,121.1,109.3,112.3,109.3z"
   id="path10" />
	<path
   class="st1"
   d="M207.7,85.1c-35.9,0-35.9,29.3-35.9,29.3v90.3c0,0-0.1,30.2,35.3,30.2c35.3,0,35.3-30.2,35.3-30.2v-90.3   C242.4,114.4,242.3,85.1,207.7,85.1z M216.2,201.2c0,0,0,9.5-9,9.5c-9.1,0-9-9.5-9-9.5l0-82.2c0,0-0.1-9.7,9.1-9.7   c8.9,0,8.9,9.7,8.9,9.7L216.2,201.2z"
   id="path12" />
</g>
</svg>
