<?xml version="1.0" encoding="UTF-8"?>
<svg width="23px" height="20px" viewBox="0 0 23 20" version="1.1" xmlns="http://www.w3.org/2000/svg" xmlns:xlink="http://www.w3.org/1999/xlink">
    <!-- Generator: Sketch 45.2 (43514) - http://www.bohemiancoding.com/sketch -->
    <title>Clock icon</title>
    <desc>Created with Sketch.</desc>
    <defs></defs>
    <g id="Page-1" stroke="none" stroke-width="1" fill="none" fill-rule="evenodd">
        <g id="Desktop" transform="translate(-670.000000, -589.000000)" fill-rule="nonzero" fill="#2EB457">
            <g id="Main-Screen" transform="translate(206.000000, 157.000000)">
                <g id="Clock-icon" transform="translate(464.000000, 432.000000)">
                    <path d="M12.3160666,0.0842866443 C7.13435277,0.0910140468 2.85187367,4.12737366 2.53881589,9.29962643 L0.240089229,9.29962643 L3.41488617,12.4846399 L6.59989967,9.29962643 L4.34203925,9.29962643 C4.61738108,5.55938148 7.45263822,2.51173526 11.1632904,1.96739546 C14.8739426,1.42305565 18.4650632,3.52797454 19.8030483,7.03155002 C21.1410335,10.5351255 19.8671331,14.4979538 16.7382135,16.5655873 C13.609294,18.6332207 9.46430373,18.2512706 6.76591881,15.6466662 L5.52460642,16.9237365 C8.70236754,19.9818399 13.5316832,20.5398917 17.3231431,18.287117 C21.114603,16.0343422 22.9336364,11.5260356 21.767237,7.27283979 C20.6008377,3.01964397 16.7365156,0.0699446655 12.3262832,0.0664076592 L12.3160666,0.0842866443 Z" id="Shape"></path>
                    <polygon id="Shape" points="11.2280027 3.78779071 11.2280027 10.2523209 14.3542709 13.3607102 15.6160165 12.0938564 13.0159012 9.50906597 13.0159012 3.78779071"></polygon>
                </g>
            </g>
        </g>
    </g>
</svg>