<?xml version="1.0" encoding="UTF-8"?>
<svg width="21px" height="21px" viewBox="0 0 21 21" version="1.1" xmlns="http://www.w3.org/2000/svg" xmlns:xlink="http://www.w3.org/1999/xlink">
    <!-- Generator: Sketch 45.2 (43514) - http://www.bohemiancoding.com/sketch -->
    <title>Voltage icon</title>
    <desc>Created with Sketch.</desc>
    <defs></defs>
    <g id="Page-1" stroke="none" stroke-width="1" fill="none" fill-rule="evenodd">
        <g id="Desktop" transform="translate(-671.000000, -560.000000)">
            <g id="Main-Screen" transform="translate(206.000000, 157.000000)">
                <g id="Voltage-icon" transform="translate(466.000000, 404.000000)">
                    <path d="M12.2708333,13.0625 L11.56625,13.0625 L12.65875,7.59841667 C12.6832917,7.47491667 12.6476667,7.34666667 12.5621667,7.25325 C12.4774583,7.16141667 12.3539583,7.11391667 12.2265,7.127375 L9.279125,7.455125 L10.666125,3.29175 C10.7065,3.17141667 10.6859167,3.03841667 10.6122917,2.9355 C10.5386667,2.83179167 10.419125,2.77083333 10.2916667,2.77083333 L7.125,2.77083333 C6.94529167,2.77083333 6.78775,2.89195833 6.742625,3.066125 L4.76345833,10.5869583 C4.72941667,10.7167917 4.76345833,10.8553333 4.85370833,10.9542917 C4.94475,11.05325 5.080125,11.1023333 5.21154167,11.0777917 L9.38283333,10.3827083 L8.78670833,13.0625 L7.91666667,13.0625 C7.77970833,13.0625 7.65225,13.13375 7.58020833,13.250125 C7.50816667,13.3665 7.50104167,13.5121667 7.56279167,13.634875 L9.146125,16.8015417 C9.2055,16.9195 9.31870833,17.00025 9.450125,17.016875 C9.46675,17.01925 9.483375,17.0200417 9.5,17.0200417 C9.61320833,17.0200417 9.72245833,16.9709583 9.79766667,16.8846667 L12.5685,13.718 C12.670625,13.601625 12.6951667,13.435375 12.6310417,13.2936667 C12.5669167,13.15275 12.426,13.0625 12.2708333,13.0625 Z" id="Shape" fill="#2EB457" fill-rule="nonzero"></path>
                    <circle id="Oval" stroke="#2EB457" stroke-width="2" cx="9.5" cy="9.5" r="9.5"></circle>
                </g>
            </g>
        </g>
    </g>
</svg>