<?xml version="1.0" encoding="UTF-8" standalone="no"?>
<!-- Generator: Adobe Illustrator 24.1.2, SVG Export Plug-In . SVG Version: 6.00 Build 0)  -->

<svg
   version="1.1"
   id="Layer_1"
   focusable="false"
   x="0px"
   y="0px"
   viewBox="0 0 500 500"
   style="enable-background:new 0 0 500 500;"
   xml:space="preserve"
   xmlns="http://www.w3.org/2000/svg"
   xmlns:svg="http://www.w3.org/2000/svg"><defs
   id="defs7" />
<path
   d="M462.7,324.7L326.6,250l136.1-74.7c11.3-6.2,15.3-20.5,8.8-31.6l-18.6-32.3c-6.4-11.2-20.8-14.8-31.8-8.2l-132.8,80.5  l3.3-155.2c0.3-12.9-10.1-23.5-23-23.5h-37.3c-12.9,0-23.2,10.6-23,23.5l3.3,155.2L78.9,103.2c-11-6.7-25.4-3-31.8,8.2l-18.6,32.3  c-6.4,11.2-2.5,25.4,8.8,31.6L173.4,250L37.3,324.7c-11.3,6.2-15.3,20.5-8.8,31.6l18.6,32.3c6.4,11.2,20.8,14.8,31.8,8.2l132.8-80.5  l-3.3,155.2c-0.3,12.9,10.1,23.5,23,23.5h37.3c12.9,0,23.2-10.6,23-23.5l-3.3-155.2l132.8,80.5c11,6.7,25.4,3,31.8-8.2l18.6-32.3  C477.9,345.2,474,330.9,462.7,324.7z"
   id="path2" />
</svg>
