<?xml version="1.0" encoding="UTF-8" standalone="no"?>
<svg
   viewBox="0 0 500 500"
   version="1.1"
   id="svg4"
   width="500"
   height="500"
   xmlns="http://www.w3.org/2000/svg"
   xmlns:svg="http://www.w3.org/2000/svg"
   xmlns:rdf="http://www.w3.org/1999/02/22-rdf-syntax-ns#"
   xmlns:cc="http://creativecommons.org/ns#"
   xmlns:dc="http://purl.org/dc/elements/1.1/">
  <metadata
     id="metadata10">
    <rdf:RDF>
      <cc:Work
         rdf:about="">
        <dc:format>image/svg+xml</dc:format>
        <dc:type
           rdf:resource="http://purl.org/dc/dcmitype/StillImage" />
        <dc:title />
      </cc:Work>
    </rdf:RDF>
  </metadata>
  <defs
     id="defs8" />
  <path
     d="M 250,5 C 114.69085,5 5,114.68986 5,250 5,385.31014 114.69085,495 250,495 385.30915,495 495,385.30915 495,250 495,114.69085 385.31014,5 250,5 Z m 128.53411,116.46589 c 64.6563,64.65629 69.15323,163.47921 20.42688,232.78655 L 145.74657,101.04 C 215.10133,52.281049 313.91339,56.846149 378.53411,121.46589 Z M 121.46589,378.53411 C 56.809597,313.87782 52.312662,215.0549 101.03901,145.74756 L 354.25343,398.96 c -69.35377,48.75895 -168.16682,44.19484 -232.78754,-20.42589 z"
     id="path2"
     style="stroke-width:1" />
</svg>
