<?xml version="1.0" encoding="UTF-8" standalone="no"?>
<!-- Generator: Adobe Illustrator 24.1.2, SVG Export Plug-In . SVG Version: 6.00 Build 0)  -->

<svg
   version="1.1"
   id="Layer_1"
   focusable="false"
   x="0px"
   y="0px"
   viewBox="0 0 500 500"
   style="enable-background:new 0 0 500 500;"
   xml:space="preserve"
   xmlns="http://www.w3.org/2000/svg"
   xmlns:svg="http://www.w3.org/2000/svg"><defs
   id="defs7" />
<path
   d="M22.5,114.4h455c9.7,0,17.5-7.8,17.5-17.5V53.1c0-9.7-7.8-17.5-17.5-17.5h-455C12.8,35.6,5,43.5,5,53.1v43.8  C5,106.5,12.8,114.4,22.5,114.4z M22.5,289.4h455c9.7,0,17.5-7.8,17.5-17.5v-43.8c0-9.7-7.8-17.5-17.5-17.5h-455  c-9.7,0-17.5,7.8-17.5,17.5v43.8C5,281.5,12.8,289.4,22.5,289.4z M22.5,464.4h455c9.7,0,17.5-7.8,17.5-17.5v-43.8  c0-9.7-7.8-17.5-17.5-17.5h-455c-9.7,0-17.5,7.8-17.5,17.5v43.8C5,456.5,12.8,464.4,22.5,464.4z"
   id="path2" />
</svg>
