<?xml version="1.0" encoding="UTF-8" standalone="no"?>
<!-- Generator: Adobe Illustrator 24.1.2, SVG Export Plug-In . SVG Version: 6.00 Build 0)  -->

<svg
   version="1.1"
   id="Layer_1"
   focusable="false"
   x="0px"
   y="0px"
   viewBox="0 0 500 500"
   style="enable-background:new 0 0 500 500;"
   xml:space="preserve"
   xmlns="http://www.w3.org/2000/svg"
   xmlns:svg="http://www.w3.org/2000/svg"><defs
   id="defs7" />
<path
   d="M495,250c0,135.3-109.7,245-245,245S5,385.3,5,250S114.7,5,250,5S495,114.7,495,250z M221.7,379.7L403.4,198  c6.2-6.2,6.2-16.2,0-22.4l-22.4-22.4c-6.2-6.2-16.2-6.2-22.4,0L210.5,301.5l-69.2-69.2c-6.2-6.2-16.2-6.2-22.4,0l-22.4,22.4  c-6.2,6.2-6.2,16.2,0,22.4l102.7,102.7C205.5,385.9,215.5,385.9,221.7,379.7L221.7,379.7z"
   id="path2" />
</svg>
