<?xml version="1.0" encoding="UTF-8" standalone="no"?>
<!-- Generator: Adobe Illustrator 22.1.0, SVG Export Plug-In . SVG Version: 6.00 Build 0)  -->

<svg
   version="1.1"
   x="0px"
   y="0px"
   viewBox="0 0 500 500"
   xml:space="preserve"
   id="svg12"
   width="500"
   height="500"
   xmlns="http://www.w3.org/2000/svg"
   xmlns:svg="http://www.w3.org/2000/svg"
   xmlns:rdf="http://www.w3.org/1999/02/22-rdf-syntax-ns#"
   xmlns:cc="http://creativecommons.org/ns#"
   xmlns:dc="http://purl.org/dc/elements/1.1/"><metadata
   id="metadata18"><rdf:RDF><cc:Work
       rdf:about=""><dc:format>image/svg+xml</dc:format><dc:type
         rdf:resource="http://purl.org/dc/dcmitype/StillImage" /><dc:title /></cc:Work></rdf:RDF></metadata><defs
   id="defs16" />
<g
   id="Layer_1"
   transform="translate(0,-12)">
</g>
<g
   id="Layer_7"
   transform="matrix(0.95703125,0,0,0.95703125,5.0194134,5)"
   style="stroke-width:1.04489791">
	<g
   id="g9"
   style="stroke-width:1.04489791">
		<path
   d="m 375.6,251.4 v 171.1 c 0,12.4 -10,22.4 -22.4,22.4 H 129.4 C 117,444.9 107,434.9 107,422.5 V 244.3 c 0,-5.9 2.4,-11.6 6.6,-15.8 l 45.6,-45.6 c 4.2,-4.2 9.9,-6.6 15.8,-6.6 h 27 l 5.6,-12.9 c 0,0 0,-0.1 0,-0.1 l 0.2,-0.5 7.4,-16.9 h -74.6 v -27 c 0,-6.2 -5,-11.2 -11.2,-11.2 -6.2,0 -11.2,5 -11.2,11.2 v 27 h -8.6 c -18.2,0 -33,14.8 -33,33 v 8.6 h -30 c -6.2,0 -11.2,5 -11.2,11.2 0,6.2 5,11.2 11.2,11.2 h 30 v 52.2 h -30 c -6.2,0 -11.2,5 -11.2,11.2 0,6.2 5,11.2 11.2,11.2 h 30 v 52.2 h -30 c -6.2,0 -11.2,5 -11.2,11.2 0,6.2 5,11.2 11.2,11.2 h 30 v 52.2 h -30 c -6.2,0 -11.2,5 -11.2,11.2 0,6.2 5,11.2 11.2,11.2 h 30 v 8.6 c 0,18.2 14.8,33 33,33 h 8.6 v 25.5 c 0,6.2 5,11.2 11.2,11.2 6.2,0 11.2,-5 11.2,-11.2 v -25.5 h 52.2 v 25.5 c 0,6.2 5,11.2 11.2,11.2 6.2,0 11.2,-5 11.2,-11.2 v -25.5 h 52.2 v 25.5 c 0,6.2 5,11.2 11.2,11.2 6.2,0 11.2,-5 11.2,-11.2 V 475.3 H 342 v 25.5 c 0,6.2 5,11.2 11.2,11.2 6.2,0 11.2,-5 11.2,-11.2 v -25.5 h 8.6 c 18.2,0 33,-14.8 33,-33 v -8.4 l 31.3,0.4 c 0.1,0 0.1,0 0.2,0 6.1,0 11.1,-4.9 11.2,-11 0.1,-6.2 -4.9,-11.3 -11,-11.3 l -31.6,-0.4 v -52.3 l 32.3,0.4 c 0.1,0 0.1,0 0.2,0 6.1,0 11.1,-4.9 11.2,-11 0.1,-6.2 -4.9,-11.3 -11,-11.3 L 406.2,337 v -52.3 l 33.3,0.4 c 0,0 0.1,0 0.2,0 6.1,0 11.1,-4.9 11.2,-11 0.1,-6.2 -4.9,-11.2 -11,-11.3 l -33.6,-0.4 v -39.6 z"
   id="path3"
   style="stroke-width:1.04489791" />
		<path
   d="M 129.4,422.5 H 353.3 V 272.4 l -87.9,82.7 c -4.6,4.4 -10.7,6.8 -17,6.8 -8.7,0 -16.8,-4.6 -21.3,-12.1 -4.5,-7.5 -4.7,-16.6 -0.6,-24.3 L 293.7,198.6 H 175 l -45.6,45.6 z"
   id="path5"
   style="stroke-width:1.04489791" />
		<path
   d="m 228,172.4 c -0.7,1.6 0.5,3.4 2.2,3.4 H 327 c 1.8,0 3,1.9 2.1,3.5 l -83,156.7 c -1,1.8 0.5,3.6 2.2,3.6 0.6,0 1.1,-0.2 1.6,-0.7 L 475.8,126.3 c 1.6,-1.5 0.5,-4.2 -1.7,-4.2 H 363.8 c -1.8,0 -3,-1.9 -2.1,-3.5 L 420.2,3.5 C 421,1.9 419.9,0 418.1,0 H 306.8 c -0.9,0 -1.8,0.6 -2.2,1.4 z"
   id="path7"
   style="stroke-width:1.04489791" />
	</g>
</g>
</svg>
