<?xml version="1.0" encoding="UTF-8" standalone="no"?>
<svg
   xmlns:dc="http://purl.org/dc/elements/1.1/"
   xmlns:cc="http://creativecommons.org/ns#"
   xmlns:rdf="http://www.w3.org/1999/02/22-rdf-syntax-ns#"
   xmlns:svg="http://www.w3.org/2000/svg"
   xmlns="http://www.w3.org/2000/svg"
   xmlns:sodipodi="http://sodipodi.sourceforge.net/DTD/sodipodi-0.dtd"
   xmlns:inkscape="http://www.inkscape.org/namespaces/inkscape"
   aria-hidden="true"
   focusable="false"
   data-prefix="fas"
   data-icon="file-import"
   class="svg-inline--fa fa-file-import fa-w-16"
   role="img"
   viewBox="0 0 500 500"
   version="1.1"
   id="svg4"
   sodipodi:docname="clock-1.svg"
   inkscape:version="0.92.4 (5da689c313, 2019-01-14)"
   width="500"
   height="500">
  <metadata
     id="metadata10">
    <rdf:RDF>
      <cc:Work
         rdf:about="">
        <dc:format>image/svg+xml</dc:format>
        <dc:type
           rdf:resource="http://purl.org/dc/dcmitype/StillImage" />
        <dc:title></dc:title>
      </cc:Work>
    </rdf:RDF>
  </metadata>
  <defs
     id="defs8" />
  <sodipodi:namedview
     pagecolor="#ffffff"
     bordercolor="#666666"
     borderopacity="1"
     objecttolerance="10"
     gridtolerance="10"
     guidetolerance="10"
     inkscape:pageopacity="0"
     inkscape:pageshadow="2"
     inkscape:window-width="3360"
     inkscape:window-height="1975"
     id="namedview6"
     showgrid="true"
     inkscape:zoom="1.3"
     inkscape:cx="-57.728382"
     inkscape:cy="264.42552"
     inkscape:window-x="-13"
     inkscape:window-y="-13"
     inkscape:window-maximized="1"
     inkscape:current-layer="svg4">
    <inkscape:grid
       type="xygrid"
       id="grid15" />
  </sodipodi:namedview>
  <path
     inkscape:connector-curvature="0"
     style="fill:currentColor;stroke-width:0.98790324"
     d="M 250,5 C 114.65726,5 5,114.65726 5,250 5,385.34274 114.65726,495 250,495 385.34274,495 495,385.34274 495,250 495,114.65726 385.34274,5 250,5 Z m 0,442.58065 C 140.83669,447.58065 52.419355,359.16331 52.419355,250 52.419355,140.83669 140.83669,52.419355 250,52.419355 c 109.16331,0 197.58065,88.417335 197.58065,197.580645 0,109.16331 -88.41734,197.58065 -197.58065,197.58065 z m 61.05242,-103.1371 -83.87298,-60.95363 c -3.0625,-2.27218 -4.84073,-5.82863 -4.84073,-9.58266 V 111.69355 c 0,-6.52016 5.33468,-11.85484 11.85484,-11.85484 h 31.6129 c 6.52016,0 11.85484,5.33468 11.85484,11.85484 v 139.98589 l 65.99194,48.01209 c 5.33467,3.85282 6.42137,11.2621 2.56854,16.59678 L 327.64919,341.875 c -3.85282,5.23589 -11.26209,6.42137 -16.59677,2.56855 z"
     id="path2" />
</svg>
