<?xml version="1.0" encoding="UTF-8" standalone="no"?>
<svg
   height="500"
   width="500"
   id="svg4"
   version="1.1"
   viewBox="0 0 500 500"
   role="img"
   class="svg-inline--fa fa-cog fa-w-16"
   data-icon="cog"
   data-prefix="fas"
   focusable="false"
   aria-hidden="true"
   xmlns="http://www.w3.org/2000/svg"
   xmlns:svg="http://www.w3.org/2000/svg"
   xmlns:rdf="http://www.w3.org/1999/02/22-rdf-syntax-ns#"
   xmlns:cc="http://creativecommons.org/ns#"
   xmlns:dc="http://purl.org/dc/elements/1.1/">
  <metadata
     id="metadata10">
    <rdf:RDF>
      <cc:Work
         rdf:about="">
        <dc:format>image/svg+xml</dc:format>
        <dc:type
           rdf:resource="http://purl.org/dc/dcmitype/StillImage" />
        <dc:title />
      </cc:Work>
    </rdf:RDF>
  </metadata>
  <defs
     id="defs8" />
  <path
     style="fill:currentColor;stroke-width:1"
     id="path2"
     d="m 478.54627,308.87881 -42.08452,-24.30233 c 4.24797,-22.91927 4.24797,-46.43128 0,-69.35055 l 42.08452,-24.30232 c 4.84071,-2.76612 7.01409,-8.49594 5.43345,-13.8306 -10.96569,-35.16922 -29.63699,-66.97958 -54.0381,-93.455284 -3.75402,-4.050387 -9.879,-5.038287 -14.62092,-2.272168 L 373.23619,105.66788 C 355.55279,90.454233 335.20206,78.698229 313.1719,70.992613 V 22.486748 c 0,-5.532237 -3.85281,-10.372945 -9.28626,-11.558424 -36.25591,-8.1007765 -73.40093,-7.7056165 -107.87862,0 -5.43345,1.185479 -9.28626,6.026187 -9.28626,11.558424 v 48.604655 c -21.93137,7.804406 -42.2821,19.56041 -60.06429,34.675267 L 84.670746,81.464348 C 79.830039,78.698229 73.803852,79.587339 70.049834,83.736516 45.648716,110.11343 26.977416,141.92379 16.011732,177.1918 c -1.67943,5.33466 0.592739,11.06448 5.433447,13.8306 l 42.084518,24.30232 c -4.247968,22.91927 -4.247968,46.43128 0,69.35055 L 21.445179,308.9776 c -4.840708,2.76611 -7.014087,8.49593 -5.433447,13.83059 10.965684,35.16922 29.636984,66.97958 54.038102,93.45529 3.754018,4.05039 9.878995,5.03829 14.620912,2.27217 l 42.084514,-24.30233 c 17.6834,15.21365 38.03413,26.96966 60.06429,34.67527 v 48.60466 c 0,5.53224 3.85281,10.37294 9.28626,11.55842 36.25591,8.10078 73.40093,7.70562 107.87862,0 5.43345,-1.18548 9.28626,-6.02618 9.28626,-11.55842 v -48.60466 c 21.93137,-7.8044 42.2821,-19.56041 60.06429,-34.67527 l 42.08451,24.30233 c 4.84071,2.76612 10.8669,1.87701 14.62092,-2.27217 24.40111,-26.37692 43.07241,-58.18728 54.0381,-93.45529 1.48185,-5.43345 -0.69153,-11.16327 -5.53224,-13.92938 z m -228.59994,20.05436 c -43.56637,0 -79.03196,-35.4656 -79.03196,-79.03196 0,-43.56637 35.46559,-79.03196 79.03196,-79.03196 43.56637,0 79.03196,35.46559 79.03196,79.03196 0,43.56636 -35.46559,79.03196 -79.03196,79.03196 z" />
</svg>
