<?xml version="1.0" encoding="UTF-8" standalone="no"?>
<!-- Generator: Adobe Illustrator 23.0.6, SVG Export Plug-In . SVG Version: 6.00 Build 0)  -->

<svg
   version="1.1"
   id="Layer_1"
   x="0px"
   y="0px"
   viewBox="0 0 500 500"
   style="enable-background:new 0 0 500 500;"
   xml:space="preserve"
   xmlns="http://www.w3.org/2000/svg"
   xmlns:svg="http://www.w3.org/2000/svg"><defs
   id="defs11" />
<g
   id="g6">
	<path
   d="M93.2,218.2c-7.5-7.5-19.6-7.5-27,0s-7.5,19.6,0,27l18.1,18.1l-30.6,30.6C16.1,331.4,12,389.7,41.3,431.8l-30.7,30.7   c-7.5,7.5-7.5,19.6,0,27c3.7,3.7,8.6,5.6,13.5,5.6s9.8-1.9,13.5-5.6l30.7-30.7c18.5,12.9,40,19.3,61.6,19.3   c27.6,0,55.2-10.5,76.3-31.6l30.6-30.6l17.7,17.7c3.7,3.7,8.6,5.6,13.5,5.6c4.9,0,9.8-1.9,13.5-5.6c7.5-7.5,7.5-19.6,0-27   L93.2,218.2z"
   id="path2" />
	<path
   d="M489.4,10.5c-7.5-7.5-19.6-7.5-27,0l-30.7,30.7c-18.5-12.9-40-19.3-61.6-19.3c-27.6,0-55.2,10.5-76.3,31.6l-30.6,30.6   l-17.7-17.7c-7.5-7.5-19.6-7.5-27,0c-7.5,7.5-7.5,19.6,0,27l42.4,42.4l-62.3,62.3c-7.5,7.5-7.5,19.6,0,27c3.7,3.7,8.6,5.6,13.5,5.6   c4.9,0,9.8-1.9,13.5-5.6l62.3-62.3l48.2,48.2l-61.2,61.2c-7.5,7.5-7.5,19.6,0,27c3.7,3.7,8.6,5.6,13.5,5.6c4.9,0,9.8-1.9,13.5-5.6   l61.2-61.2l43.7,43.7c3.7,3.7,8.6,5.6,13.5,5.6c4.9,0,9.8-1.9,13.5-5.6c7.5-7.5,7.5-19.6,0-27l-18.1-18.1l30.6-30.6   c37.5-37.5,41.6-95.8,12.3-137.9l30.7-30.7C496.9,30.1,496.9,18,489.4,10.5z"
   id="path4" />
</g>
</svg>
