<?xml version="1.0" encoding="UTF-8" standalone="no"?>
<!-- Generator: Adobe Illustrator 24.1.2, SVG Export Plug-In . SVG Version: 6.00 Build 0)  -->

<svg
   version="1.1"
   id="Layer_1"
   focusable="false"
   x="0px"
   y="0px"
   viewBox="0 0 500 500"
   style="enable-background:new 0 0 500 500;"
   xml:space="preserve"
   xmlns="http://www.w3.org/2000/svg"
   xmlns:svg="http://www.w3.org/2000/svg"><defs
   id="defs7" />
<path
   d="M211.7,5h76.6c12.7,0,23,10.2,23,23v160.8h83.9c17,0,25.6,20.6,13.5,32.6L263.1,367c-7.2,7.2-18.9,7.2-26.1,0L91.2,221.4  c-12.1-12.1-3.5-32.6,13.5-32.6h84V28C188.8,15.2,199,5,211.7,5z M495,364.8V472c0,12.7-10.2,23-23,23H28c-12.7,0-23-10.2-23-23  V364.8c0-12.7,10.2-23,23-23h140.4l46.9,46.9c19.2,19.2,50.2,19.2,69.5,0l46.9-46.9H472C484.8,341.9,495,352.1,495,364.8z   M376.3,449.1c0-10.5-8.6-19.1-19.1-19.1s-19.1,8.6-19.1,19.1s8.6,19.1,19.1,19.1S376.3,459.6,376.3,449.1z M437.6,449.1  c0-10.5-8.6-19.1-19.1-19.1s-19.1,8.6-19.1,19.1s8.6,19.1,19.1,19.1S437.6,459.6,437.6,449.1z"
   id="path2" />
</svg>
