<?xml version="1.0" encoding="UTF-8" standalone="no"?>
<svg
   aria-hidden="true"
   focusable="false"
   data-prefix="fas"
   data-icon="edit"
   class="svg-inline--fa fa-edit fa-w-18"
   role="img"
   viewBox="0 0 500 500"
   version="1.1"
   id="svg4"
   width="500"
   height="500"
   xmlns="http://www.w3.org/2000/svg"
   xmlns:svg="http://www.w3.org/2000/svg"
   xmlns:rdf="http://www.w3.org/1999/02/22-rdf-syntax-ns#"
   xmlns:cc="http://creativecommons.org/ns#"
   xmlns:dc="http://purl.org/dc/elements/1.1/">
  <metadata
     id="metadata10">
    <rdf:RDF>
      <cc:Work
         rdf:about="">
        <dc:format>image/svg+xml</dc:format>
        <dc:type
           rdf:resource="http://purl.org/dc/dcmitype/StillImage" />
        <dc:title />
      </cc:Work>
    </rdf:RDF>
  </metadata>
  <defs
     id="defs8" />
  <path
     d="m 347.48958,102.95747 76.73264,76.73263 c 3.23263,3.23264 3.23263,8.50695 0,11.73959 l -185.79167,185.79166 -78.94444,8.76215 c -10.54861,1.19098 -19.4809,-7.74131 -18.28993,-18.28993 L 149.95833,288.74913 335.75,102.95747 c 3.23264,-3.232651 8.50694,-3.232651 11.73958,0 z M 485.30208,83.476564 443.78819,41.962677 c -12.93055,-12.930555 -33.94271,-12.930555 -46.95834,0 L 366.71527,72.07726 c -3.23263,3.232643 -3.23263,8.506947 0,11.73958 l 76.73265,76.73264 c 3.23263,3.23263 8.50693,3.23263 11.73958,0 l 30.11458,-30.11458 c 12.93056,-13.01563 12.93056,-34.027781 0,-46.958336 z M 331.66667,326.6901 v 86.60069 H 59.444444 V 141.06857 H 254.93402 c 2.72223,0 5.27431,-1.10589 7.23091,-2.97742 l 34.02778,-34.02779 c 6.46527,-6.465271 1.87152,-17.43922 -7.23091,-17.43922 H 45.833333 c -22.543403,0 -40.8333336,18.28992 -40.8333336,40.83333 v 299.44444 c 0,22.5434 18.2899306,40.83333 40.8333336,40.83333 H 345.27777 c 22.54341,0 40.83333,-18.28993 40.83333,-40.83333 V 292.66232 c 0,-9.10242 -10.97395,-13.61111 -17.43923,-7.2309 l -34.02778,34.02778 c -1.87153,1.95659 -2.97742,4.50868 -2.97742,7.2309 z"
     id="path2"
     style="fill:currentColor;stroke-width:0.87152779" />
</svg>
