<?xml version="1.0" encoding="UTF-8" standalone="no"?>
<svg
   xmlns:dc="http://purl.org/dc/elements/1.1/"
   xmlns:cc="http://creativecommons.org/ns#"
   xmlns:rdf="http://www.w3.org/1999/02/22-rdf-syntax-ns#"
   xmlns:svg="http://www.w3.org/2000/svg"
   xmlns="http://www.w3.org/2000/svg"
   xmlns:sodipodi="http://sodipodi.sourceforge.net/DTD/sodipodi-0.dtd"
   xmlns:inkscape="http://www.inkscape.org/namespaces/inkscape"
   aria-hidden="true"
   focusable="false"
   data-prefix="fas"
   data-icon="exclamation"
   class="svg-inline--fa fa-exclamation fa-w-6"
   role="img"
   viewBox="0 0 500 500"
   version="1.1"
   id="svg4"
   sodipodi:docname="exclamation.svg"
   width="500"
   height="500"
   inkscape:version="0.92.4 (f8dce91, 2019-08-02)">
  <metadata
     id="metadata10">
    <rdf:RDF>
      <cc:Work
         rdf:about="">
        <dc:format>image/svg+xml</dc:format>
        <dc:type
           rdf:resource="http://purl.org/dc/dcmitype/StillImage" />
        <dc:title></dc:title>
      </cc:Work>
    </rdf:RDF>
  </metadata>
  <defs
     id="defs8" />
  <sodipodi:namedview
     pagecolor="#ffffff"
     bordercolor="#666666"
     borderopacity="1"
     objecttolerance="10"
     gridtolerance="10"
     guidetolerance="10"
     inkscape:pageopacity="0"
     inkscape:pageshadow="2"
     inkscape:window-width="1195"
     inkscape:window-height="946"
     id="namedview6"
     showgrid="false"
     inkscape:zoom="0.4609375"
     inkscape:cx="96"
     inkscape:cy="256"
     inkscape:window-x="49"
     inkscape:window-y="27"
     inkscape:window-maximized="0"
     inkscape:current-layer="svg4" />
  <path
     d="M 326.5625,418.4375 C 326.5625,460.65406 292.21656,495 250,495 c -42.21656,0 -76.5625,-34.34594 -76.5625,-76.5625 0,-42.21656 34.34594,-76.5625 76.5625,-76.5625 42.21656,0 76.5625,34.34594 76.5625,76.5625 z M 182.29961,29.11623 l 13.01562,260.3125 c 0.61155,12.22416 10.70057,21.82127 22.94004,21.82127 h 63.48946 c 12.23947,0 22.32849,-9.59711 22.94004,-21.82127 L 317.70039,29.11623 C 318.35596,15.996289 307.89656,5 294.76035,5 h -89.5207 c -13.13621,0 -23.59561,10.996289 -22.94004,24.11623 z"
     id="path2"
     inkscape:connector-curvature="0"
     style="fill:currentColor;stroke-width:0.99999994" />
</svg>
