<?xml version="1.0" encoding="UTF-8" standalone="no"?>
<svg
   aria-hidden="true"
   focusable="false"
   data-prefix="fas"
   data-icon="exclamation"
   class="svg-inline--fa fa-exclamation fa-w-6"
   role="img"
   viewBox="0 0 500 500"
   version="1.1"
   id="svg4"
   width="500"
   height="500"
   xmlns="http://www.w3.org/2000/svg"
   xmlns:svg="http://www.w3.org/2000/svg"
   xmlns:rdf="http://www.w3.org/1999/02/22-rdf-syntax-ns#"
   xmlns:cc="http://creativecommons.org/ns#"
   xmlns:dc="http://purl.org/dc/elements/1.1/">
  <metadata
     id="metadata10">
    <rdf:RDF>
      <cc:Work
         rdf:about="">
        <dc:format>image/svg+xml</dc:format>
        <dc:type
           rdf:resource="http://purl.org/dc/dcmitype/StillImage" />
        <dc:title />
      </cc:Work>
    </rdf:RDF>
  </metadata>
  <defs
     id="defs8" />
  <path
     d="M 326.5625,418.4375 C 326.5625,460.65406 292.21656,495 250,495 c -42.21656,0 -76.5625,-34.34594 -76.5625,-76.5625 0,-42.21656 34.34594,-76.5625 76.5625,-76.5625 42.21656,0 76.5625,34.34594 76.5625,76.5625 z M 182.29961,29.11623 l 13.01562,260.3125 c 0.61155,12.22416 10.70057,21.82127 22.94004,21.82127 h 63.48946 c 12.23947,0 22.32849,-9.59711 22.94004,-21.82127 L 317.70039,29.11623 C 318.35596,15.996289 307.89656,5 294.76035,5 h -89.5207 c -13.13621,0 -23.59561,10.996289 -22.94004,24.11623 z"
     id="path2"
     style="fill:currentColor;stroke-width:0.99999994" />
</svg>
