<?xml version="1.0" encoding="UTF-8" standalone="no"?>
<svg
   height="500"
   width="500"
   id="svg835"
   version="1.1"
   viewBox="0 0 500 500"
   role="img"
   class="svg-inline--fa fa-eye-slash fa-w-20"
   data-icon="eye-slash"
   data-prefix="fas"
   focusable="false"
   aria-hidden="true"
   xmlns="http://www.w3.org/2000/svg"
   xmlns:svg="http://www.w3.org/2000/svg"
   xmlns:rdf="http://www.w3.org/1999/02/22-rdf-syntax-ns#"
   xmlns:cc="http://creativecommons.org/ns#"
   xmlns:dc="http://purl.org/dc/elements/1.1/">
  <metadata
     id="metadata841">
    <rdf:RDF>
      <cc:Work
         rdf:about="">
        <dc:format>image/svg+xml</dc:format>
        <dc:type
           rdf:resource="http://purl.org/dc/dcmitype/StillImage" />
        <dc:title />
      </cc:Work>
    </rdf:RDF>
  </metadata>
  <defs
     id="defs839" />
  <path
     style="stroke-width:0.765623"
     id="path833"
     d="m 249.99762,360.24969 c -58.0725,0 -105.08174,-44.94972 -109.40751,-101.91206 L 60.27627,196.26859 C 49.71833,209.51386 40.002576,223.5171 32.162598,238.82956 a 24.7679,24.7679 0 0 0 0,22.34853 c 41.519728,81.01056 123.717002,135.8215 217.835022,135.8215 20.60291,0 40.47848,-3.06249 59.63436,-8.00842 l -39.72817,-30.73976 a 110.34922,110.34922 0 0 1 -19.90619,1.99828 z m 240.26776,44.48269 -84.6396,-65.41482 a 253.61257,253.61257 0 0 0 62.20685,-78.14712 24.7679,24.7679 0 0 0 0,-22.34854 C 426.31291,157.81135 344.11563,103.00041 249.99762,103.00041 A 235.92668,235.92668 0 0 0 137.20606,131.86439 L 39.803514,56.580697 a 12.249966,12.249966 0 0 0 -17.195889,2.1514 L 7.5784479,78.079387 A 12.249966,12.249966 0 0 0 9.7298482,95.26762 L 460.19172,443.4193 a 12.249966,12.249966 0 0 0 17.19589,-2.1514 l 15.03683,-19.34729 a 12.249966,12.249966 0 0 0 -2.15906,-17.18823 z M 349.60515,296.01393 319.51617,272.75431 A 72.542766,72.542766 0 0 0 323.49741,250 72.550422,72.550422 0 0 0 230.6197,179.40191 a 36.481929,36.481929 0 0 1 7.12795,21.59822 35.70865,35.70865 0 0 1 -1.17906,7.65623 l -56.3575,-43.55628 A 108.95579,108.95579 0 0 1 249.99762,139.75031 110.18844,110.18844 0 0 1 360.24731,250 c 0,16.56042 -4.05015,31.99538 -10.64216,46.02159 z"
     fill="currentColor" />
</svg>
