<?xml version="1.0" encoding="UTF-8" standalone="no"?>
<svg
   height="500"
   width="500"
   id="svg835"
   version="1.1"
   viewBox="0 0 500 500"
   role="img"
   class="svg-inline--fa fa-eye fa-w-18"
   data-icon="eye"
   data-prefix="fas"
   focusable="false"
   aria-hidden="true"
   xmlns="http://www.w3.org/2000/svg"
   xmlns:svg="http://www.w3.org/2000/svg"
   xmlns:rdf="http://www.w3.org/1999/02/22-rdf-syntax-ns#"
   xmlns:cc="http://creativecommons.org/ns#"
   xmlns:dc="http://purl.org/dc/elements/1.1/">
  <metadata
     id="metadata841">
    <rdf:RDF>
      <cc:Work
         rdf:about="">
        <dc:format>image/svg+xml</dc:format>
        <dc:type
           rdf:resource="http://purl.org/dc/dcmitype/StillImage" />
        <dc:title />
      </cc:Work>
    </rdf:RDF>
  </metadata>
  <defs
     id="defs839" />
  <path
     style="stroke-width:0.850696"
     id="path833"
     d="M 492.04004,237.57983 C 445.90679,147.56768 354.57606,86.666355 250,86.666355 145.42393,86.666355 54.067683,147.61023 7.9599569,237.58834 a 27.520018,27.520018 0 0 0 0,24.83182 C 54.093204,352.43232 145.42393,413.33364 250,413.33364 c 104.57606,0 195.93231,-60.94387 242.04004,-150.92199 a 27.520018,27.520018 0 0 0 0,-24.83182 z M 250,372.50024 A 122.50023,122.50023 0 1 1 372.50023,250 122.44068,122.44068 0 0 1 250,372.50024 Z m 0,-204.16706 a 81.079841,81.079841 0 0 0 -21.53112,3.22414 40.705806,40.705806 0 0 1 -56.91157,56.91157 A 81.479669,81.479669 0 1 0 250,168.33318 Z"
     fill="currentColor" />
</svg>
