<?xml version="1.0" encoding="UTF-8" standalone="no"?>
<svg
   aria-hidden="true"
   focusable="false"
   data-prefix="fas"
   data-icon="file-import"
   class="svg-inline--fa fa-file-import fa-w-16"
   role="img"
   viewBox="0 0 500 500"
   version="1.1"
   id="svg4"
   width="500"
   height="500"
   xmlns="http://www.w3.org/2000/svg"
   xmlns:svg="http://www.w3.org/2000/svg"
   xmlns:rdf="http://www.w3.org/1999/02/22-rdf-syntax-ns#"
   xmlns:cc="http://creativecommons.org/ns#"
   xmlns:dc="http://purl.org/dc/elements/1.1/">
  <metadata
     id="metadata10">
    <rdf:RDF>
      <cc:Work
         rdf:about="">
        <dc:format>image/svg+xml</dc:format>
        <dc:type
           rdf:resource="http://purl.org/dc/dcmitype/StillImage" />
        <dc:title />
      </cc:Work>
    </rdf:RDF>
  </metadata>
  <defs
     id="defs8" />
  <path
     d="M 20.3125,280.625 C 11.890625,280.625 5,287.51562 5,295.9375 v 30.625 c 0,8.42187 6.890625,15.3125 15.3125,15.3125 h 166.43687 v -61.25 z M 488.30078,105.48828 394.60742,11.699219 C 390.30078,7.392578 384.46289,5 378.33789,5 H 372.5 V 127.5 H 495 v -5.83789 c 0,-6.0293 -2.39258,-11.86719 -6.69922,-16.17383 z M 341.875,135.15625 V 5 H 209.71812 C 196.9896,5 186.78381,15.240282 186.74937,27.96875 V 280.625 H 250 v -62.39844 c 0,-13.68555 16.55664,-20.48046 26.22265,-10.81445 l 91.4922,92.35351 c 6.3164,6.41212 6.3164,16.65235 0,22.96875 l -91.58789,92.25782 c -9.66602,9.66602 -26.22267,2.87109 -26.22267,-10.81445 V 341.875 H 186.74937 V 472.03125 C 186.74937,484.75976 196.9896,495 209.71812,495 H 472.03125 C 484.75976,495 495,484.75976 495,472.03125 V 158.125 H 364.84375 c -12.63281,0 -22.96875,-10.33594 -22.96875,-22.96875 z"
     id="path2"
     style="fill:currentColor;stroke-width:0.95703125" />
</svg>
