<?xml version="1.0" encoding="UTF-8" standalone="no"?>
<svg
   aria-hidden="true"
   focusable="false"
   data-prefix="far"
   data-icon="folder-open"
   class="svg-inline--fa fa-folder-open fa-w-18"
   role="img"
   viewBox="0 0 500 500"
   version="1.1"
   id="svg4"
   width="500"
   height="500"
   xmlns="http://www.w3.org/2000/svg"
   xmlns:svg="http://www.w3.org/2000/svg"
   xmlns:rdf="http://www.w3.org/1999/02/22-rdf-syntax-ns#"
   xmlns:cc="http://creativecommons.org/ns#"
   xmlns:dc="http://purl.org/dc/elements/1.1/">
  <metadata
     id="metadata10">
    <rdf:RDF>
      <cc:Work
         rdf:about="">
        <dc:format>image/svg+xml</dc:format>
        <dc:type
           rdf:resource="http://purl.org/dc/dcmitype/StillImage" />
        <dc:title />
      </cc:Work>
    </rdf:RDF>
  </metadata>
  <defs
     id="defs8" />
  <path
     style="color:#000000;font-style:normal;font-variant:normal;font-weight:normal;font-stretch:normal;font-size:medium;line-height:normal;font-family:sans-serif;font-variant-ligatures:normal;font-variant-position:normal;font-variant-caps:normal;font-variant-numeric:normal;font-variant-alternates:normal;font-feature-settings:normal;text-indent:0;text-align:start;text-decoration:none;text-decoration-line:none;text-decoration-style:solid;text-decoration-color:#000000;letter-spacing:normal;word-spacing:normal;text-transform:none;writing-mode:lr-tb;direction:ltr;text-orientation:mixed;dominant-baseline:auto;baseline-shift:baseline;text-anchor:start;white-space:normal;shape-padding:0;clip-rule:nonzero;display:inline;overflow:visible;visibility:visible;opacity:1;isolation:auto;mix-blend-mode:normal;color-interpolation:sRGB;color-interpolation-filters:linearRGB;solid-color:#000000;solid-opacity:1;vector-effect:none;fill:#000000;fill-opacity:1;fill-rule:nonzero;stroke:none;stroke-width:40;stroke-linecap:butt;stroke-linejoin:round;stroke-miterlimit:4;stroke-dasharray:none;stroke-dashoffset:0;stroke-opacity:1;color-rendering:auto;image-rendering:auto;shape-rendering:auto;text-rendering:auto;enable-background:accumulate"
     d="M 24.998723,82.510698 C 13.95419,82.511698 5.0011045,91.464886 5.0000002,102.50942 v 294.98116 c 0.0011,11.04453 8.9541898,19.99762 19.9987228,19.99872 h 84.994567 274.98439 c 7.02437,-0.001 13.53329,-3.68699 17.14734,-9.71032 l 89.99621,-149.99042 c 7.99371,-13.3297 -1.60644,-30.2844 -17.1493,-30.28713 H 404.9764 v -64.99584 c -0.001,-11.04454 -8.95419,-19.99763 -19.99872,-19.99873 H 248.78326 l -55.74141,-58.3029 c 0,0 -113.052901,-1.693262 -168.043127,-1.693262 z M 44.997445,122.50814 H 176.19219 l 55.74139,58.30291 133.04538,1.69326 v 44.99712 H 116.99285 c -6.95521,2.7e-4 -13.41087,3.61378 -17.047743,9.54237 L 44.997445,326.63768 Z M 128.18744,267.49888 H 439.64997 L 373.65418,377.49185 H 109.99329 60.728862 Z"
     id="path4524" />
</svg>
