<?xml version="1.0" encoding="UTF-8" standalone="no"?>
<!-- Generator: Adobe Illustrator 24.1.2, SVG Export Plug-In . SVG Version: 6.00 Build 0)  -->

<svg
   version="1.1"
   id="Layer_1"
   focusable="false"
   x="0px"
   y="0px"
   viewBox="0 0 500 500"
   style="enable-background:new 0 0 500 500;"
   xml:space="preserve"
   xmlns="http://www.w3.org/2000/svg"
   xmlns:svg="http://www.w3.org/2000/svg"><defs
   id="defs7" />
<path
   d="M492.2,280.7l-61.6,105.6c-9.8,16.7-27.7,27-47,27H43.3c-15.8,0-25.6-17.1-17.6-30.7L87.3,277c9.8-16.7,27.7-27,47-27h340.2  C490.3,250,500.1,267.1,492.2,280.7z M134.3,222.8h279v-40.8c0-22.6-18.3-40.8-40.8-40.8H236.4l-54.4-54.4H45.8  C23.3,86.7,5,104.9,5,127.5V364l58.8-100.7C78.3,238.3,105.4,222.8,134.3,222.8z"
   id="path2" />
</svg>
