<?xml version="1.0" encoding="UTF-8" standalone="no"?>
<!-- Generator: Adobe Illustrator 24.1.2, SVG Export Plug-In . SVG Version: 6.00 Build 0)  -->

<svg
   version="1.1"
   id="Layer_1"
   focusable="false"
   x="0px"
   y="0px"
   viewBox="0 0 500 500"
   style="enable-background:new 0 0 500 500;"
   xml:space="preserve"
   xmlns="http://www.w3.org/2000/svg"
   xmlns:svg="http://www.w3.org/2000/svg"><defs
   id="defs7" />
<path
   d="M449.1,127.5H265.3l-61.2-61.2H50.9C25.6,66.2,5,86.8,5,112.2v275.6c0,25.4,20.6,45.9,45.9,45.9h398.1  c25.4,0,45.9-20.6,45.9-45.9V173.4C495,148.1,474.4,127.5,449.1,127.5z M349.1,288.3c0,8.5-6.9,15.3-15.3,15.3h-61.2v61.2  c0,8.5-6.9,15.3-15.3,15.3h-15.3c-8.5,0-15.3-6.9-15.3-15.3v-61.2h-61.2c-8.5,0-15.3-6.9-15.3-15.3V273c0-8.5,6.9-15.3,15.3-15.3  h61.2v-61.2c0-8.5,6.9-15.3,15.3-15.3h15.3c8.5,0,15.3,6.9,15.3,15.3v61.2h61.2c8.5,0,15.3,6.9,15.3,15.3V288.3z"
   id="path2" />
</svg>
