<?xml version="1.0" encoding="UTF-8" standalone="no"?>
<svg
   xmlns:dc="http://purl.org/dc/elements/1.1/"
   xmlns:cc="http://creativecommons.org/ns#"
   xmlns:rdf="http://www.w3.org/1999/02/22-rdf-syntax-ns#"
   xmlns:svg="http://www.w3.org/2000/svg"
   xmlns="http://www.w3.org/2000/svg"
   height="500"
   width="500"
   id="svg835"
   version="1.1"
   viewBox="0 0 500 500"
   role="img"
   class="svg-inline--fa fa-history fa-w-16"
   data-icon="history"
   data-prefix="fas"
   focusable="false"
   aria-hidden="true">
  <metadata
     id="metadata841">
    <rdf:RDF>
      <cc:Work
         rdf:about="">
        <dc:format>image/svg+xml</dc:format>
        <dc:type
           rdf:resource="http://purl.org/dc/dcmitype/StillImage" />
        <dc:title></dc:title>
      </cc:Work>
    </rdf:RDF>
  </metadata>
  <defs
     id="defs839" />
  <path
     style="stroke-width:0.987902"
     id="path833"
     d="M 494.99958,249.53713 C 495.24951,384.52411 385.16459,494.90442 250.17761,494.99926 191.87655,495.04075 138.32434,474.71762 96.240685,440.75255 85.29769,431.9207 84.479707,415.52054 94.423933,405.57631 l 11.130697,-11.1307 c 8.50485,-8.50485 22.08258,-9.43545 31.5052,-1.95999 31.00531,24.6037 70.24381,39.28887 112.93996,39.28887 100.47461,0 181.77403,-81.31523 181.77403,-181.77403 0,-100.47461 -81.31523,-181.774035 -181.77403,-181.774035 -48.22347,0 -92.02212,18.73952 -124.54288,49.327935 l 50.14,50.14 c 9.95805,9.95806 2.90542,26.98356 -11.17614,26.98356 H 20.806436 c -8.730093,0 -15.8064384,-7.07634 -15.8064384,-15.80643 V 35.257159 c 0,-14.081561 17.0255094,-21.134196 26.9835654,-11.177128 L 80.758279,72.854747 C 124.74266,30.820489 184.35565,5.0006733 249.99979,5.0006733 c 135.15492,0 244.74985,109.4398167 244.99979,244.5364567 z m -178.7234,77.8309 9.70417,-12.47721 c 8.03955,-10.33642 6.17735,-25.233 -4.15907,-33.27156 L 281.61266,250.34524 V 147.25861 c 0,-13.09464 -10.61501,-23.70966 -23.70965,-23.70966 h -15.80644 c -13.09465,0 -23.70966,10.61502 -23.70966,23.70966 v 134.00995 l 64.61771,50.25854 c 10.33642,8.03856 25.23201,6.17735 33.27156,-4.15907 z"
     fill="currentColor" />
</svg>
