<?xml version="1.0" encoding="UTF-8" standalone="no"?>
<svg
   aria-hidden="true"
   focusable="false"
   data-prefix="fas"
   data-icon="info-circle"
   class="svg-inline--fa fa-info-circle fa-w-16"
   role="img"
   viewBox="0 0 500 500"
   version="1.1"
   id="svg4"
   width="500"
   height="500"
   xmlns="http://www.w3.org/2000/svg"
   xmlns:svg="http://www.w3.org/2000/svg"
   xmlns:rdf="http://www.w3.org/1999/02/22-rdf-syntax-ns#"
   xmlns:cc="http://creativecommons.org/ns#"
   xmlns:dc="http://purl.org/dc/elements/1.1/">
  <metadata
     id="metadata10">
    <rdf:RDF>
      <cc:Work
         rdf:about="">
        <dc:format>image/svg+xml</dc:format>
        <dc:type
           rdf:resource="http://purl.org/dc/dcmitype/StillImage" />
        <dc:title />
      </cc:Work>
    </rdf:RDF>
  </metadata>
  <defs
     id="defs8" />
  <path
     d="M 250,5 C 114.69974,5 5,114.73925 5,250 5,385.33978 114.69974,495 250,495 385.30026,495 495,385.33978 495,250 495,114.73925 385.30026,5 250,5 Z m 0,108.66936 c 22.9154,0 41.49194,18.57653 41.49194,41.49193 0,22.9154 -18.57654,41.49194 -41.49194,41.49194 -22.9154,0 -41.49193,-18.57654 -41.49193,-41.49194 0,-22.9154 18.57653,-41.49193 41.49193,-41.49193 z m 55.32258,250.92742 c 0,6.54683 -5.308,11.85483 -11.85484,11.85483 h -86.93548 c -6.54684,0 -11.85484,-5.308 -11.85484,-11.85483 V 340.8871 c 0,-6.54684 5.308,-11.85484 11.85484,-11.85484 h 11.85484 v -63.22581 h -11.85484 c -6.54684,0 -11.85484,-5.308 -11.85484,-11.85484 v -23.70967 c 0,-6.54684 5.308,-11.85484 11.85484,-11.85484 h 63.22581 c 6.54683,0 11.85483,5.308 11.85483,11.85484 v 98.79032 h 11.85484 c 6.54684,0 11.85484,5.308 11.85484,11.85484 z"
     id="path2"
     style="fill:currentColor;stroke-width:1" />
</svg>
