<?xml version="1.0" encoding="UTF-8" standalone="no"?>
<!-- Generator: Adobe Illustrator 24.1.2, SVG Export Plug-In . SVG Version: 6.00 Build 0)  -->

<svg
   version="1.1"
   id="Layer_1"
   x="0px"
   y="0px"
   viewBox="0 0 500 500"
   style="enable-background:new 0 0 500 500;"
   xml:space="preserve"
   xmlns="http://www.w3.org/2000/svg"
   xmlns:svg="http://www.w3.org/2000/svg"><defs
   id="defs7" />
<path
   d="M147.9,211.7v76.6c0,12.7-10.3,23-23,23H28c-12.7,0-23-10.3-23-23v-76.6c0-12.7,10.3-23,23-23h97  C137.6,188.8,147.9,199,147.9,211.7L147.9,211.7z M5,364.8v76.6c0,12.7,10.3,23,23,23h97c12.7,0,23-10.3,23-23v-76.6  c0-12.7-10.3-23-23-23H28C15.3,341.9,5,352.2,5,364.8z M124.9,35.6H28c-12.7,0-23,10.3-23,23v76.6c0,12.7,10.3,23,23,23h97  c12.7,0,23-10.3,23-23V58.6C147.9,45.9,137.6,35.6,124.9,35.6z M201.5,464.4H472c12.7,0,23-10.3,23-23v-76.6c0-12.7-10.3-23-23-23  H201.5c-12.7,0-23,10.3-23,23v76.6C178.5,454.1,188.8,464.4,201.5,464.4L201.5,464.4z M178.5,58.6v76.6c0,12.7,10.3,23,23,23H472  c12.7,0,23-10.3,23-23V58.6c0-12.7-10.3-23-23-23H201.5C188.8,35.6,178.5,45.9,178.5,58.6L178.5,58.6z M201.5,311.2H472  c12.7,0,23-10.3,23-23v-76.6c0-12.7-10.3-23-23-23H201.5c-12.7,0-23,10.3-23,23v76.6C178.5,301,188.8,311.2,201.5,311.2L201.5,311.2  z"
   id="path2" />
</svg>
