<?xml version="1.0" encoding="utf-8"?>
<!-- Generator: Adobe Illustrator 24.1.2, SVG Export Plug-In . SVG Version: 6.00 Build 0)  -->
<svg version="1.1" id="Logo" xmlns="http://www.w3.org/2000/svg" xmlns:xlink="http://www.w3.org/1999/xlink" x="0px" y="0px"
	 viewBox="0 0 432.8 153.6" style="enable-background:new 0 0 432.8 153.6;" xml:space="preserve">
<style type="text/css">
	.st0{fill:#DA7F3A;}
	.st1{fill:#3A4D54;}
</style>
<g>
	<path class="st0" d="M388.5,47.4c0,4.6,0,21.7,0,23c0,0,0,0,0,0c2.4-7.5,11.1-23.6,11.5-24.4c0,0,0,0,0,0h-10
		C389.2,45.9,388.5,46.6,388.5,47.4z"/>
	<path class="st1" d="M275.9,56.1c-6.3-6.6-13.8-9.9-22.7-9.9c-8.9,0-16.5,3.3-22.8,9.9c-6.3,6.6-9.4,14.6-9.4,23.9
		c0,9.3,3.1,17.2,9.4,23.7c6.2,6.6,13.8,9.9,22.8,9.9c6.8,0,12.8-2,18.2-5.9c5.4-3.9,9.2-9.1,11.6-15.4l0.8-2c0.3-0.7-0.2-1.4-1-1.4
		H273c-0.4,0-0.8,0.2-0.9,0.6l-0.4,0.8c-1.8,3.8-4.4,6.7-7.6,8.8c-3.3,2.2-6.9,3.3-10.8,3.3c-5.8,0-10.7-2.2-14.7-6.5
		c-3.4-3.6-5.4-7.7-6-12.5c-0.1-0.6,0.4-1.2,1-1.2h50.7c0.6,0,1-0.5,1-1v-1.5C285.3,70.6,282.2,62.7,275.9,56.1z M270.9,71.1h-35.5
		c-0.8,0-1.3-0.8-0.9-1.5c1.4-2.9,3.4-5.4,5.9-7.5c3.8-3.1,8-4.7,12.8-4.7c4.8,0,9.1,1.6,12.9,4.7c2.5,2.1,4.4,4.6,5.9,7.5
		C272.2,70.3,271.7,71.1,270.9,71.1z M212.9,86.4c-1.2-2.2-3.1-4.3-5.6-6.2c-0.6-0.5-1.3-0.9-2-1.3c-0.7-0.4-1.5-0.8-2.3-1.2
		c-1.6-0.7-3-1.3-3.9-1.6l-5.2-1.7c-5.5-1.5-9.5-3.3-12-5.4c-2.8-2.2-3.4-4.9-1.8-7.9c0.7-1.3,2-2.4,3.8-3.3c2-0.8,4.2-1.2,6.5-1.2
		c3.1,0,5.8,0.9,8.2,2.6c2,1.6,3,3.6,3,6.1V67c0,0.5,0.4,0.9,0.9,0.9h9.8c0.5,0,0.9-0.4,0.9-0.9v-1.7c0-5.5-2.2-10.2-6.7-13.9
		c-4.2-3.7-9.6-5.5-16.1-5.5c-4.7,0-9,1.1-12.9,3.3c-4,2.2-6.9,5.2-8.4,9c-1.8,4.3-1.8,8.5,0,12.5c2,4.6,6.1,8.4,12.3,11.2l3.7,1.5
		c1.3,0.5,2.8,0.9,4.5,1.5c3.1,0.9,5.3,1.6,6.4,2c4.9,2.2,7.4,4.8,7.4,7.8c0,2.2-1.2,4.2-3.6,5.7c-2.7,1.8-5.8,2.7-9.3,2.7
		c-3.3,0-6.3-0.9-9.1-2.8c-2.5-1.8-3.7-3.9-3.7-6.2v-1.6c0-0.5-0.4-0.9-0.9-0.9H167c-0.5,0-0.9,0.4-0.9,0.9V94c0,2.9,0.7,5.6,2,8.1
		c1.3,2.4,3.2,4.5,5.7,6.3c4.9,3.4,10.4,5.2,16.5,5.2c6.2,0,11.8-1.7,16.6-5.2c2.6-1.9,4.5-4,5.7-6.3c1.3-2.5,2-5.2,2-8.1
		C214.8,91.2,214.1,88.7,212.9,86.4z M159.6,75c0.1-5.3-0.8-13.6-8.9-21.4c-5.3-5.1-12.4-7.7-21.1-7.7c0,0,0,0,0,0
		c-8.7,0-15.8,2.6-21.1,7.7c-7.9,7.7-8.9,16.2-8.9,21.4c0,0.3,0,31.8,0,37.8c0,0.5,0.4,1,1,1H111c0.5,0,1-0.4,1-1c0-6,0-28.6,0-36
		c0-5.7,1.9-11.1,5.1-14.2c0,0,5-5.5,12.5-5.3c5.6,0.1,9.2,2.2,12.6,5.3c2.8,2.6,4.9,8.7,5,14.4c0,5.6,0,35.6,0,35.6
		c0,0.5,0.4,1,1,1l10.6,0.1c0.5,0,1-0.4,1-1L159.6,75z M89.2,62.3c-2.9-5.1-6.9-9.1-12-12C72.1,47.4,66.3,46,59.8,46
		c-6.6,0-12.5,1.4-17.5,4.3c-5.1,2.9-9.1,6.9-12,12c-2.9,5.1-4.4,11-4.4,17.6c0,6.6,1.4,12.4,4.4,17.5c2.9,5.1,6.9,9.1,12,12
		c5.1,2.9,10.9,4.3,17.5,4.3c6.6,0,12.5-1.4,17.5-4.3c5.1-2.9,9-6.9,11.9-12c2.9-5.1,4.3-10.9,4.3-17.5
		C93.5,73.2,92.1,67.4,89.2,62.3z M78.7,91.7c-1.8,3.4-4.4,6.1-7.7,8c-3.3,2-7,2.9-11.3,2.9c-4.3,0-8-1-11.3-2.9
		c-3.3-2-5.8-4.6-7.7-8c-1.9-3.4-2.8-7.4-2.8-11.8c0-4.5,0.9-8.4,2.8-11.9c1.9-3.5,4.5-6.2,7.7-8.1c3.3-2,7-2.9,11.3-2.9
		c4.3,0,8,1,11.3,2.9c3.3,2,5.8,4.7,7.7,8.1c1.8,3.5,2.8,7.4,2.8,11.9C81.5,84.4,80.6,88.3,78.7,91.7z M399.3,113.2h-9.5
		c-0.7,0-1.2-0.6-1.2-1.2c0.9-17.1,4.1-42.2,12.2-59.5c0.1-0.1,0.3-0.1,0.3,0.1v58.9C401,112.4,400.2,113.2,399.3,113.2z
		 M382.2,71.3v40.4c0,0.9-0.8,1.7-1.7,1.7h-8.7c-0.9,0-1.7-0.8-1.7-1.7V71.3c0-3.8-1.4-7-4.1-9.7c-2.6-2.6-5.8-3.9-9.7-3.9
		c-3.8,0-7,1.3-9.7,4c-2.7,2.6-4.1,5.8-4.1,9.6v40.4c0,0.9-0.8,1.7-1.7,1.7h-8.4c-0.9,0-1.7-0.8-1.7-1.7V71.3c0-3.6-1.4-6.9-4.1-9.7
		c-2.8-2.6-6-3.9-9.8-3.9c-3.8,0-7,1.3-9.7,3.9c-2.7,2.8-4.1,6.1-4.1,9.7v40.4c0,0.9-0.8,1.7-1.7,1.7h-8.6c-0.9,0-1.7-0.8-1.7-1.7
		V71.3c0-7,2.5-13,7.5-18c5-5,11-7.5,18.1-7.5c4.5,0,8.8,1.3,12.8,3.8c2.1,1.3,4,2.9,5.7,4.8c0.7,0.7,1.8,0.7,2.4,0
		c0.6-0.7,1.3-1.3,2-2c1.1-1,2.3-2,3.7-2.8c4-2.5,8.2-3.8,12.8-3.8c7.2,0,13.2,2.5,18.2,7.5C379.7,58.4,382.2,64.4,382.2,71.3z
		 M406,113.5V109h-1.5v-1h4.2v1h-1.5v4.4H406z M409.4,113.5V108h1.7l1,3.4l1-3.4h1.7v5.5h-1.1v-4.4l-1.1,3.6h-1l-1.1-3.7v4.4H409.4z
		"/>
</g>
</svg>
