<?xml version="1.0" encoding="UTF-8" standalone="no"?>
<svg
   xmlns:dc="http://purl.org/dc/elements/1.1/"
   xmlns:cc="http://creativecommons.org/ns#"
   xmlns:rdf="http://www.w3.org/1999/02/22-rdf-syntax-ns#"
   xmlns:svg="http://www.w3.org/2000/svg"
   xmlns="http://www.w3.org/2000/svg"
   xmlns:sodipodi="http://sodipodi.sourceforge.net/DTD/sodipodi-0.dtd"
   xmlns:inkscape="http://www.inkscape.org/namespaces/inkscape"
   aria-hidden="true"
   focusable="false"
   data-prefix="fas"
   data-icon="plug"
   class="svg-inline--fa fa-plug fa-w-12"
   role="img"
   viewBox="0 0 500 500"
   version="1.1"
   id="svg4"
   sodipodi:docname="plug.svg"
   width="500"
   height="500"
   inkscape:version="0.92.4 (f8dce91, 2019-08-02)">
  <metadata
     id="metadata10">
    <rdf:RDF>
      <cc:Work
         rdf:about="">
        <dc:format>image/svg+xml</dc:format>
        <dc:type
           rdf:resource="http://purl.org/dc/dcmitype/StillImage" />
        <dc:title></dc:title>
      </cc:Work>
    </rdf:RDF>
  </metadata>
  <defs
     id="defs8" />
  <sodipodi:namedview
     pagecolor="#ffffff"
     bordercolor="#666666"
     borderopacity="1"
     objecttolerance="10"
     gridtolerance="10"
     guidetolerance="10"
     inkscape:pageopacity="0"
     inkscape:pageshadow="2"
     inkscape:window-width="1281"
     inkscape:window-height="856"
     id="namedview6"
     showgrid="false"
     inkscape:zoom="0.4609375"
     inkscape:cx="192"
     inkscape:cy="256"
     inkscape:window-x="49"
     inkscape:window-y="27"
     inkscape:window-maximized="0"
     inkscape:current-layer="svg4" />
  <path
     d="M 311.25,142.8125 V 35.625 C 311.25,18.711387 324.96139,5 341.875,5 358.78861,5 372.5,18.711387 372.5,35.625 V 142.8125 Z M 418.4375,158.125 H 81.5625 c -8.457285,0 -15.3125,6.85521 -15.3125,15.3125 v 30.625 c 0,8.45729 6.855215,15.3125 15.3125,15.3125 H 96.875 V 250 c 0,74.07996 52.60705,135.87068 122.5,150.05867 V 495 h 61.25 V 400.05867 C 350.51795,385.87068 403.125,324.07996 403.125,250 v -30.625 h 15.3125 c 8.45729,0 15.3125,-6.85521 15.3125,-15.3125 v -30.625 c 0,-8.45729 -6.85521,-15.3125 -15.3125,-15.3125 z M 188.75,142.8125 V 35.625 C 188.75,18.711387 175.03861,5 158.125,5 141.21139,5 127.5,18.711387 127.5,35.625 v 107.1875 z"
     id="path2"
     inkscape:connector-curvature="0"
     style="fill:currentColor;stroke-width:0.99999994" />
</svg>
