<?xml version="1.0" encoding="UTF-8" standalone="no"?>
<!-- Generator: Adobe Illustrator 23.0.6, SVG Export Plug-In . SVG Version: 6.00 Build 0)  -->

<svg
   version="1.1"
   id="svg4"
   focusable="false"
   x="0px"
   y="0px"
   viewBox="0 0 500 500"
   style="enable-background:new 0 0 500 500;"
   xml:space="preserve"
   xmlns="http://www.w3.org/2000/svg"
   xmlns:svg="http://www.w3.org/2000/svg"><defs
   id="defs6" />

<path
   d="M495,250c0,135.3-109.7,245-245,245S5,385.3,5,250C5,114.7,114.7,5,250,5S495,114.7,495,250z M256.6,86  c-53.8,0-88.2,22.7-115.1,63c-3.5,5.2-2.3,12.3,2.7,16.1l34.3,26c5.1,3.9,12.5,3,16.5-2.1c17.6-22.4,29.7-35.4,56.6-35.4  c20.2,0,45.1,13,45.1,32.6c0,14.8-12.2,22.4-32.1,33.6c-23.2,13-54,29.2-54,69.8v4c0,6.5,5.3,11.9,11.9,11.9h55.3  c6.5,0,11.9-5.3,11.9-11.9v-1.3c0-28.1,82.2-29.3,82.2-105.4C371.7,129.5,312.3,86,256.6,86z M250,331c-25.1,0-45.4,20.4-45.4,45.4  c0,25.1,20.4,45.4,45.4,45.4s45.4-20.4,45.4-45.4C295.4,351.4,275.1,331,250,331z"
   id="path3" />
</svg>
