<?xml version="1.0" encoding="UTF-8" standalone="no"?>
<!-- Generator: Adobe Illustrator 24.1.2, SVG Export Plug-In . SVG Version: 6.00 Build 0)  -->

<svg
   version="1.1"
   id="Layer_1"
   focusable="false"
   x="0px"
   y="0px"
   viewBox="0 0 500 500"
   style="enable-background:new 0 0 500 500;"
   xml:space="preserve"
   xmlns="http://www.w3.org/2000/svg"
   xmlns:svg="http://www.w3.org/2000/svg"><defs
   id="defs7" />
<path
   d="M483.3,5.2h-46.1c-6.4,0-11.7,5.2-11.7,11.6c0,0.2,0,0.4,0,0.6l3.9,80.4C383.8,43.9,316.6,12.9,246,12.9  C113.2,12.9,4.9,121.3,5,254.1c0.1,133,107.9,240.8,241,240.8c59.7,0.1,117.2-22.1,161.5-62.1c4.8-4.3,5.2-11.7,0.9-16.5  c-0.1-0.2-0.3-0.3-0.4-0.5l-33-33c-4.3-4.3-11.3-4.6-15.9-0.5c-70.9,62.4-179,55.5-241.3-15.4s-55.5-179,15.4-241.3  S312,70,374.4,140.9c4.9,5.6,9.4,11.4,13.5,17.6l-98.6-4.7c-6.4-0.3-11.9,4.7-12.2,11.1c0,0.2,0,0.4,0,0.6v46.1  c0,6.4,5.2,11.7,11.7,11.7h194.6c6.4,0,11.7-5.2,11.7-11.7V16.8C495,10.4,489.8,5.2,483.3,5.2L483.3,5.2z"
   id="path2" />
</svg>
