<?xml version="1.0" encoding="UTF-8" standalone="no"?>
<svg
   xmlns:dc="http://purl.org/dc/elements/1.1/"
   xmlns:cc="http://creativecommons.org/ns#"
   xmlns:rdf="http://www.w3.org/1999/02/22-rdf-syntax-ns#"
   xmlns:svg="http://www.w3.org/2000/svg"
   xmlns="http://www.w3.org/2000/svg"
   aria-hidden="true"
   focusable="false"
   data-prefix="fas"
   data-icon="signal"
   class="svg-inline--fa fa-signal fa-w-20"
   role="img"
   viewBox="0 0 500 500"
   version="1.1"
   id="svg835"
   width="500"
   height="500">
  <metadata
     id="metadata841">
    <rdf:RDF>
      <cc:Work
         rdf:about="">
        <dc:format>image/svg+xml</dc:format>
        <dc:type
           rdf:resource="http://purl.org/dc/dcmitype/StillImage" />
        <dc:title></dc:title>
      </cc:Work>
    </rdf:RDF>
  </metadata>
  <defs
     id="defs839" />
  <path
     id="path838"
     d="m 16.667638,494.42387 c -1.22211,-0.24524 -3.604437,-1.23213 -5.294058,-2.19306 -6.6711677,-3.79411 -6.3715445,0.0838 -6.3715445,-82.46333 v -75.60221 l 2.5219158,-3.0257 C 12.340238,325.36117 14.544746,325 44.998377,325 c 30.453633,0 32.658139,0.36117 37.474428,6.13957 l 2.521913,3.0257 -0.0016,75.33537 c -0.0016,85.35594 0.590326,79.75911 -8.844011,83.57218 -4.74741,1.91877 -6.063922,1.99919 -31.108263,1.90027 -14.383032,-0.0568 -27.150919,-0.30397 -28.373029,-0.54922 z"
     style="fill:#000000;stroke-width:0.994645" />
  <path
     id="path840"
     d="m 424.30002,493.31343 c -2.77653,-1.13682 -5.41549,-3.1752 -6.89608,-5.32667 l -2.39841,-3.48516 V 250.0805 c 0,-254.4714945 -0.41782,-237.623864 6.01332,-242.4732183 l 2.98761,-2.2527842 29.66136,-0.2664651 c 32.86413,-0.2952379 33.88359,-0.1523175 38.76261,5.4342726 L 495,13.464522 V 249.71549 485.9665 l -2.27491,2.48846 c -5.66497,6.19673 -5.5675,6.17934 -36.14548,6.45215 -26.11397,0.23298 -28.05196,0.13731 -32.27959,-1.59368 z"
     style="fill:#000000;stroke-width:0.997124" />
  <path
     style="fill:#000000;stroke-width:0.866468"
     d="m 287.30002,493.72646 c -2.77653,-0.85841 -5.41549,-2.3976 -6.89608,-4.02218 l -2.39841,-2.63165 V 310.06078 c 0,-192.15197 -0.41782,-179.43029 6.01332,-183.09205 l 2.98761,-1.70108 29.66136,-0.20121 c 32.86413,-0.22293 33.88359,-0.11502 38.76261,4.10343 L 358,131.39154 v 178.39362 178.39361 l -2.27491,1.87905 c -5.66497,4.67916 -5.5675,4.66603 -36.14548,4.87204 -26.11397,0.17592 -28.05196,0.1037 -32.27959,-1.2034 z"
     id="path840-3" />
  <path
     id="path840-3-8"
     d="m 150.30002,494.1395 c -2.77653,-0.58001 -5.41549,-1.62 -6.89608,-2.71769 l -2.39841,-1.77814 v -119.6026 c 0,-129.83241 -0.41782,-121.23668 6.01332,-123.71085 l 2.98761,-1.14938 29.66136,-0.13595 c 32.86413,-0.15063 33.88359,-0.0777 38.76261,2.77259 L 221,249.31861 v 120.53622 120.53623 l -2.27491,1.26963 c -5.66497,3.16159 -5.5675,3.15272 -36.14548,3.29192 -26.11397,0.11886 -28.05196,0.0701 -32.27959,-0.81311 z"
     style="fill:#000000;stroke-width:0.712233" />
</svg>
