<?xml version="1.0" encoding="UTF-8" standalone="no"?>
<!-- Generator: Adobe Illustrator 24.1.2, SVG Export Plug-In . SVG Version: 6.00 Build 0)  -->

<svg
   version="1.1"
   id="Layer_1"
   x="0px"
   y="0px"
   viewBox="0 0 500 500"
   style="enable-background:new 0 0 500 500;"
   xml:space="preserve"
   xmlns="http://www.w3.org/2000/svg"
   xmlns:svg="http://www.w3.org/2000/svg"><defs
   id="defs7" />
<path
   d="M127.5,479.7V158.1h15.3c8.4,0,15.3-6.9,15.3-15.3v-30.6c0-8.4-6.9-15.3-15.3-15.3h-15.3V20.3c0-8.4-6.9-15.3-15.3-15.3  H81.6c-8.4,0-15.3,6.9-15.3,15.3v76.6H50.9c-8.4,0-15.3,6.9-15.3,15.3v30.6c0,8.4,6.9,15.3,15.3,15.3h15.3v321.6  c0,8.4,6.9,15.3,15.3,15.3h30.6C120.6,495,127.5,488.1,127.5,479.7z M280.6,479.7v-76.6h15.3c8.4,0,15.3-6.9,15.3-15.3v-30.6  c0-8.4-6.9-15.3-15.3-15.3h-15.3V20.3c0-8.4-6.9-15.3-15.3-15.3h-30.6c-8.4,0-15.3,6.9-15.3,15.3v321.6h-15.3  c-8.4,0-15.3,6.9-15.3,15.3v30.6c0,8.4,6.9,15.3,15.3,15.3h15.3v76.6c0,8.4,6.9,15.3,15.3,15.3h30.6  C273.7,495,280.6,488.1,280.6,479.7z M433.8,479.7V280.6h15.3c8.4,0,15.3-6.9,15.3-15.3v-30.6c0-8.4-6.9-15.3-15.3-15.3h-15.3V20.3  c0-8.4-6.9-15.3-15.3-15.3h-30.6c-8.4,0-15.3,6.9-15.3,15.3v199.1h-15.3c-8.4,0-15.3,6.9-15.3,15.3v30.6c0,8.4,6.9,15.3,15.3,15.3  h15.3v199.1c0,8.4,6.9,15.3,15.3,15.3h30.6C426.9,495,433.8,488.1,433.8,479.7z"
   id="path2" />
</svg>
