<?xml version="1.0" encoding="UTF-8" standalone="no"?>
<!-- Generator: Adobe Illustrator 24.1.2, SVG Export Plug-In . SVG Version: 6.00 Build 0)  -->

<svg
   version="1.1"
   id="Layer_1"
   x="0px"
   y="0px"
   viewBox="0 0 500 500"
   style="enable-background:new 0 0 500 500;"
   xml:space="preserve"
   xmlns="http://www.w3.org/2000/svg"
   xmlns:svg="http://www.w3.org/2000/svg"><defs
   id="defs7" />
<path
   d="M479.7,372.5H158.1v-15.3c0-8.4-6.9-15.3-15.3-15.3h-30.6c-8.4,0-15.3,6.9-15.3,15.3v15.3H20.3c-8.4,0-15.3,6.9-15.3,15.3  v30.6c0,8.4,6.9,15.3,15.3,15.3h76.6v15.3c0,8.4,6.9,15.3,15.3,15.3h30.6c8.4,0,15.3-6.9,15.3-15.3v-15.3h321.6  c8.4,0,15.3-6.9,15.3-15.3v-30.6C495,379.4,488.1,372.5,479.7,372.5z M479.7,219.4h-76.6v-15.3c0-8.4-6.9-15.3-15.3-15.3h-30.6  c-8.4,0-15.3,6.9-15.3,15.3v15.3H20.3c-8.4,0-15.3,6.9-15.3,15.3v30.6c0,8.4,6.9,15.3,15.3,15.3h321.6v15.3  c0,8.4,6.9,15.3,15.3,15.3h30.6c8.4,0,15.3-6.9,15.3-15.3v-15.3h76.6c8.4,0,15.3-6.9,15.3-15.3v-30.6  C495,226.3,488.1,219.4,479.7,219.4z M479.7,66.2H280.6V50.9c0-8.4-6.9-15.3-15.3-15.3h-30.6c-8.4,0-15.3,6.9-15.3,15.3v15.3H20.3  C11.9,66.2,5,73.1,5,81.6v30.6c0,8.4,6.9,15.3,15.3,15.3h199.1v15.3c0,8.4,6.9,15.3,15.3,15.3h30.6c8.4,0,15.3-6.9,15.3-15.3v-15.3  h199.1c8.4,0,15.3-6.9,15.3-15.3V81.6C495,73.1,488.1,66.2,479.7,66.2z"
   id="path2" />
</svg>
