<?xml version="1.0" encoding="UTF-8" standalone="no"?>
<!-- Generator: Adobe Illustrator 23.0.2, SVG Export Plug-In . SVG Version: 6.00 Build 0)  -->

<svg
   version="1.1"
   id="Layer_1"
   x="0px"
   y="0px"
   viewBox="0 0 512 512"
   style="enable-background:new 0 0 512 512;"
   xml:space="preserve"
   xmlns="http://www.w3.org/2000/svg"
   xmlns:svg="http://www.w3.org/2000/svg"><defs
   id="defs52" />
<style
   type="text/css"
   id="style2">
	.st0{fill:url(#SVGID_1_);}
	.st1{fill:url(#SVGID_2_);}
	.st2{fill:url(#SVGID_3_);}
	.st3{fill:#333333;}
	.st4{fill:url(#SVGID_4_);enable-background:new    ;}
	.st5{fill:url(#SVGID_5_);}
</style>
<g
   id="g18">
	
		<linearGradient
   id="SVGID_1_"
   gradientUnits="userSpaceOnUse"
   x1="90.7703"
   y1="588.7703"
   x2="398.8258"
   y2="896.8258"
   gradientTransform="matrix(1 0 0 1 0 -498)">
		<stop
   offset="0"
   style="stop-color:#444444"
   id="stop4" />
		<stop
   offset="1"
   style="stop-color:#DDDDDD"
   id="stop6" />
	</linearGradient>
	<circle
   class="st0"
   cx="256"
   cy="256"
   r="256"
   id="circle9" />
	
		<linearGradient
   id="SVGID_2_"
   gradientUnits="userSpaceOnUse"
   x1="512"
   y1="754"
   x2="9.094947e-13"
   y2="754"
   gradientTransform="matrix(1 0 0 1 0 -498)">
		<stop
   offset="0"
   style="stop-color:#666666"
   id="stop11" />
		<stop
   offset="1"
   style="stop-color:#DDDDDD"
   id="stop13" />
	</linearGradient>
	<path
   class="st1"
   d="M256,6.8c66.6,0,129,25.9,176.3,73s72.9,109.6,72.9,176.1s-25.9,129-73,176.3S322.6,505.2,256,505.2   s-129-25.9-176.3-73S6.8,322.6,6.8,256S32.8,127,79.7,79.7S189.4,6.8,256,6.8 M256,0C114.7,0,0,114.7,0,256s114.7,256,256,256   s256-114.7,256-256S397.3,0,256,0L256,0z"
   id="path16" />
</g>
<g
   id="g29">
	
		<linearGradient
   id="SVGID_3_"
   gradientUnits="userSpaceOnUse"
   x1="193.7461"
   y1="588.695"
   x2="318.1019"
   y2="918.9014"
   gradientTransform="matrix(1 0 0 1 0 -498)">
		<stop
   offset="0"
   style="stop-color:#777777"
   id="stop20" />
		<stop
   offset="1"
   style="stop-color:#3D3D3D"
   id="stop22" />
	</linearGradient>
	<circle
   class="st2"
   cx="256"
   cy="256"
   r="178.9"
   id="circle25" />
	<path
   class="st3"
   d="M256,78.8c97.6,0,177.2,79.5,177.2,177.2S353.6,433.2,256,433.2S78.8,353.6,78.8,256S158.4,78.8,256,78.8    M256,75.4c-99.7,0-180.4,80.9-180.4,180.6S156.3,436.6,256,436.6S436.6,355.7,436.6,256S355.7,75.4,256,75.4L256,75.4z"
   id="path27" />
</g>
<radialGradient
   id="SVGID_4_"
   cx="256"
   cy="754"
   r="150.8693"
   gradientTransform="matrix(1 0 0 1 0 -498)"
   gradientUnits="userSpaceOnUse">
	<stop
   offset="0"
   style="stop-color:#282828"
   id="stop31" />
	<stop
   offset="0.6475"
   style="stop-color:#5E5E5E"
   id="stop33" />
	<stop
   offset="1"
   style="stop-color:#777777"
   id="stop35" />
</radialGradient>
<circle
   class="st4"
   cx="256"
   cy="256"
   r="150.9"
   id="circle38" />
<g
   id="g47">
	
		<linearGradient
   id="SVGID_5_"
   gradientUnits="userSpaceOnUse"
   x1="254.6347"
   y1="776.2568"
   x2="254.6347"
   y2="610.0452"
   gradientTransform="matrix(1 0 0 1 0 -498)">
		<stop
   offset="0.2337"
   style="stop-color:#FFFFFF;stop-opacity:0"
   id="stop40" />
		<stop
   offset="1"
   style="stop-color:#FFFFFF"
   id="stop42" />
	</linearGradient>
	<ellipse
   class="st5"
   cx="254.6"
   cy="189.1"
   rx="117.1"
   ry="97.6"
   id="ellipse45" />
</g>
</svg>
