<?xml version="1.0" encoding="utf-8"?>
<!-- Generator: Adobe Illustrator 24.1.2, SVG Export Plug-In . SVG Version: 6.00 Build 0)  -->
<svg version="1.1" id="Layer_1" xmlns:svg="http://www.w3.org/2000/svg"
	 xmlns="http://www.w3.org/2000/svg" xmlns:xlink="http://www.w3.org/1999/xlink" x="0px" y="0px" viewBox="0 0 507.3 267.5"
	 style="enable-background:new 0 0 507.3 267.5;" xml:space="preserve">
<style type="text/css">
	.st0{fill:none;}
	.st1{fill:#545960;}
	.st2{fill:url(#path15_2_);}
</style>
<path id="path4" class="st0" d="M125.2,243.8c-18.2,0-36.7-11.1-36.7-32.4V207h14.4v4.4c0,14.2,14,18,22.2,18
	c5.9,0,11.7-1.8,15.9-4.8c4.2-3.2,6.4-7.7,6.4-13.2c0-16.7-8.7-19.6-25.4-23.6l-0.3-0.1c-14-3.5-33.2-8.4-33.2-32.9
	c0-21.6,18.8-32.9,37.4-32.9c9.3,0,17.8,2.7,24.1,7.5c7.6,5.8,11.7,14.1,11.7,24v4.4h-14.4v-4.4c0-5.1-2.1-9.5-6.1-12.5
	c-3.9-3-9.3-4.6-15.3-4.6c-11.4,0-23,6.4-23,18.5c0,12.7,6.9,15,22.4,18.8l0.4,0.1c15.2,3.9,36.1,9.1,36.1,37.7
	c0,10.1-4.2,18.7-12.1,24.7C143.2,241.1,134.7,243.8,125.2,243.8z M190.9,179.6h12.3v-13.7h-12.3v-18.2H177v18.2h-11.7v13.7H177
	v64.3h13.9V179.6z M223.2,193.3c0-6.7,5.7-11.2,14.1-11.2c4.6,0,8.5,1.3,11.3,3.9l3.1,2.7l9.9-9.4l-3.4-3.2
	c-5.1-4.9-12.6-7.6-20.9-7.6c-5.1,0-9.9,1.1-14.1,3.2v-0.9h-13.7v72.6h13.7L223.2,193.3L223.2,193.3z M322.2,234.8v6.7h13.9v-72.4
	h-13.9v6.6c-6.8-5.8-15.6-9.1-24.7-9.1c-21.4,0-38.8,17.3-38.8,38.6s17.4,38.6,38.8,38.6C306.6,243.8,315.4,240.5,322.2,234.8z
	 M322.2,205.2c0,13.7-11.1,24.9-24.7,24.9c-13.7,0-24.9-11.2-24.9-24.9s11.2-24.9,24.9-24.9C311.1,180.2,322.2,191.4,322.2,205.2z
	 M368.8,180.6h12.3v-13.7h-12.3v-18.2h-13.9v18.2h-11.7v13.7h11.7v62.8h13.9V180.6z M442.2,234.8v6.7h13.9v-72.4h-13.9v6.6
	c-6.8-5.8-15.6-9.1-24.7-9.1c-21.4,0-38.8,17.3-38.8,38.6s17.4,38.6,38.8,38.6C426.6,243.8,435.3,240.5,442.2,234.8z M442.2,205.2
	c0,13.7-11.1,24.9-24.7,24.9c-13.7,0-24.9-11.2-24.9-24.9s11.2-24.9,24.9-24.9C431.1,180.2,442.2,191.4,442.2,205.2z"/>
<g id="g103">
	<polygon id="polygon17" class="st1" points="343.2,171.5 343.2,180.6 354.9,180.6 354.9,184.3 368.8,184.3 368.8,180.6 
		381.1,180.6 381.1,171.5 	"/>
	<rect id="rect19" x="177" y="147.7" class="st1" width="13.9" height="8"/>
	<path id="path21" class="st1" d="M384.1,185.3c-2.3,3.9-4,8.2-4.9,12.8h14.2c1.5-5.2,4.7-9.6,8.8-12.8H384.1z"/>
	<polygon id="polygon23" class="st1" points="203.2,165.9 190.9,165.9 190.9,156.7 177,156.7 177,165.9 165.3,165.9 165.3,170.5 
		203.2,170.5 	"/>
	<rect id="rect25" x="322.1" y="169" class="st1" width="13.9" height="1.5"/>
	<path id="path27" class="st1" d="M442.1,205.1c0,2.4-0.3,4.6-0.9,6.8H456v-12.8h-14.6C441.9,201,442.1,203,442.1,205.1z"/>
	<path id="path29" class="st1" d="M322.1,175.6c-1.8-1.6-3.8-2.9-5.9-4.1h-37.8c-5.5,3.1-10.2,7.5-13.6,12.8h19
		c3.9-2.6,8.6-4.1,13.6-4.1s9.7,1.5,13.6,4.1h25.1v-12.8h-13.9v4.1H322.1z"/>
	<path id="path31" class="st1" d="M249.3,170.5c-3.7-1.4-7.8-2.2-12.1-2.2c-4.1,0-8.1,0.8-11.7,2.2H249.3z"/>
	<path id="path33" class="st1" d="M379,199.1c-0.3,2-0.5,4-0.5,6c0,2.3,0.2,4.6,0.6,6.8h14.2c-0.6-2.2-0.9-4.4-0.9-6.8
		c0-2.1,0.3-4.1,0.7-6H379z"/>
	<rect id="rect35" x="354.9" y="185.3" class="st1" width="13.9" height="12.8"/>
	<polygon id="polygon37" class="st1" points="190.9,184.3 190.9,179.6 203.2,179.6 203.2,171.5 165.3,171.5 165.3,179.6 177,179.6 
		177,184.3 	"/>
	<path id="path39" class="st1" d="M456,237.5v-10.8h-26.3c-3.6,2.1-7.8,3.3-12.3,3.3s-8.7-1.2-12.4-3.3h-19.8
		c2.9,4.3,6.7,8,11.1,10.8h42c1.3-0.8,2.6-1.8,3.8-2.8v2.8H456z"/>
	<rect id="rect41" x="354.9" y="148.7" class="st1" width="13.9" height="7"/>
	<rect id="rect43" x="147.2" y="156.7" class="st1" width="14.4" height="1.1"/>
	<path id="path45" class="st1" d="M150.8,130c-0.3-0.2-0.6-0.5-0.9-0.7c-6.3-4.8-14.8-7.5-24.1-7.5c-9.2,0-18.5,2.8-25.5,8.2H150.8z
		"/>
	<path id="path47" class="st1" d="M90.7,142.9h17.2c4.4-4.4,11.3-6.6,18-6.6c6,0,11.4,1.6,15.3,4.6c0.8,0.6,1.5,1.3,2.1,2h16.6
		c-1.6-4.5-4.3-8.5-7.9-11.8H99.2C95.5,134.2,92.5,138.1,90.7,142.9z"/>
	<rect id="rect49" x="354.9" y="212.9" class="st1" width="13.9" height="12.8"/>
	<path id="path51" class="st1" d="M102.9,154.7c0-4.4,1.5-8,4-10.9H90.3c-1.2,3.3-1.8,6.9-1.8,10.9c0,0.3,0,0.6,0,0.9h14.4
		C102.9,155.4,102.9,155.1,102.9,154.7z"/>
	<path id="path53" class="st1" d="M223.2,193.2c0-3.3,1.3-6,3.7-8h-17.4V198h13.7V193.2L223.2,193.2z"/>
	<path id="path55" class="st1" d="M103,156.7H88.6c0.2,5.6,1.5,10.1,3.6,13.8h22.2C107.1,167.9,103.5,164.5,103,156.7z"/>
	<path id="path57" class="st1" d="M237.2,182c3.5,0,6.6,0.8,9.1,2.3h9.8l5.4-5.1l-3.4-3.2c-1.9-1.8-4.1-3.3-6.5-4.5h-28.4
		c0,0,0,0-0.1,0l0,0h-13.7v12.8h18.8C230.6,182.8,233.7,182,237.2,182z"/>
	<path id="path59" class="st1" d="M280.3,170.5h34c-5.2-2.6-11-4-16.9-4C291.3,166.5,285.4,167.9,280.3,170.5z"/>
	<path id="path61" class="st1" d="M273.4,211.9c-0.6-2.2-0.9-4.4-0.9-6.8c0-2.1,0.3-4.1,0.7-6H259c-0.3,2-0.5,4-0.5,6
		c0,2.3,0.2,4.6,0.6,6.8H273.4z"/>
	<rect id="rect63" x="209.5" y="199.1" class="st1" width="13.7" height="44.2"/>
	<rect id="rect65" x="177" y="185.3" class="st1" width="13.9" height="58.6"/>
	<path id="path67" class="st1" d="M125.7,173.7l-0.4-0.1c-2.9-0.7-5.6-1.4-7.9-2.1H92.7c6.4,10.5,19,13.7,29,16.2l0.3,0.1
		c16.7,4,25.4,6.9,25.4,23.6c0,5.5-2.2,9.9-6.4,13.2c-4.1,3.1-9.9,4.8-15.9,4.8c-8.3,0-22.2-3.8-22.2-18V207H88.5v4.4
		c0,21.3,18.4,32.4,36.7,32.4c9.5,0,18-2.7,24.6-7.7c7.9-6,12.1-14.6,12.1-24.7C161.8,182.8,140.9,177.5,125.7,173.7z"/>
	<path id="path69" class="st1" d="M147.2,153.3v2.3h14.4v-2.3c0-3.4-0.5-6.5-1.4-9.5h-16.1C146.1,146.5,147.2,149.7,147.2,153.3z"/>
	<polygon id="polygon71" class="st1" points="354.9,156.7 354.9,166.9 343.2,166.9 343.2,170.5 381.1,170.5 381.1,166.9 
		368.8,166.9 368.8,156.7 	"/>
	<rect id="rect73" x="442.1" y="238.5" class="st1" width="13.9" height="2.9"/>
	<path id="path75" class="st1" d="M397.9,238.5c5.7,3.3,12.4,5.2,19.4,5.2c6.9,0,13.6-1.9,19.3-5.2H397.9z"/>
	<path id="path77" class="st1" d="M251.6,188.6l3.5-3.3h-7.3c0.2,0.2,0.5,0.4,0.7,0.6L251.6,188.6z"/>
	<rect id="rect79" x="354.9" y="226.7" class="st1" width="13.9" height="16.7"/>
	<path id="path81" class="st1" d="M320.9,212.9c-3.3,9.9-12.6,17.1-23.5,17.1c-11,0-20.4-7.2-23.7-17.1h-14.3
		c3.6,17.6,19.3,30.8,38,30.8c9.2,0,17.9-3.3,24.7-9v6.7H336v-28.5H320.9L320.9,212.9z"/>
	<path id="path83" class="st1" d="M400.2,170.5h34c-5.2-2.6-11-4-16.9-4C411.2,166.5,405.4,167.9,400.2,170.5z"/>
	<path id="path85" class="st1" d="M321.2,211.9H336v-12.8h-14.6c0.5,1.9,0.7,3.9,0.7,6C322.1,207.5,321.8,209.7,321.2,211.9z"/>
	<rect id="rect87" x="354.9" y="199.1" class="st1" width="13.9" height="12.8"/>
	<path id="path89" class="st1" d="M336,185.3h-23.7c4.1,3.2,7.3,7.7,8.8,12.8H336V185.3L336,185.3z"/>
	<path id="path91" class="st1" d="M282.3,185.3h-18.2c-2.3,3.9-4,8.2-4.9,12.8h14.2C275,192.9,278.2,188.5,282.3,185.3z"/>
	<path id="path93" class="st1" d="M393.7,212.9h-14.3c1,4.6,2.8,8.9,5.2,12.8h18.8C398.9,222.7,395.5,218.2,393.7,212.9z"/>
	<path id="path95" class="st1" d="M440.9,212.9c-1.7,5.3-5.1,9.7-9.6,12.8H456v-12.8H440.9z"/>
	<rect id="rect97" x="442.1" y="169" class="st1" width="13.9" height="1.5"/>
	<path id="path99" class="st1" d="M442.1,171.5v4.1c-1.9-1.6-3.8-2.9-5.9-4.1h-37.8c-5.5,3.1-10.2,7.5-13.6,12.8h19
		c3.9-2.6,8.6-4.1,13.6-4.1s9.7,1.5,13.6,4.1h25.1v-12.8H442.1z"/>
	<path id="path101" class="st1" d="M441.1,198.1H456v-12.8h-23.7C436.5,188.5,439.6,192.9,441.1,198.1z"/>
</g>
<linearGradient id="path15_2_" gradientUnits="userSpaceOnUse" x1="1.6" y1="-1560.5437" x2="505.4226" y2="-1560.5437" gradientTransform="matrix(1 0 0 -1 0 -1427.3)">
	<stop  offset="0" style="stop-color:#FF9544"/>
	<stop  offset="1" style="stop-color:#DA7F3A"/>
</linearGradient>
<path id="path15_1_" class="st2" d="M1.6,175.6c0.3-59.5,43.5-106.3,105.3-99.5C115.4,0.2,251.6-40,298.8,64
	c67.4-32.9,125.9,3.9,132.4,69.6c64.9-16,88.4,41.2,65.9,72.4c11.5-29.9-13.8-75.3-73-59.7c-5.6-56.6-78.5-94.5-132.3-49
	C251.2,7.9,142.3,34.2,135,99.5c-53.2-5.9-85,35.2-85.3,86.5c0.9,41.8,26.3,70.2,65.5,76.3C51.3,276.7,2.9,237.6,1.6,175.6
	L1.6,175.6z"/>
</svg>
