<?xml version="1.0" encoding="utf-8"?>
<!-- Generator: Adobe Illustrator 24.1.2, SVG Export Plug-In . SVG Version: 6.00 Build 0)  -->
<svg version="1.1" id="Layer_1" focusable="false" xmlns="http://www.w3.org/2000/svg" xmlns:xlink="http://www.w3.org/1999/xlink"
	 x="0px" y="0px" viewBox="0 0 500 500" style="enable-background:new 0 0 500 500;" xml:space="preserve">
<path d="M250,186.7c35,0,63.3,28.3,63.3,63.3S285,313.3,250,313.3S186.7,285,186.7,250S215,186.7,250,186.7z M186.7,68.3
	c0,35,28.3,63.3,63.3,63.3s63.3-28.3,63.3-63.3S285,5,250,5S186.7,33.3,186.7,68.3z M186.7,431.7c0,35,28.3,63.3,63.3,63.3
	s63.3-28.3,63.3-63.3S285,368.3,250,368.3S186.7,396.6,186.7,431.7z"/>
</svg>
