<?xml version="1.0" encoding="UTF-8" standalone="no"?>
<svg
   aria-hidden="true"
   focusable="false"
   data-prefix="fas"
   data-icon="times"
   class="svg-inline--fa fa-times fa-w-11"
   role="img"
   viewBox="0 0 500 500"
   version="1.1"
   id="svg4"
   width="500"
   height="500"
   xmlns="http://www.w3.org/2000/svg"
   xmlns:svg="http://www.w3.org/2000/svg"
   xmlns:rdf="http://www.w3.org/1999/02/22-rdf-syntax-ns#"
   xmlns:cc="http://creativecommons.org/ns#"
   xmlns:dc="http://purl.org/dc/elements/1.1/">
  <metadata
     id="metadata10">
    <rdf:RDF>
      <cc:Work
         rdf:about="">
        <dc:format>image/svg+xml</dc:format>
        <dc:type
           rdf:resource="http://purl.org/dc/dcmitype/StillImage" />
        <dc:title />
      </cc:Work>
    </rdf:RDF>
  </metadata>
  <defs
     id="defs8" />
  <path
     d="M 342.87728,250 482.17926,110.69801 c 17.09432,-17.09432 17.09432,-44.809941 0,-61.91818 L 451.22017,17.820739 c -17.09431,-17.09431825 -44.80994,-17.09431825 -61.91818,0 L 250,157.12273 110.69801,17.820739 c -17.094316,-17.09431825 -44.809941,-17.09431825 -61.91818,0 L 17.820739,48.77983 c -17.09431874,17.094318 -17.09431874,44.80994 0,61.91818 L 157.12273,250 17.820739,389.30199 c -17.09431874,17.09432 -17.09431874,44.80995 0,61.91818 l 30.959091,30.95909 c 17.094318,17.09432 44.823864,17.09432 61.91818,0 L 250,342.87728 389.30199,482.17926 c 17.09432,17.09432 44.82387,17.09432 61.91818,0 l 30.95909,-30.95909 c 17.09432,-17.09431 17.09432,-44.80994 0,-61.91818 z"
     id="path2"
     style="fill:currentColor;stroke-width:1.42613637" />
</svg>
