<?xml version="1.0" encoding="utf-8"?>
<!-- Generator: Adobe Illustrator 26.0.1, SVG Export Plug-In . SVG Version: 6.00 Build 0)  -->
<svg version="1.1"
	 id="svg4" focusable="false" xmlns:cc="http://creativecommons.org/ns#" xmlns:dc="http://purl.org/dc/elements/1.1/" xmlns:rdf="http://www.w3.org/1999/02/22-rdf-syntax-ns#" xmlns:svg="http://www.w3.org/2000/svg"
	 xmlns="http://www.w3.org/2000/svg" xmlns:xlink="http://www.w3.org/1999/xlink" x="0px" y="0px" viewBox="0 0 500 500"
	 style="enable-background:new 0 0 500 500;" xml:space="preserve">
<path d="M488.9,418.2L320.7,250L488.9,81.8c8.5-8.5,8.5-22.3,0-30.8L449,11.1c-8.5-8.5-22.3-8.5-30.8,0L250,179.3L81.8,11.1
	c-8.5-8.5-22.3-8.5-30.8,0L11.1,51c-8.5,8.5-8.5,22.3,0,30.8L179.3,250L11.1,418.2c-8.5,8.5-8.5,22.3,0,30.8L51,488.9
	c8.5,8.5,22.3,8.5,30.8,0L250,320.7l168.2,168.2c8.5,8.5,22.3,8.5,30.8,0l39.9-39.9C497.4,440.5,497.4,426.7,488.9,418.2z"/>
</svg>
