<?xml version="1.0" encoding="UTF-8" standalone="no"?>
<!-- Created with Inkscape (http://www.inkscape.org/) -->

<svg
   width="500"
   height="500"
   viewBox="0 0 132.29166 132.29167"
   version="1.1"
   id="svg823"
   xmlns="http://www.w3.org/2000/svg"
   xmlns:svg="http://www.w3.org/2000/svg"
   xmlns:rdf="http://www.w3.org/1999/02/22-rdf-syntax-ns#"
   xmlns:cc="http://creativecommons.org/ns#"
   xmlns:dc="http://purl.org/dc/elements/1.1/">
  <defs
     id="defs817" />
  <metadata
     id="metadata820">
    <rdf:RDF>
      <cc:Work
         rdf:about="">
        <dc:format>image/svg+xml</dc:format>
        <dc:type
           rdf:resource="http://purl.org/dc/dcmitype/StillImage" />
        <dc:title />
      </cc:Work>
    </rdf:RDF>
  </metadata>
  <g
     id="layer1"
     transform="translate(0,-164.70832)">
    <path
       style="fill:#000000;fill-opacity:1;stroke:none;stroke-width:1.54800987;stroke-linecap:round;stroke-linejoin:round;stroke-miterlimit:4;stroke-dasharray:none;stroke-opacity:1;paint-order:normal"
       d="M 66.145832,166.03124 A 64.82292,64.82292 0 0 0 1.3229154,230.85415 64.82292,64.82292 0 0 0 66.145832,295.67707 64.82292,64.82292 0 0 0 130.96875,230.85415 64.82292,64.82292 0 0 0 66.145832,166.03124 Z m -26.337883,26.92241 c 1.733247,0 3.466403,0.66114 4.788613,1.98335 l 21.54927,21.54927 21.549271,-21.54927 c 2.646576,-2.64442 6.934335,-2.64442 9.578758,0 l 4.789129,4.78913 c 2.64441,2.64655 2.64441,6.93435 0,9.57876 l -21.549275,21.54926 21.549275,21.54927 c 2.64441,2.64658 2.64441,6.93433 0,9.57876 l -4.789129,4.78913 c -2.644423,2.64441 -6.934336,2.64441 -9.578758,0 l -21.549271,-21.54928 -21.54927,21.54928 c -2.644422,2.64441 -6.934338,2.64441 -9.578757,0 l -4.789125,-4.78913 c -2.644422,-2.64659 -2.644422,-6.93434 0,-9.57876 L 51.77795,230.85415 30.22868,209.30489 c -2.644422,-2.64658 -2.644422,-6.93434 0,-9.57876 l 4.789125,-4.78913 c 1.323286,-1.32221 3.056897,-1.98335 4.790144,-1.98335 z"
       id="path1372" />
    <path
       style="fill:#ffffff;fill-opacity:0;stroke:none;stroke-width:1.60642576;stroke-linecap:round;stroke-linejoin:round;stroke-miterlimit:4;stroke-dasharray:none;stroke-opacity:1;paint-order:normal"
       d="M 238.53292,503.22701 C 203.52328,500.2597 174.00364,492.07351 144.35621,477.11054 121.13209,465.38941 101.38777,451.23399 82.762656,432.9519 61.915287,412.48849 46.686346,391.51021 33.928888,365.68203 20.104009,337.69279 12.390898,310.38277 9.1455566,277.93102 8.1587538,268.0635 8.1624093,244.13469 9.1522766,233.95512 11.641629,208.35513 17.582321,184.16495 26.95457,161.46516 c 3.32177,-8.0454 10.802965,-23.15781 15.010147,-30.32129 19.312604,-32.88315 45.553102,-60.65868 77.090293,-81.599961 32.08017,-21.301831 68.9156,-34.909324 106.8273,-39.46342 11.29498,-1.3567952 17.8486,-1.7398784 29.91968,-1.7489158 12.14656,-0.00909 19.69615,0.4246636 30.52209,1.7536298 98.67716,12.113369 180.93149,82.606272 208.03406,178.287587 4.27108,15.07846 6.76554,28.52152 8.4953,45.78313 0.98948,9.87432 0.99169,33.86237 0.004,43.7751 -3.24025,32.52036 -11.11996,60.24844 -25.16519,88.55422 -17.41192,35.09078 -42.49329,64.9547 -74.70152,88.94574 -21.57637,16.07165 -48.46937,29.60659 -74.54153,37.5159 -15.81127,4.79655 -30.24472,7.69796 -48.35004,9.7192 -6.69145,0.74703 -34.88222,1.12747 -41.56626,0.56093 z M 160.337,400.6089 c 1.70253,-0.33842 4.63166,-1.35298 6.50917,-2.25459 l 3.41365,-1.6393 42.87149,-42.82134 42.87149,-42.82134 42.87148,42.82134 42.87149,42.82134 3.41365,1.65949 c 3.56337,1.73225 8.15079,2.84969 11.69885,2.84969 3.30178,0 7.98282,-1.16376 11.59433,-2.88248 3.327,-1.58333 3.73052,-1.94202 15.89619,-14.13008 11.59879,-11.62014 12.58495,-12.71876 13.92906,-15.51756 2.24916,-4.68333 2.81097,-7.45488 2.60508,-12.8514 -0.12331,-3.23166 -0.43307,-5.40233 -1.0316,-7.22892 -1.98082,-6.04505 -0.85426,-4.81942 -46.23736,-50.30303 l -42.37785,-42.47171 42.79543,-42.86966 c 46.74809,-46.82916 44.32309,-44.15684 46.16606,-50.87452 1.1302,-4.11962 0.97072,-11.0683 -0.34628,-15.0875 -1.73542,-5.29616 -3.18253,-7.12322 -15.13367,-19.10726 -6.62865,-6.64689 -12.22692,-11.91282 -13.63688,-12.82734 -8.63312,-5.59952 -20.4611,-5.50378 -29.02239,0.23493 -1.05547,0.70749 -20.84977,20.19059 -43.98732,43.29576 l -42.06827,42.00942 -42.06828,-42.00942 c -23.13755,-23.10517 -42.93184,-42.58827 -43.98732,-43.29576 -8.42033,-5.64423 -19.79782,-5.84835 -28.59918,-0.51311 -1.50625,0.91306 -5.7942,4.78933 -11.40697,10.31179 -14.12312,13.89588 -16.29618,16.67085 -18.09627,23.10867 -1.15055,4.11479 -1.15055,9.9357 0,14.0505 1.83277,6.55472 -0.46821,4.02556 46.13104,50.70563 l 42.79723,42.87144 -42.00945,42.06832 c -23.1052,23.13757 -42.58872,42.93247 -43.2967,43.98865 -3.07543,4.588 -4.45924,9.16992 -4.47368,14.81278 -0.0117,4.5905 0.7175,7.78345 2.73655,11.98174 1.34477,2.79625 2.34274,3.90834 13.92907,15.522 12.17244,12.20117 12.56476,12.55001 15.89416,14.13247 5.73878,2.72763 10.92162,3.42562 16.784,2.26036 z"
       id="path1383"
       transform="matrix(0.26458333,0,0,0.26458333,0,161.53332)" />
  </g>
</svg>
