<?xml version="1.0" encoding="UTF-8" standalone="no"?>
<svg
   xmlns:dc="http://purl.org/dc/elements/1.1/"
   xmlns:cc="http://creativecommons.org/ns#"
   xmlns:rdf="http://www.w3.org/1999/02/22-rdf-syntax-ns#"
   xmlns:svg="http://www.w3.org/2000/svg"
   xmlns="http://www.w3.org/2000/svg"
   xmlns:sodipodi="http://sodipodi.sourceforge.net/DTD/sodipodi-0.dtd"
   xmlns:inkscape="http://www.inkscape.org/namespaces/inkscape"
   aria-hidden="true"
   focusable="false"
   data-prefix="fas"
   data-icon="tools"
   class="svg-inline--fa fa-tools fa-w-16"
   role="img"
   viewBox="0 0 500 500"
   version="1.1"
   id="svg4"
   sodipodi:docname="tools.svg"
   width="500"
   height="500"
   inkscape:version="0.92.4 (f8dce91, 2019-08-02)">
  <metadata
     id="metadata10">
    <rdf:RDF>
      <cc:Work
         rdf:about="">
        <dc:format>image/svg+xml</dc:format>
        <dc:type
           rdf:resource="http://purl.org/dc/dcmitype/StillImage" />
        <dc:title></dc:title>
      </cc:Work>
    </rdf:RDF>
  </metadata>
  <defs
     id="defs8" />
  <sodipodi:namedview
     pagecolor="#ffffff"
     bordercolor="#666666"
     borderopacity="1"
     objecttolerance="10"
     gridtolerance="10"
     guidetolerance="10"
     inkscape:pageopacity="0"
     inkscape:pageshadow="2"
     inkscape:window-width="1343"
     inkscape:window-height="740"
     id="namedview6"
     showgrid="false"
     inkscape:zoom="0.4609375"
     inkscape:cx="256"
     inkscape:cy="256"
     inkscape:window-x="49"
     inkscape:window-y="27"
     inkscape:window-maximized="0"
     inkscape:current-layer="svg4" />
  <path
     d="M 484.58951,383.66029 372.52739,271.60287 C 350.4212,249.49761 317.40545,245.19139 290.80146,258.30144 L 188.78761,156.29187 V 96.86603 L 66.294434,5 5.0478431,66.244019 96.91773,188.73206 h 59.42833 l 102.01385,102.00957 c -13.0149,26.60287 -8.8042,59.61722 13.302,81.72249 l 112.06212,112.05741 c 13.97188,13.97129 36.55656,13.97129 50.43274,0 l 50.43274,-50.43062 c 13.87618,-13.97129 13.87618,-36.55502 0,-50.43062 z M 322.47744,220.311 c 27.08247,0 52.53809,10.52632 71.67765,29.66508 l 18.56537,18.56459 c 15.12026,-6.60287 29.47492,-15.78947 41.91564,-28.22966 35.50389,-35.5024 47.5618,-85.45455 36.26947,-130.8134 -2.10536,-8.61244 -12.91921,-11.57895 -19.23526,-5.26316 L 400.47115,175.43062 335.49234,164.61723 324.67849,99.64115 395.87765,28.444976 C 402.1937,22.129187 399.13137,11.315789 390.42288,9.114833 345.06212,-2.08134 295.10786,9.976077 259.69969,45.382775 232.42581,72.655502 219.6023,108.63636 220.27219,144.52153 l 78.56789,78.56459 c 7.75153,-1.81818 15.79014,-2.77512 23.63736,-2.77512 z M 223.04743,298.7799 168.78677,244.52153 22.943332,390.45455 c -23.92445018,23.92344 -23.92445018,62.67942 0,86.60287 23.924449,23.92344 62.682058,23.92344 86.606498,0 L 227.83232,358.7799 c -7.27304,-19.04306 -9.47409,-39.80861 -4.78489,-60 z M 66.294434,456.67464 c -12.632109,0 -22.967471,-10.33493 -22.967471,-22.96651 0,-12.72727 10.239664,-22.9665 22.967471,-22.9665 12.727808,0 22.967472,10.23923 22.967472,22.9665 0,12.63158 -10.239664,22.96651 -22.967472,22.96651 z"
     id="path2"
     inkscape:connector-curvature="0"
     style="fill:currentColor;stroke-width:0.99999994" />
</svg>
