<?xml version="1.0" encoding="UTF-8" standalone="no"?>
<!-- Generator: Adobe Illustrator 24.1.2, SVG Export Plug-In . SVG Version: 6.00 Build 0)  -->

<svg
   version="1.1"
   id="Layer_1"
   focusable="false"
   x="0px"
   y="0px"
   viewBox="0 0 500 500"
   style="enable-background:new 0 0 500 500;"
   xml:space="preserve"
   xmlns="http://www.w3.org/2000/svg"
   xmlns:svg="http://www.w3.org/2000/svg"><defs
   id="defs7" />
<path
   d="M211.3,223.1H16.7c-6.4,0-11.7-5.2-11.7-11.7V16.8c0-6.4,5.2-11.7,11.7-11.7h46.6c6.4,0,11.7,5.2,11.7,11.7v75.9  C119.4,43.3,184,12.4,255.8,12.9c133,1,239.4,108.5,239.2,241.5c-0.3,132.8-108.1,240.4-241,240.4c-62.3,0-119-23.6-161.8-62.4  c-5-4.5-5.2-12.2-0.5-16.9l33-33c4.3-4.3,11.3-4.6,15.9-0.5c30.2,26.7,69.8,42.9,113.3,42.9c94.5,0,171-76.5,171-171  c0-94.5-76.5-171-171-171c-56.8,0-107.1,27.7-138.2,70.3h95.5c6.4,0,11.7,5.2,11.7,11.7v46.6C223,217.9,217.7,223.1,211.3,223.1  L211.3,223.1z"
   id="path2" />
</svg>
