<?xml version="1.0" encoding="UTF-8" standalone="no"?>
<svg
   aria-hidden="true"
   focusable="false"
   data-prefix="fas"
   data-icon="unlink"
   class="svg-inline--fa fa-unlink fa-w-16"
   role="img"
   viewBox="0 0 500 500"
   version="1.1"
   id="svg4"
   width="500"
   height="500"
   xmlns="http://www.w3.org/2000/svg"
   xmlns:svg="http://www.w3.org/2000/svg">
  <defs
     id="defs8" />
  <path
     fill="currentColor"
     d="m 296.01623,393.46534 c 4.48463,4.48463 4.48463,11.75612 0,16.2417 l -42.7542,42.75421 c -56.71627,56.71531 -149.00235,56.71914 -205.723396,0 -56.7172233,-56.71818 -56.7172233,-149.00521 0,-205.72244 l 42.755162,-42.75516 c 4.484627,-4.48462 11.756114,-4.48462 16.241704,0 l 37.89633,37.89634 c 4.48463,4.48463 4.48463,11.75612 0,16.2417 l -42.75516,42.7542 c -26.86565,26.86661 -26.86565,70.58071 0,97.44732 26.86565,26.86565 70.58071,26.86661 97.44828,0 l 42.7542,-42.7542 c 4.48463,-4.48463 11.75612,-4.48463 16.2417,0 z M 241.87915,144.43172 c 4.48463,4.48462 11.75612,4.48462 16.2417,0 l 42.7542,-42.75421 c 26.86565,-26.868524 70.58071,-26.86661 97.44828,0 26.86565,26.86661 26.86565,70.58071 0,97.44732 l -42.75516,42.7542 c -4.48463,4.48463 -4.48463,11.75612 0,16.2417 l 37.89633,37.89634 c 4.48463,4.48463 11.75612,4.48463 16.2417,0 l 42.75516,-42.75516 c 56.71819,-56.71818 56.71819,-149.00426 0,-205.722439 -56.71913,-56.7172234 -149.00425,-56.7172234 -205.72339,0 l -42.7542,42.754205 c -4.48463,4.484627 -4.48463,11.756114 0,16.241704 z m 224.73664,343.84051 21.65464,-21.65464 c 8.97021,-8.97022 8.97021,-23.51319 0,-32.48244 L 65.865693,11.728493 c -8.97021,-8.9702099 -23.513186,-8.9702099 -32.482439,0 L 11.727656,33.384091 c -8.9702098,8.97021 -8.9702098,23.513186 0,32.482439 l 422.405694,422.4057 c 8.97021,8.96925 23.51318,8.96925 32.48244,0 z"
     id="path2"
     style="stroke-width:0.957027" />
</svg>
