<?xml version="1.0" encoding="UTF-8" standalone="no"?>
<svg
   viewBox="0 0 500 500"
   version="1.1"
   id="svg4"
   width="500"
   height="500"
   xmlns="http://www.w3.org/2000/svg"
   xmlns:svg="http://www.w3.org/2000/svg"
   xmlns:rdf="http://www.w3.org/1999/02/22-rdf-syntax-ns#"
   xmlns:cc="http://creativecommons.org/ns#"
   xmlns:dc="http://purl.org/dc/elements/1.1/">
  <metadata
     id="metadata10">
    <rdf:RDF>
      <cc:Work
         rdf:about="">
        <dc:format>image/svg+xml</dc:format>
        <dc:type
           rdf:resource="http://purl.org/dc/dcmitype/StillImage" />
        <dc:title />
      </cc:Work>
    </rdf:RDF>
  </metadata>
  <defs
     id="defs8" />
  <path
     d="m 488.33614,428.66688 -95.423,-95.423 c -4.30695,-4.30695 -10.14527,-6.6997 -16.27072,-6.6997 H 361.04167 C 387.45766,292.7585 403.15412,250.2632 403.15412,204.03521 403.15412,94.064277 314.048,4.9581497 204.07706,4.9581497 94.106126,4.9581497 4.9999985,94.064277 4.9999985,204.03521 c 0,109.97094 89.1061275,199.07707 199.0770615,199.07707 46.22799,0 88.72329,-15.69646 122.50896,-42.11246 v 15.60075 c 0,6.12545 2.39276,11.96377 6.69971,16.27072 l 95.423,95.423 c 8.99675,8.99675 23.54469,8.99675 32.44573,0 l 27.08597,-27.08597 c 8.99675,-8.99675 8.99675,-23.54469 0.0957,-32.54144 z M 204.07706,326.54418 c -67.66706,0 -122.50896,-54.7462 -122.50896,-122.50897 0,-67.66706 54.74619,-122.508959 122.50896,-122.508959 67.66706,0 122.50896,54.746189 122.50896,122.508959 0,67.66706 -54.74619,122.50897 -122.50896,122.50897 z"
     id="path2"
     style="stroke-width:1" />
</svg>
