<?xml version="1.0" encoding="UTF-8" standalone="no"?>
<!-- Generator: Adobe Illustrator 23.0.6, SVG Export Plug-In . SVG Version: 6.00 Build 0)  -->

<svg
   version="1.1"
   id="Layer_1"
   x="0px"
   y="0px"
   viewBox="0 0 500 500"
   style="enable-background:new 0 0 500 500;"
   xml:space="preserve"
   xmlns="http://www.w3.org/2000/svg"
   xmlns:svg="http://www.w3.org/2000/svg"><defs
   id="defs15" />
<style
   type="text/css"
   id="style2">
	.st0{fill:#FFFFFF;}
</style>
<g
   id="Layer_1_1_">
</g>
<g
   id="Layer_1_2_">
</g>
<g
   id="g10">
	<polygon
   class="st0"
   points="111.6,250.4 92.6,250.4 92.6,389.3 422,389.3 422,370.3 111.6,370.3 111.6,311.5 422,311.5 422,292.5    111.6,292.5  "
   id="polygon6" />
	<path
   class="st0"
   d="M406.1,212.5c5.9-10.7,10.7-28.8,15.4-56.3l-17.7-3c-6.1,35.9-11.7,48.2-14.3,52.3c-1.4-2-3.6-6.1-6.6-14.3   c-3.6-9.8-7-22-10.6-35c-11.2-39.7-20-71-39.2-71c0,0,0,0,0,0c-19,0-27.8,30.8-38.9,69.8c-3.8,13.3-7.7,27.1-11.7,37.6   c-4,10.6-6.9,14.6-8.3,16.1c-1.4-1.5-4.1-5.6-7.9-16.3c-3.7-10.6-7.3-24.5-10.8-37.8c-11.1-42.8-18.7-69-36.4-69.3   c-0.1,0-0.2,0-0.3,0c-18.2,0-26.5,29-36.9,65.6c-4,14-8.1,28.4-12.5,39.4c-5.2,13.1-8.7,16-9.7,16.6c-1.2-0.7-6.5-4.6-14.3-24.9   c-7.7-20-15.8-50.7-24.1-91.1l-9.6,2v-0.1h-19v138.9H422v-19H406.1z M311.4,159.8c4-13.9,8.1-28.3,12.3-39.4   c4.7-12.1,8-15.9,9.2-17c1.3,1.1,4.7,4.9,9.5,17.5c4.3,11.3,8.4,25.9,12.4,40.1c6.3,22.4,11.4,40.3,17.8,51.5h-79.5   C299.8,200.5,305.1,181.8,311.4,159.8z M199.1,155.7c3.7-13,7.5-26.4,11.5-36.6c4-10.4,6.9-14.2,8.2-15.5c1.3,1.4,4.3,5.4,8.3,16.7   c3.9,10.9,7.5,25,11,38.6c5.8,22.4,10.7,41.3,17.2,53.5h-76.9C186.4,200.1,192.3,179.4,199.1,155.7z M111.6,130.6   c6.3,26.3,12.5,47,18.5,61.7c2.8,6.9,6.2,14.2,10.4,20.1h-28.9V130.6z"
   id="path8" />
</g>
</svg>
