<?xml version="1.0" encoding="UTF-8" standalone="no"?>
<!-- Generator: Adobe Illustrator 23.0.6, SVG Export Plug-In . SVG Version: 6.00 Build 0)  -->

<svg
   version="1.1"
   id="Layer_1"
   x="0px"
   y="0px"
   viewBox="0 0 500 500"
   style="enable-background:new 0 0 500 500;"
   xml:space="preserve"
   xmlns="http://www.w3.org/2000/svg"
   xmlns:svg="http://www.w3.org/2000/svg"><defs
   id="defs19" />
<style
   type="text/css"
   id="style2">
	.st0{fill:none;}
	.st1{fill:#FFFFFF;}
</style>
<g
   id="Layer_1_1_">
</g>
<g
   id="Layer_1_2_">
</g>
<g
   id="g14">
	<path
   class="st0"
   d="M147.4,380.7c73.2-44.1,147.8-88.8,220.5-132.3c-73.7-43.4-147.4-86.7-220.5-129.6V380.7z M203.2,328.4   c0,1.7-1.3,3-3,3h-46.4c-1.7,0-3-1.3-3-3v-4.8c0-1.7,1.3-3,3-3h46.4c1.7,0,3,1.3,3,3L203.2,328.4L203.2,328.4z M149.8,167.6   c0-2.2,1.8-4,4-4h16.5v-16.7c0-2.2,1.8-4,4-4h4.8c2.2,0,4,1.8,4,4v16.7h17.1c2.2,0,4,1.8,4,4v4.8c0,2.2-1.8,4-4,4h-17.1v16.9   c0,2.2-1.8,4-4,4h-4.8c-2.2,0-4-1.8-4-4v-16.9h-16.5c-2.2,0-4-1.8-4-4V167.6z"
   id="path6" />
	<path
   class="st1"
   d="M445,238h-47.6l-4.6-2.7c-46.5-27.4-92.9-54.7-139.2-81.9V96.8c0-4.4-3.6-8-8-8h-4c-4.4,0-8,3.6-8,8v44.9   c-30.8-18.1-61.5-36.1-92.1-54c-3.7-2.2-8.3-2.2-12-0.1s-6,6.1-6,10.4v42.4H73c-4.4,0-8,3.6-8,8v4c0,4.4,3.6,8,8,8h50.4v180H73   c-4.4,0-8,3.6-8,8v4c0,4.4,3.6,8,8,8h50.4V402c0,4.3,2.3,8.3,6.1,10.5c1.8,1,3.9,1.5,5.9,1.5c2.1,0,4.3-0.6,6.2-1.7   c30.6-18.5,61.5-37,92.4-55.6v44.5c0,4.4,3.6,8,8,8h4c4.4,0,8-3.6,8-8v-56.5c47.2-28.3,94.4-56.6,140.7-84.3l2.9-1.7   c0.3-0.2,0.6-0.5,0.9-0.7H445c4.4,0,8-3.6,8-8v-4C453,241.6,449.4,238,445,238z M147.4,380.7V118.9   c73.1,42.8,146.8,86.2,220.5,129.6C295.2,292,220.6,336.6,147.4,380.7z"
   id="path8" />
	<path
   class="st1"
   d="M200.2,320.6h-46.4c-1.7,0-3,1.3-3,3v4.8c0,1.7,1.3,3,3,3h46.4c1.7,0,3-1.3,3-3v-4.8   C203.2,321.9,201.9,320.6,200.2,320.6z"
   id="path10" />
	<path
   class="st1"
   d="M153.8,176.4h16.5v16.9c0,2.2,1.8,4,4,4h4.8c2.2,0,4-1.8,4-4v-16.9h17.1c2.2,0,4-1.8,4-4v-4.8c0-2.2-1.8-4-4-4   h-17.1v-16.7c0-2.2-1.8-4-4-4h-4.8c-2.2,0-4,1.8-4,4v16.7h-16.5c-2.2,0-4,1.8-4,4v4.8C149.8,174.6,151.6,176.4,153.8,176.4z"
   id="path12" />
</g>
</svg>
