<?xml version="1.0" encoding="UTF-8" standalone="no"?>
<!-- Generator: Adobe Illustrator 23.0.6, SVG Export Plug-In . SVG Version: 6.00 Build 0)  -->

<svg
   version="1.1"
   id="Layer_1"
   x="0px"
   y="0px"
   viewBox="0 0 500 500"
   style="enable-background:new 0 0 500 500;"
   xml:space="preserve"
   xmlns="http://www.w3.org/2000/svg"
   xmlns:svg="http://www.w3.org/2000/svg"><defs
   id="defs25" />
<style
   type="text/css"
   id="style2">
	.st0{fill:none;}
	.st1{fill:#FFFFFF;}
</style>
<g
   id="Layer_1_1_">
</g>
<g
   id="Layer_1_2_">
</g>
<g
   id="g20">
	<path
   class="st0"
   d="M330.7,264.8c1.3-1.1,2.3-3,3.1-5.6c0.8-2.6,1.2-6.1,1.2-10.6s-0.4-7.9-1.2-10.3s-1.9-4.3-3.3-5.6   s-3.2-2.2-5.4-2.7c-1.6-0.4-4.8-0.6-9.6-0.6h-5.2v38.3h8.7c3.3,0,5.6-0.2,7.1-0.6C327.9,266.8,329.4,266,330.7,264.8z"
   id="path6" />
	<polygon
   class="st0"
   points="262.9,233.2 255.1,254.7 270.9,254.7  "
   id="polygon8" />
	<path
   class="st0"
   d="M147,226.3c-16.5,10.3-32.9,20.6-49.3,31c37.3,18.4,74.6,37.1,111.1,55.7h214.5V187h-214   C188.6,200.2,167.8,213.3,147,226.3z M362.3,226.7c5-5.3,11.5-8,19.6-8c7.1,0,12.8,2.1,17.2,6.3c2.6,2.5,4.6,6,5.9,10.7l-11.6,2.8   c-0.7-3-2.1-5.4-4.3-7.1c-2.2-1.7-4.8-2.6-7.9-2.6c-4.3,0-7.8,1.5-10.4,4.6c-2.7,3.1-4,8.1-4,14.9c0,7.3,1.3,12.5,3.9,15.6   s6,4.7,10.3,4.7c3.1,0,5.8-1,8-3s3.8-5.1,4.8-9.3l11.3,3.6c-1.7,6.3-4.6,11-8.7,14.1c-4,3.1-9.2,4.6-15.4,4.6   c-7.7,0-14-2.6-18.9-7.9s-7.4-12.4-7.4-21.5C354.8,239.5,357.3,232,362.3,226.7z M298.5,219.7h21.3c4.8,0,8.5,0.4,11,1.1   c3.4,1,6.3,2.8,8.7,5.3s4.3,5.7,5.5,9.4c1.3,3.7,1.9,8.3,1.9,13.7c0,4.8-0.6,8.9-1.8,12.3c-1.4,4.2-3.5,7.6-6.2,10.2   c-2,2-4.8,3.5-8.2,4.6c-2.6,0.8-6,1.2-10.3,1.2h-22v-57.8H298.5z M256.9,219.7h12.3l23.2,57.8h-12.7l-5-13.1h-23.1l-4.8,13.1h-12.4   L256.9,219.7z"
   id="path10" />
	<path
   class="st1"
   d="M203.4,166.8l-2.5,1.6c-21.4,13.7-43,27.3-64.6,40.8c-21.6,13.5-43.3,27-64.7,40.8l-15.1,9.7l16.1,7.9   c43.3,21.2,86.7,42.9,129.1,64.6l2.2,1.1h239.5V166.8H203.4z M423.2,313H208.8c-36.6-18.6-73.8-37.3-111.1-55.7   c16.4-10.4,32.9-20.7,49.3-31c20.8-13,41.7-26.1,62.3-39.3h213.9V313z"
   id="path12" />
	<path
   class="st1"
   d="M251.5,264.4h23.1l5,13.1h12.7l-23.2-57.8h-12.3l-22.5,57.8h12.4L251.5,264.4z M262.9,233.2l8,21.5h-15.8   L262.9,233.2z"
   id="path14" />
	<path
   class="st1"
   d="M330.8,276.3c3.4-1.1,6.2-2.6,8.2-4.6c2.7-2.6,4.7-6,6.2-10.2c1.2-3.4,1.8-7.5,1.8-12.3c0-5.4-0.6-10-1.9-13.7   s-3.1-6.8-5.5-9.4s-5.3-4.3-8.7-5.3c-2.5-0.7-6.2-1.1-11-1.1h-21.3v57.8h22C324.8,277.5,328.3,277.1,330.8,276.3z M310.2,267.8   v-38.3h5.2c4.8,0,8,0.2,9.6,0.6c2.2,0.5,4,1.4,5.4,2.7s2.5,3.2,3.3,5.6s1.2,5.8,1.2,10.3s-0.4,8-1.2,10.6c-0.8,2.6-1.8,4.5-3.1,5.6   c-1.3,1.1-2.8,1.9-4.7,2.4c-1.4,0.4-3.8,0.6-7.1,0.6h-8.6V267.8z"
   id="path16" />
	<path
   class="st1"
   d="M381.2,278.5c6.2,0,11.3-1.5,15.4-4.6c4-3.1,6.9-7.7,8.7-14.1l-11.3-3.6c-1,4.2-2.6,7.3-4.8,9.3   c-2.2,2-4.9,3-8,3c-4.2,0-7.6-1.6-10.3-4.7s-3.9-8.3-3.9-15.6c0-6.9,1.3-11.9,4-14.9c2.7-3.1,6.1-4.6,10.4-4.6   c3.1,0,5.7,0.9,7.9,2.6c2.2,1.7,3.6,4.1,4.3,7.1l11.6-2.8c-1.3-4.6-3.3-8.2-5.9-10.7c-4.4-4.2-10.2-6.3-17.2-6.3   c-8.1,0-14.6,2.7-19.6,8S355,239.4,355,249c0,9.1,2.5,16.3,7.4,21.5C367.2,275.9,373.5,278.5,381.2,278.5z"
   id="path18" />
</g>
</svg>
