<?xml version="1.0" encoding="UTF-8" standalone="no"?>
<!-- Generator: Adobe Illustrator 23.0.6, SVG Export Plug-In . SVG Version: 6.00 Build 0)  -->

<svg
   version="1.1"
   id="Layer_1"
   x="0px"
   y="0px"
   viewBox="0 0 500 500"
   style="enable-background:new 0 0 500 500;"
   xml:space="preserve"
   xmlns="http://www.w3.org/2000/svg"
   xmlns:svg="http://www.w3.org/2000/svg"><defs
   id="defs18" />
<style
   type="text/css"
   id="style2">
	.st0{fill:none;}
	.st1{fill:#FFFFFF;}
</style>
<g
   id="Layer_1_1_">
</g>
<g
   id="g13">
	<rect
   x="215.8"
   y="75.1"
   class="st0"
   width="68.4"
   height="18.1"
   id="rect5" />
	<path
   class="st0"
   d="M175.4,424.1h149.2V119.4H175.4V424.1z M274.8,156.7l-15.6,99.5h37.4l-71.5,133.7l15.6-99.5h-37.4L274.8,156.7   z"
   id="path7" />
	<path
   class="st1"
   d="M328.8,94.5H309V70.1c0-10.5-8.9-19.1-19.7-19.1h-78.7c-10.8,0-19.7,8.6-19.7,19.1v24.4h-19.7   c-11.4,0-20.7,9.3-20.7,20.7v313.1c0,11.4,9.3,20.7,20.7,20.7h157.5c11.4,0,20.8-9.3,20.8-20.8v-313   C349.5,103.8,340.2,94.5,328.8,94.5z M215.8,75.1h68.4v18.1h-68.4L215.8,75.1L215.8,75.1z M324.6,424.1H175.4V119.4h149.2   L324.6,424.1L324.6,424.1z"
   id="path9" />
	<polygon
   class="st1"
   points="225.1,389.9 296.6,256.2 259.3,256.2 274.8,156.7 203.3,290.4 240.7,290.4  "
   id="polygon11" />
</g>
</svg>
