<?xml version="1.0" encoding="UTF-8" standalone="no"?>
<!-- Generator: Adobe Illustrator 23.0.6, SVG Export Plug-In . SVG Version: 6.00 Build 0)  -->

<svg
   version="1.1"
   id="Layer_1"
   x="0px"
   y="0px"
   viewBox="0 0 500 500"
   style="enable-background:new 0 0 500 500;"
   xml:space="preserve"
   xmlns="http://www.w3.org/2000/svg"
   xmlns:svg="http://www.w3.org/2000/svg"><defs
   id="defs24" />
<style
   type="text/css"
   id="style2">
	.st0{fill:none;}
	.st1{fill:#FFFFFF;}
</style>
<g
   id="Layer_1_1_">
</g>
<g
   id="g19">
	<path
   class="st0"
   d="M224.8,117.3c-3.4-0.9-6.5-2.5-9.2-4.6l-98.9,104.1c3.9,4.6,6.3,10.4,6.5,16.8l81.7,7.1L224.8,117.3z"
   id="path5" />
	<path
   class="st0"
   d="M262.7,251.4l-53.1-4.6l-22,136c1.6,0.4,3.2,1,4.7,1.8L267,265.5C264.3,261.3,262.7,256.5,262.7,251.4z"
   id="path7" />
	<path
   class="st0"
   d="M182,381.8l22-135.6l-81.3-7.1c-1.4,7.4-6,13.7-12.2,17.6l61,126.6c2.8-1,5.8-1.7,9-1.7   C181,381.7,181.5,381.8,182,381.8z"
   id="path9" />
	<path
   class="st0"
   d="M231.8,118.3c-0.5,0-1-0.1-1.5-0.2l-19.9,123l52.7,4.6c2.4-12.3,13.2-21.7,26.3-21.7c9.3,0,17.5,4.8,22.3,12   l67-34.8c-1.2-3-1.9-6.3-1.9-9.8c0-3.9,0.9-7.6,2.4-11l-125.8-73.3C248.5,113.9,240.7,118.3,231.8,118.3z"
   id="path11" />
	<path
   class="st0"
   d="M358.7,344.7l-58.2-69.6c-3.4,1.6-7.2,2.5-11.2,2.5c-7.3,0-13.9-3-18.8-7.7l-73.7,117.5   c4.4,3.5,7.7,8.3,9.3,13.9l145.3-34.6c-0.1-1.1-0.3-2.3-0.3-3.4C351.1,356.1,354.1,349.5,358.7,344.7z"
   id="path13" />
	<path
   class="st0"
   d="M381.3,206.3l-67,34.8c1.2,3,1.9,6.3,1.9,9.8c0,8.7-4.3,16.4-10.8,21.3l57.6,68.9c4.3-2.9,9.4-4.6,14.9-4.6   c0.4,0,0.8,0.1,1.2,0.1l17.8-119.3C390.4,215.7,384.9,211.7,381.3,206.3z"
   id="path15" />
	<path
   class="st1"
   d="M403.6,218.4c14.8,0,26.8-12,26.8-26.8s-12-26.8-26.8-26.8c-8.9,0-16.7,4.4-21.5,11l-125.8-73.3   c1.5-3.4,2.4-7.1,2.4-11c0-14.8-12-26.8-26.8-26.8s-26.8,12-26.8,26.8c0,6.6,2.5,12.6,6.5,17.3l-98.9,104.1   c-4.5-3.5-10.1-5.6-16.3-5.6c-14.8,0-26.8,12-26.8,26.8s12,26.8,26.8,26.8c3.2,0,6.2-0.7,9-1.7l61,126.6   c-7.6,4.7-12.7,13.1-12.7,22.7c0,14.8,12,26.8,26.8,26.8s26.8-12,26.8-26.8c0-0.5-0.1-1-0.2-1.6l145.6-34.7   c3.7,10.4,13.5,17.9,25.2,17.9c14.8,0,26.8-12,26.8-26.8c0-12.5-8.6-22.9-20.1-25.8l17.8-119.3   C402.8,218.3,403.2,218.4,403.6,218.4z M379.2,180.6c-1.5,3.4-2.4,7.1-2.4,11c0,3.5,0.7,6.7,1.9,9.8l-67,34.8   c-4.8-7.2-13-12-22.3-12c-13,0-23.9,9.4-26.3,21.7l-52.7-4.6l19.9-123c0.5,0,1,0.2,1.5,0.2c8.9,0,16.7-4.4,21.5-11L379.2,180.6z    M187.5,382.7l22-136l53.1,4.6c0.1,5.2,1.6,10,4.3,14l-74.7,119.1C190.7,383.8,189.1,383.2,187.5,382.7z M123.1,233.6   c-0.1-6.4-2.6-12.3-6.5-16.8l98.9-104.1c2.7,2.1,5.8,3.7,9.2,4.6l-20,123.5L123.1,233.6z M110.4,256.8c6.2-3.9,10.8-10.2,12.2-17.6   l81.3,7.1l-22,135.6c-0.5,0-1-0.2-1.5-0.2c-3.2,0-6.2,0.7-9,1.7L110.4,256.8z M206.2,401.4c-1.5-5.6-4.8-10.4-9.3-13.9L270.6,270   c4.8,4.8,11.5,7.7,18.8,7.7c4,0,7.8-0.9,11.2-2.5l58.2,69.6c-4.7,4.8-7.6,11.4-7.6,18.6c0,1.2,0.2,2.3,0.3,3.4L206.2,401.4z    M379.1,336.7c-0.4,0-0.8-0.1-1.2-0.1c-5.5,0-10.7,1.7-14.9,4.6l-57.6-68.9c6.5-4.9,10.8-12.6,10.8-21.3c0-3.5-0.7-6.7-1.9-9.8   l67-34.8c3.6,5.4,9.2,9.4,15.6,11.1L379.1,336.7z"
   id="path17" />
</g>
</svg>
