<?xml version="1.0" encoding="UTF-8" standalone="no"?>
<!-- Generator: Adobe Illustrator 23.0.6, SVG Export Plug-In . SVG Version: 6.00 Build 0)  -->

<svg
   version="1.1"
   id="Layer_1"
   x="0px"
   y="0px"
   viewBox="0 0 500 500"
   style="enable-background:new 0 0 500 500;"
   xml:space="preserve"
   xmlns="http://www.w3.org/2000/svg"
   xmlns:svg="http://www.w3.org/2000/svg"><defs
   id="defs11" />
<style
   type="text/css"
   id="style2">
	.st0{fill:#FFFFFF;}
</style>
<g
   id="Layer_1_1_">
</g>
<g
   id="Layer_1_2_">
</g>
<path
   class="st0"
   d="M289.7,56.4h-79.3c-26.1,0-47.3,21.2-47.3,47.3v115.8c0,22.4,15.6,41.1,36.5,46v169.7c0,4.7,3.8,8.4,8.4,8.4  s8.4-3.8,8.4-8.4V266.8h25.1v168.4c0,4.7,3.8,8.4,8.4,8.4s8.4-3.8,8.4-8.4V266.8h24.3v168.4c0,4.7,3.8,8.4,8.4,8.4  c4.7,0,8.4-3.8,8.4-8.4V265.7c21.3-4.5,37.3-23.2,37.3-45.4V103.7C336.9,77.6,315.7,56.4,289.7,56.4z"
   id="path6" />
</svg>
