<?xml version="1.0" encoding="UTF-8" standalone="no"?>
<!-- Generator: Adobe Illustrator 23.0.6, SVG Export Plug-In . SVG Version: 6.00 Build 0)  -->

<svg
   version="1.1"
   id="Layer_1"
   x="0px"
   y="0px"
   viewBox="0 0 500 500"
   style="enable-background:new 0 0 500 500;"
   xml:space="preserve"
   xmlns="http://www.w3.org/2000/svg"
   xmlns:svg="http://www.w3.org/2000/svg"><defs
   id="defs15" />
<style
   type="text/css"
   id="style2">
	.st0{fill:none;}
	.st1{fill:#FFFFFF;}
</style>
<g
   id="Layer_1_1_">
</g>
<g
   id="Layer_1_2_">
</g>
<g
   id="g10">
	<path
   class="st0"
   d="M147,226.3c-16.5,10.3-32.9,20.6-49.3,31c37.3,18.4,74.6,37.1,111.1,55.7h214.5V187h-214   C188.6,200.2,167.8,213.3,147,226.3z"
   id="path6" />
	<path
   class="st1"
   d="M203.4,166.8l-2.5,1.6c-21.4,13.7-43,27.3-64.6,40.8S93,236.2,71.6,250l-15.1,9.7l16.1,7.9   c43.3,21.2,86.7,42.9,129.1,64.6l2.2,1.1h239.5V166.8H203.4z M423.2,313H208.8c-36.6-18.6-73.8-37.3-111.1-55.7   c16.4-10.4,32.9-20.7,49.3-31c20.8-13,41.7-26.1,62.3-39.3h213.9V313z"
   id="path8" />
</g>
</svg>
