<?xml version="1.0" encoding="UTF-8" standalone="no"?>
<!-- Generator: Adobe Illustrator 23.0.6, SVG Export Plug-In . SVG Version: 6.00 Build 0)  -->

<svg
   version="1.1"
   id="Layer_1"
   x="0px"
   y="0px"
   viewBox="0 0 500 500"
   style="enable-background:new 0 0 500 500;"
   xml:space="preserve"
   xmlns="http://www.w3.org/2000/svg"
   xmlns:svg="http://www.w3.org/2000/svg"><defs
   id="defs12" />
<style
   type="text/css"
   id="style2">
	.st0{fill:#FFFFFF;}
</style>
<g
   id="Layer_1_1_">
</g>
<g
   id="g7">
	<path
   class="st0"
   d="M399.7,99.7c-80.6,45.4-147.1-25.6-147.1-25.6c-83.8,69.8-154.1,25-154.1,25C64,377.9,252,425.8,252,425.8   C451.5,352.3,399.7,99.7,399.7,99.7z M322.7,363.3l-79.1-70.8c-1.1-1-1.2-2.8,0-3.9l8.6-8c1.1-1,1.1-2.8,0-3.8l-43-39.5   c-1.2-1.1-1.1-3,0.1-4l12.5-9.9c1.3-1,1.3-2.9,0.1-4c-8.4-7.5-37.2-33.3-46-40.7c-1.3-1.1-1.2-3,0.1-4.1l56.8-44.5   c1.3-1,3.3-0.6,4,0.9l30.7,65.2c0.5,1.1,0.2,2.4-0.7,3.2l-7,5.5c-1.1,0.9-1.3,2.4-0.5,3.6l34.9,49c0.9,1.3,0.5,3-0.8,3.8l-10.1,6   c-1.2,0.7-1.6,2.2-1,3.4l44.6,89.5C328.1,362.8,324.8,365.3,322.7,363.3z"
   id="path5" />
</g>
</svg>
