<?xml version="1.0" encoding="UTF-8" standalone="no"?>
<!-- Generator: Adobe Illustrator 23.0.6, SVG Export Plug-In . SVG Version: 6.00 Build 0)  -->

<svg
   version="1.1"
   id="Layer_1"
   x="0px"
   y="0px"
   viewBox="0 0 500 500"
   style="enable-background:new 0 0 500 500;"
   xml:space="preserve"
   xmlns="http://www.w3.org/2000/svg"
   xmlns:svg="http://www.w3.org/2000/svg"><defs
   id="defs24" />
<style
   type="text/css"
   id="style2">
	.st0{fill:#FFFFFF;}
</style>
<g
   id="Layer_1_1_">
</g>
<g
   id="g19">
	<rect
   x="325.1"
   y="188.9"
   class="st0"
   width="79.1"
   height="13.3"
   id="rect5" />
	<polygon
   class="st0"
   points="190.8,301 226.4,301 226.4,459.2 239.6,459.2 239.6,301 259.8,301 259.8,435.3 273.1,435.3 273.1,301    307.6,301 307.6,281.9 190.8,281.9  "
   id="polygon7" />
	<rect
   x="243.9"
   y="40.8"
   class="st0"
   width="13.3"
   height="79.1"
   id="rect9" />
	<rect
   x="95.7"
   y="188.9"
   class="st0"
   width="79.1"
   height="13.3"
   id="rect11" />
	
		<rect
   x="292.1"
   y="106.2"
   transform="matrix(0.7071 -0.7071 0.7071 0.7071 17.3449 267.5947)"
   class="st0"
   width="79.1"
   height="13.3"
   id="rect13" />
	
		<rect
   x="162.6"
   y="75.2"
   transform="matrix(0.7071 -0.7071 0.7071 0.7071 -31.5351 153.3147)"
   class="st0"
   width="13.3"
   height="79.1"
   id="rect15" />
	<path
   class="st0"
   d="M292.2,188.9c0-23.4-18.6-42-42-42s-42,19.1-42,42v84.4h83.9v-84.4H292.2z M254.5,181.5   c-12.2-2.7-10.1,15.4-26.6,13.8c-3.7-0.5-8-5.3-6.9-13.8c1.1-15.4,22.3-26.6,36.1-19.1c5.3,2.7,10.1,5.8,9.6,12.2   C266.7,183.1,260.4,182.6,254.5,181.5z"
   id="path17" />
</g>
</svg>
