<?xml version="1.0" encoding="UTF-8" standalone="no"?>
<!-- Generator: Adobe Illustrator 23.0.6, SVG Export Plug-In . SVG Version: 6.00 Build 0)  -->

<svg
   version="1.1"
   id="Layer_1"
   x="0px"
   y="0px"
   viewBox="0 0 500 500"
   style="enable-background:new 0 0 500 500;"
   xml:space="preserve"
   xmlns="http://www.w3.org/2000/svg"
   xmlns:svg="http://www.w3.org/2000/svg"><defs
   id="defs18" />
<style
   type="text/css"
   id="style2">
	.st0{fill:#FFFFFF;}
</style>
<g
   id="Layer_1_1_">
</g>
<g
   id="g13">
	<g
   id="g7">
		<path
   class="st0"
   d="M388.9,335.7H111.1c-35.6,0-64.6-29-64.6-64.6V229c0-35.6,29-64.6,64.6-64.6h277.8c35.6,0,64.6,29,64.6,64.6    v42C453.5,306.7,424.5,335.7,388.9,335.7z M111.1,187.5c-23.2,0-41.5,18.2-41.5,41.5v42c0,23.2,18.2,41.5,41.5,41.5h277.8    c23.2,0,41.5-18.2,41.5-41.5v-42c0-23.2-18.2-41.5-41.5-41.5H111.1z"
   id="path5" />
	</g>
	<g
   id="g11">
		<circle
   class="st0"
   cx="360.3"
   cy="249.2"
   r="49.7"
   id="circle9" />
	</g>
</g>
</svg>
