<?xml version="1.0" encoding="UTF-8" standalone="no"?>
<!-- Generator: Adobe Illustrator 23.0.6, SVG Export Plug-In . SVG Version: 6.00 Build 0)  -->

<svg
   version="1.1"
   id="Layer_1"
   x="0px"
   y="0px"
   viewBox="0 0 500 500"
   style="enable-background:new 0 0 500 500;"
   xml:space="preserve"
   xmlns="http://www.w3.org/2000/svg"
   xmlns:svg="http://www.w3.org/2000/svg"><defs
   id="defs11" />
<style
   type="text/css"
   id="style2">
	.st0{fill:#FFFFFF;}
</style>
<g
   id="g6">
	<path
   class="st0"
   d="M407.4,217.2c5.3,0,9.6-4.3,9.6-9.6s-4.3-9.6-9.6-9.6h-16.2v-23.2h16.2c5.3,0,9.6-4.3,9.6-9.6   s-4.3-9.6-9.6-9.6h-18.5c-6-20.3-23.1-36-44.3-39.7v-18c0-5.3-4.3-9.6-9.6-9.6c-5.3,0-9.6,4.3-9.6,9.6v17h-23.2v-17   c0-5.3-4.3-9.6-9.6-9.6s-9.6,4.3-9.6,9.6v17h-23.2v-17c0-5.3-4.3-9.6-9.6-9.6s-9.6,4.3-9.6,9.6v17h-23.2v-17c0-5.3-4.3-9.6-9.6-9.6   s-9.6,4.3-9.6,9.6v17H175v-17c0-5.3-4.3-9.6-9.6-9.6s-9.6,4.3-9.6,9.6v17.9c-21.2,3.7-38.5,19.3-44.5,39.7H92.6   c-5.3,0-9.6,4.3-9.6,9.6s4.3,9.6,9.6,9.6h16.2v23.2H92.6c-5.3,0-9.6,4.3-9.6,9.6s4.3,9.6,9.6,9.6h16.2v23.2H92.6   c-5.3,0-9.6,4.3-9.6,9.6s4.3,9.6,9.6,9.6h16.2v23.2H92.6c-5.3,0-9.6,4.3-9.6,9.6c0,5.3,4.3,9.6,9.6,9.6h16.2v23.2H92.6   c-5.3,0-9.6,4.3-9.6,9.6c0,5.3,4.3,9.6,9.6,9.6h18.5c6,20.4,23.2,36,44.5,39.7v17.9c0,5.3,4.3,9.6,9.6,9.6s9.6-4.3,9.6-9.6v-17H198   v17c0,5.3,4.3,9.6,9.6,9.6s9.6-4.3,9.6-9.6v-17h23.2v17c0,5.3,4.3,9.6,9.6,9.6s9.6-4.3,9.6-9.6v-17h23.2v17c0,5.3,4.3,9.6,9.6,9.6   s9.6-4.3,9.6-9.6v-17h23.2v17c0,5.3,4.3,9.6,9.6,9.6c5.3,0,9.6-4.3,9.6-9.6V384c21.2-3.7,38.4-19.3,44.3-39.7h18.5   c5.3,0,9.6-4.3,9.6-9.6c0-5.3-4.3-9.6-9.6-9.6H391v-23.2h16.2c5.3,0,9.6-4.3,9.6-9.6c0-5.3-4.3-9.6-9.6-9.6H391v-23.2h16.2   c5.3,0,9.6-4.3,9.6-9.6s-4.3-9.6-9.6-9.6H391v-23.2L407.4,217.2L407.4,217.2z M359.8,326.6c0,12.2-9.6,21.2-21.8,21.2   c-29.5,0.6-58.4,0.6-87.9,0.6c-28.9,0-57.7,0-86.6,0c-14.1,0-22.4-9-22.4-23.1c0-2.6,0-5.1,0-8.3c0-1.9,0-3.2,2.6-3.2   c1.9,0.6,3.8,0,5.8,0c5.1,0,6.4-1.9,6.4-7.1c0-16,0-32.1,0-48.1c0-18.6,0-37.8,0-56.4c0-5.1-1.9-7.1-7.1-7.1   c-2.6,0-6.4,1.3-7.7-0.6c-1.3-1.3-0.6-5.1-0.6-7.7c0-3.8,0-8.3,0-12.2c0-14.1,9-23.1,23.1-23.1c21.8,0,43.6,0,66.1,0   c35.3,0,70.6,0,106.5,0c6.4,0,11.5,1.3,16.7,5.8c4.5,4.5,7.1,9,7.1,15.4C359.8,224,359.8,275.3,359.8,326.6z"
   id="path4" />
</g>
</svg>
