<?xml version="1.0" encoding="UTF-8" standalone="no"?>
<!-- Generator: Adobe Illustrator 23.0.6, SVG Export Plug-In . SVG Version: 6.00 Build 0)  -->

<svg
   version="1.1"
   id="Layer_1"
   x="0px"
   y="0px"
   viewBox="0 0 500 500"
   style="enable-background:new 0 0 500 500;"
   xml:space="preserve"
   xmlns="http://www.w3.org/2000/svg"
   xmlns:svg="http://www.w3.org/2000/svg"><defs
   id="defs19" />
<style
   type="text/css"
   id="style2">
	.st0{fill:none;}
	.st1{fill:#FFFFFF;}
</style>
<g
   id="Layer_1_1_">
</g>
<g
   id="Layer_1_2_">
</g>
<g
   id="g14">
	<rect
   x="178.2"
   y="275.6"
   class="st0"
   width="144.5"
   height="56.5"
   id="rect6" />
	<path
   class="st0"
   d="M350.8,154c0,7.8-6.3,14-14,14s-14-6.3-14-14v-36.9h-28.1V154c0,7.8-6.3,14-14,14c-7.8,0-14-6.3-14-14v-36.9   h-28.1V154c0,7.8-6.3,14-14,14c-7.8,0-14-6.3-14-14v-36.9h-10.5l-73.3,83.1v180.7h245.8V117.1h-21.6V154z M350.8,346.2   c0,7.8-6.3,14-14,14H164.2c-7.8,0-14-6.3-14-14v-84.6c0-7.8,6.3-14,14-14h172.6c7.8,0,14,6.3,14,14V346.2z"
   id="path8" />
	<path
   class="st1"
   d="M386.5,89H193.6c-4,0-7.9,1.7-10.5,4.8l-81,91.8c-2.3,2.6-3.5,5.9-3.5,9.3v200.1c0,7.8,6.3,14,14,14h273.9   c7.8,0,14-6.3,14-14V103.1C400.5,95.3,394.2,89,386.5,89z M372.4,380.9H126.6V200.2l73.3-83.1h10.5V154c0,7.8,6.3,14,14,14   c7.8,0,14-6.3,14-14v-36.9h28.1V154c0,7.8,6.3,14,14,14c7.8,0,14-6.3,14-14v-36.9h28.1V154c0,7.8,6.3,14,14,14s14-6.3,14-14v-36.9   h21.6V380.9z"
   id="path10" />
	<path
   class="st1"
   d="M336.7,247.5H164.2c-7.8,0-14,6.3-14,14v84.6c0,7.8,6.3,14,14,14h172.6c7.8,0,14-6.3,14-14v-84.6   C350.8,253.8,344.5,247.5,336.7,247.5z M322.7,332.1H178.2v-56.5h144.5V332.1z"
   id="path12" />
</g>
</svg>
