<?xml version="1.0" encoding="UTF-8" standalone="no"?>
<!-- Generator: Adobe Illustrator 23.0.6, SVG Export Plug-In . SVG Version: 6.00 Build 0)  -->

<svg
   version="1.1"
   id="Layer_1"
   x="0px"
   y="0px"
   viewBox="0 0 500 500"
   style="enable-background:new 0 0 500 500;"
   xml:space="preserve"
   xmlns="http://www.w3.org/2000/svg"
   xmlns:svg="http://www.w3.org/2000/svg"><defs
   id="defs67" />
<style
   type="text/css"
   id="style2">
	.st0{fill:#FFFFFF;}
</style>
<g
   id="g62">
	<g
   id="g6">
		<path
   class="st0"
   d="M309.4,337.7H191.3c-31.7,0-57.5-25.8-57.5-57.5V162.1c0-31.7,25.8-57.5,57.5-57.5h118.1    c31.7,0,57.5,25.8,57.5,57.5v118.1C367,311.9,341.1,337.7,309.4,337.7z M191.3,125.1c-20.4,0-37,16.6-37,37v118.1    c0,20.4,16.6,37,37,37h118.1c20.4,0,37-16.6,37-37V162.1c0-20.4-16.6-37-37-37C309.4,125.1,191.3,125.1,191.3,125.1z"
   id="path4" />
	</g>
	<g
   id="g10">
		<path
   class="st0"
   d="M116.7,156.9h-35c-4.7,0-8.6-3.8-8.6-8.6s3.8-8.6,8.6-8.6h35c4.7,0,8.6,3.8,8.6,8.6S121.4,156.9,116.7,156.9z    "
   id="path8" />
	</g>
	<g
   id="g14">
		<path
   class="st0"
   d="M116.7,206.5h-35c-4.7,0-8.6-3.8-8.6-8.6c0-4.7,3.8-8.6,8.6-8.6h35c4.7,0,8.6,3.8,8.6,8.6    C125.2,202.6,121.4,206.5,116.7,206.5z"
   id="path12" />
	</g>
	<g
   id="g18">
		<path
   class="st0"
   d="M116.7,258.3h-35c-4.7,0-8.6-3.8-8.6-8.6c0-4.7,3.8-8.6,8.6-8.6h35c4.7,0,8.6,3.8,8.6,8.6    C125.2,254.4,121.4,258.3,116.7,258.3z"
   id="path16" />
	</g>
	<g
   id="g22">
		<path
   class="st0"
   d="M117.4,310.1H83.1c-4.7,0-8.6-3.8-8.6-8.6s3.8-8.6,8.6-8.6h34.3c4.7,0,8.6,3.8,8.6,8.6    S122.2,310.1,117.4,310.1z"
   id="path20" />
	</g>
	<g
   id="g26">
		<path
   class="st0"
   d="M417.6,156.9h-34.3c-4.7,0-8.6-3.8-8.6-8.6s3.8-8.6,8.6-8.6h34.3c4.7,0,8.6,3.8,8.6,8.6    S422.4,156.9,417.6,156.9z"
   id="path24" />
	</g>
	<g
   id="g30">
		<path
   class="st0"
   d="M417.6,205.7h-34.3c-4.7,0-8.6-3.8-8.6-8.6s3.8-8.6,8.6-8.6h34.3c4.7,0,8.6,3.8,8.6,8.6    S422.4,205.7,417.6,205.7z"
   id="path28" />
	</g>
	<g
   id="g34">
		<path
   class="st0"
   d="M417.6,258.3h-34.3c-4.7,0-8.6-3.8-8.6-8.6c0-4.7,3.8-8.6,8.6-8.6h34.3c4.7,0,8.6,3.8,8.6,8.6    C426.2,254.4,422.4,258.3,417.6,258.3z"
   id="path32" />
	</g>
	<g
   id="g38">
		<path
   class="st0"
   d="M418.4,310.1h-34.3c-4.7,0-8.6-3.8-8.6-8.6s3.8-8.6,8.6-8.6h34.3c4.7,0,8.6,3.8,8.6,8.6    S423.1,310.1,418.4,310.1z"
   id="path36" />
	</g>
	<g
   id="g42">
		<path
   class="st0"
   d="M327,395.4c-0.1,0-0.1,0-0.2,0c-4.7-0.1-8.5-4-8.4-8.8l0.8-34.3c0.1-4.7,4-8.5,8.8-8.4c4.7,0.1,8.5,4,8.4,8.8    l-0.8,34.3C335.4,391.7,331.6,395.4,327,395.4z"
   id="path40" />
	</g>
	<g
   id="g46">
		<path
   class="st0"
   d="M277.4,395.4c-0.1,0-0.1,0-0.2,0c-4.7-0.1-8.5-4-8.4-8.8l0.8-35.1c0.1-4.7,4-8.6,8.8-8.4    c4.7,0.1,8.5,4,8.4,8.8L286,387C285.9,391.7,282.1,395.4,277.4,395.4z"
   id="path44" />
	</g>
	<g
   id="g50">
		<path
   class="st0"
   d="M225.6,394.7c-0.1,0-0.1,0-0.2,0c-4.7-0.1-8.5-4-8.4-8.8l0.8-35c0.1-4.7,4-8.4,8.8-8.4c4.7,0.1,8.5,4,8.4,8.8    l-0.8,35C234.1,391,230.3,394.7,225.6,394.7z"
   id="path48" />
	</g>
	<g
   id="g54">
		<path
   class="st0"
   d="M173.8,394.7c-0.1,0-0.1,0-0.2,0c-4.7-0.1-8.5-4-8.4-8.8l0.8-34.3c0.1-4.7,3.8-8.6,8.8-8.4    c4.7,0.1,8.5,4,8.4,8.8l-0.8,34.3C182.3,391,178.4,394.7,173.8,394.7z"
   id="path52" />
	</g>
	<g
   id="g60">
		<g
   id="g58">
			<path
   class="st0"
   d="M284.3,275.6c5.3-3,9.9-6.9,13.7-11.4l14.5,8.4l13-22.9l-14.5-8.4c1.5-5.3,3-11.4,3-17.5l16.8-3l-4.6-25.9     l-16.8,3c-2.3-5.3-5.3-10.7-9.1-16l10.7-13l-20.6-16.8l-10.7,13c-5.3-3-10.7-5.3-16.8-6.1v-16.8h-26.7V159     c-6.1,1.5-11.4,3-16.8,6.1l-10.7-13l-20.6,16.8l10.7,13c-3.8,4.6-6.9,9.9-9.1,16l-16.8-3l-4.6,25.9l16.8,3c0,6.1,1.5,12.2,3,17.5     l-14.5,8.4l13,22.9l14.5-8.4c3.8,4.6,8.4,8.4,13.7,11.4l-6.1,16l25.1,9.1l6.1-16c3,0.8,6.1,0.8,9.1,0.8s6.1,0,9.1-0.8l6.1,16     l25.1-9.1L284.3,275.6z M250.8,255c-19,0-33.5-15.2-33.5-33.5s15.2-33.5,33.5-33.5s33.5,15.2,33.5,33.5S269,255,250.8,255z"
   id="path56" />
		</g>
	</g>
</g>
</svg>
