<?xml version="1.0" encoding="UTF-8" standalone="no"?>
<!-- Generator: Adobe Illustrator 23.0.6, SVG Export Plug-In . SVG Version: 6.00 Build 0)  -->

<svg
   version="1.1"
   id="Layer_1"
   x="0px"
   y="0px"
   viewBox="0 0 500 500"
   style="enable-background:new 0 0 500 500;"
   xml:space="preserve"
   xmlns="http://www.w3.org/2000/svg"
   xmlns:svg="http://www.w3.org/2000/svg"><defs
   id="defs14" />
<style
   type="text/css"
   id="style2">
	.st0{fill:#FFFFFF;}
</style>
<g
   id="Layer_1_1_">
</g>
<g
   id="g9">
	<path
   class="st0"
   d="M365.6,112.3C281.1,196.8,196.9,281,112.3,365.6c0-0.8,0-1.4,0-2.1c0-83,0-166.1,0-249.1   c0-1.7,0.4-2.3,2.2-2.3c83.1,0,166.2,0,249.3,0C364.3,112.2,364.9,112.3,365.6,112.3z M153.4,184.6c0.9-0.9,1.6-1.6,2.4-2.2   c3.8-2.9,7.6-5.7,11.4-8.5c1.3-1,2.6-0.7,3.7,0.6c1.9,2.3,3.7,4.6,5.6,6.8c3.9,4.6,7.5,9.5,11.8,13.7c7,6.8,15.7,9.8,25.5,8.3   c12.9-1.9,22.3-9.9,31.4-18.7c-7.1-7.5-14-14.8-21-22.2c-1.3,1.2-2.2,2.2-3.3,3.1c-3.1,2.3-6.2,4.6-9.3,6.8   c-1.3,0.9-2.5,0.6-3.5-0.6c-1.3-1.5-2.6-3-3.8-4.5c-3.7-4.6-7.1-9.4-11.1-13.7c-7.8-8.3-17.5-12.5-29-10.5   c-13,2.2-22.5,10.4-31.8,19.4C139.4,169.8,146.3,177.1,153.4,184.6z"
   id="path5" />
	<path
   class="st0"
   d="M387.6,135.2c0,83.7,0,168,0,252.3c-84.3,0-168.6,0-252.4,0C219.2,303.5,303.5,219.3,387.6,135.2z    M265.4,311.1c30.7,0,61.1,0,91.6,0c0-10.2,0-20.3,0-30.4c-30.6,0-61.1,0-91.6,0C265.4,290.9,265.4,300.9,265.4,311.1z M326.6,357   c10.2,0,20.3,0,30.4,0c0-10.2,0-20.3,0-30.4c-10.2,0-20.3,0-30.4,0C326.6,336.8,326.6,346.8,326.6,357z M295.7,357   c0-10.3,0-20.4,0-30.4c-10.2,0-20.2,0-30.3,0c0,10.2,0,20.2,0,30.4C275.6,357,285.6,357,295.7,357z"
   id="path7" />
</g>
</svg>
