<?xml version="1.0" encoding="UTF-8" standalone="no"?>
<!-- Generator: Adobe Illustrator 23.0.6, SVG Export Plug-In . SVG Version: 6.00 Build 0)  -->

<svg
   version="1.1"
   id="Layer_1"
   x="0px"
   y="0px"
   viewBox="0 0 500 500"
   style="enable-background:new 0 0 500 500;"
   xml:space="preserve"
   xmlns="http://www.w3.org/2000/svg"
   xmlns:svg="http://www.w3.org/2000/svg"><defs
   id="defs21" />
<style
   type="text/css"
   id="style2">
	.st0{fill:#FFFFFF;}
</style>
<g
   id="g16">
	<path
   class="st0"
   d="M196.4,162.5h17c2.2-17.7,17.1-31.6,35.5-31.6c18.3,0,33.3,13.8,35.5,31.6H302c17.9,0,31.9-14.4,31.9-32.7   v-22.4c0-17.6-14.3-31.9-31.9-31.9H196.4c-17.6,0-31.9,14.3-31.9,31.9v23.1C164.5,148.2,178.8,162.5,196.4,162.5z"
   id="path4" />
	<path
   class="st0"
   d="M183.7,253.3c-3.7-4.5-10.3-5.1-14.8-1.3c-4.5,3.7-5.1,10.3-1.3,14.8c8.7,10.4,39.2,42.7,83.3,42.7   c2.6,0,5.3-0.1,8-0.4c33.7-2.3,58.9-22.4,74.1-38.8c3.9-4.3,3.7-10.9-0.6-14.8c-4.3-3.9-10.9-3.7-14.8,0.6   c-12.6,13.6-33.2,30.3-60.3,32.1C218.7,291.5,191.2,262.4,183.7,253.3z"
   id="path6" />
	<path
   class="st0"
   d="M251.4,367.1c3.1,0,6.3-0.1,9.6-0.3c43.4-2.3,86.7-20.8,121.7-52.2c4.6-4.1,5-11.2,0.9-15.8   c-4.1-4.6-11.2-5-15.8-0.9c-18.1,16.2-56.2,43.8-108,46.5c-60.4,3.4-104.8-29.5-125.9-49.4c-4.5-4.2-11.6-4-15.8,0.5   c-4.2,4.5-4,11.6,0.5,15.8C141.2,332.6,187.7,367.1,251.4,367.1z"
   id="path8" />
	<path
   class="st0"
   d="M248.8,134.8c-17.6,0-32,14.3-32,32s14.3,32,32,32c17.6,0,32-14.3,32-32S266.5,134.8,248.8,134.8z"
   id="path10" />
	<path
   class="st0"
   d="M421.6,352.2c-4.1-5.6-11.9-6.8-17.4-2.7c-24.3,17.8-75.7,47.9-146.4,50C176.4,401.6,117.6,364.2,96,348   c-5.5-4.1-13.3-3-17.5,2.5c-4.1,5.5-3,13.3,2.5,17.5c23,17.3,84.8,56.5,170.2,56.5c2.4,0,4.8,0,7.3-0.1   c77.4-2.3,133.7-35.3,160.4-54.8C424.4,365.5,425.6,357.7,421.6,352.2z"
   id="path12" />
	<path
   class="st0"
   d="M251.9,253.2c1.5,0,3-0.1,4.6-0.2c22.5-1.6,38.6-16.6,48.2-29c3.1-4,2.4-9.8-1.6-12.9c-4-3.1-9.8-2.4-12.9,1.6   c-7.3,9.4-19.3,20.8-35.1,21.9c-22.2,1.9-38.9-18-43.5-24.1c-3.1-4.1-8.8-4.9-12.9-1.8c-4.1,3-4.9,8.8-1.8,12.9   C204.1,231.4,223.6,253.2,251.9,253.2z"
   id="path14" />
</g>
</svg>
