<?xml version="1.0" encoding="UTF-8" standalone="no"?>
<!-- Generator: Adobe Illustrator 23.0.6, SVG Export Plug-In . SVG Version: 6.00 Build 0)  -->

<svg
   version="1.1"
   id="Layer_1"
   x="0px"
   y="0px"
   viewBox="0 0 500 500"
   style="enable-background:new 0 0 500 500;"
   xml:space="preserve"
   xmlns="http://www.w3.org/2000/svg"
   xmlns:svg="http://www.w3.org/2000/svg"><defs
   id="defs13" />
<style
   type="text/css"
   id="style2">
	.st0{fill:#FFFFFF;}
</style>
<g
   id="g8">
	<path
   class="st0"
   d="M375.1,152.2H94.6c-11.3,0-20.4,9.2-20.4,20.4V328c0,11.3,9.2,20.4,20.4,20.4h281.1c5.5,0,10.8-2.2,14.5-6.2   c3.7-3.8,5.5-8.8,5.3-14.1V172.5C395.5,161.3,386.3,152.2,375.1,152.2z M104.5,235.8c1.2,1.9,2.5,3.1,5,3.7   c2.5,0.6,5.6,1.9,10.5,3.1c6.8,1.9,11.1,3.1,14.2,4.3s5,3.7,7.4,6.8c2.5,3.1,3.1,6.8,3.1,10.5c0,6.8-2.5,12.4-7.4,16.7   c-5,4.3-11.8,6.2-20.4,6.2c-16.1,0-26-6.8-30.3-20.4l8-3.1c3.1,10.5,10.5,16.1,22.3,16.1c6.2,0,11.1-1.2,14.2-4.3   c3.1-3.1,5-6.2,5-10.5c0-2.5-0.6-4.3-1.9-6.2c-1.2-1.9-2.5-3.1-4.3-3.7c-1.9-0.6-5-1.9-9.3-2.5c-6.2-1.9-11.1-3.1-14.9-5   c-3.7-1.9-6.2-3.7-8-6.8s-3.1-6.2-3.1-9.9c0-6.2,2.5-11.1,6.8-14.9c4.3-3.7,10.5-6.2,18-6.2c12.4-0.6,21.7,5.6,26.6,17.3l-8,3.1   c-1.2-4.3-3.7-7.4-7.4-9.9c-3.1-2.5-7.4-3.7-11.8-3.7c-5.6,0-9.3,1.2-12.4,3.7c-2.5,2.5-3.7,5.6-3.7,9.3   C102.6,232,103.3,233.9,104.5,235.8z M365.8,254.3l-13,7.4V250h-97.9l32.3,32.8h25.9v-8.1h25.4v25.4h-25.4V289h-27.9l-0.3,0.3   L246.2,250h-44.1c1.1,1.1,2.2,2.3,3.3,3.7c1.9,3.1,3.1,6.8,3.1,10.5c0,6.8-2.5,12.4-7.4,16.7c-5,4.3-11.8,6.2-20.4,6.2   c-16.1,0-26-6.8-30.3-20.4l8-3.1c3.1,10.5,10.5,16.1,22.3,16.1c6.2,0,11.1-1.2,14.2-4.3c3.1-3.1,5-6.2,5-10.5   c0-2.5-0.6-4.3-1.9-6.2c-1.2-1.9-2.5-3.1-4.3-3.7c-1.9-0.6-5-1.9-9.3-2.5c-6.2-1.9-11.1-3.1-14.9-5c-3.7-1.9-6.2-3.7-8-6.8   s-3.1-6.2-3.1-9.9c0-6.2,2.5-11.1,6.8-14.9c4.3-3.7,10.5-6.2,18-6.2c12.4-0.6,21.7,5.6,26.6,17.3l-8,3.1c-1.2-4.3-3.7-7.4-7.4-9.9   c-3.1-2.5-7.4-3.7-11.8-3.7c-5.6,0-9.3,1.2-12.4,3.7c-2.5,2.5-3.7,5.6-3.7,9.3c0,2.5,0.6,4.3,1.9,6.2c1.2,1.9,2.5,3.1,5,3.7   c2.5,0.6,5.6,1.9,10.5,3.1c1.6,0.4,3.1,0.9,4.5,1.2h30.2l33.2-32.5l0.3,0.4H274c-0.1-0.8-0.2-1.6-0.2-2.5c0-8.2,6.7-14.9,14.9-14.9   s14.9,6.7,14.9,14.9s-6.7,14.9-14.9,14.9c-5,0-9.3-2.5-12-6.2h-22.6l-26.5,26h20.9l0.3-0.3l0.3,0.3h104V232l13,7.4l13,7.4   L365.8,254.3z"
   id="path4" />
	<path
   class="st0"
   d="M420.9,190.6v-35.9c0-13-10.5-23.5-23.5-23.5H72.9c-13,0-23.5,10.5-23.5,23.5v190.7c0,13,10.5,23.5,23.5,23.5   h324.4c13,0,23.5-10.5,23.5-24.1v-39.6h29.7V190.6H420.9z M401.7,328c0.3,6.8-2.1,13.5-7,18.5c-4.9,5.1-11.8,8.1-19,8.1H94.6   C79.9,354.6,68,342.7,68,328V172.6c0-14.7,11.9-26.6,26.6-26.6h280.5c14.7,0,26.6,11.9,26.6,26.6V328z"
   id="path6" />
</g>
</svg>
