<?xml version="1.0" encoding="UTF-8" standalone="no"?>
<!-- Generator: Adobe Illustrator 24.1.2, SVG Export Plug-In . SVG Version: 6.00 Build 0)  -->

<svg
   version="1.1"
   id="Layer_1"
   x="0px"
   y="0px"
   viewBox="0 0 500 500"
   style="enable-background:new 0 0 500 500;"
   xml:space="preserve"
   xmlns="http://www.w3.org/2000/svg"
   xmlns:svg="http://www.w3.org/2000/svg"><defs
   id="defs14" />
<style
   type="text/css"
   id="style2">
	.st0{fill:#FFFFFF;}
</style>
<g
   id="Z7t7NB_1_">
	<g
   id="g8">
		<path
   class="st0"
   d="M141.1,343.5c-50.1-0.3-90.2-41.3-91.5-91.5c-1.4-49.5,39.2-95.8,94.9-95.6c70.4,0.2,140.8,0.1,211.2,0    c45,0,83.5,30,92.7,74.1c12.7,60.9-33.9,112.5-89.1,112.9C322.7,343.7,177.2,343.7,141.1,343.5z M363.9,316.5    c33.9-3.1,61.6-33.3,59.8-69.6c-1.9-35.8-31.5-63.5-67.2-63.6c-70.6-0.1-141.2,0-211.8,0c-10.8,0-21,2.4-30.8,7    C86.2,203.4,71,235.3,77.9,265c6.7,28.7,33.5,52.1,65.6,51.9C178.8,316.7,359,316.9,363.9,316.5z"
   id="path4" />
		<path
   class="st0"
   d="M249.7,282.9c-33,0-66,0.1-99,0c-13.2,0-22.7-6.4-28.7-18c-10-19.2,2-43.2,23.3-46.8c3.1-0.5,6.2-0.8,9.3-0.8    c63.7,0,127.3,0,191-0.1c15.3,0,26.9,6,33.1,20.1c9.4,21.6-6.2,45.5-29.9,45.7C315.7,283.1,282.7,283,249.7,282.9    C249.7,282.9,249.7,282.9,249.7,282.9z"
   id="path6" />
	</g>
</g>
</svg>
