<?xml version="1.0" encoding="UTF-8"?>
<svg width="343px" height="109px" viewBox="0 0 343 109" version="1.1" xmlns="http://www.w3.org/2000/svg" xmlns:xlink="http://www.w3.org/1999/xlink">
    <!-- Generator: Sketch 48.1 (47250) - http://www.bohemiancoding.com/sketch -->
    <title>OneRepeateRouteInactive</title>
    <desc>Created with Sketch.</desc>
    <defs>
        <rect id="path-1" x="6" y="5" width="24" height="97" rx="11"></rect>
        <rect id="path-2" x="314" y="8" width="24" height="97" rx="11"></rect>
    </defs>
    <g id="tabloid" stroke="none" stroke-width="1" fill="none" fill-rule="evenodd" transform="translate(-721.000000, -750.000000)">
        <g id="OneRepeateRouteInactive" transform="translate(721.000000, 750.000000)">
            <rect id="Rectangle-4" fill="#B4B4B4" x="0" y="0" width="343" height="109"></rect>
            <path d="M37.4222222,70.5 L112.577778,70.5" id="Line-Copy-5" stroke="#979797" stroke-width="4" stroke-linecap="square" transform="translate(75.000000, 70.500000) scale(-1, 1) translate(-75.000000, -70.500000) "></path>
            <path id="Line-Copy-5-decoration-1" d="M112.577778,70.5 L101.777778,67.5 L101.777778,73.5 L112.577778,70.5 Z" stroke="#979797" stroke-width="4" stroke-linecap="square"></path>
            <path d="M229.422222,72.5 L304.577778,72.5" id="Line-Copy-6" stroke="#979797" stroke-width="4" stroke-linecap="square" transform="translate(267.000000, 72.500000) scale(-1, 1) translate(-267.000000, -72.500000) "></path>
            <path id="Line-Copy-6-decoration-1" d="M304.577778,72.5 L293.777778,69.5 L293.777778,75.5 L304.577778,72.5 Z" stroke="#979797" stroke-width="4" stroke-linecap="square"></path>
            <path d="M37.4222222,34.5 L112.577778,34.5" id="Line-Copy" stroke="#979797" stroke-width="4" stroke-linecap="square"></path>
            <path id="Line-Copy-decoration-1" d="M112.577778,34.5 L101.777778,31.5 L101.777778,37.5 L112.577778,34.5 Z" stroke="#979797" stroke-width="4" stroke-linecap="square"></path>
            <path d="M229.422222,36.5 L304.577778,36.5" id="Line-Copy-2" stroke="#979797" stroke-width="4" stroke-linecap="square"></path>
            <path id="Line-Copy-2-decoration-1" d="M304.577778,36.5 L293.777778,33.5 L293.777778,39.5 L304.577778,36.5 Z" stroke="#979797" stroke-width="4" stroke-linecap="square"></path>
            <g id="Rectangle">
                <use fill="#9B9B9B" fill-rule="evenodd" xlink:href="#path-1"></use>
                <rect stroke="#979797" stroke-width="1" x="6.5" y="5.5" width="23" height="96" rx="11"></rect>
            </g>
            <g id="Rectangle-Copy">
                <use fill="#9B9B9B" fill-rule="evenodd" xlink:href="#path-2"></use>
                <rect stroke="#979797" stroke-width="1" x="314.5" y="8.5" width="23" height="96" rx="11"></rect>
            </g>
            <polygon id="Triangle-Copy-2" stroke="#979797" fill="#9B9B9B" transform="translate(77.500000, 67.000000) scale(-1, -1) rotate(211.000000) translate(-77.500000, -67.000000) " points="77.5 52 95 82 60 82"></polygon>
            <polygon id="Triangle-Copy" stroke="#979797" fill="#9B9B9B" transform="translate(259.500000, 38.000000) scale(-1, -1) rotate(32.000000) translate(-259.500000, -38.000000) " points="259.5 23 277 53 242 53"></polygon>
            <path d="M120,23.7264969 L120,90.6450114 C129.265208,78.9165385 139.976584,73.1093447 152.134129,73.2234301 C170.370445,73.3945582 172.223193,101.305158 193.518805,101.965505 C207.71588,102.405736 216.876278,98.6322383 221,90.6450114 L221,23.7264969 C212.081366,29.9887921 202.920967,32.8223257 193.518805,32.2270976 C179.415561,31.3342555 170.5,8.29148933 152.134129,8.00503583 C139.890214,7.81406682 129.178838,13.0545539 120,23.7264969 Z" id="flex-cable" stroke="#979797" fill="#9B9B9B"></path>
        </g>
    </g>
</svg>