<?xml version="1.0" encoding="UTF-8" standalone="no"?>
<svg
   id="svg8"
   version="1.1"
   viewBox="0 0 256 256"
   height="256"
   width="256"
   xmlns="http://www.w3.org/2000/svg"
   xmlns:svg="http://www.w3.org/2000/svg"
   xmlns:rdf="http://www.w3.org/1999/02/22-rdf-syntax-ns#"
   xmlns:cc="http://creativecommons.org/ns#"
   xmlns:dc="http://purl.org/dc/elements/1.1/">
  <defs
     id="defs2" />
  <metadata
     id="metadata5">
    <rdf:RDF>
      <cc:Work
         rdf:about="">
        <dc:format>image/svg+xml</dc:format>
        <dc:type
           rdf:resource="http://purl.org/dc/dcmitype/StillImage" />
        <dc:title />
      </cc:Work>
    </rdf:RDF>
  </metadata>
  <g
     transform="translate(0,-229.26667)"
     id="layer1">
    <circle
       style="fill:#ffffff;fill-opacity:1;stroke:#646464;stroke-width:1;stroke-miterlimit:4;stroke-dasharray:none;stroke-dashoffset:0;stroke-opacity:1"
       id="path915"
       cx="128"
       cy="357.26666"
       r="126.5" />
    <circle
       r="120"
       cy="357.26666"
       cx="128"
       id="path815"
       style="fill:#4ab043;fill-opacity:1;stroke:none;stroke-width:4;stroke-miterlimit:4;stroke-dasharray:none;stroke-dashoffset:0;stroke-opacity:1" />
    <g
       id="text819"
       style="font-style:normal;font-variant:normal;font-weight:normal;font-stretch:normal;font-size:106.66666412px;line-height:0;font-family:'Arial Black';-inkscape-font-specification:'Arial Black, ';letter-spacing:-8.39000034px;word-spacing:0px;fill:#ffffff;fill-opacity:1;stroke:none"
       aria-label="CDC">
      <path
         id="path873"
         style="font-style:normal;font-variant:normal;font-weight:normal;font-stretch:normal;font-size:106.66666412px;line-height:0;font-family:'Arial Black';-inkscape-font-specification:'Arial Black, ';letter-spacing:-8.39000034px;fill:#ffffff"
         d="m 69.931668,364.21981 20.677083,6.25 q -2.083333,8.69791 -6.5625,14.53125 -4.479166,5.83333 -11.145833,8.80208 -6.614583,2.96875 -16.875,2.96875 -12.447916,0 -20.364582,-3.59375 -7.864584,-3.64583 -13.59375,-12.76042 -5.729167,-9.11458 -5.729167,-23.33333 0,-18.95833 10.052084,-29.11458 10.104166,-10.20833 28.541666,-10.20833 14.427083,0 22.656249,5.83333 8.28125,5.83333 12.291666,17.91667 l -20.833332,4.63541 q -1.09375,-3.48958 -2.291667,-5.10416 -1.979167,-2.70834 -4.84375,-4.16667 -2.864583,-1.45833 -6.40625,-1.45833 -8.020833,0 -12.291666,6.45833 -3.229167,4.79167 -3.229167,15.05208 0,12.70834 3.854167,17.44792 3.854166,4.6875 10.833333,4.6875 6.770833,0 10.208333,-3.80208 3.489583,-3.80209 5.052083,-11.04167 z" />
      <path
         id="path875"
         style="font-style:normal;font-variant:normal;font-weight:normal;font-stretch:normal;font-size:106.66666412px;line-height:0;font-family:'Arial Black';-inkscape-font-specification:'Arial Black, ';letter-spacing:-8.39000034px;fill:#ffffff"
         d="m 93.937501,319.06356 h 35.052079 q 10.36459,0 16.71875,2.8125 6.40625,2.8125 10.57292,8.07292 4.16667,5.26041 6.04167,12.23958 1.875,6.97917 1.875,14.79167 0,12.23958 -2.8125,19.01041 -2.76042,6.71875 -7.70834,11.30208 -4.94791,4.53125 -10.625,6.04167 -7.76041,2.08333 -14.0625,2.08333 H 93.937501 Z m 23.593749,17.29167 v 41.71875 h 5.78125 q 7.39583,0 10.52083,-1.61459 3.125,-1.66666 4.89584,-5.72916 1.77083,-4.11459 1.77083,-13.28125 0,-12.13542 -3.95833,-16.61459 -3.95834,-4.47916 -13.125,-4.47916 z" />
      <path
         id="path877"
         style="font-style:normal;font-variant:normal;font-weight:normal;font-stretch:normal;font-size:106.66666412px;line-height:0;font-family:'Arial Black';-inkscape-font-specification:'Arial Black, ';letter-spacing:-8.39000034px;fill:#ffffff"
         d="m 218.985,364.21981 20.67708,6.25 q -2.08333,8.69791 -6.5625,14.53125 -4.47917,5.83333 -11.14583,8.80208 -6.61459,2.96875 -16.875,2.96875 -12.44792,0 -20.36458,-3.59375 -7.86459,-3.64583 -13.59375,-12.76042 -5.72917,-9.11458 -5.72917,-23.33333 0,-18.95833 10.05208,-29.11458 10.10417,-10.20833 28.54167,-10.20833 14.42708,0 22.65625,5.83333 8.28125,5.83333 12.29166,17.91667 l -20.83333,4.63541 q -1.09375,-3.48958 -2.29167,-5.10416 -1.97916,-2.70834 -4.84375,-4.16667 -2.86458,-1.45833 -6.40625,-1.45833 -8.02083,0 -12.29166,6.45833 -3.22917,4.79167 -3.22917,15.05208 0,12.70834 3.85417,17.44792 3.85416,4.6875 10.83333,4.6875 6.77083,0 10.20833,-3.80208 3.48959,-3.80209 5.05209,-11.04167 z" />
    </g>
  </g>
</svg>
