<svg xmlns="http://www.w3.org/2000/svg" xmlns:xlink="http://www.w3.org/1999/xlink" version="1.1" x="0px" y="0px" viewBox="0 0 24 30" style="enable-background:new 0 0 24 24;" xml:space="preserve"><g><path d="M12.411,3.535c0-0.227-0.184-0.411-0.411-0.411s-0.411,0.184-0.411,0.411v3.194c0,0.227,0.184,0.411,0.411,0.411   s0.411-0.184,0.411-0.411V3.535z"/><path d="M9.721,7.229L8.124,4.463C8.01,4.266,7.758,4.199,7.562,4.312c-0.197,0.114-0.264,0.365-0.15,0.562L9.008,7.64   c0.076,0.132,0.214,0.206,0.356,0.206c0.07,0,0.141-0.018,0.205-0.055C9.767,7.677,9.834,7.426,9.721,7.229z"/><path d="M7.791,9.569c0.114-0.197,0.046-0.448-0.15-0.562L4.875,7.411c-0.196-0.114-0.448-0.047-0.562,0.15   C4.2,7.758,4.267,8.01,4.464,8.123L7.229,9.72c0.065,0.037,0.135,0.055,0.205,0.055C7.577,9.775,7.715,9.701,7.791,9.569z"/><path d="M3.535,12.411h3.194c0.227,0,0.411-0.184,0.411-0.411s-0.184-0.411-0.411-0.411H3.535c-0.227,0-0.411,0.184-0.411,0.411   S3.308,12.411,3.535,12.411z"/><path d="M4.313,16.438c0.076,0.132,0.214,0.206,0.356,0.206c0.07,0,0.141-0.018,0.205-0.055l2.766-1.598   c0.197-0.114,0.264-0.365,0.15-0.562c-0.113-0.197-0.365-0.264-0.562-0.15l-2.766,1.598C4.266,15.99,4.199,16.242,4.313,16.438z"/><path d="M7.562,19.687c0.065,0.037,0.135,0.055,0.205,0.055c0.142,0,0.28-0.074,0.356-0.206l1.597-2.766   c0.114-0.197,0.046-0.448-0.15-0.562c-0.196-0.114-0.448-0.047-0.562,0.15l-1.597,2.766C7.298,19.322,7.365,19.574,7.562,19.687z"/><path d="M12,16.86c-0.227,0-0.411,0.184-0.411,0.411v3.194c0,0.227,0.184,0.411,0.411,0.411s0.411-0.184,0.411-0.411v-3.194   C12.411,17.044,12.227,16.86,12,16.86z"/><path d="M15.877,19.537c0.076,0.132,0.214,0.206,0.356,0.206c0.07,0,0.141-0.018,0.205-0.055c0.197-0.114,0.264-0.365,0.15-0.562   l-1.597-2.766c-0.114-0.197-0.365-0.264-0.562-0.15c-0.197,0.114-0.264,0.365-0.15,0.562L15.877,19.537z"/><path d="M19.331,16.644c0.142,0,0.28-0.074,0.356-0.206c0.114-0.197,0.046-0.448-0.15-0.562l-2.766-1.598   c-0.197-0.114-0.448-0.047-0.562,0.15c-0.114,0.197-0.046,0.448,0.15,0.562l2.766,1.598C19.191,16.626,19.261,16.644,19.331,16.644   z"/><path d="M20.876,12c0-0.227-0.184-0.411-0.411-0.411h-3.194c-0.227,0-0.411,0.184-0.411,0.411s0.184,0.411,0.411,0.411h3.194   C20.692,12.411,20.876,12.227,20.876,12z"/><path d="M19.126,7.411l-2.766,1.597c-0.197,0.114-0.264,0.365-0.15,0.562c0.076,0.132,0.214,0.206,0.356,0.206   c0.07,0,0.141-0.018,0.205-0.055l2.766-1.597c0.197-0.114,0.264-0.365,0.15-0.562C19.574,7.365,19.322,7.297,19.126,7.411z"/><path d="M14.43,7.791c0.065,0.037,0.135,0.055,0.205,0.055c0.142,0,0.28-0.074,0.356-0.206l1.598-2.766   c0.114-0.197,0.046-0.448-0.15-0.562c-0.196-0.114-0.448-0.047-0.562,0.15l-1.598,2.766C14.166,7.426,14.233,7.677,14.43,7.791z"/></g><text x="0" y="39" fill="#000000" font-size="5px" font-weight="bold" font-family="'Helvetica Neue', Helvetica, Arial-Unicode, Arial, Sans-serif">Created by AlePio</text><text x="0" y="44" fill="#000000" font-size="5px" font-weight="bold" font-family="'Helvetica Neue', Helvetica, Arial-Unicode, Arial, Sans-serif">from the Noun Project</text></svg>