<?xml version="1.0" encoding="UTF-8" standalone="no"?>
<svg
   width="256"
   height="256"
   viewBox="0 0 256 256"
   version="1.1"
   id="svg8"
   xmlns="http://www.w3.org/2000/svg"
   xmlns:svg="http://www.w3.org/2000/svg"
   xmlns:rdf="http://www.w3.org/1999/02/22-rdf-syntax-ns#"
   xmlns:cc="http://creativecommons.org/ns#"
   xmlns:dc="http://purl.org/dc/elements/1.1/">
  <defs
     id="defs2" />
  <metadata
     id="metadata5">
    <rdf:RDF>
      <cc:Work
         rdf:about="">
        <dc:format>image/svg+xml</dc:format>
        <dc:type
           rdf:resource="http://purl.org/dc/dcmitype/StillImage" />
        <dc:title />
      </cc:Work>
    </rdf:RDF>
  </metadata>
  <g
     id="layer1"
     transform="translate(0,-229.26667)">
    <circle
       r="127.49606"
       cy="357.26666"
       cx="128"
       id="path915"
       style="fill:#ffffff;fill-opacity:1;stroke:#646464;stroke-width:1.00787;stroke-miterlimit:4;stroke-dasharray:none;stroke-dashoffset:0;stroke-opacity:1" />
    <circle
       style="fill:#4ab043;fill-opacity:1;stroke:none;stroke-width:4;stroke-miterlimit:4;stroke-dasharray:none;stroke-dashoffset:0;stroke-opacity:1"
       id="path815"
       cx="128"
       cy="357.26666"
       r="120" />
  </g>
  <rect
     ry="12"
     rx="12"
     y="56"
     x="56"
     height="144"
     width="144"
     id="rect657"
     style="fill:#000000;stroke-width:1.5" />
  <rect
     y="32"
     x="80"
     height="24"
     width="16"
     id="rect661"
     style="fill:#decd87;stroke-width:1.73205" />
  <rect
     style="fill:#decd87;stroke-width:1.73205"
     id="rect661-6"
     width="16"
     height="24"
     x="160"
     y="32" />
  <rect
     style="fill:#decd87;stroke-width:1.73205"
     id="rect661-8"
     width="16"
     height="24"
     x="120"
     y="32" />
  <rect
     style="fill:#decd87;stroke-width:1.73205"
     id="rect661-3"
     width="16"
     height="24"
     x="80"
     y="200" />
  <rect
     y="200"
     x="160"
     height="24"
     width="16"
     id="rect661-6-1"
     style="fill:#decd87;stroke-width:1.73205" />
  <rect
     y="200"
     x="120"
     height="24"
     width="16"
     id="rect661-8-0"
     style="fill:#decd87;stroke-width:1.73205" />
  <rect
     transform="rotate(-90)"
     style="fill:#decd87;stroke-width:1.73205"
     id="rect661-81"
     width="16"
     height="24"
     x="-136"
     y="32" />
  <rect
     transform="rotate(-90)"
     y="32"
     x="-96"
     height="24"
     width="16"
     id="rect661-6-4"
     style="fill:#decd87;stroke-width:1.73205" />
  <rect
     transform="rotate(-90)"
     y="32"
     x="-176"
     height="24"
     width="16"
     id="rect661-8-8"
     style="fill:#decd87;stroke-width:1.73205" />
  <rect
     y="200"
     x="-136"
     height="24"
     width="16"
     id="rect661-81-1"
     style="fill:#decd87;stroke-width:1.73205"
     transform="rotate(-90)" />
  <rect
     style="fill:#decd87;stroke-width:1.73205"
     id="rect661-6-4-2"
     width="16"
     height="24"
     x="-96"
     y="200"
     transform="rotate(-90)" />
  <rect
     style="fill:#decd87;stroke-width:1.73205"
     id="rect661-8-8-4"
     width="16"
     height="24"
     x="-176"
     y="200"
     transform="rotate(-90)" />
  <path
     d="m 162.6016,103.99996 h -25.96469 l 9.58487,-32.449958 C 147.12177,67.750005 144.53435,64 141.00183,64 h -32.39964 c -2.69998,0 -4.99485,2.225001 -5.35483,5.199996 L 96.04738,129.20001 C 95.619889,132.79998 98.139855,136 101.40229,136 h 26.70727 l -10.37243,48.62498 c -0.80996,3.8 1.79997,7.37502 5.24242,7.37502 1.89004,0 3.69002,-1.10004 4.67995,-3.00005 l 39.59957,-75.99993 c 2.09249,-3.97505 -0.49503,-9.00006 -4.65747,-9.00006 z"
     id="path2"
     style="fill:#ffffff;stroke-width:0.247818" />
</svg>
