<?xml version="1.0" encoding="UTF-8" standalone="no"?>
<!-- Generator: Adobe Illustrator 22.1.0, SVG Export Plug-In . SVG Version: 6.00 Build 0)  -->

<svg
   version="1.1"
   x="0px"
   y="0px"
   viewBox="0 0 500 500"
   xml:space="preserve"
   id="svg12"
   width="500"
   height="500"
   xmlns="http://www.w3.org/2000/svg"
   xmlns:svg="http://www.w3.org/2000/svg"
   xmlns:rdf="http://www.w3.org/1999/02/22-rdf-syntax-ns#"
   xmlns:cc="http://creativecommons.org/ns#"
   xmlns:dc="http://purl.org/dc/elements/1.1/"><metadata
   id="metadata18"><rdf:RDF><cc:Work
       rdf:about=""><dc:format>image/svg+xml</dc:format><dc:type
         rdf:resource="http://purl.org/dc/dcmitype/StillImage" /></cc:Work></rdf:RDF></metadata><defs
   id="defs16">
		
		
		
	
	
</defs>
<g
   id="Layer_1"
   transform="translate(0,-12)">
</g>
<g
   id="g13198"><g
     id="path10086"><g
       id="g14416"
       transform="translate(0,-5)"><path
         style="color:#000000;fill:#000000;stroke-width:8;-inkscape-stroke:none"
         d="m 200,320 v -50 c 8.4e-4,-11.0456 8.9544,-19.99916 20,-20 h 60 c 11.0456,8.4e-4 19.99916,8.9544 20,20 v 50 h 60 V 100 H 200 l -60,60 v 160 z"
         id="path12892" /><path
         style="color:#000000;fill:#000000;stroke-width:8;-inkscape-stroke:none"
         d="m 148,10 c -5.54,0 -10,4.46 -10,10 v 30 h -8 C 107.84,50 90,67.84 90,90 v 8 H 60 c -5.539999,0 -10,4.46 -10,10 0,5.54 4.460001,10 10,10 h 30 v 48 H 60 c -5.539999,0 -10,4.46 -10,10 0,5.54001 4.460001,10 10,10 h 30 v 48 H 60 c -5.539999,0 -10,4.46 -10,10 0,5.54001 4.460001,10 10,10 h 30 v 48 H 60 c -5.539999,0 -10,4.45999 -10,10 0,5.54 4.460001,10 10,10 h 30 v 8 c 0,22.15999 17.84,40 40,40 h 70 v -30 h -60 c -11.04524,-10e-4 -19.9989,-8.95476 -20,-20 V 160 c -2e-5,-5.30438 2.10693,-10.39155 5.85742,-14.14258 l 60,-59.999998 C 189.60845,82.106933 194.69562,79.999983 200,80 h 160 c 11.04524,0.0011 19.9989,8.95476 20,20 v 220 c -10e-4,11.04524 -8.95476,19.9989 -20,20 h -60 v 30 h 70 c 22.15999,0 40,-17.84001 40,-40 v -8 h 30 c 5.54001,0 10,-4.46 10,-10 0,-5.54001 -4.45999,-10 -10,-10 h -30 v -48 h 30 c 5.54001,0 10,-4.45999 10,-10 0,-5.54 -4.45999,-10 -10,-10 h -30 v -48 h 30 c 5.54001,0 10,-4.45999 10,-10 0,-5.54 -4.45999,-10 -10,-10 h -30 v -48 h 30 c 5.54001,0 10,-4.46 10,-10 0,-5.54 -4.45999,-10 -10,-10 H 410 V 90 C 410,67.84 392.15999,50 370,50 h -8 V 20 c 0,-5.54 -4.45999,-10 -10,-10 -5.54001,0 -10,4.46 -10,10 V 50 H 294 V 20 c 0,-5.54 -4.45999,-10 -10,-10 -5.54001,0 -10,4.46 -10,10 V 50 H 226 V 20 c 0,-5.54 -4.45999,-10 -10,-10 -5.54001,0 -10,4.46 -10,10 V 50 H 158 V 20 c 0,-5.54 -4.46,-10 -10,-10 z"
         id="rect3013" /><path
         style="color:#000000;fill:#000000;stroke-linecap:round;stroke-linejoin:round;-inkscape-stroke:none;paint-order:markers fill stroke"
         d="m 230,270 c -5.52262,5.5e-4 -9.99945,4.47738 -10,10 v 110 h -60 c -8.90637,0.003 -13.36587,10.77036 -7.07031,17.07031 l 90,90 c 3.9053,3.90368 10.23532,3.90368 14.14062,0 l 90,-90 C 353.36587,400.77036 348.90637,390.0035 340,390 H 280 V 280 c -5.5e-4,-5.52262 -4.47738,-9.99945 -10,-10 z"
         id="path14034" /></g></g></g>
</svg>
