<?xml version="1.0" encoding="UTF-8" standalone="no"?>
<svg
   height="500"
   width="500"
   id="svg835"
   version="1.1"
   viewBox="0 0 500 500"
   role="img"
   class="svg-inline--fa fa-level-up-alt fa-w-10"
   data-icon="level-up-alt"
   data-prefix="fas"
   focusable="false"
   aria-hidden="true"
   xmlns="http://www.w3.org/2000/svg"
   xmlns:svg="http://www.w3.org/2000/svg"
   xmlns:rdf="http://www.w3.org/1999/02/22-rdf-syntax-ns#"
   xmlns:cc="http://creativecommons.org/ns#"
   xmlns:dc="http://purl.org/dc/elements/1.1/">
  <metadata
     id="metadata841">
    <rdf:RDF>
      <cc:Work
         rdf:about="">
        <dc:format>image/svg+xml</dc:format>
        <dc:type
           rdf:resource="http://purl.org/dc/dcmitype/StillImage" />
        <dc:title />
      </cc:Work>
    </rdf:RDF>
  </metadata>
  <defs
     id="defs839" />
  <g
     transform="matrix(1.5603762,0,0,2.5745146,-880.20908,-158.02791)"
     style="font-style:normal;font-variant:normal;font-weight:bold;font-stretch:normal;font-size:113.333px;line-height:1.25;font-family:Helvetica;-inkscape-font-specification:'Helvetica Bold'"
     id="text2319"
     aria-label="FA">
    <path
       id="path2333"
       d="m 567.30491,63.434423 h 57.8286 v 14.33264 h -40.89506 v 18.759711 h 35.80393 V 110.6934 h -35.80393 v 34.19912 h -16.93354 z" />
    <path
       id="path2335"
       d="m 652.69202,114.06904 h 20.69656 L 663.20632,81.97278 Z m 1.05143,-50.745294 h 19.25776 l 28.88663,81.568774 h -18.48302 l -5.25714,-16.76753 h -30.04874 l -5.64452,16.76753 h -17.81895 z m 9.5182,0 z" />
  </g>
  <g
     transform="matrix(1.7675057,0,0,2.5383509,-724.97533,-359.64672)"
     style="font-style:normal;font-variant:normal;font-weight:bold;font-stretch:normal;font-size:113.333px;line-height:1.25;font-family:Helvetica;-inkscape-font-specification:'Helvetica Bold'"
     id="text2323"
     aria-label="48">
    <path
       id="path2338"
       d="m 627.6919,207.01742 h -9.07549 v 17.26557 H 603.177 v -17.26557 h -31.76423 v -13.77926 l 29.49536,-48.69777 h 17.70828 v 50.13657 h 9.07549 z M 603.177,194.67696 v -34.64183 l -20.08783,34.64183 z" />
    <path
       id="path2340"
       d="m 650.87868,200.98553 q 0,5.92121 3.04361,9.18617 3.09895,3.26497 8.52211,3.26497 5.42317,0 8.46678,-3.26497 3.09895,-3.26496 3.09895,-9.18617 0,-6.14256 -3.15429,-9.29685 -3.09895,-3.20962 -8.41144,-3.20962 -5.31248,0 -8.46677,3.20962 -3.09895,3.15429 -3.09895,9.29685 z m -16.38016,1.05143 q 0,-6.75128 3.04361,-12.22978 3.09895,-5.4785 9.02016,-8.24542 -5.81053,-3.87369 -7.58136,-8.35609 -1.71549,-4.53775 -1.71549,-8.46678 0,-8.74346 6.58527,-14.88602 6.58527,-6.1979 18.59369,-6.1979 12.00843,0 18.5937,6.1979 6.58527,6.14256 6.58527,14.88602 0,3.92903 -1.77083,8.46678 -1.71549,4.4824 -7.52602,7.80271 5.92121,3.3203 8.90948,8.7988 2.98827,5.4785 2.98827,12.22978 0,10.12692 -7.52602,17.26558 -7.47068,7.08331 -20.91791,7.08331 -13.44722,0 -20.36452,-7.08331 -6.9173,-7.13866 -6.9173,-17.26558 z m 17.81896,-35.52724 q 0,4.37173 2.65624,7.13865 2.71158,2.76692 7.47068,2.76692 4.81444,0 7.41535,-2.76692 2.65624,-2.76692 2.65624,-7.13865 0,-4.7591 -2.65624,-7.41534 -2.60091,-2.71158 -7.41535,-2.71158 -4.7591,0 -7.47068,2.71158 -2.65624,2.65624 -2.65624,7.41534 z" />
  </g>
  <g
     transform="matrix(1.5877969,0,0,2.5745144,-649.67111,-338.53323)"
     style="font-style:normal;font-variant:normal;font-weight:bold;font-stretch:normal;font-size:113.333px;line-height:1.25;font-family:Helvetica;-inkscape-font-specification:'Helvetica Bold'"
     id="text2327"
     aria-label="B4">
    <path
       id="path2343"
       d="m 604.9286,256.36113 v 17.98497 h 20.03249 q 5.36782,0 8.68812,-1.99218 3.37565,-2.04752 3.37565,-7.19399 0,-5.69985 -4.42707,-7.52602 -3.81835,-1.27278 -9.73956,-1.27278 z m 0,31.48754 v 21.74798 h 20.03249 q 5.36782,0 8.35609,-1.4388 5.42317,-2.65624 5.42317,-10.18226 0,-6.36391 -5.25715,-8.74346 -2.93293,-1.32812 -8.24542,-1.38346 z m 23.35279,-45.65417 q 14.9967,0.22136 21.24994,8.68813 3.76301,5.20181 3.76301,12.45114 0,7.47068 -3.76301,12.00842 -2.10286,2.54557 -6.1979,4.64843 6.25324,2.26887 9.40753,7.19399 3.20962,4.92511 3.20962,11.95309 0,7.24932 -3.65233,13.00452 -2.32421,3.81834 -5.81053,6.41925 -3.92903,2.98827 -9.29685,4.09504 -5.31248,1.10677 -11.56572,1.10677 H 588.65911 V 242.1945 Z" />
    <path
       id="path2345"
       d="m 720.91784,306.4977 h -9.07549 v 17.26558 H 696.40294 V 306.4977 h -31.76423 v -13.77926 l 29.49535,-48.69777 h 17.70829 v 50.13657 h 9.07549 z m -24.5149,-12.34046 v -34.64182 l -20.08783,34.64182 z" />
  </g>
  <g
     transform="matrix(1.5234182,0,0,2.4325864,-888.67869,-611.96783)"
     style="font-style:normal;font-variant:normal;font-weight:bold;font-stretch:normal;font-size:113.333px;line-height:1.25;font-family:Helvetica;-inkscape-font-specification:'Helvetica Bold'"
     id="text2331"
     aria-label="7C">
    <path
       id="path2348"
       d="m 643.51514,385.94033 q -3.54165,3.48632 -9.85023,12.45114 -6.30857,8.90948 -10.56963,18.42768 -3.37564,7.47068 -6.08722,18.26166 -2.71158,10.79099 -2.71158,17.70828 h -16.38016 q 0.7194,-21.58196 14.16662,-44.87942 8.68813,-14.44332 14.554,-20.14317 h -40.00965 l 0.22135,-14.16663 h 56.6665 z" />
    <path
       id="path2350"
       d="m 651.92658,412.66877 q 0,-21.36062 11.45504,-32.92634 9.96091,-10.07158 25.34498,-10.07158 20.58588,0 30.10408,13.50256 5.25714,7.58136 5.64451,15.21806 h -17.04422 q -1.66015,-5.86587 -4.26105,-8.85414 -4.64843,-5.31249 -13.77926,-5.31249 -9.29685,0 -14.66467,7.52602 -5.36782,7.47068 -5.36782,21.1946 0,13.72392 5.64451,20.58588 5.69985,6.80662 14.44332,6.80662 8.96481,0 13.66858,-5.86587 2.6009,-3.15429 4.31639,-9.46286 h 16.87821 q -2.21354,13.33655 -11.34437,21.69264 -9.0755,8.3561 -23.29746,8.3561 -17.5976,0 -27.66919,-11.28903 -10.07158,-11.34437 -10.07158,-31.10017 z m 36.30197,-43.93867 z" />
  </g>
</svg>
