<?xml version="1.0" encoding="UTF-8" standalone="no"?>
<svg
   version="1.0"
   width="500"
   height="500"
   viewBox="0 0 500 500"
   preserveAspectRatio="xMidYMid meet"
   id="svg15"
   xmlns="http://www.w3.org/2000/svg"
   xmlns:svg="http://www.w3.org/2000/svg">
  <defs
     id="defs19" />
  <path
     d="m 150.56445,49.17814 c 9.37891,8.488867 10.14453,23.007032 1.62696,32.44336 l -68.867972,76.60078 c -4.220507,4.59375 -10.173242,7.36914 -16.470506,6.69923 -6.297267,1.05273 -12.383986,-1.43556 -16.843752,-6.69923 L 11.72697,119.94103 c -8.96929,-8.13476 -8.96929,-22.681642 0,-31.64902 8.968339,-8.967388 23.515217,-8.967388 32.482601,0 l 21.159962,21.12167 52.751557,-58.532024 c 8.42188,-9.426758 22.96876,-10.192383 32.44336,-1.703516 z m 0,153.16328 c 9.37891,8.42188 10.14453,22.96875 1.62696,32.44336 l -68.867972,76.56251 c -4.220507,4.59374 -10.173242,7.36913 -16.470506,6.69921 -6.297267,1.05274 -12.383986,-1.43554 -16.843752,-6.69921 L 11.72697,273.06603 c -8.96929,-8.13476 -8.96929,-22.68164 0,-31.67773 8.968339,-8.90039 23.515217,-8.90039 32.482601,0 l 21.159962,21.15039 52.751557,-58.57032 c 8.42188,-9.3789 22.96876,-10.14453 32.44336,-1.62695 z m 68.81056,-97.80859 c 0,-16.910744 13.68554,-30.625001 30.62499,-30.625001 h 214.37501 c 16.93945,0 30.62499,13.714257 30.62499,30.625001 0,16.93944 -13.68554,30.625 -30.62499,30.625 H 250 c -16.93945,0 -30.62499,-13.68556 -30.62499,-30.625 z m 0,153.125 c 0,-16.93945 13.68554,-30.625 30.62499,-30.625 h 214.37501 c 16.93945,0 30.62499,13.68555 30.62499,30.625 0,16.93946 -13.68554,30.625 -30.62499,30.625 H 250 c -16.93945,0 -30.62499,-13.68554 -30.62499,-30.625 z m -61.25001,153.125 c 0,-16.93945 13.68555,-30.625 30.62501,-30.625 h 275.625 c 16.93945,0 30.62499,13.68555 30.62499,30.625 0,16.93946 -13.68554,30.62501 -30.62499,30.62501 h -275.625 c -16.93946,0 -30.62501,-13.68555 -30.62501,-30.62501 z m -153.125,0 c 0,-25.36133 20.566602,-45.93749 45.937501,-45.93749 25.370898,0 45.937501,20.57616 45.937501,45.93749 0,25.36134 -20.566603,45.93751 -45.937501,45.93751 C 25.566602,456.72034 5,436.14417 5,410.78283 Z"
     id="path969"
     style="stroke-width:0.957031" />
</svg>
