<?xml version="1.0" encoding="UTF-8" standalone="no"?>
<svg
   height="500"
   width="500"
   id="svg875"
   version="1.1"
   viewBox="0 0 500 500"
   role="img"
   class="svg-inline--fa fa-question fa-w-12"
   data-icon="question"
   data-prefix="fas"
   focusable="false"
   aria-hidden="true"
   xmlns="http://www.w3.org/2000/svg"
   xmlns:svg="http://www.w3.org/2000/svg"
   xmlns:rdf="http://www.w3.org/1999/02/22-rdf-syntax-ns#"
   xmlns:cc="http://creativecommons.org/ns#"
   xmlns:dc="http://purl.org/dc/elements/1.1/">
  <metadata
     id="metadata881">
    <rdf:RDF>
      <cc:Work
         rdf:about="">
        <dc:format>image/svg+xml</dc:format>
        <dc:type
           rdf:resource="http://purl.org/dc/dcmitype/StillImage" />
        <dc:title />
      </cc:Work>
    </rdf:RDF>
  </metadata>
  <defs
     id="defs879" />
  <path
     style="stroke-width:0.957031"
     id="path873"
     d="M 250.45065,5 C 174.06137,5 124.58382,36.297793 85.738876,92.114727 78.692255,102.24012 80.864715,116.12281 90.694383,123.57617 l 41.284417,31.30354 c 9.92728,7.52705 24.0521,5.76707 31.82416,-3.96977 23.97267,-30.0326 41.75527,-47.32424 79.20103,-47.32424 29.44211,0 65.85906,18.94826 65.85906,47.49842 0,21.58297 -17.81705,32.66731 -46.88783,48.96555 -33.90092,19.00664 -78.76271,42.66062 -78.76271,101.83291 V 311.25 c 0,12.68545 10.2833,22.96875 22.96875,22.96875 h 69.35701 c 12.68545,0 22.96875,-10.2833 22.96875,-22.96875 v -5.52494 C 298.50702,264.7067 418.39241,262.9984 418.39241,152 418.39337,68.409062 331.68442,5 250.45065,5 Z m -9.59041,357.41193 c -36.55476,0 -66.29451,29.73975 -66.29451,66.29452 0,36.5538 29.73975,66.29355 66.29451,66.29355 36.55477,0 66.29451,-29.73975 66.29451,-66.29451 0,-36.55477 -29.73974,-66.29356 -66.29451,-66.29356 z"
     fill="currentColor" />
</svg>
