<?xml version="1.0" encoding="UTF-8" standalone="no"?>
<svg
   aria-hidden="true"
   focusable="false"
   data-prefix="fas"
   data-icon="redo-alt"
   class="svg-inline--fa fa-redo-alt fa-w-16"
   role="img"
   viewBox="0 0 500 500"
   version="1.1"
   id="svg4"
   width="500"
   height="500"
   xmlns="http://www.w3.org/2000/svg"
   xmlns:svg="http://www.w3.org/2000/svg"
   xmlns:rdf="http://www.w3.org/1999/02/22-rdf-syntax-ns#"
   xmlns:cc="http://creativecommons.org/ns#"
   xmlns:dc="http://purl.org/dc/elements/1.1/">
  <metadata
     id="metadata10">
    <rdf:RDF>
      <cc:Work
         rdf:about="">
        <dc:format>image/svg+xml</dc:format>
        <dc:type
           rdf:resource="http://purl.org/dc/dcmitype/StillImage" />
        <dc:title />
      </cc:Work>
    </rdf:RDF>
  </metadata>
  <defs
     id="defs8" />
  <path
     d="M 250.4495,5.0001992 C 315.91686,5.1177597 375.35702,30.915864 419.24166,72.854332 L 454.52462,37.571368 C 469.46172,22.63526 495,33.213727 495,54.337074 V 186.77439 c 0,13.09466 -10.61502,23.70968 -23.70968,23.70968 H 338.85301 c -21.12335,0 -31.70182,-25.53828 -16.76571,-40.47538 l 41.24496,-41.24496 C 332.84161,100.21431 293.38772,84.399957 251.47198,84.038385 160.19169,83.250038 83.248851,157.1205 84.038186,251.43068 84.787016,340.89619 157.31887,415.96794 250,415.96794 c 40.6295,0 79.0293,-14.50044 109.29075,-41.0533 4.68562,-4.11067 11.76197,-3.86073 16.17,0.54631 l 39.18222,39.18222 c 4.81306,4.81306 4.57498,12.65998 -0.47617,17.22211 C 370.72375,471.10579 313.1527,495.0002 250,495.0002 114.69085,495.0002 5.0009879,385.31034 5,250.00218 4.9990121,114.84812 115.29544,4.7581629 250.4495,5.0001992 Z"
     id="path2"
     style="fill:currentColor;stroke-width:1" />
</svg>
