<?xml version="1.0" encoding="utf-8"?>
<!-- Generator: Adobe Illustrator 23.0.4, SVG Export Plug-In . SVG Version: 6.00 Build 0)  -->
<svg version="1.1" id="Layer_1" xmlns="http://www.w3.org/2000/svg" xmlns:xlink="http://www.w3.org/1999/xlink" x="0px" y="0px"
	 viewBox="0 0 496 496" style="enable-background:new 0 0 496 496;" xml:space="preserve">
<title>close</title>
<path d="M248,0C111,0,0,111,0,248s111,248,248,248s248-111,248-248S385,0,248,0z M369.6,313.1c4.7,4.7,4.7,12.3,0,17c0,0,0,0,0,0
	L330,369.6c-4.7,4.7-12.3,4.7-17,0c0,0,0,0,0,0L248,304l-65.1,65.6c-4.7,4.7-12.3,4.7-17,0c0,0,0,0,0,0L126.4,330
	c-4.7-4.7-4.7-12.3,0-17c0,0,0,0,0,0l65.6-65l-65.6-65.1c-4.7-4.7-4.7-12.3,0-17c0,0,0,0,0,0l39.6-39.6c4.7-4.7,12.3-4.7,17,0
	c0,0,0,0,0,0l65,65.7l65.1-65.6c4.7-4.7,12.3-4.7,17,0c0,0,0,0,0,0l39.6,39.6c4.7,4.7,4.7,12.3,0,17c0,0,0,0,0,0L304,248
	L369.6,313.1z"/>
</svg>
