<svg id="Layer_1" data-name="Layer 1" xmlns="http://www.w3.org/2000/svg" viewBox="0 0 576 511.9"><defs><style>.cls-1{fill:#b55400;}</style></defs><title>editDocument</title><path class="cls-1" d="M402.6,83.2l90.2,90.2a9.78,9.78,0,0,1,0,13.8L274.4,405.6l-92.8,10.3a19.45,19.45,0,0,1-21.5-21.5l10.3-92.8L388.8,83.2a9.78,9.78,0,0,1,13.8,0Zm162-22.9L515.8,11.5a39.11,39.11,0,0,0-55.2,0L425.2,46.9a9.78,9.78,0,0,0,0,13.8l90.2,90.2a9.78,9.78,0,0,0,13.8,0l35.4-35.4A39.11,39.11,0,0,0,564.6,60.3ZM384,346.2V448H64V128H293.8a12.3,12.3,0,0,0,8.5-3.5l40-40A12,12,0,0,0,333.8,64H48A48,48,0,0,0,0,112V464a48,48,0,0,0,48,48H400a48,48,0,0,0,48-48V306.2a12,12,0,0,0-20.5-8.5l-40,40A12.3,12.3,0,0,0,384,346.2Z" transform="translate(0 -0.1)"/></svg>