<?xml version="1.0" encoding="utf-8"?>
<!-- Generator: Adobe Illustrator 23.0.4, SVG Export Plug-In . SVG Version: 6.00 Build 0)  -->
<svg version="1.1" id="Layer_1" xmlns="http://www.w3.org/2000/svg" xmlns:xlink="http://www.w3.org/1999/xlink" x="0px" y="0px"
	 viewBox="0 0 576 511.9" style="enable-background:new 0 0 576 511.9;" xml:space="preserve">
<title>editDocument</title>
<path d="M402.6,83.1l90.2,90.2c3.8,3.8,3.8,10,0,13.8L274.4,405.5l-92.8,10.3c-10.7,1.2-20.3-6.5-21.5-17.2c-0.2-1.4-0.2-2.9,0-4.3
	l10.3-92.8L388.8,83.1C392.6,79.3,398.8,79.3,402.6,83.1L402.6,83.1z M564.6,60.2l-48.8-48.8c-15.3-15.2-39.9-15.2-55.2,0
	l-35.4,35.4c-3.8,3.8-3.8,10,0,13.8l90.2,90.2c3.8,3.8,10,3.8,13.8,0l35.4-35.4C579.8,100.1,579.8,75.5,564.6,60.2z M384,346.1
	v101.8H64v-320h229.8c3.2,0,6.2-1.3,8.5-3.5l40-40c4.7-4.7,4.7-12.3,0-17c-2.3-2.3-5.3-3.5-8.5-3.5H48c-26.5,0-48,21.5-48,48v352
	c0,26.5,21.5,48,48,48l0,0h352c26.5,0,48-21.5,48-48l0,0V306.1c0-6.6-5.3-12-12-12c-3.2,0-6.3,1.3-8.5,3.5l-40,40
	C385.3,339.9,384,342.9,384,346.1z"/>
</svg>
