<svg id="Layer_1" data-name="Layer 1" xmlns="http://www.w3.org/2000/svg" viewBox="0 0 512 512"><defs><style>.cls-1{fill:#b55400;}</style></defs><title>listen</title><path class="cls-1" d="M216,260a28,28,0,0,1-56,0,80,80,0,0,1,160,0,28,28,0,0,1-56,0,24,24,0,0,0-48,0ZM240,84C143,84,64,163,64,260a28,28,0,0,0,56,0,120,120,0,0,1,240,0c0,75.16-71,70.31-72,143.62V404a52.06,52.06,0,0,1-52,52,28,28,0,0,0,0,56A108.12,108.12,0,0,0,344,404.23C344.6,369.8,416,356,416,260,416,163,337.05,84,240,84ZM160,320a32,32,0,1,0,32,32A32,32,0,0,0,160,320ZM32,448a32,32,0,1,0,32,32A32,32,0,0,0,32,448ZM512,260c0-1.52,0-3-.05-4.53-1.87-115-75.79-217-184-254a28,28,0,1,0-18.1,53C395.79,83.86,454.5,165,456,256.46v.18c0,1.12,0,2.24,0,3.37a28,28,0,0,0,56,0ZM153,439,73,359,39,393l80,80L153,439Z" transform="translate(0 0)"/></svg>