<svg id="Layer_2" data-name="Layer 2" xmlns="http://www.w3.org/2000/svg" xmlns:xlink="http://www.w3.org/1999/xlink" viewBox="0 0 452.54 96"><defs><style>.cls-1{fill:none;}.cls-2{isolation:isolate;}.cls-3{clip-path:url(#clip-path);}.cls-4{fill:#5b0b0b;}.cls-5{fill:#5f0b0b;}.cls-6{fill:#620b0b;}.cls-7{fill:#650c0c;}.cls-8{fill:#680c0c;}.cls-9{fill:#3e0707;}.cls-10{fill:#400707;}.cls-11{fill:#5e0b0b;}.cls-12{clip-path:url(#clip-path-2);}.cls-13{fill:#400808;}.cls-14{clip-path:url(#clip-path-3);}.cls-15{fill:#360606;}.cls-16{clip-path:url(#clip-path-4);}.cls-17{fill:#430808;}.cls-18{fill:#420808;}.cls-19{fill:#610b0b;}.cls-20{clip-path:url(#clip-path-5);}.cls-21{clip-path:url(#clip-path-6);}.cls-22{fill:#450808;}.cls-23{clip-path:url(#clip-path-7);}.cls-24{fill:#470808;}.cls-25{clip-path:url(#clip-path-8);}.cls-26{fill:#440808;}.cls-27{clip-path:url(#clip-path-9);}.cls-28{fill:#4a0808;}.cls-29{fill:#4c0909;}.cls-30{clip-path:url(#clip-path-10);}.cls-31{clip-path:url(#clip-path-11);}.cls-32{fill:#4f0909;}.cls-33{fill:#510a0a;}.cls-34{clip-path:url(#clip-path-12);}.cls-35{clip-path:url(#clip-path-13);}.cls-36{fill:#6c0d0d;}.cls-37{fill:#6f0d0d;}.cls-38{fill:#490808;}.cls-39{fill:#6b0d0d;}.cls-40{clip-path:url(#clip-path-14);}.cls-41{fill:#540a0a;}.cls-42{fill:#560a0a;}.cls-43{fill:#4b0909;}.cls-44{clip-path:url(#clip-path-15);}.cls-45{clip-path:url(#clip-path-16);}.cls-46{fill:#590b0b;}.cls-47{fill:#4d0909;}.cls-48{fill:#720e0e;}.cls-49{clip-path:url(#clip-path-17);}.cls-50{clip-path:url(#clip-path-18);}.cls-51{clip-path:url(#clip-path-19);}.cls-52{clip-path:url(#clip-path-20);}.cls-53{fill:#580a0a;}.cls-54{fill:#550a0a;}.cls-55{fill:#660c0c;}.cls-56{clip-path:url(#clip-path-21);}.cls-57{fill:#8a1010;}.cls-58{fill:#390707;}.cls-59{clip-path:url(#clip-path-22);}.cls-60{fill:#570a0a;}.cls-61{fill:#3b0707;}.cls-62{clip-path:url(#clip-path-23);}.cls-63{fill:#3a0606;}.cls-64{fill:#380606;}.cls-65{fill:#5a0a0a;}.cls-66{clip-path:url(#clip-path-24);}.cls-67{fill:#3c0707;}.cls-68{clip-path:url(#clip-path-25);}.cls-69{clip-path:url(#clip-path-26);}.cls-70{fill:#5c0b0b;}.cls-71{fill:#760e0e;}.cls-72{clip-path:url(#clip-path-27);}.cls-73{fill:#590a0a;}.cls-74{clip-path:url(#clip-path-28);}.cls-75{clip-path:url(#clip-path-29);}.cls-76{clip-path:url(#clip-path-30);}.cls-77{clip-path:url(#clip-path-31);}.cls-78{fill:#510909;}.cls-79{clip-path:url(#clip-path-32);}.cls-80{clip-path:url(#clip-path-33);}.cls-81{fill:#4a0909;}.cls-82{clip-path:url(#clip-path-34);}.cls-83{fill:#710e0e;}</style><clipPath id="clip-path" transform="translate(2.27 -208)"><path class="cls-1" d="M410.24,208a30.75,30.75,0,0,1,12.19,2.5H418a30.83,30.83,0,0,0-12.2-2.5Z"/></clipPath><clipPath id="clip-path-2" transform="translate(2.27 -208)"><path class="cls-1" d="M414.4,208h0Z"/></clipPath><clipPath id="clip-path-3" transform="translate(2.27 -208)"><path class="cls-1" d="M416.05,304h4.48c-.59,0-1.12,0-1.65,0H414.4C414.93,304,415.46,304,416.05,304Z"/></clipPath><clipPath id="clip-path-4" transform="translate(2.27 -208)"><path class="cls-1" d="M414.75,208h4.48l.89,0,.61,0,.94.07.55.05h-4.48l-.55-.05-.94-.07-.61,0Z"/></clipPath><clipPath id="clip-path-5" transform="translate(2.27 -208)"><path class="cls-1" d="M417.74,208.18h4.48l.75.1h-4.48Z"/></clipPath><clipPath id="clip-path-6" transform="translate(2.27 -208)"><path class="cls-1" d="M418.49,208.28H423l.65.08h-4.48Z"/></clipPath><clipPath id="clip-path-7" transform="translate(2.27 -208)"><path class="cls-1" d="M419.14,208.36h4.53c.47.07.93.16,1.39.25l.49.11h-4.48l-.48-.11c-.46-.09-.93-.18-1.39-.25Z"/></clipPath><clipPath id="clip-path-8" transform="translate(2.27 -208)"><path class="cls-1" d="M421.07,208.73h4.48l.53.12H421.6Z"/></clipPath><clipPath id="clip-path-9" transform="translate(2.27 -208)"><path class="cls-1" d="M421.6,208.85h4.48l.31.08.85.22.67.2.84.27h-4.48l-.84-.27-.67-.2-.84-.22Z"/></clipPath><clipPath id="clip-path-10" transform="translate(2.27 -208)"><path class="cls-1" d="M424.27,209.62h4.48l.38.13h-4.48Z"/></clipPath><clipPath id="clip-path-11" transform="translate(2.27 -208)"><path class="cls-1" d="M424.65,209.75h4.48l.28.1.64.24.74.3.62.27h-4.48c-.2-.1-.41-.18-.62-.27l-.74-.3-.64-.24Z"/></clipPath><clipPath id="clip-path-12" transform="translate(2.27 -208)"><path class="cls-1" d="M426.93,210.66h4.48l.81.37h-4.47Z"/></clipPath><clipPath id="clip-path-13" transform="translate(2.27 -208)"><path class="cls-1" d="M422.43,210.5a31.49,31.49,0,0,1,10,6.85h-4.48a31.26,31.26,0,0,0-9.95-6.83h0l0,0h4.47Z"/></clipPath><clipPath id="clip-path-14" transform="translate(2.27 -208)"><path class="cls-1" d="M427.75,211h4.47l.23.1.08.05c.34.16.67.34,1,.52l.71.39.85.5.14.09h-4.48l-.13-.09-.86-.5-.7-.39c-.34-.18-.67-.36-1-.52l-.08-.05Z"/></clipPath><clipPath id="clip-path-15" transform="translate(2.27 -208)"><path class="cls-1" d="M430.75,212.68h4.48l.19.12H431Z"/></clipPath><clipPath id="clip-path-16" transform="translate(2.27 -208)"><path class="cls-1" d="M431,212.8h4.47l1,.65.15.11,1,.7.34.26.77.62.32.27h-4.48l-.32-.27-.77-.62-.34-.26-1-.7-.15-.11Z"/></clipPath><clipPath id="clip-path-17" transform="translate(2.27 -208)"><path class="cls-1" d="M434.48,215.41H439l.15.13h-4.47Z"/></clipPath><clipPath id="clip-path-18" transform="translate(2.27 -208)"><path class="cls-1" d="M432.42,217.35a32.23,32.23,0,0,1,6.74,10.18h-4.48A32.18,32.18,0,0,0,428,217.38h0l0,0h4.48Z"/></clipPath><clipPath id="clip-path-19" transform="translate(2.27 -208)"><path class="cls-1" d="M439.16,227.53h0Z"/></clipPath><clipPath id="clip-path-20" transform="translate(2.27 -208)"><path class="cls-1" d="M437.15,272h4.48c0,17.67-14.05,32-31.39,32h-4.48C423.1,304,437.15,289.67,437.15,272Z"/></clipPath><clipPath id="clip-path-21" transform="translate(2.27 -208)"><path class="cls-1" d="M439.16,227.54A32.43,32.43,0,0,1,441.63,240h-4.48a32.42,32.42,0,0,0-2.46-12.46h4.47Z"/></clipPath><clipPath id="clip-path-22" transform="translate(2.27 -208)"><path class="cls-1" d="M438.54,292.45H443c0,.06-.09.1-.13.16-.28.34-.57.68-.87,1l-.3.32c-.25.27-.5.54-.76.8l-.41.4-.71.68-.49.43-.68.58c-.32.27-.65.54-1,.79s-.85.63-1.26.91-.83.57-1.26.83-.88.53-1.32.78-.61.32-.92.47l-.58.3c-.41.2-.82.39-1.24.57s-.75.31-1.12.45l-.63.24c-.37.13-.75.27-1.13.39-1,.31-2,.57-3,.79-.54.11-1.05.2-1.56.28s-1.05.15-1.57.2-1.05.1-1.57.13h-4.48c.52,0,1-.07,1.57-.13s1-.12,1.57-.2,1-.17,1.56-.28c1-.22,2-.48,3-.79.38-.12.76-.26,1.13-.39l.63-.24c.37-.14.74-.28,1.12-.45s.83-.37,1.24-.57c.2-.09.39-.2.58-.3s.61-.3.92-.47.87-.5,1.32-.78.85-.54,1.27-.83.81-.57,1.25-.91.66-.52,1-.79.46-.39.69-.58l.48-.43.71-.68c.14-.13.28-.26.41-.4s.51-.53.76-.8l.3-.32c.3-.33.59-.67.87-1C438.45,292.55,438.5,292.51,438.54,292.45Z"/></clipPath><clipPath id="clip-path-23" transform="translate(2.27 -208)"><path class="cls-1" d="M441.17,288.72h4.48l-.17.26c-.23.38-.46.75-.71,1.11l-.33.48c-.21.3-.43.6-.65.89s-.41.55-.62.81l-.12.15,0,0h-4.48l0,0,.12-.15c.21-.26.42-.54.62-.81s.44-.59.65-.89l.34-.48c.24-.36.47-.73.7-1.11C441.06,288.89,441.12,288.81,441.17,288.72Z"/></clipPath><clipPath id="clip-path-24" transform="translate(2.27 -208)"><path class="cls-1" d="M442.88,285.47h4.48l-.08.17c-.19.41-.39.81-.59,1.21-.06.11-.11.22-.17.32-.26.51-.55,1-.84,1.5l0,.05h-4.48l0-.05c.3-.49.58-1,.85-1.5.05-.1.1-.21.16-.32.2-.4.4-.8.59-1.21Z"/></clipPath><clipPath id="clip-path-25" transform="translate(2.27 -208)"><path class="cls-1" d="M444.11,282.34h4.48c0,.13-.09.27-.14.41s-.09.27-.14.41c-.16.43-.32.86-.5,1.28s-.3.7-.45,1h-4.48c.15-.33.3-.67.45-1s.34-.85.5-1.28c.05-.14.1-.28.14-.41S444.06,282.47,444.11,282.34Z"/></clipPath><clipPath id="clip-path-26" transform="translate(2.27 -208)"><path class="cls-1" d="M434.64,215.54h4.47c.21.18.42.36.62.55l.31.27c.34.31.67.64,1,1l.29.3c.23.24.46.48.68.73l.36.41.58.68.35.43.54.71.33.43.54.79.27.39q.39.59.75,1.2c.27.45.52.89.76,1.34s.48.92.69,1.38a29.9,29.9,0,0,1,1.19,2.87c.18.48.33.94.47,1.41a1.87,1.87,0,0,1,.07.22c.12.4.23.8.34,1.21,0,.1.05.2.07.31h-4.47c0-.11-.06-.21-.08-.31-.11-.41-.22-.81-.34-1.21l-.06-.22c-.15-.47-.3-.93-.47-1.41-.35-1-.75-1.93-1.19-2.87-.22-.46-.45-.92-.7-1.38s-.49-.89-.75-1.34-.5-.81-.76-1.2l-.27-.39-.54-.79-.33-.43-.54-.71-.35-.43c-.19-.23-.38-.46-.58-.68s-.23-.28-.35-.41l-.69-.73-.28-.3c-.33-.33-.66-.66-1-1l-.3-.27Z"/></clipPath><clipPath id="clip-path-27" transform="translate(2.27 -208)"><path class="cls-1" d="M444.84,232.14h4.47a1.17,1.17,0,0,1,.05.2h-4.48C444.87,232.27,444.85,232.2,444.84,232.14Z"/></clipPath><clipPath id="clip-path-28" transform="translate(2.27 -208)"><path class="cls-1" d="M445,279.25h4.48c0,.13-.05.25-.08.38s-.12.48-.19.73-.2.76-.31,1.14v0l-.27.81h-4.48c.09-.27.19-.54.27-.81v0c.11-.38.21-.76.32-1.14l.18-.73C444.92,279.5,445,279.38,445,279.25Z"/></clipPath><clipPath id="clip-path-29" transform="translate(2.27 -208)"><path class="cls-1" d="M445.53,276.07H450c0,.12,0,.26-.05.38,0,.28-.08.56-.12.83s-.09.51-.13.77-.11.54-.17.81l-.09.39H445l.09-.39c.06-.27.12-.54.17-.81s.09-.51.13-.77.09-.55.12-.83C445.5,276.33,445.52,276.19,445.53,276.07Z"/></clipPath><clipPath id="clip-path-30" transform="translate(2.27 -208)"><path class="cls-1" d="M444.88,232.34h4.48c.05.2.09.4.13.59s.14.65.21,1l.12.69c.05.32.1.64.14,1s.09.67.13,1l0,.27h-4.48l0-.27c0-.34-.08-.67-.12-1l-.15-1-.12-.69c-.06-.32-.13-.65-.2-1S444.93,232.54,444.88,232.34Z"/></clipPath><clipPath id="clip-path-31" transform="translate(2.27 -208)"><path class="cls-1" d="M445.64,236.85h4.48c0,.36.06.73.08,1.09,0,.18,0,.35,0,.53h-4.47c0-.18,0-.35,0-.53C445.7,237.58,445.68,237.21,445.64,236.85Z"/></clipPath><clipPath id="clip-path-32" transform="translate(2.27 -208)"><path class="cls-1" d="M445.78,272.65h4.48c0,.15,0,.29,0,.44,0,.32,0,.64-.05,1s0,.48-.05.73l-.09.92c0,.12,0,.24-.05.37h-4.48c0-.13,0-.25.05-.37l.09-.92c0-.25,0-.49.05-.73s0-.64,0-1C445.77,272.94,445.78,272.8,445.78,272.65Z"/></clipPath><clipPath id="clip-path-33" transform="translate(2.27 -208)"><path class="cls-1" d="M445.79,272h4.48c0,.22,0,.43,0,.65h-4.48C445.78,272.43,445.79,272.22,445.79,272Z"/></clipPath><clipPath id="clip-path-34" transform="translate(2.27 -208)"><path class="cls-1" d="M445.76,238.47h4.47c0,.51,0,1,0,1.53h-4.48Q445.79,239.24,445.76,238.47Z"/></clipPath></defs><title>minusIcon</title><g class="cls-2"><g class="cls-2"><g class="cls-3"><g class="cls-2"><path class="cls-4" d="M405.76,208h0" transform="translate(2.27 -208)"/><path class="cls-5" d="M406.68,208h4.48a31.91,31.91,0,0,1,3.81.35h-4.48a31.91,31.91,0,0,0-3.81-.35" transform="translate(2.27 -208)"/><path class="cls-6" d="M410.49,208.36H415a29.86,29.86,0,0,1,3.69.8h-4.48a29.86,29.86,0,0,0-3.69-.8" transform="translate(2.27 -208)"/><path class="cls-7" d="M414.18,209.16h4.48a30,30,0,0,1,3.73,1.33h-4.47a30.18,30.18,0,0,0-3.74-1.33" transform="translate(2.27 -208)"/><path class="cls-8" d="M417.92,210.49h4.47a30.06,30.06,0,0,1,4.14,2.15h-4.48a30,30,0,0,0-4.13-2.15" transform="translate(2.27 -208)"/></g></g></g><polygon class="cls-4" points="31.39 0 35.87 0 412.51 0 408.03 0 31.39 0"/><polygon class="cls-4" points="31.39 0 35.87 0 412.51 0 408.03 0 31.39 0"/><polygon class="cls-9" points="408.03 0 412.51 0 421.15 0 416.67 0 408.03 0"/><polygon class="cls-10" points="408.83 0.01 413.31 0.01 421.5 0.01 417.02 0.01 408.83 0.01"/><path class="cls-11" d="M414.75,208h0Z" transform="translate(2.27 -208)"/><g class="cls-2"><g class="cls-12"><g class="cls-2"><path class="cls-9" d="M414.4,208h0" transform="translate(2.27 -208)"/><path class="cls-13" d="M414.51,208h0" transform="translate(2.27 -208)"/><path class="cls-9" d="M414.67,208h0" transform="translate(2.27 -208)"/></g></g></g><g class="cls-2"><g class="cls-14"><g class="cls-2"><path class="cls-15" d="M416.05,304h4.48c-.59,0-1.12,0-1.65,0H414.4c.53,0,1.06,0,1.65,0" transform="translate(2.27 -208)"/></g></g></g><g class="cls-2"><g class="cls-16"><g class="cls-2"><path class="cls-10" d="M414.75,208h0" transform="translate(2.27 -208)"/><path class="cls-17" d="M415.31,208h4.81l.61,0,.94.07.55.05h-4.48l-.55-.05-.94-.07-.61,0h-.33" transform="translate(2.27 -208)"/></g></g></g><polygon class="cls-18" points="412.19 0.28 416.67 0.28 425.24 0.28 420.76 0.28 412.19 0.28"/><path class="cls-19" d="M417.74,208.18l.75.1h-8.57l-.83-.1h-.22c-.47,0-.93-.08-1.4-.1h-.26c-.22,0-.43,0-.65,0h8.19l.89,0,.61,0,.94.07Z" transform="translate(2.27 -208)"/><g class="cls-2"><g class="cls-20"><g class="cls-2"><path class="cls-17" d="M417.74,208.18h4.48l.75.1h-4.48l-.75-.1" transform="translate(2.27 -208)"/></g></g></g><g class="cls-2"><g class="cls-21"><g class="cls-2"><path class="cls-22" d="M418.49,208.28H423l.65.08h-4.48l-.65-.08" transform="translate(2.27 -208)"/></g></g></g><g class="cls-2"><g class="cls-23"><g class="cls-2"><path class="cls-22" d="M419.14,208.36h0" transform="translate(2.27 -208)"/><path class="cls-24" d="M419.19,208.37h4.48c.47.07.93.16,1.39.25l.49.11h-4.48l-.48-.11c-.46-.09-.93-.18-1.39-.25h0" transform="translate(2.27 -208)"/></g></g></g><g class="cls-2"><g class="cls-25"><g class="cls-2"><path class="cls-24" d="M421.07,208.73h4.48l.53.12H421.6l-.53-.12" transform="translate(2.27 -208)"/></g></g></g><polygon class="cls-26" points="415.29 0.85 419.76 0.85 428.35 0.85 423.87 0.85 415.29 0.85"/><path class="cls-7" d="M421.07,208.73l.53.12H413l-.9-.2h0c-.36-.08-.73-.15-1.1-.21l-.27-.05h-.11l-.17,0-.51-.07h8.57l.65.08h.06c.46.07.93.16,1.39.25Z" transform="translate(2.27 -208)"/><g class="cls-2"><g class="cls-27"><g class="cls-2"><path class="cls-28" d="M421.6,208.85h4.48l.31.08.85.22.13,0h-4.48l-.13,0-.84-.22-.32-.08" transform="translate(2.27 -208)"/><path class="cls-29" d="M422.89,209.19h4.48l.54.16.84.27h-4.48l-.84-.27-.54-.16" transform="translate(2.27 -208)"/></g></g></g><polygon class="cls-24" points="418.31 1.75 422.79 1.75 431.4 1.75 426.93 1.75 418.31 1.75"/><path class="cls-8" d="M424.27,209.62l.38.13H416l-.52-.17-.66-.21-.89-.26c-.19-.05-.38-.11-.58-.15l-.38-.11h8.59l.32.08.84.22.67.2Z" transform="translate(2.27 -208)"/><g class="cls-2"><g class="cls-30"><g class="cls-2"><path class="cls-29" d="M424.27,209.62h4.48l.38.13h-4.48l-.38-.13" transform="translate(2.27 -208)"/></g></g></g><g class="cls-2"><g class="cls-31"><g class="cls-2"><path class="cls-32" d="M424.65,209.75h4.48l.28.1.64.24.74.3.23.09h-4.48l-.23-.09-.74-.3-.64-.24-.28-.1" transform="translate(2.27 -208)"/><path class="cls-33" d="M426.54,210.48H431l.39.18h-4.48l-.39-.18" transform="translate(2.27 -208)"/></g></g></g><g class="cls-2"><g class="cls-34"><g class="cls-2"><path class="cls-33" d="M426.93,210.66h4.48l.81.37h-4.47l-.82-.37" transform="translate(2.27 -208)"/></g></g></g><g class="cls-2"><g class="cls-35"><g class="cls-2"><path class="cls-8" d="M417.92,210.49h4.47a30.06,30.06,0,0,1,4.14,2.15h-4.48a30,30,0,0,0-4.13-2.15" transform="translate(2.27 -208)"/><path class="cls-36" d="M422.05,212.64h4.48a31.43,31.43,0,0,1,5.59,4.42h-4.47a31.5,31.5,0,0,0-5.6-4.42" transform="translate(2.27 -208)"/><path class="cls-37" d="M427.65,217.06h4.47a32,32,0,0,1,6.39,9H434a32,32,0,0,0-6.38-9" transform="translate(2.27 -208)"/></g></g></g><polygon class="cls-38" points="421.39 3.03 425.87 3.03 434.5 3.03 430.02 3.03 421.39 3.03"/><path class="cls-39" d="M426.93,210.66l.82.37h-8.63l-1.05-.48-.28-.11-.55-.24-.42-.15-.46-.18-.32-.12h8.61l.28.1.64.24.74.3C426.52,210.48,426.73,210.56,426.93,210.66Z" transform="translate(2.27 -208)"/><g class="cls-2"><g class="cls-40"><g class="cls-2"><path class="cls-41" d="M427.75,211h4.47l.23.1.08.05c.34.16.67.34,1,.52l.71.39.85.5,0,0h-4.48l0,0-.86-.5-.7-.39c-.34-.18-.67-.36-1-.52l-.08-.05-.22-.1" transform="translate(2.27 -208)"/><path class="cls-42" d="M430.65,212.61h4.48l.1.07h-4.48l-.1-.07" transform="translate(2.27 -208)"/></g></g></g><polygon class="cls-43" points="424.58 4.81 429.06 4.81 437.69 4.81 433.22 4.81 424.58 4.81"/><path class="cls-37" d="M430.75,212.68l.2.12h-8.64l-.11-.06c-.47-.3-.95-.59-1.44-.86s-1-.55-1.54-.79l-.1-.06h8.63l.22.1.08.05c.34.16.67.34,1,.52l.7.39.86.5Z" transform="translate(2.27 -208)"/><g class="cls-2"><g class="cls-44"><g class="cls-2"><path class="cls-42" d="M430.75,212.68h4.48l.19.12H431l-.2-.12" transform="translate(2.27 -208)"/></g></g></g><g class="cls-2"><g class="cls-45"><g class="cls-2"><path class="cls-46" d="M431,212.8h4.47l1,.65.15.11,1,.7.34.26.77.62.32.27h-4.48l-.32-.27-.77-.62-.34-.26-1-.7-.15-.11-1-.65" transform="translate(2.27 -208)"/></g></g></g><polygon class="cls-47" points="428.27 7.54 432.75 7.54 441.38 7.54 436.91 7.54 428.27 7.54"/><path class="cls-48" d="M434.48,215.41l.16.13H426l-.16-.13-.32-.27-.77-.62-.34-.26-1-.7-.15-.11-1-.65H431l1,.65.15.11,1,.7.34.26.77.62Z" transform="translate(2.27 -208)"/><g class="cls-2"><g class="cls-49"><g class="cls-2"><path class="cls-46" d="M434.48,215.41H439l.15.13h-4.47l-.16-.13" transform="translate(2.27 -208)"/></g></g></g><g class="cls-2"><g class="cls-50"><g class="cls-2"><path class="cls-37" d="M427.65,217.06h4.47a32,32,0,0,1,6.39,9H434a32,32,0,0,0-6.38-9" transform="translate(2.27 -208)"/><path class="cls-36" d="M434,226.07h4.48a31.82,31.82,0,0,1,2.35,6.87h-4.47a31.85,31.85,0,0,0-2.36-6.87" transform="translate(2.27 -208)"/></g></g></g><g class="cls-2"><g class="cls-51"><g class="cls-2"><path class="cls-36" d="M434,226.07h4.48a31.82,31.82,0,0,1,2.35,6.87h-4.47a31.85,31.85,0,0,0-2.36-6.87" transform="translate(2.27 -208)"/></g></g></g><g class="cls-2"><g class="cls-52"><g class="cls-2"><path class="cls-7" d="M437.15,272h4.48q0,1-.06,2h-4.48q.06-1,.06-2" transform="translate(2.27 -208)"/><path class="cls-6" d="M437.09,274h4.48a31.88,31.88,0,0,1-.48,3.94h-4.48a31.88,31.88,0,0,0,.48-3.94" transform="translate(2.27 -208)"/><path class="cls-5" d="M436.61,278h4.48a30.79,30.79,0,0,1-1,3.84h-4.47a32.63,32.63,0,0,0,.95-3.84" transform="translate(2.27 -208)"/><path class="cls-4" d="M435.66,281.79h4.47a31.82,31.82,0,0,1-1.54,4h-4.48a31.86,31.86,0,0,0,1.55-4" transform="translate(2.27 -208)"/><path class="cls-53" d="M434.11,285.77h4.48a31.87,31.87,0,0,1-2.54,4.44h-4.47a32.85,32.85,0,0,0,2.53-4.44" transform="translate(2.27 -208)"/><path class="cls-54" d="M431.58,290.21h4.47A31.15,31.15,0,0,1,410.24,304h-4.48a31.18,31.18,0,0,0,25.82-13.79" transform="translate(2.27 -208)"/></g></g></g><rect class="cls-55" x="439.42" y="32" width="4.48" height="31.99"/><g class="cls-2"><g class="cls-56"><g class="cls-2"><path class="cls-36" d="M434,226.07h4.48a31.82,31.82,0,0,1,2.35,6.87h-4.47a31.85,31.85,0,0,0-2.36-6.87" transform="translate(2.27 -208)"/><path class="cls-8" d="M436.39,232.94h4.47a32.92,32.92,0,0,1,.7,4.82h-4.48a32.91,32.91,0,0,0-.69-4.82" transform="translate(2.27 -208)"/><path class="cls-7" d="M437.08,237.76h4.48c.05.74.07,1.49.07,2.24h-4.48c0-.75,0-1.5-.07-2.24" transform="translate(2.27 -208)"/></g></g></g><path class="cls-57" d="M405.76,208h0c17.34,0,31.39,14.33,31.39,32v32c0,17.67-14,32-31.39,32H29.12c-17.34,0-31.39-14.33-31.39-32V240c0-17.67,14.05-32,31.39-32Z" transform="translate(2.27 -208)"/><polygon class="cls-58" points="432.18 84.46 436.65 84.46 445.29 84.46 440.81 84.46 432.18 84.46"/><g class="cls-2"><g class="cls-59"><g class="cls-2"><path class="cls-15" d="M438.54,292.45H443c0,.06-.09.1-.13.16-.28.34-.57.68-.87,1l-.3.32c-.25.27-.5.54-.76.8l-.41.4-.71.68-.49.43-.68.58c-.32.27-.65.54-1,.79s-.85.63-1.26.91-.83.57-1.26.83-.88.53-1.32.78-.61.32-.92.47l-.58.3c-.41.2-.82.39-1.24.57s-.75.31-1.12.45l-.63.24c-.37.13-.75.27-1.13.39-1,.31-2,.57-3,.79-.54.11-1.05.2-1.56.28s-1.05.15-1.57.2-1.05.1-1.57.13h-4.48c.52,0,1-.07,1.57-.13s1-.12,1.57-.2,1-.17,1.56-.28c1-.22,2-.48,3-.79.38-.12.76-.26,1.13-.39l.63-.24c.37-.14.74-.28,1.12-.45s.83-.37,1.24-.57c.2-.09.39-.2.58-.3s.61-.3.92-.47.87-.5,1.32-.78.85-.54,1.27-.83.81-.57,1.25-.91.66-.52,1-.79.46-.39.69-.58l.48-.43.71-.68c.14-.13.28-.26.41-.4s.51-.53.76-.8l.3-.32c.3-.33.59-.67.87-1,0-.06.09-.1.13-.16" transform="translate(2.27 -208)"/></g></g></g><path class="cls-60" d="M416.05,304c-.59,0-1.12,0-1.65,0h-6.47l.15,0,.3,0h.12l.34,0h.08c.58-.06,1.14-.13,1.69-.22l.48-.08.44-.08.28-.06.66-.14.8-.19.64-.16.79-.23.63-.2.79-.27.59-.21.84-.34.51-.21c.39-.17.78-.35,1.16-.54l.4-.19,1-.54.49-.28c.25-.14.51-.29.76-.45a5.69,5.69,0,0,0,.52-.33l.7-.45.52-.36.66-.48.51-.39.64-.51.48-.4.62-.55.46-.42.63-.61.4-.4.71-.76.28-.3c.3-.34.6-.68.88-1h8.64c0,.06-.09.1-.13.16-.28.34-.57.68-.87,1l-.3.32c-.25.27-.5.54-.76.8s-.27.27-.41.4l-.71.68-.48.43c-.23.19-.45.39-.69.58s-.65.54-1,.79-.85.63-1.25.91-.84.57-1.27.83-.88.53-1.32.78-.61.32-.92.47-.38.21-.58.3c-.41.2-.82.39-1.24.57s-.75.31-1.12.45l-.63.24c-.37.13-.75.27-1.13.39-1,.31-2,.57-3,.79-.54.11-1.05.2-1.56.28s-1.05.15-1.57.2S416.57,303.93,416.05,304Z" transform="translate(2.27 -208)"/><polygon class="cls-61" points="434.8 80.72 439.28 80.72 447.92 80.72 443.44 80.72 434.8 80.72"/><g class="cls-2"><g class="cls-62"><g class="cls-2"><path class="cls-63" d="M441.17,288.72h4.48l-.17.26c-.23.38-.46.75-.71,1.11v0h-4.48l0,0c.24-.36.47-.73.7-1.11.06-.09.12-.17.17-.26" transform="translate(2.27 -208)"/><path class="cls-64" d="M440.28,290.12h4.48l-.32.45c-.21.3-.43.6-.65.89s-.41.55-.62.81l-.12.15,0,0h-4.48l0,0,.12-.15c.21-.26.42-.54.62-.81s.44-.59.65-.89l.32-.45" transform="translate(2.27 -208)"/></g></g></g><path class="cls-65" d="M432.53,288.72h8.64c-.05.09-.11.17-.17.26-.23.38-.46.75-.7,1.11l-.34.48c-.21.3-.42.6-.65.89s-.41.55-.62.81l-.12.15,0,0H429.9a.1.1,0,0,0,0-.05,2.11,2.11,0,0,0,.19-.23l.66-.86.26-.36.58-.83.22-.32C432.08,289.44,432.31,289.08,432.53,288.72Z" transform="translate(2.27 -208)"/><polygon class="cls-9" points="436.51 77.47 440.99 77.47 449.63 77.47 445.15 77.47 436.51 77.47"/><g class="cls-2"><g class="cls-66"><g class="cls-2"><path class="cls-9" d="M442.88,285.47h4.48l-.08.17,0,.08h-4.48l0-.08.08-.17" transform="translate(2.27 -208)"/><path class="cls-67" d="M442.76,285.72h4.48c-.18.38-.36.76-.55,1.13-.06.11-.11.22-.17.32-.26.51-.55,1-.84,1.5l0,.05h-4.48l0-.05c.3-.49.58-1,.85-1.5.05-.1.1-.21.16-.32.19-.37.38-.75.55-1.13" transform="translate(2.27 -208)"/></g></g></g><path class="cls-11" d="M434.24,285.47h8.64l-.08.17c-.19.41-.39.81-.59,1.21-.06.11-.11.22-.16.32-.27.51-.55,1-.85,1.5l0,.05h-8.64l0-.05c.29-.49.58-1,.84-1.5.06-.1.11-.21.17-.32.2-.4.4-.8.59-1.21A1.3,1.3,0,0,0,434.24,285.47Z" transform="translate(2.27 -208)"/><path class="cls-19" d="M435.48,282.34h8.63c-.05.13-.09.27-.14.41s-.09.27-.14.41c-.16.43-.32.86-.5,1.28s-.3.7-.45,1h-8.64c.07-.14.13-.29.19-.44s.25-.57.37-.87l.24-.63q.18-.45.33-.9Z" transform="translate(2.27 -208)"/><g class="cls-2"><g class="cls-68"><g class="cls-2"><path class="cls-10" d="M444.11,282.34h4.48c0,.13-.09.27-.14.41s-.09.27-.14.41c-.16.43-.32.86-.5,1.28s-.3.7-.45,1h-4.48c.15-.33.3-.67.45-1s.34-.85.5-1.28c.05-.14.1-.28.14-.41s.09-.28.14-.41" transform="translate(2.27 -208)"/></g></g></g><polygon class="cls-10" points="437.75 74.34 442.23 74.34 450.86 74.34 446.38 74.34 437.75 74.34"/><g class="cls-2"><g class="cls-69"><g class="cls-2"><path class="cls-70" d="M434.64,215.54h4.47c.21.18.42.36.62.55l.31.27.68.65h-4.48l-.68-.65-.3-.27-.62-.55" transform="translate(2.27 -208)"/><path class="cls-5" d="M436.24,217h4.48l.31.32.29.3c.23.24.46.48.68.73l.36.41.58.68.35.43.54.71.33.43.54.79.27.39q.39.59.75,1.2c.27.45.52.89.76,1.34s.48.92.69,1.38l0,0h-4.48l0,0c-.22-.46-.45-.92-.7-1.38s-.49-.89-.75-1.34-.5-.81-.76-1.2l-.27-.39-.54-.79-.33-.43-.54-.71-.35-.43c-.19-.23-.38-.46-.58-.68s-.23-.28-.35-.41l-.69-.73-.28-.3c-.11-.11-.22-.21-.32-.32" transform="translate(2.27 -208)"/><path class="cls-70" d="M442.72,226.17h4.48c.43.92.82,1.86,1.16,2.82.18.48.33.94.47,1.41a1.87,1.87,0,0,1,.07.22c.12.4.23.8.34,1.21,0,.1.05.2.07.31h-4.47c0-.11-.06-.21-.08-.31-.11-.41-.22-.81-.34-1.21l-.06-.22c-.15-.47-.3-.93-.47-1.41q-.52-1.44-1.17-2.82" transform="translate(2.27 -208)"/></g></g></g><polygon class="cls-43" points="438.52 24.34 443 24.34 451.63 24.34 447.15 24.34 438.52 24.34"/><path class="cls-71" d="M444.84,232.14c0,.06,0,.13,0,.2h-8.63c0-.06,0-.12-.05-.18s-.09-.33-.13-.5-.16-.61-.25-.91-.11-.35-.16-.52l-.3-.89c-.06-.17-.11-.33-.17-.49-.14-.39-.29-.77-.44-1.14a1.46,1.46,0,0,1-.07-.19c-.18-.43-.38-.86-.57-1.28l-.21-.42c-.14-.29-.28-.58-.43-.86l-.25-.47-.45-.79-.26-.46-.55-.86-.21-.33c-.25-.38-.52-.76-.79-1.13-.07-.11-.15-.2-.23-.31-.2-.27-.41-.55-.63-.81l-.31-.39-.6-.7-.34-.39c-.22-.23-.43-.47-.66-.7s-.2-.22-.31-.32c-.32-.33-.65-.65-1-1l-.22-.19c-.22-.21-.45-.41-.68-.61h8.64l.62.55.3.27c.34.31.67.64,1,1l.28.3.69.73c.12.13.23.27.35.41s.39.45.58.68l.35.43.54.71.33.43.54.79.27.39c.26.39.51.79.76,1.2s.51.89.75,1.34.48.92.7,1.38c.44.94.84,1.89,1.19,2.87.17.48.32.94.47,1.41l.06.22c.12.4.23.8.34,1.21C444.78,231.93,444.81,232,444.84,232.14Z" transform="translate(2.27 -208)"/><g class="cls-2"><g class="cls-72"><g class="cls-2"><path class="cls-70" d="M444.84,232.14h4.47a.19.19,0,0,1,0,.08h-4.47a.31.31,0,0,1,0-.08" transform="translate(2.27 -208)"/><path class="cls-73" d="M444.86,232.22h4.47l0,.05h-4.48v-.05" transform="translate(2.27 -208)"/><path class="cls-70" d="M444.87,232.27h4.48v.07h-4.48v-.07" transform="translate(2.27 -208)"/></g></g></g><path class="cls-7" d="M436.34,279.25H445c0,.13-.05.25-.08.38l-.18.73c-.11.38-.21.76-.32,1.14v0c-.08.27-.18.54-.27.81h-8.63l.12-.39c.08-.27.17-.53.24-.8l.21-.73c.07-.27.14-.54.2-.81S436.32,279.37,436.34,279.25Z" transform="translate(2.27 -208)"/><polygon class="cls-18" points="438.61 71.25 443.09 71.25 451.72 71.25 447.25 71.25 438.61 71.25"/><g class="cls-2"><g class="cls-74"><g class="cls-2"><path class="cls-22" d="M445,279.25h4.48c0,.13-.05.25-.08.38s-.12.48-.19.73-.2.76-.31,1.14v0l0,.08h-4.48l0-.08v0c.11-.38.21-.76.32-1.14l.18-.73c0-.13.06-.25.08-.38" transform="translate(2.27 -208)"/><path class="cls-17" d="M444.35,281.61h4.48l-.24.73h-4.48c.08-.24.17-.48.24-.73" transform="translate(2.27 -208)"/></g></g></g><g class="cls-2"><g class="cls-75"><g class="cls-2"><path class="cls-28" d="M445.53,276.07H450c0,.12,0,.26-.05.38,0,.28-.08.56-.12.83l-.12.68h-4.48c.05-.23.08-.45.12-.68s.09-.55.12-.83c0-.12,0-.26,0-.38" transform="translate(2.27 -208)"/><path class="cls-24" d="M445.24,278h4.48v.09c-.06.27-.11.54-.17.81l-.09.39H445l.09-.39c.06-.27.12-.54.17-.81V278" transform="translate(2.27 -208)"/></g></g></g><polygon class="cls-26" points="439.17 68.07 443.65 68.07 452.28 68.07 447.8 68.07 439.17 68.07"/><path class="cls-8" d="M436.9,276.07h8.63c0,.12,0,.26,0,.38,0,.28-.07.56-.12.83s-.09.51-.13.77-.11.54-.17.81l-.09.39h-8.63c0-.16.07-.33.11-.49s.07-.34.1-.51c.07-.35.13-.71.19-1.07l.06-.38s0,0,0-.05Z" transform="translate(2.27 -208)"/><path class="cls-48" d="M445.64,236.83l-8.64,0v0c0-.1,0-.2,0-.3,0-.39-.09-.77-.14-1.15,0-.15,0-.29-.07-.44-.06-.39-.13-.78-.2-1.16,0-.09,0-.17-.05-.25-.07-.39-.16-.77-.25-1.16h8.63c.05.2.09.4.14.59s.14.65.2,1l.12.69.15,1c0,.34.09.67.12,1Z" transform="translate(2.27 -208)"/><g class="cls-2"><g class="cls-76"><g class="cls-2"><path class="cls-46" d="M444.88,232.34h4.48c0,.16.08.32.11.48H445c0-.16-.07-.32-.11-.48" transform="translate(2.27 -208)"/><path class="cls-42" d="M445,232.82h4.48l0,.08H445l0-.08" transform="translate(2.27 -208)"/><path class="cls-46" d="M445,232.9h4.48v0l0,.09H445l0-.09v0" transform="translate(2.27 -208)"/><path class="cls-42" d="M445,233h4.47c.07.29.13.59.19.88l.12.69c.05.32.1.64.14,1s.09.67.13,1l0,.27h-4.48l0-.27c0-.34-.08-.67-.12-1l-.15-1-.12-.69L445,233" transform="translate(2.27 -208)"/></g></g></g><polygon class="cls-26" points="447.91 28.84 452.39 28.84 443.75 28.85 439.27 28.85 447.91 28.84"/><polygon class="cls-38" points="439.27 28.85 443.75 28.85 452.39 28.85 447.91 28.85 439.27 28.85"/><g class="cls-2"><g class="cls-77"><g class="cls-2"><path class="cls-41" d="M445.64,236.85h4.48l.06.73H445.7l-.06-.73" transform="translate(2.27 -208)"/><path class="cls-78" d="M445.7,237.58h4.48c0,.12,0,.24,0,.36V238h-4.48v-.09c0-.12,0-.24,0-.36" transform="translate(2.27 -208)"/><path class="cls-41" d="M445.73,238h4.48v.19h-4.48V238" transform="translate(2.27 -208)"/><path class="cls-78" d="M445.74,238.22h4.48a2,2,0,0,1,0,.25h-4.47c0-.09,0-.17,0-.25" transform="translate(2.27 -208)"/></g></g></g><polygon class="cls-24" points="439.42 64.66 443.9 64.66 452.53 64.66 448.05 64.66 439.42 64.66"/><g class="cls-2"><g class="cls-79"><g class="cls-2"><path class="cls-32" d="M445.78,272.65h4.48c0,.15,0,.29,0,.44,0,.31,0,.63-.05.94h-4.48c0-.31,0-.63,0-.94,0-.15,0-.29,0-.44" transform="translate(2.27 -208)"/><path class="cls-29" d="M445.72,274h4.48v0c0,.24,0,.48-.05.73l-.09.92c0,.12,0,.24-.05.37h-4.48c0-.13,0-.25.05-.37l.09-.92c0-.25,0-.49.05-.73v0" transform="translate(2.27 -208)"/></g></g></g><path class="cls-39" d="M437.15,272.65h8.63c0,.15,0,.29,0,.44,0,.32,0,.64,0,1s0,.48-.05.73l-.09.92c0,.12,0,.24-.05.37H436.9V276l0-.34c0-.29.06-.59.09-.89s0-.5.05-.75,0-.61.05-.92C437.13,273,437.14,272.8,437.15,272.65Z" transform="translate(2.27 -208)"/><polygon class="cls-38" points="439.43 64 443.9 64 452.54 64 448.07 64 439.43 64"/><g class="cls-2"><g class="cls-80"><g class="cls-2"><path class="cls-78" d="M445.79,272h4.48c0,.22,0,.43,0,.65h-4.48c0-.22,0-.43,0-.65" transform="translate(2.27 -208)"/></g></g></g><path class="cls-37" d="M445.78,272.65h-8.63V272h8.64C445.79,272.22,445.78,272.43,445.78,272.65Z" transform="translate(2.27 -208)"/><polygon class="cls-81" points="439.43 32 443.9 32 452.54 32 448.07 32 439.43 32"/><path class="cls-37" d="M445.76,238.47q0,.76,0,1.53h-8.64c0-.54,0-1.07,0-1.61,0-.24,0-.47-.05-.71s0-.55-.06-.83h8.64c0,.36.06.73.08,1.09C445.73,238.12,445.75,238.29,445.76,238.47Z" transform="translate(2.27 -208)"/><g class="cls-2"><g class="cls-82"><g class="cls-2"><path class="cls-78" d="M445.76,238.47h4.47c0,.51,0,1,0,1.53h-4.48q0-.76,0-1.53" transform="translate(2.27 -208)"/></g></g></g><rect class="cls-83" x="439.42" y="32" width="8.64" height="31.99"/><rect class="cls-41" x="448.07" y="32" width="4.48" height="31.99"/></g></svg>