<?xml version="1.0" encoding="utf-8"?>
<!-- Generator: Adobe Illustrator 23.0.4, SVG Export Plug-In . SVG Version: 6.00 Build 0)  -->
<svg version="1.1" id="Layer_1" xmlns="http://www.w3.org/2000/svg" xmlns:xlink="http://www.w3.org/1999/xlink" x="0px" y="0px"
	 viewBox="0 0 384 512" style="enable-background:new 0 0 384 512;" xml:space="preserve">
<title>newDocument</title>
<path d="M224,136V0H24C10.8,0,0,10.7,0,23.9c0,0,0,0.1,0,0.1v464c0,13.2,10.7,24,23.9,24c0,0,0.1,0,0.1,0h336
	c13.2,0,24-10.7,24-23.9c0,0,0-0.1,0-0.1V160H248C234.8,160,224,149.2,224,136z M288,372c0,6.6-5.4,12-12,12H108
	c-6.6,0-12-5.4-12-12v-8c0-6.6,5.4-12,12-12h168c6.6,0,12,5.4,12,12V372z M288,308c0,6.6-5.4,12-12,12H108c-6.6,0-12-5.4-12-12v-8
	c0-6.6,5.4-12,12-12h168c6.6,0,12,5.4,12,12V308z M288,236v8c0,6.6-5.4,12-12,12H108c-6.6,0-12-5.4-12-12v-8c0-6.6,5.4-12,12-12h168
	C282.6,224,288,229.4,288,236z M384,121.9v6.1H256V0h6.1c6.4,0,12.5,2.5,17,7l97.9,98C381.5,109.5,384,115.6,384,121.9z"/>
</svg>
