<?xml version="1.0" encoding="utf-8"?>
<!-- Generator: Adobe Illustrator 23.0.4, SVG Export Plug-In . SVG Version: 6.00 Build 0)  -->
<svg version="1.1" id="Layer_1" xmlns="http://www.w3.org/2000/svg" xmlns:xlink="http://www.w3.org/1999/xlink" x="0px" y="0px"
	 viewBox="0 0 576 384" style="enable-background:new 0 0 576 384;" xml:space="preserve">
<title>openFolder</title>
<path d="M572.7,228.1l-72.4,124.2C488.8,371.9,467.8,384,445,384H45c-13.3,0-24-10.7-24-24c0-4.3,1.1-8.4,3.3-12.1l72.5-124.2
	c11.5-19.7,32.5-31.7,55.3-31.8h400c13.3,0,24,10.8,24,24C576,220.3,574.8,224.4,572.7,228.1z M152,160h328v-48
	c0-26.5-21.5-48-48-48H272L208,0H48C21.5,0,0,21.5,0,48v278l69.1-118.4C86.3,178.2,117.9,160.1,152,160z"/>
</svg>
