<svg id="Layer_2" data-name="Layer 2" xmlns="http://www.w3.org/2000/svg" xmlns:xlink="http://www.w3.org/1999/xlink" viewBox="0 0 448.96 448.9"><defs><style>.cls-1{fill:none;}.cls-2{isolation:isolate;}.cls-3{clip-path:url(#clip-path);}.cls-4{fill:#167c16;}.cls-5{fill:#178117;}.cls-6{fill:#188618;}.cls-7{fill:#198b19;}.cls-8{clip-path:url(#clip-path-2);}.cls-9{fill:#1a8f1a;}.cls-10{clip-path:url(#clip-path-3);}.cls-11{fill:#188818;}.cls-12{clip-path:url(#clip-path-4);}.cls-13{fill:#167a16;}.cls-14{fill:#167d16;}.cls-15{clip-path:url(#clip-path-5);}.cls-16{fill:#1b941b;}.cls-17{fill:#1c991c;}.cls-18{fill:#1c9e1c;}.cls-19{fill:#1da31d;}.cls-20{fill:#1ea71e;}.cls-21{fill:#1fac1f;}.cls-22{fill:#20b120;}.cls-23{fill:#21b621;}.cls-24{clip-path:url(#clip-path-6);}.cls-25{fill:#22bf22;}.cls-26{fill:#22ba22;}.cls-27{clip-path:url(#clip-path-7);}.cls-28{fill:#23c323;}.cls-29{clip-path:url(#clip-path-8);}.cls-30{fill:#25cc25;}.cls-31{clip-path:url(#clip-path-9);}.cls-32{clip-path:url(#clip-path-10);}.cls-33{clip-path:url(#clip-path-11);}.cls-34{clip-path:url(#clip-path-12);}.cls-35{clip-path:url(#clip-path-13);}.cls-36{fill:#23c423;}.cls-37{fill:#24c924;}.cls-38{fill:#25ce25;}.cls-39{fill:#26d226;}.cls-40{fill:#27d727;}.cls-41{clip-path:url(#clip-path-14);}</style><clipPath id="clip-path" transform="translate(0.48 -31.55)"><path class="cls-1" d="M10.5,216.2l1.26-1.1a31.83,31.83,0,0,1,21-7.84l-1.26,1.1A31.82,31.82,0,0,0,10.5,216.2Z"/></clipPath><clipPath id="clip-path-2" transform="translate(0.48 -31.55)"><path class="cls-1" d="M261.63,471.51l-1.26,1.1a31.85,31.85,0,0,0,11-24.11l1.26-1.09A31.84,31.84,0,0,1,261.63,471.51Z"/></clipPath><clipPath id="clip-path-3" transform="translate(0.48 -31.55)"><path class="cls-1" d="M31.22,300.57l.29,3.74a32,32,0,0,1-32-32l3.71.26A28,28,0,0,0,31.22,300.57Z"/></clipPath><clipPath id="clip-path-4" transform="translate(0.48 -31.55)"><path class="cls-1" d="M207.11,476.67l.29,3.74a32,32,0,0,1-32-32l3.71.25A28,28,0,0,0,207.11,476.67Z"/></clipPath><clipPath id="clip-path-5" transform="translate(0.48 -31.55)"><path class="cls-1" d="M3.23,240.57l-3.71-.26a31.94,31.94,0,0,1,32-31.95l-.29,4.25A27.94,27.94,0,0,0,3.23,240.57Z"/></clipPath><clipPath id="clip-path-6" transform="translate(0.48 -31.55)"><path class="cls-1" d="M267.06,448.75l4.29-.25a31.94,31.94,0,0,1-32,31.95l-.29-3.75A27.94,27.94,0,0,0,267.06,448.75Z"/></clipPath><clipPath id="clip-path-7" transform="translate(0.48 -31.55)"><path class="cls-1" d="M186.37,40.48l1.26-1.09a31.81,31.81,0,0,1,21-7.84l-1.26,1.1A31.85,31.85,0,0,0,186.37,40.48Z"/></clipPath><clipPath id="clip-path-8" transform="translate(0.48 -31.55)"><path class="cls-1" d="M437.5,295.8l-1.26,1.1a31.85,31.85,0,0,0,11-24.11l1.26-1.1A31.85,31.85,0,0,1,437.5,295.8Z"/></clipPath><clipPath id="clip-path-9" transform="translate(0.48 -31.55)"><path class="cls-1" d="M239.34,32.69l1.27-1.1a32,32,0,0,1,32,32l-1.26,1.1A32,32,0,0,0,239.34,32.69Z"/></clipPath><clipPath id="clip-path-10" transform="translate(0.48 -31.55)"><path class="cls-1" d="M415.23,208.78l1.27-1.09a32,32,0,0,1,32,32l-1.26,1.1A32,32,0,0,0,415.23,208.78Z"/></clipPath><clipPath id="clip-path-11" transform="translate(0.48 -31.55)"><path class="cls-1" d="M179.1,64.85l-3.71-.26a31.94,31.94,0,0,1,32-31.94l-.29,4.25A27.94,27.94,0,0,0,179.1,64.85Z"/></clipPath><clipPath id="clip-path-12" transform="translate(0.48 -31.55)"><path class="cls-1" d="M442.93,273l4.29-.24a31.94,31.94,0,0,1-32,31.95L415,301A27.94,27.94,0,0,0,442.93,273Z"/></clipPath><clipPath id="clip-path-13" transform="translate(0.48 -31.55)"><path class="cls-1" d="M239.06,36.94l.28-4.25a32,32,0,0,1,32,32L267,65A28,28,0,0,0,239.06,36.94Z"/></clipPath><clipPath id="clip-path-14" transform="translate(0.48 -31.55)"><path class="cls-1" d="M414.94,213l.29-4.25a32,32,0,0,1,32,32l-4.29.25A28,28,0,0,0,414.94,213Z"/></clipPath></defs><title>plusIcon</title><g class="cls-2"><g class="cls-2"><g class="cls-3"><g class="cls-2"><path class="cls-4" d="M10.5,216.2l1.26-1.1A32,32,0,0,1,22.17,209l-1.26,1.1A31.85,31.85,0,0,0,10.5,216.2" transform="translate(0.48 -31.55)"/><path class="cls-5" d="M20.91,210.14l1.26-1.1a32.47,32.47,0,0,1,5.11-1.32L26,208.82a32.19,32.19,0,0,0-5.11,1.32" transform="translate(0.48 -31.55)"/><path class="cls-6" d="M26,208.82l1.26-1.1a30.92,30.92,0,0,1,4.44-.44l-1.27,1.09a32.43,32.43,0,0,0-4.43.45" transform="translate(0.48 -31.55)"/><path class="cls-7" d="M30.45,208.37l1.27-1.09,1,0-1.26,1.1H30.45" transform="translate(0.48 -31.55)"/></g></g></g><g class="cls-2"><g class="cls-8"><g class="cls-2"><path class="cls-9" d="M271.35,448.5l1.26-1.09c0,.7,0,1.4-.07,2.09l-1.26,1.1c.05-.69.07-1.39.07-2.1" transform="translate(0.48 -31.55)"/><path class="cls-7" d="M271.28,450.6l1.26-1.1a31.6,31.6,0,0,1-.54,4.15l-1.26,1.09a31.23,31.23,0,0,0,.54-4.14" transform="translate(0.48 -31.55)"/><path class="cls-6" d="M270.74,454.74l1.26-1.09a32.08,32.08,0,0,1-1.15,4.25L269.59,459a31.27,31.27,0,0,0,1.15-4.25" transform="translate(0.48 -31.55)"/><path class="cls-5" d="M269.59,459l1.26-1.09a32.09,32.09,0,0,1-2.14,4.83l-1.27,1.1a31.81,31.81,0,0,0,2.15-4.84" transform="translate(0.48 -31.55)"/><path class="cls-4" d="M267.44,463.83l1.27-1.1a32,32,0,0,1-7.08,8.78l-1.26,1.1a32,32,0,0,0,7.07-8.78" transform="translate(0.48 -31.55)"/></g></g></g><g class="cls-2"><g class="cls-10"><g class="cls-2"><path class="cls-4" d="M31.22,300.57l.29,3.74a32,32,0,0,1-32-32l3.71.26a28,28,0,0,0,28,28" transform="translate(0.48 -31.55)"/></g></g></g><polygon class="cls-11" points="31.98 176.81 33.24 175.71 177.15 175.87 175.88 176.97 31.98 176.81"/><g class="cls-2"><g class="cls-12"><g class="cls-2"><path class="cls-4" d="M207.11,476.67l.29,3.74a32,32,0,0,1-32-32l3.71.25a28,28,0,0,0,28,28" transform="translate(0.48 -31.55)"/></g></g></g><polygon class="cls-9" points="271.82 273.03 273.08 271.93 273.09 415.86 271.83 416.95 271.82 273.03"/><polygon class="cls-13" points="3.71 241 0 240.74 0 208.76 3.71 209.02 3.71 241"/><polygon class="cls-14" points="239.57 445.15 239.86 448.9 207.88 448.86 207.59 445.12 239.57 445.15"/><g class="cls-2"><g class="cls-15"><g class="cls-2"><path class="cls-4" d="M3.23,240.57l-3.71-.26A31.78,31.78,0,0,1,3.42,225l3.22,2.17a27.82,27.82,0,0,0-3.41,13.41" transform="translate(0.48 -31.55)"/><path class="cls-5" d="M6.64,227.16,3.42,225a33.11,33.11,0,0,1,3.09-4.64l2.84,2.75a28.41,28.41,0,0,0-2.71,4.06" transform="translate(0.48 -31.55)"/><path class="cls-6" d="M9.35,223.1l-2.84-2.75a33,33,0,0,1,2.82-3.08l2.48,3.14a27.24,27.24,0,0,0-2.46,2.69" transform="translate(0.48 -31.55)"/><path class="cls-7" d="M11.81,220.41l-2.48-3.14A31.72,31.72,0,0,1,12,215l2.15,3.42a27.1,27.1,0,0,0-2.3,2" transform="translate(0.48 -31.55)"/><path class="cls-9" d="M14.11,218.42,12,215a29.3,29.3,0,0,1,2.53-1.76l1.84,3.64a26.55,26.55,0,0,0-2.22,1.54" transform="translate(0.48 -31.55)"/><path class="cls-16" d="M16.33,216.88l-1.84-3.64c.79-.5,1.6-1,2.43-1.39l1.54,3.81c-.73.38-1.44.78-2.13,1.22" transform="translate(0.48 -31.55)"/><path class="cls-17" d="M18.46,215.66l-1.54-3.81c.77-.39,1.57-.76,2.37-1.09l1.24,4c-.71.29-1.4.61-2.07.95" transform="translate(0.48 -31.55)"/><path class="cls-18" d="M20.53,214.71l-1.24-4c.77-.32,1.55-.6,2.34-.86l.95,4.06c-.7.22-1.38.47-2,.75" transform="translate(0.48 -31.55)"/><path class="cls-19" d="M22.58,214l-.95-4.06c.77-.25,1.54-.47,2.33-.66l.65,4.14c-.68.17-1.36.36-2,.58" transform="translate(0.48 -31.55)"/><path class="cls-20" d="M24.61,213.38,24,209.24c.77-.18,1.55-.34,2.33-.46l.37,4.19c-.69.11-1.37.25-2.05.41" transform="translate(0.48 -31.55)"/><path class="cls-21" d="M26.66,213l-.37-4.19q1.17-.19,2.37-.3l.06,4.24c-.69.06-1.38.14-2.06.25" transform="translate(0.48 -31.55)"/><path class="cls-22" d="M28.72,212.72l-.06-4.24c.8-.07,1.61-.11,2.42-.12l-.24,4.25c-.71,0-1.42,0-2.12.11" transform="translate(0.48 -31.55)"/><path class="cls-23" d="M30.84,212.61l.24-4.25h.42l-.29,4.25h-.37" transform="translate(0.48 -31.55)"/></g></g></g><g class="cls-2"><g class="cls-24"><g class="cls-2"><path class="cls-25" d="M267.06,448.75l4.29-.25c0,.22,0,.44,0,.65l-4.28.17v-.57" transform="translate(0.48 -31.55)"/><path class="cls-26" d="M267.06,449.32l4.28-.17c0,.86-.07,1.72-.15,2.56l-4.27-.15c.08-.74.12-1.49.14-2.24" transform="translate(0.48 -31.55)"/><path class="cls-23" d="M266.92,451.56l4.27.15c-.08.82-.19,1.63-.34,2.43l-4.22-.46c.12-.7.22-1.41.29-2.12" transform="translate(0.48 -31.55)"/><path class="cls-22" d="M266.63,453.68l4.22.46c-.14.79-.31,1.56-.5,2.33l-4.16-.75c.17-.67.32-1.35.44-2" transform="translate(0.48 -31.55)"/><path class="cls-21" d="M266.19,455.72l4.16.75c-.2.76-.42,1.52-.67,2.26l-4.08-1c.22-.65.42-1.31.59-2" transform="translate(0.48 -31.55)"/><path class="cls-20" d="M265.6,457.7l4.08,1q-.39,1.13-.84,2.22l-4-1.31c.27-.64.52-1.28.74-1.94" transform="translate(0.48 -31.55)"/><path class="cls-19" d="M264.86,459.64l4,1.31c-.32.74-.66,1.48-1,2.19L264,461.56q.5-.94.9-1.92" transform="translate(0.48 -31.55)"/><path class="cls-18" d="M264,461.56l3.85,1.58c-.39.75-.8,1.47-1.24,2.18l-3.69-1.86c.39-.62.75-1.25,1.08-1.9" transform="translate(0.48 -31.55)"/><path class="cls-17" d="M262.88,463.46l3.69,1.86c-.46.75-1,1.48-1.48,2.18l-3.5-2.13c.45-.61.89-1.25,1.29-1.91" transform="translate(0.48 -31.55)"/><path class="cls-16" d="M261.59,465.37l3.5,2.13c-.56.76-1.15,1.49-1.78,2.19l-3.28-2.4a24.19,24.19,0,0,0,1.56-1.92" transform="translate(0.48 -31.55)"/><path class="cls-9" d="M260,467.29l3.28,2.4a28.16,28.16,0,0,1-2.16,2.21l-3-2.67c.66-.62,1.29-1.26,1.89-1.94" transform="translate(0.48 -31.55)"/><path class="cls-7" d="M258.14,469.23l3,2.67a31.14,31.14,0,0,1-2.65,2.22l-2.68-2.95c.81-.61,1.58-1.26,2.32-1.94" transform="translate(0.48 -31.55)"/><path class="cls-6" d="M255.82,471.17l2.68,2.95a31.27,31.27,0,0,1-3.5,2.27l-2.24-3.24a29,29,0,0,0,3.06-2" transform="translate(0.48 -31.55)"/><path class="cls-5" d="M252.76,473.15l2.24,3.24a30.81,30.81,0,0,1-5,2.27l-1.62-3.52a27.39,27.39,0,0,0,4.41-2" transform="translate(0.48 -31.55)"/><path class="cls-4" d="M248.35,475.14l1.62,3.52a32,32,0,0,1-10.59,1.79l-.29-3.75a27.57,27.57,0,0,0,9.26-1.56" transform="translate(0.48 -31.55)"/></g></g></g><polygon class="cls-14" points="179.6 269.18 175.89 272.92 31.99 272.76 31.7 269.02 179.6 269.18"/><polygon class="cls-13" points="179.61 417.1 175.9 416.85 175.89 272.92 179.6 269.18 179.61 417.1"/><g class="cls-2"><g class="cls-27"><g class="cls-2"><path class="cls-4" d="M186.37,40.48l1.26-1.09A31.85,31.85,0,0,1,198,33.33l-1.26,1.1a32,32,0,0,0-10.41,6" transform="translate(0.48 -31.55)"/><path class="cls-5" d="M196.78,34.43l1.26-1.1A32.19,32.19,0,0,1,203.15,32l-1.26,1.1a32.19,32.19,0,0,0-5.11,1.32" transform="translate(0.48 -31.55)"/><path class="cls-6" d="M201.89,33.11l1.26-1.1a30.78,30.78,0,0,1,4.43-.44l-1.26,1.1a30.64,30.64,0,0,0-4.43.44" transform="translate(0.48 -31.55)"/><path class="cls-7" d="M206.32,32.67l1.26-1.1,1,0-1.26,1.1c-.35,0-.7,0-1,0" transform="translate(0.48 -31.55)"/></g></g></g><polygon class="cls-28" points="31.69 181.06 31.98 176.81 175.88 176.97 179.59 181.22 31.69 181.06"/><g class="cls-2"><g class="cls-29"><g class="cls-2"><path class="cls-9" d="M447.22,272.79l1.26-1.1c0,.7,0,1.4-.07,2.1l-1.26,1.1c.05-.7.07-1.4.07-2.1" transform="translate(0.48 -31.55)"/><path class="cls-7" d="M447.15,274.89l1.26-1.1a31.23,31.23,0,0,1-.54,4.14l-1.26,1.1a31.45,31.45,0,0,0,.54-4.14" transform="translate(0.48 -31.55)"/><path class="cls-6" d="M446.61,279l1.26-1.1a29.88,29.88,0,0,1-1.15,4.25l-1.26,1.1a31.27,31.27,0,0,0,1.15-4.25" transform="translate(0.48 -31.55)"/><path class="cls-5" d="M445.46,283.28l1.26-1.1a31.76,31.76,0,0,1-2.14,4.84l-1.27,1.1a31.81,31.81,0,0,0,2.15-4.84" transform="translate(0.48 -31.55)"/><path class="cls-4" d="M443.31,288.12l1.27-1.1a32,32,0,0,1-7.08,8.78l-1.26,1.1a32,32,0,0,0,7.07-8.78" transform="translate(0.48 -31.55)"/></g></g></g><polygon class="cls-11" points="207.84 1.1 209.1 0 241.09 0.04 239.82 1.13 207.84 1.1"/><polygon class="cls-9" points="271.8 33.15 273.06 32.05 273.07 175.97 271.81 177.07 271.8 33.15"/><polygon class="cls-30" points="267.53 269.28 271.82 273.03 271.83 416.95 267.54 417.2 267.53 269.28"/><g class="cls-2"><g class="cls-31"><g class="cls-2"><path class="cls-7" d="M239.34,32.69l1.27-1.1a30.5,30.5,0,0,1,3.18.16l-1.26,1.1a30.56,30.56,0,0,0-3.19-.16" transform="translate(0.48 -31.55)"/><path class="cls-9" d="M242.53,32.85l1.26-1.1a30.94,30.94,0,0,1,4.13.69l-1.26,1.1a31.49,31.49,0,0,0-4.13-.69" transform="translate(0.48 -31.55)"/><path class="cls-16" d="M246.66,33.54l1.26-1.1a31.54,31.54,0,0,1,4.36,1.36L251,34.9a30.64,30.64,0,0,0-4.36-1.36" transform="translate(0.48 -31.55)"/><path class="cls-17" d="M251,34.9l1.26-1.1a32.37,32.37,0,0,1,5.1,2.55l-1.27,1.1A31.85,31.85,0,0,0,251,34.9" transform="translate(0.48 -31.55)"/><path class="cls-18" d="M256.11,37.45l1.27-1.1a32.21,32.21,0,0,1,12.81,15.08l-1.27,1.1a32.15,32.15,0,0,0-12.81-15.08" transform="translate(0.48 -31.55)"/><path class="cls-17" d="M268.92,52.53l1.27-1.1a32.36,32.36,0,0,1,1.68,5.44L270.61,58a31.22,31.22,0,0,0-1.69-5.44" transform="translate(0.48 -31.55)"/><path class="cls-16" d="M270.61,58l1.26-1.1a31.29,31.29,0,0,1,.64,4.56l-1.26,1.1a32.72,32.72,0,0,0-.64-4.56" transform="translate(0.48 -31.55)"/><path class="cls-9" d="M271.25,62.53l1.26-1.1c.05.72.07,1.44.07,2.17l-1.26,1.1c0-.73,0-1.45-.07-2.17" transform="translate(0.48 -31.55)"/></g></g></g><polygon class="cls-11" points="271.81 177.07 273.07 175.97 416.98 176.13 415.71 177.23 271.81 177.07"/><polygon class="cls-9" points="447.7 209.26 448.96 208.16 448.96 240.14 447.7 241.24 447.7 209.26"/><g class="cls-2"><g class="cls-32"><g class="cls-2"><path class="cls-7" d="M415.23,208.78l1.27-1.09a30.5,30.5,0,0,1,3.18.16l-1.26,1.09c-1.05-.1-2.11-.15-3.19-.16" transform="translate(0.48 -31.55)"/><path class="cls-9" d="M418.42,208.94l1.26-1.09a31.37,31.37,0,0,1,4.14.69l-1.26,1.1a33.12,33.12,0,0,0-4.14-.7" transform="translate(0.48 -31.55)"/><path class="cls-16" d="M422.56,209.64l1.26-1.1a32,32,0,0,1,4.36,1.36l-1.26,1.1a31,31,0,0,0-4.36-1.36" transform="translate(0.48 -31.55)"/><path class="cls-17" d="M426.92,211l1.26-1.1a32.27,32.27,0,0,1,5.09,2.55l-1.26,1.1a32.27,32.27,0,0,0-5.09-2.55" transform="translate(0.48 -31.55)"/><path class="cls-18" d="M432,213.55l1.26-1.1a32.18,32.18,0,0,1,12.81,15.09l-1.26,1.09A32.15,32.15,0,0,0,432,213.55" transform="translate(0.48 -31.55)"/><path class="cls-17" d="M444.82,228.63l1.26-1.09a31.22,31.22,0,0,1,1.69,5.44l-1.26,1.09a32.39,32.39,0,0,0-1.69-5.44" transform="translate(0.48 -31.55)"/><path class="cls-16" d="M446.51,234.07l1.26-1.09a32.3,32.3,0,0,1,.64,4.56l-1.27,1.1a31.22,31.22,0,0,0-.63-4.57" transform="translate(0.48 -31.55)"/><path class="cls-9" d="M447.14,238.64l1.27-1.1c0,.72.07,1.44.07,2.17l-1.26,1.1c0-.73,0-1.46-.08-2.17" transform="translate(0.48 -31.55)"/></g></g></g><polygon class="cls-13" points="179.59 181.22 175.88 176.97 175.87 33.04 179.58 33.3 179.59 181.22"/><polygon class="cls-14" points="415.43 269.44 415.72 273.19 271.82 273.03 267.53 269.28 415.43 269.44"/><g class="cls-2"><g class="cls-33"><g class="cls-2"><path class="cls-4" d="M179.1,64.85l-3.71-.26a31.92,31.92,0,0,1,3.9-15.32l3.22,2.18a27.9,27.9,0,0,0-3.41,13.4" transform="translate(0.48 -31.55)"/><path class="cls-5" d="M182.51,51.45l-3.22-2.18a33.61,33.61,0,0,1,3.09-4.63l2.84,2.75a27.86,27.86,0,0,0-2.71,4.06" transform="translate(0.48 -31.55)"/><path class="cls-6" d="M185.22,47.39l-2.84-2.75a33,33,0,0,1,2.82-3.08l2.48,3.13a28.53,28.53,0,0,0-2.46,2.7" transform="translate(0.48 -31.55)"/><path class="cls-7" d="M187.68,44.69l-2.48-3.13a31.72,31.72,0,0,1,2.63-2.27L190,42.71a28.9,28.9,0,0,0-2.3,2" transform="translate(0.48 -31.55)"/><path class="cls-9" d="M190,42.71l-2.15-3.42c.81-.63,1.66-1.22,2.53-1.77l1.84,3.65A25.84,25.84,0,0,0,190,42.71" transform="translate(0.48 -31.55)"/><path class="cls-16" d="M192.2,41.17l-1.84-3.65q1.19-.74,2.43-1.38L194.33,40c-.73.38-1.44.78-2.13,1.22" transform="translate(0.48 -31.55)"/><path class="cls-17" d="M194.33,40l-1.54-3.81c.78-.39,1.57-.76,2.37-1.09l1.24,4c-.71.29-1.4.61-2.07,1" transform="translate(0.48 -31.55)"/><path class="cls-18" d="M196.4,39l-1.24-4c.77-.32,1.55-.6,2.34-.86l.95,4.06c-.7.22-1.38.47-2,.75" transform="translate(0.48 -31.55)"/><path class="cls-19" d="M198.45,38.25l-.95-4.06c.77-.25,1.54-.47,2.33-.66l.65,4.14c-.69.17-1.36.36-2,.58" transform="translate(0.48 -31.55)"/><path class="cls-20" d="M200.48,37.67l-.65-4.14c.77-.18,1.54-.34,2.33-.46l.36,4.19c-.68.11-1.37.25-2,.41" transform="translate(0.48 -31.55)"/><path class="cls-21" d="M202.52,37.26l-.36-4.19c.78-.13,1.57-.23,2.36-.3l.07,4.24c-.7.06-1.39.14-2.07.25" transform="translate(0.48 -31.55)"/><path class="cls-22" d="M204.59,37l-.07-4.24c.8-.07,1.61-.11,2.42-.12l-.23,4.25c-.72,0-1.42,0-2.12.11" transform="translate(0.48 -31.55)"/><path class="cls-23" d="M206.71,36.9l.23-4.25h.42l-.29,4.25h-.36" transform="translate(0.48 -31.55)"/></g></g></g><g class="cls-2"><g class="cls-34"><g class="cls-2"><path class="cls-25" d="M442.93,273l4.29-.24c0,.21,0,.43,0,.64l-4.28.17V273" transform="translate(0.48 -31.55)"/><path class="cls-26" d="M442.93,273.6l4.28-.17c0,.87-.06,1.72-.15,2.57l-4.27-.16c.08-.74.12-1.49.14-2.24" transform="translate(0.48 -31.55)"/><path class="cls-23" d="M442.79,275.84l4.27.16c-.08.82-.19,1.63-.34,2.43L442.5,278c.12-.7.22-1.41.29-2.13" transform="translate(0.48 -31.55)"/><path class="cls-22" d="M442.5,278l4.22.46c-.14.78-.3,1.56-.5,2.33l-4.16-.75c.17-.67.32-1.35.44-2" transform="translate(0.48 -31.55)"/><path class="cls-21" d="M442.06,280l4.16.75c-.2.76-.42,1.52-.67,2.26l-4.08-1c.22-.65.42-1.31.59-2" transform="translate(0.48 -31.55)"/><path class="cls-20" d="M441.47,282l4.08,1q-.39,1.13-.84,2.22l-4-1.31c.27-.64.52-1.28.74-1.94" transform="translate(0.48 -31.55)"/><path class="cls-19" d="M440.73,283.93l4,1.31c-.32.74-.66,1.48-1,2.19l-3.85-1.58q.5-.94.9-1.92" transform="translate(0.48 -31.55)"/><path class="cls-18" d="M439.83,285.85l3.85,1.58c-.39.75-.8,1.47-1.24,2.18l-3.69-1.86c.39-.62.75-1.25,1.08-1.9" transform="translate(0.48 -31.55)"/><path class="cls-17" d="M438.75,287.75l3.69,1.86c-.46.75-1,1.48-1.48,2.18l-3.5-2.13c.45-.61.89-1.25,1.29-1.91" transform="translate(0.48 -31.55)"/><path class="cls-16" d="M437.46,289.66l3.5,2.13c-.56.76-1.15,1.49-1.78,2.19l-3.28-2.4a24.19,24.19,0,0,0,1.56-1.92" transform="translate(0.48 -31.55)"/><path class="cls-9" d="M435.9,291.58l3.28,2.4a29.93,29.93,0,0,1-2.15,2.21l-3-2.67c.66-.62,1.29-1.26,1.89-1.94" transform="translate(0.48 -31.55)"/><path class="cls-7" d="M434,293.52l3,2.67a32.92,32.92,0,0,1-2.66,2.22l-2.68-3a28.59,28.59,0,0,0,2.32-1.93" transform="translate(0.48 -31.55)"/><path class="cls-6" d="M431.69,295.45l2.68,3a32.08,32.08,0,0,1-3.49,2.27l-2.25-3.24a29.13,29.13,0,0,0,3.06-2" transform="translate(0.48 -31.55)"/><path class="cls-5" d="M428.63,297.44l2.25,3.24a31.3,31.3,0,0,1-5,2.27l-1.62-3.52a28.29,28.29,0,0,0,4.41-2" transform="translate(0.48 -31.55)"/><path class="cls-4" d="M424.22,299.43l1.62,3.52a32,32,0,0,1-10.6,1.79L415,301a27.63,27.63,0,0,0,9.27-1.56" transform="translate(0.48 -31.55)"/></g></g></g><polygon class="cls-28" points="207.55 5.35 207.84 1.1 239.82 1.13 239.54 5.38 207.55 5.35"/><polygon class="cls-30" points="267.51 33.4 271.8 33.15 271.81 177.07 267.52 181.32 267.51 33.4"/><g class="cls-2"><g class="cls-35"><g class="cls-2"><path class="cls-23" d="M239.06,36.94l.28-4.25c.7,0,1.39,0,2.08.06L240.87,37c-.6,0-1.21-.06-1.81-.06" transform="translate(0.48 -31.55)"/><path class="cls-26" d="M240.87,37l.55-4.25c.85.06,1.7.15,2.53.27l-.86,4.21c-.73-.11-1.47-.19-2.22-.23" transform="translate(0.48 -31.55)"/><path class="cls-25" d="M243.09,37.23,244,33c.89.13,1.77.3,2.63.5l-1.19,4.14c-.76-.17-1.52-.32-2.3-.43" transform="translate(0.48 -31.55)"/><path class="cls-36" d="M245.39,37.66l1.19-4.14c.95.22,1.87.48,2.79.78l-1.55,4.05a25,25,0,0,0-2.43-.69" transform="translate(0.48 -31.55)"/><path class="cls-37" d="M247.82,38.35l1.55-4.05a30.85,30.85,0,0,1,3.11,1.22l-1.93,3.89a29.08,29.08,0,0,0-2.73-1.06" transform="translate(0.48 -31.55)"/><path class="cls-38" d="M250.55,39.41l1.93-3.89a31.64,31.64,0,0,1,3.64,1.94l-2.39,3.65a28.47,28.47,0,0,0-3.18-1.7" transform="translate(0.48 -31.55)"/><path class="cls-39" d="M253.73,41.11l2.39-3.65a31.92,31.92,0,0,1,6.55,5.36l-3.2,3a28,28,0,0,0-5.74-4.7" transform="translate(0.48 -31.55)"/><path class="cls-40" d="M259.47,45.81l3.2-3a32.21,32.21,0,0,1,2.13,2.52L261.33,48c-.59-.77-1.21-1.5-1.86-2.2" transform="translate(0.48 -31.55)"/><path class="cls-39" d="M261.33,48l3.47-2.67a31.72,31.72,0,0,1,4.12,7.18l-4,1.77a28.11,28.11,0,0,0-3.6-6.28" transform="translate(0.48 -31.55)"/><path class="cls-38" d="M264.93,54.29l4-1.77a32.66,32.66,0,0,1,1.32,3.91l-4.15,1.29a26.59,26.59,0,0,0-1.16-3.43" transform="translate(0.48 -31.55)"/><path class="cls-37" d="M266.09,57.72l4.15-1.29a29.65,29.65,0,0,1,.69,3.27l-4.24.87a26.67,26.67,0,0,0-.6-2.85" transform="translate(0.48 -31.55)"/><path class="cls-36" d="M266.69,60.57l4.24-.87c.15,1,.26,1.93.32,2.91l-4.28.51c-.05-.86-.15-1.71-.28-2.55" transform="translate(0.48 -31.55)"/><path class="cls-25" d="M267,63.12l4.28-.51c.05.69.07,1.39.07,2.09L267,65q0-.93-.06-1.83" transform="translate(0.48 -31.55)"/></g></g></g><polygon class="cls-28" points="267.52 181.32 271.81 177.07 415.71 177.23 415.42 181.48 267.52 181.32"/><polygon class="cls-30" points="443.41 209.5 447.7 209.26 447.7 241.24 443.41 241.48 443.41 209.5"/><g class="cls-2"><g class="cls-41"><g class="cls-2"><path class="cls-23" d="M414.94,213l.29-4.25c.7,0,1.39,0,2.08.07l-.55,4.24c-.6,0-1.21-.05-1.82-.06" transform="translate(0.48 -31.55)"/><path class="cls-26" d="M416.76,213.09l.55-4.24c.85.06,1.7.15,2.54.27l-.87,4.21q-1.1-.17-2.22-.24" transform="translate(0.48 -31.55)"/><path class="cls-25" d="M419,213.33l.87-4.21c.89.13,1.76.3,2.63.5l-1.2,4.14c-.75-.17-1.52-.32-2.3-.43" transform="translate(0.48 -31.55)"/><path class="cls-36" d="M421.28,213.76l1.2-4.14c.94.22,1.87.48,2.78.78l-1.54,4a25.19,25.19,0,0,0-2.44-.69" transform="translate(0.48 -31.55)"/><path class="cls-37" d="M423.72,214.45l1.54-4a30.12,30.12,0,0,1,3.12,1.22l-1.94,3.89a27.86,27.86,0,0,0-2.72-1.06" transform="translate(0.48 -31.55)"/><path class="cls-38" d="M426.44,215.51l1.94-3.89a32.49,32.49,0,0,1,3.64,1.94l-2.39,3.65a27.76,27.76,0,0,0-3.19-1.7" transform="translate(0.48 -31.55)"/><path class="cls-39" d="M429.63,217.21l2.39-3.65a32.19,32.19,0,0,1,6.55,5.36l-3.21,3a28.16,28.16,0,0,0-5.73-4.7" transform="translate(0.48 -31.55)"/><path class="cls-40" d="M435.36,221.91l3.21-3c.75.8,1.46,1.65,2.13,2.52l-3.48,2.67a26,26,0,0,0-1.86-2.2" transform="translate(0.48 -31.55)"/><path class="cls-39" d="M437.22,224.11l3.48-2.67a32.49,32.49,0,0,1,4.12,7.18l-4,1.78a28,28,0,0,0-3.61-6.29" transform="translate(0.48 -31.55)"/><path class="cls-38" d="M440.83,230.4l4-1.78a32.81,32.81,0,0,1,1.32,3.92L442,233.82a28.06,28.06,0,0,0-1.16-3.42" transform="translate(0.48 -31.55)"/><path class="cls-37" d="M442,233.82l4.15-1.28c.28,1.06.51,2.16.69,3.26l-4.24.88a26.85,26.85,0,0,0-.6-2.86" transform="translate(0.48 -31.55)"/><path class="cls-36" d="M442.59,236.68l4.24-.88c.15,1,.26,1.93.32,2.91l-4.28.51c-.05-.86-.15-1.7-.28-2.54" transform="translate(0.48 -31.55)"/><path class="cls-25" d="M442.87,239.22l4.28-.51c0,.7.07,1.39.07,2.1l-4.29.25c0-.62,0-1.23-.06-1.84" transform="translate(0.48 -31.55)"/></g></g></g><path class="cls-30" d="M239.06,36.94a28,28,0,0,1,28,28V212.87l147.9.16a28,28,0,0,1,28,28v32a27.94,27.94,0,0,1-28,28l-147.9-.16V448.75a27.94,27.94,0,0,1-28,27.95l-32,0a28,28,0,0,1-28-28V300.73l-147.9-.16a28,28,0,0,1-28-28v-32a27.94,27.94,0,0,1,28-28l147.9.16V64.85a27.94,27.94,0,0,1,28-27.95Z" transform="translate(0.48 -31.55)"/></g></svg>