<?xml version="1.0" encoding="utf-8"?>
<!-- Generator: Adobe Illustrator 23.0.4, SVG Export Plug-In . SVG Version: 6.00 Build 0)  -->
<svg version="1.1" id="Layer_3" xmlns="http://www.w3.org/2000/svg" xmlns:xlink="http://www.w3.org/1999/xlink" x="0px" y="0px"
	 viewBox="0 0 452.5 96" style="enable-background:new 0 0 452.5 96;" xml:space="preserve">
<style type="text/css">
	.st0{clip-path:url(#SVGID_2_);}
	.st1{clip-path:url(#SVGID_4_);}
	.st2{clip-path:url(#SVGID_6_);}
	.st3{clip-path:url(#SVGID_8_);}
	.st4{clip-path:url(#SVGID_10_);}
	.st5{clip-path:url(#SVGID_12_);}
	.st6{clip-path:url(#SVGID_14_);}
	.st7{clip-path:url(#SVGID_16_);}
	.st8{clip-path:url(#SVGID_18_);}
	.st9{clip-path:url(#SVGID_20_);}
	.st10{clip-path:url(#SVGID_22_);}
	.st11{clip-path:url(#SVGID_24_);}
	.st12{clip-path:url(#SVGID_26_);}
	.st13{clip-path:url(#SVGID_28_);}
	.st14{clip-path:url(#SVGID_30_);}
	.st15{clip-path:url(#SVGID_32_);}
	.st16{clip-path:url(#SVGID_34_);}
	.st17{clip-path:url(#SVGID_36_);}
	.st18{clip-path:url(#SVGID_38_);}
	.st19{clip-path:url(#SVGID_40_);}
	.st20{clip-path:url(#SVGID_42_);}
	.st21{clip-path:url(#SVGID_44_);}
	.st22{clip-path:url(#SVGID_46_);}
	.st23{clip-path:url(#SVGID_48_);}
	.st24{clip-path:url(#SVGID_50_);}
	.st25{clip-path:url(#SVGID_52_);}
	.st26{clip-path:url(#SVGID_54_);}
	.st27{clip-path:url(#SVGID_56_);}
	.st28{clip-path:url(#SVGID_58_);}
	.st29{clip-path:url(#SVGID_60_);}
	.st30{clip-path:url(#SVGID_62_);}
	.st31{clip-path:url(#SVGID_64_);}
	.st32{clip-path:url(#SVGID_66_);}
	.st33{clip-path:url(#SVGID_68_);}
</style>
<title>removeIcon</title>
<g>
	<g>
		<g>
			<defs>
				<path id="SVGID_1_" d="M412.5,0c4.2,0,8.3,0.8,12.2,2.5h-4.4c-3.9-1.7-8-2.5-12.2-2.5H412.5z"/>
			</defs>
			<use xlink:href="#SVGID_1_"  style="overflow:visible;"/>
			<clipPath id="SVGID_2_">
				<use xlink:href="#SVGID_1_"  style="overflow:visible;"/>
			</clipPath>
			<g class="st0">
				<g>
					<path d="M408,0L408,0"/>
					<path d="M408.9,0h4.5c1.3,0,2.5,0.2,3.8,0.4h-4.5C411.5,0.2,410.2,0,408.9,0"/>
					<path d="M412.8,0.4h4.5c1.2,0.2,2.5,0.5,3.7,0.8h-4.5C415.3,0.8,414,0.5,412.8,0.4"/>
					<path d="M416.4,1.2h4.5c1.3,0.4,2.5,0.8,3.7,1.3h-4.5C419,2,417.7,1.5,416.4,1.2"/>
					<path d="M420.2,2.5h4.5c1.4,0.6,2.8,1.3,4.1,2.1h-4.5C423,3.8,421.6,3.1,420.2,2.5"/>
				</g>
			</g>
		</g>
	</g>
	<polygon points="31.4,0 35.9,0 412.5,0 408,0 	"/>
	<polygon points="31.4,0 35.9,0 412.5,0 408,0 	"/>
	<polygon points="408,0 412.5,0 421.1,0 416.7,0 	"/>
	<polygon points="408.8,0 413.3,0 421.5,0 417,0 	"/>
	<path d="M417,0L417,0z"/>
	<g>
		<g>
			<defs>
				<path id="SVGID_3_" d="M416.7,0L416.7,0z"/>
			</defs>
			<use xlink:href="#SVGID_3_"  style="overflow:visible;"/>
			<clipPath id="SVGID_4_">
				<use xlink:href="#SVGID_3_"  style="overflow:visible;"/>
			</clipPath>
			<g class="st1">
				<g>
					<path d="M416.7,0L416.7,0"/>
					<path d="M416.8,0L416.8,0"/>
					<path d="M416.9,0L416.9,0"/>
				</g>
			</g>
		</g>
	</g>
	<g>
		<g>
			<defs>
				<path id="SVGID_5_" d="M418.3,96h4.5c-0.6,0-1.1,0-1.6,0h-4.5C417.2,96,417.7,96,418.3,96z"/>
			</defs>
			<use xlink:href="#SVGID_5_"  style="overflow:visible;"/>
			<clipPath id="SVGID_6_">
				<use xlink:href="#SVGID_5_"  style="overflow:visible;"/>
			</clipPath>
			<g class="st2">
				<g>
					<path d="M418.3,96h4.5c-0.6,0-1.1,0-1.6,0h-4.5C417.2,96,417.7,96,418.3,96"/>
				</g>
			</g>
		</g>
	</g>
	<g>
		<g>
			<defs>
				<polygon id="SVGID_7_" points="417,0 421.5,0 422.4,0 423,0 423.9,0.1 424.5,0.1 420,0.1 419.5,0.1 418.5,0 417.9,0 				"/>
			</defs>
			<use xlink:href="#SVGID_7_"  style="overflow:visible;"/>
			<clipPath id="SVGID_8_">
				<use xlink:href="#SVGID_7_"  style="overflow:visible;"/>
			</clipPath>
			<g class="st3">
				<g>
					<path d="M417,0L417,0"/>
					<path d="M417.6,0h4.8h0.6l0.9,0.1l0.5,0.1H420l-0.5-0.1L418.5,0h-0.6H417.6"/>
				</g>
			</g>
		</g>
	</g>
	<polygon points="412.2,0.3 416.7,0.3 425.2,0.3 420.8,0.3 	"/>
	<path d="M420,0.2l0.8,0.1h-8.6l-0.8-0.1h-0.2c-0.5,0-0.9-0.1-1.4-0.1h-0.3c-0.2,0-0.4,0-0.6,0h8.2h0.9h0.6l0.9,0.1L420,0.2z"/>
	<g>
		<g>
			<defs>
				<polygon id="SVGID_9_" points="420,0.2 424.5,0.2 425.2,0.3 420.8,0.3 				"/>
			</defs>
			<use xlink:href="#SVGID_9_"  style="overflow:visible;"/>
			<clipPath id="SVGID_10_">
				<use xlink:href="#SVGID_9_"  style="overflow:visible;"/>
			</clipPath>
			<g class="st4">
				<g>
					<path d="M420,0.2h4.5l0.8,0.1h-4.5L420,0.2"/>
				</g>
			</g>
		</g>
	</g>
	<g>
		<g>
			<defs>
				<polygon id="SVGID_11_" points="420.8,0.3 425.3,0.3 425.9,0.4 421.4,0.4 				"/>
			</defs>
			<use xlink:href="#SVGID_11_"  style="overflow:visible;"/>
			<clipPath id="SVGID_12_">
				<use xlink:href="#SVGID_11_"  style="overflow:visible;"/>
			</clipPath>
			<g class="st5">
				<g>
					<path d="M420.8,0.3h4.5l0.6,0.1h-4.5L420.8,0.3"/>
				</g>
			</g>
		</g>
	</g>
	<g>
		<g>
			<defs>
				<path id="SVGID_13_" d="M421.4,0.4h4.5c0.5,0.1,0.9,0.2,1.4,0.2l0.5,0.1h-4.5l-0.5-0.1C422.4,0.5,421.9,0.4,421.4,0.4L421.4,0.4
					z"/>
			</defs>
			<use xlink:href="#SVGID_13_"  style="overflow:visible;"/>
			<clipPath id="SVGID_14_">
				<use xlink:href="#SVGID_13_"  style="overflow:visible;"/>
			</clipPath>
			<g class="st6">
				<g>
					<path d="M421.4,0.4L421.4,0.4"/>
					<path d="M421.5,0.4h4.5c0.5,0.1,0.9,0.2,1.4,0.2l0.5,0.1h-4.5l-0.5-0.1C422.4,0.5,421.9,0.4,421.5,0.4L421.5,0.4"/>
				</g>
			</g>
		</g>
	</g>
	<g>
		<g>
			<defs>
				<polygon id="SVGID_15_" points="423.3,0.7 427.8,0.7 428.4,0.8 423.9,0.8 				"/>
			</defs>
			<use xlink:href="#SVGID_15_"  style="overflow:visible;"/>
			<clipPath id="SVGID_16_">
				<use xlink:href="#SVGID_15_"  style="overflow:visible;"/>
			</clipPath>
			<g class="st7">
				<g>
					<path d="M423.3,0.7h4.5l0.5,0.1h-4.5L423.3,0.7"/>
				</g>
			</g>
		</g>
	</g>
	<polygon points="415.3,0.9 419.8,0.9 428.4,0.9 423.9,0.9 	"/>
	<path d="M423.3,0.7l0.5,0.1h-8.6l-0.9-0.2l0,0c-0.4-0.1-0.7-0.1-1.1-0.2L413,0.4h-0.1h-0.2l-0.5-0.1h8.6l0.6,0.1h0.1
		c0.5,0.1,0.9,0.2,1.4,0.2L423.3,0.7z"/>
	<g>
		<g>
			<defs>
				<polygon id="SVGID_17_" points="423.9,0.9 428.4,0.9 428.7,0.9 429.5,1.2 430.2,1.4 431,1.6 426.5,1.6 425.7,1.4 425,1.2 
					424.2,0.9 				"/>
			</defs>
			<use xlink:href="#SVGID_17_"  style="overflow:visible;"/>
			<clipPath id="SVGID_18_">
				<use xlink:href="#SVGID_17_"  style="overflow:visible;"/>
			</clipPath>
			<g class="st8">
				<g>
					<path d="M423.9,0.9h4.5l0.3,0.1l0.9,0.2h0.1h-4.5H425l-0.8-0.2L423.9,0.9"/>
					<path d="M425.2,1.2h4.5l0.5,0.2l0.8,0.3h-4.5l-0.8-0.3L425.2,1.2"/>
				</g>
			</g>
		</g>
	</g>
	<polygon points="418.3,1.8 422.8,1.8 431.4,1.8 426.9,1.8 	"/>
	<path d="M426.5,1.6l0.4,0.1h-8.6l-0.5-0.2l-0.7-0.2l-0.9-0.3C416,1.1,415.8,1,415.6,1l-0.4-0.1h8.6l0.3,0.1l0.8,0.2l0.7,0.2
		L426.5,1.6z"/>
	<g>
		<g>
			<defs>
				<polygon id="SVGID_19_" points="426.5,1.6 431,1.6 431.4,1.8 426.9,1.8 				"/>
			</defs>
			<use xlink:href="#SVGID_19_"  style="overflow:visible;"/>
			<clipPath id="SVGID_20_">
				<use xlink:href="#SVGID_19_"  style="overflow:visible;"/>
			</clipPath>
			<g class="st9">
				<g>
					<path d="M426.5,1.6h4.5l0.4,0.1h-4.5L426.5,1.6"/>
				</g>
			</g>
		</g>
	</g>
	<g>
		<g>
			<defs>
				<path id="SVGID_21_" d="M426.9,1.8h4.5l0.3,0.1l0.6,0.2l0.7,0.3l0.6,0.3h-4.5c-0.2-0.1-0.4-0.2-0.6-0.3l-0.7-0.3l-0.6-0.2
					L426.9,1.8z"/>
			</defs>
			<use xlink:href="#SVGID_21_"  style="overflow:visible;"/>
			<clipPath id="SVGID_22_">
				<use xlink:href="#SVGID_21_"  style="overflow:visible;"/>
			</clipPath>
			<g class="st10">
				<g>
					<path d="M426.9,1.8h4.5l0.3,0.1l0.6,0.2l0.7,0.3l0.2,0.1h-4.5l-0.2-0.1l-0.7-0.3l-0.6-0.2L426.9,1.8"/>
					<path d="M428.8,2.5h4.5l0.4,0.2h-4.5L428.8,2.5"/>
				</g>
			</g>
		</g>
	</g>
	<g>
		<g>
			<defs>
				<polygon id="SVGID_23_" points="429.2,2.7 433.7,2.7 434.5,3 430,3 				"/>
			</defs>
			<use xlink:href="#SVGID_23_"  style="overflow:visible;"/>
			<clipPath id="SVGID_24_">
				<use xlink:href="#SVGID_23_"  style="overflow:visible;"/>
			</clipPath>
			<g class="st11">
				<g>
					<path d="M429.2,2.7h4.5l0.8,0.4H430L429.2,2.7"/>
				</g>
			</g>
		</g>
	</g>
	<g>
		<g>
			<defs>
				<path id="SVGID_25_" d="M424.7,2.5c3.7,1.6,7.1,3.9,10,6.9h-4.5c-2.8-2.9-6.2-5.2-10-6.8l0,0l0,0L424.7,2.5L424.7,2.5z"/>
			</defs>
			<use xlink:href="#SVGID_25_"  style="overflow:visible;"/>
			<clipPath id="SVGID_26_">
				<use xlink:href="#SVGID_25_"  style="overflow:visible;"/>
			</clipPath>
			<g class="st12">
				<g>
					<path d="M420.2,2.5h4.5c1.4,0.6,2.8,1.3,4.1,2.1h-4.5C423,3.8,421.6,3.1,420.2,2.5"/>
					<path d="M424.3,4.6h4.5c2,1.3,3.9,2.7,5.6,4.4h-4.5C428.2,7.4,426.3,5.9,424.3,4.6"/>
					<path d="M429.9,9.1h4.5c2.6,2.6,4.8,5.7,6.4,9h-4.5C434.7,14.7,432.5,11.7,429.9,9.1"/>
				</g>
			</g>
		</g>
	</g>
	<polygon points="421.4,3 425.9,3 434.5,3 430,3 	"/>
	<path d="M429.2,2.7L430,3h-8.6l-1-0.5l-0.3-0.1l-0.5-0.2l-0.4-0.1l-0.5-0.2l-0.3-0.1h8.6l0.3,0.1l0.6,0.2l0.7,0.3
		C428.8,2.5,429,2.6,429.2,2.7z"/>
	<g>
		<g>
			<defs>
				<path id="SVGID_27_" d="M430,3h4.5l0.2,0.1l0.1,0.1c0.3,0.2,0.7,0.3,1,0.5l0.7,0.4l0.9,0.5l0.1,0.1H433l-0.1-0.1L432,4.1
					l-0.7-0.4c-0.3-0.2-0.7-0.4-1-0.5l-0.1-0.1L430,3z"/>
			</defs>
			<use xlink:href="#SVGID_27_"  style="overflow:visible;"/>
			<clipPath id="SVGID_28_">
				<use xlink:href="#SVGID_27_"  style="overflow:visible;"/>
			</clipPath>
			<g class="st13">
				<g>
					<path d="M430,3h4.5l0.2,0.1l0.1,0.1c0.3,0.2,0.7,0.3,1,0.5l0.7,0.4l0.9,0.5l0,0h-4.5l0,0L432,4.1l-0.7-0.4
						c-0.3-0.2-0.7-0.4-1-0.5l-0.1-0.1L430,3"/>
					<path d="M432.9,4.6h4.5l0.1,0.1H433L432.9,4.6"/>
				</g>
			</g>
		</g>
	</g>
	<polygon points="424.6,4.8 429.1,4.8 437.7,4.8 433.2,4.8 	"/>
	<path d="M433,4.7l0.2,0.1h-8.6l-0.1-0.1c-0.5-0.3-1-0.6-1.4-0.9s-1-0.6-1.5-0.8L421.4,3h8.6l0.2,0.1l0.1,0.1c0.3,0.2,0.7,0.3,1,0.5
		l0.7,0.4l0.9,0.5L433,4.7z"/>
	<g>
		<g>
			<defs>
				<polygon id="SVGID_29_" points="433,4.7 437.5,4.7 437.7,4.8 433.3,4.8 				"/>
			</defs>
			<use xlink:href="#SVGID_29_"  style="overflow:visible;"/>
			<clipPath id="SVGID_30_">
				<use xlink:href="#SVGID_29_"  style="overflow:visible;"/>
			</clipPath>
			<g class="st14">
				<g>
					<path d="M433,4.7h4.5l0.2,0.1h-4.4L433,4.7"/>
				</g>
			</g>
		</g>
	</g>
	<g>
		<g>
			<defs>
				<polygon id="SVGID_31_" points="433.3,4.8 437.7,4.8 438.7,5.4 438.9,5.6 439.9,6.3 440.2,6.5 441,7.1 441.3,7.4 436.8,7.4 
					436.5,7.1 435.7,6.5 435.4,6.3 434.4,5.6 434.3,5.4 				"/>
			</defs>
			<use xlink:href="#SVGID_31_"  style="overflow:visible;"/>
			<clipPath id="SVGID_32_">
				<use xlink:href="#SVGID_31_"  style="overflow:visible;"/>
			</clipPath>
			<g class="st15">
				<g>
					<path d="M433.3,4.8h4.5l1,0.6l0.1,0.1l1,0.7l0.3,0.3l0.8,0.6l0.3,0.3h-4.5l-0.3-0.3l-0.8-0.6l-0.3-0.3l-1-0.7l-0.1-0.1
						L433.3,4.8"/>
				</g>
			</g>
		</g>
	</g>
	<polygon points="428.3,7.5 432.8,7.5 441.4,7.5 436.9,7.5 	"/>
	<path d="M436.8,7.4l0.2,0.1h-8.6l-0.2-0.1l-0.3-0.3L427,6.5l-0.3-0.3l-1-0.7l-0.1-0.1l-1-0.6h8.7l1,0.6l0.1,0.1l1,0.7l0.3,0.3
		l0.8,0.6L436.8,7.4z"/>
	<g>
		<g>
			<defs>
				<polygon id="SVGID_33_" points="436.8,7.4 441.3,7.4 441.4,7.5 436.9,7.5 				"/>
			</defs>
			<use xlink:href="#SVGID_33_"  style="overflow:visible;"/>
			<clipPath id="SVGID_34_">
				<use xlink:href="#SVGID_33_"  style="overflow:visible;"/>
			</clipPath>
			<g class="st16">
				<g>
					<path d="M436.8,7.4h4.5l0.1,0.1h-4.5L436.8,7.4"/>
				</g>
			</g>
		</g>
	</g>
	<g>
		<g>
			<defs>
				<path id="SVGID_35_" d="M434.7,9.4c2.9,2.9,5.2,6.4,6.7,10.2h-4.5c-1.6-3.8-3.8-7.2-6.7-10.1l0,0l0,0L434.7,9.4L434.7,9.4z"/>
			</defs>
			<use xlink:href="#SVGID_35_"  style="overflow:visible;"/>
			<clipPath id="SVGID_36_">
				<use xlink:href="#SVGID_35_"  style="overflow:visible;"/>
			</clipPath>
			<g class="st17">
				<g>
					<path d="M429.9,9.1h4.5c2.6,2.6,4.8,5.7,6.4,9h-4.5C434.7,14.7,432.5,11.7,429.9,9.1"/>
					<path d="M436.3,18.1h4.5c1,2.2,1.8,4.5,2.4,6.9h-4.5C438.1,22.6,437.3,20.3,436.3,18.1"/>
				</g>
			</g>
		</g>
	</g>
	<g>
		<g>
			<defs>
				<path id="SVGID_37_" d="M441.4,19.5L441.4,19.5z"/>
			</defs>
			<use xlink:href="#SVGID_37_"  style="overflow:visible;"/>
			<clipPath id="SVGID_38_">
				<use xlink:href="#SVGID_37_"  style="overflow:visible;"/>
			</clipPath>
			<g class="st18">
				<g>
					<path d="M436.3,18.1h4.5c1,2.2,1.8,4.5,2.4,6.9h-4.5C438.1,22.6,437.3,20.3,436.3,18.1"/>
				</g>
			</g>
		</g>
	</g>
	<g>
		<g>
			<defs>
				<path id="SVGID_39_" d="M439.4,64h4.5c0,17.7-14,32-31.4,32H408C425.4,96,439.4,81.7,439.4,64z"/>
			</defs>
			<use xlink:href="#SVGID_39_"  style="overflow:visible;"/>
			<clipPath id="SVGID_40_">
				<use xlink:href="#SVGID_39_"  style="overflow:visible;"/>
			</clipPath>
			<g class="st19">
				<g>
					<path d="M439.4,64h4.5c0,0.7,0,1.3-0.1,2h-4.5C439.4,65.3,439.4,64.7,439.4,64"/>
					<path d="M439.4,66h4.5c-0.1,1.3-0.2,2.6-0.5,3.9h-4.5C439.1,68.6,439.3,67.3,439.4,66"/>
					<path d="M438.9,70h4.5c-0.3,1.3-0.6,2.6-1,3.8h-4.5C438.3,72.6,438.6,71.3,438.9,70"/>
					<path d="M437.9,73.8h4.5c-0.4,1.4-0.9,2.7-1.5,4h-4.5C437,76.5,437.5,75.2,437.9,73.8"/>
					<path d="M436.4,77.8h4.5c-0.7,1.5-1.6,3-2.5,4.4h-4.5C434.8,80.8,435.7,79.3,436.4,77.8"/>
					<path d="M433.8,82.2h4.5c-5.8,8.6-15.4,13.8-25.8,13.8H408C418.4,96,428.1,90.8,433.8,82.2"/>
				</g>
			</g>
		</g>
	</g>
	<rect x="439.4" y="32" width="4.5" height="32"/>
	<g>
		<g>
			<defs>
				<path id="SVGID_41_" d="M441.4,19.5c1.6,3.9,2.5,8.2,2.5,12.5h-4.5c0-4.3-0.8-8.5-2.5-12.5H441.4z"/>
			</defs>
			<use xlink:href="#SVGID_41_"  style="overflow:visible;"/>
			<clipPath id="SVGID_42_">
				<use xlink:href="#SVGID_41_"  style="overflow:visible;"/>
			</clipPath>
			<g class="st20">
				<g>
					<path d="M436.3,18.1h4.5c1,2.2,1.8,4.5,2.4,6.9h-4.5C438.1,22.6,437.3,20.3,436.3,18.1"/>
					<path d="M438.7,24.9h4.5c0.4,1.6,0.6,3.2,0.7,4.8h-4.5C439.2,28.1,439,26.5,438.7,24.9"/>
					<path d="M439.3,29.8h4.5c0,0.7,0.1,1.5,0.1,2.2h-4.5C439.4,31.2,439.4,30.5,439.3,29.8"/>
				</g>
			</g>
		</g>
	</g>
	<path d="M408,0L408,0c17.3,0,31.4,14.3,31.4,32v32c0,17.7-14,32-31.4,32H31.4C14.1,96,0,81.7,0,64V32c0-17.7,14-32,31.4-32H408z"/>
	<polygon points="432.2,84.5 436.6,84.5 445.3,84.5 440.8,84.5 	"/>
	<g>
		<g>
			<defs>
				<path id="SVGID_43_" d="M440.8,84.5h4.5c0,0.1-0.1,0.1-0.1,0.2c-0.3,0.3-0.6,0.7-0.9,1l-0.3,0.3c-0.2,0.3-0.5,0.5-0.8,0.8
					l-0.4,0.4l-0.7,0.7l-0.5,0.4l-0.7,0.6c-0.3,0.3-0.6,0.5-1,0.8s-0.9,0.6-1.3,0.9s-0.8,0.6-1.3,0.8s-0.9,0.5-1.3,0.8
					s-0.6,0.3-0.9,0.5l-0.6,0.3c-0.4,0.2-0.8,0.4-1.2,0.6s-0.8,0.3-1.1,0.5l-0.6,0.2c-0.4,0.1-0.8,0.3-1.1,0.4c-1,0.3-2,0.6-3,0.8
					c-0.5,0.1-1,0.2-1.6,0.3s-1,0.1-1.6,0.2s-1,0.1-1.6,0.1h-4.5c0.5,0,1-0.1,1.6-0.1s1-0.1,1.6-0.2s1-0.2,1.6-0.3
					c1-0.2,2-0.5,3-0.8c0.4-0.1,0.8-0.3,1.1-0.4l0.6-0.2c0.4-0.1,0.7-0.3,1.1-0.5s0.8-0.4,1.2-0.6c0.2-0.1,0.4-0.2,0.6-0.3
					s0.6-0.3,0.9-0.5s0.9-0.5,1.3-0.8s0.9-0.5,1.3-0.8s0.8-0.6,1.2-0.9s0.7-0.5,1-0.8s0.5-0.4,0.7-0.6l0.5-0.4l0.7-0.7
					c0.1-0.1,0.3-0.3,0.4-0.4s0.5-0.5,0.8-0.8l0.3-0.3c0.3-0.3,0.6-0.7,0.9-1C440.7,84.5,440.8,84.5,440.8,84.5z"/>
			</defs>
			<use xlink:href="#SVGID_43_"  style="overflow:visible;"/>
			<clipPath id="SVGID_44_">
				<use xlink:href="#SVGID_43_"  style="overflow:visible;"/>
			</clipPath>
			<g class="st21">
				<g>
					<path d="M440.8,84.5h4.5c0,0.1-0.1,0.1-0.1,0.2c-0.3,0.3-0.6,0.7-0.9,1l-0.3,0.3c-0.2,0.3-0.5,0.5-0.8,0.8l-0.4,0.4l-0.7,0.7
						l-0.5,0.4l-0.7,0.6c-0.3,0.3-0.6,0.5-1,0.8s-0.9,0.6-1.3,0.9s-0.8,0.6-1.3,0.8s-0.9,0.5-1.3,0.8s-0.6,0.3-0.9,0.5l-0.6,0.3
						c-0.4,0.2-0.8,0.4-1.2,0.6s-0.8,0.3-1.1,0.5l-0.6,0.2c-0.4,0.1-0.8,0.3-1.1,0.4c-1,0.3-2,0.6-3,0.8c-0.5,0.1-1,0.2-1.6,0.3
						s-1,0.1-1.6,0.2s-1,0.1-1.6,0.1h-4.5c0.5,0,1-0.1,1.6-0.1s1-0.1,1.6-0.2s1-0.2,1.6-0.3c1-0.2,2-0.5,3-0.8
						c0.4-0.1,0.8-0.3,1.1-0.4l0.6-0.2c0.4-0.1,0.7-0.3,1.1-0.5s0.8-0.4,1.2-0.6c0.2-0.1,0.4-0.2,0.6-0.3s0.6-0.3,0.9-0.5
						s0.9-0.5,1.3-0.8s0.9-0.5,1.3-0.8s0.8-0.6,1.2-0.9s0.7-0.5,1-0.8s0.5-0.4,0.7-0.6l0.5-0.4l0.7-0.7c0.1-0.1,0.3-0.3,0.4-0.4
						s0.5-0.5,0.8-0.8l0.3-0.3c0.3-0.3,0.6-0.7,0.9-1C440.7,84.6,440.7,84.5,440.8,84.5"/>
				</g>
			</g>
		</g>
	</g>
	<path d="M418.3,96c-0.6,0-1.1,0-1.6,0h-6.5h0.1h0.3h0.1h0.3h0.1c0.6-0.1,1.1-0.1,1.7-0.2l0.5-0.1l0.4-0.1l0.3-0.1l0.7-0.1l0.8-0.2
		l0.6-0.2l0.8-0.2l0.6-0.2l0.8-0.3l0.6-0.2l0.8-0.3l0.5-0.2c0.4-0.2,0.8-0.4,1.2-0.5l0.4-0.2l1-0.5l0.5-0.3c0.2-0.1,0.5-0.3,0.8-0.5
		c0.2-0.1,0.4-0.2,0.5-0.3l0.7-0.5l0.5-0.4l0.7-0.5l0.5-0.4l0.6-0.5l0.5-0.4l0.6-0.5l0.5-0.4l0.6-0.6l0.4-0.4l0.7-0.8l0.3-0.3
		c0.3-0.3,0.6-0.7,0.9-1h8.6c0,0.1-0.1,0.1-0.1,0.2c-0.3,0.3-0.6,0.7-0.9,1l-0.3,0.3c-0.2,0.3-0.5,0.5-0.8,0.8s-0.3,0.3-0.4,0.4
		l-0.7,0.7l-0.5,0.4c-0.2,0.2-0.5,0.4-0.7,0.6s-0.6,0.5-1,0.8s-0.9,0.6-1.2,0.9s-0.8,0.6-1.3,0.8s-0.9,0.5-1.3,0.8s-0.6,0.3-0.9,0.5
		s-0.4,0.2-0.6,0.3c-0.4,0.2-0.8,0.4-1.2,0.6s-0.8,0.3-1.1,0.5l-0.6,0.2c-0.4,0.1-0.8,0.3-1.1,0.4c-1,0.3-2,0.6-3,0.8
		c-0.5,0.1-1,0.2-1.6,0.3s-1,0.1-1.6,0.2S418.8,95.9,418.3,96z"/>
	<polygon points="434.8,80.7 439.3,80.7 447.9,80.7 443.4,80.7 	"/>
	<g>
		<g>
			<defs>
				<path id="SVGID_45_" d="M443.4,80.7h4.5l-0.2,0.3c-0.2,0.4-0.5,0.8-0.7,1.1l-0.3,0.5c-0.2,0.3-0.4,0.6-0.6,0.9s-0.4,0.5-0.6,0.8
					l-0.1,0.1l0,0h-4.5l0,0l0.1-0.1c0.2-0.3,0.4-0.5,0.6-0.8s0.4-0.6,0.6-0.9l0.3-0.5c0.2-0.4,0.5-0.7,0.7-1.1
					C443.3,80.9,443.4,80.8,443.4,80.7z"/>
			</defs>
			<use xlink:href="#SVGID_45_"  style="overflow:visible;"/>
			<clipPath id="SVGID_46_">
				<use xlink:href="#SVGID_45_"  style="overflow:visible;"/>
			</clipPath>
			<g class="st22">
				<g>
					<path d="M443.4,80.7h4.5l-0.2,0.3c-0.2,0.4-0.5,0.8-0.7,1.1l0,0h-4.5l0,0c0.2-0.4,0.5-0.7,0.7-1.1
						C443.3,80.9,443.4,80.8,443.4,80.7"/>
					<path d="M442.5,82.1h4.5l-0.3,0.5c-0.2,0.3-0.4,0.6-0.6,0.9s-0.4,0.5-0.6,0.8l-0.1,0.1l0,0h-4.5l0,0l0.1-0.1
						c0.2-0.3,0.4-0.5,0.6-0.8s0.4-0.6,0.6-0.9L442.5,82.1"/>
				</g>
			</g>
		</g>
	</g>
	<path d="M434.8,80.7h8.6c0,0.1-0.1,0.2-0.2,0.3c-0.2,0.4-0.5,0.8-0.7,1.1l-0.3,0.5c-0.2,0.3-0.4,0.6-0.6,0.9s-0.4,0.5-0.6,0.8
		l-0.1,0.1l0,0h-8.7c0,0,0,0,0,0c0.1-0.1,0.1-0.1,0.2-0.2l0.7-0.9l0.3-0.4l0.6-0.8l0.2-0.3C434.3,81.4,434.6,81.1,434.8,80.7z"/>
	<polygon points="436.5,77.5 441,77.5 449.6,77.5 445.1,77.5 	"/>
	<g>
		<g>
			<defs>
				<path id="SVGID_47_" d="M445.1,77.5h4.5l-0.1,0.2c-0.2,0.4-0.4,0.8-0.6,1.2c-0.1,0.1-0.1,0.2-0.2,0.3c-0.3,0.5-0.5,1-0.8,1.5v0
					h-4.5v0c0.3-0.5,0.6-1,0.9-1.5c0-0.1,0.1-0.2,0.2-0.3c0.2-0.4,0.4-0.8,0.6-1.2L445.1,77.5z"/>
			</defs>
			<use xlink:href="#SVGID_47_"  style="overflow:visible;"/>
			<clipPath id="SVGID_48_">
				<use xlink:href="#SVGID_47_"  style="overflow:visible;"/>
			</clipPath>
			<g class="st23">
				<g>
					<path d="M445.1,77.5h4.5l-0.1,0.2v0.1h-4.5v-0.1L445.1,77.5"/>
					<path d="M445,77.7h4.5c-0.2,0.4-0.4,0.8-0.5,1.1c-0.1,0.1-0.1,0.2-0.2,0.3c-0.3,0.5-0.5,1-0.8,1.5v0h-4.5v0
						c0.3-0.5,0.6-1,0.9-1.5c0-0.1,0.1-0.2,0.2-0.3C444.7,78.5,444.9,78.1,445,77.7"/>
				</g>
			</g>
		</g>
	</g>
	<path d="M436.5,77.5h8.6l-0.1,0.2c-0.2,0.4-0.4,0.8-0.6,1.2c-0.1,0.1-0.1,0.2-0.2,0.3c-0.3,0.5-0.5,1-0.9,1.5v0h-8.6v0
		c0.3-0.5,0.6-1,0.8-1.5c0.1-0.1,0.1-0.2,0.2-0.3c0.2-0.4,0.4-0.8,0.6-1.2C436.5,77.6,436.5,77.5,436.5,77.5z"/>
	<path d="M437.8,74.3h8.6c0,0.1-0.1,0.3-0.1,0.4s-0.1,0.3-0.1,0.4c-0.2,0.4-0.3,0.9-0.5,1.3s-0.3,0.7-0.5,1h-8.6
		c0.1-0.1,0.1-0.3,0.2-0.4s0.2-0.6,0.4-0.9l0.2-0.6c0.1-0.3,0.2-0.6,0.3-0.9L437.8,74.3z"/>
	<g>
		<g>
			<defs>
				<path id="SVGID_49_" d="M446.4,74.3h4.5c0,0.1-0.1,0.3-0.1,0.4s-0.1,0.3-0.1,0.4c-0.2,0.4-0.3,0.9-0.5,1.3s-0.3,0.7-0.5,1h-4.5
					c0.1-0.3,0.3-0.7,0.5-1s0.3-0.9,0.5-1.3c0-0.1,0.1-0.3,0.1-0.4S446.3,74.5,446.4,74.3z"/>
			</defs>
			<use xlink:href="#SVGID_49_"  style="overflow:visible;"/>
			<clipPath id="SVGID_50_">
				<use xlink:href="#SVGID_49_"  style="overflow:visible;"/>
			</clipPath>
			<g class="st24">
				<g>
					<path d="M446.4,74.3h4.5c0,0.1-0.1,0.3-0.1,0.4s-0.1,0.3-0.1,0.4c-0.2,0.4-0.3,0.9-0.5,1.3s-0.3,0.7-0.5,1h-4.5
						c0.1-0.3,0.3-0.7,0.5-1s0.3-0.9,0.5-1.3c0-0.1,0.1-0.3,0.1-0.4S446.3,74.5,446.4,74.3"/>
				</g>
			</g>
		</g>
	</g>
	<polygon points="437.8,74.3 442.2,74.3 450.9,74.3 446.4,74.3 	"/>
	<g>
		<g>
			<defs>
				<path id="SVGID_51_" d="M436.9,7.5h4.5c0.2,0.2,0.4,0.4,0.6,0.6l0.3,0.3c0.3,0.3,0.7,0.6,1,1l0.3,0.3c0.2,0.2,0.5,0.5,0.7,0.7
					l0.4,0.4l0.6,0.7l0.4,0.4l0.5,0.7l0.3,0.4l0.5,0.8l0.3,0.4c0.3,0.4,0.5,0.8,0.8,1.2c0.3,0.4,0.5,0.9,0.8,1.3s0.5,0.9,0.7,1.4
					c0.4,0.9,0.8,1.9,1.2,2.9c0.2,0.5,0.3,0.9,0.5,1.4c0,0.1,0.1,0.1,0.1,0.2c0.1,0.4,0.2,0.8,0.3,1.2c0,0.1,0,0.2,0.1,0.3h-4.5
					c0-0.1-0.1-0.2-0.1-0.3c-0.1-0.4-0.2-0.8-0.3-1.2l-0.1-0.2c-0.1-0.5-0.3-0.9-0.5-1.4c-0.4-1-0.8-1.9-1.2-2.9
					c-0.2-0.5-0.5-0.9-0.7-1.4s-0.5-0.9-0.8-1.3s-0.5-0.8-0.8-1.2l-0.3-0.4L442,13l-0.3-0.4l-0.5-0.7l-0.4-0.4
					c-0.2-0.2-0.4-0.5-0.6-0.7s-0.2-0.3-0.4-0.4l-0.7-0.7l-0.3-0.3c-0.3-0.3-0.7-0.7-1-1l-0.3-0.3L436.9,7.5z"/>
			</defs>
			<use xlink:href="#SVGID_51_"  style="overflow:visible;"/>
			<clipPath id="SVGID_52_">
				<use xlink:href="#SVGID_51_"  style="overflow:visible;"/>
			</clipPath>
			<g class="st25">
				<g>
					<path d="M436.9,7.5h4.5c0.2,0.2,0.4,0.4,0.6,0.6l0.3,0.3L443,9h-4.5l-0.7-0.6l-0.3-0.3L436.9,7.5"/>
					<path d="M438.5,9h4.5l0.3,0.3l0.3,0.3c0.2,0.2,0.5,0.5,0.7,0.7l0.4,0.4l0.6,0.7l0.4,0.4l0.5,0.7l0.3,0.4l0.5,0.8l0.3,0.4
						c0.3,0.4,0.5,0.8,0.8,1.2c0.3,0.4,0.5,0.9,0.8,1.3s0.5,0.9,0.7,1.4l0,0H445l0,0c-0.2-0.5-0.5-0.9-0.7-1.4s-0.5-0.9-0.8-1.3
						s-0.5-0.8-0.8-1.2l-0.3-0.4l-0.5-0.8l-0.3-0.4l-0.5-0.7l-0.4-0.4c-0.2-0.2-0.4-0.5-0.6-0.7s-0.2-0.3-0.4-0.4l-0.7-0.7l-0.3-0.3
						C438.7,9.2,438.6,9.1,438.5,9"/>
					<path d="M445,18.2h4.5c0.4,0.9,0.8,1.9,1.2,2.8c0.2,0.5,0.3,0.9,0.5,1.4c0,0.1,0.1,0.1,0.1,0.2c0.1,0.4,0.2,0.8,0.3,1.2
						c0,0.1,0,0.2,0.1,0.3h-4.5c0-0.1-0.1-0.2-0.1-0.3c-0.1-0.4-0.2-0.8-0.3-1.2l-0.1-0.2c-0.1-0.5-0.3-0.9-0.5-1.4
						C445.8,20,445.4,19.1,445,18.2"/>
				</g>
			</g>
		</g>
	</g>
	<polygon points="438.5,24.3 443,24.3 451.6,24.3 447.1,24.3 	"/>
	<path d="M447.1,24.1c0,0.1,0,0.1,0,0.2h-8.6c0-0.1,0-0.1,0-0.2s-0.1-0.3-0.1-0.5s-0.2-0.6-0.2-0.9s-0.1-0.4-0.2-0.5l-0.3-0.9
		c-0.1-0.2-0.1-0.3-0.2-0.5c-0.1-0.4-0.3-0.8-0.4-1.1c0-0.1-0.1-0.1-0.1-0.2c-0.2-0.4-0.4-0.9-0.6-1.3l-0.2-0.4
		c-0.1-0.3-0.3-0.6-0.4-0.9l-0.2-0.5l-0.5-0.8l-0.3-0.5l-0.5-0.9L434,14c-0.2-0.4-0.5-0.8-0.8-1.1c-0.1-0.1-0.1-0.2-0.2-0.3
		c-0.2-0.3-0.4-0.6-0.6-0.8l-0.3-0.4l-0.6-0.7l-0.3-0.4c-0.2-0.2-0.4-0.5-0.7-0.7s-0.2-0.2-0.3-0.3c-0.3-0.3-0.6-0.6-1-1l-0.2-0.2
		c-0.2-0.2-0.5-0.4-0.7-0.6h8.6l0.6,0.6l0.3,0.3c0.3,0.3,0.7,0.6,1,1l0.3,0.3l0.7,0.7c0.1,0.1,0.2,0.3,0.4,0.4s0.4,0.4,0.6,0.7
		l0.4,0.4l0.5,0.7l0.3,0.4l0.5,0.8l0.3,0.4c0.3,0.4,0.5,0.8,0.8,1.2s0.5,0.9,0.8,1.3s0.5,0.9,0.7,1.4c0.4,0.9,0.8,1.9,1.2,2.9
		c0.2,0.5,0.3,0.9,0.5,1.4l0.1,0.2c0.1,0.4,0.2,0.8,0.3,1.2C447,23.9,447.1,24,447.1,24.1z"/>
	<g>
		<g>
			<defs>
				<path id="SVGID_53_" d="M447.1,24.1h4.5c0,0.1,0,0.1,0,0.2h-4.5C447.1,24.3,447.1,24.2,447.1,24.1z"/>
			</defs>
			<use xlink:href="#SVGID_53_"  style="overflow:visible;"/>
			<clipPath id="SVGID_54_">
				<use xlink:href="#SVGID_53_"  style="overflow:visible;"/>
			</clipPath>
			<g class="st26">
				<g>
					<path d="M447.1,24.1h4.5c0,0,0,0.1,0,0.1L447.1,24.1C447.1,24.2,447.1,24.2,447.1,24.1"/>
					<path d="M447.1,24.2h4.5v0.1L447.1,24.2L447.1,24.2"/>
					<path d="M447.1,24.3h4.5v0.1L447.1,24.3L447.1,24.3"/>
				</g>
			</g>
		</g>
	</g>
	<path d="M438.6,71.2h8.7c0,0.1,0,0.2-0.1,0.4l-0.2,0.7c-0.1,0.4-0.2,0.8-0.3,1.1l0,0c-0.1,0.3-0.2,0.5-0.3,0.8h-8.6l0.1-0.4
		c0.1-0.3,0.2-0.5,0.2-0.8l0.2-0.7c0.1-0.3,0.1-0.5,0.2-0.8S438.6,71.4,438.6,71.2z"/>
	<polygon points="438.6,71.2 443.1,71.2 451.7,71.2 447.2,71.2 	"/>
	<g>
		<g>
			<defs>
				<path id="SVGID_55_" d="M447.3,71.2h4.5c0,0.1,0,0.2-0.1,0.4s-0.1,0.5-0.2,0.7s-0.2,0.8-0.3,1.1l0,0l-0.3,0.8h-4.5
					c0.1-0.3,0.2-0.5,0.3-0.8l0,0c0.1-0.4,0.2-0.8,0.3-1.1l0.2-0.7C447.2,71.5,447.3,71.4,447.3,71.2z"/>
			</defs>
			<use xlink:href="#SVGID_55_"  style="overflow:visible;"/>
			<clipPath id="SVGID_56_">
				<use xlink:href="#SVGID_55_"  style="overflow:visible;"/>
			</clipPath>
			<g class="st27">
				<g>
					<path d="M447.3,71.2h4.5c0,0.1,0,0.2-0.1,0.4s-0.1,0.5-0.2,0.7s-0.2,0.8-0.3,1.1l0,0v0.1h-4.5v-0.1l0,0
						c0.1-0.4,0.2-0.8,0.3-1.1l0.2-0.7C447.2,71.5,447.2,71.4,447.3,71.2"/>
					<path d="M446.6,73.6h4.5l-0.2,0.7h-4.5C446.5,74.1,446.6,73.9,446.6,73.6"/>
				</g>
			</g>
		</g>
	</g>
	<g>
		<g>
			<defs>
				<path id="SVGID_57_" d="M447.8,68.1h4.5c0,0.1,0,0.3,0,0.4c0,0.3-0.1,0.6-0.1,0.8S452,69.8,452,70s-0.1,0.5-0.2,0.8l-0.1,0.4
					h-4.4l0.1-0.4c0.1-0.3,0.1-0.5,0.2-0.8s0.1-0.5,0.1-0.8s0.1-0.5,0.1-0.8C447.8,68.3,447.8,68.2,447.8,68.1z"/>
			</defs>
			<use xlink:href="#SVGID_57_"  style="overflow:visible;"/>
			<clipPath id="SVGID_58_">
				<use xlink:href="#SVGID_57_"  style="overflow:visible;"/>
			</clipPath>
			<g class="st28">
				<g>
					<path d="M447.8,68.1h4.5c0,0.1,0,0.3,0,0.4c0,0.3-0.1,0.6-0.1,0.8L452,70h-4.5c0-0.2,0.1-0.5,0.1-0.7s0.1-0.5,0.1-0.8
						C447.7,68.3,447.7,68.2,447.8,68.1"/>
					<path d="M447.5,70h4.5v0.1c-0.1,0.3-0.1,0.5-0.2,0.8l-0.1,0.4h-4.5l0.1-0.4C447.4,70.6,447.5,70.4,447.5,70L447.5,70"/>
				</g>
			</g>
		</g>
	</g>
	<polygon points="439.2,68.1 443.6,68.1 452.3,68.1 447.8,68.1 	"/>
	<path d="M439.2,68.1h8.6c0,0.1,0,0.3,0,0.4c0,0.3-0.1,0.6-0.1,0.8s-0.1,0.5-0.1,0.8s-0.1,0.5-0.2,0.8l-0.1,0.4h-8.6
		c0-0.2,0.1-0.3,0.1-0.5s0.1-0.3,0.1-0.5c0.1-0.4,0.1-0.7,0.2-1.1l0.1-0.4c0,0,0,0,0,0L439.2,68.1z"/>
	<path d="M447.9,28.8h-8.6l0,0c0-0.1,0-0.2,0-0.3c0-0.4-0.1-0.8-0.1-1.1c0-0.1,0-0.3-0.1-0.4c-0.1-0.4-0.1-0.8-0.2-1.2
		c0-0.1,0-0.2,0-0.2c-0.1-0.4-0.2-0.8-0.2-1.2h8.6c0,0.2,0.1,0.4,0.1,0.6s0.1,0.6,0.2,1l0.1,0.7l0.1,1c0,0.3,0.1,0.7,0.1,1
		L447.9,28.8z"/>
	<g>
		<g>
			<defs>
				<path id="SVGID_59_" d="M447.1,24.3h4.5c0,0.2,0.1,0.4,0.1,0.6s0.1,0.6,0.2,1l0.1,0.7c0,0.3,0.1,0.6,0.1,1s0.1,0.7,0.1,1v0.3
					h-4.5v-0.3c0-0.3-0.1-0.7-0.1-1l-0.1-1l-0.1-0.7c-0.1-0.3-0.1-0.6-0.2-1S447.2,24.5,447.1,24.3z"/>
			</defs>
			<use xlink:href="#SVGID_59_"  style="overflow:visible;"/>
			<clipPath id="SVGID_60_">
				<use xlink:href="#SVGID_59_"  style="overflow:visible;"/>
			</clipPath>
			<g class="st29">
				<g>
					<path d="M447.1,24.3h4.5c0,0.2,0.1,0.3,0.1,0.5h-4.5C447.3,24.7,447.2,24.5,447.1,24.3"/>
					<path d="M447.3,24.8h4.5v0.1L447.3,24.8L447.3,24.8"/>
					<path d="M447.3,24.9h4.5l0,0V25L447.3,24.9L447.3,24.9L447.3,24.9"/>
					<path d="M447.3,25h4.5c0.1,0.3,0.1,0.6,0.2,0.9l0.1,0.7c0,0.3,0.1,0.6,0.1,1s0.1,0.7,0.1,1v0.3h-4.5v-0.3c0-0.3-0.1-0.7-0.1-1
						l-0.1-1l-0.1-0.7L447.3,25"/>
				</g>
			</g>
		</g>
	</g>
	<polygon points="447.9,28.8 452.4,28.8 443.8,28.9 439.3,28.9 	"/>
	<polygon points="439.3,28.9 443.8,28.9 452.4,28.9 447.9,28.9 	"/>
	<g>
		<g>
			<defs>
				<path id="SVGID_61_" d="M447.9,28.9h4.5c0,0.4,0.1,0.7,0.1,1.1c0,0.2,0,0.4,0,0.5H448c0-0.2,0-0.4,0-0.5
					C448,29.6,447.9,29.2,447.9,28.9z"/>
			</defs>
			<use xlink:href="#SVGID_61_"  style="overflow:visible;"/>
			<clipPath id="SVGID_62_">
				<use xlink:href="#SVGID_61_"  style="overflow:visible;"/>
			</clipPath>
			<g class="st30">
				<g>
					<path d="M447.9,28.9h4.5l0.1,0.7H448L447.9,28.9"/>
					<path d="M448,29.6h4.5c0,0.1,0,0.2,0,0.4V30H448v-0.1C448,29.8,448,29.7,448,29.6"/>
					<path d="M448,30h4.5v0.2H448V30"/>
					<path d="M448,30.2h4.5c0,0.1,0,0.2,0,0.2H448C448,30.4,448,30.3,448,30.2"/>
				</g>
			</g>
		</g>
	</g>
	<polygon points="439.4,64.7 443.9,64.7 452.5,64.7 448,64.7 	"/>
	<g>
		<g>
			<defs>
				<path id="SVGID_63_" d="M448,64.6h4.5c0,0.1,0,0.3,0,0.4c0,0.3,0,0.6,0,1s0,0.5,0,0.7l-0.1,0.9c0,0.1,0,0.2,0,0.4h-4.5
					c0-0.1,0-0.2,0-0.4l0.1-0.9c0-0.2,0-0.5,0-0.7s0-0.6,0-1C448,64.9,448,64.8,448,64.6z"/>
			</defs>
			<use xlink:href="#SVGID_63_"  style="overflow:visible;"/>
			<clipPath id="SVGID_64_">
				<use xlink:href="#SVGID_63_"  style="overflow:visible;"/>
			</clipPath>
			<g class="st31">
				<g>
					<path d="M448,64.6h4.5c0,0.1,0,0.3,0,0.4c0,0.3,0,0.6,0,0.9H448c0-0.3,0-0.6,0-0.9C448,64.9,448,64.8,448,64.6"/>
					<path d="M448,66h4.5l0,0c0,0.2,0,0.5,0,0.7l-0.1,0.9c0,0.1,0,0.2,0,0.4h-4.5c0-0.1,0-0.2,0-0.4l0.1-0.9
						C447.9,66.5,447.9,66.2,448,66L448,66"/>
				</g>
			</g>
		</g>
	</g>
	<path d="M439.4,64.6h8.6c0,0.1,0,0.3,0,0.4c0,0.3,0,0.6,0,1s0,0.5,0,0.7l-0.1,0.9c0,0.1,0,0.2,0,0.4h-8.7V68v-0.3
		c0-0.3,0.1-0.6,0.1-0.9s0-0.5,0-0.8s0-0.6,0-0.9C439.4,65,439.4,64.8,439.4,64.6z"/>
	<polygon points="439.4,64 443.9,64 452.5,64 448.1,64 	"/>
	<g>
		<g>
			<defs>
				<path id="SVGID_65_" d="M448.1,64h4.5c0,0.2,0,0.4,0,0.6h-4.5C448,64.4,448.1,64.2,448.1,64z"/>
			</defs>
			<use xlink:href="#SVGID_65_"  style="overflow:visible;"/>
			<clipPath id="SVGID_66_">
				<use xlink:href="#SVGID_65_"  style="overflow:visible;"/>
			</clipPath>
			<g class="st32">
				<g>
					<path d="M448.1,64h4.5c0,0.2,0,0.4,0,0.6h-4.5C448.1,64.4,448.1,64.2,448.1,64"/>
				</g>
			</g>
		</g>
	</g>
	<path d="M448,64.6h-8.6V64h8.6C448.1,64.2,448,64.4,448,64.6z"/>
	<polygon points="439.4,32 443.9,32 452.5,32 448.1,32 	"/>
	<path d="M448,30.5c0,0.5,0,1,0,1.5h-8.6c0-0.5,0-1.1,0-1.6c0-0.2,0-0.5,0-0.7s0-0.6-0.1-0.8h8.6c0,0.4,0.1,0.7,0.1,1.1
		C448,30.1,448,30.3,448,30.5z"/>
	<g>
		<g>
			<defs>
				<path id="SVGID_67_" d="M448,30.5h4.5c0,0.5,0,1,0,1.5H448C448,31.5,448.1,31,448,30.5z"/>
			</defs>
			<use xlink:href="#SVGID_67_"  style="overflow:visible;"/>
			<clipPath id="SVGID_68_">
				<use xlink:href="#SVGID_67_"  style="overflow:visible;"/>
			</clipPath>
			<g class="st33">
				<g>
					<path d="M448,30.5h4.5c0,0.5,0,1,0,1.5H448C448,31.5,448,31,448,30.5"/>
				</g>
			</g>
		</g>
	</g>
	<rect x="439.4" y="32" width="8.6" height="32"/>
	<rect x="448.1" y="32" width="4.5" height="32"/>
</g>
</svg>
