<svg id="Layer_2" data-name="Layer 2" xmlns="http://www.w3.org/2000/svg" viewBox="0 0 511.96 512.05"><defs><style>.cls-1{fill:#2955c1;}</style></defs><title>searchIcon</title><path class="cls-1" d="M505,453.7,405.3,354a24,24,0,0,0-17-7H372a207,207,0,0,0,44-128c0-114.9-93.1-208-208-208S0,104.1,0,219,93.1,427,208,427a207,207,0,0,0,128-44v16.3a24,24,0,0,0,7,17L442.7,516a23.9,23.9,0,0,0,33.9,0l28.3-28.3A24.11,24.11,0,0,0,505,453.7ZM208,347A128,128,0,1,1,336,219,127.93,127.93,0,0,1,208,347Z" transform="translate(0 -11)"/></svg>