<?xml version="1.0" encoding="utf-8"?>
<!-- Generator: Adobe Illustrator 23.0.4, SVG Export Plug-In . SVG Version: 6.00 Build 0)  -->
<svg version="1.1" id="Layer_1" xmlns="http://www.w3.org/2000/svg" xmlns:xlink="http://www.w3.org/1999/xlink" x="0px" y="0px"
	 viewBox="0 0 533.3 534.5" style="enable-background:new 0 0 533.3 534.5;" xml:space="preserve">
<style type="text/css">
	.st0{fill:none;stroke:#000000;stroke-width:30;stroke-miterlimit:10;}
</style>
<title>stopListening</title>
<g>
	<path d="M226.6,271.9c0,15.5-12.5,28-28,28s-28-12.5-28-28c0-44.2,35.8-80,80-80s80,35.8,80,80c0,15.5-12.5,28-28,28
		s-28-12.5-28-28c0-13.3-10.7-24-24-24S226.6,258.6,226.6,271.9z M250.6,95.8c-97,0-176,79-176,176c0,15.5,12.5,28,28,28
		s28-12.5,28-28c0-66.3,53.7-120,120-120s120,53.7,120,120c0,75.2-71,70.3-72,143.6v0.4c0,28.7-23.3,52-52,52c-15.5,0-28,12.5-28,28
		s12.5,28,28,28c59.5-0.1,107.8-48.2,108-107.8c0.6-34.4,72-48.2,72-144.2C426.6,174.9,347.7,95.8,250.6,95.8z M170.6,331.9
		c-17.7,0-32,14.3-32,32s14.3,32,32,32s32-14.3,32-32S188.3,331.9,170.6,331.9z M42.6,459.9c-17.7,0-32,14.3-32,32s14.3,32,32,32
		s32-14.3,32-32S60.3,459.9,42.6,459.9z M522.6,271.9c0-1.5,0-3,0-4.5c-1.9-115-75.8-217-184-254c-14.6-5-30.6,2.8-35.5,17.4
		c-5,14.6,2.8,30.6,17.4,35.6c85.9,29.4,144.6,110.5,146.1,202v0.2c0,1.1,0,2.2,0,3.4c0,15.5,12.5,28,28,28S522.6,287.3,522.6,271.9
		L522.6,271.9z M163.6,450.9l-80-80l-34,34l80,80L163.6,450.9z"/>
</g>
<g>
	<line class="st0" x1="522.6" y1="11.9" x2="10.6" y2="523.8"/>
	<line class="st0" x1="522.7" y1="522.6" x2="10.7" y2="10.6"/>
</g>
</svg>
