<?xml version="1.0" encoding="utf-8"?>
<!-- Generator: Adobe Illustrator 22.1.0, SVG Export Plug-In . SVG Version: 6.00 Build 0)  -->
<svg version="1.1" xmlns="http://www.w3.org/2000/svg" xmlns:xlink="http://www.w3.org/1999/xlink" x="0px" y="0px"
	 viewBox="0 0 512 512" style="enable-background:new 0 0 512 512;" xml:space="preserve">
<g id="Layer_1">
</g>
<g id="Layer_7">
	<g>
		<path d="M375.6,251.4v171.1c0,12.4-10,22.4-22.4,22.4H129.4c-12.4,0-22.4-10-22.4-22.4V244.3c0-5.9,2.4-11.6,6.6-15.8l45.6-45.6
			c4.2-4.2,9.9-6.6,15.8-6.6H202l5.6-12.9c0,0,0-0.1,0-0.1l0.2-0.5l7.4-16.9h-74.6v-27c0-6.2-5-11.2-11.2-11.2s-11.2,5-11.2,11.2v27
			h-8.6c-18.2,0-33,14.8-33,33v8.6h-30c-6.2,0-11.2,5-11.2,11.2c0,6.2,5,11.2,11.2,11.2h30v52.2h-30c-6.2,0-11.2,5-11.2,11.2
			s5,11.2,11.2,11.2h30v52.2h-30c-6.2,0-11.2,5-11.2,11.2s5,11.2,11.2,11.2h30v52.2h-30c-6.2,0-11.2,5-11.2,11.2s5,11.2,11.2,11.2
			h30v8.6c0,18.2,14.8,33,33,33h8.6v25.5c0,6.2,5,11.2,11.2,11.2s11.2-5,11.2-11.2v-25.5h52.2v25.5c0,6.2,5,11.2,11.2,11.2
			c6.2,0,11.2-5,11.2-11.2v-25.5h52.2v25.5c0,6.2,5,11.2,11.2,11.2s11.2-5,11.2-11.2v-25.5H342v25.5c0,6.2,5,11.2,11.2,11.2
			c6.2,0,11.2-5,11.2-11.2v-25.5h8.6c18.2,0,33-14.8,33-33v-8.4l31.3,0.4c0.1,0,0.1,0,0.2,0c6.1,0,11.1-4.9,11.2-11
			c0.1-6.2-4.9-11.3-11-11.3l-31.6-0.4v-52.3l32.3,0.4c0.1,0,0.1,0,0.2,0c6.1,0,11.1-4.9,11.2-11c0.1-6.2-4.9-11.3-11-11.3
			l-32.6-0.4v-52.3l33.3,0.4c0,0,0.1,0,0.2,0c6.1,0,11.1-4.9,11.2-11c0.1-6.2-4.9-11.2-11-11.3l-33.6-0.4v-39.6L375.6,251.4z"/>
		<path d="M129.4,422.5h223.9V272.4l-87.9,82.7c-4.6,4.4-10.7,6.8-17,6.8c-8.7,0-16.8-4.6-21.3-12.1c-4.5-7.5-4.7-16.6-0.6-24.3
			l67.2-126.9H175l-45.6,45.6V422.5z"/>
		<path d="M228,172.4c-0.7,1.6,0.5,3.4,2.2,3.4H327c1.8,0,3,1.9,2.1,3.5l-83,156.7c-1,1.8,0.5,3.6,2.2,3.6c0.6,0,1.1-0.2,1.6-0.7
			l225.9-212.6c1.6-1.5,0.5-4.2-1.7-4.2H363.8c-1.8,0-3-1.9-2.1-3.5L420.2,3.5c0.8-1.6-0.3-3.5-2.1-3.5H306.8
			c-0.9,0-1.8,0.6-2.2,1.4L228,172.4z"/>
	</g>
</g>
</svg>
