<?xml version="1.0" encoding="UTF-8" standalone="no"?>
<svg
   xmlns:dc="http://purl.org/dc/elements/1.1/"
   xmlns:cc="http://creativecommons.org/ns#"
   xmlns:rdf="http://www.w3.org/1999/02/22-rdf-syntax-ns#"
   xmlns:svg="http://www.w3.org/2000/svg"
   xmlns="http://www.w3.org/2000/svg"
   xmlns:sodipodi="http://sodipodi.sourceforge.net/DTD/sodipodi-0.dtd"
   xmlns:inkscape="http://www.inkscape.org/namespaces/inkscape"
   aria-hidden="true"
   focusable="false"
   data-prefix="fas"
   data-icon="search-dollar"
   class="svg-inline--fa fa-search-dollar fa-w-16"
   role="img"
   viewBox="0 0 512 512"
   version="1.1"
   id="svg4"
   sodipodi:docname="search-analyze 2.svg"
   inkscape:version="0.92.4 (5da689c313, 2019-01-14)">
  <metadata
     id="metadata10">
    <rdf:RDF>
      <cc:Work
         rdf:about="">
        <dc:format>image/svg+xml</dc:format>
        <dc:type
           rdf:resource="http://purl.org/dc/dcmitype/StillImage" />
      </cc:Work>
    </rdf:RDF>
  </metadata>
  <defs
     id="defs8" />
  <sodipodi:namedview
     pagecolor="#ffffff"
     bordercolor="#666666"
     borderopacity="1"
     objecttolerance="10"
     gridtolerance="10"
     guidetolerance="10"
     inkscape:pageopacity="0"
     inkscape:pageshadow="2"
     inkscape:window-width="3128"
     inkscape:window-height="2171"
     id="namedview6"
     showgrid="true"
     inkscape:zoom="2.98"
     inkscape:cx="206.11604"
     inkscape:cy="282.84987"
     inkscape:window-x="170"
     inkscape:window-y="0"
     inkscape:window-maximized="0"
     inkscape:current-layer="svg4">
    <inkscape:grid
       type="xygrid"
       id="grid817" />
  </sodipodi:namedview>
  <path
     d="m 505.04,442.66 -99.71,-99.69 c -4.5,-4.5 -10.6,-7 -17,-7 h -16.3 c 27.6,-35.3 44,-79.69 44,-127.99 C 416.03,93.09 322.92,0 208.02,0 93.12,0 0,93.09 0,207.98 c 0,114.89 93.11,207.98 208.02,207.98 48.3,0 92.71,-16.4 128.01,-44 v 16.3 c 0,6.4 2.5,12.5 7,17 l 99.71,99.69 c 9.4,9.4 24.6,9.4 33.9,0 l 28.3,-28.3 c 9.4,-9.4 9.4,-24.59 0.1,-33.99 z m -297.02,-90.7 c -79.54,0 -144,-64.34 -144,-143.98 0,-79.53 64.35,-143.98 144,-143.98 79.54,0 144,64.34 144,143.98 0,79.53 -64.35,143.98 -144,143.98 z"
     id="path2"
     inkscape:connector-curvature="0"
     style="fill:currentColor"
     sodipodi:nodetypes="ccscsssscscccscsssss" />
  <path
     style="fill:none;stroke:#000000;stroke-width:28;stroke-linecap:round;stroke-linejoin:round;stroke-miterlimit:4;stroke-dasharray:none;stroke-opacity:1"
     d="m 110.00039,217.99962 h 35 l 30,-70 32.99999,120 40,-85 20,35 h 35"
     id="path819"
     inkscape:connector-curvature="0"
     sodipodi:nodetypes="ccccccc" />
</svg>
