<?xml version="1.0" encoding="utf-8"?>
<!-- Generator: Adobe Illustrator 23.0.4, SVG Export Plug-In . SVG Version: 6.00 Build 0)  -->
<svg version="1.1" id="Layer_1" xmlns="http://www.w3.org/2000/svg" xmlns:xlink="http://www.w3.org/1999/xlink" x="0px" y="0px"
	 viewBox="0 0 512 512" style="enable-background:new 0 0 512 512;" xml:space="preserve">
<title>listen</title>
<path d="M216,260c0,15.5-12.5,28-28,28s-28-12.5-28-28c0-44.2,35.8-80,80-80s80,35.8,80,80c0,15.5-12.5,28-28,28s-28-12.5-28-28
	c0-13.3-10.7-24-24-24S216,246.7,216,260z M240,84c-97,0-176,79-176,176c0,15.5,12.5,28,28,28s28-12.5,28-28
	c0-66.3,53.7-120,120-120s120,53.7,120,120c0,75.2-71,70.3-72,143.6v0.4c0,28.7-23.3,52-52,52c-15.5,0-28,12.5-28,28s12.5,28,28,28
	c59.5-0.1,107.8-48.2,108-107.8c0.6-34.4,72-48.2,72-144.2C416,163,337,84,240,84z M160,320c-17.7,0-32,14.3-32,32s14.3,32,32,32
	s32-14.3,32-32S177.7,320,160,320z M32,448c-17.7,0-32,14.3-32,32s14.3,32,32,32s32-14.3,32-32S49.7,448,32,448z M512,260
	c0-1.5,0-3,0-4.5c-1.9-115-75.8-217-184-254c-14.6-5-30.6,2.8-35.5,17.4c-5,14.6,2.8,30.6,17.4,35.6C395.8,83.9,454.5,165,456,256.5
	v0.2c0,1.1,0,2.2,0,3.4c0,15.5,12.5,28,28,28S512,275.5,512,260L512,260z M153,439l-80-80l-34,34l80,80L153,439z"/>
</svg>
