<?xml version="1.0" encoding="UTF-8" standalone="no"?>
<!-- Generator: Adobe Illustrator 23.0.4, SVG Export Plug-In . SVG Version: 6.00 Build 0)  -->

<svg
   version="1.1"
   id="Layer_1"
   x="0px"
   y="0px"
   viewBox="0 0 448 448"
   style="enable-background:new 0 0 448 448;"
   xml:space="preserve"
   xmlns="http://www.w3.org/2000/svg"
   xmlns:svg="http://www.w3.org/2000/svg"><defs
   id="defs9" />
<title
   id="title2">saveAs</title>
<path
   d="M433.9,97.9l-83.9-83.9c-9-9-21.2-14.1-33.9-14.1H48C21.5,0,0,21.5,0,48v352c0,26.5,21.5,48,48,48h352c26.5,0,48-21.5,48-48  V131.9C448,119.1,442.9,106.9,433.9,97.9z M224,384c-35.3,0-64-28.7-64-64s28.7-64,64-64s64,28.7,64,64S259.3,384,224,384z   M320,79.5V180c0,6.6-5.4,12-12,12H76c-6.6,0-12-5.4-12-12V76c0-6.6,5.4-12,12-12h228.5c3.2,0,6.2,1.3,8.5,3.5l3.5,3.5  C318.7,73.2,320,76.3,320,79.5z"
   id="path4" />
</svg>
