<?xml version="1.0" encoding="utf-8"?>
<!-- Generator: Adobe Illustrator 23.0.4, SVG Export Plug-In . SVG Version: 6.00 Build 0)  -->
<svg version="1.1" id="Layer_1" xmlns="http://www.w3.org/2000/svg" xmlns:xlink="http://www.w3.org/1999/xlink" x="0px" y="0px"
	 viewBox="0 0 512 512" style="enable-background:new 0 0 512 512;" xml:space="preserve">
<title>searchIcon</title>
<path d="M505,442.7L405.3,343c-4.5-4.5-10.6-7-17-7H372c28.6-36.5,44.1-81.6,44-128C416,93.1,322.9,0,208,0S0,93.1,0,208
	s93.1,208,208,208c46.4,0.1,91.5-15.4,128-44v16.3c0,6.4,2.5,12.5,7,17l99.7,99.7c9.3,9.4,24.4,9.4,33.8,0.1c0,0,0.1-0.1,0.1-0.1
	l28.3-28.3C514.3,467.3,514.3,452.1,505,442.7z M208,336c-70.7,0-128-57.3-128-128S137.3,80,208,80s128,57.3,128,128
	c0,70.7-57.2,128-127.9,128C208.1,336,208,336,208,336z"/>
</svg>
