<?xml version="1.0" encoding="UTF-8" standalone="no"?>
<!-- Generator: Adobe Illustrator 23.0.4, SVG Export Plug-In . SVG Version: 6.00 Build 0)  -->

<svg
   version="1.1"
   id="Layer_1"
   x="0px"
   y="0px"
   viewBox="0 0 452.5 96"
   style="enable-background:new 0 0 452.5 96;"
   xml:space="preserve"
   xmlns:xlink="http://www.w3.org/1999/xlink"
   xmlns="http://www.w3.org/2000/svg"
   xmlns:svg="http://www.w3.org/2000/svg"><defs
   id="defs783" />
<style
   type="text/css"
   id="style2">
	.st0{clip-path:url(#SVGID_2_);}
	.st1{clip-path:url(#SVGID_4_);}
	.st2{clip-path:url(#SVGID_6_);}
	.st3{clip-path:url(#SVGID_8_);}
	.st4{clip-path:url(#SVGID_10_);}
	.st5{clip-path:url(#SVGID_12_);}
	.st6{clip-path:url(#SVGID_14_);}
	.st7{clip-path:url(#SVGID_16_);}
	.st8{clip-path:url(#SVGID_18_);}
	.st9{clip-path:url(#SVGID_20_);}
	.st10{clip-path:url(#SVGID_22_);}
	.st11{clip-path:url(#SVGID_24_);}
	.st12{clip-path:url(#SVGID_26_);}
	.st13{clip-path:url(#SVGID_28_);}
	.st14{clip-path:url(#SVGID_30_);}
	.st15{clip-path:url(#SVGID_32_);}
	.st16{clip-path:url(#SVGID_34_);}
	.st17{clip-path:url(#SVGID_36_);}
	.st18{clip-path:url(#SVGID_38_);}
	.st19{clip-path:url(#SVGID_40_);}
	.st20{clip-path:url(#SVGID_42_);}
	.st21{clip-path:url(#SVGID_44_);}
	.st22{clip-path:url(#SVGID_46_);}
	.st23{clip-path:url(#SVGID_48_);}
	.st24{clip-path:url(#SVGID_50_);}
	.st25{clip-path:url(#SVGID_52_);}
	.st26{clip-path:url(#SVGID_54_);}
	.st27{clip-path:url(#SVGID_56_);}
	.st28{clip-path:url(#SVGID_58_);}
	.st29{clip-path:url(#SVGID_60_);}
	.st30{clip-path:url(#SVGID_62_);}
	.st31{clip-path:url(#SVGID_64_);}
	.st32{clip-path:url(#SVGID_66_);}
	.st33{clip-path:url(#SVGID_68_);}
</style>
<title
   id="title4">minusIcon</title>
<g
   id="g778">
	<g
   id="g30">
		<g
   id="g28">
			<defs
   id="defs7">
				<path
   id="SVGID_1_"
   d="M412.5,0c4.2,0,8.3,0.8,12.2,2.5h-4.4c-3.9-1.7-8-2.5-12.2-2.5H412.5z" />
			</defs>
			<use
   xlink:href="#SVGID_1_"
   style="overflow:visible;"
   id="use9" />
			<clipPath
   id="SVGID_2_">
				<use
   xlink:href="#SVGID_1_"
   style="overflow:visible;"
   id="use11" />
			</clipPath>
			<g
   class="st0"
   clip-path="url(#SVGID_2_)"
   id="g26">
				<g
   id="g24">
					<path
   d="M408,0L408,0"
   id="path14" />
					<path
   d="M408.9,0h4.5c1.3,0,2.5,0.2,3.8,0.4h-4.5C411.5,0.2,410.2,0,408.9,0"
   id="path16" />
					<path
   d="M412.8,0.4h4.5c1.2,0.2,2.5,0.5,3.7,0.8h-4.5C415.3,0.8,414,0.5,412.8,0.4"
   id="path18" />
					<path
   d="M416.4,1.2h4.5c1.3,0.4,2.5,0.8,3.7,1.3h-4.5C419,2,417.7,1.5,416.4,1.2"
   id="path20" />
					<path
   d="M420.2,2.5h4.5c1.4,0.6,2.8,1.3,4.1,2.1h-4.5C423,3.8,421.6,3.1,420.2,2.5"
   id="path22" />
				</g>
			</g>
		</g>
	</g>
	<polygon
   points="31.4,0 35.9,0 412.5,0 408,0  "
   id="polygon32" />
	<polygon
   points="31.4,0 35.9,0 412.5,0 408,0  "
   id="polygon34" />
	<polygon
   points="408,0 412.5,0 421.1,0 416.7,0  "
   id="polygon36" />
	<polygon
   points="408.8,0 413.3,0 421.5,0 417,0  "
   id="polygon38" />
	<path
   d="M417,0L417,0z"
   id="path40" />
	<g
   id="g62">
		<g
   id="g60">
			<defs
   id="defs43">
				<path
   id="SVGID_3_"
   d="M416.7,0L416.7,0z" />
			</defs>
			<use
   xlink:href="#SVGID_3_"
   style="overflow:visible;"
   id="use45" />
			<clipPath
   id="SVGID_4_">
				<use
   xlink:href="#SVGID_3_"
   style="overflow:visible;"
   id="use47" />
			</clipPath>
			<g
   class="st1"
   clip-path="url(#SVGID_4_)"
   id="g58">
				<g
   id="g56">
					<path
   d="M416.7,0L416.7,0"
   id="path50" />
					<path
   d="M416.8,0L416.8,0"
   id="path52" />
					<path
   d="M416.9,0L416.9,0"
   id="path54" />
				</g>
			</g>
		</g>
	</g>
	<g
   id="g80">
		<g
   id="g78">
			<defs
   id="defs65">
				<path
   id="SVGID_5_"
   d="M418.3,96h4.5c-0.6,0-1.1,0-1.6,0h-4.5C417.2,96,417.7,96,418.3,96z" />
			</defs>
			<use
   xlink:href="#SVGID_5_"
   style="overflow:visible;"
   id="use67" />
			<clipPath
   id="SVGID_6_">
				<use
   xlink:href="#SVGID_5_"
   style="overflow:visible;"
   id="use69" />
			</clipPath>
			<g
   class="st2"
   clip-path="url(#SVGID_6_)"
   id="g76">
				<g
   id="g74">
					<path
   d="M418.3,96h4.5c-0.6,0-1.1,0-1.6,0h-4.5C417.2,96,417.7,96,418.3,96"
   id="path72" />
				</g>
			</g>
		</g>
	</g>
	<g
   id="g100">
		<g
   id="g98">
			<defs
   id="defs83">
				<polygon
   id="SVGID_7_"
   points="417,0 421.5,0 422.4,0 423,0 423.9,0.1 424.5,0.1 420,0.1 419.5,0.1 418.5,0 417.9,0     " />
			</defs>
			<use
   xlink:href="#SVGID_7_"
   style="overflow:visible;"
   id="use85" />
			<clipPath
   id="SVGID_8_">
				<use
   xlink:href="#SVGID_7_"
   style="overflow:visible;"
   id="use87" />
			</clipPath>
			<g
   class="st3"
   clip-path="url(#SVGID_8_)"
   id="g96">
				<g
   id="g94">
					<path
   d="M417,0L417,0"
   id="path90" />
					<path
   d="M417.6,0h4.8h0.6l0.9,0.1l0.5,0.1H420l-0.5-0.1L418.5,0h-0.6H417.6"
   id="path92" />
				</g>
			</g>
		</g>
	</g>
	<polygon
   points="412.2,0.3 416.7,0.3 425.2,0.3 420.8,0.3  "
   id="polygon102" />
	<path
   d="M420,0.2l0.8,0.1h-8.6l-0.8-0.1h-0.2c-0.5,0-0.9-0.1-1.4-0.1h-0.3c-0.2,0-0.4,0-0.6,0h8.2h0.9h0.6l0.9,0.1L420,0.2z"
   id="path104" />
	<g
   id="g122">
		<g
   id="g120">
			<defs
   id="defs107">
				<polygon
   id="SVGID_9_"
   points="420,0.2 424.5,0.2 425.2,0.3 420.8,0.3     " />
			</defs>
			<use
   xlink:href="#SVGID_9_"
   style="overflow:visible;"
   id="use109" />
			<clipPath
   id="SVGID_10_">
				<use
   xlink:href="#SVGID_9_"
   style="overflow:visible;"
   id="use111" />
			</clipPath>
			<g
   class="st4"
   clip-path="url(#SVGID_10_)"
   id="g118">
				<g
   id="g116">
					<path
   d="M420,0.2h4.5l0.8,0.1h-4.5L420,0.2"
   id="path114" />
				</g>
			</g>
		</g>
	</g>
	<g
   id="g140">
		<g
   id="g138">
			<defs
   id="defs125">
				<polygon
   id="SVGID_11_"
   points="420.8,0.3 425.3,0.3 425.9,0.4 421.4,0.4     " />
			</defs>
			<use
   xlink:href="#SVGID_11_"
   style="overflow:visible;"
   id="use127" />
			<clipPath
   id="SVGID_12_">
				<use
   xlink:href="#SVGID_11_"
   style="overflow:visible;"
   id="use129" />
			</clipPath>
			<g
   class="st5"
   clip-path="url(#SVGID_12_)"
   id="g136">
				<g
   id="g134">
					<path
   d="M420.8,0.3h4.5l0.6,0.1h-4.5L420.8,0.3"
   id="path132" />
				</g>
			</g>
		</g>
	</g>
	<g
   id="g160">
		<g
   id="g158">
			<defs
   id="defs143">
				<path
   id="SVGID_13_"
   d="M421.4,0.4h4.5c0.5,0.1,0.9,0.2,1.4,0.2l0.5,0.1h-4.5l-0.5-0.1C422.4,0.5,421.9,0.4,421.4,0.4L421.4,0.4      z" />
			</defs>
			<use
   xlink:href="#SVGID_13_"
   style="overflow:visible;"
   id="use145" />
			<clipPath
   id="SVGID_14_">
				<use
   xlink:href="#SVGID_13_"
   style="overflow:visible;"
   id="use147" />
			</clipPath>
			<g
   class="st6"
   clip-path="url(#SVGID_14_)"
   id="g156">
				<g
   id="g154">
					<path
   d="M421.4,0.4L421.4,0.4"
   id="path150" />
					<path
   d="M421.5,0.4h4.5c0.5,0.1,0.9,0.2,1.4,0.2l0.5,0.1h-4.5l-0.5-0.1C422.4,0.5,421.9,0.4,421.5,0.4L421.5,0.4"
   id="path152" />
				</g>
			</g>
		</g>
	</g>
	<g
   id="g178">
		<g
   id="g176">
			<defs
   id="defs163">
				<polygon
   id="SVGID_15_"
   points="423.3,0.7 427.8,0.7 428.4,0.8 423.9,0.8     " />
			</defs>
			<use
   xlink:href="#SVGID_15_"
   style="overflow:visible;"
   id="use165" />
			<clipPath
   id="SVGID_16_">
				<use
   xlink:href="#SVGID_15_"
   style="overflow:visible;"
   id="use167" />
			</clipPath>
			<g
   class="st7"
   clip-path="url(#SVGID_16_)"
   id="g174">
				<g
   id="g172">
					<path
   d="M423.3,0.7h4.5l0.5,0.1h-4.5L423.3,0.7"
   id="path170" />
				</g>
			</g>
		</g>
	</g>
	<polygon
   points="415.3,0.9 419.8,0.9 428.4,0.9 423.9,0.9  "
   id="polygon180" />
	<path
   d="M423.3,0.7l0.5,0.1h-8.6l-0.9-0.2l0,0c-0.4-0.1-0.7-0.1-1.1-0.2L413,0.4h-0.1h-0.2l-0.5-0.1h8.6l0.6,0.1h0.1   c0.5,0.1,0.9,0.2,1.4,0.2L423.3,0.7z"
   id="path182" />
	<g
   id="g202">
		<g
   id="g200">
			<defs
   id="defs185">
				<polygon
   id="SVGID_17_"
   points="423.9,0.9 428.4,0.9 428.7,0.9 429.5,1.2 430.2,1.4 431,1.6 426.5,1.6 425.7,1.4 425,1.2       424.2,0.9     " />
			</defs>
			<use
   xlink:href="#SVGID_17_"
   style="overflow:visible;"
   id="use187" />
			<clipPath
   id="SVGID_18_">
				<use
   xlink:href="#SVGID_17_"
   style="overflow:visible;"
   id="use189" />
			</clipPath>
			<g
   class="st8"
   clip-path="url(#SVGID_18_)"
   id="g198">
				<g
   id="g196">
					<path
   d="M423.9,0.9h4.5l0.3,0.1l0.9,0.2h0.1h-4.5H425l-0.8-0.2L423.9,0.9"
   id="path192" />
					<path
   d="M425.2,1.2h4.5l0.5,0.2l0.8,0.3h-4.5l-0.8-0.3L425.2,1.2"
   id="path194" />
				</g>
			</g>
		</g>
	</g>
	<polygon
   points="418.3,1.8 422.8,1.8 431.4,1.8 426.9,1.8  "
   id="polygon204" />
	<path
   d="M426.5,1.6l0.4,0.1h-8.6l-0.5-0.2l-0.7-0.2l-0.9-0.3C416,1.1,415.8,1,415.6,1l-0.4-0.1h8.6l0.3,0.1l0.8,0.2l0.7,0.2   L426.5,1.6z"
   id="path206" />
	<g
   id="g224">
		<g
   id="g222">
			<defs
   id="defs209">
				<polygon
   id="SVGID_19_"
   points="426.5,1.6 431,1.6 431.4,1.8 426.9,1.8     " />
			</defs>
			<use
   xlink:href="#SVGID_19_"
   style="overflow:visible;"
   id="use211" />
			<clipPath
   id="SVGID_20_">
				<use
   xlink:href="#SVGID_19_"
   style="overflow:visible;"
   id="use213" />
			</clipPath>
			<g
   class="st9"
   clip-path="url(#SVGID_20_)"
   id="g220">
				<g
   id="g218">
					<path
   d="M426.5,1.6h4.5l0.4,0.1h-4.5L426.5,1.6"
   id="path216" />
				</g>
			</g>
		</g>
	</g>
	<g
   id="g244">
		<g
   id="g242">
			<defs
   id="defs227">
				<path
   id="SVGID_21_"
   d="M426.9,1.8h4.5l0.3,0.1l0.6,0.2l0.7,0.3l0.6,0.3h-4.5c-0.2-0.1-0.4-0.2-0.6-0.3l-0.7-0.3l-0.6-0.2      L426.9,1.8z" />
			</defs>
			<use
   xlink:href="#SVGID_21_"
   style="overflow:visible;"
   id="use229" />
			<clipPath
   id="SVGID_22_">
				<use
   xlink:href="#SVGID_21_"
   style="overflow:visible;"
   id="use231" />
			</clipPath>
			<g
   class="st10"
   clip-path="url(#SVGID_22_)"
   id="g240">
				<g
   id="g238">
					<path
   d="M426.9,1.8h4.5l0.3,0.1l0.6,0.2l0.7,0.3l0.2,0.1h-4.5l-0.2-0.1l-0.7-0.3l-0.6-0.2L426.9,1.8"
   id="path234" />
					<path
   d="M428.8,2.5h4.5l0.4,0.2h-4.5L428.8,2.5"
   id="path236" />
				</g>
			</g>
		</g>
	</g>
	<g
   id="g262">
		<g
   id="g260">
			<defs
   id="defs247">
				<polygon
   id="SVGID_23_"
   points="429.2,2.7 433.7,2.7 434.5,3 430,3     " />
			</defs>
			<use
   xlink:href="#SVGID_23_"
   style="overflow:visible;"
   id="use249" />
			<clipPath
   id="SVGID_24_">
				<use
   xlink:href="#SVGID_23_"
   style="overflow:visible;"
   id="use251" />
			</clipPath>
			<g
   class="st11"
   clip-path="url(#SVGID_24_)"
   id="g258">
				<g
   id="g256">
					<path
   d="M429.2,2.7h4.5l0.8,0.4H430L429.2,2.7"
   id="path254" />
				</g>
			</g>
		</g>
	</g>
	<g
   id="g284">
		<g
   id="g282">
			<defs
   id="defs265">
				<path
   id="SVGID_25_"
   d="M424.7,2.5c3.7,1.6,7.1,3.9,10,6.9h-4.5c-2.8-2.9-6.2-5.2-10-6.8l0,0l0,0L424.7,2.5L424.7,2.5z" />
			</defs>
			<use
   xlink:href="#SVGID_25_"
   style="overflow:visible;"
   id="use267" />
			<clipPath
   id="SVGID_26_">
				<use
   xlink:href="#SVGID_25_"
   style="overflow:visible;"
   id="use269" />
			</clipPath>
			<g
   class="st12"
   clip-path="url(#SVGID_26_)"
   id="g280">
				<g
   id="g278">
					<path
   d="M420.2,2.5h4.5c1.4,0.6,2.8,1.3,4.1,2.1h-4.5C423,3.8,421.6,3.1,420.2,2.5"
   id="path272" />
					<path
   d="M424.3,4.6h4.5c2,1.3,3.9,2.7,5.6,4.4h-4.5C428.2,7.4,426.3,5.9,424.3,4.6"
   id="path274" />
					<path
   d="M429.9,9.1h4.5c2.6,2.6,4.8,5.7,6.4,9h-4.5C434.7,14.7,432.5,11.7,429.9,9.1"
   id="path276" />
				</g>
			</g>
		</g>
	</g>
	<polygon
   points="421.4,3 425.9,3 434.5,3 430,3  "
   id="polygon286" />
	<path
   d="M429.2,2.7L430,3h-8.6l-1-0.5l-0.3-0.1l-0.5-0.2l-0.4-0.1l-0.5-0.2l-0.3-0.1h8.6l0.3,0.1l0.6,0.2l0.7,0.3   C428.8,2.5,429,2.6,429.2,2.7z"
   id="path288" />
	<g
   id="g308">
		<g
   id="g306">
			<defs
   id="defs291">
				<path
   id="SVGID_27_"
   d="M430,3h4.5l0.2,0.1l0.1,0.1c0.3,0.2,0.7,0.3,1,0.5l0.7,0.4l0.9,0.5l0.1,0.1H433l-0.1-0.1L432,4.1      l-0.7-0.4c-0.3-0.2-0.7-0.4-1-0.5l-0.1-0.1L430,3z" />
			</defs>
			<use
   xlink:href="#SVGID_27_"
   style="overflow:visible;"
   id="use293" />
			<clipPath
   id="SVGID_28_">
				<use
   xlink:href="#SVGID_27_"
   style="overflow:visible;"
   id="use295" />
			</clipPath>
			<g
   class="st13"
   clip-path="url(#SVGID_28_)"
   id="g304">
				<g
   id="g302">
					<path
   d="M430,3h4.5l0.2,0.1l0.1,0.1c0.3,0.2,0.7,0.3,1,0.5l0.7,0.4l0.9,0.5l0,0h-4.5l0,0L432,4.1l-0.7-0.4       c-0.3-0.2-0.7-0.4-1-0.5l-0.1-0.1L430,3"
   id="path298" />
					<path
   d="M432.9,4.6h4.5l0.1,0.1H433L432.9,4.6"
   id="path300" />
				</g>
			</g>
		</g>
	</g>
	<polygon
   points="424.6,4.8 429.1,4.8 437.7,4.8 433.2,4.8  "
   id="polygon310" />
	<path
   d="M433,4.7l0.2,0.1h-8.6l-0.1-0.1c-0.5-0.3-1-0.6-1.4-0.9s-1-0.6-1.5-0.8L421.4,3h8.6l0.2,0.1l0.1,0.1c0.3,0.2,0.7,0.3,1,0.5   l0.7,0.4l0.9,0.5L433,4.7z"
   id="path312" />
	<g
   id="g330">
		<g
   id="g328">
			<defs
   id="defs315">
				<polygon
   id="SVGID_29_"
   points="433,4.7 437.5,4.7 437.7,4.8 433.3,4.8     " />
			</defs>
			<use
   xlink:href="#SVGID_29_"
   style="overflow:visible;"
   id="use317" />
			<clipPath
   id="SVGID_30_">
				<use
   xlink:href="#SVGID_29_"
   style="overflow:visible;"
   id="use319" />
			</clipPath>
			<g
   class="st14"
   clip-path="url(#SVGID_30_)"
   id="g326">
				<g
   id="g324">
					<path
   d="M433,4.7h4.5l0.2,0.1h-4.4L433,4.7"
   id="path322" />
				</g>
			</g>
		</g>
	</g>
	<g
   id="g348">
		<g
   id="g346">
			<defs
   id="defs333">
				<polygon
   id="SVGID_31_"
   points="433.3,4.8 437.7,4.8 438.7,5.4 438.9,5.6 439.9,6.3 440.2,6.5 441,7.1 441.3,7.4 436.8,7.4       436.5,7.1 435.7,6.5 435.4,6.3 434.4,5.6 434.3,5.4     " />
			</defs>
			<use
   xlink:href="#SVGID_31_"
   style="overflow:visible;"
   id="use335" />
			<clipPath
   id="SVGID_32_">
				<use
   xlink:href="#SVGID_31_"
   style="overflow:visible;"
   id="use337" />
			</clipPath>
			<g
   class="st15"
   clip-path="url(#SVGID_32_)"
   id="g344">
				<g
   id="g342">
					<path
   d="M433.3,4.8h4.5l1,0.6l0.1,0.1l1,0.7l0.3,0.3l0.8,0.6l0.3,0.3h-4.5l-0.3-0.3l-0.8-0.6l-0.3-0.3l-1-0.7l-0.1-0.1       L433.3,4.8"
   id="path340" />
				</g>
			</g>
		</g>
	</g>
	<polygon
   points="428.3,7.5 432.8,7.5 441.4,7.5 436.9,7.5  "
   id="polygon350" />
	<path
   d="M436.8,7.4l0.2,0.1h-8.6l-0.2-0.1l-0.3-0.3L427,6.5l-0.3-0.3l-1-0.7l-0.1-0.1l-1-0.6h8.7l1,0.6l0.1,0.1l1,0.7l0.3,0.3   l0.8,0.6L436.8,7.4z"
   id="path352" />
	<g
   id="g370">
		<g
   id="g368">
			<defs
   id="defs355">
				<polygon
   id="SVGID_33_"
   points="436.8,7.4 441.3,7.4 441.4,7.5 436.9,7.5     " />
			</defs>
			<use
   xlink:href="#SVGID_33_"
   style="overflow:visible;"
   id="use357" />
			<clipPath
   id="SVGID_34_">
				<use
   xlink:href="#SVGID_33_"
   style="overflow:visible;"
   id="use359" />
			</clipPath>
			<g
   class="st16"
   clip-path="url(#SVGID_34_)"
   id="g366">
				<g
   id="g364">
					<path
   d="M436.8,7.4h4.5l0.1,0.1h-4.5L436.8,7.4"
   id="path362" />
				</g>
			</g>
		</g>
	</g>
	<g
   id="g390">
		<g
   id="g388">
			<defs
   id="defs373">
				<path
   id="SVGID_35_"
   d="M434.7,9.4c2.9,2.9,5.2,6.4,6.7,10.2h-4.5c-1.6-3.8-3.8-7.2-6.7-10.1l0,0l0,0L434.7,9.4L434.7,9.4z" />
			</defs>
			<use
   xlink:href="#SVGID_35_"
   style="overflow:visible;"
   id="use375" />
			<clipPath
   id="SVGID_36_">
				<use
   xlink:href="#SVGID_35_"
   style="overflow:visible;"
   id="use377" />
			</clipPath>
			<g
   class="st17"
   clip-path="url(#SVGID_36_)"
   id="g386">
				<g
   id="g384">
					<path
   d="M429.9,9.1h4.5c2.6,2.6,4.8,5.7,6.4,9h-4.5C434.7,14.7,432.5,11.7,429.9,9.1"
   id="path380" />
					<path
   d="M436.3,18.1h4.5c1,2.2,1.8,4.5,2.4,6.9h-4.5C438.1,22.6,437.3,20.3,436.3,18.1"
   id="path382" />
				</g>
			</g>
		</g>
	</g>
	<g
   id="g408">
		<g
   id="g406">
			<defs
   id="defs393">
				<path
   id="SVGID_37_"
   d="M441.4,19.5L441.4,19.5z" />
			</defs>
			<use
   xlink:href="#SVGID_37_"
   style="overflow:visible;"
   id="use395" />
			<clipPath
   id="SVGID_38_">
				<use
   xlink:href="#SVGID_37_"
   style="overflow:visible;"
   id="use397" />
			</clipPath>
			<g
   class="st18"
   clip-path="url(#SVGID_38_)"
   id="g404">
				<g
   id="g402">
					<path
   d="M436.3,18.1h4.5c1,2.2,1.8,4.5,2.4,6.9h-4.5C438.1,22.6,437.3,20.3,436.3,18.1"
   id="path400" />
				</g>
			</g>
		</g>
	</g>
	<g
   id="g436">
		<g
   id="g434">
			<defs
   id="defs411">
				<path
   id="SVGID_39_"
   d="M439.4,64h4.5c0,17.7-14,32-31.4,32H408C425.4,96,439.4,81.7,439.4,64z" />
			</defs>
			<use
   xlink:href="#SVGID_39_"
   style="overflow:visible;"
   id="use413" />
			<clipPath
   id="SVGID_40_">
				<use
   xlink:href="#SVGID_39_"
   style="overflow:visible;"
   id="use415" />
			</clipPath>
			<g
   class="st19"
   clip-path="url(#SVGID_40_)"
   id="g432">
				<g
   id="g430">
					<path
   d="M439.4,64h4.5c0,0.7,0,1.3-0.1,2h-4.5C439.4,65.3,439.4,64.7,439.4,64"
   id="path418" />
					<path
   d="M439.4,66h4.5c-0.1,1.3-0.2,2.6-0.5,3.9h-4.5C439.1,68.6,439.3,67.3,439.4,66"
   id="path420" />
					<path
   d="M438.9,70h4.5c-0.3,1.3-0.6,2.6-1,3.8h-4.5C438.3,72.6,438.6,71.3,438.9,70"
   id="path422" />
					<path
   d="M437.9,73.8h4.5c-0.4,1.4-0.9,2.7-1.5,4h-4.5C437,76.5,437.5,75.2,437.9,73.8"
   id="path424" />
					<path
   d="M436.4,77.8h4.5c-0.7,1.5-1.6,3-2.5,4.4h-4.5C434.8,80.8,435.7,79.3,436.4,77.8"
   id="path426" />
					<path
   d="M433.8,82.2h4.5c-5.8,8.6-15.4,13.8-25.8,13.8H408C418.4,96,428.1,90.8,433.8,82.2"
   id="path428" />
				</g>
			</g>
		</g>
	</g>
	<rect
   x="439.4"
   y="32"
   width="4.5"
   height="32"
   id="rect438" />
	<g
   id="g460">
		<g
   id="g458">
			<defs
   id="defs441">
				<path
   id="SVGID_41_"
   d="M441.4,19.5c1.6,3.9,2.5,8.2,2.5,12.5h-4.5c0-4.3-0.8-8.5-2.5-12.5H441.4z" />
			</defs>
			<use
   xlink:href="#SVGID_41_"
   style="overflow:visible;"
   id="use443" />
			<clipPath
   id="SVGID_42_">
				<use
   xlink:href="#SVGID_41_"
   style="overflow:visible;"
   id="use445" />
			</clipPath>
			<g
   class="st20"
   clip-path="url(#SVGID_42_)"
   id="g456">
				<g
   id="g454">
					<path
   d="M436.3,18.1h4.5c1,2.2,1.8,4.5,2.4,6.9h-4.5C438.1,22.6,437.3,20.3,436.3,18.1"
   id="path448" />
					<path
   d="M438.7,24.9h4.5c0.4,1.6,0.6,3.2,0.7,4.8h-4.5C439.2,28.1,439,26.5,438.7,24.9"
   id="path450" />
					<path
   d="M439.3,29.8h4.5c0,0.7,0.1,1.5,0.1,2.2h-4.5C439.4,31.2,439.4,30.5,439.3,29.8"
   id="path452" />
				</g>
			</g>
		</g>
	</g>
	<path
   d="M408,0L408,0c17.3,0,31.4,14.3,31.4,32v32c0,17.7-14,32-31.4,32H31.4C14.1,96,0,81.7,0,64V32c0-17.7,14-32,31.4-32H408z"
   id="path462" />
	<polygon
   points="432.2,84.5 436.6,84.5 445.3,84.5 440.8,84.5  "
   id="polygon464" />
	<g
   id="g482">
		<g
   id="g480">
			<defs
   id="defs467">
				<path
   id="SVGID_43_"
   d="M440.8,84.5h4.5c0,0.1-0.1,0.1-0.1,0.2c-0.3,0.3-0.6,0.7-0.9,1l-0.3,0.3c-0.2,0.3-0.5,0.5-0.8,0.8      l-0.4,0.4l-0.7,0.7l-0.5,0.4l-0.7,0.6c-0.3,0.3-0.6,0.5-1,0.8s-0.9,0.6-1.3,0.9s-0.8,0.6-1.3,0.8s-0.9,0.5-1.3,0.8      s-0.6,0.3-0.9,0.5l-0.6,0.3c-0.4,0.2-0.8,0.4-1.2,0.6s-0.8,0.3-1.1,0.5l-0.6,0.2c-0.4,0.1-0.8,0.3-1.1,0.4c-1,0.3-2,0.6-3,0.8      c-0.5,0.1-1,0.2-1.6,0.3s-1,0.1-1.6,0.2s-1,0.1-1.6,0.1h-4.5c0.5,0,1-0.1,1.6-0.1s1-0.1,1.6-0.2s1-0.2,1.6-0.3      c1-0.2,2-0.5,3-0.8c0.4-0.1,0.8-0.3,1.1-0.4l0.6-0.2c0.4-0.1,0.7-0.3,1.1-0.5s0.8-0.4,1.2-0.6c0.2-0.1,0.4-0.2,0.6-0.3      s0.6-0.3,0.9-0.5s0.9-0.5,1.3-0.8s0.9-0.5,1.3-0.8s0.8-0.6,1.2-0.9s0.7-0.5,1-0.8s0.5-0.4,0.7-0.6l0.5-0.4l0.7-0.7      c0.1-0.1,0.3-0.3,0.4-0.4s0.5-0.5,0.8-0.8l0.3-0.3c0.3-0.3,0.6-0.7,0.9-1C440.7,84.5,440.8,84.5,440.8,84.5z" />
			</defs>
			<use
   xlink:href="#SVGID_43_"
   style="overflow:visible;"
   id="use469" />
			<clipPath
   id="SVGID_44_">
				<use
   xlink:href="#SVGID_43_"
   style="overflow:visible;"
   id="use471" />
			</clipPath>
			<g
   class="st21"
   clip-path="url(#SVGID_44_)"
   id="g478">
				<g
   id="g476">
					<path
   d="M440.8,84.5h4.5c0,0.1-0.1,0.1-0.1,0.2c-0.3,0.3-0.6,0.7-0.9,1l-0.3,0.3c-0.2,0.3-0.5,0.5-0.8,0.8l-0.4,0.4l-0.7,0.7       l-0.5,0.4l-0.7,0.6c-0.3,0.3-0.6,0.5-1,0.8s-0.9,0.6-1.3,0.9s-0.8,0.6-1.3,0.8s-0.9,0.5-1.3,0.8s-0.6,0.3-0.9,0.5l-0.6,0.3       c-0.4,0.2-0.8,0.4-1.2,0.6s-0.8,0.3-1.1,0.5l-0.6,0.2c-0.4,0.1-0.8,0.3-1.1,0.4c-1,0.3-2,0.6-3,0.8c-0.5,0.1-1,0.2-1.6,0.3       s-1,0.1-1.6,0.2s-1,0.1-1.6,0.1h-4.5c0.5,0,1-0.1,1.6-0.1s1-0.1,1.6-0.2s1-0.2,1.6-0.3c1-0.2,2-0.5,3-0.8       c0.4-0.1,0.8-0.3,1.1-0.4l0.6-0.2c0.4-0.1,0.7-0.3,1.1-0.5s0.8-0.4,1.2-0.6c0.2-0.1,0.4-0.2,0.6-0.3s0.6-0.3,0.9-0.5       s0.9-0.5,1.3-0.8s0.9-0.5,1.3-0.8s0.8-0.6,1.2-0.9s0.7-0.5,1-0.8s0.5-0.4,0.7-0.6l0.5-0.4l0.7-0.7c0.1-0.1,0.3-0.3,0.4-0.4       s0.5-0.5,0.8-0.8l0.3-0.3c0.3-0.3,0.6-0.7,0.9-1C440.7,84.6,440.7,84.5,440.8,84.5"
   id="path474" />
				</g>
			</g>
		</g>
	</g>
	<path
   d="M418.3,96c-0.6,0-1.1,0-1.6,0h-6.5h0.1h0.3h0.1h0.3h0.1c0.6-0.1,1.1-0.1,1.7-0.2l0.5-0.1l0.4-0.1l0.3-0.1l0.7-0.1l0.8-0.2   l0.6-0.2l0.8-0.2l0.6-0.2l0.8-0.3l0.6-0.2l0.8-0.3l0.5-0.2c0.4-0.2,0.8-0.4,1.2-0.5l0.4-0.2l1-0.5l0.5-0.3c0.2-0.1,0.5-0.3,0.8-0.5   c0.2-0.1,0.4-0.2,0.5-0.3l0.7-0.5l0.5-0.4l0.7-0.5l0.5-0.4l0.6-0.5l0.5-0.4l0.6-0.5l0.5-0.4l0.6-0.6l0.4-0.4l0.7-0.8l0.3-0.3   c0.3-0.3,0.6-0.7,0.9-1h8.6c0,0.1-0.1,0.1-0.1,0.2c-0.3,0.3-0.6,0.7-0.9,1l-0.3,0.3c-0.2,0.3-0.5,0.5-0.8,0.8s-0.3,0.3-0.4,0.4   l-0.7,0.7l-0.5,0.4c-0.2,0.2-0.5,0.4-0.7,0.6s-0.6,0.5-1,0.8s-0.9,0.6-1.2,0.9s-0.8,0.6-1.3,0.8s-0.9,0.5-1.3,0.8s-0.6,0.3-0.9,0.5   s-0.4,0.2-0.6,0.3c-0.4,0.2-0.8,0.4-1.2,0.6s-0.8,0.3-1.1,0.5l-0.6,0.2c-0.4,0.1-0.8,0.3-1.1,0.4c-1,0.3-2,0.6-3,0.8   c-0.5,0.1-1,0.2-1.6,0.3s-1,0.1-1.6,0.2S418.8,95.9,418.3,96z"
   id="path484" />
	<polygon
   points="434.8,80.7 439.3,80.7 447.9,80.7 443.4,80.7  "
   id="polygon486" />
	<g
   id="g506">
		<g
   id="g504">
			<defs
   id="defs489">
				<path
   id="SVGID_45_"
   d="M443.4,80.7h4.5l-0.2,0.3c-0.2,0.4-0.5,0.8-0.7,1.1l-0.3,0.5c-0.2,0.3-0.4,0.6-0.6,0.9s-0.4,0.5-0.6,0.8      l-0.1,0.1l0,0h-4.5l0,0l0.1-0.1c0.2-0.3,0.4-0.5,0.6-0.8s0.4-0.6,0.6-0.9l0.3-0.5c0.2-0.4,0.5-0.7,0.7-1.1      C443.3,80.9,443.4,80.8,443.4,80.7z" />
			</defs>
			<use
   xlink:href="#SVGID_45_"
   style="overflow:visible;"
   id="use491" />
			<clipPath
   id="SVGID_46_">
				<use
   xlink:href="#SVGID_45_"
   style="overflow:visible;"
   id="use493" />
			</clipPath>
			<g
   class="st22"
   clip-path="url(#SVGID_46_)"
   id="g502">
				<g
   id="g500">
					<path
   d="M443.4,80.7h4.5l-0.2,0.3c-0.2,0.4-0.5,0.8-0.7,1.1l0,0h-4.5l0,0c0.2-0.4,0.5-0.7,0.7-1.1       C443.3,80.9,443.4,80.8,443.4,80.7"
   id="path496" />
					<path
   d="M442.5,82.1h4.5l-0.3,0.5c-0.2,0.3-0.4,0.6-0.6,0.9s-0.4,0.5-0.6,0.8l-0.1,0.1l0,0h-4.5l0,0l0.1-0.1       c0.2-0.3,0.4-0.5,0.6-0.8s0.4-0.6,0.6-0.9L442.5,82.1"
   id="path498" />
				</g>
			</g>
		</g>
	</g>
	<path
   d="M434.8,80.7h8.6c0,0.1-0.1,0.2-0.2,0.3c-0.2,0.4-0.5,0.8-0.7,1.1l-0.3,0.5c-0.2,0.3-0.4,0.6-0.6,0.9s-0.4,0.5-0.6,0.8   l-0.1,0.1l0,0h-8.7c0,0,0,0,0,0c0.1-0.1,0.1-0.1,0.2-0.2l0.7-0.9l0.3-0.4l0.6-0.8l0.2-0.3C434.3,81.4,434.6,81.1,434.8,80.7z"
   id="path508" />
	<polygon
   points="436.5,77.5 441,77.5 449.6,77.5 445.1,77.5  "
   id="polygon510" />
	<g
   id="g530">
		<g
   id="g528">
			<defs
   id="defs513">
				<path
   id="SVGID_47_"
   d="M445.1,77.5h4.5l-0.1,0.2c-0.2,0.4-0.4,0.8-0.6,1.2c-0.1,0.1-0.1,0.2-0.2,0.3c-0.3,0.5-0.5,1-0.8,1.5v0      h-4.5v0c0.3-0.5,0.6-1,0.9-1.5c0-0.1,0.1-0.2,0.2-0.3c0.2-0.4,0.4-0.8,0.6-1.2L445.1,77.5z" />
			</defs>
			<use
   xlink:href="#SVGID_47_"
   style="overflow:visible;"
   id="use515" />
			<clipPath
   id="SVGID_48_">
				<use
   xlink:href="#SVGID_47_"
   style="overflow:visible;"
   id="use517" />
			</clipPath>
			<g
   class="st23"
   clip-path="url(#SVGID_48_)"
   id="g526">
				<g
   id="g524">
					<path
   d="M445.1,77.5h4.5l-0.1,0.2v0.1h-4.5v-0.1L445.1,77.5"
   id="path520" />
					<path
   d="M445,77.7h4.5c-0.2,0.4-0.4,0.8-0.5,1.1c-0.1,0.1-0.1,0.2-0.2,0.3c-0.3,0.5-0.5,1-0.8,1.5v0h-4.5v0       c0.3-0.5,0.6-1,0.9-1.5c0-0.1,0.1-0.2,0.2-0.3C444.7,78.5,444.9,78.1,445,77.7"
   id="path522" />
				</g>
			</g>
		</g>
	</g>
	<path
   d="M436.5,77.5h8.6l-0.1,0.2c-0.2,0.4-0.4,0.8-0.6,1.2c-0.1,0.1-0.1,0.2-0.2,0.3c-0.3,0.5-0.5,1-0.9,1.5v0h-8.6v0   c0.3-0.5,0.6-1,0.8-1.5c0.1-0.1,0.1-0.2,0.2-0.3c0.2-0.4,0.4-0.8,0.6-1.2C436.5,77.6,436.5,77.5,436.5,77.5z"
   id="path532" />
	<path
   d="M437.8,74.3h8.6c0,0.1-0.1,0.3-0.1,0.4s-0.1,0.3-0.1,0.4c-0.2,0.4-0.3,0.9-0.5,1.3s-0.3,0.7-0.5,1h-8.6   c0.1-0.1,0.1-0.3,0.2-0.4s0.2-0.6,0.4-0.9l0.2-0.6c0.1-0.3,0.2-0.6,0.3-0.9L437.8,74.3z"
   id="path534" />
	<g
   id="g552">
		<g
   id="g550">
			<defs
   id="defs537">
				<path
   id="SVGID_49_"
   d="M446.4,74.3h4.5c0,0.1-0.1,0.3-0.1,0.4s-0.1,0.3-0.1,0.4c-0.2,0.4-0.3,0.9-0.5,1.3s-0.3,0.7-0.5,1h-4.5      c0.1-0.3,0.3-0.7,0.5-1s0.3-0.9,0.5-1.3c0-0.1,0.1-0.3,0.1-0.4S446.3,74.5,446.4,74.3z" />
			</defs>
			<use
   xlink:href="#SVGID_49_"
   style="overflow:visible;"
   id="use539" />
			<clipPath
   id="SVGID_50_">
				<use
   xlink:href="#SVGID_49_"
   style="overflow:visible;"
   id="use541" />
			</clipPath>
			<g
   class="st24"
   clip-path="url(#SVGID_50_)"
   id="g548">
				<g
   id="g546">
					<path
   d="M446.4,74.3h4.5c0,0.1-0.1,0.3-0.1,0.4s-0.1,0.3-0.1,0.4c-0.2,0.4-0.3,0.9-0.5,1.3s-0.3,0.7-0.5,1h-4.5       c0.1-0.3,0.3-0.7,0.5-1s0.3-0.9,0.5-1.3c0-0.1,0.1-0.3,0.1-0.4S446.3,74.5,446.4,74.3"
   id="path544" />
				</g>
			</g>
		</g>
	</g>
	<polygon
   points="437.8,74.3 442.2,74.3 450.9,74.3 446.4,74.3  "
   id="polygon554" />
	<g
   id="g576">
		<g
   id="g574">
			<defs
   id="defs557">
				<path
   id="SVGID_51_"
   d="M436.9,7.5h4.5c0.2,0.2,0.4,0.4,0.6,0.6l0.3,0.3c0.3,0.3,0.7,0.6,1,1l0.3,0.3c0.2,0.2,0.5,0.5,0.7,0.7      l0.4,0.4l0.6,0.7l0.4,0.4l0.5,0.7l0.3,0.4l0.5,0.8l0.3,0.4c0.3,0.4,0.5,0.8,0.8,1.2c0.3,0.4,0.5,0.9,0.8,1.3s0.5,0.9,0.7,1.4      c0.4,0.9,0.8,1.9,1.2,2.9c0.2,0.5,0.3,0.9,0.5,1.4c0,0.1,0.1,0.1,0.1,0.2c0.1,0.4,0.2,0.8,0.3,1.2c0,0.1,0,0.2,0.1,0.3h-4.5      c0-0.1-0.1-0.2-0.1-0.3c-0.1-0.4-0.2-0.8-0.3-1.2l-0.1-0.2c-0.1-0.5-0.3-0.9-0.5-1.4c-0.4-1-0.8-1.9-1.2-2.9      c-0.2-0.5-0.5-0.9-0.7-1.4s-0.5-0.9-0.8-1.3s-0.5-0.8-0.8-1.2l-0.3-0.4L442,13l-0.3-0.4l-0.5-0.7l-0.4-0.4      c-0.2-0.2-0.4-0.5-0.6-0.7s-0.2-0.3-0.4-0.4l-0.7-0.7l-0.3-0.3c-0.3-0.3-0.7-0.7-1-1l-0.3-0.3L436.9,7.5z" />
			</defs>
			<use
   xlink:href="#SVGID_51_"
   style="overflow:visible;"
   id="use559" />
			<clipPath
   id="SVGID_52_">
				<use
   xlink:href="#SVGID_51_"
   style="overflow:visible;"
   id="use561" />
			</clipPath>
			<g
   class="st25"
   clip-path="url(#SVGID_52_)"
   id="g572">
				<g
   id="g570">
					<path
   d="M436.9,7.5h4.5c0.2,0.2,0.4,0.4,0.6,0.6l0.3,0.3L443,9h-4.5l-0.7-0.6l-0.3-0.3L436.9,7.5"
   id="path564" />
					<path
   d="M438.5,9h4.5l0.3,0.3l0.3,0.3c0.2,0.2,0.5,0.5,0.7,0.7l0.4,0.4l0.6,0.7l0.4,0.4l0.5,0.7l0.3,0.4l0.5,0.8l0.3,0.4       c0.3,0.4,0.5,0.8,0.8,1.2c0.3,0.4,0.5,0.9,0.8,1.3s0.5,0.9,0.7,1.4l0,0H445l0,0c-0.2-0.5-0.5-0.9-0.7-1.4s-0.5-0.9-0.8-1.3       s-0.5-0.8-0.8-1.2l-0.3-0.4l-0.5-0.8l-0.3-0.4l-0.5-0.7l-0.4-0.4c-0.2-0.2-0.4-0.5-0.6-0.7s-0.2-0.3-0.4-0.4l-0.7-0.7l-0.3-0.3       C438.7,9.2,438.6,9.1,438.5,9"
   id="path566" />
					<path
   d="M445,18.2h4.5c0.4,0.9,0.8,1.9,1.2,2.8c0.2,0.5,0.3,0.9,0.5,1.4c0,0.1,0.1,0.1,0.1,0.2c0.1,0.4,0.2,0.8,0.3,1.2       c0,0.1,0,0.2,0.1,0.3h-4.5c0-0.1-0.1-0.2-0.1-0.3c-0.1-0.4-0.2-0.8-0.3-1.2l-0.1-0.2c-0.1-0.5-0.3-0.9-0.5-1.4       C445.8,20,445.4,19.1,445,18.2"
   id="path568" />
				</g>
			</g>
		</g>
	</g>
	<polygon
   points="438.5,24.3 443,24.3 451.6,24.3 447.1,24.3  "
   id="polygon578" />
	<path
   d="M447.1,24.1c0,0.1,0,0.1,0,0.2h-8.6c0-0.1,0-0.1,0-0.2s-0.1-0.3-0.1-0.5s-0.2-0.6-0.2-0.9s-0.1-0.4-0.2-0.5l-0.3-0.9   c-0.1-0.2-0.1-0.3-0.2-0.5c-0.1-0.4-0.3-0.8-0.4-1.1c0-0.1-0.1-0.1-0.1-0.2c-0.2-0.4-0.4-0.9-0.6-1.3l-0.2-0.4   c-0.1-0.3-0.3-0.6-0.4-0.9l-0.2-0.5l-0.5-0.8l-0.3-0.5l-0.5-0.9L434,14c-0.2-0.4-0.5-0.8-0.8-1.1c-0.1-0.1-0.1-0.2-0.2-0.3   c-0.2-0.3-0.4-0.6-0.6-0.8l-0.3-0.4l-0.6-0.7l-0.3-0.4c-0.2-0.2-0.4-0.5-0.7-0.7s-0.2-0.2-0.3-0.3c-0.3-0.3-0.6-0.6-1-1l-0.2-0.2   c-0.2-0.2-0.5-0.4-0.7-0.6h8.6l0.6,0.6l0.3,0.3c0.3,0.3,0.7,0.6,1,1l0.3,0.3l0.7,0.7c0.1,0.1,0.2,0.3,0.4,0.4s0.4,0.4,0.6,0.7   l0.4,0.4l0.5,0.7l0.3,0.4l0.5,0.8l0.3,0.4c0.3,0.4,0.5,0.8,0.8,1.2s0.5,0.9,0.8,1.3s0.5,0.9,0.7,1.4c0.4,0.9,0.8,1.9,1.2,2.9   c0.2,0.5,0.3,0.9,0.5,1.4l0.1,0.2c0.1,0.4,0.2,0.8,0.3,1.2C447,23.9,447.1,24,447.1,24.1z"
   id="path580" />
	<g
   id="g602">
		<g
   id="g600">
			<defs
   id="defs583">
				<path
   id="SVGID_53_"
   d="M447.1,24.1h4.5c0,0.1,0,0.1,0,0.2h-4.5C447.1,24.3,447.1,24.2,447.1,24.1z" />
			</defs>
			<use
   xlink:href="#SVGID_53_"
   style="overflow:visible;"
   id="use585" />
			<clipPath
   id="SVGID_54_">
				<use
   xlink:href="#SVGID_53_"
   style="overflow:visible;"
   id="use587" />
			</clipPath>
			<g
   class="st26"
   clip-path="url(#SVGID_54_)"
   id="g598">
				<g
   id="g596">
					<path
   d="M447.1,24.1h4.5c0,0,0,0.1,0,0.1L447.1,24.1C447.1,24.2,447.1,24.2,447.1,24.1"
   id="path590" />
					<path
   d="M447.1,24.2h4.5v0.1L447.1,24.2L447.1,24.2"
   id="path592" />
					<path
   d="M447.1,24.3h4.5v0.1L447.1,24.3L447.1,24.3"
   id="path594" />
				</g>
			</g>
		</g>
	</g>
	<path
   d="M438.6,71.2h8.7c0,0.1,0,0.2-0.1,0.4l-0.2,0.7c-0.1,0.4-0.2,0.8-0.3,1.1l0,0c-0.1,0.3-0.2,0.5-0.3,0.8h-8.6l0.1-0.4   c0.1-0.3,0.2-0.5,0.2-0.8l0.2-0.7c0.1-0.3,0.1-0.5,0.2-0.8S438.6,71.4,438.6,71.2z"
   id="path604" />
	<polygon
   points="438.6,71.2 443.1,71.2 451.7,71.2 447.2,71.2  "
   id="polygon606" />
	<g
   id="g626">
		<g
   id="g624">
			<defs
   id="defs609">
				<path
   id="SVGID_55_"
   d="M447.3,71.2h4.5c0,0.1,0,0.2-0.1,0.4s-0.1,0.5-0.2,0.7s-0.2,0.8-0.3,1.1l0,0l-0.3,0.8h-4.5      c0.1-0.3,0.2-0.5,0.3-0.8l0,0c0.1-0.4,0.2-0.8,0.3-1.1l0.2-0.7C447.2,71.5,447.3,71.4,447.3,71.2z" />
			</defs>
			<use
   xlink:href="#SVGID_55_"
   style="overflow:visible;"
   id="use611" />
			<clipPath
   id="SVGID_56_">
				<use
   xlink:href="#SVGID_55_"
   style="overflow:visible;"
   id="use613" />
			</clipPath>
			<g
   class="st27"
   clip-path="url(#SVGID_56_)"
   id="g622">
				<g
   id="g620">
					<path
   d="M447.3,71.2h4.5c0,0.1,0,0.2-0.1,0.4s-0.1,0.5-0.2,0.7s-0.2,0.8-0.3,1.1l0,0v0.1h-4.5v-0.1l0,0       c0.1-0.4,0.2-0.8,0.3-1.1l0.2-0.7C447.2,71.5,447.2,71.4,447.3,71.2"
   id="path616" />
					<path
   d="M446.6,73.6h4.5l-0.2,0.7h-4.5C446.5,74.1,446.6,73.9,446.6,73.6"
   id="path618" />
				</g>
			</g>
		</g>
	</g>
	<g
   id="g646">
		<g
   id="g644">
			<defs
   id="defs629">
				<path
   id="SVGID_57_"
   d="M447.8,68.1h4.5c0,0.1,0,0.3,0,0.4c0,0.3-0.1,0.6-0.1,0.8S452,69.8,452,70s-0.1,0.5-0.2,0.8l-0.1,0.4      h-4.4l0.1-0.4c0.1-0.3,0.1-0.5,0.2-0.8s0.1-0.5,0.1-0.8s0.1-0.5,0.1-0.8C447.8,68.3,447.8,68.2,447.8,68.1z" />
			</defs>
			<use
   xlink:href="#SVGID_57_"
   style="overflow:visible;"
   id="use631" />
			<clipPath
   id="SVGID_58_">
				<use
   xlink:href="#SVGID_57_"
   style="overflow:visible;"
   id="use633" />
			</clipPath>
			<g
   class="st28"
   clip-path="url(#SVGID_58_)"
   id="g642">
				<g
   id="g640">
					<path
   d="M447.8,68.1h4.5c0,0.1,0,0.3,0,0.4c0,0.3-0.1,0.6-0.1,0.8L452,70h-4.5c0-0.2,0.1-0.5,0.1-0.7s0.1-0.5,0.1-0.8       C447.7,68.3,447.7,68.2,447.8,68.1"
   id="path636" />
					<path
   d="M447.5,70h4.5v0.1c-0.1,0.3-0.1,0.5-0.2,0.8l-0.1,0.4h-4.5l0.1-0.4C447.4,70.6,447.5,70.4,447.5,70L447.5,70"
   id="path638" />
				</g>
			</g>
		</g>
	</g>
	<polygon
   points="439.2,68.1 443.6,68.1 452.3,68.1 447.8,68.1  "
   id="polygon648" />
	<path
   d="M439.2,68.1h8.6c0,0.1,0,0.3,0,0.4c0,0.3-0.1,0.6-0.1,0.8s-0.1,0.5-0.1,0.8s-0.1,0.5-0.2,0.8l-0.1,0.4h-8.6   c0-0.2,0.1-0.3,0.1-0.5s0.1-0.3,0.1-0.5c0.1-0.4,0.1-0.7,0.2-1.1l0.1-0.4c0,0,0,0,0,0L439.2,68.1z"
   id="path650" />
	<path
   d="M447.9,28.8h-8.6l0,0c0-0.1,0-0.2,0-0.3c0-0.4-0.1-0.8-0.1-1.1c0-0.1,0-0.3-0.1-0.4c-0.1-0.4-0.1-0.8-0.2-1.2   c0-0.1,0-0.2,0-0.2c-0.1-0.4-0.2-0.8-0.2-1.2h8.6c0,0.2,0.1,0.4,0.1,0.6s0.1,0.6,0.2,1l0.1,0.7l0.1,1c0,0.3,0.1,0.7,0.1,1   L447.9,28.8z"
   id="path652" />
	<g
   id="g676">
		<g
   id="g674">
			<defs
   id="defs655">
				<path
   id="SVGID_59_"
   d="M447.1,24.3h4.5c0,0.2,0.1,0.4,0.1,0.6s0.1,0.6,0.2,1l0.1,0.7c0,0.3,0.1,0.6,0.1,1s0.1,0.7,0.1,1v0.3      h-4.5v-0.3c0-0.3-0.1-0.7-0.1-1l-0.1-1l-0.1-0.7c-0.1-0.3-0.1-0.6-0.2-1S447.2,24.5,447.1,24.3z" />
			</defs>
			<use
   xlink:href="#SVGID_59_"
   style="overflow:visible;"
   id="use657" />
			<clipPath
   id="SVGID_60_">
				<use
   xlink:href="#SVGID_59_"
   style="overflow:visible;"
   id="use659" />
			</clipPath>
			<g
   class="st29"
   clip-path="url(#SVGID_60_)"
   id="g672">
				<g
   id="g670">
					<path
   d="M447.1,24.3h4.5c0,0.2,0.1,0.3,0.1,0.5h-4.5C447.3,24.7,447.2,24.5,447.1,24.3"
   id="path662" />
					<path
   d="M447.3,24.8h4.5v0.1L447.3,24.8L447.3,24.8"
   id="path664" />
					<path
   d="M447.3,24.9h4.5l0,0V25L447.3,24.9L447.3,24.9L447.3,24.9"
   id="path666" />
					<path
   d="M447.3,25h4.5c0.1,0.3,0.1,0.6,0.2,0.9l0.1,0.7c0,0.3,0.1,0.6,0.1,1s0.1,0.7,0.1,1v0.3h-4.5v-0.3c0-0.3-0.1-0.7-0.1-1       l-0.1-1l-0.1-0.7L447.3,25"
   id="path668" />
				</g>
			</g>
		</g>
	</g>
	<polygon
   points="447.9,28.8 452.4,28.8 443.8,28.9 439.3,28.9  "
   id="polygon678" />
	<polygon
   points="439.3,28.9 443.8,28.9 452.4,28.9 447.9,28.9  "
   id="polygon680" />
	<g
   id="g704">
		<g
   id="g702">
			<defs
   id="defs683">
				<path
   id="SVGID_61_"
   d="M447.9,28.9h4.5c0,0.4,0.1,0.7,0.1,1.1c0,0.2,0,0.4,0,0.5H448c0-0.2,0-0.4,0-0.5      C448,29.6,447.9,29.2,447.9,28.9z" />
			</defs>
			<use
   xlink:href="#SVGID_61_"
   style="overflow:visible;"
   id="use685" />
			<clipPath
   id="SVGID_62_">
				<use
   xlink:href="#SVGID_61_"
   style="overflow:visible;"
   id="use687" />
			</clipPath>
			<g
   class="st30"
   clip-path="url(#SVGID_62_)"
   id="g700">
				<g
   id="g698">
					<path
   d="M447.9,28.9h4.5l0.1,0.7H448L447.9,28.9"
   id="path690" />
					<path
   d="M448,29.6h4.5c0,0.1,0,0.2,0,0.4V30H448v-0.1C448,29.8,448,29.7,448,29.6"
   id="path692" />
					<path
   d="M448,30h4.5v0.2H448V30"
   id="path694" />
					<path
   d="M448,30.2h4.5c0,0.1,0,0.2,0,0.2H448C448,30.4,448,30.3,448,30.2"
   id="path696" />
				</g>
			</g>
		</g>
	</g>
	<polygon
   points="439.4,64.7 443.9,64.7 452.5,64.7 448,64.7  "
   id="polygon706" />
	<g
   id="g726">
		<g
   id="g724">
			<defs
   id="defs709">
				<path
   id="SVGID_63_"
   d="M448,64.6h4.5c0,0.1,0,0.3,0,0.4c0,0.3,0,0.6,0,1s0,0.5,0,0.7l-0.1,0.9c0,0.1,0,0.2,0,0.4h-4.5      c0-0.1,0-0.2,0-0.4l0.1-0.9c0-0.2,0-0.5,0-0.7s0-0.6,0-1C448,64.9,448,64.8,448,64.6z" />
			</defs>
			<use
   xlink:href="#SVGID_63_"
   style="overflow:visible;"
   id="use711" />
			<clipPath
   id="SVGID_64_">
				<use
   xlink:href="#SVGID_63_"
   style="overflow:visible;"
   id="use713" />
			</clipPath>
			<g
   class="st31"
   clip-path="url(#SVGID_64_)"
   id="g722">
				<g
   id="g720">
					<path
   d="M448,64.6h4.5c0,0.1,0,0.3,0,0.4c0,0.3,0,0.6,0,0.9H448c0-0.3,0-0.6,0-0.9C448,64.9,448,64.8,448,64.6"
   id="path716" />
					<path
   d="M448,66h4.5l0,0c0,0.2,0,0.5,0,0.7l-0.1,0.9c0,0.1,0,0.2,0,0.4h-4.5c0-0.1,0-0.2,0-0.4l0.1-0.9       C447.9,66.5,447.9,66.2,448,66L448,66"
   id="path718" />
				</g>
			</g>
		</g>
	</g>
	<path
   d="M439.4,64.6h8.6c0,0.1,0,0.3,0,0.4c0,0.3,0,0.6,0,1s0,0.5,0,0.7l-0.1,0.9c0,0.1,0,0.2,0,0.4h-8.7V68v-0.3   c0-0.3,0.1-0.6,0.1-0.9s0-0.5,0-0.8s0-0.6,0-0.9C439.4,65,439.4,64.8,439.4,64.6z"
   id="path728" />
	<polygon
   points="439.4,64 443.9,64 452.5,64 448.1,64  "
   id="polygon730" />
	<g
   id="g748">
		<g
   id="g746">
			<defs
   id="defs733">
				<path
   id="SVGID_65_"
   d="M448.1,64h4.5c0,0.2,0,0.4,0,0.6h-4.5C448,64.4,448.1,64.2,448.1,64z" />
			</defs>
			<use
   xlink:href="#SVGID_65_"
   style="overflow:visible;"
   id="use735" />
			<clipPath
   id="SVGID_66_">
				<use
   xlink:href="#SVGID_65_"
   style="overflow:visible;"
   id="use737" />
			</clipPath>
			<g
   class="st32"
   clip-path="url(#SVGID_66_)"
   id="g744">
				<g
   id="g742">
					<path
   d="M448.1,64h4.5c0,0.2,0,0.4,0,0.6h-4.5C448.1,64.4,448.1,64.2,448.1,64"
   id="path740" />
				</g>
			</g>
		</g>
	</g>
	<path
   d="M448,64.6h-8.6V64h8.6C448.1,64.2,448,64.4,448,64.6z"
   id="path750" />
	<polygon
   points="439.4,32 443.9,32 452.5,32 448.1,32  "
   id="polygon752" />
	<path
   d="M448,30.5c0,0.5,0,1,0,1.5h-8.6c0-0.5,0-1.1,0-1.6c0-0.2,0-0.5,0-0.7s0-0.6-0.1-0.8h8.6c0,0.4,0.1,0.7,0.1,1.1   C448,30.1,448,30.3,448,30.5z"
   id="path754" />
	<g
   id="g772">
		<g
   id="g770">
			<defs
   id="defs757">
				<path
   id="SVGID_67_"
   d="M448,30.5h4.5c0,0.5,0,1,0,1.5H448C448,31.5,448.1,31,448,30.5z" />
			</defs>
			<use
   xlink:href="#SVGID_67_"
   style="overflow:visible;"
   id="use759" />
			<clipPath
   id="SVGID_68_">
				<use
   xlink:href="#SVGID_67_"
   style="overflow:visible;"
   id="use761" />
			</clipPath>
			<g
   class="st33"
   clip-path="url(#SVGID_68_)"
   id="g768">
				<g
   id="g766">
					<path
   d="M448,30.5h4.5c0,0.5,0,1,0,1.5H448C448,31.5,448,31,448,30.5"
   id="path764" />
				</g>
			</g>
		</g>
	</g>
	<rect
   x="439.4"
   y="32"
   width="8.6"
   height="32"
   id="rect774" />
	<rect
   x="448.1"
   y="32"
   width="4.5"
   height="32"
   id="rect776" />
</g>
</svg>
