<?xml version="1.0" encoding="utf-8"?>
<!-- Generator: Adobe Illustrator 23.0.4, SVG Export Plug-In . SVG Version: 6.00 Build 0)  -->
<svg version="1.1" id="Layer_1" xmlns="http://www.w3.org/2000/svg" xmlns:xlink="http://www.w3.org/1999/xlink" x="0px" y="0px"
	 viewBox="0 0 449 448.9" style="enable-background:new 0 0 449 448.9;" xml:space="preserve">
<style type="text/css">
	.st0{clip-path:url(#SVGID_2_);}
	.st1{clip-path:url(#SVGID_4_);}
	.st2{clip-path:url(#SVGID_6_);}
	.st3{clip-path:url(#SVGID_8_);}
	.st4{clip-path:url(#SVGID_10_);}
	.st5{clip-path:url(#SVGID_12_);}
	.st6{clip-path:url(#SVGID_14_);}
	.st7{clip-path:url(#SVGID_16_);}
	.st8{clip-path:url(#SVGID_18_);}
	.st9{clip-path:url(#SVGID_20_);}
	.st10{clip-path:url(#SVGID_22_);}
	.st11{clip-path:url(#SVGID_24_);}
	.st12{clip-path:url(#SVGID_26_);}
	.st13{clip-path:url(#SVGID_28_);}
</style>
<title>plusIcon</title>
<g>
	<g>
		<g>
			<defs>
				<path id="SVGID_1_" d="M11,184.6l1.3-1.1c5.8-5.1,13.3-7.9,21-7.8l-1.3,1.1C24.3,176.8,16.8,179.6,11,184.6z"/>
			</defs>
			<use xlink:href="#SVGID_1_"  style="overflow:visible;"/>
			<clipPath id="SVGID_2_">
				<use xlink:href="#SVGID_1_"  style="overflow:visible;"/>
			</clipPath>
			<g class="st0">
				<g>
					<path d="M11,184.6l1.3-1.1c3.1-2.7,6.6-4.7,10.4-6.1l-1.3,1.1C17.6,179.9,14,182,11,184.6"/>
					<path d="M21.4,178.6l1.3-1.1c1.7-0.6,3.4-1,5.1-1.3l-1.3,1.1C24.7,177.6,23,178,21.4,178.6"/>
					<path d="M26.5,177.3l1.3-1.1c1.5-0.3,3-0.4,4.4-0.4l-1.3,1.1C29.4,176.9,27.9,177,26.5,177.3"/>
					<path d="M30.9,176.8l1.3-1.1h1l-1.3,1.1L30.9,176.8"/>
				</g>
			</g>
		</g>
	</g>
	<g>
		<g>
			<defs>
				<path id="SVGID_3_" d="M262.1,440l-1.3,1.1c7-6.1,11-14.9,11-24.1l1.3-1.1C273.1,425.1,269.1,433.9,262.1,440z"/>
			</defs>
			<use xlink:href="#SVGID_3_"  style="overflow:visible;"/>
			<clipPath id="SVGID_4_">
				<use xlink:href="#SVGID_3_"  style="overflow:visible;"/>
			</clipPath>
			<g class="st1">
				<g>
					<path d="M271.8,417l1.3-1.1c0,0.7,0,1.4-0.1,2.1l-1.3,1.1C271.8,418.4,271.8,417.7,271.8,417"/>
					<path d="M271.8,419.1l1.3-1.1c-0.1,1.4-0.3,2.8-0.5,4.1l-1.3,1.1C271.5,421.8,271.7,420.4,271.8,419.1"/>
					<path d="M271.2,423.2l1.3-1.1c-0.3,1.4-0.7,2.9-1.1,4.2l-1.3,1.1C270.6,426.1,270.9,424.6,271.2,423.2"/>
					<path d="M270.1,427.5l1.3-1.1c-0.6,1.7-1.3,3.3-2.1,4.8l-1.3,1.1C268.8,430.7,269.5,429.1,270.1,427.5"/>
					<path d="M267.9,432.3l1.3-1.1c-1.8,3.3-4.2,6.3-7.1,8.8l-1.3,1.1C263.7,438.6,266.1,435.6,267.9,432.3"/>
				</g>
			</g>
		</g>
	</g>
	<g>
		<g>
			<defs>
				<path id="SVGID_5_" d="M31.7,269l0.3,3.7c-17.7,0-32-14.3-32-32l3.7,0.3C3.7,256.5,16.2,269,31.7,269z"/>
			</defs>
			<use xlink:href="#SVGID_5_"  style="overflow:visible;"/>
			<clipPath id="SVGID_6_">
				<use xlink:href="#SVGID_5_"  style="overflow:visible;"/>
			</clipPath>
			<g class="st2">
				<g>
					<path d="M31.7,269l0.3,3.7c-17.7,0-32-14.3-32-32l3.7,0.3C3.7,256.5,16.2,269,31.7,269C31.7,269,31.7,269,31.7,269"/>
				</g>
			</g>
		</g>
	</g>
	<polygon points="32,176.8 33.2,175.7 177.1,175.9 175.9,177 	"/>
	<g>
		<g>
			<defs>
				<path id="SVGID_7_" d="M207.6,445.1l0.3,3.7c-17.7,0-32-14.3-32-32l3.7,0.2C179.6,432.6,192.1,445.1,207.6,445.1
					C207.6,445.1,207.6,445.1,207.6,445.1z"/>
			</defs>
			<use xlink:href="#SVGID_7_"  style="overflow:visible;"/>
			<clipPath id="SVGID_8_">
				<use xlink:href="#SVGID_7_"  style="overflow:visible;"/>
			</clipPath>
			<g class="st3">
				<g>
					<path d="M207.6,445.1l0.3,3.7c-17.7,0-32-14.3-32-32l3.7,0.2C179.6,432.6,192.1,445.1,207.6,445.1"/>
				</g>
			</g>
		</g>
	</g>
	<polygon points="271.8,273 273.1,271.9 273.1,415.9 271.8,417 	"/>
	<polygon points="3.7,241 0,240.7 0,208.8 3.7,209 	"/>
	<polygon points="239.6,445.1 239.9,448.9 207.9,448.9 207.6,445.1 	"/>
	<g>
		<g>
			<defs>
				<path id="SVGID_9_" d="M3.7,209L0,208.8c0-17.6,14.3-31.9,31.9-32c0,0,0,0,0.1,0l-0.3,4.2C16.3,181,3.7,193.5,3.7,209
					C3.7,209,3.7,209,3.7,209z"/>
			</defs>
			<use xlink:href="#SVGID_9_"  style="overflow:visible;"/>
			<clipPath id="SVGID_10_">
				<use xlink:href="#SVGID_9_"  style="overflow:visible;"/>
			</clipPath>
			<g class="st4">
				<g>
					<path d="M3.7,209L0,208.8c0-5.4,1.3-10.6,3.9-15.3l3.2,2.2C4.9,199.7,3.7,204.3,3.7,209"/>
					<path d="M7.1,195.6l-3.2-2.2c0.9-1.6,1.9-3.2,3.1-4.6l2.8,2.8C8.8,192.8,7.9,194.2,7.1,195.6"/>
					<path d="M9.8,191.6L7,188.8c0.9-1.1,1.8-2.1,2.8-3.1l2.5,3.1C11.4,189.7,10.6,190.6,9.8,191.6"/>
					<path d="M12.3,188.9l-2.5-3.1c0.8-0.8,1.7-1.6,2.7-2.3l2.1,3.4C13.8,187.5,13.1,188.2,12.3,188.9"/>
					<path d="M14.6,186.9l-2.1-3.4c0.8-0.6,1.7-1.2,2.5-1.8l1.8,3.6C16.1,185.8,15.3,186.3,14.6,186.9"/>
					<path d="M16.8,185.3l-1.8-3.6c0.8-0.5,1.6-1,2.4-1.4l1.5,3.8C18.2,184.5,17.5,184.9,16.8,185.3"/>
					<path d="M18.9,184.1l-1.5-3.8c0.8-0.4,1.6-0.8,2.4-1.1l1.2,4C20.3,183.5,19.6,183.8,18.9,184.1"/>
					<path d="M21,183.2l-1.2-4c0.8-0.3,1.5-0.6,2.3-0.9l1,4.1C22.4,182.6,21.7,182.8,21,183.2"/>
					<path d="M23.1,182.4l-1-4.1c0.8-0.2,1.5-0.5,2.3-0.7l0.6,4.1C24.4,182,23.7,182.2,23.1,182.4"/>
					<path d="M25.1,181.8l-0.6-4.1c0.8-0.2,1.5-0.3,2.3-0.5l0.4,4.2C26.5,181.5,25.8,181.7,25.1,181.8"/>
					<path d="M27.1,181.4l-0.4-4.2c0.8-0.1,1.6-0.2,2.4-0.3l0.1,4.2C28.5,181.3,27.8,181.3,27.1,181.4"/>
					<path d="M29.2,181.2l-0.1-4.2c0.8-0.1,1.6-0.1,2.4-0.1l-0.2,4.2C30.6,181.1,29.9,181.1,29.2,181.2"/>
					<path d="M31.3,181.1l0.2-4.2H32l-0.3,4.2H31.3"/>
				</g>
			</g>
		</g>
	</g>
	<g>
		<g>
			<defs>
				<path id="SVGID_11_" d="M267.5,417.2l4.3-0.2c0,17.6-14.3,31.9-31.9,32c0,0,0,0-0.1,0l-0.3-3.8
					C255,445.2,267.5,432.7,267.5,417.2C267.5,417.2,267.5,417.2,267.5,417.2z"/>
			</defs>
			<use xlink:href="#SVGID_11_"  style="overflow:visible;"/>
			<clipPath id="SVGID_12_">
				<use xlink:href="#SVGID_11_"  style="overflow:visible;"/>
			</clipPath>
			<g class="st5">
				<g>
					<path d="M267.5,417.2l4.3-0.2c0,0.2,0,0.4,0,0.6l-4.3,0.2L267.5,417.2"/>
					<path d="M267.5,417.8l4.3-0.2c0,0.9-0.1,1.7-0.1,2.6l-4.3-0.1C267.5,419.3,267.5,418.5,267.5,417.8"/>
					<path d="M267.4,420l4.3,0.1c-0.1,0.8-0.2,1.6-0.3,2.4l-4.2-0.5C267.2,421.4,267.3,420.7,267.4,420"/>
					<path d="M267.1,422.1l4.2,0.5c-0.1,0.8-0.3,1.6-0.5,2.3l-4.2-0.8C266.8,423.5,267,422.8,267.1,422.1"/>
					<path d="M266.7,424.2l4.2,0.8c-0.2,0.8-0.4,1.5-0.7,2.3l-4.1-1C266.3,425.5,266.5,424.9,266.7,424.2"/>
					<path d="M266.1,426.2l4.1,1c-0.3,0.8-0.5,1.5-0.8,2.2l-4-1.3C265.6,427.4,265.8,426.8,266.1,426.2"/>
					<path d="M265.3,428.1l4,1.3c-0.3,0.7-0.7,1.5-1,2.2l-3.9-1.6C264.8,429.4,265.1,428.7,265.3,428.1"/>
					<path d="M264.5,430l3.9,1.6c-0.4,0.8-0.8,1.5-1.2,2.2l-3.7-1.9C263.8,431.3,264.2,430.7,264.5,430"/>
					<path d="M263.4,431.9l3.7,1.9c-0.5,0.8-1,1.5-1.5,2.2l-3.5-2.1C262.5,433.2,263,432.6,263.4,431.9"/>
					<path d="M262.1,433.8l3.5,2.1c-0.6,0.8-1.1,1.5-1.8,2.2l-3.3-2.4C261.1,435.1,261.6,434.5,262.1,433.8"/>
					<path d="M260.5,435.7l3.3,2.4c-0.7,0.8-1.4,1.5-2.2,2.2l-3-2.7C259.3,437.1,259.9,436.4,260.5,435.7"/>
					<path d="M258.6,437.7l3,2.7c-0.8,0.8-1.7,1.5-2.6,2.2l-2.7-3C257.1,439,257.9,438.4,258.6,437.7"/>
					<path d="M256.3,439.6l2.7,3c-1.1,0.8-2.3,1.6-3.5,2.3l-2.2-3.2C254.3,441,255.3,440.3,256.3,439.6"/>
					<path d="M253.2,441.6l2.2,3.2c-1.6,0.9-3.3,1.7-5,2.3l-1.6-3.5C250.4,443.1,251.9,442.4,253.2,441.6"/>
					<path d="M248.8,443.6l1.6,3.5c-3.4,1.2-7,1.8-10.6,1.8l-0.3-3.8C242.7,445.2,245.9,444.6,248.8,443.6"/>
				</g>
			</g>
		</g>
	</g>
	<polygon points="179.6,269.2 175.9,272.9 32,272.8 31.7,269 	"/>
	<polygon points="179.6,417.1 175.9,416.9 175.9,272.9 179.6,269.2 	"/>
	<g>
		<g>
			<defs>
				<path id="SVGID_13_" d="M186.8,8.9l1.3-1.1c5.8-5.1,13.3-7.9,21-7.8l-1.3,1.1C200.1,1.1,192.7,3.9,186.8,8.9z"/>
			</defs>
			<use xlink:href="#SVGID_13_"  style="overflow:visible;"/>
			<clipPath id="SVGID_14_">
				<use xlink:href="#SVGID_13_"  style="overflow:visible;"/>
			</clipPath>
			<g class="st6">
				<g>
					<path d="M186.8,8.9l1.3-1.1c3-2.7,6.6-4.7,10.4-6.1l-1.3,1.1C193.4,4.2,189.9,6.2,186.8,8.9"/>
					<path d="M197.3,2.9l1.3-1.1c1.7-0.6,3.4-1,5.1-1.3l-1.3,1.1C200.6,1.8,198.9,2.3,197.3,2.9"/>
					<path d="M202.4,1.6l1.3-1.1c1.5-0.3,2.9-0.4,4.4-0.4l-1.3,1.1C205.3,1.2,203.8,1.3,202.4,1.6"/>
					<path d="M206.8,1.1l1.3-1.1h1l-1.3,1.1C207.4,1.1,207.1,1.1,206.8,1.1"/>
				</g>
			</g>
		</g>
	</g>
	<polygon points="31.7,181.1 32,176.8 175.9,177 179.6,181.2 	"/>
	<g>
		<g>
			<defs>
				<path id="SVGID_15_" d="M438,264.2l-1.3,1.1c7-6.1,11-14.9,11-24.1l1.3-1.1C449,249.4,445,258.2,438,264.2z"/>
			</defs>
			<use xlink:href="#SVGID_15_"  style="overflow:visible;"/>
			<clipPath id="SVGID_16_">
				<use xlink:href="#SVGID_15_"  style="overflow:visible;"/>
			</clipPath>
			<g class="st7">
				<g>
					<path d="M447.7,241.2l1.3-1.1c0,0.7,0,1.4-0.1,2.1l-1.3,1.1C447.7,242.6,447.7,241.9,447.7,241.2"/>
					<path d="M447.6,243.3l1.3-1.1c-0.1,1.4-0.3,2.8-0.5,4.1l-1.3,1.1C447.4,246.1,447.5,244.7,447.6,243.3"/>
					<path d="M447.1,247.4l1.3-1.1c-0.3,1.4-0.7,2.9-1.1,4.2l-1.3,1.1C446.4,250.3,446.8,248.9,447.1,247.4"/>
					<path d="M445.9,251.7l1.3-1.1c-0.6,1.7-1.3,3.3-2.1,4.8l-1.3,1.1C444.6,255,445.4,253.4,445.9,251.7"/>
					<path d="M443.8,256.6l1.3-1.1c-1.8,3.3-4.2,6.3-7.1,8.8l-1.3,1.1C439.6,262.9,442,259.9,443.8,256.6"/>
				</g>
			</g>
		</g>
	</g>
	<polygon points="207.8,1.1 209.1,0 241.1,0 239.8,1.1 	"/>
	<polygon points="271.8,33.2 273.1,32 273.1,176 271.8,177.1 	"/>
	<polygon points="267.5,269.3 271.8,273 271.8,417 267.5,417.2 	"/>
	<g>
		<g>
			<defs>
				<path id="SVGID_17_" d="M239.8,1.1l1.3-1.1c17.7,0,32,14.3,32,32l-1.3,1.1C271.8,15.5,257.5,1.1,239.8,1.1
					C239.8,1.1,239.8,1.1,239.8,1.1z"/>
			</defs>
			<use xlink:href="#SVGID_17_"  style="overflow:visible;"/>
			<clipPath id="SVGID_18_">
				<use xlink:href="#SVGID_17_"  style="overflow:visible;"/>
			</clipPath>
			<g class="st8">
				<g>
					<path d="M239.8,1.1l1.3-1.1c1.1,0,2.1,0.1,3.2,0.2L243,1.3C242,1.2,240.9,1.1,239.8,1.1"/>
					<path d="M243,1.3l1.3-1.1c1.4,0.1,2.8,0.4,4.1,0.7L247.1,2C245.8,1.7,244.4,1.4,243,1.3"/>
					<path d="M247.1,2l1.3-1.1c1.5,0.3,2.9,0.8,4.4,1.4l-1.3,1.1C250.1,2.8,248.6,2.3,247.1,2"/>
					<path d="M251.5,3.4l1.3-1.1c1.8,0.7,3.5,1.6,5.1,2.5l-1.3,1.1C255,4.9,253.2,4,251.5,3.4"/>
					<path d="M256.6,5.9l1.3-1.1c5.7,3.6,10.2,8.8,12.8,15.1l-1.3,1.1C266.8,14.7,262.3,9.5,256.6,5.9"/>
					<path d="M269.4,21l1.3-1.1c0.7,1.8,1.3,3.6,1.7,5.4l-1.3,1.1C270.7,24.6,270.1,22.8,269.4,21"/>
					<path d="M271.1,26.5l1.3-1.1c0.3,1.5,0.5,3,0.6,4.6l-1.3,1.1C271.6,29.5,271.4,28,271.1,26.5"/>
					<path d="M271.7,31l1.3-1.1c0,0.7,0.1,1.4,0.1,2.2l-1.3,1.1C271.8,32.4,271.8,31.7,271.7,31"/>
				</g>
			</g>
		</g>
	</g>
	<polygon points="271.8,177.1 273.1,176 417,176.1 415.7,177.2 	"/>
	<polygon points="447.7,209.3 449,208.2 449,240.1 447.7,241.2 	"/>
	<g>
		<g>
			<defs>
				<path id="SVGID_19_" d="M415.7,177.2l1.3-1.1c17.7,0,32,14.3,32,32l-1.3,1.1C447.7,191.6,433.4,177.2,415.7,177.2
					C415.7,177.2,415.7,177.2,415.7,177.2z"/>
			</defs>
			<use xlink:href="#SVGID_19_"  style="overflow:visible;"/>
			<clipPath id="SVGID_20_">
				<use xlink:href="#SVGID_19_"  style="overflow:visible;"/>
			</clipPath>
			<g class="st9">
				<g>
					<path d="M415.7,177.2l1.3-1.1c1.1,0,2.1,0.1,3.2,0.2l-1.3,1.1C417.9,177.3,416.8,177.2,415.7,177.2"/>
					<path d="M418.9,177.4l1.3-1.1c1.4,0.1,2.8,0.4,4.1,0.7l-1.3,1.1C421.7,177.8,420.3,177.5,418.9,177.4"/>
					<path d="M423,178.1l1.3-1.1c1.5,0.3,2.9,0.8,4.4,1.4l-1.3,1.1C426,178.9,424.5,178.4,423,178.1"/>
					<path d="M427.4,179.4l1.3-1.1c1.8,0.7,3.5,1.6,5.1,2.6l-1.3,1.1C430.9,181,429.2,180.1,427.4,179.4"/>
					<path d="M432.5,182l1.3-1.1c5.7,3.6,10.2,8.8,12.8,15.1l-1.3,1.1C442.7,190.8,438.2,185.6,432.5,182"/>
					<path d="M445.3,197.1l1.3-1.1c0.7,1.8,1.3,3.6,1.7,5.4l-1.3,1.1C446.6,200.7,446,198.8,445.3,197.1"/>
					<path d="M447,202.5l1.3-1.1c0.3,1.5,0.5,3,0.6,4.6l-1.3,1.1C447.5,205.6,447.3,204,447,202.5"/>
					<path d="M447.6,207.1l1.3-1.1c0,0.7,0.1,1.4,0.1,2.2l-1.3,1.1C447.7,208.5,447.7,207.8,447.6,207.1"/>
				</g>
			</g>
		</g>
	</g>
	<polygon points="179.6,181.2 175.9,177 175.9,33 179.6,33.3 	"/>
	<polygon points="415.4,269.4 415.7,273.2 271.8,273 267.5,269.3 	"/>
	<g>
		<g>
			<defs>
				<path id="SVGID_21_" d="M179.6,33.3l-3.7-0.3c0-17.6,14.3-31.9,31.9-31.9c0,0,0,0,0.1,0l-0.3,4.2
					C192.1,5.3,179.6,17.8,179.6,33.3C179.6,33.3,179.6,33.3,179.6,33.3z"/>
			</defs>
			<use xlink:href="#SVGID_21_"  style="overflow:visible;"/>
			<clipPath id="SVGID_22_">
				<use xlink:href="#SVGID_21_"  style="overflow:visible;"/>
			</clipPath>
			<g class="st10">
				<g>
					<path d="M179.6,33.3l-3.7-0.3c0-5.4,1.3-10.6,3.9-15.3l3.2,2.2C180.7,24,179.6,28.6,179.6,33.3"/>
					<path d="M183,19.9l-3.2-2.2c0.9-1.6,1.9-3.2,3.1-4.6l2.8,2.8C184.7,17.1,183.8,18.5,183,19.9"/>
					<path d="M185.7,15.8l-2.8-2.8c0.9-1.1,1.8-2.1,2.8-3.1l2.5,3.1C187.3,14,186.5,14.9,185.7,15.8"/>
					<path d="M188.2,13.1l-2.5-3.1c0.8-0.8,1.7-1.6,2.6-2.3l2.2,3.4C189.7,11.8,188.9,12.5,188.2,13.1"/>
					<path d="M190.5,11.2l-2.1-3.4c0.8-0.6,1.7-1.2,2.5-1.8l1.8,3.7C191.9,10.1,191.2,10.6,190.5,11.2"/>
					<path d="M192.7,9.6L190.8,6c0.8-0.5,1.6-1,2.4-1.4l1.5,3.9C194.1,8.8,193.4,9.2,192.7,9.6"/>
					<path d="M194.8,8.5l-1.5-3.8c0.8-0.4,1.6-0.8,2.4-1.1l1.2,4C196.2,7.8,195.5,8.2,194.8,8.5"/>
					<path d="M196.9,7.5l-1.2-4c0.8-0.3,1.6-0.6,2.3-0.9l0.9,4.1C198.2,6.9,197.5,7.1,196.9,7.5"/>
					<path d="M198.9,6.7L198,2.6c0.8-0.2,1.5-0.5,2.3-0.7l0.6,4.1C200.3,6.3,199.6,6.5,198.9,6.7"/>
					<path d="M201,6.1L200.3,2c0.8-0.2,1.5-0.3,2.3-0.5l0.4,4.2C202.3,5.8,201.6,6,201,6.1"/>
					<path d="M203,5.7l-0.4-4.2c0.8-0.1,1.6-0.2,2.4-0.3l0.1,4.2C204.4,5.5,203.7,5.6,203,5.7"/>
					<path d="M205.1,5.5L205,1.2c0.8-0.1,1.6-0.1,2.4-0.1l-0.2,4.2C206.5,5.3,205.8,5.3,205.1,5.5"/>
					<path d="M207.2,5.4l0.2-4.2h0.4l-0.3,4.2H207.2"/>
				</g>
			</g>
		</g>
	</g>
	<g>
		<g>
			<defs>
				<path id="SVGID_23_" d="M443.4,241.4l4.3-0.2c0,17.6-14.3,31.9-31.9,32c0,0,0,0-0.1,0l-0.2-3.7
					C430.9,269.4,443.4,256.9,443.4,241.4C443.4,241.5,443.4,241.5,443.4,241.4z"/>
			</defs>
			<use xlink:href="#SVGID_23_"  style="overflow:visible;"/>
			<clipPath id="SVGID_24_">
				<use xlink:href="#SVGID_23_"  style="overflow:visible;"/>
			</clipPath>
			<g class="st11">
				<g>
					<path d="M443.4,241.4l4.3-0.2c0,0.2,0,0.4,0,0.6l-4.3,0.2L443.4,241.4"/>
					<path d="M443.4,242.1l4.3-0.2c0,0.9-0.1,1.7-0.1,2.6l-4.3-0.2C443.4,243.6,443.4,242.8,443.4,242.1"/>
					<path d="M443.3,244.3l4.3,0.2c-0.1,0.8-0.2,1.6-0.3,2.4l-4.2-0.4C443.1,245.7,443.2,245,443.3,244.3"/>
					<path d="M443,246.4l4.2,0.5c-0.1,0.8-0.3,1.6-0.5,2.3l-4.2-0.8C442.7,247.8,442.9,247.1,443,246.4"/>
					<path d="M442.5,248.4l4.2,0.8c-0.2,0.8-0.4,1.5-0.7,2.3l-4.1-1C442.2,249.8,442.4,249.2,442.5,248.4"/>
					<path d="M442,250.4l4.1,1c-0.3,0.8-0.5,1.5-0.8,2.2l-4-1.3C441.5,251.7,441.7,251.1,442,250.4"/>
					<path d="M441.2,252.4l4,1.3c-0.3,0.7-0.7,1.5-1,2.2l-3.9-1.6C440.7,253.7,441,253,441.2,252.4"/>
					<path d="M440.3,254.3l3.9,1.6c-0.4,0.8-0.8,1.5-1.2,2.2l-3.7-1.9C439.6,255.6,440,254.9,440.3,254.3"/>
					<path d="M439.2,256.2l3.7,1.9c-0.5,0.8-1,1.5-1.5,2.2l-3.5-2.1C438.4,257.5,438.8,256.9,439.2,256.2"/>
					<path d="M437.9,258.1l3.5,2.1c-0.6,0.8-1.1,1.5-1.8,2.2l-3.3-2.4C436.9,259.4,437.5,258.8,437.9,258.1"/>
					<path d="M436.4,260l3.3,2.4c-0.7,0.8-1.4,1.5-2.1,2.2l-3-2.7C435.2,261.3,435.8,260.7,436.4,260"/>
					<path d="M434.5,262l3,2.7c-0.8,0.8-1.7,1.5-2.7,2.2l-2.7-3C432.9,263.3,433.7,262.6,434.5,262"/>
					<path d="M432.2,263.9l2.7,3c-1.1,0.8-2.3,1.6-3.5,2.3l-2.2-3.2C430.2,265.3,431.2,264.7,432.2,263.9"/>
					<path d="M429.1,265.9l2.2,3.2c-1.6,0.9-3.3,1.7-5,2.3l-1.6-3.5C426.3,267.3,427.7,266.7,429.1,265.9"/>
					<path d="M424.7,267.9l1.6,3.5c-3.4,1.2-7,1.8-10.6,1.8l-0.2-3.7C418.6,269.5,421.8,268.9,424.7,267.9"/>
				</g>
			</g>
		</g>
	</g>
	<polygon points="207.6,5.3 207.8,1.1 239.8,1.1 239.5,5.4 	"/>
	<polygon points="267.5,33.4 271.8,33.2 271.8,177.1 267.5,181.3 	"/>
	<g>
		<g>
			<defs>
				<path id="SVGID_25_" d="M239.5,5.4l0.3-4.2c17.7,0,32,14.3,32,32l0,0l-4.3,0.3C267.5,18,255,5.4,239.5,5.4
					C239.5,5.4,239.5,5.4,239.5,5.4z"/>
			</defs>
			<use xlink:href="#SVGID_25_"  style="overflow:visible;"/>
			<clipPath id="SVGID_26_">
				<use xlink:href="#SVGID_25_"  style="overflow:visible;"/>
			</clipPath>
			<g class="st12">
				<g>
					<path d="M239.5,5.4l0.3-4.2c0.7,0,1.4,0,2.1,0.1l-0.6,4.2C240.7,5.5,240.1,5.4,239.5,5.4"/>
					<path d="M241.3,5.5l0.6-4.2c0.9,0.1,1.7,0.2,2.5,0.3l-0.9,4.2C242.8,5.6,242.1,5.5,241.3,5.5"/>
					<path d="M243.6,5.7l0.9-4.2c0.9,0.1,1.8,0.3,2.6,0.5l-1.2,4.1C245.2,5.9,244.4,5.8,243.6,5.7"/>
					<path d="M245.9,6.1l1.2-4.1c0.9,0.2,1.9,0.5,2.8,0.8l-1.6,4C247.5,6.5,246.7,6.3,245.9,6.1"/>
					<path d="M248.3,6.8l1.6-4c1.1,0.4,2.1,0.8,3.1,1.2L251,7.9C250.1,7.5,249.2,7.1,248.3,6.8"/>
					<path d="M251,7.9L253,4c1.3,0.6,2.5,1.2,3.6,1.9l-2.4,3.7C253.2,8.9,252.1,8.4,251,7.9"/>
					<path d="M254.2,9.6l2.4-3.7c2.4,1.5,4.6,3.3,6.5,5.4l-3.2,3C258.3,12.5,256.3,10.9,254.2,9.6"/>
					<path d="M260,14.3l3.2-3c0.8,0.8,1.5,1.6,2.1,2.5l-3.5,2.7C261.2,15.7,260.6,15,260,14.3"/>
					<path d="M261.8,16.5l3.5-2.7c1.7,2.2,3.1,4.6,4.1,7.2l-4,1.8C264.5,20.5,263.3,18.4,261.8,16.5"/>
					<path d="M265.4,22.7l4-1.8c0.5,1.3,1,2.6,1.3,3.9l-4.1,1.3C266.3,25,265.9,23.9,265.4,22.7"/>
					<path d="M266.6,26.2l4.1-1.3c0.3,1.1,0.5,2.2,0.7,3.3l-4.2,0.9C267,28.1,266.8,27.1,266.6,26.2"/>
					<path d="M267.2,29l4.2-0.9c0.1,1,0.3,1.9,0.3,2.9l-4.3,0.5C267.4,30.7,267.3,29.9,267.2,29"/>
					<path d="M267.5,31.6l4.3-0.5c0,0.7,0.1,1.4,0.1,2.1l-4.4,0.3C267.5,32.8,267.5,32.2,267.5,31.6"/>
				</g>
			</g>
		</g>
	</g>
	<polygon points="267.5,181.3 271.8,177.1 415.7,177.2 415.4,181.5 	"/>
	<polygon points="443.4,209.5 447.7,209.3 447.7,241.2 443.4,241.5 	"/>
	<g>
		<g>
			<defs>
				<path id="SVGID_27_" d="M415.4,181.4l0.3-4.2c17.7,0,32,14.3,32,32l-4.3,0.2C443.4,194,430.9,181.4,415.4,181.4L415.4,181.4z"/>
			</defs>
			<use xlink:href="#SVGID_27_"  style="overflow:visible;"/>
			<clipPath id="SVGID_28_">
				<use xlink:href="#SVGID_27_"  style="overflow:visible;"/>
			</clipPath>
			<g class="st13">
				<g>
					<path d="M415.4,181.4l0.3-4.2c0.7,0,1.4,0,2.1,0.1l-0.5,4.2C416.6,181.5,416,181.5,415.4,181.4"/>
					<path d="M417.2,181.5l0.5-4.2c0.9,0.1,1.7,0.1,2.5,0.3l-0.9,4.2C418.7,181.7,418,181.6,417.2,181.5"/>
					<path d="M419.5,181.8l0.9-4.2c0.9,0.1,1.8,0.3,2.6,0.5l-1.2,4.1C421,182,420.3,181.9,419.5,181.8"/>
					<path d="M421.8,182.2l1.2-4.1c0.9,0.2,1.9,0.5,2.8,0.8l-1.5,4C423.4,182.6,422.6,182.3,421.8,182.2"/>
					<path d="M424.2,182.9l1.5-4c1.1,0.3,2.1,0.8,3.1,1.2l-1.9,3.9C426,183.6,425.1,183.3,424.2,182.9"/>
					<path d="M426.9,184l1.9-3.9c1.3,0.6,2.5,1.2,3.6,1.9l-2.4,3.6C429.1,185,428,184.5,426.9,184"/>
					<path d="M430.1,185.7l2.4-3.6c2.4,1.5,4.6,3.3,6.5,5.4l-3.2,3C434.1,188.6,432.2,187,430.1,185.7"/>
					<path d="M435.8,190.4l3.2-3c0.8,0.8,1.5,1.6,2.1,2.5l-3.5,2.7C437.1,191.8,436.5,191,435.8,190.4"/>
					<path d="M437.7,192.6l3.5-2.7c1.7,2.2,3.1,4.6,4.1,7.2l-4,1.8C440.4,196.6,439.2,194.5,437.7,192.6"/>
					<path d="M441.3,198.8l4-1.8c0.5,1.3,1,2.6,1.3,3.9l-4.1,1.3C442.2,201.1,441.8,200,441.3,198.8"/>
					<path d="M442.5,202.3l4.1-1.3c0.3,1.1,0.5,2.2,0.7,3.3l-4.2,0.9C442.9,204.2,442.7,203.2,442.5,202.3"/>
					<path d="M443.1,205.1l4.2-0.9c0.1,1,0.3,1.9,0.3,2.9l-4.3,0.5C443.3,206.8,443.2,206,443.1,205.1"/>
					<path d="M443.4,207.7l4.3-0.5c0,0.7,0.1,1.4,0.1,2.1l-4.3,0.2C443.4,208.9,443.4,208.3,443.4,207.7"/>
				</g>
			</g>
		</g>
	</g>
	<path d="M239.5,5.4c15.5,0,28,12.5,28,28c0,0,0,0,0,0v147.9l147.9,0.2c15.5,0,28,12.5,28,28v32c0,15.4-12.4,28-27.9,28
		c0,0-0.1,0-0.1,0l-147.9-0.2v147.9c0,15.4-12.5,27.9-27.9,28c0,0,0,0-0.1,0h-32c-15.5,0-28-12.5-28-28v-148L31.6,269
		c-15.5,0-28-12.5-28-28v-32c0-15.4,12.4-28,27.9-28c0,0,0.1,0,0.1,0l147.9,0.2V33.3c0-15.4,12.5-27.9,27.9-28c0,0,0,0,0.1,0
		L239.5,5.4z"/>
</g>
</svg>
