<?xml version="1.0" encoding="utf-8"?>
<!-- Generator: Adobe Illustrator 22.1.0, SVG Export Plug-In . SVG Version: 6.00 Build 0)  -->
<svg version="1.1" id="Layer_1" xmlns="http://www.w3.org/2000/svg" xmlns:xlink="http://www.w3.org/1999/xlink" x="0px" y="0px"
	 viewBox="0 0 600 300" style="enable-background:new 0 0 600 300;" xml:space="preserve">
<style type="text/css">
	.st0{fill:none;}
	.st1{fill:#2C5985;}
	.st2{fill:url(#SVGID_1_);}
</style>
<path class="st0" d="M170.6,252.1c-18.2,0-36.7-11.1-36.7-32.4v-4.4h14.4v4.4c0,14.2,14,18,22.2,18c5.9,0,11.7-1.8,15.9-4.8
	c4.2-3.2,6.4-7.7,6.4-13.2c0-16.7-8.7-19.6-25.4-23.6l-0.3-0.1c-14-3.5-33.2-8.4-33.2-32.9c0-21.6,18.8-32.9,37.4-32.9
	c9.3,0,17.8,2.7,24.1,7.5c7.6,5.8,11.7,14.1,11.7,24v4.4h-14.4v-4.4c0-5.1-2.1-9.5-6.1-12.5c-3.9-3-9.3-4.6-15.3-4.6
	c-11.4,0-23,6.4-23,18.5c0,12.7,6.9,15,22.4,18.8l0.4,0.1c15.2,3.9,36.1,9.1,36.1,37.7c0,10.1-4.2,18.7-12.1,24.7
	C188.6,249.4,180.1,252.1,170.6,252.1z M236.3,187.9h12.3v-13.7h-12.3V156h-13.9v18.2h-11.7v13.7h11.7v64.3h13.9V187.9z
	 M268.6,201.6c0-6.7,5.7-11.2,14.1-11.2c4.6,0,8.5,1.3,11.3,3.9l3.1,2.7l9.9-9.4l-3.4-3.2c-5.1-4.9-12.6-7.6-20.9-7.6
	c-5.1,0-9.9,1.1-14.1,3.2v-0.9h-13.7v72.6h13.7V201.6z M367.6,243.1v6.7h13.9v-72.4h-13.9v6.6c-6.8-5.8-15.6-9.1-24.7-9.1
	c-21.4,0-38.8,17.3-38.8,38.6s17.4,38.6,38.8,38.6C352,252.1,360.8,248.8,367.6,243.1z M367.6,213.5c0,13.7-11.1,24.9-24.7,24.9
	c-13.7,0-24.9-11.2-24.9-24.9s11.2-24.9,24.9-24.9C356.5,188.5,367.6,199.7,367.6,213.5z M414.2,188.9h12.3v-13.7h-12.3V157h-13.9
	v18.2h-11.7v13.7h11.7v62.8h13.9V188.9z M487.6,243.1v6.7h13.9v-72.4h-13.9v6.6c-6.8-5.8-15.6-9.1-24.7-9.1
	c-21.4,0-38.8,17.3-38.8,38.6s17.4,38.6,38.8,38.6C472,252.1,480.7,248.8,487.6,243.1z M487.6,213.5c0,13.7-11.1,24.9-24.7,24.9
	c-13.7,0-24.9-11.2-24.9-24.9s11.2-24.9,24.9-24.9C476.5,188.5,487.6,199.7,487.6,213.5z"/>
<g>
	<path class="st0" d="M269,179.8h-0.4v0.2C268.7,179.9,268.9,179.8,269,179.8z"/>
	<rect x="400.3" y="235.1" class="st1" width="13.9" height="16.6"/>
	<path class="st1" d="M366.6,206.4h14.9v-12.8h-23.7C361.9,196.7,365.1,201.2,366.6,206.4z"/>
	<path class="st1" d="M439,206.4c1.5-5.2,4.7-9.6,8.9-12.8h-18.3c-2.4,3.9-4,8.2-4.9,12.8H439z"/>
	<path class="st1" d="M319,206.4c1.5-5.2,4.7-9.6,8.9-12.8h-18.3c-2.4,3.9-4,8.2-4.9,12.8H319z"/>
	<rect x="400.3" y="193.6" class="st1" width="13.9" height="12.8"/>
	<path class="st1" d="M268.6,201.6c0-3.3,1.4-6,3.8-8h-17.5v12.8h13.7V201.6z"/>
	<path class="st1" d="M297.1,196.9l3.6-3.4h-7.5c0.3,0.2,0.6,0.5,0.8,0.7L297.1,196.9z"/>
	<path class="st1" d="M273.8,192.6c2.3-1.4,5.4-2.2,8.9-2.2c3.5,0,6.5,0.7,9,2.2h10l5.3-5l-3.4-3.2c-1.9-1.9-4.2-3.4-6.8-4.6H269
		c-0.1,0.1-0.3,0.1-0.4,0.2v-0.2h-13.7v12.8H273.8z"/>
	<path class="st1" d="M310.3,192.6h19.1c3.9-2.5,8.5-4,13.5-4c5,0,9.6,1.4,13.5,4h25.1v-12.8h-13.9v4.2c-1.9-1.6-3.9-3-6-4.2H324
		C318.5,182.8,313.7,187.3,310.3,192.6z"/>
	<path class="st1" d="M197,193.3c-7.4-6.7-17.5-9.2-25.9-11.4l-0.4-0.1c-3-0.7-5.6-1.4-8-2.1h-24.7c6.4,10.5,19,13.7,29,16.2
		l0.3,0.1c16.7,4,25.4,6.9,25.4,23.6c0,5.5-2.2,10-6.4,13.2c-4.2,3-10,4.8-15.9,4.8c-8.2,0-22.2-3.8-22.2-18v-4.4h-14.4v4.4
		c0,21.3,18.5,32.4,36.7,32.4c9.5,0,18-2.7,24.5-7.7c7.9-6,12.1-14.6,12.1-24.7c0-12.6-4.1-20.7-9.9-26.1H197V193.3z"/>
	<polygon class="st1" points="400.3,188.9 400.3,192.6 414.2,192.6 414.2,188.9 426.5,188.9 426.5,179.8 388.6,179.8 388.6,188.9 	
		"/>
	<path class="st1" d="M424.7,220.1h14.2c-0.6-2.1-0.9-4.4-0.9-6.7c0-2.1,0.3-4.1,0.8-6.1h-14.2c-0.3,2-0.5,4-0.5,6.1
		C424.1,215.7,424.3,218,424.7,220.1z"/>
	<polygon class="st1" points="222.4,187.9 222.4,192.6 236.3,192.6 236.3,187.9 248.6,187.9 248.6,179.8 210.7,179.8 210.7,187.9 	
		"/>
	<path class="st1" d="M148.4,164.9h-14.4c0.2,5.6,1.5,10.1,3.6,13.8h22.2C152.4,176.2,148.8,172.7,148.4,164.9z"/>
	<path class="st1" d="M487.6,183.9c-1.9-1.6-3.9-3-6-4.2H444c-5.6,3.1-10.3,7.5-13.7,12.8h19.1c3.9-2.5,8.5-4,13.5-4
		c5,0,9.6,1.4,13.5,4h25.1v-12.8h-13.9V183.9z"/>
	<path class="st1" d="M476.7,234.1h24.8v-12.9h-15.1C484.7,226.4,481.2,231,476.7,234.1z"/>
	<path class="st1" d="M487.6,213.4c0,2.3-0.3,4.6-0.9,6.7h14.8v-12.8h-14.6C487.3,209.3,487.6,211.3,487.6,213.4z"/>
	<path class="st1" d="M486.6,206.4h14.9v-12.8h-23.7C481.9,196.7,485.1,201.2,486.6,206.4z"/>
	<polygon class="st1" points="400.3,175.1 388.6,175.1 388.6,178.8 426.5,178.8 426.5,175.1 414.2,175.1 414.2,164.9 400.3,164.9 	
		"/>
	<rect x="400.3" y="207.4" class="st1" width="13.9" height="12.8"/>
	<path class="st1" d="M192.7,161.6v2.3h14.4v-2.3c0-3.4-0.5-6.5-1.4-9.5h-16.1C191.6,154.8,192.7,158,192.7,161.6z"/>
	<path class="st1" d="M366.7,220.1h14.8v-12.8h-14.6c0.5,2,0.7,4,0.7,6.1C367.6,215.8,367.3,218,366.7,220.1z"/>
	<path class="st1" d="M318,213.4c0-2.1,0.3-4.1,0.8-6.1h-14.2c-0.3,2-0.5,4-0.5,6.1c0,2.3,0.2,4.5,0.6,6.7h14.2
		C318.3,218,318,215.8,318,213.4z"/>
	<path class="st1" d="M449,234.1c-4.5-3.1-8-7.6-9.7-12.9h-14.4c1,4.7,2.8,9,5.2,12.9H449z"/>
	<path class="st1" d="M342.9,238.4c-11,0-20.4-7.2-23.7-17.2h-14.4c3.6,17.6,19.3,30.9,38,30.9c9.1,0,17.9-3.3,24.7-9v6.7h13.9
		v-28.6h-15.1C363.1,231.1,353.8,238.4,342.9,238.4z"/>
	<rect x="400.3" y="221.1" class="st1" width="13.9" height="12.9"/>
	<path class="st1" d="M462.9,238.4c-4.5,0-8.7-1.2-12.3-3.3h-19.8c2.9,4.3,6.7,8,11.1,10.8h41.9c1.3-0.9,2.6-1.8,3.8-2.8v2.8h13.9
		v-10.8h-26.4C471.5,237.1,467.4,238.4,462.9,238.4z"/>
	<path class="st1" d="M462.9,252.1c6.8,0,13.4-1.9,19.2-5.2h-38.6C449.2,250.2,455.8,252.1,462.9,252.1z"/>
	<rect x="487.6" y="246.9" class="st1" width="13.9" height="2.9"/>
	<rect x="254.9" y="207.4" class="st1" width="13.7" height="44.3"/>
	<path class="st1" d="M195.4,137.6c-6.3-4.8-14.8-7.5-24.1-7.5c-9.2,0-18.5,2.8-25.5,8.2h50.4C196,138.1,195.7,137.9,195.4,137.6z"
		/>
	<rect x="222.4" y="193.6" class="st1" width="13.9" height="58.6"/>
	<rect x="487.6" y="177.4" class="st1" width="13.9" height="1.4"/>
	<rect x="222.4" y="155.9" class="st1" width="13.9" height="8"/>
	<path class="st1" d="M171.3,144.6c6,0,11.4,1.6,15.3,4.6c0.8,0.6,1.5,1.3,2.2,2h16.6c-1.6-4.5-4.3-8.5-7.9-11.8h-52.8
		c-3.7,3.1-6.6,7.1-8.5,11.8h17.2C157.7,146.8,164.5,144.6,171.3,144.6z"/>
	<rect x="400.3" y="156.9" class="st1" width="13.9" height="7"/>
	<path class="st1" d="M462.9,174.9c-6.1,0-11.9,1.4-17,3.9h33.7C474.5,176.2,468.8,174.9,462.9,174.9z"/>
	<rect x="367.6" y="177.4" class="st1" width="13.9" height="1.4"/>
	<path class="st1" d="M325.9,178.8h33.7c-5.2-2.5-10.9-3.9-16.8-3.9C336.8,174.9,331,176.3,325.9,178.8z"/>
	<path class="st1" d="M271.4,178.8h23.1c-3.6-1.3-7.6-2-11.7-2C278.7,176.7,274.9,177.4,271.4,178.8z"/>
	<rect x="192.7" y="164.9" class="st1" width="14.4" height="1.1"/>
	<polygon class="st1" points="210.7,174.1 210.7,178.8 248.6,178.8 248.6,174.1 236.3,174.1 236.3,164.9 222.4,164.9 222.4,174.1 	
		"/>
	<path class="st1" d="M148.3,163.1c0-4.4,1.5-8,4-10.9h-16.6c-1.2,3.3-1.8,6.9-1.8,10.9c0,0.3,0,0.6,0,0.9h14.4
		C148.3,163.7,148.3,163.4,148.3,163.1z"/>
</g>
<g>
	<path class="st1" d="M301.2,264.6c6.3,0,10.2,4.2,10.2,11c0,4.4-1.8,8.2-4.9,10c-1.4,0.8-3.3,1.3-5.3,1.3h-4.8v-22.2L301.2,264.6
		L301.2,264.6z M299.1,284.6h2.1c4.6,0,7.3-3.3,7.3-8.8c0-5.6-2.7-8.9-7.3-8.9h-2.1V284.6z"/>
	<path class="st1" d="M316.7,278.9c0,4.3,1.2,6.4,3.8,6.4c1.7,0,2.6-0.9,3.3-3.3l2.3,0.5c-0.8,3.2-2.7,4.8-5.7,4.8
		c-4,0-6.3-3.1-6.3-8.5c0-5.5,2.5-8.9,6.4-8.9c1.8,0,3.3,0.8,4.3,2.1c0.7,0.9,1.2,2.5,1.4,4.2c0.1,0.6,0.1,1.3,0.2,2.6L316.7,278.9
		L316.7,278.9z M323.6,276.9c0-3.2-1.2-4.9-3.4-4.9c-2,0-3.2,1.7-3.4,4.9H323.6z"/>
	<path class="st1" d="M330.1,270.4l3.7,13.5l3.6-13.5h2.2l-4.8,16.4h-2.5l-4.8-16.4H330.1z"/>
	<path class="st1" d="M343.5,278.9c0,4.3,1.2,6.4,3.8,6.4c1.7,0,2.6-0.9,3.3-3.3l2.3,0.5c-0.8,3.2-2.7,4.8-5.7,4.8
		c-4,0-6.3-3.1-6.3-8.5c0-5.5,2.5-8.9,6.4-8.9c1.8,0,3.3,0.8,4.3,2.1c0.7,0.9,1.2,2.5,1.4,4.2c0.1,0.6,0.1,1.3,0.2,2.6L343.5,278.9
		L343.5,278.9z M350.4,276.9c0-3.2-1.2-4.9-3.4-4.9c-2,0-3.2,1.7-3.4,4.9H350.4z"/>
	<path class="st1" d="M358.9,264.6v22.2h-2.4v-22.2H358.9z"/>
	<path class="st1" d="M372.7,271.2c1.6,1.5,2.3,3.9,2.3,7.3c0,5.6-2.2,8.7-6.3,8.7c-4,0-6.3-3.1-6.3-8.6c0-5.7,2.2-8.7,6.3-8.7
		C370.3,269.9,371.7,270.4,372.7,271.2z M365.1,278.6c0,4.4,1.2,6.7,3.6,6.7s3.6-2.3,3.6-6.7c0-4.3-1.2-6.6-3.6-6.6
		C366.3,271.9,365.1,274.1,365.1,278.6z"/>
	<path class="st1" d="M380.8,270.4v2.9c1-2.3,2.3-3.2,4.4-3.2c3.5,0,5.8,3.3,5.8,8.3c0,3.3-0.9,6-2.5,7.6c-0.8,0.8-1.8,1.2-3.2,1.2
		c-2,0-3-0.6-4.2-2.5v7.7h-2.4v-22H380.8z M381,279.8c0,2.3,0.2,2.9,1,3.9c0.7,0.9,1.5,1.3,2.6,1.3c2.3,0,3.6-2.3,3.6-6.6
		c0-4.1-1.3-6.4-3.6-6.4c-1.3,0-2.2,0.6-2.9,2c-0.6,1-0.7,1.7-0.7,3.3V279.8z"/>
	<path class="st1" d="M396.2,278.9c0,4.3,1.2,6.4,3.8,6.4c1.7,0,2.6-0.9,3.3-3.3l2.3,0.5c-0.8,3.2-2.7,4.8-5.7,4.8
		c-4,0-6.3-3.1-6.3-8.5c0-5.5,2.5-8.9,6.4-8.9c1.8,0,3.3,0.8,4.3,2.1c0.7,0.9,1.2,2.5,1.4,4.2c0.1,0.6,0.1,1.3,0.2,2.6L396.2,278.9
		L396.2,278.9z M403.2,276.9c0-3.2-1.2-4.9-3.4-4.9c-2,0-3.2,1.7-3.4,4.9H403.2z"/>
	<path class="st1" d="M411.4,270.4v3.4c0.7-1.8,1.3-2.7,2.5-3.4c0.6-0.4,1.1-0.5,1.7-0.5c0.1,0,0.2,0,0.5,0v2.7c-0.3,0-0.4,0-0.6,0
		c-1.1,0-2.1,0.5-2.8,1.5c-0.7,1-1,2.2-1,4.2v8.5h-2.4v-16.4H411.4z"/>
	<path class="st1" d="M434.5,270.4c-1-3-2.1-4-4.5-4c-2.2,0-3.7,1.4-3.7,3.5c0,0.8,0.3,1.6,0.8,2.1c0.7,0.7,1.4,1.1,4.1,2.1
		c2.3,0.9,3.5,1.5,4.5,2.4c1.1,1,1.8,2.7,1.8,4.3c0,3.8-2.9,6.5-7.1,6.5c-2.1,0-4.2-0.7-5.5-1.9c-1.2-1.1-1.7-2.2-2.2-4.4l2.5-0.7
		c0.4,1.7,0.8,2.4,1.5,3.2c0.9,1,2.2,1.5,3.8,1.5c2.5,0,4.2-1.5,4.2-3.8c0-2-1.1-3.1-4.4-4.4c-3.2-1.2-3.7-1.5-4.7-2.4
		c-1.2-1.1-2-2.8-2-4.4c0-3.4,2.7-5.9,6.6-5.9c3.5,0,5.5,1.7,6.6,5.6L434.5,270.4z"/>
	<path class="st1" d="M443.8,266.2v4.1h3.2v2h-3.2v8.3c0,2.5,0.1,3.3,0.5,3.8s1.1,0.7,2.1,0.7c0.4,0,0.8,0,1.5-0.2v2
		c-1,0.2-1.5,0.3-2.3,0.3c-1.9,0-3.1-0.6-3.7-1.9c-0.4-0.8-0.5-2-0.5-4.8v-8.2H439v-2h2.4v-3.8L443.8,266.2z"/>
	<path class="st1" d="M452.2,270.4v10.4c0,1.8,0.1,2.6,0.2,3.1c0.3,0.9,1.1,1.4,2.3,1.4c1.3,0,2.2-0.6,2.8-1.9
		c0.6-1.2,0.7-2.3,0.7-5.4v-7.6h2.4v16.4h-2.3v-2.5c-1.1,2.2-2.2,2.9-4.3,2.9c-1.9,0-3.3-0.8-3.9-2.4c-0.3-0.8-0.5-2.1-0.5-4.2
		v-10.2H452.2z"/>
	<path class="st1" d="M476.6,264.6v22.2h-2.2v-2.3c-1,1.8-2.4,2.6-4.4,2.6c-3.7,0-5.8-3-5.8-8.4s2.2-8.7,5.8-8.7
		c1.9,0,3.2,0.8,4.1,2.6v-8L476.6,264.6L476.6,264.6z M474.2,277c0-1.8-0.2-2.6-1.1-3.7c-0.6-0.9-1.5-1.3-2.6-1.3
		c-2.4,0-3.6,2.2-3.6,6.4c0,4.5,1.2,6.7,3.7,6.7c1.1,0,2.1-0.5,2.8-1.4c0.6-0.8,0.8-1.8,0.8-3.9L474.2,277L474.2,277z"/>
	<path class="st1" d="M480.9,267.4v-2.8h2.6v2.8H480.9z M483.4,270.4v16.4H481v-16.4H483.4z"/>
	<path class="st1" d="M497.3,271.2c1.6,1.5,2.3,3.9,2.3,7.3c0,5.6-2.2,8.7-6.3,8.7c-4,0-6.3-3.1-6.3-8.6c0-5.7,2.2-8.7,6.3-8.7
		C494.9,269.9,496.3,270.4,497.3,271.2z M489.7,278.6c0,4.4,1.2,6.7,3.6,6.7s3.6-2.3,3.6-6.7c0-4.3-1.2-6.6-3.6-6.6
		C490.9,271.9,489.7,274.1,489.7,278.6z"/>
</g>
<linearGradient id="SVGID_1_" gradientUnits="userSpaceOnUse" x1="47" y1="161.2063" x2="550.8226" y2="161.2063" gradientTransform="matrix(1 0 0 -1 0 302.7)">
	<stop  offset="0" style="stop-color:#54B948"/>
	<stop  offset="0.2927" style="stop-color:#4FB248"/>
	<stop  offset="0.6787" style="stop-color:#3BA447"/>
	<stop  offset="1" style="stop-color:#219647"/>
</linearGradient>
<path class="st2" d="M47,183.9c0.3-59.5,43.5-106.3,105.3-99.5C160.8,8.5,297-31.7,344.2,72.3c67.4-32.9,125.9,3.9,132.4,69.6
	c64.9-16,88.4,41.2,65.9,72.4c11.5-29.9-13.8-75.3-73-59.7c-5.6-56.6-78.5-94.5-132.3-49c-40.6-89.4-149.5-63.1-156.8,2.2
	c-53.2-5.9-85,35.2-85.3,86.5c0.9,41.8,26.3,70.2,65.5,76.3C96.7,285,48.3,245.9,47,183.9L47,183.9z"/>
</svg>
