<?xml version="1.0" encoding="UTF-8"?>
<svg width="343px" height="109px" viewBox="0 0 343 109" version="1.1" xmlns="http://www.w3.org/2000/svg" xmlns:xlink="http://www.w3.org/1999/xlink">
    <!-- Generator: Sketch 48.1 (47250) - http://www.bohemiancoding.com/sketch -->
    <title>Passive data route</title>
    <desc>Created with Sketch.</desc>
    <defs>
        <rect id="path-1" x="5" y="5" width="25" height="97" rx="11"></rect>
        <rect id="path-2" x="312" y="8" width="25" height="97" rx="11"></rect>
    </defs>
    <g id="tabloid" stroke="none" stroke-width="1" fill="none" fill-rule="evenodd" transform="translate(-452.000000, -610.000000)">
        <g id="Passive-data-route" transform="translate(452.000000, 610.000000)">
            <rect id="Rectangle-4-Copy" fill="#B4B4B4" x="0" y="0" width="343" height="109"></rect>
            <path d="M35.4222222,34.5 L110.577778,34.5" id="Line-Copy-13" stroke="#979797" stroke-width="4" stroke-linecap="square"></path>
            <path id="Line-Copy-13-decoration-1" d="M110.577778,34.5 L99.7777778,31.5 L99.7777778,37.5 L110.577778,34.5 Z" stroke="#979797" stroke-width="4" stroke-linecap="square"></path>
            <path d="M227.422222,36.5 L302.577778,36.5" id="Line-Copy-14" stroke="#979797" stroke-width="4" stroke-linecap="square"></path>
            <path id="Line-Copy-14-decoration-1" d="M302.577778,36.5 L291.777778,33.5 L291.777778,39.5 L302.577778,36.5 Z" stroke="#979797" stroke-width="4" stroke-linecap="square"></path>
            <path d="M111,74 L35,73" id="blue-line-left" stroke="#979797" stroke-width="4" stroke-linecap="square"></path>
            <path id="blue-line-left-decoration-1" d="M35,73 L45.759595,76.1418333 L45.8385355,70.1423526 L35,73 Z" stroke="#979797" stroke-width="4" stroke-linecap="square"></path>
            <path d="M303,75 L227,74" id="blue-line-left-copy-4" stroke="#979797" stroke-width="4" stroke-linecap="square"></path>
            <path id="blue-line-left-copy-4-decoration-1" d="M227,74 L237.759595,77.1418333 L237.838535,71.1423526 L227,74 Z" stroke="#979797" stroke-width="4" stroke-linecap="square"></path>
            <g id="Rectangle-Copy-2">
                <use fill="#9B9B9B" fill-rule="evenodd" xlink:href="#path-1"></use>
                <rect stroke="#979797" stroke-width="1" x="5.5" y="5.5" width="24" height="96" rx="11"></rect>
            </g>
            <g id="Rectangle-Copy-3">
                <use fill="#9B9B9B" fill-rule="evenodd" xlink:href="#path-2"></use>
                <rect stroke="#979797" stroke-width="1" x="312.5" y="8.5" width="24" height="96" rx="11"></rect>
            </g>
            <path d="M119,23.7264969 L119,90.6450114 C128.173473,78.9165385 138.778796,73.1093447 150.815969,73.2234301 C168.871728,73.3945582 170.706131,101.305158 191.790896,101.965505 C205.847406,102.405736 214.917107,98.6322383 219,90.6450114 L219,23.7264969 C210.169669,29.9887921 201.099968,32.8223257 191.790896,32.2270976 C177.827288,31.3342555 169,8.29148933 150.815969,8.00503583 C138.693281,7.81406682 128.087958,13.0545539 119,23.7264969 Z" id="flex-cable-copy" stroke="#979797" fill="#9B9B9B"></path>
        </g>
    </g>
</svg>